<?xml version="1.0" encoding="utf-8"?>
<!-- Generator: Adobe Illustrator 25.2.0, SVG Export Plug-In . SVG Version: 6.00 Build 0)  -->
<svg version="1.1" id="Layer_1" xmlns="http://www.w3.org/2000/svg" xmlns:xlink="http://www.w3.org/1999/xlink" x="0px" y="0px"
	 viewBox="0 0 56.7 56.7" style="enable-background:new 0 0 56.7 56.7;" xml:space="preserve">
<style type="text/css">
	.st0{fill:#4576BB;}
	.st1{fill-rule:evenodd;clip-rule:evenodd;fill:#4576BB;}
	.st2{fill:#231F20;}
	.st3{stroke:#000000;stroke-width:2.064668e-02;stroke-miterlimit:10;}
	.st4{fill:#010101;}
	.st5{fill:#FFFFFF;}
	.st6{fill:#353635;}
	.st7{fill:#5B5B5B;}
	.st8{fill:#E6E7E7;stroke:#5B5B5B;stroke-miterlimit:10;}
</style>
<g>
	<g>
		<g>
			<path d="M31.4,20.8c-0.2,0-0.3-0.2-0.3-0.3c0-0.6-0.5-1-1-1h-3.4c-0.6,0-1,0.5-1,1c0,0.2-0.2,0.3-0.3,0.3s-0.3-0.2-0.3-0.3
				c0-0.9,0.8-1.7,1.7-1.7h3.4c0.9,0,1.7,0.8,1.7,1.7C31.8,20.7,31.6,20.8,31.4,20.8z"/>
		</g>
	</g>
	<g>
		<g>
			<path d="M35.5,24.2H21.2c-0.2,0-0.3-0.2-0.3-0.3v-1.4c0-0.6,0.5-1,1-1h13c0.6,0,1,0.5,1,1v1.4C35.9,24.1,35.7,24.2,35.5,24.2z
				 M21.5,23.6h13.7v-1c0-0.2-0.2-0.3-0.3-0.3h-13c-0.2,0-0.3,0.2-0.3,0.3V23.6z"/>
		</g>
	</g>
	<g>
		<g>
			<path d="M32.9,37.9h-9c-0.9,0-1.7-0.7-1.7-1.6l-0.5-11c0-0.2,0.1-0.3,0.3-0.4c0.2,0,0.3,0.1,0.4,0.3l0.5,11c0,0.5,0.5,1,1,1h9
				c0.5,0,1-0.4,1-1l0.5-11c0-0.2,0.1-0.3,0.4-0.3c0.2,0,0.3,0.2,0.3,0.4l-0.5,11C34.5,37.2,33.8,37.9,32.9,37.9z"/>
		</g>
	</g>
	<g>
		<g>
			<path d="M28.3,35.9c-0.2,0-0.3-0.2-0.3-0.3V26c0-0.2,0.2-0.3,0.3-0.3s0.3,0.2,0.3,0.3v9.6C28.7,35.7,28.5,35.9,28.3,35.9z"/>
		</g>
	</g>
	<g>
		<g>
			<path d="M31.1,35.9C31.1,35.9,31.1,35.9,31.1,35.9c-0.2,0-0.4-0.2-0.3-0.4l0.7-9.6c0-0.2,0.2-0.3,0.4-0.3c0.2,0,0.3,0.2,0.3,0.4
				l-0.7,9.6C31.4,35.7,31.3,35.9,31.1,35.9z"/>
		</g>
	</g>
	<g>
		<g>
			<path d="M25.6,35.9c-0.2,0-0.3-0.1-0.3-0.3L24.6,26c0-0.2,0.1-0.4,0.3-0.4c0.2,0,0.4,0.1,0.4,0.3l0.7,9.6
				C26,35.7,25.8,35.8,25.6,35.9C25.6,35.9,25.6,35.9,25.6,35.9z"/>
		</g>
	</g>
</g>
</svg>
