<?xml version="1.0" encoding="utf-8"?>
<!-- Generator: Adobe Illustrator 25.2.0, SVG Export Plug-In . SVG Version: 6.00 Build 0)  -->
<svg version="1.1" id="Layer_1" xmlns="http://www.w3.org/2000/svg" xmlns:xlink="http://www.w3.org/1999/xlink" x="0px" y="0px"
	 viewBox="0 0 56.7 56.7" style="enable-background:new 0 0 56.7 56.7;" xml:space="preserve">
<style type="text/css">
	.st0{fill:#4576BB;}
	.st1{fill-rule:evenodd;clip-rule:evenodd;fill:#4576BB;}
	.st2{fill:#231F20;}
	.st3{stroke:#000000;stroke-width:2.064668e-02;stroke-miterlimit:10;}
	.st4{fill:#010101;}
	.st5{fill:#FFFFFF;}
	.st6{fill:#353635;}
	.st7{fill:#5B5B5B;}
	.st8{fill:#E6E7E7;stroke:#5B5B5B;stroke-miterlimit:10;}
</style>
<g>
	<path class="st0" d="M26.1,28.6l-0.5,2.2c0,0.1,0.1,0.2,0.2,0.2l2.2-0.5c0,0,0.1,0,0.1-0.1l4.8-4.8c0,0,0-0.1,0-0.1L31,23.8
		c0,0-0.1,0-0.1,0L26.1,28.6C26.1,28.6,26.1,28.6,26.1,28.6z"/>
	<path class="st0" d="M33.5,29.7h-0.8c-0.2,0-0.3,0.1-0.3,0.3v3.8h-9.5v-9.5H26c0.2,0,0.3-0.1,0.3-0.3v-0.8c0-0.2-0.1-0.3-0.3-0.3
		h-3.8c-0.4,0-0.7,0.3-0.7,0.7v10.9c0,0.4,0.3,0.7,0.7,0.7h10.9c0.4,0,0.7-0.3,0.7-0.7V30C33.8,29.8,33.7,29.7,33.5,29.7z"/>
	<path class="st0" d="M35,23l-1.3-1.3c-0.2-0.2-0.5-0.2-0.7,0l-1,1c-0.1,0.1-0.1,0.1,0,0.2l1.8,1.8c0.1,0.1,0.1,0.1,0.2,0l1-1
		C35.2,23.5,35.2,23.2,35,23z"/>
</g>
</svg>
