<?xml version="1.0" encoding="utf-8"?>
<!-- Generator: Adobe Illustrator 25.2.0, SVG Export Plug-In . SVG Version: 6.00 Build 0)  -->
<svg version="1.1" id="Layer_1" xmlns="http://www.w3.org/2000/svg" xmlns:xlink="http://www.w3.org/1999/xlink" x="0px" y="0px"
	 viewBox="0 0 56.7 56.7" style="enable-background:new 0 0 56.7 56.7;" xml:space="preserve">
<style type="text/css">
	.st0{fill:#4576BB;}
	.st1{fill-rule:evenodd;clip-rule:evenodd;fill:#4576BB;}
	.st2{fill:#231F20;}
	.st3{stroke:#000000;stroke-width:2.064668e-02;stroke-miterlimit:10;}
	.st4{fill:#010101;}
	.st5{fill:#FFFFFF;}
	.st6{fill:#353635;}
	.st7{fill:#5B5B5B;}
	.st8{fill:#E6E7E7;stroke:#5B5B5B;stroke-miterlimit:10;}
</style>
<g>
	<path class="st5" d="M32.2,33.8h-7.5c-0.2,0-0.4,0.2-0.4,0.4v0c0,0.2,0.2,0.4,0.4,0.4h7.5c0.2,0,0.4-0.2,0.4-0.4
		C32.6,34,32.4,33.8,32.2,33.8z"/>
	<path class="st5" d="M32.2,35.8h-7.5c-0.2,0-0.4,0.2-0.4,0.4v0c0,0.2,0.2,0.4,0.4,0.4h7.5c0.2,0,0.4-0.2,0.4-0.4
		C32.6,36,32.4,35.8,32.2,35.8z"/>
	<path class="st5" d="M35,32.3V33v0.1v1.5v2v0.3v0.6c0,0.2-0.2,0.4-0.4,0.4H22.1c-0.2,0-0.4-0.2-0.4-0.4v-5.1h-0.7v5.5
		c0,0.4,0.3,0.7,0.7,0.7H35c0.4,0,0.7-0.3,0.7-0.7v-1v-0.3v-2v-1.5V33v-0.7H35z"/>
	<path class="st5" d="M21.7,24.5v-5.2c0-0.2,0.2-0.4,0.4-0.4h8.4V23c0,0.3,0.2,0.5,0.5,0.5H35v1.1h0.7v-2.1l-4.4-4.3h-9.7
		c-0.4,0-0.7,0.3-0.7,0.7v5.6H21.7z M31.1,19l3.9,3.7v0.1h-3.8c-0.1,0-0.1-0.1-0.1-0.1V19z"/>
	<path class="st5" d="M37.7,25.1H19c-2,0-3.7,1.6-3.7,3.7v6.8c0,0.7,0.5,1.2,1.2,1.2h3.8v-5h16v5h3.8c0.7,0,1.2-0.5,1.2-1.2v-6.8
		C41.4,26.7,39.7,25.1,37.7,25.1z M38.2,28.8c-0.6,0-1-0.4-1-1c0-0.6,0.4-1,1-1c0.6,0,1,0.4,1,1C39.2,28.4,38.8,28.8,38.2,28.8z"/>
</g>
</svg>
