<?xml version="1.0" encoding="utf-8"?>
<!-- Generator: Adobe Illustrator 25.2.0, SVG Export Plug-In . SVG Version: 6.00 Build 0)  -->
<svg version="1.1" id="Layer_1" xmlns="http://www.w3.org/2000/svg" xmlns:xlink="http://www.w3.org/1999/xlink" x="0px" y="0px"
	 viewBox="0 0 56.7 56.7" style="enable-background:new 0 0 56.7 56.7;" xml:space="preserve">
<style type="text/css">
	.st0{fill:#4576BB;}
	.st1{fill-rule:evenodd;clip-rule:evenodd;fill:#4576BB;}
	.st2{fill:#231F20;}
	.st3{stroke:#000000;stroke-width:2.064668e-02;stroke-miterlimit:10;}
	.st4{fill:#010101;}
	.st5{fill:#FFFFFF;}
	.st6{fill:#353635;}
	.st7{fill:#5B5B5B;}
	.st8{fill:#E6E7E7;stroke:#5B5B5B;stroke-miterlimit:10;}
</style>
<path class="st5" d="M27.9,17.2c-3.3,0-6.4,1.5-8.5,4c0,0,0,0,0,0v-2.3c0-0.6-0.5-1-1-0.9c-0.5,0.1-0.8,0.5-0.8,0.9v5.5
	c0,0.3,0.1,0.5,0.3,0.7c0,0,0,0,0,0c0.2,0.2,0.4,0.2,0.7,0.2c0,0,4.6-0.5,4.6-0.5c0.5-0.1,0.8-0.5,0.8-1c0,0,0,0,0,0
	c-0.1-0.5-0.4-0.8-1-0.8c0,0-2.8,0.3-2.9,0.3c0,0,0,0,0,0c1.7-2.6,4.6-4.2,7.8-4.2c5.2,0,9.3,4.2,9.3,9.3s-4.2,9.3-9.3,9.3
	c-2.4,0-4.7-1-6.5-2.7c-0.1-0.1-0.3-0.3-0.4-0.4c0,0-0.1,0-0.1-0.1l0,0c0,0,0,0-0.1,0l-0.1,0c0,0-0.1,0-0.1,0h-0.1c-0.6,0-1,0.5-1,1
	l0,0l0,0c0,0.2,0.1,0.4,0.2,0.5l0.3,0.3c2.1,2.1,4.9,3.2,7.8,3.2c6.2,0,11.2-5,11.2-11.2S34.1,17.2,27.9,17.2z"/>
</svg>
