<?xml version="1.0" encoding="utf-8"?>
<!-- Generator: Adobe Illustrator 25.2.0, SVG Export Plug-In . SVG Version: 6.00 Build 0)  -->
<svg version="1.1" id="Layer_1" xmlns="http://www.w3.org/2000/svg" xmlns:xlink="http://www.w3.org/1999/xlink" x="0px" y="0px"
	 viewBox="0 0 56.7 56.7" style="enable-background:new 0 0 56.7 56.7;" xml:space="preserve">
<style type="text/css">
	.st0{fill:#4576BB;}
	.st1{fill-rule:evenodd;clip-rule:evenodd;fill:#4576BB;}
	.st2{fill:#231F20;}
	.st3{stroke:#000000;stroke-width:2.064668e-02;stroke-miterlimit:10;}
	.st4{fill:#010101;}
	.st5{fill:#FFFFFF;}
	.st6{fill:#353635;}
	.st7{fill:#5B5B5B;}
	.st8{fill:#E6E7E7;stroke:#5B5B5B;stroke-miterlimit:10;}
</style>
<g>
	<g>
		<g>
			<g>
				<polygon class="st5" points="19.7,24 18.4,24 18.4,17.9 24.3,17.9 24.3,19.3 19.7,19.3 				"/>
			</g>
			<g>
				
					<rect x="21.7" y="17.2" transform="matrix(0.7071 -0.7071 0.7071 0.7071 -8.9505 22.1871)" class="st5" width="1.3" height="9.3"/>
			</g>
		</g>
		<g>
			<g>
				<polygon class="st5" points="38.3,38.7 32.4,38.7 32.4,37.4 37,37.4 37,32.6 38.3,32.6 				"/>
			</g>
			<g>
				
					<rect x="33.7" y="30.1" transform="matrix(0.7072 -0.7071 0.7071 0.7072 -14.5321 34.5021)" class="st5" width="1.3" height="9.3"/>
			</g>
		</g>
	</g>
	<g>
		<g>
			<g>
				<polygon class="st5" points="24,38.3 17.9,38.3 17.9,32.4 19.3,32.4 19.3,37 24,37 				"/>
			</g>
			<g>
				
					<rect x="17.2" y="33.7" transform="matrix(0.7071 -0.7071 0.7071 0.7071 -17.9007 25.5558)" class="st5" width="9.3" height="1.3"/>
			</g>
		</g>
		<g>
			<g>
				<polygon class="st5" points="38.7,24.3 37.4,24.3 37.4,19.7 32.6,19.7 32.6,18.4 38.7,18.4 				"/>
			</g>
			<g>
				
					<rect x="30.1" y="21.7" transform="matrix(0.7071 -0.7071 0.7071 0.7071 -5.5821 31.1375)" class="st5" width="9.3" height="1.3"/>
			</g>
		</g>
	</g>
</g>
</svg>
