<?xml version="1.0" encoding="utf-8"?>
<!-- Generator: Adobe Illustrator 25.2.0, SVG Export Plug-In . SVG Version: 6.00 Build 0)  -->
<svg version="1.1" id="Layer_1" xmlns="http://www.w3.org/2000/svg" xmlns:xlink="http://www.w3.org/1999/xlink" x="0px" y="0px"
	 viewBox="0 0 56.7 56.7" style="enable-background:new 0 0 56.7 56.7;" xml:space="preserve">
<style type="text/css">
	.st0{fill:#4576BB;}
	.st1{fill-rule:evenodd;clip-rule:evenodd;fill:#4576BB;}
	.st2{fill:#231F20;}
	.st3{stroke:#000000;stroke-width:2.064668e-02;stroke-miterlimit:10;}
	.st4{fill:#010101;}
	.st5{fill:#FFFFFF;}
	.st6{fill:#353635;}
	.st7{fill:#5B5B5B;}
	.st8{fill:#E6E7E7;stroke:#5B5B5B;stroke-miterlimit:10;}
</style>
<g>
	<path class="st2" d="M33,28.4c-2.7,0-4.8-2.2-4.8-4.8c0-0.6,0.1-1.2,0.3-1.7h-6.2c-1.4,0-2.6,1.2-2.6,2.6v10.1
		c0,1.4,1.2,2.6,2.6,2.6h10.1c1.4,0,2.6-1.2,2.6-2.6v-6.6C34.4,28.2,33.7,28.4,33,28.4z"/>
	<g>
		<path class="st2" d="M33,27.5c-2.2,0-3.9-1.8-3.9-3.9s1.8-3.9,3.9-3.9c2.2,0,3.9,1.8,3.9,3.9S35.2,27.5,33,27.5z M33,20.5
			c-1.7,0-3.1,1.4-3.1,3.1s1.4,3.1,3.1,3.1s3.1-1.4,3.1-3.1S34.7,20.5,33,20.5z"/>
	</g>
	<circle class="st2" cx="33" cy="23.6" r="2"/>
</g>
</svg>
