<?xml version="1.0" encoding="utf-8"?>
<!-- Generator: Adobe Illustrator 25.2.0, SVG Export Plug-In . SVG Version: 6.00 Build 0)  -->
<svg version="1.1" id="Layer_1" xmlns="http://www.w3.org/2000/svg" xmlns:xlink="http://www.w3.org/1999/xlink" x="0px" y="0px"
	 viewBox="0 0 56.7 56.7" style="enable-background:new 0 0 56.7 56.7;" xml:space="preserve">
<style type="text/css">
	.st0{fill:#4576BB;}
	.st1{fill-rule:evenodd;clip-rule:evenodd;fill:#4576BB;}
	.st2{fill:#231F20;}
	.st3{stroke:#000000;stroke-width:2.064668e-02;stroke-miterlimit:10;}
	.st4{fill:#010101;}
	.st5{fill:#FFFFFF;}
	.st6{fill:#353635;}
	.st7{fill:#5B5B5B;}
	.st8{fill:#E6E7E7;stroke:#5B5B5B;stroke-miterlimit:10;}
</style>
<path class="st2" d="M35.9,22.8h-9.5v-1.2c0-0.4-0.3-0.8-0.8-0.8h-4.9c-0.4,0-0.8,0.3-0.8,0.8v1.2v12.3c0,0.4,0.3,0.8,0.8,0.8h15.1
	c0.4,0,0.8-0.3,0.8-0.8V23.5C36.7,23.1,36.3,22.8,35.9,22.8z M28.1,30.1l1.7,1.1c0,0-4.7,1.6-5.3,2.1l-0.3-5.8l1.6,1.1
	c0,0,3-5.2,7.7-1.6C33.5,27,30.3,26.4,28.1,30.1z"/>
</svg>
