<?xml version="1.0" encoding="utf-8"?>
<!-- Generator: Adobe Illustrator 25.2.0, SVG Export Plug-In . SVG Version: 6.00 Build 0)  -->
<svg version="1.1" id="Layer_1" xmlns="http://www.w3.org/2000/svg" xmlns:xlink="http://www.w3.org/1999/xlink" x="0px" y="0px"
	 viewBox="0 0 56.7 56.7" style="enable-background:new 0 0 56.7 56.7;" xml:space="preserve">
<style type="text/css">
	.st0{fill:#4576BB;}
	.st1{fill-rule:evenodd;clip-rule:evenodd;fill:#4576BB;}
	.st2{fill:#231F20;}
	.st3{stroke:#000000;stroke-width:2.064668e-02;stroke-miterlimit:10;}
	.st4{fill:#010101;}
	.st5{fill:#FFFFFF;}
	.st6{fill:#353635;}
	.st7{fill:#5B5B5B;}
	.st8{fill:#E6E7E7;stroke:#5B5B5B;stroke-miterlimit:10;}
</style>
<g>
	<g>
		<path d="M30.7,36.7h-9.8c-1.5,0-2.6-1.2-2.6-2.6V22.6c0-1.5,1.2-2.6,2.6-2.6h9.8c0.7,0,1.5,0.3,2,0.9l5.1,5.7c0.9,1,0.9,2.5,0,3.5
			l-5.1,5.7C32.1,36.4,31.4,36.7,30.7,36.7z M20.9,21c-0.9,0-1.6,0.7-1.6,1.6V34c0,0.9,0.7,1.6,1.6,1.6h9.8c0.5,0,0.9-0.2,1.2-0.5
			l5.1-5.7c0.6-0.6,0.6-1.6,0-2.2l-5.1-5.7c-0.3-0.3-0.8-0.5-1.2-0.5H20.9z"/>
	</g>
</g>
</svg>
