<?xml version="1.0" encoding="utf-8"?>
<!-- Generator: Adobe Illustrator 25.2.0, SVG Export Plug-In . SVG Version: 6.00 Build 0)  -->
<svg version="1.1" id="Layer_1" xmlns="http://www.w3.org/2000/svg" xmlns:xlink="http://www.w3.org/1999/xlink" x="0px" y="0px"
	 viewBox="0 0 56.7 56.7" style="enable-background:new 0 0 56.7 56.7;" xml:space="preserve">
<style type="text/css">
	.st0{fill:#4576BB;}
	.st1{fill-rule:evenodd;clip-rule:evenodd;fill:#4576BB;}
	.st2{fill:#231F20;}
	.st3{stroke:#000000;stroke-width:2.064668e-02;stroke-miterlimit:10;}
	.st4{fill:#010101;}
	.st5{fill:#FFFFFF;}
	.st6{fill:#353635;}
	.st7{fill:#5B5B5B;}
	.st8{fill:#E6E7E7;stroke:#5B5B5B;stroke-miterlimit:10;}
</style>
<g>
	<g>
		<g>
			<path d="M28.3,18.7C28.4,18.7,28.4,18.7,28.3,18.7c0.5,0,0.9,0.4,0.9,0.9v0.3c2.7,0.4,4.7,2.7,4.7,5.5c0,9.3,2.7,6,2.7,8.4V34
				c0,0.3-0.2,0.5-0.5,0.5H20.6c-0.3,0-0.5-0.2-0.5-0.5c0-2.9,2.7,1,2.7-8.6c0-2.8,2-5.1,4.7-5.5v-0.4
				C27.5,19.1,27.9,18.7,28.3,18.7 M31.2,35.3c-0.1,1.5-1.3,2.7-2.9,2.7c-1.5,0-2.8-1.2-2.9-2.7H31.2 M28.3,17.7
				c-0.9,0-1.6,0.6-1.8,1.4c-2.8,0.8-4.8,3.3-4.8,6.3c0,5.6-0.9,6-1.4,6.3c-0.7,0.3-1.3,0.8-1.3,2.3c0,0.8,0.7,1.5,1.5,1.5h3.9
				c0.2,2,1.8,3.6,3.9,3.6c2,0,3.7-1.6,3.9-3.6h3.9c0.8,0,1.5-0.7,1.5-1.5v-0.1c0-1.3-0.6-1.8-1.2-2.1c-0.5-0.3-1.4-0.8-1.4-6.3
				c0-3-2-5.5-4.8-6.3c-0.2-0.7-0.8-1.3-1.6-1.4C28.5,17.7,28.4,17.7,28.3,17.7L28.3,17.7z"/>
		</g>
	</g>
	<g>
		<g>
			<path d="M36.5,26.3c-0.3,0-0.5-0.2-0.5-0.5c0-1-0.2-2-0.6-3c-0.4-0.9-0.9-1.7-1.6-2.4c-0.7-0.7-1.5-1.3-2.4-1.6
				c-0.3-0.1-0.4-0.4-0.3-0.6c0.1-0.3,0.4-0.4,0.6-0.3c1,0.4,2,1.1,2.7,1.9c0.8,0.8,1.4,1.7,1.9,2.7c0.5,1.1,0.7,2.2,0.7,3.4
				C37,26.1,36.8,26.3,36.5,26.3z"/>
		</g>
	</g>
	<g>
		<g>
			<path d="M20.2,26.3c-0.3,0-0.5-0.2-0.5-0.5c0-1.2,0.2-2.3,0.7-3.4c0.4-1,1.1-2,1.9-2.7c0.8-0.8,1.7-1.4,2.7-1.9
				c0.3-0.1,0.5,0,0.6,0.3c0.1,0.3,0,0.5-0.3,0.6c-0.9,0.4-1.7,0.9-2.4,1.6c-0.7,0.7-1.3,1.5-1.6,2.4c-0.4,0.9-0.6,1.9-0.6,3
				C20.7,26.1,20.5,26.3,20.2,26.3z"/>
		</g>
	</g>
</g>
</svg>
