<?xml version="1.0" encoding="utf-8"?>
<!-- Generator: Adobe Illustrator 25.2.0, SVG Export Plug-In . SVG Version: 6.00 Build 0)  -->
<svg version="1.1" id="Layer_1" xmlns="http://www.w3.org/2000/svg" xmlns:xlink="http://www.w3.org/1999/xlink" x="0px" y="0px"
	 viewBox="0 0 56.7 56.7" style="enable-background:new 0 0 56.7 56.7;" xml:space="preserve">
<style type="text/css">
	.st0{fill:#4576BB;}
	.st1{fill-rule:evenodd;clip-rule:evenodd;fill:#4576BB;}
	.st2{fill:#231F20;}
	.st3{stroke:#000000;stroke-width:2.064668e-02;stroke-miterlimit:10;}
	.st4{fill:#010101;}
	.st5{fill:#FFFFFF;}
	.st6{fill:#353635;}
	.st7{fill:#5B5B5B;}
	.st8{fill:#E6E7E7;stroke:#5B5B5B;stroke-miterlimit:10;}
</style>
<g>
	<g>
		<path d="M33.1,30h2.7c0.7,0,1.2-0.5,1.2-1.2v-3.1c0-0.2-0.2-0.5-0.5-0.5h-3.4v-2.3c0-3.2-2.6-5.8-5.8-5.8s-5.8,2.6-5.8,5.8v2.3
			h-3.4c-0.2,0-0.5,0.2-0.5,0.5v3.1c0,0.7,0.5,1.2,1.2,1.2h3.1c0.2,0,0.5-0.2,0.5-0.5v-3.8v-2.8c0-2.7,2.2-4.9,4.9-4.9
			s4.9,2.2,4.9,4.9v2.8v3.8c0,0,0,0,0,0l0,0c0,0,0.1,1.9-1.1,3.2c-0.7,0.7-1.6,1.1-2.9,1.2c-0.5-0.3-1.2-0.6-2.1-0.6
			c-1.4,0-2.6,0.6-2.6,1.4c0,0.8,1.2,1.4,2.6,1.4c1.4,0,2.5-0.6,2.6-1.3c1.3-0.2,2.3-0.6,3-1.4C32.8,32.2,33,30.8,33.1,30z
			 M21.5,29.1h-2.7c-0.2,0-0.3-0.1-0.3-0.3v-2.7h2.9V29.1z M36,28.8c0,0.2-0.1,0.3-0.3,0.3h-2.7v-2.9H36V28.8z"/>
	</g>
	<g>
		<path d="M39,35.8l-1.6-1.6c-0.1-0.1-0.1-0.1-0.2-0.1c0,0-0.1,0-0.1,0c-0.1,0-0.2,0.1-0.2,0.3v0.8h-0.7c-0.3,0-0.6,0-0.8,0
			c-0.3,0-0.5,0.1-0.7,0.1c-0.2,0.1-0.4,0.1-0.5,0.2c-0.2,0.1-0.3,0.2-0.4,0.3c-0.1,0.1-0.2,0.2-0.3,0.3c-0.1,0.1-0.2,0.2-0.2,0.3
			c0,0.1-0.1,0.2-0.1,0.4s0,0.3-0.1,0.4c0,0.1,0,0.2,0,0.4c0,0.2,0,0.3,0.1,0.5s0.1,0.3,0.2,0.5c0.1,0.1,0.1,0.3,0.2,0.4
			c0.1,0.1,0.1,0.2,0.2,0.3s0.1,0.1,0.1,0.1c0,0,0.1,0.1,0.1,0.1c0,0,0,0,0.1,0c0.1,0,0.1-0.1,0.1-0.1c-0.1-1,0-1.6,0.3-2
			c0.3-0.4,0.9-0.6,1.9-0.6h0.7v0.8c0,0.1,0.1,0.2,0.2,0.3c0,0,0.1,0,0.1,0c0.1,0,0.1,0,0.2-0.1l1.6-1.6c0.1-0.1,0.1-0.1,0.1-0.2
			S39.1,35.9,39,35.8z"/>
	</g>
</g>
</svg>
