<?xml version="1.0" encoding="utf-8"?>
<!-- Generator: Adobe Illustrator 25.2.0, SVG Export Plug-In . SVG Version: 6.00 Build 0)  -->
<svg version="1.1" id="Layer_1" xmlns="http://www.w3.org/2000/svg" xmlns:xlink="http://www.w3.org/1999/xlink" x="0px" y="0px"
	 viewBox="0 0 56.7 56.7" style="enable-background:new 0 0 56.7 56.7;" xml:space="preserve">
<style type="text/css">
	.st0{fill:#4576BB;}
	.st1{fill-rule:evenodd;clip-rule:evenodd;fill:#4576BB;}
	.st2{fill:#231F20;}
	.st3{stroke:#000000;stroke-width:2.064668e-02;stroke-miterlimit:10;}
	.st4{fill:#010101;}
	.st5{fill:#FFFFFF;}
	.st6{fill:#353635;}
	.st7{fill:#5B5B5B;}
	.st8{fill:#E6E7E7;stroke:#5B5B5B;stroke-miterlimit:10;}
</style>
<g>
	<path class="st3" d="M27.3,31.8c0,0,0,0.1-0.1,0.1c-0.5,0.5-1,1-1.6,1.6c-0.3,0.3-0.6,0.5-1,0.6c-1,0.3-1.9-0.3-2.1-1.3
		c-0.1-0.6,0.1-1.1,0.5-1.5c0.1-0.1,0.1-0.1,0.2-0.2c1-1,2-2,2.9-2.9c0.8-0.8,1.9-0.9,2.7-0.1c0.4,0.4,1,0.3,1.3-0.1
		c0.4-0.4,0.3-1,0-1.3c-0.7-0.7-1.6-1-2.6-1c-1.1,0-2,0.4-2.8,1.2c-1,1-2,2-2.9,2.9c-0.6,0.6-1,1.2-1.1,2c0,0.2-0.3,1,0.1,2.1
		c0.6,1.6,2.2,2.5,3.9,2.2c0.9-0.1,1.6-0.5,2.3-1.2c0.9-0.9,1.7-1.7,2.6-2.6c0,0,0-0.1,0.1-0.1C28.9,32.3,28.1,32.2,27.3,31.8z"/>
	<path class="st3" d="M35.8,22.9c-0.8-1.9-3.5-3.3-6-1.2c-1,0.9-1.9,1.8-2.8,2.8c0,0,0,0,0,0c0.8-0.2,1.6-0.1,2.4,0.4
		c0,0,0.1-0.1,0.1-0.1c0.5-0.5,1-1,1.5-1.5c0.2-0.2,0.4-0.4,0.7-0.5c1.1-0.5,2.2,0,2.4,1.2c0.1,0.6-0.1,1.2-0.6,1.6
		c-1,1-2.1,2.1-3.1,3.1c-0.7,0.7-1.8,0.8-2.6,0.1c-0.4-0.4-1-0.3-1.3,0.1c-0.4,0.4-0.4,1,0,1.4c0.2,0.2,0.4,0.3,0.6,0.5
		c1.4,0.9,3.3,0.7,4.5-0.4c1.2-1.1,2.3-2.1,3.4-3.3C36.6,24.9,36.1,23.6,35.8,22.9z"/>
</g>
</svg>
