<?xml version="1.0" encoding="utf-8"?>
<!-- Generator: Adobe Illustrator 25.2.0, SVG Export Plug-In . SVG Version: 6.00 Build 0)  -->
<svg version="1.1" id="Layer_1" xmlns="http://www.w3.org/2000/svg" xmlns:xlink="http://www.w3.org/1999/xlink" x="0px" y="0px"
	 viewBox="0 0 56.7 56.7" style="enable-background:new 0 0 56.7 56.7;" xml:space="preserve">
<style type="text/css">
	.st0{fill:#4576BB;}
	.st1{fill-rule:evenodd;clip-rule:evenodd;fill:#4576BB;}
	.st2{fill:#231F20;}
	.st3{stroke:#000000;stroke-width:2.064668e-02;stroke-miterlimit:10;}
	.st4{fill:#010101;}
	.st5{fill:#FFFFFF;}
	.st6{fill:#353635;}
	.st7{fill:#5B5B5B;}
	.st8{fill:#E6E7E7;stroke:#5B5B5B;stroke-miterlimit:10;}
</style>
<g>
	<g>
		<g>
			<path d="M30.5,32.8h-9.9c-1.1,0-2-0.9-2-2V20.1c0-1.1,0.9-2,2-2h9.9c1.1,0,2,0.9,2,2v10.7C32.5,31.9,31.6,32.8,30.5,32.8z
				 M20.5,19.1c-0.6,0-1,0.5-1,1v10.7c0,0.6,0.5,1,1,1h9.9c0.6,0,1-0.5,1-1V20.1c0-0.6-0.5-1-1-1H20.5z"/>
		</g>
	</g>
	<g>
		<g>
			<path d="M36.1,38.6h-9.9c-1.1,0-2-0.9-2-2v-1.3c0-0.3,0.2-0.5,0.5-0.5s0.5,0.2,0.5,0.5v1.3c0,0.6,0.5,1,1,1h9.9c0.6,0,1-0.5,1-1
				V25.9c0-0.6-0.5-1-1-1h-2c-0.3,0-0.5-0.2-0.5-0.5s0.2-0.5,0.5-0.5h2c1.1,0,2,0.9,2,2v10.7C38.2,37.7,37.3,38.6,36.1,38.6z"/>
		</g>
	</g>
</g>
</svg>
