<?xml version="1.0" encoding="utf-8"?>
<!-- Generator: Adobe Illustrator 25.2.0, SVG Export Plug-In . SVG Version: 6.00 Build 0)  -->
<svg version="1.1" id="Layer_1" xmlns="http://www.w3.org/2000/svg" xmlns:xlink="http://www.w3.org/1999/xlink" x="0px" y="0px"
	 viewBox="0 0 56.7 56.7" style="enable-background:new 0 0 56.7 56.7;" xml:space="preserve">
<style type="text/css">
	.st0{fill:#4576BB;}
	.st1{fill-rule:evenodd;clip-rule:evenodd;fill:#4576BB;}
	.st2{fill:#231F20;}
	.st3{stroke:#000000;stroke-width:2.064668e-02;stroke-miterlimit:10;}
	.st4{fill:#010101;}
	.st5{fill:#FFFFFF;}
	.st6{fill:#353635;}
	.st7{fill:#5B5B5B;}
	.st8{fill:#E6E7E7;stroke:#5B5B5B;stroke-miterlimit:10;}
</style>
<g>
	<g>
		<g>
			<path d="M31.5,37.3h-10c-1.3,0-2.3-1-2.3-2.3V25c0-1.3,1-2.3,2.3-2.3h5c0.3,0,0.6,0.3,0.6,0.6S26.8,24,26.5,24h-5
				c-0.6,0-1.1,0.5-1.1,1.1v10c0,0.6,0.5,1.1,1.1,1.1h10c0.6,0,1.1-0.5,1.1-1.1v-4.1c0-0.3,0.3-0.6,0.6-0.6s0.6,0.3,0.6,0.6V35
				C33.7,36.3,32.7,37.3,31.5,37.3z"/>
		</g>
	</g>
	<g>
		<g>
			<path d="M25.1,32.2c-0.2,0-0.3-0.1-0.4-0.2c-0.2-0.2-0.2-0.6,0-0.8l10.8-10.8c0.2-0.2,0.6-0.2,0.8,0c0.2,0.2,0.2,0.6,0,0.8
				L25.6,32C25.5,32.1,25.3,32.2,25.1,32.2z"/>
		</g>
	</g>
	<g>
		<g>
			<path d="M36.9,26c-0.3,0-0.6-0.3-0.6-0.6v-4.9h-4.9c-0.3,0-0.6-0.3-0.6-0.6s0.3-0.6,0.6-0.6h5.5c0.3,0,0.6,0.3,0.6,0.6v5.5
				C37.5,25.8,37.3,26,36.9,26z"/>
		</g>
	</g>
</g>
</svg>
