<?xml version="1.0" encoding="utf-8"?>
<!-- Generator: Adobe Illustrator 25.2.0, SVG Export Plug-In . SVG Version: 6.00 Build 0)  -->
<svg version="1.1" id="Layer_1" xmlns="http://www.w3.org/2000/svg" xmlns:xlink="http://www.w3.org/1999/xlink" x="0px" y="0px"
	 viewBox="0 0 56.7 56.7" style="enable-background:new 0 0 56.7 56.7;" xml:space="preserve">
<style type="text/css">
	.st0{fill:#4576BB;}
	.st1{fill-rule:evenodd;clip-rule:evenodd;fill:#4576BB;}
	.st2{fill:#231F20;}
	.st3{stroke:#000000;stroke-width:2.064668e-02;stroke-miterlimit:10;}
	.st4{fill:#010101;}
	.st5{fill:#FFFFFF;}
	.st6{fill:#353635;}
	.st7{fill:#5B5B5B;}
	.st8{fill:#E6E7E7;stroke:#5B5B5B;stroke-miterlimit:10;}
</style>
<g>
	<path class="st6" d="M28.1,20.4c-2.4,0-4.6,1-6.1,2.8c0,0,0,0,0,0v-1.6c0-0.4-0.3-0.7-0.7-0.7c-0.3,0-0.6,0.3-0.6,0.7v3.9
		c0,0.2,0.1,0.4,0.2,0.5c0,0,0,0,0,0c0.1,0.1,0.3,0.2,0.5,0.2c0,0,3.3-0.4,3.3-0.4c0.4,0,0.6-0.4,0.6-0.7c0,0,0,0,0,0
		c0-0.3-0.3-0.6-0.7-0.6c0,0-2,0.2-2,0.2c0,0,0,0,0,0c1.2-1.9,3.3-3,5.6-3c3.7,0,6.7,3,6.7,6.7s-3,6.7-6.7,6.7
		c-1.7,0-3.4-0.7-4.6-1.9c-0.1-0.1-0.2-0.2-0.3-0.3c0,0,0,0-0.1-0.1l0,0c0,0,0,0,0,0l-0.1,0c0,0,0,0-0.1,0h-0.1
		c-0.4,0-0.7,0.3-0.7,0.7v0l0,0c0,0.1,0.1,0.3,0.2,0.4l0.2,0.2c1.5,1.5,3.5,2.3,5.6,2.3c4.4,0,8-3.6,8-8S32.5,20.4,28.1,20.4z"/>
	<g>
		<path class="st6" d="M31.1,32.7c-0.1,0-0.2,0-0.3-0.1L28,30.1c-0.1-0.1-0.2-0.2-0.2-0.4v-5.1c0-0.3,0.2-0.5,0.5-0.5
			s0.5,0.2,0.5,0.5v4.9l2.6,2.3c0.2,0.2,0.2,0.5,0,0.7C31.4,32.6,31.2,32.7,31.1,32.7z"/>
	</g>
</g>
</svg>
