<?xml version="1.0" encoding="utf-8"?>
<!-- Generator: Adobe Illustrator 25.2.0, SVG Export Plug-In . SVG Version: 6.00 Build 0)  -->
<svg version="1.1" id="Layer_1" xmlns="http://www.w3.org/2000/svg" xmlns:xlink="http://www.w3.org/1999/xlink" x="0px" y="0px"
	 viewBox="0 0 56.7 56.7" style="enable-background:new 0 0 56.7 56.7;" xml:space="preserve">
<style type="text/css">
	.st0{fill:#4576BB;}
	.st1{fill-rule:evenodd;clip-rule:evenodd;fill:#4576BB;}
	.st2{fill:#231F20;}
	.st3{stroke:#000000;stroke-width:2.064668e-02;stroke-miterlimit:10;}
	.st4{fill:#010101;}
	.st5{fill:#FFFFFF;}
	.st6{fill:#353635;}
	.st7{fill:#5B5B5B;}
	.st8{fill:#E6E7E7;stroke:#5B5B5B;stroke-miterlimit:10;}
</style>
<path class="st2" d="M28.6,20.4l2.4,4.8c0,0.1,0.1,0.2,0.2,0.2l5.3,0.8c0.3,0,0.4,0.4,0.2,0.5l-3.9,3.8c-0.1,0.1-0.1,0.2-0.1,0.3
	l0.9,5.3c0,0.3-0.2,0.5-0.5,0.3l-4.8-2.5c-0.1,0-0.2,0-0.3,0l-4.8,2.5c-0.2,0.1-0.5-0.1-0.5-0.3l0.9-5.3c0-0.1,0-0.2-0.1-0.3
	l-3.9-3.8c-0.2-0.2-0.1-0.5,0.2-0.5l5.3-0.8c0.1,0,0.2-0.1,0.2-0.2l2.4-4.8C28.2,20.2,28.5,20.2,28.6,20.4z"/>
</svg>
