<?xml version="1.0" encoding="utf-8"?>
<!-- Generator: Adobe Illustrator 25.2.0, SVG Export Plug-In . SVG Version: 6.00 Build 0)  -->
<svg version="1.1" id="Layer_1" xmlns="http://www.w3.org/2000/svg" xmlns:xlink="http://www.w3.org/1999/xlink" x="0px" y="0px"
	 viewBox="0 0 56.7 56.7" style="enable-background:new 0 0 56.7 56.7;" xml:space="preserve">
<style type="text/css">
	.st0{fill:#4576BB;}
	.st1{fill-rule:evenodd;clip-rule:evenodd;fill:#4576BB;}
	.st2{fill:#231F20;}
	.st3{stroke:#000000;stroke-width:2.064668e-02;stroke-miterlimit:10;}
	.st4{fill:#010101;}
	.st5{fill:#FFFFFF;}
	.st6{fill:#353635;}
	.st7{fill:#5B5B5B;}
	.st8{fill:#E6E7E7;stroke:#5B5B5B;stroke-miterlimit:10;}
</style>
<g>
	<g>
		<path class="st2" d="M31,21.9c-0.2,0-0.3-0.1-0.3-0.3c0-0.5-0.4-0.9-0.9-0.9h-2.9c-0.5,0-0.9,0.4-0.9,0.9c0,0.2-0.1,0.3-0.3,0.3
			s-0.3-0.1-0.3-0.3c0-0.8,0.7-1.5,1.5-1.5h2.9c0.8,0,1.5,0.7,1.5,1.5C31.3,21.8,31.2,21.9,31,21.9z"/>
	</g>
	<g>
		<path class="st2" d="M34.5,24.8H22.2c-0.2,0-0.3-0.1-0.3-0.3v-1.2c0-0.5,0.4-0.9,0.9-0.9h11.2c0.5,0,0.9,0.4,0.9,0.9v1.2
			C34.8,24.7,34.7,24.8,34.5,24.8z"/>
	</g>
	<path class="st2" d="M33.9,25.4c-0.2,0-10.9,0-11.1,0c-0.2,0-0.3,0.1-0.3,0.3l0.5,9.5c0,0.8,0.7,1.4,1.5,1.4h7.8
		c0.8,0,1.4-0.6,1.5-1.4l0.5-9.5C34.2,25.6,34,25.4,33.9,25.4z M26,34.8C26,34.8,26,34.8,26,34.8c-0.2,0-0.3-0.1-0.3-0.3l-0.6-8.2
		c0-0.2,0.1-0.3,0.3-0.3c0.1,0,0.3,0.1,0.3,0.3l0.6,8.2C26.3,34.7,26.2,34.8,26,34.8z M28.6,34.5c0,0.2-0.1,0.3-0.3,0.3
		c-0.2,0-0.3-0.1-0.3-0.3v-8.2c0-0.2,0.1-0.3,0.3-0.3c0.2,0,0.3,0.1,0.3,0.3V34.5z M31,34.5c0,0.2-0.1,0.3-0.3,0.3c0,0,0,0,0,0
		c-0.2,0-0.3-0.2-0.3-0.3l0.6-8.2c0-0.2,0.2-0.3,0.3-0.3c0.2,0,0.3,0.2,0.3,0.3L31,34.5z"/>
</g>
</svg>
