<?xml version="1.0" encoding="utf-8"?>
<!-- Generator: Adobe Illustrator 25.2.0, SVG Export Plug-In . SVG Version: 6.00 Build 0)  -->
<svg version="1.1" id="Layer_1" xmlns="http://www.w3.org/2000/svg" xmlns:xlink="http://www.w3.org/1999/xlink" x="0px" y="0px"
	 viewBox="0 0 56.7 56.7" style="enable-background:new 0 0 56.7 56.7;" xml:space="preserve">
<style type="text/css">
	.st0{fill:#4576BB;}
	.st1{fill-rule:evenodd;clip-rule:evenodd;fill:#4576BB;}
	.st2{fill:#231F20;}
	.st3{stroke:#000000;stroke-width:2.064668e-02;stroke-miterlimit:10;}
	.st4{fill:#010101;}
	.st5{fill:#FFFFFF;}
	.st6{fill:#353635;}
	.st7{fill:#5B5B5B;}
	.st8{fill:#E6E7E7;stroke:#5B5B5B;stroke-miterlimit:10;}
</style>
<g>
	<path class="st3" d="M41.2,22.6l-6.1-6.1c-0.2-0.2-0.4-0.3-0.7-0.3c-0.1,0-0.3,0-0.4,0.1c-0.4,0.2-0.6,0.5-0.6,0.9v3h-2.5
		c-1.1,0-2.2,0.1-3.1,0.2c-1,0.1-1.8,0.3-2.5,0.5c-0.7,0.2-1.4,0.5-2,0.8c-0.6,0.3-1.1,0.6-1.5,1c-0.4,0.3-0.8,0.7-1.1,1.2
		c-0.3,0.4-0.6,0.9-0.7,1.3c-0.2,0.4-0.3,0.9-0.4,1.4c-0.1,0.5-0.2,1-0.2,1.4c0,0.4-0.1,0.9-0.1,1.4c0,0.6,0.1,1.2,0.3,1.9
		c0.2,0.7,0.4,1.3,0.6,1.8c0.2,0.5,0.5,1,0.8,1.6c0.3,0.5,0.5,0.9,0.6,1.1c0.1,0.2,0.2,0.3,0.3,0.5c0.1,0.1,0.2,0.2,0.4,0.2
		c0,0,0.1,0,0.2,0c0.2-0.1,0.3-0.3,0.3-0.5c-0.5-3.5-0.1-6,1.2-7.5c1.2-1.4,3.5-2.1,6.9-2.1h2.5v3c0,0.4,0.2,0.8,0.6,0.9
		c0.1,0.1,0.3,0.1,0.4,0.1c0.3,0,0.5-0.1,0.7-0.3l6.1-6.1c0.2-0.2,0.3-0.4,0.3-0.7C41.5,23,41.4,22.8,41.2,22.6L41.2,22.6z
		 M41.2,22.6"/>
	<path class="st3" d="M37.1,31.4c-0.2-0.1-0.4,0-0.6,0.1c-0.3,0.3-0.6,0.4-0.9,0.6c-0.2,0.1-0.3,0.3-0.3,0.5v3.4
		c0,0.7-0.2,1.3-0.7,1.8c-0.5,0.5-1.1,0.7-1.8,0.7H19.7c-0.7,0-1.3-0.2-1.8-0.7c-0.5-0.5-0.7-1.1-0.7-1.8V22.8
		c0-0.7,0.2-1.3,0.7-1.8c0.5-0.5,1.1-0.7,1.8-0.7h1.8c0.1,0,0.1,0,0.3-0.1c0.6-0.4,1.3-0.7,2.1-0.9c0.3-0.1,0.4-0.2,0.4-0.5
		c0-0.1-0.1-0.3-0.1-0.4c-0.1-0.1-0.2-0.1-0.4-0.1h-4c-1.3,0-2.3,0.4-3.2,1.3c-0.9,0.9-1.3,2-1.3,3.2v13.2c0,1.3,0.4,2.3,1.3,3.2
		c0.9,0.9,2,1.3,3.2,1.3h13.2c1.3,0,2.3-0.4,3.2-1.3c0.9-0.9,1.3-2,1.3-3.2v-4.1C37.5,31.6,37.3,31.5,37.1,31.4L37.1,31.4z
		 M37.1,31.4"/>
</g>
</svg>
