<?xml version="1.0" encoding="utf-8"?>
<!-- Generator: Adobe Illustrator 25.2.0, SVG Export Plug-In . SVG Version: 6.00 Build 0)  -->
<svg version="1.1" id="Layer_1" xmlns="http://www.w3.org/2000/svg" xmlns:xlink="http://www.w3.org/1999/xlink" x="0px" y="0px"
	 viewBox="0 0 56.7 56.7" style="enable-background:new 0 0 56.7 56.7;" xml:space="preserve">
<style type="text/css">
	.st0{fill:#4576BB;}
	.st1{fill-rule:evenodd;clip-rule:evenodd;fill:#4576BB;}
	.st2{fill:#231F20;}
	.st3{stroke:#000000;stroke-width:2.064668e-02;stroke-miterlimit:10;}
	.st4{fill:#010101;}
	.st5{fill:#FFFFFF;}
	.st6{fill:#353635;}
	.st7{fill:#5B5B5B;}
	.st8{fill:#E6E7E7;stroke:#5B5B5B;stroke-miterlimit:10;}
</style>
<g>
	<path class="st2" d="M26.9,24.9l-1.5-1.2c-0.1-0.1-0.2-0.1-0.4-0.1h-4.4c-0.4,0-0.6,0.3-0.6,0.6v11.8c0,0.4,0.3,0.6,0.6,0.6H36
		c0.4,0,0.6-0.3,0.6-0.6V25.7c0-0.4-0.3-0.6-0.6-0.6h-8.7C27.2,25,27,25,26.9,24.9z"/>
	<polygon class="st2" points="22.6,22.1 33.2,22.1 33.2,24.1 27.3,24.1 25,22.8 22.6,22.8 	"/>
	<polygon class="st2" points="24.2,20 24.2,21 34.6,21 34.6,24.8 35.3,24.8 35.3,20 	"/>
</g>
</svg>
