<?xml version="1.0" encoding="utf-8"?>
<!-- Generator: Adobe Illustrator 25.2.0, SVG Export Plug-In . SVG Version: 6.00 Build 0)  -->
<svg version="1.1" id="Layer_1" xmlns="http://www.w3.org/2000/svg" xmlns:xlink="http://www.w3.org/1999/xlink" x="0px" y="0px"
	 viewBox="0 0 56.7 56.7" style="enable-background:new 0 0 56.7 56.7;" xml:space="preserve">
<style type="text/css">
	.st0{fill:#4576BB;}
	.st1{fill-rule:evenodd;clip-rule:evenodd;fill:#4576BB;}
	.st2{fill:#231F20;}
	.st3{stroke:#000000;stroke-width:2.064668e-02;stroke-miterlimit:10;}
	.st4{fill:#010101;}
	.st5{fill:#FFFFFF;}
	.st6{fill:#353635;}
	.st7{fill:#5B5B5B;}
	.st8{fill:#E6E7E7;stroke:#5B5B5B;stroke-miterlimit:10;}
</style>
<g>
	<g>
		<path class="st1" d="M21.5,22.8h13.7c0.3,0,0.6,0.3,0.6,0.6v10c0,0.3-0.3,0.6-0.6,0.6H21.5c-0.3,0-0.6-0.3-0.6-0.6v-10
			C20.9,23,21.2,22.8,21.5,22.8L21.5,22.8z M21.5,23.3v10h13.7v-10H21.5z"/>
	</g>
	<g>
		<polygon class="st1" points="27.5,33 31.5,28.5 34.8,30.8 34.8,33 		"/>
	</g>
	<g>
		<polygon class="st1" points="21.8,30.6 26.1,26.5 30.6,33 21.8,33 		"/>
	</g>
	<g>
		<path class="st1" d="M31.8,26.7c0.5,0,1-0.4,1-1c0-0.5-0.4-1-1-1c-0.5,0-1,0.4-1,1C30.8,26.2,31.3,26.7,31.8,26.7z"/>
	</g>
</g>
</svg>
