<?xml version="1.0" encoding="utf-8"?>
<!-- Generator: Adobe Illustrator 25.2.0, SVG Export Plug-In . SVG Version: 6.00 Build 0)  -->
<svg version="1.1" id="Layer_1" xmlns="http://www.w3.org/2000/svg" xmlns:xlink="http://www.w3.org/1999/xlink" x="0px" y="0px"
	 viewBox="0 0 56.7 56.7" style="enable-background:new 0 0 56.7 56.7;" xml:space="preserve">
<style type="text/css">
	.st0{fill:#4576BB;}
	.st1{fill-rule:evenodd;clip-rule:evenodd;fill:#4576BB;}
	.st2{fill:#231F20;}
	.st3{stroke:#000000;stroke-width:2.064668e-02;stroke-miterlimit:10;}
	.st4{fill:#010101;}
	.st5{fill:#FFFFFF;}
	.st6{fill:#353635;}
	.st7{fill:#5B5B5B;}
	.st8{fill:#E6E7E7;stroke:#5B5B5B;stroke-miterlimit:10;}
</style>
<g>
	<g>
		<rect x="21.2" y="21.1" width="6.4" height="1.5"/>
	</g>
	<g>
		<rect x="21.2" y="24.3" width="3.5" height="1.5"/>
	</g>
	<g>
		<path d="M28.1,28.9v8.5c0,0.3,0.3,0.6,0.6,0.6h8.5c0.3,0,0.6-0.3,0.6-0.6v-8.5c0-0.3-0.3-0.6-0.6-0.6h-8.5
			C28.3,28.3,28.1,28.6,28.1,28.9z M36.4,33.2c-0.1,0.1-0.3,0.2-0.4,0.2s-0.3-0.1-0.4-0.2l-2.1-2.1v5.8c0,0.3-0.3,0.6-0.6,0.6
			s-0.6-0.3-0.6-0.6v-5.5l-1.8,1.8c-0.2,0.2-0.6,0.2-0.8,0c-0.2-0.2-0.2-0.6,0-0.8l2.9-2.9c0,0,0,0,0,0l0.1-0.1
			c0.2-0.2,0.6-0.2,0.8,0l3,3C36.6,32.6,36.6,33,36.4,33.2z"/>
	</g>
	<g>
		<path d="M28.1,36.8h-8c-0.9,0-1.7-0.8-1.7-1.7V19.8c0-0.9,0.8-1.7,1.7-1.7h13.6c0.9,0,1.7,0.8,1.7,1.7v8.5h-1v-8.5
			c0-0.4-0.3-0.7-0.7-0.7H20c-0.4,0-0.7,0.3-0.7,0.7v15.3c0,0.4,0.3,0.7,0.7,0.7h8V36.8z"/>
	</g>
</g>
</svg>
