<?xml version="1.0" encoding="utf-8"?>
<!-- Generator: Adobe Illustrator 25.2.0, SVG Export Plug-In . SVG Version: 6.00 Build 0)  -->
<svg version="1.1" id="Layer_1" xmlns="http://www.w3.org/2000/svg" xmlns:xlink="http://www.w3.org/1999/xlink" x="0px" y="0px"
	 viewBox="0 0 56.7 56.7" style="enable-background:new 0 0 56.7 56.7;" xml:space="preserve">
<style type="text/css">
	.st0{fill:#4576BB;}
	.st1{fill-rule:evenodd;clip-rule:evenodd;fill:#4576BB;}
	.st2{fill:#231F20;}
	.st3{stroke:#000000;stroke-width:2.064668e-02;stroke-miterlimit:10;}
	.st4{fill:#010101;}
	.st5{fill:#FFFFFF;}
	.st6{fill:#353635;}
	.st7{fill:#5B5B5B;}
	.st8{fill:#E6E7E7;stroke:#5B5B5B;stroke-miterlimit:10;}
</style>
<g>
	<g>
		<g>
			<path d="M37.9,21.1H22.6c-0.4,0-0.8-0.3-0.8-0.8s0.3-0.8,0.8-0.8h15.3c0.4,0,0.8,0.3,0.8,0.8S38.3,21.1,37.9,21.1z"/>
		</g>
	</g>
	<g>
		<g>
			<path d="M37.9,37.1H22.6c-0.4,0-0.8-0.3-0.8-0.8s0.3-0.8,0.8-0.8h15.3c0.4,0,0.8,0.3,0.8,0.8S38.3,37.1,37.9,37.1z"/>
		</g>
	</g>
	<g>
		<g>
			<path d="M29.7,29.1h-7.1c-0.4,0-0.8-0.3-0.8-0.8s0.3-0.8,0.8-0.8h7.1c0.4,0,0.8,0.3,0.8,0.8S30.1,29.1,29.7,29.1z"/>
		</g>
	</g>
	<g>
		<g>
			<rect x="18.1" y="19.3" width="2.1" height="2.1"/>
		</g>
	</g>
	<g>
		<g>
			<rect x="18.1" y="27.3" width="2.1" height="2.1"/>
		</g>
	</g>
	<g>
		<g>
			<rect x="18.1" y="35.3" width="2.1" height="2.1"/>
		</g>
	</g>
</g>
</svg>
