<?xml version="1.0" encoding="utf-8"?>
<!-- Generator: Adobe Illustrator 25.2.0, SVG Export Plug-In . SVG Version: 6.00 Build 0)  -->
<svg version="1.1" id="Layer_1" xmlns="http://www.w3.org/2000/svg" xmlns:xlink="http://www.w3.org/1999/xlink" x="0px" y="0px"
	 viewBox="0 0 56.7 56.7" style="enable-background:new 0 0 56.7 56.7;" xml:space="preserve">
<style type="text/css">
	.st0{fill:#4576BB;}
	.st1{fill-rule:evenodd;clip-rule:evenodd;fill:#4576BB;}
	.st2{fill:#231F20;}
	.st3{stroke:#000000;stroke-width:2.064668e-02;stroke-miterlimit:10;}
	.st4{fill:#010101;}
	.st5{fill:#FFFFFF;}
	.st6{fill:#353635;}
	.st7{fill:#5B5B5B;}
	.st8{fill:#E6E7E7;stroke:#5B5B5B;stroke-miterlimit:10;}
</style>
<g>
	<g>
		<g>
			<path class="st0" d="M24.1,26.6H13.7c-0.4,0-0.8-0.4-0.8-0.8V15.4c0-0.4,0.4-0.8,0.8-0.8h10.4c0.4,0,0.8,0.4,0.8,0.8v10.4
				C24.9,26.3,24.6,26.6,24.1,26.6z M14.5,25h8.8v-8.8h-8.8V25z"/>
		</g>
	</g>
	<g>
		<g>
			<path class="st0" d="M43,20H30c-0.4,0-0.8-0.4-0.8-0.8s0.4-0.8,0.8-0.8H43c0.4,0,0.8,0.4,0.8,0.8S43.4,20,43,20z"/>
		</g>
	</g>
	<g>
		<g>
			<path class="st0" d="M38.1,25.1H30c-0.4,0-0.8-0.4-0.8-0.8s0.4-0.8,0.8-0.8h8.1c0.4,0,0.8,0.4,0.8,0.8S38.6,25.1,38.1,25.1z"/>
		</g>
	</g>
	<g>
		<g>
			<path class="st0" d="M24.1,42.1H13.7c-0.4,0-0.8-0.4-0.8-0.8V30.8c0-0.4,0.4-0.8,0.8-0.8h10.4c0.4,0,0.8,0.4,0.8,0.8v10.4
				C24.9,41.7,24.6,42.1,24.1,42.1z M14.5,40.5h8.8v-8.8h-8.8V40.5z"/>
		</g>
	</g>
	<g>
		<g>
			<path class="st0" d="M43,35.5H30c-0.4,0-0.8-0.4-0.8-0.8s0.4-0.8,0.8-0.8H43c0.4,0,0.8,0.4,0.8,0.8S43.4,35.5,43,35.5z"/>
		</g>
	</g>
	<g>
		<g>
			<path class="st0" d="M38.1,40.6H30c-0.4,0-0.8-0.4-0.8-0.8S29.6,39,30,39h8.1c0.4,0,0.8,0.4,0.8,0.8S38.6,40.6,38.1,40.6z"/>
		</g>
	</g>
</g>
</svg>
