<?xml version="1.0" encoding="utf-8"?>
<!-- Generator: Adobe Illustrator 25.2.0, SVG Export Plug-In . SVG Version: 6.00 Build 0)  -->
<svg version="1.1" id="Layer_1" xmlns="http://www.w3.org/2000/svg" xmlns:xlink="http://www.w3.org/1999/xlink" x="0px" y="0px"
	 viewBox="0 0 56.7 56.7" style="enable-background:new 0 0 56.7 56.7;" xml:space="preserve">
<style type="text/css">
	.st0{fill:#4576BB;}
	.st1{fill-rule:evenodd;clip-rule:evenodd;fill:#4576BB;}
	.st2{fill:#231F20;}
	.st3{stroke:#000000;stroke-width:2.064668e-02;stroke-miterlimit:10;}
	.st4{fill:#010101;}
	.st5{fill:#FFFFFF;}
	.st6{fill:#353635;}
	.st7{fill:#5B5B5B;}
	.st8{fill:#E6E7E7;stroke:#5B5B5B;stroke-miterlimit:10;}
</style>
<g>
	<g>
		<g>
			<g>
				<path d="M22.1,38.8c-0.2,0-0.4-0.1-0.5-0.2c-0.3-0.2-0.4-0.5-0.4-0.9l0.3-2c0-0.3,0.3-0.5,0.6-0.4c0.3,0,0.5,0.3,0.4,0.6
					l-0.3,1.8l5.7-3c0.3-0.1,0.6-0.1,0.8,0l5.7,3l-1.1-6.3c0-0.3,0-0.6,0.3-0.8l4.6-4.5L35,25.7c-0.3,0-0.5-0.3-0.4-0.6
					c0-0.3,0.3-0.5,0.6-0.4l3.4,0.5c0.3,0,0.6,0.3,0.7,0.6c0.1,0.3,0,0.7-0.2,0.9l-4.7,4.6l1.2,6.4c0.1,0.3-0.1,0.7-0.4,0.9
					c-0.3,0.2-0.6,0.2-0.9,0.1l-5.8-3.1l-5.8,3.1C22.4,38.8,22.3,38.8,22.1,38.8z"/>
			</g>
		</g>
		<g>
			<g>
				<path d="M22.7,32.5C22.7,32.5,22.7,32.5,22.7,32.5c-0.4-0.1-0.5-0.3-0.5-0.6l0.1-0.7l-4.7-4.5c-0.2-0.2-0.3-0.6-0.2-0.9
					c0.1-0.3,0.4-0.6,0.7-0.6l6.5-0.9l2.9-5.9c0.3-0.6,1.3-0.6,1.6,0l2.9,5.9c0.1,0.2,0,0.5-0.2,0.7c-0.2,0.1-0.5,0-0.7-0.2L28.3,19
					l-2.8,5.7c-0.1,0.3-0.4,0.4-0.7,0.5l-6.3,0.9l4.6,4.5c0.2,0.2,0.3,0.5,0.3,0.8l-0.1,0.7C23.2,32.4,23,32.5,22.7,32.5z
					 M24.6,24.3C24.6,24.3,24.6,24.3,24.6,24.3L24.6,24.3z"/>
			</g>
		</g>
	</g>
	<g>
		<g>
			<path d="M19.8,36.6c-0.1,0-0.3-0.1-0.4-0.2c-0.2-0.2-0.1-0.5,0.1-0.7l18.1-15c0.2-0.2,0.5-0.1,0.7,0.1c0.2,0.2,0.1,0.5-0.1,0.7
				l-18.1,15C20,36.6,19.9,36.6,19.8,36.6z"/>
		</g>
	</g>
</g>
</svg>
