<?xml version="1.0" encoding="utf-8"?>
<!-- Generator: Adobe Illustrator 25.2.0, SVG Export Plug-In . SVG Version: 6.00 Build 0)  -->
<svg version="1.1" id="Layer_1" xmlns="http://www.w3.org/2000/svg" xmlns:xlink="http://www.w3.org/1999/xlink" x="0px" y="0px"
	 viewBox="0 0 56.7 56.7" style="enable-background:new 0 0 56.7 56.7;" xml:space="preserve">
<style type="text/css">
	.st0{fill:#4576BB;}
	.st1{fill-rule:evenodd;clip-rule:evenodd;fill:#4576BB;}
	.st2{fill:#231F20;}
	.st3{stroke:#000000;stroke-width:2.064668e-02;stroke-miterlimit:10;}
	.st4{fill:#010101;}
	.st5{fill:#FFFFFF;}
	.st6{fill:#353635;}
	.st7{fill:#5B5B5B;}
	.st8{fill:#E6E7E7;stroke:#5B5B5B;stroke-miterlimit:10;}
</style>
<g>
	<g>
		<path class="st7" d="M28.6,34.7c-6.1,0-9.8-5.8-10-6l-0.2-0.3l0.2-0.3c0.2-0.2,3.8-6,10-6c6.2,0,9.5,5.8,9.6,6.1l0.1,0.2l-0.1,0.2
			C38,28.8,34.7,34.7,28.6,34.7z M19.6,28.3c0.8,1.1,4.1,5.3,9,5.3c4.9,0,7.9-4.2,8.6-5.3c-0.7-1.1-3.7-5.3-8.6-5.3
			C23.7,23,20.4,27.2,19.6,28.3z"/>
	</g>
	<g>
		<path class="st7" d="M28.4,32c-1.7,0-3.1-1.4-3.1-3.1s1.4-3.1,3.1-3.1s3.1,1.4,3.1,3.1S30.1,32,28.4,32z M28.4,26.7
			c-1.2,0-2.1,1-2.1,2.1s1,2.1,2.1,2.1c1.2,0,2.1-1,2.1-2.1S29.5,26.7,28.4,26.7z"/>
	</g>
</g>
</svg>
