<?xml version="1.0" encoding="utf-8"?>
<!-- Generator: Adobe Illustrator 25.2.0, SVG Export Plug-In . SVG Version: 6.00 Build 0)  -->
<svg version="1.1" id="Layer_1" xmlns="http://www.w3.org/2000/svg" xmlns:xlink="http://www.w3.org/1999/xlink" x="0px" y="0px"
	 viewBox="0 0 56.7 56.7" style="enable-background:new 0 0 56.7 56.7;" xml:space="preserve">
<style type="text/css">
	.st0{fill:#4576BB;}
	.st1{fill-rule:evenodd;clip-rule:evenodd;fill:#4576BB;}
	.st2{fill:#231F20;}
	.st3{stroke:#000000;stroke-width:2.064668e-02;stroke-miterlimit:10;}
	.st4{fill:#010101;}
	.st5{fill:#FFFFFF;}
	.st6{fill:#353635;}
	.st7{fill:#5B5B5B;}
	.st8{fill:#E6E7E7;stroke:#5B5B5B;stroke-miterlimit:10;}
</style>
<g>
	<g>
		<g>
			<path d="M26.1,38.1c-0.1,0-0.1,0-0.2,0c-0.2-0.1-0.4-0.3-0.4-0.5V33h-5.3c-0.9,0-1.7-0.7-1.7-1.7V20.7c0-0.9,0.7-1.7,1.7-1.7h9
				c0.2,0,0.3,0.1,0.4,0.2c0.1,0.1,0.1,0.3,0.1,0.4c0,0.2-0.1,0.5-0.1,0.7c0,2.8,2.3,5,5.2,5c0.7,0,1.3-0.1,1.9-0.4
				c0.2-0.1,0.3,0,0.5,0.1c0.1,0.1,0.2,0.3,0.2,0.4v5.7c0,0.9-0.7,1.7-1.7,1.7h-5.6l-3.9,5C26.4,38.1,26.2,38.1,26.1,38.1z
				 M20.2,20.2c-0.3,0-0.6,0.3-0.6,0.6v10.6c0,0.3,0.3,0.6,0.6,0.6h5.8c0.3,0,0.5,0.2,0.5,0.5v3.6l3.1-4c0.1-0.1,0.3-0.2,0.4-0.2
				h5.8c0.3,0,0.6-0.3,0.6-0.6v-5c-0.5,0.1-1.1,0.2-1.6,0.2c-3.5,0-6.3-2.7-6.3-6.1c0-0.1,0-0.2,0-0.2H20.2z"/>
		</g>
	</g>
	<g>
		<g>
			<path d="M34.8,24.2v-2.4h-2.3v-1h2.3v-2.3h1v2.3h2.3v1h-2.3v2.4H34.8z"/>
		</g>
	</g>
</g>
</svg>
