<?xml version="1.0" encoding="utf-8"?>
<!-- Generator: Adobe Illustrator 25.2.0, SVG Export Plug-In . SVG Version: 6.00 Build 0)  -->
<svg version="1.1" id="Layer_1" xmlns="http://www.w3.org/2000/svg" xmlns:xlink="http://www.w3.org/1999/xlink" x="0px" y="0px"
	 viewBox="0 0 56.7 56.7" style="enable-background:new 0 0 56.7 56.7;" xml:space="preserve">
<style type="text/css">
	.st0{fill:#4576BB;}
	.st1{fill-rule:evenodd;clip-rule:evenodd;fill:#4576BB;}
	.st2{fill:#231F20;}
	.st3{stroke:#000000;stroke-width:2.064668e-02;stroke-miterlimit:10;}
	.st4{fill:#010101;}
	.st5{fill:#FFFFFF;}
	.st6{fill:#353635;}
	.st7{fill:#5B5B5B;}
	.st8{fill:#E6E7E7;stroke:#5B5B5B;stroke-miterlimit:10;}
</style>
<g>
	<g>
		<g>
			<path class="st0" d="M25.7,26.6H15.3c-0.4,0-0.8-0.4-0.8-0.8V15.4c0-0.4,0.4-0.8,0.8-0.8h10.4c0.4,0,0.8,0.4,0.8,0.8v10.4
				C26.5,26.3,26.1,26.6,25.7,26.6z M16.1,25h8.8v-8.8h-8.8V25z"/>
		</g>
		<g>
			<path class="st0" d="M25.7,42.1H15.3c-0.4,0-0.8-0.4-0.8-0.8V30.8c0-0.4,0.4-0.8,0.8-0.8h10.4c0.4,0,0.8,0.4,0.8,0.8v10.4
				C26.5,41.7,26.1,42.1,25.7,42.1z M16.1,40.5h8.8v-8.8h-8.8V40.5z"/>
		</g>
	</g>
	<g>
		<g>
			<path class="st0" d="M41.4,26.6H31c-0.4,0-0.8-0.4-0.8-0.8V15.4c0-0.4,0.4-0.8,0.8-0.8h10.4c0.4,0,0.8,0.4,0.8,0.8v10.4
				C42.2,26.3,41.9,26.6,41.4,26.6z M31.8,25h8.8v-8.8h-8.8V25z"/>
		</g>
		<g>
			<path class="st0" d="M41.4,42.1H31c-0.4,0-0.8-0.4-0.8-0.8V30.8c0-0.4,0.4-0.8,0.8-0.8h10.4c0.4,0,0.8,0.4,0.8,0.8v10.4
				C42.2,41.7,41.9,42.1,41.4,42.1z M31.8,40.5h8.8v-8.8h-8.8V40.5z"/>
		</g>
	</g>
</g>
</svg>
