<?xml version="1.0" encoding="utf-8"?>
<!-- Generator: Adobe Illustrator 25.2.0, SVG Export Plug-In . SVG Version: 6.00 Build 0)  -->
<svg version="1.1" id="Layer_1" xmlns="http://www.w3.org/2000/svg" xmlns:xlink="http://www.w3.org/1999/xlink" x="0px" y="0px"
	 viewBox="0 0 56.7 56.7" style="enable-background:new 0 0 56.7 56.7;" xml:space="preserve">
<style type="text/css">
	.st0{fill:#4576BB;}
	.st1{fill-rule:evenodd;clip-rule:evenodd;fill:#4576BB;}
	.st2{fill:#231F20;}
	.st3{stroke:#000000;stroke-width:2.064668e-02;stroke-miterlimit:10;}
	.st4{fill:#010101;}
	.st5{fill:#FFFFFF;}
	.st6{fill:#353635;}
	.st7{fill:#5B5B5B;}
	.st8{fill:#E6E7E7;stroke:#5B5B5B;stroke-miterlimit:10;}
</style>
<g>
	<g>
		<g>
			<path d="M28.6,35.2c-6.7,0-10.8-6.3-10.9-6.6l-0.2-0.3l0.2-0.3c0.2-0.3,4.2-6.6,10.9-6.6c6.7,0,10.3,6.4,10.5,6.6l0.1,0.3
				l-0.1,0.3C38.9,28.9,35.3,35.2,28.6,35.2z M18.8,28.3c0.9,1.2,4.5,5.8,9.8,5.8c5.4,0,8.6-4.6,9.4-5.8c-0.7-1.2-4-5.8-9.4-5.8
				C23.2,22.5,19.6,27.1,18.8,28.3z"/>
		</g>
	</g>
	<g>
		<g>
			<path d="M28.4,32.3c-1.9,0-3.4-1.5-3.4-3.4c0-1.9,1.5-3.4,3.4-3.4c1.9,0,3.4,1.5,3.4,3.4C31.8,30.8,30.3,32.3,28.4,32.3z
				 M28.4,26.5c-1.3,0-2.3,1.1-2.3,2.3s1.1,2.3,2.3,2.3c1.3,0,2.3-1.1,2.3-2.3S29.6,26.5,28.4,26.5z"/>
		</g>
	</g>
</g>
</svg>
