<?xml version="1.0" encoding="utf-8"?>
<!-- Generator: Adobe Illustrator 25.2.0, SVG Export Plug-In . SVG Version: 6.00 Build 0)  -->
<svg version="1.1" id="Layer_1" xmlns="http://www.w3.org/2000/svg" xmlns:xlink="http://www.w3.org/1999/xlink" x="0px" y="0px"
	 viewBox="0 0 56.7 56.7" style="enable-background:new 0 0 56.7 56.7;" xml:space="preserve">
<style type="text/css">
	.st0{fill:#4576BB;}
	.st1{fill-rule:evenodd;clip-rule:evenodd;fill:#4576BB;}
	.st2{fill:#231F20;}
	.st3{stroke:#000000;stroke-width:2.064668e-02;stroke-miterlimit:10;}
	.st4{fill:#010101;}
	.st5{fill:#FFFFFF;}
	.st6{fill:#353635;}
	.st7{fill:#5B5B5B;}
	.st8{fill:#E6E7E7;stroke:#5B5B5B;stroke-miterlimit:10;}
</style>
<g>
	<g>
		<g>
			<path d="M37.4,37.3H19.3c-0.8,0-1.4-0.6-1.4-1.4V20.8c0-0.8,0.6-1.4,1.4-1.4h5.9c0.8,0,1.4,0.6,1.4,1.4v0.9h10.9
				c0.8,0,1.4,0.6,1.4,1.4v12.8C38.9,36.7,38.2,37.3,37.4,37.3z M19.3,20.4c-0.2,0-0.4,0.2-0.4,0.4v15.1c0,0.2,0.2,0.4,0.4,0.4h18.2
				c0.2,0,0.4-0.2,0.4-0.4V23.1c0-0.2-0.2-0.4-0.4-0.4H25.5v-1.9c0-0.2-0.2-0.4-0.4-0.4H19.3z"/>
		</g>
	</g>
	<g>
		<g>
			<rect x="18.3" y="25.3" width="20" height="1"/>
		</g>
	</g>
</g>
</svg>
