<?xml version="1.0" encoding="utf-8"?>
<!-- Generator: Adobe Illustrator 25.2.0, SVG Export Plug-In . SVG Version: 6.00 Build 0)  -->
<svg version="1.1" id="Layer_1" xmlns="http://www.w3.org/2000/svg" xmlns:xlink="http://www.w3.org/1999/xlink" x="0px" y="0px"
	 viewBox="0 0 56.7 56.7" style="enable-background:new 0 0 56.7 56.7;" xml:space="preserve">
<style type="text/css">
	.st0{fill:#4576BB;}
	.st1{fill-rule:evenodd;clip-rule:evenodd;fill:#4576BB;}
	.st2{fill:#231F20;}
	.st3{stroke:#000000;stroke-width:2.064668e-02;stroke-miterlimit:10;}
	.st4{fill:#010101;}
	.st5{fill:#FFFFFF;}
	.st6{fill:#353635;}
	.st7{fill:#5B5B5B;}
	.st8{fill:#E6E7E7;stroke:#5B5B5B;stroke-miterlimit:10;}
</style>
<g>
	<g>
		<path d="M36.7,29.7h-9c-0.1,0-0.3,0.1-0.3,0.3v4.1c0,0.1,0.1,0.3,0.3,0.3h9c0.1,0,0.3-0.1,0.3-0.3V30
			C36.9,29.8,36.8,29.7,36.7,29.7z M36.4,33.8h-8.5v-3.6h8.5V33.8z"/>
	</g>
	<g>
		<path d="M29.5,31.3h1.3l-1.5,1.5c-0.1,0.1-0.1,0.2-0.1,0.3c0,0.1,0.1,0.2,0.2,0.2h1.9c0.1,0,0.3-0.1,0.3-0.3s-0.1-0.3-0.3-0.3
			h-1.3l1.5-1.5c0.1-0.1,0.1-0.2,0.1-0.3c0-0.1-0.1-0.2-0.2-0.2h-1.9c-0.1,0-0.3,0.1-0.3,0.3S29.3,31.3,29.5,31.3z"/>
	</g>
	<g>
		<path d="M32.4,33.3c0.1,0,0.3-0.1,0.3-0.3v-1.9c0-0.1-0.1-0.3-0.3-0.3s-0.3,0.1-0.3,0.3V33C32.1,33.2,32.2,33.3,32.4,33.3z"/>
	</g>
	<g>
		<path d="M33.5,33.3c0.1,0,0.3-0.1,0.3-0.3v-0.7h0.6c0.4,0,0.7-0.3,0.7-0.7s-0.3-0.7-0.7-0.7h-0.9c-0.1,0-0.3,0.1-0.3,0.3V33
			C33.2,33.2,33.3,33.3,33.5,33.3z M33.7,31.3h0.6c0.1,0,0.2,0.1,0.2,0.2c0,0.1-0.1,0.2-0.2,0.2h-0.6V31.3z"/>
	</g>
	<g>
		<path d="M36,19.9h-0.4v-0.4c0-0.5-0.4-0.9-0.9-0.9h-0.4v-0.4c0-0.5-0.4-0.9-0.9-0.9H20.7c-0.5,0-0.9,0.4-0.9,0.9v17.7
			c0,0.5,0.4,0.9,0.9,0.9h0.4v0.4c0,0.5,0.4,0.9,0.9,0.9h0.4v0.4c0,0.5,0.4,0.9,0.9,0.9h11.6c1.1,0,2-0.9,2-2v-2.3
			c0-0.1-0.1-0.3-0.3-0.3s-0.3,0.1-0.3,0.3v2.3c0,0.8-0.7,1.5-1.5,1.5H23.4c-0.2,0-0.4-0.2-0.4-0.4v-0.4h11.3c0.7,0,1.3-0.6,1.3-1.3
			v-1.7c0-0.1-0.1-0.3-0.3-0.3s-0.3,0.1-0.3,0.3v1.7c0,0.4-0.4,0.8-0.8,0.8H22c-0.2,0-0.4-0.2-0.4-0.4v-0.4h11.7
			c0.5,0,0.9-0.4,0.9-0.9v-0.7c0-0.1-0.1-0.3-0.3-0.3s-0.3,0.1-0.3,0.3v0.7c0,0.2-0.2,0.4-0.4,0.4H20.7c-0.2,0-0.4-0.2-0.4-0.4V18.2
			c0-0.2,0.2-0.4,0.4-0.4h1.6v0.9c0,0.1,0.1,0.3,0.3,0.3h0.9v0.6h-0.9c-0.1,0-0.3,0.1-0.3,0.3V21c0,0.1,0.1,0.3,0.3,0.3h0.9v0.6
			h-0.9c-0.1,0-0.3,0.1-0.3,0.3v1.2c0,0.1,0.1,0.3,0.3,0.3h0.9v0.6h-0.9c-0.1,0-0.3,0.1-0.3,0.3v1.2c0,0.1,0.1,0.3,0.3,0.3h0.1v1
			c0,0.6,0.5,1,1,1c0.6,0,1-0.5,1-1v-1.3c0-0.1-0.1-0.3-0.3-0.3H24v-0.6h0.9c0.1,0,0.3-0.1,0.3-0.3v-1.2c0-0.1-0.1-0.3-0.3-0.3H24
			v-0.6h0.9c0.1,0,0.3-0.1,0.3-0.3V21c0-0.1-0.1-0.3-0.3-0.3H24v-0.6h0.9c0.1,0,0.3-0.1,0.3-0.3v-1.2c0-0.1-0.1-0.3-0.3-0.3H24v-0.6
			h9.3c0.2,0,0.4,0.2,0.4,0.4v10.8c0,0.1,0.1,0.3,0.3,0.3s0.3-0.1,0.3-0.3v-9.8h0.4c0.2,0,0.4,0.2,0.4,0.4v9.4
			c0,0.1,0.1,0.3,0.3,0.3s0.3-0.1,0.3-0.3v-8.5H36c0.2,0,0.4,0.2,0.4,0.4v8.1c0,0.1,0.1,0.3,0.3,0.3s0.3-0.1,0.3-0.3v-8.1
			C36.9,20.3,36.5,19.9,36,19.9z M22.8,20.1h0.6v0.6h-0.6V20.1z M22.8,22.4h0.6V23h-0.6V22.4z M24.2,26.9c0,0.3-0.2,0.5-0.5,0.5
			c-0.3,0-0.5-0.2-0.5-0.5v-1h0.5h0.5V26.9z M23,25.3h-0.1v-0.6h0.6v0.6H23z M24.6,24.2H24v-0.6h0.6V24.2z M24.6,21.9H24v-0.6h0.6
			V21.9z M24.6,19.5H24v-0.6h0.6V19.5z M23.5,18.4h-0.6v-0.6h0.6V18.4z"/>
	</g>
</g>
</svg>
