<?xml version="1.0" encoding="utf-8"?>
<!-- Generator: Adobe Illustrator 25.2.0, SVG Export Plug-In . SVG Version: 6.00 Build 0)  -->
<svg version="1.1" id="Layer_1" xmlns="http://www.w3.org/2000/svg" xmlns:xlink="http://www.w3.org/1999/xlink" x="0px" y="0px"
	 viewBox="0 0 56.7 56.7" style="enable-background:new 0 0 56.7 56.7;" xml:space="preserve">
<style type="text/css">
	.st0{fill:#4576BB;}
	.st1{fill-rule:evenodd;clip-rule:evenodd;fill:#4576BB;}
	.st2{fill:#231F20;}
	.st3{stroke:#000000;stroke-width:2.064668e-02;stroke-miterlimit:10;}
	.st4{fill:#010101;}
	.st5{fill:#FFFFFF;}
	.st6{fill:#353635;}
	.st7{fill:#5B5B5B;}
	.st8{fill:#E6E7E7;stroke:#5B5B5B;stroke-miterlimit:10;}
</style>
<g>
	<path class="st7" d="M32.8,27.7h-9c-0.6,0-1.1,0.5-1.1,1.1v6.2c0,0.6,0.5,1.1,1.1,1.1h9c0.6,0,1.1-0.5,1.1-1.1v-6.2
		C34,28.2,33.5,27.7,32.8,27.7z M29,32.1v1.3c0,0.3-0.2,0.6-0.6,0.6h0c-0.3,0-0.7-0.3-0.7-0.6v-1.3c-0.3-0.2-0.6-0.6-0.6-1.1
		c0-0.7,0.6-1.2,1.3-1.2c0.7,0,1.2,0.6,1.2,1.2C29.6,31.5,29.4,31.9,29,32.1z"/>
	<path class="st7" d="M28.9,20.5H28c-1,0-2,0.3-2.8,1c-0.8,0.7-1.2,1.7-1.2,2.7v2.2c0,0.2,0.2,0.4,0.4,0.4h1c0.2,0,0.4-0.2,0.4-0.4
		v-2.2c0-1.1,1-1.9,2.1-1.9h0.9c1.1,0,1.9,0.8,1.9,1.9v2.2c0,0.2,0.2,0.4,0.4,0.4h1c0.2,0,0.4-0.2,0.4-0.4v-2.2
		C32.6,22.1,31,20.5,28.9,20.5z"/>
</g>
</svg>
