<?xml version="1.0" encoding="utf-8"?>
<!-- Generator: Adobe Illustrator 25.2.0, SVG Export Plug-In . SVG Version: 6.00 Build 0)  -->
<svg version="1.1" id="Layer_1" xmlns="http://www.w3.org/2000/svg" xmlns:xlink="http://www.w3.org/1999/xlink" x="0px" y="0px"
	 viewBox="0 0 23.5 23.5" style="enable-background:new 0 0 23.5 23.5;" xml:space="preserve">
<style type="text/css">
	.st0{fill:#2C7BE5;}
	.st1{fill:#FFFFFF;}
	.st2{fill-rule:evenodd;clip-rule:evenodd;fill:#2C7BE5;}
	.st3{fill:none;}
</style>
<g>
	<path class="st2" d="M19.9,16.6h-4.1l1.9,4.1h-0.5l-4.1-4.1h-1.7l-3.8,4.1H7l2-4.1H4.9c-0.6,0-1-0.4-1-1V4.7c0-0.6,0.4-1,1-1h14.9
		c0.6,0,1.1,0.4,1.1,1v10.9C20.9,16.2,20.5,16.6,19.9,16.6L19.9,16.6z M19.9,5.3c0-0.3-0.4-0.7-0.7-0.7H5.6c-0.3,0-0.7,0.4-0.7,0.7
		v9.5c0,0.3,0.4,0.7,0.7,0.7h13.6c0.3,0,0.7-0.4,0.7-0.7V5.3L19.9,5.3z M17,9.9l-2.1,4.4L12.4,8l-2.2,4.2l-1.9-2L7,11l-0.3,0.2
		c0,0-0.3,0.6-0.7,0.3c-0.4-0.3,0-0.7,0-0.7l2.5-1.5l1.5,1.5l2.6-5L15,12l2-4.2l1.8,3.8c0.2,0.7-0.8,0.7-0.9,0.2L17,9.9L17,9.9z"/>
</g>
</svg>
