<?xml version="1.0" encoding="utf-8"?>
<!-- Generator: Adobe Illustrator 25.2.0, SVG Export Plug-In . SVG Version: 6.00 Build 0)  -->
<svg version="1.1" id="Layer_1" xmlns="http://www.w3.org/2000/svg" xmlns:xlink="http://www.w3.org/1999/xlink" x="0px" y="0px"
	 viewBox="0 0 23.5 23.5" style="enable-background:new 0 0 23.5 23.5;" xml:space="preserve">
<style type="text/css">
	.st0{fill:#2C7BE5;}
	.st1{fill:#FFFFFF;}
	.st2{fill-rule:evenodd;clip-rule:evenodd;fill:#2C7BE5;}
	.st3{fill:none;}
</style>
<g>
	<path class="st0" d="M21.3,19.5c0,0.5-0.3,0.8-0.7,0.8H2.1c-0.4,0-0.7-0.4-0.7-0.8l0,0c0-0.5,0.3-0.8,0.7-0.8h18.5
		C21,18.6,21.3,19,21.3,19.5L21.3,19.5z"/>
	<path class="st0" d="M21.4,16.4c0,0.5-0.3,0.8-0.7,0.8H2.3c-0.4,0-0.7-0.4-0.7-0.8l0,0c0-0.5,0.3-0.8,0.7-0.8h18.5
		C21.1,15.5,21.4,15.9,21.4,16.4L21.4,16.4z"/>
	<path class="st0" d="M21.4,13.3c0,0.5-0.3,0.8-0.7,0.8H2.3c-0.4,0-0.7-0.4-0.7-0.8l0,0c0-0.5,0.3-0.8,0.7-0.8h18.5
		C21.1,12.4,21.4,12.8,21.4,13.3L21.4,13.3z"/>
	<path class="st0" d="M11.1,2.2c0.2,1.5-1.4,7.4,6.5,6.4c0,0,1.3,2.3-1.2,2.2c0,0-7.1,0-7.2-7.1c0,0-3,3.5-0.7,7c0,0-1,0.4-1.5,0
		c-1.6-1.1-2.1-7.1,3.1-9.4C10.1,1.5,11,1.5,11.1,2.2z"/>
</g>
</svg>
