<?xml version="1.0" encoding="utf-8"?>
<!-- Generator: Adobe Illustrator 25.2.0, SVG Export Plug-In . SVG Version: 6.00 Build 0)  -->
<svg version="1.1" id="Layer_1" xmlns="http://www.w3.org/2000/svg" xmlns:xlink="http://www.w3.org/1999/xlink" x="0px" y="0px"
	 viewBox="0 0 23.5 23.5" style="enable-background:new 0 0 23.5 23.5;" xml:space="preserve">
<style type="text/css">
	.st0{fill:#2C7BE5;}
	.st1{fill:#FFFFFF;}
	.st2{fill-rule:evenodd;clip-rule:evenodd;fill:#2C7BE5;}
	.st3{fill:none;}
</style>
<g>
	<g>
		<path class="st0" d="M19.2,12.9c0,0.4-0.3,0.7-0.7,0.7H4.6c-0.4,0-0.7-0.3-0.7-0.7V2.8C3.9,2.4,4.2,2,4.6,2h13.9
			c0.4,0,0.7,0.3,0.7,0.7V12.9z"/>
		<polygon class="st0" points="6.3,12.6 7.1,16.3 12.1,12.7 		"/>
	</g>
	<path class="st0" d="M17.5,20c0,0.3-2.7,0.6-6,0.6c-3.3,0-6-0.3-6-0.6c0-0.3,2.7-0.6,6-0.6C14.8,19.4,17.5,19.7,17.5,20z"/>
</g>
</svg>
