<?xml version="1.0" encoding="utf-8"?>
<!-- Generator: Adobe Illustrator 25.2.0, SVG Export Plug-In . SVG Version: 6.00 Build 0)  -->
<svg version="1.1" id="Layer_1" xmlns="http://www.w3.org/2000/svg" xmlns:xlink="http://www.w3.org/1999/xlink" x="0px" y="0px"
	 viewBox="0 0 23.5 23.5" style="enable-background:new 0 0 23.5 23.5;" xml:space="preserve">
<style type="text/css">
	.st0{fill:#2C7BE5;}
	.st1{fill:#FFFFFF;}
	.st2{fill-rule:evenodd;clip-rule:evenodd;fill:#2C7BE5;}
	.st3{fill:none;}
</style>
<path class="st2" d="M3.3,11.7c0.3-0.5,2.5-4,6.7-4.2c5.5-0.3,7.8,3.9,7.8,3.9s0.9-0.2,1.6-0.4c0.8-0.2,0.9,0.1,0.6,0.7
	c-0.7,1.6-2,4.4-2,4.4s-2.4-1.4-4-2.3c-0.7-0.4-1-0.8,0.1-1.1c0.8-0.3,1.6-0.5,1.6-0.5S13.6,9.5,10,9.7c-2.6,0.2-4.4,2.6-4.7,3.1
	c-0.3,0.5-0.7,0.6-1.2,0.3c-0.5-0.3,0,0-0.5-0.3C3.1,12.6,3,12.2,3.3,11.7L3.3,11.7z"/>
</svg>
