<?xml version="1.0" encoding="utf-8"?>
<!-- Generator: Adobe Illustrator 25.2.0, SVG Export Plug-In . SVG Version: 6.00 Build 0)  -->
<svg version="1.1" id="Layer_1" xmlns="http://www.w3.org/2000/svg" xmlns:xlink="http://www.w3.org/1999/xlink" x="0px" y="0px"
	 viewBox="0 0 23.5 23.5" style="enable-background:new 0 0 23.5 23.5;" xml:space="preserve">
<style type="text/css">
	.st0{fill:#2C7BE5;}
	.st1{fill:#FFFFFF;}
	.st2{fill-rule:evenodd;clip-rule:evenodd;fill:#2C7BE5;}
	.st3{fill:none;}
</style>
<g>
	<path class="st0" d="M19.3,6.9H8.7C8.7,6.4,8.4,6,8.1,6V5.3c0.4,0,0.7-0.4,0.7-0.8h10.6c0,0.5,0.3,0.8,0.7,0.8V6
		C19.6,6,19.3,6.4,19.3,6.9L19.3,6.9z M5.6,6.9H3.4C3.4,6.4,3.4,6,3.3,6V5.3c0.1,0,0.1-0.4,0.1-0.8h2.1c0,0.5,0.1,0.8,0.1,0.8V6
		C5.6,6,5.6,6.4,5.6,6.9L5.6,6.9z M19.3,11.6H8.7c0-0.5-0.3-0.8-0.7-0.8v-0.7c0.4,0,0.7-0.4,0.7-0.8h10.6c0,0.5,0.3,0.8,0.7,0.8v0.7
		C19.6,10.8,19.3,11.1,19.3,11.6L19.3,11.6z M5.6,11.6H3.4c0-0.5-0.1-0.8-0.1-0.8v-0.7c0.1,0,0.1-0.4,0.1-0.8h2.1
		c0,0.5,0.1,0.8,0.1,0.8v0.7C5.6,10.8,5.6,11.1,5.6,11.6L5.6,11.6z M19.3,16.4H8.7c0-0.5-0.3-0.8-0.7-0.8v-0.7
		c0.4,0,0.7-0.4,0.7-0.8h10.6c0,0.5,0.3,0.8,0.7,0.8v0.7C19.6,15.5,19.3,15.9,19.3,16.4L19.3,16.4z M5.6,16.4H3.4
		c0-0.5-0.1-0.8-0.1-0.8v-0.7c0.1,0,0.1-0.4,0.1-0.8h2.1c0,0.5,0.1,0.8,0.1,0.8v0.7C5.6,15.5,5.6,15.9,5.6,16.4L5.6,16.4z"/>
</g>
</svg>
