<?xml version="1.0" encoding="utf-8"?>
<!-- Generator: Adobe Illustrator 25.2.0, SVG Export Plug-In . SVG Version: 6.00 Build 0)  -->
<svg version="1.1" id="Layer_1" xmlns="http://www.w3.org/2000/svg" xmlns:xlink="http://www.w3.org/1999/xlink" x="0px" y="0px"
	 viewBox="0 0 23.5 23.5" style="enable-background:new 0 0 23.5 23.5;" xml:space="preserve">
<style type="text/css">
	.st0{fill:#2C7BE5;}
	.st1{fill:#FFFFFF;}
	.st2{fill-rule:evenodd;clip-rule:evenodd;fill:#2C7BE5;}
	.st3{fill:none;}
</style>
<g>
	<path class="st0" d="M8.9,7.3c0-0.9,0-2.1,0.9-2.7c0,0-2.7-1-4.3,2C5.4,6.8,5.3,9.1,5.3,9.1s-1,0.1-0.3,1.9c0.7,1.8,1,1.5,1,1.5
		s0.7,1.4,0.9,1.4c0.2,0-0.1,0.9-0.2,0.9c-0.1,0-5.3,0.2-5.5,2v2.6H4l0.1-1.8c0,0-0.5-1.1,2.1-1.9c2.7-0.8,4.4-0.8,4.4-0.8
		s-0.1-0.5-0.5-1.3C9.7,12.7,8.9,12,8.9,12s-1.7-3-0.1-3.5C8.8,8.5,8.9,8,8.9,7.3z"/>
	<path class="st0" d="M9.8,8.9c0,0-1.4-6.2,4.7-5c0,0,3-0.5,3.2,2c0.2,2.5-0.2,3.5-0.2,3.5s0.9-0.2,0.9,0.6c0,0.8-0.7,2.2-1.5,2.3
		c0,0-0.3,0.8-0.9,1.5c-0.3,0.4-0.3,1.3-0.2,1.5c0,0,0.7,0.3,1.6,0.4c0.8,0.1,1.7,0.2,2.7,0.3c2.2,0.4,2.5,1.1,2.7,1.5
		c0.6,1,0.3,2.3,0.3,2.3H4.7l0.1-2.3c0,0,0.4-1.9,6.5-2.2c0,0,0.2-0.1,0.1-1.5c0,0-0.7-1.4-0.7-1.8c0-0.1-0.3-0.2-0.6-0.5
		C9.4,11,8.7,9.6,9.6,9.1l0.2,0l0.1,0L9.8,8.9z"/>
</g>
</svg>
