<?xml version="1.0" encoding="utf-8"?>
<!-- Generator: Adobe Illustrator 25.2.0, SVG Export Plug-In . SVG Version: 6.00 Build 0)  -->
<svg version="1.1" id="Layer_1" xmlns="http://www.w3.org/2000/svg" xmlns:xlink="http://www.w3.org/1999/xlink" x="0px" y="0px"
	 viewBox="0 0 23.5 23.5" style="enable-background:new 0 0 23.5 23.5;" xml:space="preserve">
<style type="text/css">
	.st0{fill:#2C7BE5;}
	.st1{fill:#FFFFFF;}
	.st2{fill-rule:evenodd;clip-rule:evenodd;fill:#2C7BE5;}
	.st3{fill:none;}
</style>
<path class="st2" d="M19.5,19.1H3.8c-0.4,0-0.7-0.3-0.7-0.7V7.1c0-0.4,0.3-0.7,0.7-0.7h15.7c0.4,0,0.7,0.3,0.7,0.7v11.3
	C20.2,18.8,19.9,19.1,19.5,19.1L19.5,19.1z M18.8,8.2c0-0.2-0.2-0.3-0.3-0.3H4.8C4.6,7.8,4.5,8,4.5,8.2v9.2c0,0.2,0.2,0.3,0.3,0.3
	h4.1c0,0-0.2-1.7,1.6-2.2c1.2-0.4,1.3-0.5,1.3-0.5s0.3-0.4,0.4-0.5c0.1,0,0-0.2,0-0.2c0-0.1-0.2,0-0.2-0.6c0-0.2,0-0.2-0.1-0.2
	c-0.1,0-0.4-0.2-0.4-0.7c0-0.5,0-0.5,0.1-0.5c0-0.2-0.1-0.5-0.1-1.2s0.6-1.4,1.8-1.4c0.3,0-1.1-0.1-0.8-0.2c0,0.1,1.8,0.2,1.9,0.3
	c0.2,0.1,0.6,0.5,0.7,1.2c0,0.7-0.1,1-0.1,1.2c0.1,0,0.1,0,0.1,0.5c0,0.5-0.3,0.7-0.4,0.7c-0.1,0-0.1,0-0.1,0.2
	c0,0.6-0.2,0.6-0.2,0.6c0,0-0.1,0.2,0,0.2c0.1,0,0.4,0.5,0.4,0.5s0.1,0,1.3,0.5c1.8,0.5,1.6,2.2,1.6,2.2h0.7c0.2,0,0.3-0.1,0.3-0.3
	V8.2L18.8,8.2z"/>
</svg>
