<?xml version="1.0" encoding="utf-8"?>
<!-- Generator: Adobe Illustrator 25.2.0, SVG Export Plug-In . SVG Version: 6.00 Build 0)  -->
<svg version="1.1" id="Layer_1" xmlns="http://www.w3.org/2000/svg" xmlns:xlink="http://www.w3.org/1999/xlink" x="0px" y="0px"
	 viewBox="0 0 23.5 23.5" style="enable-background:new 0 0 23.5 23.5;" xml:space="preserve">
<style type="text/css">
	.st0{fill:#2C7BE5;}
	.st1{fill:#FFFFFF;}
	.st2{fill-rule:evenodd;clip-rule:evenodd;fill:#2C7BE5;}
	.st3{fill:none;}
</style>
<path class="st2" d="M15.5,12.6c1,2.7-0.8,4.9-2.2,6.5c-0.3,0.4-0.4,0.3-0.5-0.1c-0.1-1.8-0.3-3-0.3-3s-0.6,0.5-1.2,0.1
	c-0.2,0.4-0.7,0.5-1.1,0.3c-0.1,0.1-0.3,0.2-0.4,0.4c-0.6,0.6-0.8,0.5-0.6-0.4c0-0.2,0.1-0.4,0.1-0.5c-0.4-0.2-0.5-0.8-0.2-1.2
	c-0.6-0.4-0.6-1.1-0.6-1.1s-1.1,0.5-2.7,1.2c-0.4,0.2-0.5,0.1-0.4-0.4C6,12.5,7.1,9.9,9.9,9.4c3-5.9,7.8-7,7.8-7S19.1,7.1,15.5,12.6
	L15.5,12.6z M12.2,9.6c-1.5,2.6-1.8,5.4-1.8,5.4s2.3-1.6,3.8-4.2C15.8,8.1,16,5.4,16,5.4S13.7,7,12.2,9.6L12.2,9.6z"/>
</svg>
