<?xml version="1.0" encoding="utf-8"?>
<!-- Generator: Adobe Illustrator 25.2.0, SVG Export Plug-In . SVG Version: 6.00 Build 0)  -->
<svg version="1.1" id="Layer_1" xmlns="http://www.w3.org/2000/svg" xmlns:xlink="http://www.w3.org/1999/xlink" x="0px" y="0px"
	 viewBox="0 0 23.5 23.5" style="enable-background:new 0 0 23.5 23.5;" xml:space="preserve">
<style type="text/css">
	.st0{fill:#2C7BE5;}
	.st1{fill:#FFFFFF;}
	.st2{fill-rule:evenodd;clip-rule:evenodd;fill:#2C7BE5;}
	.st3{fill:none;}
</style>
<g>
	<path class="st2" d="M17,17.4c-3.2,3.2-8.3,3.2-11.5,0C2.4,14.2,2.4,9,5.6,5.9c3.2-3.2,8.3-3.2,11.5,0C20.2,9,20.2,14.2,17,17.4
		L17,17.4z M16.4,13.1c0-0.2,0-0.3-0.1-0.5l0,0c0.1-0.3,0.1-0.7,0.1-1c0-2.8-2.3-5.1-5.1-5.1c-2.8,0-5.1,2.3-5.1,5.1
		c0,0.3,0,0.7,0.1,1h0c-0.1,0.2-0.1,0.3-0.1,0.5v1c0,0.8,0.7,1.5,1.5,1.5c0.8,0,1.5-0.7,1.5-1.5v-1c0-0.5-0.3-1-0.7-1.3
		c-0.2-0.4-0.3-0.8-0.3-1.3c0-1.7,1.4-3,3-3c1.7,0,3,1.4,3,3c0,0.5-0.1,0.9-0.3,1.3c-0.4,0.3-0.7,0.7-0.7,1.3v1
		c0,0.8,0.7,1.5,1.5,1.5c0.8,0,1.5-0.7,1.5-1.5V13.1L16.4,13.1z"/>
</g>
</svg>
