<?xml version="1.0" encoding="utf-8"?>
<!-- Generator: Adobe Illustrator 25.2.0, SVG Export Plug-In . SVG Version: 6.00 Build 0)  -->
<svg version="1.1" id="Layer_1" xmlns="http://www.w3.org/2000/svg" xmlns:xlink="http://www.w3.org/1999/xlink" x="0px" y="0px"
	 viewBox="0 0 23.5 23.5" style="enable-background:new 0 0 23.5 23.5;" xml:space="preserve">
<style type="text/css">
	.st0{fill:#2C7BE5;}
	.st1{fill:#FFFFFF;}
	.st2{fill-rule:evenodd;clip-rule:evenodd;fill:#2C7BE5;}
	.st3{fill:none;}
</style>
<g>
	<path class="st2" d="M20.1,7.8c0-0.9-0.7-1.7-1.7-1.7H5.1c-0.9,0-1.7,0.7-1.7,1.7v6.6h16.6V7.8L20.1,7.8z M20.1,16.1H3.5v1.7
		c0,0.9,0.7,1.7,1.7,1.7h13.3c0.9,0,1.7-0.7,1.7-1.7V16.1L20.1,16.1z M6.7,12.8H5.1v-1.7h1.6V12.8L6.7,12.8z M9.9,11.1v1.6h1v-1.6
		h7.5v1.7H8.6v-1.7H9.9L9.9,11.1z M14.4,12.4h0.8v-1.2h-0.8V12.4L14.4,12.4z"/>
</g>
</svg>
