<?xml version="1.0" encoding="utf-8"?>
<!-- Generator: Adobe Illustrator 25.2.0, SVG Export Plug-In . SVG Version: 6.00 Build 0)  -->
<svg version="1.1" id="Layer_1" xmlns="http://www.w3.org/2000/svg" xmlns:xlink="http://www.w3.org/1999/xlink" x="0px" y="0px"
	 viewBox="0 0 23.5 23.5" style="enable-background:new 0 0 23.5 23.5;" xml:space="preserve">
<style type="text/css">
	.st0{fill:#2C7BE5;}
	.st1{fill:#FFFFFF;}
	.st2{fill-rule:evenodd;clip-rule:evenodd;fill:#2C7BE5;}
	.st3{fill:none;}
</style>
<g>
	<path class="st2" d="M11,14.4V18h7.1v-3.6H11L11,14.4z M13.4,3.7V2.6h2.4v1.2H13.4L13.4,3.7z M15.7,4.9h1.2V3.7V2.6V1.4h-1.2h-2.4
		h-1.2v2.4v1.2h1.2H15.7L15.7,4.9z M12.2,6.1V4.9H11v1.2H9.8v1.2h9.5V6.1h-1.2V4.9h-1.2v1.2H12.2L12.2,6.1z M9.8,19.2V7.3H8.6v11.9
		v1.2h1.2h9.5h1.2v-1.2V7.3h-1.2v11.9H9.8L9.8,19.2z M2.7,1.4v1.2h1.2V1.4H2.7L2.7,1.4z M2.7,3.7v1.2h1.2V3.7H2.7L2.7,3.7z M2.7,6.1
		v1.2h1.2V6.1H2.7L2.7,6.1z M5.1,4.9v1.2h1.2V4.9H5.1L5.1,4.9z M5.1,2.6v1.2h1.2V2.6H5.1L5.1,2.6z M7.4,3.7v1.2h1.2V3.7H7.4L7.4,3.7
		z M7.4,1.4v1.2h1.2V1.4H7.4L7.4,1.4z M9.8,2.6v1.2H11V2.6H9.8L9.8,2.6z"/>
</g>
</svg>
