<?xml version="1.0" encoding="utf-8"?>
<!-- Generator: Adobe Illustrator 25.2.0, SVG Export Plug-In . SVG Version: 6.00 Build 0)  -->
<svg version="1.1" id="Layer_1" xmlns="http://www.w3.org/2000/svg" xmlns:xlink="http://www.w3.org/1999/xlink" x="0px" y="0px"
	 viewBox="0 0 23.5 23.5" style="enable-background:new 0 0 23.5 23.5;" xml:space="preserve">
<style type="text/css">
	.st0{fill:#2C7BE5;}
	.st1{fill:#FFFFFF;}
	.st2{fill-rule:evenodd;clip-rule:evenodd;fill:#2C7BE5;}
	.st3{fill:none;}
</style>
<path class="st0" d="M9.4,21.4c-1.4-0.3-2.1-0.9-2.6-1.8c-0.4-0.7-0.5-1.7-0.5-3.2c0-1.3-2.3-2-2.3-3.2c1.2,0,2.3,0.3,2.9,1.1
	L7,13.5c0.2-1.3,0.3-2,0.2-2.2c0-0.9-0.3-1.6-0.8-2.1c1,0.2,1.7,0.8,2,2h0.1l0.3-1C9,9.4,9.1,8.8,9.1,8.5c0-1-0.2-1.8-0.5-2.6
	c0.7,0.3,1.2,0.8,1.7,1.6c0.3-0.4,0.4-1,0.4-1.7c0-0.2,0-0.4-0.1-0.8c0-0.3-0.1-0.6-0.1-0.6c0-1,0.2-1.7,0.6-2
	c0.3,1.5,0.9,2.9,1.8,4.2l0.8,2.6h0V9c0-0.1,0-0.3,0-0.6c0-0.2,0-0.4,0-0.4c0-0.5-0.2-1.1-0.5-1.7c0.4,0.1,0.8,0.4,1.3,1
	c0.4,0.5,0.6,0.9,0.8,1.4c0.3,0.9,0.4,1.8,0.4,2.7v1.3h0c0.5-0.8,0.8-1.5,0.7-2c0-0.3-0.1-0.6-0.2-0.8c0.9,0.5,0.8,1.6,0.8,3.2
	c0,0,0,0.4-0.1,1v1.4c0.2-0.2,0.8-0.8,2.1-2.9c0.3,1.5-0.4,2.9-0.4,3.6c0,1.5-0.8,2.7-1.7,3.7c-0.9,1.1-2,1.6-3.5,1.6
	c-0.5,0-1.1-0.1-1.7-0.4c0.7-0.2,1.4-0.8,2.1-1.6c0.7-0.8,1-1.6,1.1-2.3l-1.2,1.1l0.4-0.9c0.2-0.5,0.3-1,0.3-1.4
	c0-0.4,0-0.7-0.1-0.8c0,0.5-0.4,1-1,1.7L13,17.5c-0.1-0.1-0.1-0.2-0.1-0.4c0-0.2,0.1-0.5,0.2-0.9c0.2-0.4,0.3-0.8,0.3-1
	c0-0.3-0.1-0.8-0.4-1.5l-0.6-1.1h0v1.7c0,0.7-0.1,1.3-0.2,1.6l-0.4,1.1c-0.1-0.3-0.2-0.6-0.4-0.9c-0.3-0.3-0.5-0.8-0.6-1.5l0,0
	c-0.2,0.5-0.3,1.2-0.3,1.9c0,0.7,0.3,1.5,0.8,2.3c-1-0.2-1.7-1.2-2.1-3.1h0c-0.3,0.7-0.4,1.4-0.4,2.1c0,0.7,0.2,1.4,0.7,2
	c0.5,0.6,1.1,1.1,1.7,1.2C10.7,21.3,10.1,21.4,9.4,21.4L9.4,21.4z"/>
</svg>
