<?xml version="1.0" encoding="utf-8"?>
<!-- Generator: Adobe Illustrator 25.2.0, SVG Export Plug-In . SVG Version: 6.00 Build 0)  -->
<svg version="1.1" id="Layer_1" xmlns="http://www.w3.org/2000/svg" xmlns:xlink="http://www.w3.org/1999/xlink" x="0px" y="0px"
	 viewBox="0 0 23.5 23.5" style="enable-background:new 0 0 23.5 23.5;" xml:space="preserve">
<style type="text/css">
	.st0{fill:#2C7BE5;}
	.st1{fill:#FFFFFF;}
	.st2{fill-rule:evenodd;clip-rule:evenodd;fill:#2C7BE5;}
	.st3{fill:none;}
</style>
<g>
	<g>
		<g>
			<path class="st0" d="M11.5,14.5C6.2,14.5,2,8.8,2,8.8s4-5.5,9.5-5.5c5.5,0,9.7,5.5,9.7,5.5S16.8,14.5,11.5,14.5z M19.1,8.8
				c0,0-3.3-4.3-7.6-4.3C7.2,4.5,4,8.8,4,8.8s3.4,4.4,7.5,4.4C15.7,13.3,19.1,8.8,19.1,8.8z"/>
		</g>
		<g>
			<path class="st0" d="M17,8.9c0,3-2.4,5.4-5.4,5.4c-3,0-5.4-2.4-5.4-5.4c0-3,2.4-5.4,5.4-5.4C14.6,3.4,17,5.9,17,8.9z M11.6,4.8
				c-2.2,0-4.1,1.8-4.1,4.1c0,2.2,1.8,4.1,4.1,4.1c2.2,0,4.1-1.8,4.1-4.1C15.6,6.6,13.8,4.8,11.6,4.8z"/>
		</g>
		<path class="st0" d="M9.4,8.8c0,1.2,1,2.2,2.2,2.2c1.2,0,2.2-1,2.2-2.2c0-1.2-1-2.2-2.2-2.2c-0.1,0-0.3,0-0.4,0
			C11.2,6.7,11.2,8.8,9.4,8.8z"/>
	</g>
	<path class="st0" d="M17.4,19.4c0,0.3-2.6,0.5-5.9,0.5s-5.9-0.2-5.9-0.5c0-0.3,2.6-0.5,5.9-0.5S17.4,19.1,17.4,19.4z"/>
</g>
</svg>
