<?xml version="1.0" encoding="utf-8"?>
<!-- Generator: Adobe Illustrator 25.2.0, SVG Export Plug-In . SVG Version: 6.00 Build 0)  -->
<svg version="1.1" id="Layer_1" xmlns="http://www.w3.org/2000/svg" xmlns:xlink="http://www.w3.org/1999/xlink" x="0px" y="0px"
	 viewBox="0 0 23.5 23.5" style="enable-background:new 0 0 23.5 23.5;" xml:space="preserve">
<style type="text/css">
	.st0{fill:#2C7BE5;}
	.st1{fill:#FFFFFF;}
	.st2{fill-rule:evenodd;clip-rule:evenodd;fill:#2C7BE5;}
	.st3{fill:none;}
</style>
<g>
	<g>
		<path class="st0" d="M6.3,9.4c0,0-0.4-1.3-0.4-2.7C6,4.2,7.2,0.9,11.7,1c6.6,0.1,5.3,7.4,5.3,7.4c-1.1,5.1-5.5,9.9-5.5,9.9
			C7.1,13.5,6.3,9.4,6.3,9.4z M11.5,16.2c0,0,3.3-3.7,4.2-7.5c0,0,1.1-6.2-3.9-6.3c-3.4,0-4.4,3.1-4.4,5c0,1,0.3,2.1,0.3,2.1
			S8.2,12.6,11.5,16.2z"/>
	</g>
	<path class="st0" d="M13.9,7.1c0,1.2-1,2.2-2.2,2.2s-2.2-1-2.2-2.2c0-1.2,1-2.2,2.2-2.2S13.9,5.9,13.9,7.1z"/>
	<path class="st0" d="M15.7,21.2c0,0.3-1.7,0.5-3.8,0.5c-2.1,0-3.8-0.2-3.8-0.5c0-0.3,1.7-0.5,3.8-0.5C14,20.7,15.7,20.9,15.7,21.2z
		"/>
</g>
</svg>
