<?xml version="1.0" encoding="utf-8"?>
<!-- Generator: Adobe Illustrator 25.2.0, SVG Export Plug-In . SVG Version: 6.00 Build 0)  -->
<svg version="1.1" id="Layer_1" xmlns="http://www.w3.org/2000/svg" xmlns:xlink="http://www.w3.org/1999/xlink" x="0px" y="0px"
	 viewBox="0 0 23.5 23.5" style="enable-background:new 0 0 23.5 23.5;" xml:space="preserve">
<style type="text/css">
	.st0{fill:#2C7BE5;}
	.st1{fill:#FFFFFF;}
	.st2{fill-rule:evenodd;clip-rule:evenodd;fill:#2C7BE5;}
	.st3{fill:none;}
</style>
<g>
	<path class="st2" d="M17.4,19.7c-2.3,0-4.2-1.9-4.2-4.2c0-2.3,1.9-4.2,4.2-4.2c2.3,0,4.2,1.9,4.2,4.2
		C21.6,17.8,19.7,19.7,17.4,19.7L17.4,19.7z M18,14.9h-1.2h-2.4v1.2h2.4H18h2.4v-1.2H18L18,14.9z M14.6,10c-0.4,1.2-1.3,1.9-1.3,1.9
		l0,0.2c-0.8,0.9-1.2,2.1-1.2,3.4c0,1.6,0.7,3.1,1.9,4.1l-11.4,0c0,0-0.1-2.4,0.4-2.9c0.5-0.5,1-1.4,3.8-1.8
		c2.8-0.4,2.8-1.9,2.9-1.8c0-0.6-0.1-1.3-0.1-1.3s-1.1-0.6-1.5-1.8C7.3,9.7,7.4,9.5,7.3,9c0,0,0.1-1.9,0.7-1.8c0,0,0.5,0,0.4-0.4
		c0-0.7,0-0.9,0-1.3c0-0.5,0.3-1.8,1.3-1.9c1-0.2,0.2-0.1,0.6-0.1c0.3,0-0.2-0.2,0.4-0.2l1-0.2c0.6,0,1,0.9,1.3,0.9
		c0.3,0,0.1-0.1,0.8,0c1,0.2,0.7,1.5,0.8,2c0,0.5,0.1,0.6,0,1.1c-0.1,0.4,0.7,0.4,0.7,0.4c0.7,0,0.4,1.8,0.4,1.8
		C15.5,9.6,15.3,9.6,14.6,10L14.6,10z"/>
</g>
</svg>
