<?xml version="1.0" encoding="utf-8"?>
<!-- Generator: Adobe Illustrator 25.2.0, SVG Export Plug-In . SVG Version: 6.00 Build 0)  -->
<svg version="1.1" id="Layer_1" xmlns="http://www.w3.org/2000/svg" xmlns:xlink="http://www.w3.org/1999/xlink" x="0px" y="0px"
	 viewBox="0 0 23.5 23.5" style="enable-background:new 0 0 23.5 23.5;" xml:space="preserve">
<style type="text/css">
	.st0{fill:#2C7BE5;}
	.st1{fill:#FFFFFF;}
	.st2{fill-rule:evenodd;clip-rule:evenodd;fill:#2C7BE5;}
	.st3{fill:none;}
</style>
<g>
	<path class="st2" d="M18,17c-1.9,0-11.3,0-13.1,0c-2,0-2,0.1-2-0.3c0-0.7,2-0.6,2-1.6V7.6c0-0.6,0.5-1.1,1.1-1.1h10.8
		c0.6,0,1.1,0.5,1.1,1.1v7.5c0,1,1.9,0.8,1.9,1.6C19.9,17,19.9,17,18,17L18,17z M16.6,8.4c0-0.3-0.2-0.6-0.6-0.6H6.8
		c-0.3,0-0.6,0.2-0.6,0.6v5.8c0,0.3,0.2,0.6,0.6,0.6H16c0.3,0,0.6-0.2,0.6-0.6V8.4L16.6,8.4z"/>
</g>
</svg>
