<?xml version="1.0" encoding="utf-8"?>
<!-- Generator: Adobe Illustrator 25.2.0, SVG Export Plug-In . SVG Version: 6.00 Build 0)  -->
<svg version="1.1" id="Layer_1" xmlns="http://www.w3.org/2000/svg" xmlns:xlink="http://www.w3.org/1999/xlink" x="0px" y="0px"
	 viewBox="0 0 23.5 23.5" style="enable-background:new 0 0 23.5 23.5;" xml:space="preserve">
<style type="text/css">
	.st0{fill:#2C7BE5;}
	.st1{fill:#FFFFFF;}
	.st2{fill-rule:evenodd;clip-rule:evenodd;fill:#2C7BE5;}
	.st3{fill:none;}
</style>
<g>
	<g>
		<path class="st0" d="M16.4,9.9H14V4.1c0-1-0.8-1.8-1.8-1.8c-1,0-1.8,0.8-1.8,1.8v5.8H7.9c-0.4,0-0.7,0.3-0.7,0.7
			c0,0.3,0.2,0.3,0.4,0.6c0.9,1.3,4.2,5.6,4.2,5.6l0.5,0c0.3,0,4.1-4.9,4.7-5.6c0.1-0.1,0.2-0.3,0.2-0.5
			C17.2,10.2,16.8,9.9,16.4,9.9z"/>
	</g>
	<path class="st0" d="M20.3,13.6c-0.7,0-1.2,0.5-1.2,1.2v3.8H5.4v-3.7c0-0.7-0.6-1.2-1.3-1.2c-0.7,0-1.3,0.6-1.3,1.2v4.8
		c0,0.1,0,0.1,0,0.2c0,0.3,0.1,0.5,0.2,0.7c0.2,0.3,0.6,0.5,1.1,0.5c0,0,0,0,0,0c0,0,0,0,0,0H20c0.1,0,0.2,0,0.3,0
		c0.7,0,1.2-0.5,1.2-1.2v-5.1C21.5,14.1,20.9,13.6,20.3,13.6z"/>
</g>
</svg>
