<?xml version="1.0" encoding="utf-8"?>
<!-- Generator: Adobe Illustrator 25.2.0, SVG Export Plug-In . SVG Version: 6.00 Build 0)  -->
<svg version="1.1" id="Layer_1" xmlns="http://www.w3.org/2000/svg" xmlns:xlink="http://www.w3.org/1999/xlink" x="0px" y="0px"
	 viewBox="0 0 23.5 23.5" style="enable-background:new 0 0 23.5 23.5;" xml:space="preserve">
<style type="text/css">
	.st0{fill:#2C7BE5;}
	.st1{fill:#FFFFFF;}
	.st2{fill-rule:evenodd;clip-rule:evenodd;fill:#2C7BE5;}
	.st3{fill:none;}
</style>
<path class="st2" d="M19.8,19.8l-3.7-0.2c-0.3,0-0.6-0.3-0.6-0.6c0,0-0.1-0.3,0.1-0.5c0.2-0.2,0.5-0.6,0.9-0.9l-2.7-2.8
	c-0.2-0.2-0.3-0.6-0.1-0.8l1-1c0.2-0.2,0.5-0.1,0.8,0.1l2.7,2.8c0.4-0.4,0.7-0.7,0.9-1c0.2-0.2,0.5-0.1,0.5-0.1
	c0.3,0,0.6,0.3,0.6,0.6l0.2,3.8C20.4,19.6,20.2,19.8,19.8,19.8L19.8,19.8z M9.1,9.6C8.9,9.7,8.6,9.7,8.4,9.4L5.6,6.7
	C5.2,7,4.9,7.4,4.7,7.6C4.5,7.8,4.2,7.7,4.2,7.7c-0.3,0-0.6-0.3-0.6-0.6L3.3,3.3c0-0.3,0.2-0.6,0.6-0.6L7.6,3C8,3,8.2,3.3,8.2,3.6
	c0,0,0.1,0.3-0.1,0.5C7.9,4.3,7.6,4.7,7.2,5L10,7.8c0.2,0.2,0.3,0.6,0.1,0.8L9.1,9.6L9.1,9.6z"/>
</svg>
