<?xml version="1.0" encoding="utf-8"?>
<!-- Generator: Adobe Illustrator 25.2.0, SVG Export Plug-In . SVG Version: 6.00 Build 0)  -->
<svg version="1.1" id="Layer_1" xmlns="http://www.w3.org/2000/svg" xmlns:xlink="http://www.w3.org/1999/xlink" x="0px" y="0px"
	 viewBox="0 0 23.5 23.5" style="enable-background:new 0 0 23.5 23.5;" xml:space="preserve">
<style type="text/css">
	.st0{fill:#2C7BE5;}
	.st1{fill:#FFFFFF;}
	.st2{fill-rule:evenodd;clip-rule:evenodd;fill:#2C7BE5;}
	.st3{fill:none;}
</style>
<g>
	<path class="st0" d="M12.1,2.8c-5.1,0-9.3,4.1-9.5,9.1c0,0.1-0.1,0.2-0.1,0.3c0,0.1,0,0.2,0.1,0.3c0.1,5.1,4.3,9.2,9.5,9.2
		c5.2,0,9.5-4.3,9.5-9.5S17.4,2.8,12.1,2.8z M13.3,19.1l0-0.6c-0.1-0.6-0.6-0.9-1.1-0.9c-0.5,0-1.2,0.3-1.2,1l0,0.5
		c-2.4-0.4-5.3-2.5-5.7-5.8H6c0.5,0,0.9-0.5,0.9-1c0-0.5-0.3-1.2-0.9-1.2H5.2C5.6,7.9,9,5.5,11.1,5.5l0,0.7c0,0.5,0.5,0.9,1,1
		c0.7,0,1.2-0.4,1.2-0.9l0-0.8c3.4,0.6,5.5,3.4,5.8,5.8l-0.7,0c-0.5,0-0.9,0.6-0.9,1.1c0,0.5,0.4,1,0.9,1l0.7,0
		C18.7,16.6,16,18.6,13.3,19.1z"/>
	<path class="st0" d="M16.6,8c-0.4-0.4-0.9-0.4-1.2-0.1l-2.3,2.3C13,10.3,13,10.4,13,10.5c-0.2-0.1-0.4-0.1-0.6-0.1
		c-0.2,0-0.3,0-0.5,0.1l-2-1.8C9.5,8.4,9,8.5,8.6,8.9C8.3,9.3,8.2,9.8,8.5,10l2,1.8c0,0.1,0,0.3,0,0.4c0,1,0.8,1.9,1.8,1.9
		c1,0,1.8-0.8,1.8-1.9c0-0.2,0-0.4-0.1-0.6c0.2,0,0.3,0,0.5-0.2l2.3-2.3C17.1,8.9,17,8.3,16.6,8z"/>
</g>
</svg>
