<?xml version="1.0" encoding="utf-8"?>
<!-- Generator: Adobe Illustrator 25.2.0, SVG Export Plug-In . SVG Version: 6.00 Build 0)  -->
<svg version="1.1" id="Layer_1" xmlns="http://www.w3.org/2000/svg" xmlns:xlink="http://www.w3.org/1999/xlink" x="0px" y="0px"
	 viewBox="0 0 23.5 23.5" style="enable-background:new 0 0 23.5 23.5;" xml:space="preserve">
<style type="text/css">
	.st0{fill:#2C7BE5;}
	.st1{fill:#FFFFFF;}
	.st2{fill-rule:evenodd;clip-rule:evenodd;fill:#2C7BE5;}
	.st3{fill:none;}
</style>
<g>
	<path class="st0" d="M11.1,14c0,0,5.4,5.8,5.9,6.1c0,0,0.2,0,0.1-0.3c-0.1-0.3-3.5-7.3-3.5-7.3s0-0.3-0.2-0.2
		c-0.2,0.1-2.3,1.4-2.3,1.4S10.9,13.8,11.1,14z"/>
	<path class="st0" d="M5,5.7c-1.5,2.2-1,5.2,1.2,6.7c2.2,1.5,5.1,1,6.7-1.2c1.5-2.2,1-5.2-1.2-6.7C9.5,3,6.5,3.5,5,5.7z M9.1,5.3
		c0.5,0.5,0.2,1.6-0.6,2.3C7.6,8.3,6.6,8.5,6.1,7.9C5.6,7.4,5.8,6.4,6.7,5.6C7.5,4.9,8.6,4.7,9.1,5.3z"/>
</g>
</svg>
