<?xml version="1.0" encoding="utf-8"?>
<!-- Generator: Adobe Illustrator 25.2.0, SVG Export Plug-In . SVG Version: 6.00 Build 0)  -->
<svg version="1.1" id="Layer_1" xmlns="http://www.w3.org/2000/svg" xmlns:xlink="http://www.w3.org/1999/xlink" x="0px" y="0px"
	 viewBox="0 0 23.5 23.5" style="enable-background:new 0 0 23.5 23.5;" xml:space="preserve">
<style type="text/css">
	.st0{fill:#2C7BE5;}
	.st1{fill:#FFFFFF;}
	.st2{fill-rule:evenodd;clip-rule:evenodd;fill:#2C7BE5;}
	.st3{fill:none;}
</style>
<g>
	<path class="st2" d="M17.3,13.8c-0.7,0-1.5,0-1.5,0s0.1,4.6,0.1,4.9c0,0.4-0.3,0.7-0.7,0.7c-0.3,0-7.6,0-7.8,0
		c-0.4,0-0.7-0.3-0.7-0.7c0-0.2,0-6.6,0.1-10.5C6.6,7.3,5.9,7.2,5.7,7c0.2-0.5,0.9-0.6,1.1-0.6c0-0.7,0-1.1,0-1.1h8.6l0,2.1
		c0,0,0.7,0,1.6-0.1C18,7.3,18,8,18.1,8.7c0,0.7,0.3,3.5,0.3,4C18.3,13.2,18,13.8,17.3,13.8L17.3,13.8z M17.4,8.6
		c0-0.3-0.2-0.5-0.5-0.5l-0.9,0c-0.2,0-0.4,0.2-0.4,0.5l0.2,3.7c0,0.3,0.2,0.5,0.5,0.5l0.9,0c0.2,0,0.4-0.2,0.4-0.5L17.4,8.6
		L17.4,8.6z M10.7,2.7c0-0.2-0.1-0.4,0.2-0.4c0.3,0,0.5,0,0.7,0c0.3,0,0,0.3,0.3,0.4c2.5,0,3.6,2.1,3.6,2.1H6.8
		C6.8,4.9,7.7,2.7,10.7,2.7L10.7,2.7z"/>
</g>
</svg>
