<?xml version="1.0" encoding="utf-8"?>
<!-- Generator: Adobe Illustrator 25.2.0, SVG Export Plug-In . SVG Version: 6.00 Build 0)  -->
<svg version="1.1" id="Layer_1" xmlns="http://www.w3.org/2000/svg" xmlns:xlink="http://www.w3.org/1999/xlink" x="0px" y="0px"
	 viewBox="0 0 23.5 23.5" style="enable-background:new 0 0 23.5 23.5;" xml:space="preserve">
<style type="text/css">
	.st0{fill:#2C7BE5;}
	.st1{fill:#FFFFFF;}
	.st2{fill-rule:evenodd;clip-rule:evenodd;fill:#2C7BE5;}
	.st3{fill:none;}
</style>
<path class="st2" d="M19.6,15.9h-1.4v-1.1h0.6c0.2,0,0.3-0.1,0.3-0.3V6.8c0-0.1-0.1-0.3-0.3-0.3H7.4c-0.2,0-0.3,0.1-0.3,0.3v0.6H6V6
	c0-0.3,0.3-0.6,0.6-0.6h13.1c0.3,0,0.6,0.3,0.6,0.6v9.3C20.2,15.6,19.9,15.9,19.6,15.9L19.6,15.9z M17.3,8.8v9.3
	c0,0.3-0.3,0.6-0.6,0.6H3.7c-0.3,0-0.6-0.3-0.6-0.6V8.8c0-0.3,0.3-0.6,0.6-0.6h13.1C17.1,8.3,17.3,8.5,17.3,8.8L17.3,8.8z M16.3,9.4
	c0-0.1-0.1-0.2-0.2-0.2H4.3c-0.1,0-0.2,0.1-0.2,0.2c0,0,0,2.4,0,4.7c0,0.3,2.4-3.2,2.4-3.2s2,3.3,3.6,5c0.1,0,0.2,0,0.3,0.1
	c0.5-0.6,1.5-2,2-2.8c0.5,0.6,1.5,2.2,2.3,3c0.9,0,1.5,0,1.5,0V9.4L16.3,9.4z M14,12.2c-0.6,0-1-0.4-1-1c0-0.6,0.5-1,1-1
	c0.6,0,1,0.5,1,1C15,11.8,14.6,12.2,14,12.2L14,12.2z"/>
</svg>
