<?xml version="1.0" encoding="utf-8"?>
<!-- Generator: Adobe Illustrator 25.2.0, SVG Export Plug-In . SVG Version: 6.00 Build 0)  -->
<svg version="1.1" id="Layer_1" xmlns="http://www.w3.org/2000/svg" xmlns:xlink="http://www.w3.org/1999/xlink" x="0px" y="0px"
	 viewBox="0 0 23.5 23.5" style="enable-background:new 0 0 23.5 23.5;" xml:space="preserve">
<style type="text/css">
	.st0{fill:#2C7BE5;}
	.st1{fill:#FFFFFF;}
	.st2{fill-rule:evenodd;clip-rule:evenodd;fill:#2C7BE5;}
	.st3{fill:none;}
</style>
<path class="st2" d="M19.7,10.3c-0.9,1.1-2.5,3-2.5,3s-1.6-1.6-2.6-2.6c-0.5-0.5-0.6-0.8,0.3-0.8c0.6-0.1,1.3-0.1,1.3-0.1
	s-1.1-2-3.1-3c-2-1-2.9-0.9-4.2-0.4c-1.3,0.5-1.3,1.3-1.7,1C6.9,7,7.4,6.2,7.7,5.9c0.3-0.3,1.7-1.6,5-0.9C17.1,5.9,18,9.6,18,9.6
	s0.7,0,1.4,0C20,9.6,20.1,9.8,19.7,10.3L19.7,10.3z M7.9,11.9c-0.6,0-1.3,0.1-1.3,0.1s1.1,2,3.1,3c2,1,2.9,0.9,4.1,0.4
	c1.3-0.5,1.3-1.3,1.7-0.9c0.4,0.4-0.1,1.1-0.4,1.4c-0.3,0.3-1.7,1.6-5,0.9c-4.3-0.9-5.2-4.6-5.2-4.6s-0.7,0-1.3,0
	c-0.6,0-0.7-0.2-0.3-0.7c0.9-1,2.5-3,2.5-3s1.6,1.6,2.6,2.6C8.6,11.5,8.8,11.9,7.9,11.9L7.9,11.9z"/>
</svg>
