<?xml version="1.0" encoding="utf-8"?>
<!-- Generator: Adobe Illustrator 25.2.0, SVG Export Plug-In . SVG Version: 6.00 Build 0)  -->
<svg version="1.1" id="Layer_1" xmlns="http://www.w3.org/2000/svg" xmlns:xlink="http://www.w3.org/1999/xlink" x="0px" y="0px"
	 viewBox="0 0 23.5 23.5" style="enable-background:new 0 0 23.5 23.5;" xml:space="preserve">
<style type="text/css">
	.st0{fill:#2C7BE5;}
	.st1{fill:#FFFFFF;}
	.st2{fill-rule:evenodd;clip-rule:evenodd;fill:#2C7BE5;}
	.st3{fill:none;}
</style>
<g>
	<path class="st0" d="M11.7,13.4c-1,0.9-5,1.5-5.2,1.3c-0.2-0.3,0.3-4,1.3-5c1-0.9,2.7-0.9,3.7,0.1C12.6,10.9,12.7,12.5,11.7,13.4
		L11.7,13.4z M9.4,10.7c-0.7,0-1.3,0.5-1.3,1.2s0.6,1.2,1.3,1.2s1.3-0.5,1.3-1.2S10.1,10.7,9.4,10.7L9.4,10.7z M13.6,10.3
		c-0.1-0.8,0-0.8-0.7-1.5c-0.7-0.6-0.8-0.7-1.6-0.8l3.7-2.9l1.6,1.6L13.6,10.3L13.6,10.3z M12.2,17c1.4-1,2.4-2.2,3.8-2.2
		c2.3,0,3.6,3.4,3.6,3.4L12.2,17L12.2,17z M5.3,15.9l6.9,1.1c-0.9,0.6-1.9,1.2-3.3,1.2C5.3,18.2,5.3,15.9,5.3,15.9L5.3,15.9z"/>
</g>
</svg>
