<?xml version="1.0" encoding="utf-8"?>
<!-- Generator: Adobe Illustrator 25.2.0, SVG Export Plug-In . SVG Version: 6.00 Build 0)  -->
<svg version="1.1" id="Layer_1" xmlns="http://www.w3.org/2000/svg" xmlns:xlink="http://www.w3.org/1999/xlink" x="0px" y="0px"
	 viewBox="0 0 23.5 23.5" style="enable-background:new 0 0 23.5 23.5;" xml:space="preserve">
<style type="text/css">
	.st0{fill:#2C7BE5;}
	.st1{fill:#FFFFFF;}
	.st2{fill-rule:evenodd;clip-rule:evenodd;fill:#2C7BE5;}
	.st3{fill:none;}
</style>
<g>
	<path class="st2" d="M4.6,14.2H3.4v1.2h1.2V14.2L4.6,14.2z M5.7,15.4H4.6v2.4h1.2V15.4L5.7,15.4z M6.9,17.8H5.7V19h1.2V17.8
		L6.9,17.8z M8.1,19H6.9v1.2h1.2V19L8.1,19z M9.3,20.2H8.1v1.2h1.2V20.2L9.3,20.2z M18.8,21.3H9.3v1.2h9.5V21.3L18.8,21.3z M18.8,19
		v2.4H20V19H18.8L18.8,19z M20,10.7V19h1.2v-8.3H20L20,10.7z M18.8,10.7H20V9.5h-2.4v1.2v1.2h1.2V10.7L18.8,10.7z M15.2,9.5h2.4V8.3
		h-2.4V9.5L15.2,9.5z M15.2,11.8V9.5H14v2.4H15.2L15.2,11.8z M11.7,9.5H14V8.3h-2.4V4.7h-1.2v7.1h1.2V9.5L11.7,9.5z M8.1,4.7h2.4
		V3.5H8.1V4.7L8.1,4.7z M8.1,14.2V4.7H6.9v7.1H5.7V13h1.2v1.2H8.1L8.1,14.2z M3.4,10.7v1.2h2.4v-1.2H3.4L3.4,10.7z M2.2,14.2h1.2
		v-2.4H2.2V14.2L2.2,14.2z"/>
</g>
</svg>
