<?xml version="1.0" encoding="utf-8"?>
<!-- Generator: Adobe Illustrator 25.2.0, SVG Export Plug-In . SVG Version: 6.00 Build 0)  -->
<svg version="1.1" id="Layer_1" xmlns="http://www.w3.org/2000/svg" xmlns:xlink="http://www.w3.org/1999/xlink" x="0px" y="0px"
	 viewBox="0 0 23.5 23.5" style="enable-background:new 0 0 23.5 23.5;" xml:space="preserve">
<style type="text/css">
	.st0{fill:#2C7BE5;}
	.st1{fill:#FFFFFF;}
	.st2{fill-rule:evenodd;clip-rule:evenodd;fill:#2C7BE5;}
	.st3{fill:none;}
</style>
<g>
	<path class="st0" d="M6.2,12.7c0,0,0.1,0,0.1-0.7c0,0-0.3-0.6-0.3-0.8c0-0.1-0.2-0.1-0.3-0.2c-0.3-0.3-0.6-1-0.2-1.2l0.1,0l0.1,0
		l0-0.1c0,0-0.6-2.8,2.1-2.3c0,0,1.3-0.2,1.4,0.9c0.1,1.1-0.1,1.6-0.1,1.6s0.4-0.1,0.4,0.3c0,0.4-0.3,1-0.7,1.1c0,0-0.1,0.4-0.4,0.7
		c-0.1,0.2-0.1,0.6-0.1,0.7c0,0,0.3,0.1,0.7,0.2c0.4,0.1,0.8,0.1,1.2,0.1c0.5,0.1,0.8,0.2,1,0.4V7.1H3.8v6.1C4.3,13,5,12.8,6.2,12.7
		z"/>
	<path class="st0" d="M21.6,4.8H2.5C2.3,4.8,2.1,5,2.1,5.2v10.9c0,0.2,0.2,0.4,0.4,0.4h19.1c0.2,0,0.4-0.2,0.4-0.4V5.2
		C22,5,21.8,4.8,21.6,4.8z M11.7,15H3.3V6.5h8.5V15z M20.9,13.7H13v-1h7.9V13.7z M20.9,11.2H13v-1h7.9V11.2z M20.9,8.7H13v-1h7.9
		V8.7z"/>
</g>
</svg>
