<?xml version="1.0" encoding="utf-8"?>
<!-- Generator: Adobe Illustrator 25.2.0, SVG Export Plug-In . SVG Version: 6.00 Build 0)  -->
<svg version="1.1" id="Layer_1" xmlns="http://www.w3.org/2000/svg" xmlns:xlink="http://www.w3.org/1999/xlink" x="0px" y="0px"
	 viewBox="0 0 23.5 23.5" style="enable-background:new 0 0 23.5 23.5;" xml:space="preserve">
<style type="text/css">
	.st0{fill:#2C7BE5;}
	.st1{fill:#FFFFFF;}
	.st2{fill-rule:evenodd;clip-rule:evenodd;fill:#2C7BE5;}
	.st3{fill:none;}
</style>
<path class="st2" d="M20.3,10.8h-2.1c-0.2,0-0.3-0.1-0.3-0.3c0-0.2,0.1-0.3,0.3-0.3h2.1c0.2,0,0.3,0.1,0.3,0.3
	C20.6,10.7,20.4,10.8,20.3,10.8L20.3,10.8z M17.6,7c-0.1,0.1-0.3,0.1-0.4,0c-0.1-0.1-0.1-0.3,0-0.4l1.5-1.5c0.1-0.1,0.3-0.1,0.4,0
	c0.1,0.1,0.1,0.3,0,0.4L17.6,7L17.6,7z M18.2,15.3c-0.1,0.1-0.3,0.1-0.4,0l-1.5-1.5c-0.1-0.1-0.1-0.3,0-0.4c0.1-0.1,0.3-0.1,0.4,0
	l1.5,1.5C18.4,15,18.4,15.2,18.2,15.3L18.2,15.3z M12.9,12.4l-1.2-1.2L14,8.8c0.3-0.3,0.7-0.3,1,0l0.2,0.3c0.3,0.3,0.3,0.7,0,1
	L12.9,12.4L12.9,12.4z M13.6,6.3c-0.2,0-0.3-0.1-0.3-0.3V3.9c0-0.2,0.1-0.3,0.3-0.3c0.2,0,0.3,0.1,0.3,0.3L14,6
	C14,6.1,13.8,6.3,13.6,6.3L13.6,6.3z M5,20.4c-0.3,0.3-0.7,0.3-1,0l-0.2-0.3c-0.3-0.3-0.3-0.7,0-1l7.5-7.6l1.2,1.2L5,20.4L5,20.4z
	 M10.2,8.2L8.7,6.8c-0.1-0.1-0.1-0.3,0-0.4c0.1-0.1,0.3-0.1,0.4,0l1.4,1.5c0.1,0.1,0.1,0.3,0,0.4C10.5,8.4,10.3,8.4,10.2,8.2
	L10.2,8.2z"/>
</svg>
