<?xml version="1.0" encoding="utf-8"?>
<!-- Generator: Adobe Illustrator 25.2.0, SVG Export Plug-In . SVG Version: 6.00 Build 0)  -->
<svg version="1.1" id="Layer_1" xmlns="http://www.w3.org/2000/svg" xmlns:xlink="http://www.w3.org/1999/xlink" x="0px" y="0px"
	 viewBox="0 0 23.5 23.5" style="enable-background:new 0 0 23.5 23.5;" xml:space="preserve">
<style type="text/css">
	.st0{fill:#2C7BE5;}
	.st1{fill:#FFFFFF;}
	.st2{fill-rule:evenodd;clip-rule:evenodd;fill:#2C7BE5;}
	.st3{fill:none;}
</style>
<g>
	<path class="st0" d="M18,21.9H6.6c-1.9,0-3.4-1.5-3.4-3.4V7c0-1.9,1.5-3.4,3.4-3.4H18c1.9,0,3.4,1.5,3.4,3.4v11.5
		C21.5,20.4,19.9,21.9,18,21.9L18,21.9z M19.2,7c0-0.6-0.5-1.1-1.1-1.1H6.6C5.9,5.9,5.4,6.4,5.4,7v11.5c0,0.6,0.5,1.2,1.1,1.2H18
		c0.6,0,1.1-0.5,1.1-1.2V7L19.2,7z M13.4,13.9v3.4h-2.3v-3.4H7.7v-2.3h3.4V8.2h2.3v3.4h3.4v2.3H13.4L13.4,13.9z"/>
</g>
</svg>
