<?xml version="1.0" encoding="utf-8"?>
<!-- Generator: Adobe Illustrator 25.2.0, SVG Export Plug-In . SVG Version: 6.00 Build 0)  -->
<svg version="1.1" id="Layer_1" xmlns="http://www.w3.org/2000/svg" xmlns:xlink="http://www.w3.org/1999/xlink" x="0px" y="0px"
	 viewBox="0 0 23.5 23.5" style="enable-background:new 0 0 23.5 23.5;" xml:space="preserve">
<style type="text/css">
	.st0{fill:#2C7BE5;}
	.st1{fill:#FFFFFF;}
	.st2{fill-rule:evenodd;clip-rule:evenodd;fill:#2C7BE5;}
	.st3{fill:none;}
</style>
<path class="st2" d="M20.3,6.6c0,0-1.5,7.2-1.5,9.5c0,2.3,0,2.4-0.1,3.7c-0.1,1-0.3,1.2-1.2,1c-2.7-0.5-9.4-1.7-11.6-2
	c-0.6-0.1-0.8-0.2-1-0.7c-1.2-2.5-2.3-6.7-1-6.6c1.4,0,0.4,0.8,4.7,1c4.2,0.2,4.7-1.6,7.4-0.2c0.5,0.3,0.9,0.6,1.2,1
	c0.4,0.3,0.7,0,0.4-0.4c-0.4-0.6-1-0.9-1.7-1.2c-2.4-1-2.8-0.1-5.6,0.3c-2.8,0.4-4.6-0.3-4.6-0.3s0.1-0.4,0.4-2.9
	c0.3-2.4,2-2.1,5-2.1c3-0.1,2.6-0.5,3.3-1.2C15,4.7,16,4.8,16.7,4.8c0.6,0,0.7,0.2,0.7,0.2s0.4,0,1.6,0C20.7,4.9,20.3,6.6,20.3,6.6
	L20.3,6.6z"/>
</svg>
