<?xml version="1.0" encoding="utf-8"?>
<!-- Generator: Adobe Illustrator 25.2.0, SVG Export Plug-In . SVG Version: 6.00 Build 0)  -->
<svg version="1.1" id="Layer_1" xmlns="http://www.w3.org/2000/svg" xmlns:xlink="http://www.w3.org/1999/xlink" x="0px" y="0px"
	 viewBox="0 0 23.5 23.5" style="enable-background:new 0 0 23.5 23.5;" xml:space="preserve">
<style type="text/css">
	.st0{fill:#2C7BE5;}
	.st1{fill:#FFFFFF;}
	.st2{fill-rule:evenodd;clip-rule:evenodd;fill:#2C7BE5;}
	.st3{fill:none;}
</style>
<g>
	<path class="st2" d="M19.4,17.5H3.6c-0.4,0-0.6-0.3-0.6-0.6V6.7C3,6.3,3.3,6,3.6,6h1.5c0,0,0,0,0,0c0-0.2,0.2-0.4,0.4-0.4h1.5
		c0.2,0,0.4,0.2,0.4,0.4c0,0,0,0,0,0h2.5C10,5.5,10.5,4.5,11,4.5c0.6,0,4.4,0,4.9,0c0.4,0,0.9,1,1.2,1.5h2.3C19.7,6,20,6.3,20,6.7
		v10.2C20,17.2,19.7,17.5,19.4,17.5L19.4,17.5z M7.8,8.8c0-0.4-0.3-0.6-0.6-0.6H5.3c-0.4,0-0.6,0.3-0.6,0.6v0.1
		c0,0.4,0.3,0.6,0.6,0.6h1.9c0.4,0,0.6-0.3,0.6-0.6V8.8L7.8,8.8z M13.4,8.2c-2.1,0-3.7,1.7-3.7,3.7c0,2.1,1.7,3.7,3.7,3.7
		c2.1,0,3.8-1.7,3.8-3.7C17.1,9.8,15.5,8.2,13.4,8.2L13.4,8.2z M13.4,14.8c-1.6,0-2.9-1.3-2.9-2.9c0-1.6,1.3-2.9,2.9-2.9
		c1.6,0,2.9,1.3,2.9,2.9C16.3,13.5,15,14.8,13.4,14.8L13.4,14.8z"/>
</g>
</svg>
