<?xml version="1.0" encoding="utf-8"?>
<!-- Generator: Adobe Illustrator 25.2.0, SVG Export Plug-In . SVG Version: 6.00 Build 0)  -->
<svg version="1.1" id="Layer_1" xmlns="http://www.w3.org/2000/svg" xmlns:xlink="http://www.w3.org/1999/xlink" x="0px" y="0px"
	 viewBox="0 0 23.5 23.5" style="enable-background:new 0 0 23.5 23.5;" xml:space="preserve">
<style type="text/css">
	.st0{fill:#2C7BE5;}
	.st1{fill:#FFFFFF;}
	.st2{fill-rule:evenodd;clip-rule:evenodd;fill:#2C7BE5;}
	.st3{fill:none;}
</style>
<g>
	<path class="st0" d="M7.3,19.9c0,0.7-0.5,1.3-1.2,1.3l0,0c-0.7,0-1.2-0.6-1.2-1.3v-16c0-0.7,0.5-1.3,1.2-1.3l0,0
		c0.7,0,1.2,0.6,1.2,1.3V19.9z"/>
	<path class="st0" d="M8.5,4.4l0.1,2.4c0,0,3.3,0.4,4.9,2.9c0,0-4-1.4-4.9-0.4v5c0,0,1.2-1.7,3.9-1.4c2.7,0.3,5.7,1.5,7.2,0.3
		c0,0-2-1.5-2.5-3c0,0-2.4-5.4-6.2-6L8.5,4.4z"/>
</g>
</svg>
