<?xml version="1.0" encoding="utf-8"?>
<!-- Generator: Adobe Illustrator 25.2.0, SVG Export Plug-In . SVG Version: 6.00 Build 0)  -->
<svg version="1.1" id="Layer_1" xmlns="http://www.w3.org/2000/svg" xmlns:xlink="http://www.w3.org/1999/xlink" x="0px" y="0px"
	 viewBox="0 0 23.5 23.5" style="enable-background:new 0 0 23.5 23.5;" xml:space="preserve">
<style type="text/css">
	.st0{fill:#2C7BE5;}
	.st1{fill:#FFFFFF;}
	.st2{fill-rule:evenodd;clip-rule:evenodd;fill:#2C7BE5;}
	.st3{fill:none;}
</style>
<g>
	<path class="st2" d="M18.3,4.5H5C3.2,4.5,1.7,6,1.7,7.8v10c0,1.8,1.5,3.3,3.3,3.3h13.3c1.8,0,3.3-1.5,3.3-3.3v-10
		C21.6,6,20.2,4.5,18.3,4.5L18.3,4.5z M15.8,12.8c-0.5,0-0.8-0.4-0.8-0.8s0.4-0.8,0.8-0.8h1.7c0.5,0,0.8,0.4,0.8,0.8
		s-0.4,0.8-0.8,0.8H15.8L15.8,12.8z M5,7.8h13.3v1.7h-5c-0.9,0-1.7,2.4-1.7,3.3c0,0.9,0.7,1.7,1.7,1.7h5v3.3H5V7.8L5,7.8z"/>
</g>
</svg>
