<?xml version="1.0" encoding="utf-8"?>
<!-- Generator: Adobe Illustrator 25.2.0, SVG Export Plug-In . SVG Version: 6.00 Build 0)  -->
<svg version="1.1" id="Layer_1" xmlns="http://www.w3.org/2000/svg" xmlns:xlink="http://www.w3.org/1999/xlink" x="0px" y="0px"
	 viewBox="0 0 23.5 23.5" style="enable-background:new 0 0 23.5 23.5;" xml:space="preserve">
<style type="text/css">
	.st0{fill:#2C7BE5;}
	.st1{fill:#FFFFFF;}
	.st2{fill-rule:evenodd;clip-rule:evenodd;fill:#2C7BE5;}
	.st3{fill:none;}
</style>
<g>
	<path class="st2" d="M17.2,17.5c-3.2,3.2-8.3,3.2-11.5,0C2.6,14.3,2.6,9.2,5.8,6c3.2-3.2,8.3-3.2,11.5,0
		C20.4,9.2,20.4,14.3,17.2,17.5L17.2,17.5z M5.4,12.7c0,0.6,0.5,1,1,1c0.6,0,1-0.5,1-1c0-0.6-0.5-1-1-1C5.9,11.7,5.4,12.2,5.4,12.7
		L5.4,12.7z M7.4,7.7c-0.6,0-1,0.5-1,1c0,0.6,0.5,1,1,1c0.6,0,1-0.5,1-1C8.5,8.1,8,7.7,7.4,7.7L7.4,7.7z M11.5,5.6c-0.6,0-1,0.5-1,1
		c0,0.6,0.5,1,1,1c0.6,0,1-0.5,1-1C12.5,6.1,12.1,5.6,11.5,5.6L11.5,5.6z M12.4,14l0.1-0.1l-3.1-3.2l0.1,4.6c0,0.2-0.1,0.3-0.1,0.5
		c0,1.1,0.9,2,2,2c1.1,0,2-0.9,2-2C13.5,15,13.1,14.3,12.4,14L12.4,14z M15.6,7.7c-0.6,0-1,0.5-1,1c0,0.6,0.5,1,1,1c0.6,0,1-0.5,1-1
		C16.6,8.1,16.1,7.7,15.6,7.7L15.6,7.7z M16.6,11.7c-0.6,0-1,0.5-1,1c0,0.6,0.5,1,1,1c0.6,0,1-0.5,1-1
		C17.6,12.2,17.1,11.7,16.6,11.7L16.6,11.7z"/>
</g>
</svg>
