<?xml version="1.0" encoding="utf-8"?>
<!-- Generator: Adobe Illustrator 25.2.0, SVG Export Plug-In . SVG Version: 6.00 Build 0)  -->
<svg version="1.1" id="Layer_1" xmlns="http://www.w3.org/2000/svg" xmlns:xlink="http://www.w3.org/1999/xlink" x="0px" y="0px"
	 viewBox="0 0 23.5 23.5" style="enable-background:new 0 0 23.5 23.5;" xml:space="preserve">
<style type="text/css">
	.st0{fill:#2C7BE5;}
	.st1{fill:#FFFFFF;}
	.st2{fill-rule:evenodd;clip-rule:evenodd;fill:#2C7BE5;}
	.st3{fill:none;}
</style>
<g>
	<path class="st2" d="M20.4,12.6l-0.2,0.2l0,0l-4.9,4.9c-0.4,0.4-1.1,0.4-1.5,0l-0.2-0.2c-0.4-0.4-0.4-1.1,0-1.5l4.1-4.1l-4.1-4.1
		c-0.4-0.4-0.4-1.1,0-1.5l0.2-0.2c0.4-0.4,1.1-0.4,1.5,0l4.9,4.8l0,0l0.2,0.2C20.8,11.5,20.8,12.2,20.4,12.6L20.4,12.6z M10.7,17.5
		l-0.2,0.2c-0.4,0.4-1.1,0.4-1.5,0l-4.9-4.8l0,0l-0.2-0.2c-0.4-0.4-0.4-1.1,0-1.5L4.1,11l0,0L9,6.1c0.4-0.4,1.1-0.4,1.5,0l0.2,0.2
		c0.4,0.4,0.4,1.1,0,1.5l-4.1,4.1l4.1,4.1C11.1,16.4,11.1,17.1,10.7,17.5L10.7,17.5z"/>
</g>
</svg>
