<?xml version="1.0" encoding="utf-8"?>
<!-- Generator: Adobe Illustrator 25.2.0, SVG Export Plug-In . SVG Version: 6.00 Build 0)  -->
<svg version="1.1" id="Layer_1" xmlns="http://www.w3.org/2000/svg" xmlns:xlink="http://www.w3.org/1999/xlink" x="0px" y="0px"
	 viewBox="0 0 23.5 23.5" style="enable-background:new 0 0 23.5 23.5;" xml:space="preserve">
<style type="text/css">
	.st0{fill:#2C7BE5;}
	.st1{fill:#FFFFFF;}
	.st2{fill-rule:evenodd;clip-rule:evenodd;fill:#2C7BE5;}
	.st3{fill:none;}
</style>
<g>
	<path class="st0" d="M11.7,21.6c0,0-6.5-9.4-6.5-12.8c0-3.4,2.9-6.2,6.5-6.2c3.6,0,6.5,2.8,6.5,6.2C18.2,12.2,11.7,21.6,11.7,21.6
		L11.7,21.6z M11.7,5c-2.2,0-4.2,1.9-4.2,4c0,2.1,2,4.3,4.1,4.3c2.2,0,4.2-2.2,4.2-4.3C15.8,6.8,13.9,5,11.7,5L11.7,5z M11.1,9.7
		V8.5h1.2v1.2H11.1L11.1,9.7z"/>
</g>
</svg>
