<?xml version="1.0" encoding="utf-8"?>
<!-- Generator: Adobe Illustrator 25.2.0, SVG Export Plug-In . SVG Version: 6.00 Build 0)  -->
<svg version="1.1" id="Layer_1" xmlns="http://www.w3.org/2000/svg" xmlns:xlink="http://www.w3.org/1999/xlink" x="0px" y="0px"
	 viewBox="0 0 23.5 23.5" style="enable-background:new 0 0 23.5 23.5;" xml:space="preserve">
<style type="text/css">
	.st0{fill:#2C7BE5;}
	.st1{fill:#FFFFFF;}
	.st2{fill-rule:evenodd;clip-rule:evenodd;fill:#2C7BE5;}
	.st3{fill:none;}
</style>
<g>
	<path class="st2" d="M12.2,16.7c-1,0-2-0.2-2.9-0.4l0.8-0.8c0.6,0.1,1.3,0.2,2,0.2c4.5,0,7.4-2.6,7.4-3.7c0-0.6-0.7-1.9-3.1-2.9
		l0.8-0.8c2.2,1.3,3.5,3.1,3.5,3.8C20.8,13.3,17.4,16.7,12.2,16.7L12.2,16.7z M12.9,15c-0.7,0-1.3-0.2-1.9-0.5l5.3-5.3
		c0.3,0.5,0.6,1.1,0.6,1.8C16.9,13.2,15.1,15,12.9,15L12.9,15z M6.6,18.4c-0.3,0.3-0.7,0.3-1,0L5.1,18c-0.3-0.3-0.2-0.7,0-1
		L17.2,4.8c0.3-0.3,0.7-0.3,1,0l0.5,0.5c0.3,0.3,0.2,0.7,0,1L6.6,18.4L6.6,18.4z M12,9.5c-0.8,0-1.4,0.6-1.4,1.4v0l-1.4,1.4
		C9,11.9,9,11.5,9,11.1c0-1.4,0.3-2.2,1.3-2.9C7,8.6,4.9,11.3,4.9,12c0,0.4,0.8,1.5,2.3,2.3L6.5,15c-1.7-1.1-2.7-2.4-2.7-3
		c0-1,3.3-5.2,8.4-5.2c0.8,0,1.5,0.1,2.2,0.3L12,9.5C12,9.5,12,9.5,12,9.5L12,9.5z"/>
</g>
</svg>
