<?xml version="1.0" encoding="utf-8"?>
<!-- Generator: Adobe Illustrator 25.2.0, SVG Export Plug-In . SVG Version: 6.00 Build 0)  -->
<svg version="1.1" id="Layer_1" xmlns="http://www.w3.org/2000/svg" xmlns:xlink="http://www.w3.org/1999/xlink" x="0px" y="0px"
	 viewBox="0 0 23.5 23.5" style="enable-background:new 0 0 23.5 23.5;" xml:space="preserve">
<style type="text/css">
	.st0{fill:#2C7BE5;}
	.st1{fill:#FFFFFF;}
	.st2{fill-rule:evenodd;clip-rule:evenodd;fill:#2C7BE5;}
	.st3{fill:none;}
</style>
<path class="st2" d="M3.8,14.5c0,0,1.1-1.6,1.8-1.8c0.7-0.2,2.6,0,2.6,0l3.5-3.5L4.5,5.9c0,0,1.6-2.2,2.3-2.3
	c0.7-0.1,8.3,2.1,8.3,2.1l3-3c0,0,1.2-0.5,2.2,0.4c1,1,0.3,2.1,0.3,2.1l-3,3c0,0,2.3,7.4,2.1,8.2c-0.2,0.8-2.3,2.3-2.3,2.3l-3.2-7.1
	l-3.5,3.6c0,0,0.2,1.5,0,2.2c-0.1,0.7-1.8,1.8-1.8,1.8l-1.2-3.5L3.8,14.5L3.8,14.5z"/>
</svg>
