<?xml version="1.0" encoding="utf-8"?>
<!-- Generator: Adobe Illustrator 25.2.0, SVG Export Plug-In . SVG Version: 6.00 Build 0)  -->
<svg version="1.1" id="Layer_1" xmlns="http://www.w3.org/2000/svg" xmlns:xlink="http://www.w3.org/1999/xlink" x="0px" y="0px"
	 viewBox="0 0 23.5 23.5" style="enable-background:new 0 0 23.5 23.5;" xml:space="preserve">
<style type="text/css">
	.st0{fill:#2C7BE5;}
	.st1{fill:#FFFFFF;}
	.st2{fill-rule:evenodd;clip-rule:evenodd;fill:#2C7BE5;}
	.st3{fill:none;}
</style>
<path class="st2" d="M19.6,12.3h-3.2c-0.3,0-0.6-0.3-0.6-0.6c0-0.3,0.3-0.6,0.6-0.6h3.2c0.3,0,0.6,0.3,0.6,0.6
	C20.2,12,19.9,12.3,19.6,12.3L19.6,12.3z M15.6,8.8C15.3,9,15,9,14.7,8.8c-0.2-0.2-0.2-0.6,0-0.8L17,5.7c0.2-0.2,0.6-0.2,0.8,0
	c0.2,0.2,0.2,0.6,0,0.8L15.6,8.8L15.6,8.8z M11.6,15.4c-2.1,0-3.8-1.7-3.8-3.8c0-2.1,1.7-3.8,3.8-3.8c2.1,0,3.8,1.7,3.8,3.8
	C15.4,13.7,13.7,15.4,11.6,15.4L11.6,15.4z M11.6,8.8c-1.5,0-2.8,1.2-2.8,2.8c0,1.5,1.3,2.8,2.8,2.8c1.5,0,2.8-1.2,2.8-2.8
	C14.4,10.1,13.2,8.8,11.6,8.8L11.6,8.8z M11.6,7.4c-0.3,0-0.6-0.3-0.6-0.6V3.7c0-0.3,0.3-0.6,0.6-0.6c0.3,0,0.6,0.3,0.6,0.6v3.2
	C12.1,7.2,11.9,7.4,11.6,7.4L11.6,7.4z M7.6,8.8L5.3,6.5c-0.2-0.2-0.2-0.6,0-0.8c0.2-0.2,0.6-0.2,0.8,0L8.4,8c0.2,0.2,0.2,0.6,0,0.8
	C8.2,9,7.8,9,7.6,8.8L7.6,8.8z M7.5,11.7c0,0.3-0.3,0.6-0.6,0.6H3.7c-0.3,0-0.6-0.3-0.6-0.6c0-0.3,0.3-0.6,0.6-0.6h3.2
	C7.2,11.1,7.5,11.4,7.5,11.7L7.5,11.7z M7.8,14.5c0.2-0.2,0.6-0.2,0.8,0c0.2,0.2,0.2,0.6,0,0.8l-2.3,2.3c-0.2,0.2-0.6,0.2-0.8,0
	c-0.2-0.2-0.2-0.6,0-0.8L7.8,14.5L7.8,14.5z M11.4,15.8c0.3,0,0.6,0.3,0.6,0.6v3.2c0,0.3-0.3,0.6-0.6,0.6c-0.3,0-0.6-0.3-0.6-0.6
	v-3.2C10.9,16.1,11.1,15.8,11.4,15.8L11.4,15.8z M15.6,14.4l2.3,2.3c0.2,0.2,0.2,0.6,0,0.8c-0.2,0.2-0.6,0.2-0.8,0l-2.3-2.3
	c-0.2-0.2-0.2-0.6,0-0.8C15,14.2,15.3,14.2,15.6,14.4L15.6,14.4z"/>
</svg>
