<?xml version="1.0" encoding="utf-8"?>
<!-- Generator: Adobe Illustrator 25.2.0, SVG Export Plug-In . SVG Version: 6.00 Build 0)  -->
<svg version="1.1" id="Layer_1" xmlns="http://www.w3.org/2000/svg" xmlns:xlink="http://www.w3.org/1999/xlink" x="0px" y="0px"
	 viewBox="0 0 23.5 23.5" style="enable-background:new 0 0 23.5 23.5;" xml:space="preserve">
<style type="text/css">
	.st0{fill:#2C7BE5;}
	.st1{fill:#FFFFFF;}
	.st2{fill-rule:evenodd;clip-rule:evenodd;fill:#2C7BE5;}
	.st3{fill:none;}
</style>
<g>
	<path class="st2" d="M4.2,12.8H2.9c0.2,1.7,0.9,3.3,1.9,4.6l0.9-0.9C4.9,15.5,4.4,14.2,4.2,12.8L4.2,12.8z M20.4,10.5h1.3
		c-0.2-1.7-0.9-3.3-1.9-4.6l-0.9,0.9C19.7,7.8,20.2,9.1,20.4,10.5L20.4,10.5z M4.8,5.8c-1,1.3-1.7,2.9-1.9,4.6h1.3
		c0.2-1.4,0.7-2.6,1.5-3.7L4.8,5.8L4.8,5.8z M11.1,2.2C9.4,2.4,7.8,3.1,6.5,4.1L7.4,5c1.1-0.8,2.3-1.3,3.7-1.5V2.2L11.1,2.2z
		 M18.1,4.1c-1.3-1-2.9-1.7-4.6-1.9v1.3c1.4,0.2,2.6,0.7,3.7,1.5L18.1,4.1L18.1,4.1z M19.8,17.4c1-1.3,1.7-2.9,1.9-4.6h-1.3
		c-0.2,1.4-0.7,2.6-1.5,3.7L19.8,17.4L19.8,17.4z M13.5,21.1c1.7-0.2,3.3-0.9,4.6-1.9l-0.9-0.9c-1.1,0.8-2.3,1.3-3.7,1.5V21.1
		L13.5,21.1z M6.5,19.2c1.3,1,2.9,1.7,4.6,1.9v-1.3c-1.4-0.2-2.6-0.7-3.7-1.5L6.5,19.2L6.5,19.2z"/>
</g>
</svg>
