<?xml version="1.0" encoding="utf-8"?>
<!-- Generator: Adobe Illustrator 25.2.0, SVG Export Plug-In . SVG Version: 6.00 Build 0)  -->
<svg version="1.1" id="Layer_1" xmlns="http://www.w3.org/2000/svg" xmlns:xlink="http://www.w3.org/1999/xlink" x="0px" y="0px"
	 viewBox="0 0 23.5 23.5" style="enable-background:new 0 0 23.5 23.5;" xml:space="preserve">
<style type="text/css">
	.st0{fill:#2C7BE5;}
	.st1{fill:#FFFFFF;}
	.st2{fill-rule:evenodd;clip-rule:evenodd;fill:#2C7BE5;}
	.st3{fill:none;}
</style>
<path class="st2" d="M20.3,14.5c0,0.6-0.5,1.1-1.1,1.1v1.2c0.6,0.2,1.1,0.8,1.1,1.5c0,0.9-0.7,1.6-1.6,1.6c-0.7,0-1.3-0.4-1.5-1.1
	H16c0,0.6-0.5,1.1-1.1,1.1c-0.6,0-1.1-0.5-1.1-1.1h-1.1c0,0.6-0.5,1.1-1.1,1.1c-0.6,0-1.1-0.5-1.1-1.1H9.7c0,0.6-0.5,1.1-1.1,1.1
	c-0.6,0-1.1-0.5-1.1-1.1H6.4c-0.2,0.6-0.8,1.1-1.5,1.1c-0.9,0-1.6-0.7-1.6-1.6c0-0.7,0.5-1.3,1.1-1.5v-1.2c-0.6,0-1.1-0.5-1.1-1.1
	c0-0.6,0.5-1.1,1.1-1.1v-1.1c-0.6,0-1.1-0.5-1.1-1.1c0-0.6,0.5-1.1,1.1-1.1V9.2c-0.6,0-1.1-0.5-1.1-1.1c0-0.6,0.5-1.1,1.1-1.1V5.9
	C3.7,5.7,3.3,5.1,3.3,4.4c0-0.9,0.7-1.6,1.6-1.6c0.7,0,1.3,0.4,1.5,1.1h1.2c0-0.6,0.5-1.1,1.1-1.1c0.6,0,1.1,0.5,1.1,1.1h1.1
	c0-0.6,0.5-1.1,1.1-1.1c0.6,0,1.1,0.5,1.1,1.1h1.1c0-0.6,0.5-1.1,1.1-1.1c0.6,0,1.1,0.5,1.1,1.1h1.2c0.2-0.6,0.8-1.1,1.5-1.1
	c0.9,0,1.6,0.7,1.6,1.6c0,0.7-0.4,1.3-1.1,1.5v1.2c0.6,0,1.1,0.5,1.1,1.1c0,0.6-0.5,1.1-1.1,1.1v1.1c0.6,0,1.1,0.5,1.1,1.1
	c0,0.6-0.5,1.1-1.1,1.1v1.1C19.8,13.5,20.3,13.9,20.3,14.5L20.3,14.5z M17.6,6.3c0-0.3-0.4-0.7-0.7-0.7H6.7C6.4,5.5,6,6,6,6.3v10.2
	c0,0.3,0.4,0.7,0.7,0.7h10.1c0.3,0,0.7-0.4,0.7-0.7V6.3L17.6,6.3z"/>
</svg>
