<?xml version="1.0" encoding="utf-8"?>
<!-- Generator: Adobe Illustrator 25.2.0, SVG Export Plug-In . SVG Version: 6.00 Build 0)  -->
<svg version="1.1" id="Layer_1" xmlns="http://www.w3.org/2000/svg" xmlns:xlink="http://www.w3.org/1999/xlink" x="0px" y="0px"
	 viewBox="0 0 23.5 23.5" style="enable-background:new 0 0 23.5 23.5;" xml:space="preserve">
<style type="text/css">
	.st0{fill:#2C7BE5;}
	.st1{fill:#FFFFFF;}
	.st2{fill-rule:evenodd;clip-rule:evenodd;fill:#2C7BE5;}
	.st3{fill:none;}
</style>
<path class="st2" d="M10.6,17.6c-0.6,0.6-1.2,1.2-1.5,1.4C9.1,19.1,9,19.2,9,19.2l0,0c0,0-0.1,0-0.1,0c-0.4,0-6-5.7-6-6.1
	c0-0.3,2.7-2.9,3.1-2.9c0.2,0,1.6,1.4,3,2.9c3.2-3.2,7.7-7.9,8-7.9c0.4,0,3,2.6,3,3C20,8.5,13.6,14.7,10.6,17.6L10.6,17.6z"/>
</svg>
