<?xml version="1.0" encoding="utf-8"?>
<!-- Generator: Adobe Illustrator 25.2.0, SVG Export Plug-In . SVG Version: 6.00 Build 0)  -->
<svg version="1.1" id="Layer_1" xmlns="http://www.w3.org/2000/svg" xmlns:xlink="http://www.w3.org/1999/xlink" x="0px" y="0px"
	 viewBox="0 0 23.5 23.5" style="enable-background:new 0 0 23.5 23.5;" xml:space="preserve">
<style type="text/css">
	.st0{fill:#2C7BE5;}
	.st1{fill:#FFFFFF;}
	.st2{fill-rule:evenodd;clip-rule:evenodd;fill:#2C7BE5;}
	.st3{fill:none;}
</style>
<path class="st0" d="M19.7,17.4c0,0.6-0.5,1.1-1.1,1.1H5.8c-0.6,0-1.1-0.5-1.1-1.1V4.7c0-0.6,0.5-1.1,1.1-1.1h12.8
	c0.6,0,1.1,0.5,1.1,1.1V17.4z M15.1,7l-2.2,2.2l1.1,1.1l2.2-2.2V10h1.2V5.9h-4.3V7L15.1,7z M9.1,15.2l2.2-2.2l-1.1-1.1l-2.2,2.2
	v-1.8H6.9v4.1h4.3v-1.1L9.1,15.2z"/>
</svg>
