<?xml version="1.0" encoding="utf-8"?>
<!-- Generator: Adobe Illustrator 25.2.0, SVG Export Plug-In . SVG Version: 6.00 Build 0)  -->
<svg version="1.1" id="Layer_1" xmlns="http://www.w3.org/2000/svg" xmlns:xlink="http://www.w3.org/1999/xlink" x="0px" y="0px"
	 viewBox="0 0 23.5 23.5" style="enable-background:new 0 0 23.5 23.5;" xml:space="preserve">
<style type="text/css">
	.st0{fill:#2C7BE5;}
	.st1{fill:#FFFFFF;}
	.st2{fill-rule:evenodd;clip-rule:evenodd;fill:#2C7BE5;}
	.st3{fill:none;}
</style>
<g>
	<path class="st0" d="M17.3,22.4H5.8c-1.9,0-3.4-1.5-3.4-3.4V7.4C2.4,5.5,3.9,4,5.8,4h8l-2.3,2.3H5.8c-0.6,0-1.2,0.5-1.2,1.1v11.5
		c0,0.6,0.5,1.1,1.2,1.1h11.5c0.6,0,1.1-0.5,1.1-1.1v-5.7l2.3-2.3v8C20.7,20.8,19.2,22.4,17.3,22.4L17.3,22.4z M20.7,5.6L13,13.3
		c-0.4,0.4-1.1,0.4-1.5,0c-0.4-0.4-0.4-1.1,0-1.5L19.2,4c0.4-0.4,1.1-0.4,1.5,0C21.2,4.4,21.2,5.1,20.7,5.6L20.7,5.6z M9.3,15.5
		v-2.3l2.3,2.3H9.3L9.3,15.5z"/>
</g>
</svg>
