<?xml version="1.0" encoding="utf-8"?>
<!-- Generator: Adobe Illustrator 25.2.0, SVG Export Plug-In . SVG Version: 6.00 Build 0)  -->
<svg version="1.1" id="Layer_1" xmlns="http://www.w3.org/2000/svg" xmlns:xlink="http://www.w3.org/1999/xlink" x="0px" y="0px"
	 viewBox="0 0 23.5 23.5" style="enable-background:new 0 0 23.5 23.5;" xml:space="preserve">
<style type="text/css">
	.st0{fill:#2C7BE5;}
	.st1{fill:#FFFFFF;}
	.st2{fill-rule:evenodd;clip-rule:evenodd;fill:#2C7BE5;}
	.st3{fill:none;}
</style>
<g>
	<path class="st2" d="M19.6,15.1c0-0.1,0-0.3,0-0.4c0-1.2-1-2.2-2.3-2.2c-0.8,0-1.5,0.1-1.9,0.5v0.3h-0.2c-0.1,0.2-0.2,0.4-0.2,0.8
		c0,0.1,0,0.3,0,0.4H8.7c0-0.1,0-0.3,0-0.4c0-0.3-0.1-0.6-0.2-0.8H8.3v-0.3c-0.4-0.4-1.1-0.5-1.9-0.5c-1.2,0-2.3,0.7-2.3,1.9l0,0.3
		c-1-0.4-1.7-2.2-1.7-3.2c0-0.9,0.9-1.7,1.8-1.7h1.2l3.3-3.6h2.7h0.9h1.9l3.7,3.6h1.2c1.1,0,2.3,1.1,2.3,2.2
		C21.4,12.9,20.5,14.9,19.6,15.1L19.6,15.1z M10.7,7.4H9.6L7.4,9.8h1h2.4V7.4L10.7,7.4z M10.7,10.9v1.2H9.5v-1.2H8.3v1.2h1.2v1.2
		h1.2v-1.2h1.2v1.2h1.2v-1.2h1.2v-1.2h-1.2v1.2h-1.2v-1.2H10.7L10.7,10.9z M13,7.4h-1.1v2.4h3.6h0.1L13,7.4L13,7.4z M6.6,13.8
		c0.7,0,1.4,0.6,1.4,1.3c0,0.7-0.6,1.3-1.4,1.3c-0.8,0-1.4-0.6-1.4-1.3C5.2,14.4,5.8,13.8,6.6,13.8L6.6,13.8z M17.2,13.8
		c0.8,0,1.4,0.6,1.4,1.3c0,0.7-0.6,1.3-1.4,1.3c-0.8,0-1.4-0.6-1.4-1.3C15.9,14.3,16.5,13.8,17.2,13.8L17.2,13.8z"/>
</g>
</svg>
