<?xml version="1.0" encoding="utf-8"?>
<!-- Generator: Adobe Illustrator 25.2.0, SVG Export Plug-In . SVG Version: 6.00 Build 0)  -->
<svg version="1.1" id="Layer_1" xmlns="http://www.w3.org/2000/svg" xmlns:xlink="http://www.w3.org/1999/xlink" x="0px" y="0px"
	 viewBox="0 0 23.5 23.5" style="enable-background:new 0 0 23.5 23.5;" xml:space="preserve">
<style type="text/css">
	.st0{fill:#2C7BE5;}
	.st1{fill:#FFFFFF;}
	.st2{fill-rule:evenodd;clip-rule:evenodd;fill:#2C7BE5;}
	.st3{fill:none;}
</style>
<g>
	<path class="st2" d="M18.4,19.7c-0.9-0.5-2.4-1.5-4-2.4c0,0.7,0,1.3,0,1.7c0,1-0.6,1.3-1.4,0.7c-2.1-1.3-8-4.8-9.8-6
		c-0.6-0.4-0.6-1.1-0.1-1.4c1.9-1.2,7.9-4.8,9.8-6c0.8-0.5,1.5-0.4,1.5,0.8c0,0.4,0,0.9,0,1.6c1.6-1,3.1-1.9,3.9-2.4
		c0.8-0.5,1.5-0.4,1.5,0.8c0,2.2,0,9.4,0,11.9C19.8,20,19.2,20.3,18.4,19.7L18.4,19.7z"/>
</g>
</svg>
