<?xml version="1.0" encoding="utf-8"?>
<!-- Generator: Adobe Illustrator 25.2.0, SVG Export Plug-In . SVG Version: 6.00 Build 0)  -->
<svg version="1.1" id="Layer_1" xmlns="http://www.w3.org/2000/svg" xmlns:xlink="http://www.w3.org/1999/xlink" x="0px" y="0px"
	 viewBox="0 0 23.5 23.5" style="enable-background:new 0 0 23.5 23.5;" xml:space="preserve">
<style type="text/css">
	.st0{fill:#2C7BE5;}
	.st1{fill:#FFFFFF;}
	.st2{fill-rule:evenodd;clip-rule:evenodd;fill:#2C7BE5;}
	.st3{fill:none;}
</style>
<g>
	<path class="st0" d="M15.1,8.7H4.5c0-0.5-0.3-0.8-0.7-0.8V7.2c0.4,0,0.7-0.4,0.7-0.8h10.6c0,0.5,0.3,0.8,0.7,0.8v0.7
		C15.4,7.9,15.1,8.2,15.1,8.7L15.1,8.7z M20.4,8.7h-2.1c0-0.5-0.1-0.8-0.1-0.8V7.2c0.1,0,0.1-0.4,0.1-0.8h2.1c0,0.5,0.1,0.8,0.1,0.8
		v0.7C20.4,7.9,20.4,8.2,20.4,8.7L20.4,8.7z M15.1,13.5H4.5c0-0.5-0.3-0.8-0.7-0.8v-0.7c0.4,0,0.7-0.4,0.7-0.8h10.6
		c0,0.5,0.3,0.8,0.7,0.8v0.7C15.4,12.6,15.1,13,15.1,13.5L15.1,13.5z M20.4,13.5h-2.1c0-0.5-0.1-0.8-0.1-0.8v-0.7
		c0.1,0,0.1-0.4,0.1-0.8h2.1c0,0.5,0.1,0.8,0.1,0.8v0.7C20.4,12.6,20.4,13,20.4,13.5L20.4,13.5z M15.1,18.2H4.5
		c0-0.5-0.3-0.8-0.7-0.8v-0.7c0.4,0,0.7-0.4,0.7-0.8h10.6c0,0.5,0.3,0.8,0.7,0.8v0.7C15.4,17.4,15.1,17.7,15.1,18.2L15.1,18.2z
		 M20.4,18.2h-2.1c0-0.5-0.1-0.8-0.1-0.8v-0.7c0.1,0,0.1-0.4,0.1-0.8h2.1c0,0.5,0.1,0.8,0.1,0.8v0.7C20.4,17.4,20.4,17.7,20.4,18.2
		L20.4,18.2z"/>
</g>
</svg>
