<?xml version="1.0" encoding="utf-8"?>
<!-- Generator: Adobe Illustrator 25.2.0, SVG Export Plug-In . SVG Version: 6.00 Build 0)  -->
<svg version="1.1" id="Layer_1" xmlns="http://www.w3.org/2000/svg" xmlns:xlink="http://www.w3.org/1999/xlink" x="0px" y="0px"
	 viewBox="0 0 23.5 23.5" style="enable-background:new 0 0 23.5 23.5;" xml:space="preserve">
<style type="text/css">
	.st0{fill:#2C7BE5;}
	.st1{fill:#FFFFFF;}
	.st2{fill-rule:evenodd;clip-rule:evenodd;fill:#2C7BE5;}
	.st3{fill:none;}
</style>
<g>
	<path class="st2" d="M11.9,21.3c-4.7,0-8.5-3.8-8.5-8.5c0-4.7,3.8-8.5,8.5-8.5c4.7,0,8.5,3.8,8.5,8.5
		C20.4,17.4,16.6,21.3,11.9,21.3L11.9,21.3z M19.3,13.5c-1.2-0.5-4-0.3-5-0.1c0.4,1,1.1,4.2,1.1,5.9C15.4,19.3,19.1,17.4,19.3,13.5
		L19.3,13.5z M14.4,19.7c-0.1-3.3-0.7-4.8-1.1-6c-2.8,0.8-5.5,3-6.3,4.6C7,18.3,9.9,21.3,14.4,19.7L14.4,19.7z M6.2,17.6
		c1.6-2.5,4.4-4.1,6.7-4.8c0,0-0.2-0.7-0.6-1.3c-1.7,0.5-4.8,1.1-7.9,0.2C4.1,14.7,5.6,17,6.2,17.6L6.2,17.6z M8.7,6.1
		c0,0-3.5,1.4-3.9,4.6c0.6,0.2,3.9,1,7.2-0.2C10.2,7.3,8.7,6.1,8.7,6.1L8.7,6.1z M9.8,5.6c0,0,2.2,2.3,3.1,4.4
		c1.7-0.8,3.2-1.9,3.9-2.9C15.4,5.9,12.7,4.6,9.8,5.6L9.8,5.6z M17.6,7.9c-1.3,1.7-3.4,2.7-4.3,3.1c0,0,0.4,0.6,0.7,1.5
		c2.3-0.4,3.3-0.4,5.5-0.1C19.4,10.5,18.3,8.8,17.6,7.9L17.6,7.9z"/>
</g>
</svg>
