<?xml version="1.0" encoding="utf-8"?>
<!-- Generator: Adobe Illustrator 25.2.0, SVG Export Plug-In . SVG Version: 6.00 Build 0)  -->
<svg version="1.1" id="Layer_1" xmlns="http://www.w3.org/2000/svg" xmlns:xlink="http://www.w3.org/1999/xlink" x="0px" y="0px"
	 viewBox="0 0 23.5 23.5" style="enable-background:new 0 0 23.5 23.5;" xml:space="preserve">
<style type="text/css">
	.st0{fill:#2C7BE5;}
	.st1{fill:#FFFFFF;}
	.st2{fill-rule:evenodd;clip-rule:evenodd;fill:#2C7BE5;}
	.st3{fill:none;}
</style>
<g>
	<path class="st2" d="M11.8,7.8c0.5-0.2,2.5,0.2,2.6,0.1c-2.2-0.5-1.5-1.1-1.3-1.3c2.5-2.6,6.3-4.6,7-3.8c1.4,1.5-1.9,4.8-6.5,9.5
		C9,17,5.2,20.8,3.8,19.4C3.2,18.8,6,13.7,7,13.2c1-0.3,2.4-0.1,2.5-0.3c-2.2-0.3-1.9-0.5-1.7-1.1C8,11.2,9,10.3,9.4,10.2
		c0.4-0.1,2.5,0.1,2.6,0c-1.8-0.4-1.8-0.9-1.5-1.3C10.6,8.7,11.3,7.9,11.8,7.8L11.8,7.8z"/>
</g>
</svg>
