<?xml version="1.0" encoding="utf-8"?>
<!-- Generator: Adobe Illustrator 25.2.0, SVG Export Plug-In . SVG Version: 6.00 Build 0)  -->
<svg version="1.1" id="Layer_1" xmlns="http://www.w3.org/2000/svg" xmlns:xlink="http://www.w3.org/1999/xlink" x="0px" y="0px"
	 viewBox="0 0 23.5 23.5" style="enable-background:new 0 0 23.5 23.5;" xml:space="preserve">
<style type="text/css">
	.st0{fill:#2C7BE5;}
	.st1{fill:#FFFFFF;}
	.st2{fill-rule:evenodd;clip-rule:evenodd;fill:#2C7BE5;}
	.st3{fill:none;}
</style>
<path class="st2" d="M16.1,14.2c-1.1,0.9-0.3,2.1-0.3,2.1s-1.2-0.4-1.7-0.7c0.6-0.6,0.4-1.2,0.4-1.9c0-2-3.4-3.7-6-3.7
	c-1.1,0-1.7,0-1.7,0s-0.3-4,6.3-4.2c4,0,7.3,2,7.3,4.5C20.3,12.1,18.7,13.5,16.1,14.2L16.1,14.2z M13.1,14c0,1.6-2.1,3-4.8,3.1
	c-0.2,0.4-0.8,1-2.1,1c0.6-0.3,0.5-0.7,0.1-1.3c-1.8-0.5-3.1-1.6-3.1-2.8c0-1.7,2.2-3.1,5-3.1C10.9,10.9,13.1,12.3,13.1,14L13.1,14z
	"/>
</svg>
