<?xml version="1.0" encoding="utf-8"?>
<!-- Generator: Adobe Illustrator 25.2.0, SVG Export Plug-In . SVG Version: 6.00 Build 0)  -->
<svg version="1.1" id="Layer_1" xmlns="http://www.w3.org/2000/svg" xmlns:xlink="http://www.w3.org/1999/xlink" x="0px" y="0px"
	 viewBox="0 0 23.5 23.5" style="enable-background:new 0 0 23.5 23.5;" xml:space="preserve">
<style type="text/css">
	.st0{fill:#2C7BE5;}
	.st1{fill:#FFFFFF;}
	.st2{fill-rule:evenodd;clip-rule:evenodd;fill:#2C7BE5;}
	.st3{fill:none;}
</style>
<path class="st0" d="M12.4,21.2c0,0-6.5-9.4-6.5-12.8c0-3.4,2.9-6.2,6.5-6.2c3.6,0,6.5,2.8,6.5,6.2C18.9,11.8,12.4,21.2,12.4,21.2
	L12.4,21.2z M12.4,4.6c-2.2,0-4.2,1.9-4.2,4c0,2.1,2,4.3,4.1,4.3c2.2,0,4.2-2.2,4.2-4.3C16.5,6.5,14.6,4.6,12.4,4.6L12.4,4.6z
	 M13,9.4v1.2h-1.2V9.4h-1.2V8.2h1.2V7H13v1.2h1.2v1.2H13L13,9.4z"/>
</svg>
