<?xml version="1.0" encoding="utf-8"?>
<!-- Generator: Adobe Illustrator 25.2.0, SVG Export Plug-In . SVG Version: 6.00 Build 0)  -->
<svg version="1.1" id="Layer_1" xmlns="http://www.w3.org/2000/svg" xmlns:xlink="http://www.w3.org/1999/xlink" x="0px" y="0px"
	 viewBox="0 0 23.5 23.5" style="enable-background:new 0 0 23.5 23.5;" xml:space="preserve">
<style type="text/css">
	.st0{fill:#2C7BE5;}
	.st1{fill:#FFFFFF;}
	.st2{fill-rule:evenodd;clip-rule:evenodd;fill:#2C7BE5;}
	.st3{fill:none;}
</style>
<path class="st2" d="M18.1,13.6c0,1.6-2.5,2.5-6.3,2.5c-3.8,0-6.3-0.9-6.3-2.5c0-0.9,1.8-1.7,1.8-4.1c0-3,1.5-5.1,3.7-5.6
	c0-0.1,0-0.1,0-0.2c0-1,0.4-1.5,0.9-1.5c0.5,0,0.9,0.5,0.9,1.5c0,0.1,0,0.1,0,0.2c2.2,0.6,3.7,2.6,3.7,5.6
	C16.4,11.9,18.1,12.7,18.1,13.6L18.1,13.6z M10.6,16.7c0.4,0,0.8,0.1,1.3,0.1c0.3,0,0.6,0,1,0c0.2,0.3,0.4,0.6,0.4,1
	c0,0.8-0.7,1.5-1.5,1.5c-0.8,0-1.5-0.7-1.5-1.5C10.2,17.4,10.3,17,10.6,16.7L10.6,16.7z"/>
</svg>
