<?xml version="1.0" encoding="utf-8"?>
<!-- Generator: Adobe Illustrator 25.2.0, SVG Export Plug-In . SVG Version: 6.00 Build 0)  -->
<svg version="1.1" id="Layer_1" xmlns="http://www.w3.org/2000/svg" xmlns:xlink="http://www.w3.org/1999/xlink" x="0px" y="0px"
	 viewBox="0 0 23.5 23.5" style="enable-background:new 0 0 23.5 23.5;" xml:space="preserve">
<style type="text/css">
	.st0{fill:#2C7BE5;}
	.st1{fill:#FFFFFF;}
	.st2{fill-rule:evenodd;clip-rule:evenodd;fill:#2C7BE5;}
	.st3{fill:none;}
</style>
<g>
	<path class="st2" d="M14.8,18c-1.5,2-4,1.6-5.3,1.6c-1.3,0-2.2-3.9-3.1-7.7C5.2,7.1,9.2,6.3,9.2,6.3l1.1,0.4l-1,2.4l2.4-1.7l0.7,1
		l0.5-0.8l3.1,1.3l-1.4-2.1l0.9,0c0,0,2.7,0.3,2.8,3.4C18.6,13.2,16.3,16,14.8,18L14.8,18z M13.2,15.9c-0.1-0.3-0.2-0.6-0.3-0.6
		c-0.1,0-0.1,0.3,0,0.7c0.1,0.3,0.2,0.6,0.3,0.6C13.3,16.5,13.3,16.2,13.2,15.9L13.2,15.9z M13.4,17.2c-0.1,0-0.2,0.2-0.3,0.5
		c-0.1,0.3-0.1,0.6,0,0.6c0.1,0,0.2-0.2,0.3-0.5C13.4,17.5,13.4,17.3,13.4,17.2L13.4,17.2z M14.2,16c-0.1,0-0.2,0.3-0.2,0.6
		c0,0.3,0.1,0.6,0.2,0.6c0.1,0,0.2-0.3,0.2-0.6C14.4,16.3,14.3,16,14.2,16L14.2,16z M15.6,8.4C14.2,7.8,13,7.2,13,7.2l-0.4,0.7
		L11.9,7l-2,1.4l0.7-1.9L9.5,6.2c0,0,1.4-0.6,2.3-0.9L11.5,3c0,0,0-0.4,0.5-0.4c0.5,0,0.5,0.4,0.5,0.4L13,5.1c0,0,1.8,0.9,2.5,1.4
		c-0.4,0-1.1,0.1-1.1,0.1S15.5,8.2,15.6,8.4L15.6,8.4z"/>
</g>
</svg>
