<?xml version="1.0" encoding="utf-8"?>
<!-- Generator: Adobe Illustrator 25.2.0, SVG Export Plug-In . SVG Version: 6.00 Build 0)  -->
<svg version="1.1" id="Layer_1" xmlns="http://www.w3.org/2000/svg" xmlns:xlink="http://www.w3.org/1999/xlink" x="0px" y="0px"
	 viewBox="0 0 23.5 23.5" style="enable-background:new 0 0 23.5 23.5;" xml:space="preserve">
<style type="text/css">
	.st0{fill:#2C7BE5;}
	.st1{fill:#FFFFFF;}
	.st2{fill-rule:evenodd;clip-rule:evenodd;fill:#2C7BE5;}
	.st3{fill:none;}
</style>
<g>
	<path class="st0" d="M7.5,17.3c0,0-4,1.1-5-2c-1-3.1,2.7-4,2.7-4S4.7,6.7,9.7,7.7c0,0,3-3,5.6,0.5c0,0,4.5-1.7,4.6,3.2
		c0,0,2.4,2.7,1,4.7c-0.8,1.2-2.2,1.6-4.2,0.9c0,0,0.1-0.1,0.3-0.6c0.1-0.5-0.1-0.7-0.1-0.7s-1.4,2.5-3.5,1.8
		c-2.5-0.8-3.9-3.4-3.9-3.4s-0.4,1.5,2.2,3.8c0,0-3.3,0.6-5.8-3.7C5.9,13.9,5.2,14.7,7.5,17.3z"/>
</g>
</svg>
