<?xml version="1.0" encoding="utf-8"?>
<!-- Generator: Adobe Illustrator 25.2.0, SVG Export Plug-In . SVG Version: 6.00 Build 0)  -->
<svg version="1.1" id="Layer_1" xmlns="http://www.w3.org/2000/svg" xmlns:xlink="http://www.w3.org/1999/xlink" x="0px" y="0px"
	 viewBox="0 0 23.5 23.5" style="enable-background:new 0 0 23.5 23.5;" xml:space="preserve">
<style type="text/css">
	.st0{fill:#2C7BE5;}
	.st1{fill:#FFFFFF;}
	.st2{fill-rule:evenodd;clip-rule:evenodd;fill:#2C7BE5;}
	.st3{fill:none;}
</style>
<g>
	<path class="st2" d="M16.6,16.9l-0.8-0.8c1.8-0.9,2.8-2.1,2.8-2.7c0-0.6-0.7-1.9-3.1-3l0.8-0.8c2.2,1.3,3.6,3.1,3.6,3.9
		C19.9,14.2,18.7,15.8,16.6,16.9L16.6,16.9z M16,12.5c0,1-0.4,2-1,2.7l-2.1-2.1l2.5-2.5C15.7,11.1,16,11.7,16,12.5L16,12.5z
		 M8.3,13.9C8.1,13.4,8,13,8,12.5c0-0.2,0-0.3,0-0.4l1,1L8.3,13.9L8.3,13.9z M12.4,13.1l5,5c0.2,0.2,0.2,0.5-0.1,0.7l-0.7,0.7
		c-0.2,0.2-0.5,0.2-0.7,0.1l-5-5.1l-5,5.1c-0.2,0.2-0.5,0.1-0.7-0.1l-0.7-0.7c-0.2-0.2-0.2-0.5-0.1-0.7l5-5.1L4.6,8
		C4.4,7.8,4.4,7.5,4.6,7.2l0.7-0.7C5.5,6.4,5.8,6.3,6,6.5l5,5.1l5-5.1c0.2-0.2,0.5-0.2,0.7,0.1l0.7,0.7c0.2,0.2,0.2,0.5,0.1,0.7
		L12.4,13.1L12.4,13.1z M11,10.9c-0.1,0-0.2,0-0.2,0L8.5,8.6c0.9-0.3,1.8-0.4,2.8-0.4c0.8,0,1.6,0.1,2.3,0.3l-2.4,2.5
		C11.1,10.9,11.1,10.9,11,10.9L11,10.9z M6.6,10.6C5,11.5,4,12.9,4,13.4c0,0.4,0.8,1.5,2.3,2.4l-0.7,0.7c-1.8-1.1-2.8-2.5-2.8-3.1
		c0-0.6,1.1-2.3,3-3.6L6.6,10.6L6.6,10.6z M11,15l1.4,1.4c-0.1,0-0.2,0-0.4,0c-0.7,0-1.4-0.2-1.9-0.5L11,15L11,15z M11.2,17.1
		c0.6,0,1.2-0.1,1.7-0.1l0.9,0.9c-0.8,0.2-1.6,0.3-2.5,0.3c-1.1,0-2.1-0.2-3-0.4l0.8-0.8C9.8,17.1,10.5,17.1,11.2,17.1L11.2,17.1z"
		/>
</g>
</svg>
