<?xml version="1.0" encoding="utf-8"?>
<!-- Generator: Adobe Illustrator 25.2.0, SVG Export Plug-In . SVG Version: 6.00 Build 0)  -->
<svg version="1.1" id="Layer_1" xmlns="http://www.w3.org/2000/svg" xmlns:xlink="http://www.w3.org/1999/xlink" x="0px" y="0px"
	 viewBox="0 0 23.5 23.5" style="enable-background:new 0 0 23.5 23.5;" xml:space="preserve">
<style type="text/css">
	.st0{fill:#2C7BE5;}
	.st1{fill:#FFFFFF;}
	.st2{fill-rule:evenodd;clip-rule:evenodd;fill:#2C7BE5;}
	.st3{fill:none;}
</style>
<g>
	<path class="st0" d="M20.9,12.5c0,1.9-2.1,3.4-4.6,3.4v-1.1H14v-1.2c0-1.3-1-2.3-2.3-2.3c-1.3,0-2.3,1-2.3,2.3v1.1H7.1v1.2
		c-2.5,0-4.6-1.5-4.6-3.4c0-1.3,0.9-2.4,2.3-3c0-0.2,0-0.3,0-0.5c0-1.3,1-2.3,2.3-2.3c1.3,0,2.3,1,2.3,2.3c0-2.5,2.1-4.6,4.6-4.6
		c2.5,0,4.6,2.1,4.6,4.6c0,0.2,0,0.3,0,0.5C20,10.1,20.9,11.2,20.9,12.5L20.9,12.5z M14.7,17.4L12.6,19c-0.5,0.5-1.3,0.5-1.9,0
		l-2.1-1.6c-0.5-0.5-0.5-1.5,0-1.5h1.9v-2.3c0-0.6,0.5-1.1,1.1-1.1c0.6,0,1.2,0.5,1.2,1.1v2.3h1.9C15.3,15.9,15.3,16.9,14.7,17.4
		L14.7,17.4z"/>
</g>
</svg>
