<?xml version="1.0" encoding="utf-8"?>
<!-- Generator: Adobe Illustrator 25.2.0, SVG Export Plug-In . SVG Version: 6.00 Build 0)  -->
<svg version="1.1" id="Layer_1" xmlns="http://www.w3.org/2000/svg" xmlns:xlink="http://www.w3.org/1999/xlink" x="0px" y="0px"
	 viewBox="0 0 23.5 23.5" style="enable-background:new 0 0 23.5 23.5;" xml:space="preserve">
<style type="text/css">
	.st0{fill:#2C7BE5;}
	.st1{fill:#FFFFFF;}
	.st2{fill-rule:evenodd;clip-rule:evenodd;fill:#2C7BE5;}
	.st3{fill:none;}
</style>
<g>
	<path class="st2" d="M19.9,7.3l-3.3,3.3l-3.7-3.7l3.3-3.3c1-1,2.7-1,3.7,0C21,4.6,21,6.3,19.9,7.3L19.9,7.3z M8.1,11.7l4.5-4.5
		l3.7,3.7l-4.5,4.5L8.1,11.7L8.1,11.7z M14.7,11.2c0.2-0.2,0.2-0.5,0-0.7c-0.2-0.2-0.5-0.2-0.7,0c-0.2,0.2-0.2,0.5,0,0.7
		C14.2,11.4,14.5,11.4,14.7,11.2L14.7,11.2z M13,9.5c0.2-0.2,0.2-0.5,0-0.7c-0.2-0.2-0.5-0.2-0.7,0c-0.2,0.2-0.2,0.5,0,0.7
		C12.5,9.7,12.8,9.7,13,9.5L13,9.5z M13.4,12.5c0.2-0.2,0.2-0.5,0-0.7c-0.2-0.2-0.5-0.2-0.7,0c-0.2,0.2-0.2,0.5,0,0.7
		C12.9,12.7,13.2,12.7,13.4,12.5L13.4,12.5z M11.7,10.8c0.2-0.2,0.2-0.5,0-0.7c-0.2-0.2-0.5-0.2-0.7,0c-0.2,0.2-0.2,0.5,0,0.7
		C11.2,11,11.5,11,11.7,10.8L11.7,10.8z M12.1,13.8c0.2-0.2,0.2-0.5,0-0.7c-0.2-0.2-0.5-0.2-0.7,0c-0.2,0.2-0.2,0.5,0,0.7
		C11.6,14,11.9,14,12.1,13.8L12.1,13.8z M10.4,12.1c0.2-0.2,0.2-0.5,0-0.7c-0.2-0.2-0.5-0.2-0.7,0c-0.2,0.2-0.2,0.5,0,0.7
		C9.9,12.3,10.2,12.3,10.4,12.1L10.4,12.1z M4.4,19.1c-1-1-1-2.7,0-3.7L7.8,12l3.7,3.7l-3.4,3.4C7.1,20.1,5.4,20.1,4.4,19.1
		L4.4,19.1z"/>
</g>
</svg>
