<?xml version="1.0" encoding="utf-8"?>
<!-- Generator: Adobe Illustrator 25.2.0, SVG Export Plug-In . SVG Version: 6.00 Build 0)  -->
<svg version="1.1" id="Layer_1" xmlns="http://www.w3.org/2000/svg" xmlns:xlink="http://www.w3.org/1999/xlink" x="0px" y="0px"
	 viewBox="0 0 23.5 23.5" style="enable-background:new 0 0 23.5 23.5;" xml:space="preserve">
<style type="text/css">
	.st0{fill:#2C7BE5;}
	.st1{fill:#FFFFFF;}
	.st2{fill-rule:evenodd;clip-rule:evenodd;fill:#2C7BE5;}
	.st3{fill:none;}
</style>
<g>
	<path class="st2" d="M16.5,20.4h-0.8v-2H7.1v2H6.4c-1.2,0-2.3-1-2.3-2.3v-4.8c0-1.2,1-2.3,2.3-2.3h0.8v1h8.6v-1h0.7
		c1.3,0,2.3,1,2.3,2.3v4.8C18.8,19.4,17.8,20.4,16.5,20.4L16.5,20.4z M15.4,14.1h-1.1c-0.2,0-0.3,0.1-0.3,0.3c0,0.2,0.1,0.3,0.3,0.3
		h1.1c0.2,0,0.3-0.1,0.3-0.3C15.7,14.2,15.5,14.1,15.4,14.1L15.4,14.1z M7.8,4.5h7.5v7H7.8V4.5L7.8,4.5z M15.1,21.6H7.6V19h7.5V21.6
		L15.1,21.6z"/>
</g>
</svg>
