<?xml version="1.0" encoding="utf-8"?>
<!-- Generator: Adobe Illustrator 25.2.0, SVG Export Plug-In . SVG Version: 6.00 Build 0)  -->
<svg version="1.1" id="Layer_1" xmlns="http://www.w3.org/2000/svg" xmlns:xlink="http://www.w3.org/1999/xlink" x="0px" y="0px"
	 viewBox="0 0 23.5 23.5" style="enable-background:new 0 0 23.5 23.5;" xml:space="preserve">
<style type="text/css">
	.st0{fill:#2C7BE5;}
	.st1{fill:#FFFFFF;}
	.st2{fill-rule:evenodd;clip-rule:evenodd;fill:#2C7BE5;}
	.st3{fill:none;}
</style>
<path class="st2" d="M19.9,21.3c-2.3,0-7.5,0-7.5,0s-5.3,0-7.5,0c-0.7,0-1-0.4-1-1.1c0.2-1.1,0.8-2.8,3-3.5c2.4-0.9,2.5-1,2.5-1
	s0.5-0.9,0.8-1c0.3-0.1,0-0.4,0-0.5c0-0.1-0.4,0-0.4-1.3c0-0.4,0.1-0.5-0.2-0.5c-0.2,0-0.7-0.3-0.7-1.3C9,10,9,10,9.2,10
	C9.2,9.5,9,8.9,9,7.4c0-1.5,1.2-2.8,3.4-2.8c0.7,0,1.2-0.3,1.8-0.4c0.1,0.2,0.2,0.5,0.3,0.6c0.5,0.3,1.1,1.1,1.3,2.6
	c0,1.5-0.2,2.1-0.2,2.5c0.2,0,0.2,0.1,0.2,1.1c0,1-0.5,1.3-0.7,1.3c-0.2,0-0.2,0-0.2,0.5c0,1.3-0.3,1.2-0.4,1.3c0,0.1-0.3,0.5,0,0.5
	c0.2,0.1,0.8,1,0.8,1s0.2,0.1,2.5,1c2.2,0.7,2.8,2.4,3,3.6C20.9,21,20.7,21.3,19.9,21.3L19.9,21.3z"/>
</svg>
