<?xml version="1.0" encoding="utf-8"?>
<!-- Generator: Adobe Illustrator 25.2.0, SVG Export Plug-In . SVG Version: 6.00 Build 0)  -->
<svg version="1.1" id="Layer_1" xmlns="http://www.w3.org/2000/svg" xmlns:xlink="http://www.w3.org/1999/xlink" x="0px" y="0px"
	 viewBox="0 0 23.5 23.5" style="enable-background:new 0 0 23.5 23.5;" xml:space="preserve">
<style type="text/css">
	.st0{fill:#2C7BE5;}
	.st1{fill:#FFFFFF;}
	.st2{fill-rule:evenodd;clip-rule:evenodd;fill:#2C7BE5;}
	.st3{fill:none;}
</style>
<g>
	<path class="st2" d="M13.2,13.2V2.9c0-0.9-0.7-1.7-1.7-1.7c-0.9,0-1.7,0.7-1.7,1.7v2.5v3.3v3.3v1.1c-1.9,0.7-3.3,2.5-3.3,4.7
		c0,2.8,2.2,5,5,5c2.8,0,5-2.2,5-5C16.5,15.7,15.1,13.9,13.2,13.2L13.2,13.2z M10.7,4.6c0.5,0,0.8,0.4,0.8,0.8
		c0,0.5-0.4,0.8-0.8,0.8c-0.5,0-0.8-0.4-0.8-0.8C9.8,5,10.2,4.6,10.7,4.6L10.7,4.6z M10.7,7.9c0.5,0,0.8,0.4,0.8,0.8
		s-0.4,0.8-0.8,0.8c-0.5,0-0.8-0.4-0.8-0.8S10.2,7.9,10.7,7.9L10.7,7.9z M10.7,11.3c0.5,0,0.8,0.4,0.8,0.8c0,0.5-0.4,0.8-0.8,0.8
		c-0.5,0-0.8-0.4-0.8-0.8C9.8,11.6,10.2,11.3,10.7,11.3L10.7,11.3z"/>
</g>
</svg>
