<?xml version="1.0" encoding="utf-8"?>
<!-- Generator: Adobe Illustrator 25.2.0, SVG Export Plug-In . SVG Version: 6.00 Build 0)  -->
<svg version="1.1" id="Layer_1" xmlns="http://www.w3.org/2000/svg" xmlns:xlink="http://www.w3.org/1999/xlink" x="0px" y="0px"
	 viewBox="0 0 23.5 23.5" style="enable-background:new 0 0 23.5 23.5;" xml:space="preserve">
<style type="text/css">
	.st0{fill:#2C7BE5;}
	.st1{fill:#FFFFFF;}
	.st2{fill-rule:evenodd;clip-rule:evenodd;fill:#2C7BE5;}
	.st3{fill:none;}
</style>
<g>
	<path class="st0" d="M7.9,10.2c0,0-1.3-5.8,4.5-4.7c0,0,2.8-0.4,3,1.9c0.2,2.3-0.2,3.3-0.2,3.3s0.8-0.2,0.8,0.6
		c0,0.8-0.6,2-1.4,2.2c0,0-0.2,0.8-0.9,1.5c-0.3,0.3-0.3,1.3-0.2,1.4c0,0,0.6,0.3,1.5,0.4c0.7,0.1,1.7,0.2,2.5,0.3
		c2,0.4,2.4,1.1,2.6,1.5c0.6,0.9,0.3,2.2,0.3,2.2H3.1l0-2.2c0,0,0.4-1.8,6.2-2.1c0,0,0.2-0.1,0.1-1.4c0,0-0.7-1.3-0.7-1.7
		c0-0.1-0.3-0.2-0.6-0.4c-0.6-0.6-1.2-2-0.5-2.4l0.1,0l0.1,0L7.9,10.2z"/>
	<path class="st0" d="M15.4,6.8c0,0,0.9-1.2,2.6,0c1.7,1.2,1.4,3.1,1.4,3.1s0.6,0-0.1,1.5c-0.2,0.4-0.5,0.5-0.5,0.5s-0.4,1-0.6,1.3
		c-0.2,0.3,0,1,0,1c0,0,0.6,0.4,1.5,0.8c1.2,0.5,3.1,0.8,3.3,2l0,2.6h-2.4v-1.4c0,0,0.3-1.1-3.3-2c-3.4-0.9-3.2-0.6-3.2-0.6
		s-0.2-0.2,0.3-0.7c0.2-0.2,0.7-1,0.7-1c0,0,0.9-0.5,1.2-2.2c0.2-1.2-0.5-1.2-0.5-1.2S16.2,7.6,15.4,6.8z"/>
	<path class="st0" d="M7.9,6.7c0,0-2.4-1.1-3.7,1.1c-1.3,2.2-0.3,3.6-2.4,6c0,0,0.6,1.2,2.3,0.8c1.7-0.4,0.8,1.1,0.4,0.9
		c-0.4-0.2-3.9,0.2-4.3,1.7C-0.2,18.7,0,19.6,0,19.6h2.9c0,0-0.3-2.3,1.7-3.1c2-0.8,4.4-0.9,4.4-0.9s0.1-0.8-0.6-1.5
		c-1.2-1.2-2.2-2.8-0.9-3.9C7.4,10.1,7.1,8.2,7.9,6.7z"/>
</g>
</svg>
