<?xml version="1.0" encoding="utf-8"?>
<!-- Generator: Adobe Illustrator 25.2.0, SVG Export Plug-In . SVG Version: 6.00 Build 0)  -->
<svg version="1.1" id="Layer_1" xmlns="http://www.w3.org/2000/svg" xmlns:xlink="http://www.w3.org/1999/xlink" x="0px" y="0px"
	 viewBox="0 0 23.5 23.5" style="enable-background:new 0 0 23.5 23.5;" xml:space="preserve">
<style type="text/css">
	.st0{fill:#2C7BE5;}
	.st1{fill:#FFFFFF;}
	.st2{fill-rule:evenodd;clip-rule:evenodd;fill:#2C7BE5;}
	.st3{fill:none;}
</style>
<g>
	<path class="st2" d="M18.9,17.7h-0.7h-4.3c-0.6,0-1-0.5-1-1.1v-0.1h7.1v0.1C19.9,17.2,19.4,17.7,18.9,17.7L18.9,17.7z M12.8,15.2
		c0-0.6,0.5-1.1,1-1.1h4.3h0.7c0.6,0,1,0.5,1,1.1v0.1L12.8,15.2L12.8,15.2L12.8,15.2z M16.3,11.8L16.3,11.8l3.6,0v1.2h-2.5
		C16.9,12.9,16.3,12.4,16.3,11.8L16.3,11.8z M16.3,10.5c0-0.6,0.4-1.1,1-1.1h2.6v1.2L16.3,10.5L16.3,10.5L16.3,10.5z M18.9,8.2h-5.1
		c-0.6,0-1-0.5-1-1.1V7h7.1v0.1C19.9,7.7,19.4,8.2,18.9,8.2L18.9,8.2z M12.8,5.7c0-0.6,0.5-1.1,1-1.1h5.1c0.6,0,1,0.5,1,1.1v0.1
		L12.8,5.7L12.8,5.7L12.8,5.7z M10.6,8.2H5.5c-0.6,0-1-0.5-1-1.1V7h7.1v0.1C11.6,7.7,11.1,8.2,10.6,8.2L10.6,8.2z M4.5,5.7
		c0-0.6,0.5-1.1,1-1.1h5.1c0.6,0,1,0.5,1,1.1v0.1L4.5,5.7L4.5,5.7L4.5,5.7z M8,10.5L8,10.5l-3.6,0.1V9.4h2.6C7.6,9.4,8,9.9,8,10.5
		L8,10.5z M8,11.8c0,0.6-0.4,1.2-1,1.2H4.5v-1.2L8,11.8L8,11.8L8,11.8z M5.5,14.1h5.1c0.6,0,1,0.5,1,1.1v0.1H4.5v-0.1
		C4.5,14.6,4.9,14.1,5.5,14.1L5.5,14.1z M9.2,10.5c0-0.6,0.4-1.1,1-1.1h4c0.5,0,1,0.5,1,1.1v0.1L9.2,10.5L9.2,10.5L9.2,10.5z
		 M15.2,11.9c0,0.6-0.4,1.1-1,1.1h-4c-0.5,0-1-0.5-1-1.1v-0.1L15.2,11.9L15.2,11.9L15.2,11.9z M11.6,16.6c0,0.6-0.5,1.1-1,1.1H5.5
		c-0.6,0-1-0.5-1-1.1v-0.1L11.6,16.6L11.6,16.6L11.6,16.6z"/>
</g>
</svg>
