<?xml version="1.0" encoding="utf-8"?>
<!-- Generator: Adobe Illustrator 25.2.0, SVG Export Plug-In . SVG Version: 6.00 Build 0)  -->
<svg version="1.1" id="Layer_1" xmlns="http://www.w3.org/2000/svg" xmlns:xlink="http://www.w3.org/1999/xlink" x="0px" y="0px"
	 viewBox="0 0 23.5 23.5" style="enable-background:new 0 0 23.5 23.5;" xml:space="preserve">
<style type="text/css">
	.st0{fill:#2C7BE5;}
	.st1{fill:#FFFFFF;}
	.st2{fill-rule:evenodd;clip-rule:evenodd;fill:#2C7BE5;}
	.st3{fill:none;}
</style>
<g>
	<path class="st2" d="M18.3,18.8H5.2c-1.2,0-2.4-1.2-2.4-2.4V5.7c0-1.2,1.2-2.4,2.4-2.4h13.1c1.2,0,2.4,1.2,2.4,2.4v10.7
		C20.7,17.6,19.5,18.8,18.3,18.8L18.3,18.8z M11.8,17.6c0.3,0,0.6-0.3,0.6-0.6c0-0.3-0.3-0.6-0.6-0.6c-0.3,0-0.6,0.3-0.6,0.6
		C11.2,17.3,11.4,17.6,11.8,17.6L11.8,17.6z M19.5,4.5H4.1v10.7h15.4V4.5L19.5,4.5z M14.7,21.2H8.8V20h5.9V21.2L14.7,21.2z"/>
</g>
</svg>
