<?xml version="1.0" encoding="utf-8"?>
<!-- Generator: Adobe Illustrator 25.2.0, SVG Export Plug-In . SVG Version: 6.00 Build 0)  -->
<svg version="1.1" id="Layer_1" xmlns="http://www.w3.org/2000/svg" xmlns:xlink="http://www.w3.org/1999/xlink" x="0px" y="0px"
	 viewBox="0 0 23.5 23.5" style="enable-background:new 0 0 23.5 23.5;" xml:space="preserve">
<style type="text/css">
	.st0{fill:#2C7BE5;}
	.st1{fill:#FFFFFF;}
	.st2{fill-rule:evenodd;clip-rule:evenodd;fill:#2C7BE5;}
	.st3{fill:none;}
</style>
<g>
	<path class="st0" d="M19.6,3.5c0.3,0,0.6,0.3,0.6,0.6c0,0.3-0.3,0.6-0.6,0.6h-1.1c-0.3,0-0.6-0.3-0.6-0.6c0-0.3,0.3-0.6,0.6-0.6
		H5.9c0.3,0,0.6,0.3,0.6,0.6c0,0.3-0.3,0.6-0.6,0.6H4.7c-0.3,0-0.6-0.3-0.6-0.6c0-0.3,0.3-0.6,0.6-0.6H3v17.2h1.7
		c-0.3,0-0.6-0.3-0.6-0.6c0-0.3,0.3-0.6,0.6-0.6h1.2c0.3,0,0.6,0.3,0.6,0.6c0,0.3-0.3,0.6-0.6,0.6h12.6c-0.3,0-0.6-0.3-0.6-0.6
		c0-0.3,0.3-0.6,0.6-0.6h1.1c0.3,0,0.6,0.3,0.6,0.6c0,0.3-0.3,0.6-0.6,0.6h1.7V3.5H19.6L19.6,3.5z M5.9,18.5H4.7
		c-0.3,0-0.6-0.3-0.6-0.6c0-0.3,0.3-0.6,0.6-0.6h1.2c0.3,0,0.6,0.3,0.6,0.6C6.4,18.2,6.2,18.5,5.9,18.5L5.9,18.5z M5.9,16.2H4.7
		c-0.3,0-0.6-0.3-0.6-0.6c0-0.3,0.3-0.6,0.6-0.6h1.2c0.3,0,0.6,0.3,0.6,0.6C6.4,15.9,6.2,16.2,5.9,16.2L5.9,16.2z M5.9,13.9H4.7
		c-0.3,0-0.6-0.3-0.6-0.6c0-0.3,0.3-0.6,0.6-0.6h1.2c0.3,0,0.6,0.3,0.6,0.6C6.4,13.6,6.2,13.9,5.9,13.9L5.9,13.9z M5.9,11.6H4.7
		c-0.3,0-0.6-0.3-0.6-0.6c0-0.3,0.3-0.6,0.6-0.6h1.2c0.3,0,0.6,0.3,0.6,0.6C6.4,11.3,6.2,11.6,5.9,11.6L5.9,11.6z M5.9,9.3H4.7
		C4.4,9.3,4.1,9,4.1,8.7c0-0.3,0.3-0.6,0.6-0.6h1.2c0.3,0,0.6,0.3,0.6,0.6C6.4,9,6.2,9.3,5.9,9.3L5.9,9.3z M5.9,7H4.7
		C4.4,7,4.1,6.7,4.1,6.4c0-0.3,0.3-0.6,0.6-0.6h1.2c0.3,0,0.6,0.3,0.6,0.6C6.4,6.7,6.2,7,5.9,7L5.9,7z M16.8,17.3
		c0,0.6-0.5,1.1-1.1,1.1H8.7c-0.6,0-1.1-0.5-1.1-1.1v-3.4c0-0.6,0.5-1.1,1.1-1.1h6.9c0.6,0,1.1,0.5,1.1,1.1V17.3L16.8,17.3z
		 M16.8,10.4c0,0.6-0.5,1.1-1.1,1.1H8.7c-0.6,0-1.1-0.5-1.1-1.1V7c0-0.6,0.5-1.1,1.1-1.1h6.9c0.6,0,1.1,0.5,1.1,1.1V10.4L16.8,10.4z
		 M19.6,18.5h-1.1c-0.3,0-0.6-0.3-0.6-0.6c0-0.3,0.3-0.6,0.6-0.6h1.1c0.3,0,0.6,0.3,0.6,0.6C20.2,18.2,20,18.5,19.6,18.5L19.6,18.5z
		 M19.6,16.2h-1.1c-0.3,0-0.6-0.3-0.6-0.6c0-0.3,0.3-0.6,0.6-0.6h1.1c0.3,0,0.6,0.3,0.6,0.6C20.2,15.9,20,16.2,19.6,16.2L19.6,16.2z
		 M19.6,13.9h-1.1c-0.3,0-0.6-0.3-0.6-0.6c0-0.3,0.3-0.6,0.6-0.6h1.1c0.3,0,0.6,0.3,0.6,0.6C20.2,13.6,20,13.9,19.6,13.9L19.6,13.9z
		 M19.6,11.6h-1.1c-0.3,0-0.6-0.3-0.6-0.6c0-0.3,0.3-0.6,0.6-0.6h1.1c0.3,0,0.6,0.3,0.6,0.6C20.2,11.3,20,11.6,19.6,11.6L19.6,11.6z
		 M19.6,9.3h-1.1c-0.3,0-0.6-0.3-0.6-0.6c0-0.3,0.3-0.6,0.6-0.6h1.1c0.3,0,0.6,0.3,0.6,0.6C20.2,9,20,9.3,19.6,9.3L19.6,9.3z
		 M19.6,7h-1.1c-0.3,0-0.6-0.3-0.6-0.6c0-0.3,0.3-0.6,0.6-0.6h1.1c0.3,0,0.6,0.3,0.6,0.6C20.2,6.7,20,7,19.6,7L19.6,7z"/>
</g>
</svg>
