<?xml version="1.0" encoding="utf-8"?>
<!-- Generator: Adobe Illustrator 25.2.0, SVG Export Plug-In . SVG Version: 6.00 Build 0)  -->
<svg version="1.1" id="Layer_1" xmlns="http://www.w3.org/2000/svg" xmlns:xlink="http://www.w3.org/1999/xlink" x="0px" y="0px"
	 viewBox="0 0 23.5 23.5" style="enable-background:new 0 0 23.5 23.5;" xml:space="preserve">
<style type="text/css">
	.st0{fill:#2C7BE5;}
	.st1{fill:#FFFFFF;}
	.st2{fill-rule:evenodd;clip-rule:evenodd;fill:#2C7BE5;}
	.st3{fill:none;}
</style>
<g>
	<path class="st2" d="M17.1,8.2H7.7C7.3,8.2,7,7.8,7,7.4C7,7,7.3,6.7,7.7,6.7h0.4V6.6c0-0.3,0.3-0.5,0.7-0.5H16
		c0.4,0,0.7,0.2,0.7,0.5v0.1h0.4c0.4,0,0.7,0.3,0.7,0.7C17.9,7.8,17.5,8.2,17.1,8.2L17.1,8.2z M15.4,6l-0.6,0c0,0,1-3.6,1.1-4
		c0.1-0.3,0.6-0.2,0.5,0.1C16.4,2.4,15.4,6,15.4,6L15.4,6z M8.5,8.4h7.9c0.3,0,0.5,0.2,0.4,0.5l-1.3,9.6c0,0.1-0.2,0.3-0.4,0.3H9.7
		c-0.2,0-0.3-0.1-0.4-0.3L8,9C8,8.7,8.2,8.4,8.5,8.4L8.5,8.4z"/>
</g>
</svg>
