<?xml version="1.0" encoding="utf-8"?>
<!-- Generator: Adobe Illustrator 25.2.0, SVG Export Plug-In . SVG Version: 6.00 Build 0)  -->
<svg version="1.1" id="Layer_1" xmlns="http://www.w3.org/2000/svg" xmlns:xlink="http://www.w3.org/1999/xlink" x="0px" y="0px"
	 viewBox="0 0 23.5 23.5" style="enable-background:new 0 0 23.5 23.5;" xml:space="preserve">
<style type="text/css">
	.st0{fill:#2C7BE5;}
	.st1{fill:#FFFFFF;}
	.st2{fill-rule:evenodd;clip-rule:evenodd;fill:#2C7BE5;}
	.st3{fill:none;}
</style>
<path class="st2" d="M11.8,20.2c-4.2,0-7.7-3.4-7.7-7.6c0-2.9,1.7-5.4,4.1-6.7C9.5,5.4,10,7.4,9,7.9c-1.6,0.9-2.7,2.7-2.7,4.7
	c0,3,2.5,5.5,5.5,5.5c3.1,0,5.5-2.5,5.5-5.5c0-2.2-1.1-3.5-3-4.7c-1.1-0.5-0.9-3.1,1.6-1.6c2.4,1.3,3.6,3.4,3.6,6.3
	C19.5,16.9,16,20.2,11.8,20.2L11.8,20.2z M12,11h-0.7c-0.3,0-0.7-0.7-0.7-1.1c0,0.3,0-5.7,0-5.7c0-0.4,0.4-1.1,0.7-1.1H12
	c0.3,0,0.7,0.6,0.7,1.1v5.7C12.7,10.4,12.3,11,12,11L12,11z"/>
</svg>
