<?xml version="1.0" encoding="utf-8"?>
<!-- Generator: Adobe Illustrator 25.2.0, SVG Export Plug-In . SVG Version: 6.00 Build 0)  -->
<svg version="1.1" id="Layer_1" xmlns="http://www.w3.org/2000/svg" xmlns:xlink="http://www.w3.org/1999/xlink" x="0px" y="0px"
	 viewBox="0 0 23.5 23.5" style="enable-background:new 0 0 23.5 23.5;" xml:space="preserve">
<style type="text/css">
	.st0{fill:#2C7BE5;}
	.st1{fill:#FFFFFF;}
	.st2{fill-rule:evenodd;clip-rule:evenodd;fill:#2C7BE5;}
	.st3{fill:none;}
</style>
<g>
	<g>
		<path class="st0" d="M12.6,13.2H6.1V6.8h6.4V13.2z M12.1,7.2H6.6v5.6h5.6V7.2z"/>
		<path class="st0" d="M7.9,9.2c0,0-0.5-2.1,1.6-1.7c0,0,1-0.2,1.1,0.7c0.1,0.9-0.1,1.2-0.1,1.2s0.3-0.1,0.3,0.2
			c0,0.3-0.2,0.7-0.5,0.8c0,0-0.1,0.3-0.3,0.5c-0.1,0.1-0.1,0.5-0.1,0.5c0,0,0.2,0.1,0.5,0.1c0.3,0,0.6,0.1,0.9,0.1
			c0.7,0.1,0.9,0.4,0.9,0.5c0.2,0.3,0.1,0.8,0.1,0.8H6.1l0-0.8c0,0,0.1-0.6,2.2-0.8c0,0,0.1,0,0-0.5c0,0-0.3-0.5-0.3-0.6
			c0,0-0.1-0.1-0.2-0.2C7.7,9.9,7.5,9.4,7.9,9.2L7.9,9.2L7.9,9.2L7.9,9.2z"/>
	</g>
	<path class="st0" d="M18.9,18.7c0,0.4-0.4,0.8-0.8,0.8H4.7c-0.4,0-0.8-0.4-0.8-0.8V5.3c0-0.4,0.4-0.8,0.8-0.8h13.4
		c0.4,0,0.8,0.4,0.8,0.8V18.7z M17.8,5.9c0-0.2-0.2-0.4-0.4-0.4H5.4C5.1,5.5,5,5.7,5,5.9v12.2c0,0.2,0.2,0.4,0.4,0.4h12.1
		c0.2,0,0.4-0.2,0.4-0.4V5.9z"/>
	<rect x="6.4" y="14.4" class="st0" width="9.7" height="0.9"/>
	<rect x="6.4" y="16.5" class="st0" width="9.7" height="0.9"/>
</g>
</svg>
