<?xml version="1.0" encoding="utf-8"?>
<!-- Generator: Adobe Illustrator 25.2.0, SVG Export Plug-In . SVG Version: 6.00 Build 0)  -->
<svg version="1.1" id="Layer_1" xmlns="http://www.w3.org/2000/svg" xmlns:xlink="http://www.w3.org/1999/xlink" x="0px" y="0px"
	 viewBox="0 0 23.5 23.5" style="enable-background:new 0 0 23.5 23.5;" xml:space="preserve">
<style type="text/css">
	.st0{fill:#2C7BE5;}
	.st1{fill:#FFFFFF;}
	.st2{fill-rule:evenodd;clip-rule:evenodd;fill:#2C7BE5;}
	.st3{fill:none;}
</style>
<g>
	<g>
		<g>
			<g>
				<path class="st0" d="M21.5,19.6c0,0.9-0.7,1.6-1.6,1.6H4.7c-0.9,0-1.6-0.7-1.6-1.6V7.6c0-0.9,0.7-1.6,1.6-1.6h15.2
					c0.9,0,1.6,0.7,1.6,1.6V19.6z M20,8c0-0.4-0.4-0.8-0.8-0.8H5.4C4.9,7.2,4.6,7.6,4.6,8v11c0,0.4,0.4,0.8,0.8,0.8h13.8
					c0.5,0,0.8-0.4,0.8-0.8V8z"/>
			</g>
		</g>
		<g>
			<rect x="4" y="10.1" class="st0" width="16.3" height="1.6"/>
		</g>
		<g>
			<path class="st0" d="M8.5,8c0,0.4-0.4,0.8-0.8,0.8H7C6.6,8.8,6.2,8.4,6.2,8V5.2c0-0.4,0.4-0.8,0.8-0.8h0.7c0.4,0,0.8,0.4,0.8,0.8
				V8z"/>
		</g>
		<g>
			<path class="st0" d="M18.4,8c0,0.4-0.4,0.8-0.8,0.8h-0.7c-0.4,0-0.8-0.4-0.8-0.8V5.2c0-0.4,0.4-0.8,0.8-0.8h0.7
				c0.4,0,0.8,0.4,0.8,0.8V8z"/>
		</g>
	</g>
	<g>
		<rect x="11.1" y="11.9" class="st0" width="2" height="7.8"/>
		<rect x="8.5" y="14.8" class="st0" width="7.4" height="2"/>
	</g>
	<path class="st0" d="M10.3,13.1c0,0.5-0.4,0.9-0.9,0.9c-0.5,0-0.9-0.4-0.9-0.9c0-0.5,0.4-0.9,0.9-0.9C9.9,12.2,10.3,12.6,10.3,13.1
		z"/>
	<path class="st0" d="M15.8,13.1c0,0.5-0.4,0.9-0.9,0.9c-0.5,0-0.9-0.4-0.9-0.9c0-0.5,0.4-0.9,0.9-0.9
		C15.4,12.2,15.8,12.6,15.8,13.1z"/>
	<path class="st0" d="M18.8,13.1c0,0.5-0.4,0.9-0.9,0.9c-0.5,0-0.9-0.4-0.9-0.9c0-0.5,0.4-0.9,0.9-0.9
		C18.3,12.2,18.8,12.6,18.8,13.1z"/>
	<path class="st0" d="M18.8,15.8c0,0.5-0.4,0.9-0.9,0.9c-0.5,0-0.9-0.4-0.9-0.9c0-0.5,0.4-0.9,0.9-0.9
		C18.3,14.9,18.8,15.3,18.8,15.8z"/>
	<path class="st0" d="M15.9,18.6c0,0.5-0.4,0.9-0.9,0.9c-0.5,0-0.9-0.4-0.9-0.9c0-0.5,0.4-0.9,0.9-0.9
		C15.5,17.7,15.9,18.1,15.9,18.6z"/>
	<path class="st0" d="M10.3,18.6c0,0.5-0.4,0.9-0.9,0.9c-0.5,0-0.9-0.4-0.9-0.9c0-0.5,0.4-0.9,0.9-0.9C9.9,17.7,10.3,18.1,10.3,18.6
		z"/>
	<path class="st0" d="M7.6,18.6c0,0.5-0.4,0.9-0.9,0.9c-0.5,0-0.9-0.4-0.9-0.9c0-0.5,0.4-0.9,0.9-0.9C7.2,17.7,7.6,18.1,7.6,18.6z"
		/>
	<path class="st0" d="M7.6,15.9c0,0.5-0.4,0.9-0.9,0.9c-0.5,0-0.9-0.4-0.9-0.9c0-0.5,0.4-0.9,0.9-0.9C7.2,15,7.6,15.4,7.6,15.9z"/>
</g>
</svg>
