<?xml version="1.0" encoding="utf-8"?>
<!-- Generator: Adobe Illustrator 25.2.0, SVG Export Plug-In . SVG Version: 6.00 Build 0)  -->
<svg version="1.1" id="Layer_1" xmlns="http://www.w3.org/2000/svg" xmlns:xlink="http://www.w3.org/1999/xlink" x="0px" y="0px"
	 viewBox="0 0 23.5 23.5" style="enable-background:new 0 0 23.5 23.5;" xml:space="preserve">
<style type="text/css">
	.st0{fill:#2C7BE5;}
	.st1{fill:#FFFFFF;}
	.st2{fill-rule:evenodd;clip-rule:evenodd;fill:#2C7BE5;}
	.st3{fill:none;}
</style>
<g>
	<path class="st0" d="M21.6,19.1c0,0-1.7-2.8-4.5-3.9c0,0-2.5-1.4-2.6-1.6c-0.1-0.1-0.1-0.4-0.1-0.4c0.5-0.4,1-0.8,1.1-1.6l0-0.3
		l1.3,0V10L16,8c0.3-2.5-0.6-3.5-0.6-3.5s-0.7-1.2-2.1-1.3l-2.6,0c-0.9,0-1.8,0.7-2.1,1.4c0,0-0.3,0.6-0.4,3.2L8,8.3L7.8,8.7
		L7.3,9.8l0.1,1.4l0.9,0l0.2,0.1c0,0.9,0.6,1.6,1.4,2l0,0.2c0,0-2,1.3-3.5,2.1c-1.4,0.7-3.6,2.3-3.7,3.9l0,1.7l19,0L21.6,19.1z"/>
</g>
</svg>
