<?xml version="1.0" encoding="utf-8"?>
<!-- Generator: Adobe Illustrator 25.2.0, SVG Export Plug-In . SVG Version: 6.00 Build 0)  -->
<svg version="1.1" id="Layer_1" xmlns="http://www.w3.org/2000/svg" xmlns:xlink="http://www.w3.org/1999/xlink" x="0px" y="0px"
	 viewBox="0 0 23.5 23.5" style="enable-background:new 0 0 23.5 23.5;" xml:space="preserve">
<style type="text/css">
	.st0{fill:#2C7BE5;}
	.st1{fill:#FFFFFF;}
	.st2{fill-rule:evenodd;clip-rule:evenodd;fill:#2C7BE5;}
	.st3{fill:none;}
</style>
<g>
	<path class="st2" d="M15.9,13.1c-0.5,0-1,0.1-1.5,0.3l-2.9-2.9c0.2-0.5,0.3-1,0.3-1.5c0-2.3-1.9-4.2-4.1-4.2c-0.3,0-0.7,0.1-1,0.1
		c1,0.3,1.8,1.2,1.8,2.4c0,1.4-1.1,2.5-2.5,2.5C4.8,9.8,3.8,9,3.5,8C3.5,8.3,3.4,8.6,3.4,9c0,2.3,1.9,4.2,4.1,4.2
		c0.5,0,1-0.1,1.5-0.3l2.9,2.9c-0.2,0.5-0.3,1-0.3,1.5c0,2.3,1.9,4.2,4.2,4.2c0.3,0,0.7-0.1,1-0.1c-1-0.3-1.8-1.2-1.8-2.4
		c0-1.4,1.1-2.5,2.5-2.5c1.1,0,2.1,0.8,2.4,1.8c0.1-0.3,0.1-0.7,0.1-1C20,15,18.2,13.1,15.9,13.1L15.9,13.1z"/>
</g>
</svg>
