<?xml version="1.0" encoding="utf-8"?>
<!-- Generator: Adobe Illustrator 25.2.0, SVG Export Plug-In . SVG Version: 6.00 Build 0)  -->
<svg version="1.1" id="Layer_1" xmlns="http://www.w3.org/2000/svg" xmlns:xlink="http://www.w3.org/1999/xlink" x="0px" y="0px"
	 viewBox="0 0 23.5 23.5" style="enable-background:new 0 0 23.5 23.5;" xml:space="preserve">
<style type="text/css">
	.st0{fill:#2C7BE5;}
	.st1{fill:#FFFFFF;}
	.st2{fill-rule:evenodd;clip-rule:evenodd;fill:#2C7BE5;}
	.st3{fill:none;}
</style>
<g>
	<path class="st0" d="M12.2,2.5c-4.9,0-8.8,4-8.8,8.8c0,4.9,4,8.8,8.8,8.8s8.8-4,8.8-8.8C21,6.5,17,2.5,12.2,2.5z M9.5,7.9
		c0-1.4,1.1-2.6,2.6-2.6c1.4,0,2.6,1.1,2.6,2.6v3.6c0,1.4-1.1,2.6-2.6,2.6c-1.4,0-2.6-1.1-2.6-2.6V7.9z M15.8,11.7
		c-0.5,3.3-3.4,3.4-3.4,3.4v2.2h2.5V18H9.2v-0.7h2.4v-2.3c-3.2-0.7-3.2-3.4-3.2-3.4V9.4V9.3h0.8v2.4c0,0,0.3,2.7,2.9,2.6
		c2.6-0.1,2.9-2.6,2.9-2.6V9.3h0.8V11.7z"/>
</g>
</svg>
