<?xml version="1.0" encoding="utf-8"?>
<!-- Generator: Adobe Illustrator 25.2.0, SVG Export Plug-In . SVG Version: 6.00 Build 0)  -->
<svg version="1.1" id="Layer_1" xmlns="http://www.w3.org/2000/svg" xmlns:xlink="http://www.w3.org/1999/xlink" x="0px" y="0px"
	 viewBox="0 0 23.5 23.5" style="enable-background:new 0 0 23.5 23.5;" xml:space="preserve">
<style type="text/css">
	.st0{fill:#2C7BE5;}
	.st1{fill:#FFFFFF;}
	.st2{fill-rule:evenodd;clip-rule:evenodd;fill:#2C7BE5;}
	.st3{fill:none;}
</style>
<g>
	<path class="st2" d="M12.3,10c-3.4,0-6.1-0.9-6.1-2c0-0.8,1.4-1.5,3.4-1.8V4.7c0-0.6,0.5-1.1,1-1.1h3.1c0.6,0,1,0.5,1,1.1v1.5
		c2.2,0.3,3.7,1,3.7,1.8C18.4,9.1,15.7,10,12.3,10L12.3,10z M13.7,5.2c0-0.3-0.2-0.5-0.5-0.5h-2.1c-0.3,0-0.5,0.2-0.5,0.5v0.9
		C11.1,6.1,11.7,6,12.3,6c0.5,0,1,0,1.4,0.1V5.2L13.7,5.2z M17.4,10.3c0,0-0.8,8.8-0.8,9.1c0,0.8-1.6,1.3-4.3,1.3
		c-2.6,0-4-0.5-4.3-1.3c-0.1-0.4-0.8-9.1-0.8-9.1s2.3,0.8,5.2,0.8C15.4,11.1,17.4,10.3,17.4,10.3L17.4,10.3z"/>
</g>
</svg>
