<?xml version="1.0" encoding="utf-8"?>
<!-- Generator: Adobe Illustrator 25.2.0, SVG Export Plug-In . SVG Version: 6.00 Build 0)  -->
<svg version="1.1" id="Layer_1" xmlns="http://www.w3.org/2000/svg" xmlns:xlink="http://www.w3.org/1999/xlink" x="0px" y="0px"
	 viewBox="0 0 23.5 23.5" style="enable-background:new 0 0 23.5 23.5;" xml:space="preserve">
<style type="text/css">
	.st0{fill:#2C7BE5;}
	.st1{fill:#FFFFFF;}
	.st2{fill-rule:evenodd;clip-rule:evenodd;fill:#2C7BE5;}
	.st3{fill:none;}
</style>
<path class="st2" d="M20.1,4.7c0,0-1.5,5.9-1.6,6.2c-0.1,0.3-0.4,0.5-0.8,0.5H7.9l0.3,2h9.2c0.3,0,0.7,0,0.7,0.7
	c0,0.3-0.4,0.3-0.7,0.3H8.2c-0.7,0-0.9-0.4-1-0.7L5.3,3.9l-1.6,0c-0.3,0-0.7-0.2-0.7-0.5c0-0.3,0.4-0.5,0.7-0.5h2
	c0.3,0,0.5,0.2,0.5,0.5l0.2,0.5h13c0.3,0,0.7,0.3,0.7,0.6C20.2,4.5,20.1,4.6,20.1,4.7L20.1,4.7z M7.7,10.3l1.6,0V4.9H6.9L7.7,10.3
	L7.7,10.3z M12.3,4.9H9.9v5.5h2.4V4.9L12.3,4.9z M15.4,4.9H13v5.5h2.4V4.9L15.4,4.9z M16.1,4.9v5.5l1.6,0l1.2-5.4H16.1L16.1,4.9z
	 M9,15.7c0.9,0,1.6,0.7,1.6,1.6c0,0.9-0.7,1.6-1.6,1.6c-0.9,0-1.6-0.7-1.6-1.6C7.4,16.4,8.1,15.7,9,15.7L9,15.7z M16.4,15.7
	c0.9,0,1.6,0.7,1.6,1.6c0,0.9-0.7,1.6-1.6,1.6s-1.6-0.7-1.6-1.6C14.8,16.4,15.5,15.7,16.4,15.7L16.4,15.7z"/>
</svg>
