<?xml version="1.0" encoding="utf-8"?>
<!-- Generator: Adobe Illustrator 25.2.0, SVG Export Plug-In . SVG Version: 6.00 Build 0)  -->
<svg version="1.1" id="Layer_1" xmlns="http://www.w3.org/2000/svg" xmlns:xlink="http://www.w3.org/1999/xlink" x="0px" y="0px"
	 viewBox="0 0 23.5 23.5" style="enable-background:new 0 0 23.5 23.5;" xml:space="preserve">
<style type="text/css">
	.st0{fill:#2C7BE5;}
	.st1{fill:#FFFFFF;}
	.st2{fill-rule:evenodd;clip-rule:evenodd;fill:#2C7BE5;}
	.st3{fill:none;}
</style>
<g>
	<path class="st2" d="M20.3,14.4c0,0-2.4,1.6-3.9,2.5c-0.5,0.4-1.2,0-1.2-0.8c0-0.5,0.5-1,1-1.4c0.9-0.5,2.1-1.3,2.1-1.3
		S16.9,12.6,16,12c-0.7-0.4-0.7-0.7-0.7-1.3c0-0.6,0.4-1.2,0.9-0.9c1.4,0.9,4.2,2.7,4.2,2.7s0.6,0.3,0.6,1.1
		C20.9,14.2,20.3,14.4,20.3,14.4L20.3,14.4z M12.2,18.7c0,0-0.2,0.9-1.1,0.9c-0.9,0-0.6-0.9-0.6-0.9L13,6.8c0,0,0.1-0.8,1-0.8
		c0.9,0,0.7,0.8,0.7,0.8L12.2,18.7L12.2,18.7z M8.6,12.2c-0.9,0.5-2,1.3-2,1.3c0,0,1,0.6,1.8,1.1c0.7,0.5,1.2,1,1.2,1.8
		c0,0.6-0.5,0.9-1.6,0.2c-1.4-0.9-3.4-2.2-3.4-2.2S3.9,14,3.9,13.6c0-0.8,0.6-1.1,0.6-1.1s2.1-1.4,3.5-2.3c0.8-0.6,1.5-0.5,1.5,0.2
		C9.6,11.3,9.5,11.7,8.6,12.2L8.6,12.2z"/>
</g>
</svg>
