<?xml version="1.0" encoding="utf-8"?>
<!-- Generator: Adobe Illustrator 25.2.0, SVG Export Plug-In . SVG Version: 6.00 Build 0)  -->
<svg version="1.1" id="Layer_1" xmlns="http://www.w3.org/2000/svg" xmlns:xlink="http://www.w3.org/1999/xlink" x="0px" y="0px"
	 viewBox="0 0 23.5 23.5" style="enable-background:new 0 0 23.5 23.5;" xml:space="preserve">
<style type="text/css">
	.st0{fill:#2C7BE5;}
	.st1{fill:#FFFFFF;}
	.st2{fill-rule:evenodd;clip-rule:evenodd;fill:#2C7BE5;}
	.st3{fill:none;}
</style>
<g>
	<path class="st0" d="M7.2,14.5v0.9H4.9v-4.6h2.3v0.9l3.4-4.3v11.5L7.2,14.5L7.2,14.5z M11.8,14.2v-2.3c0.6,0,1.1,0.5,1.1,1.1
		C13,13.7,12.5,14.2,11.8,14.2L11.8,14.2z M16.7,19.9L15.9,19c1.7-1.4,2.8-3.5,2.8-6c0-2.5-1.1-4.6-2.8-6l0.8-0.9
		c1.9,1.6,3.2,4.1,3.2,6.9C19.9,15.9,18.6,18.3,16.7,19.9L16.7,19.9z M14.2,17.3l-0.8-0.9c1.1-0.6,1.9-1.9,1.9-3.3
		c0-1.4-0.8-2.7-1.9-3.3l0.8-0.9c1.3,0.9,2.2,2.4,2.2,4.2C16.4,14.8,15.5,16.4,14.2,17.3L14.2,17.3z"/>
</g>
</svg>
