<?xml version="1.0" encoding="utf-8"?>
<!-- Generator: Adobe Illustrator 25.2.0, SVG Export Plug-In . SVG Version: 6.00 Build 0)  -->
<svg version="1.1" id="Layer_1" xmlns="http://www.w3.org/2000/svg" xmlns:xlink="http://www.w3.org/1999/xlink" x="0px" y="0px"
	 viewBox="0 0 23.5 23.5" style="enable-background:new 0 0 23.5 23.5;" xml:space="preserve">
<style type="text/css">
	.st0{fill:#2C7BE5;}
	.st1{fill:#FFFFFF;}
	.st2{fill-rule:evenodd;clip-rule:evenodd;fill:#2C7BE5;}
	.st3{fill:none;}
</style>
<g>
	<path class="st2" d="M4,21.3c-0.5,0.1-0.6,0-0.3-0.3c1.3-1.3,4.9-4.9,5.9-5.9c0.2-0.2,0.4-0.3,0.7-0.1c0.5,0.2,1.1,0.1,1.5-0.4
		c0.6-0.6,0.6-1.5,0-2.1c-0.6-0.6-1.5-0.6-2.1,0c-0.4,0.4-0.5,1-0.4,1.6c0.1,0.3,0.1,0.4-0.1,0.6c-1.1,1.1-4.6,4.6-6,5.9
		C3,20.9,2.9,20.7,3,20.3c1-3,3.2-9.8,4-10.6c1.8-1.8,4.4-1.6,5.5-1.8c0.2,0,0.5-0.2,0.7-0.4l3.6,3.6c-0.2,0.2-0.3,0.5-0.4,0.7
		c-0.2,1.1,0,3.7-1.8,5.4C13.8,18,7,20.3,4,21.3L4,21.3z M17.3,10.9l-0.2-0.2l-3.6-3.6l-0.2-0.2c-0.3-0.3-0.2-0.8,0.1-1.2l1.2-1.2
		c0.4-0.3,0.9-0.4,1.2-0.1l4,4c0.3,0.3,0.2,0.8-0.1,1.2l-1.2,1.2C18.1,11.2,17.6,11.2,17.3,10.9L17.3,10.9z"/>
</g>
</svg>
