<?xml version="1.0" encoding="utf-8"?>
<!-- Generator: Adobe Illustrator 25.2.0, SVG Export Plug-In . SVG Version: 6.00 Build 0)  -->
<svg version="1.1" id="Layer_1" xmlns="http://www.w3.org/2000/svg" xmlns:xlink="http://www.w3.org/1999/xlink" x="0px" y="0px"
	 viewBox="0 0 23.5 23.5" style="enable-background:new 0 0 23.5 23.5;" xml:space="preserve">
<style type="text/css">
	.st0{fill:#2C7BE5;}
	.st1{fill:#FFFFFF;}
	.st2{fill-rule:evenodd;clip-rule:evenodd;fill:#2C7BE5;}
	.st3{fill:none;}
</style>
<g>
	<path class="st0" d="M21.5,6.6c0,0.4-0.3,0.7-0.7,0.7h-12C8.4,7.3,8,6.9,8,6.6V4.2c0-0.4,0.3-0.7,0.7-0.7h12c0.4,0,0.7,0.3,0.7,0.7
		V6.6z"/>
	<path class="st0" d="M21.5,11.4c0,0.4-0.3,0.7-0.7,0.7h-12c-0.4,0-0.7-0.3-0.7-0.7V9c0-0.4,0.3-0.7,0.7-0.7h12
		c0.4,0,0.7,0.3,0.7,0.7V11.4z"/>
	<path class="st0" d="M21.5,16.4c0,0.4-0.3,0.7-0.7,0.7h-12c-0.4,0-0.7-0.3-0.7-0.7v-2.4c0-0.4,0.3-0.7,0.7-0.7h12
		c0.4,0,0.7,0.3,0.7,0.7V16.4z"/>
	<path class="st0" d="M21.5,21.3c0,0.4-0.3,0.7-0.7,0.7h-12C8.4,22,8,21.6,8,21.3v-2.4c0-0.4,0.3-0.7,0.7-0.7h12
		c0.4,0,0.7,0.3,0.7,0.7V21.3z"/>
	<path class="st0" d="M6.6,6.5c0,0.4-0.3,0.7-0.7,0.7H3.6c-0.4,0-0.7-0.3-0.7-0.7V4.2c0-0.4,0.3-0.7,0.7-0.7h2.3
		c0.4,0,0.7,0.3,0.7,0.7V6.5z"/>
	<path class="st0" d="M6.6,11.4c0,0.4-0.3,0.7-0.7,0.7H3.6c-0.4,0-0.7-0.3-0.7-0.7V9.2c0-0.4,0.3-0.7,0.7-0.7h2.3
		c0.4,0,0.7,0.3,0.7,0.7V11.4z"/>
	<path class="st0" d="M6.5,16.4c0,0.4-0.3,0.7-0.7,0.7H3.6c-0.4,0-0.7-0.3-0.7-0.7v-2.3c0-0.4,0.3-0.7,0.7-0.7h2.3
		c0.4,0,0.7,0.3,0.7,0.7V16.4z"/>
	<path class="st0" d="M6.5,21.3c0,0.4-0.3,0.7-0.7,0.7H3.6c-0.4,0-0.7-0.3-0.7-0.7V19c0-0.4,0.3-0.7,0.7-0.7h2.3
		c0.4,0,0.7,0.3,0.7,0.7V21.3z"/>
</g>
</svg>
