<?xml version="1.0" encoding="utf-8"?>
<!-- Generator: Adobe Illustrator 25.2.0, SVG Export Plug-In . SVG Version: 6.00 Build 0)  -->
<svg version="1.1" id="Layer_1" xmlns="http://www.w3.org/2000/svg" xmlns:xlink="http://www.w3.org/1999/xlink" x="0px" y="0px"
	 viewBox="0 0 23.5 23.5" style="enable-background:new 0 0 23.5 23.5;" xml:space="preserve">
<style type="text/css">
	.st0{fill:#2C7BE5;}
	.st1{fill:#FFFFFF;}
	.st2{fill-rule:evenodd;clip-rule:evenodd;fill:#2C7BE5;}
	.st3{fill:none;}
</style>
<g>
	<path class="st0" d="M18.5,19.3c0,0.4-0.4,0.8-0.8,0.8H5.1c-0.4,0-0.8-0.4-0.8-0.8V5.2c0-0.4,0.4-0.8,0.8-0.8h12.6
		c0.4,0,0.8,0.4,0.8,0.8V19.3z M15.6,5.4H7.2v6.5h8.5V5.4z M6.6,5.6H5.1v1.8h1.6V5.6z M6.6,8H5.1v1.8h1.6V8z M6.6,10.4H5.1v1.8h1.6
		V10.4z M6.6,12.8H5.1v1.8h1.6V12.8z M6.6,15.1H5.1v1.8h1.6V15.1z M6.6,17.5H5.1v1.8h1.6V17.5z M17.6,5.6h-1.6v1.8h1.6V5.6z M17.6,8
		h-1.6v1.8h1.6V8z M17.6,10.4h-1.6v1.8h1.6V10.4z M17.6,12.8h-1.6v1.8h1.6V12.8z M17.6,15.1h-1.6v1.8h1.6V15.1z M17.6,17.5h-1.6v1.8
		h1.6V17.5z M15.6,12.7H7.2v6.5h8.5V12.7z"/>
</g>
</svg>
