<?xml version="1.0" encoding="utf-8"?>
<!-- Generator: Adobe Illustrator 25.2.0, SVG Export Plug-In . SVG Version: 6.00 Build 0)  -->
<svg version="1.1" id="Layer_1" xmlns="http://www.w3.org/2000/svg" xmlns:xlink="http://www.w3.org/1999/xlink" x="0px" y="0px"
	 viewBox="0 0 23.5 23.5" style="enable-background:new 0 0 23.5 23.5;" xml:space="preserve">
<style type="text/css">
	.st0{fill:#2C7BE5;}
	.st1{fill:#FFFFFF;}
	.st2{fill-rule:evenodd;clip-rule:evenodd;fill:#2C7BE5;}
	.st3{fill:none;}
</style>
<g>
	<path class="st2" d="M19.7,20.4c-2.3,0-7.4,0-7.4,0h-0.2c0,0-5.3,0-7.4,0c-0.8,0-1.1-0.2-1-1c0.2-1,0.8-2.6,3-3.2
		c2.4-0.8,2.5-0.9,2.5-0.9s0.6-0.8,0.8-0.9c0-0.2,0.2-0.8-0.2-1.3C9.4,12.4,9,10.9,9.1,9.9c0-0.4-0.4-1-0.4-2.3
		c0-0.4-0.7-1.3-0.7-1.3S9.3,6,9.3,5.9C9.4,5.4,9,5,9,5s0.9-0.1,1.4,0.1C10.5,5,9.6,4.5,9.8,4.4c0.4-0.2,1.8,0,2.3,0.3
		c0-0.4-0.2-1.3-0.1-1.3c0.2,0.4,1.1,1.1,1.9,1.4c0.8,0.3,1,0.9,1.2,1.1c0.5,0.6,0.3,0.6,0.5,1.8c0,1.4-0.2,2-0.2,2.3
		c0.2,0,0.2,0.1,0.2,1c0,1-0.5,1.3-0.7,1.3c-0.1,0.5-1,1-0.5,2.1c0.3,0.1,0.8,0.9,0.8,0.9s0.2,0.1,2.5,0.9c2.2,0.7,2.8,2.2,3,3.2
		C20.8,20.1,20.5,20.4,19.7,20.4L19.7,20.4z"/>
</g>
</svg>
