<?xml version="1.0" encoding="utf-8"?>
<!-- Generator: Adobe Illustrator 25.2.0, SVG Export Plug-In . SVG Version: 6.00 Build 0)  -->
<svg version="1.1" id="Layer_1" xmlns="http://www.w3.org/2000/svg" xmlns:xlink="http://www.w3.org/1999/xlink" x="0px" y="0px"
	 viewBox="0 0 23.5 23.5" style="enable-background:new 0 0 23.5 23.5;" xml:space="preserve">
<style type="text/css">
	.st0{fill:#2C7BE5;}
	.st1{fill:#FFFFFF;}
	.st2{fill-rule:evenodd;clip-rule:evenodd;fill:#2C7BE5;}
	.st3{fill:none;}
</style>
<g>
	<path class="st2" d="M19.7,6.8c0,0-0.3,0.1-0.5-0.1c-0.2-0.2-0.5-0.5-0.9-0.9l-2.8,2.7c-0.2,0.2-0.6,0.3-0.8,0.1l-1-1
		c-0.2-0.2-0.1-0.5,0.1-0.8l2.8-2.7c-0.4-0.4-0.7-0.7-1-0.9c-0.2-0.2-0.1-0.5-0.1-0.5c0-0.3,0.3-0.6,0.6-0.6L20,1.9
		c0.3,0,0.6,0.2,0.6,0.6l-0.2,3.7C20.3,6.5,20,6.8,19.7,6.8L19.7,6.8z M7.4,16.6c0.4,0.4,0.7,0.7,1,0.9c0.2,0.2,0.1,0.5,0.1,0.5
		c0,0.3-0.3,0.6-0.6,0.6L4.1,19c-0.3,0-0.6-0.2-0.6-0.6l0.2-3.7C3.7,14.3,4,14,4.4,14c0,0,0.3-0.1,0.5,0.1c0.2,0.2,0.5,0.5,0.9,0.9
		l2.8-2.7c0.2-0.2,0.6-0.3,0.8-0.1l1,1c0.2,0.2,0.1,0.5-0.1,0.8L7.4,16.6L7.4,16.6z M9.3,8.7C9.1,8.8,8.8,8.8,8.5,8.5L5.8,5.8
		c-0.4,0.4-0.7,0.7-0.9,1C4.6,6.9,4.3,6.9,4.3,6.9C4,6.9,3.7,6.6,3.7,6.2L3.5,2.5c0-0.3,0.2-0.6,0.6-0.6l3.7,0.2
		c0.3,0,0.6,0.3,0.6,0.6c0,0,0.1,0.3-0.1,0.5C8.1,3.5,7.8,3.8,7.4,4.1l2.7,2.8c0.2,0.2,0.3,0.6,0.1,0.8L9.3,8.7L9.3,8.7z M14.8,12.2
		c0.2-0.2,0.5-0.1,0.8,0.1l2.7,2.8c0.4-0.4,0.7-0.7,0.9-1c0.2-0.2,0.5-0.1,0.5-0.1c0.3,0,0.6,0.3,0.6,0.6l0.2,3.8
		c0,0.3-0.2,0.6-0.6,0.6l-3.7-0.2c-0.3,0-0.6-0.3-0.6-0.6c0,0-0.1-0.3,0.1-0.5c0.2-0.2,0.5-0.6,0.9-0.9l-2.7-2.8
		c-0.2-0.2-0.3-0.6-0.1-0.8L14.8,12.2L14.8,12.2z"/>
</g>
</svg>
