<?xml version="1.0" encoding="utf-8"?>
<!-- Generator: Adobe Illustrator 25.2.0, SVG Export Plug-In . SVG Version: 6.00 Build 0)  -->
<svg version="1.1" id="Layer_1" xmlns="http://www.w3.org/2000/svg" xmlns:xlink="http://www.w3.org/1999/xlink" x="0px" y="0px"
	 viewBox="0 0 23.5 23.5" style="enable-background:new 0 0 23.5 23.5;" xml:space="preserve">
<style type="text/css">
	.st0{fill:#2C7BE5;}
	.st1{fill:#FFFFFF;}
	.st2{fill-rule:evenodd;clip-rule:evenodd;fill:#2C7BE5;}
	.st3{fill:none;}
</style>
<g>
	<path class="st3" d="M13.5,10.1c-4.4-0.8-5.8,2.3-5.8,2.3c-4.1-0.3-4.2,2.8-4.2,2.8C4.5,19.6,8.4,18,8.4,18
		c1.2,1.6,3.4,1.8,3.5,1.8C15.4,19.4,16,18,16,18c5,1.1,4.8-2.8,4.8-2.8c-0.1-3.5-4.4-2.9-4.4-2.9c-0.2-1-2.4-2.1-2.4-2.1
		c0,0,0,0,0,0"/>
	<path class="st3" d="M13.2,8.9c-0.4-1-1.4-2.3-3.8-2.1c0,0-2.5,1.1-2,4C7.8,10.2,9.7,8.4,13.2,8.9z"/>
	<path class="st0" d="M17.1,11.1c-0.6-1-2-1.7-2.5-1.9c-1.3-4.5-5.4-3.9-5.4-3.9c-2.9,1.1-3.1,4-3,5.6c-3.7,0.4-3.9,4.6-3.9,4.6
		c1,5.7,5.7,3.8,5.7,3.8c1.1,1.2,3.7,1.7,3.8,1.7c3.5-0.4,4.3-1.7,4.3-1.7c5.8,1.5,6-3.8,6-3.8C22,11.1,17.1,11.1,17.1,11.1z
		 M9.4,6.7c2.4-0.1,3.4,1.1,3.8,2.1c-3.5-0.5-5.4,1.3-5.9,1.9C6.9,7.9,9.4,6.7,9.4,6.7z M14,10.2C14,10.2,14,10.2,14,10.2
		c0,0,2.2,1.1,2.4,2.1c0,0,4.2-0.6,4.4,2.9c0,0,0.2,3.9-4.8,2.8c0,0-0.5,1.4-4.1,1.7c-0.1,0-2.3-0.2-3.5-1.8c0,0-3.9,1.6-4.8-2.8
		c0,0,0.1-3,4.2-2.8c0,0,1.4-3.1,5.8-2.3"/>
	<path class="st0" d="M4.8,9.6c0,0.3-0.3,0.6-0.6,0.6H2.9c-0.3,0-0.6-0.3-0.6-0.6l0,0C2.2,9.2,2.5,9,2.9,9h1.3
		C4.5,9,4.8,9.2,4.8,9.6L4.8,9.6z"/>
	<path class="st0" d="M18.3,9.6c0,0.3-0.3,0.6-0.6,0.6h-1.3c-0.3,0-0.6-0.3-0.6-0.6l0,0c0-0.3,0.3-0.6,0.6-0.6h1.3
		C18,9,18.3,9.2,18.3,9.6L18.3,9.6z"/>
	<path class="st0" d="M15.9,3.8c-0.2-0.2-0.6-0.2-0.9,0l-0.9,0.9c-0.2,0.2-0.2,0.6,0,0.9l0,0c0.2,0.2,0.6,0.2,0.9,0l0.9-0.9
		C16.2,4.5,16.2,4.1,15.9,3.8L15.9,3.8z"/>
	<path class="st0" d="M4.6,3.9c0.2-0.2,0.6-0.2,0.9,0l0.9,0.9c0.2,0.2,0.2,0.6,0,0.9l0,0C6.1,6,5.7,6,5.5,5.7L4.6,4.8
		C4.4,4.6,4.3,4.2,4.6,3.9L4.6,3.9z"/>
	<path class="st0" d="M10.3,4C9.9,4,9.6,3.8,9.6,3.4l0-1.3c0-0.3,0.3-0.6,0.6-0.6l0,0c0.3,0,0.6,0.3,0.6,0.6l0,1.3
		C10.9,3.8,10.6,4,10.3,4L10.3,4z"/>
</g>
</svg>
