<?xml version="1.0" encoding="utf-8"?>
<!-- Generator: Adobe Illustrator 25.2.0, SVG Export Plug-In . SVG Version: 6.00 Build 0)  -->
<svg version="1.1" id="Layer_1" xmlns="http://www.w3.org/2000/svg" xmlns:xlink="http://www.w3.org/1999/xlink" x="0px" y="0px"
	 viewBox="0 0 23.5 23.5" style="enable-background:new 0 0 23.5 23.5;" xml:space="preserve">
<style type="text/css">
	.st0{fill:#2C7BE5;}
	.st1{fill:#FFFFFF;}
	.st2{fill-rule:evenodd;clip-rule:evenodd;fill:#2C7BE5;}
	.st3{fill:none;}
</style>
<path class="st2" d="M17.1,9c0-0.5,0-1,0-1S15,7.7,13.5,8.8c-0.9,0.6-1,0.8-1.1,0.9c0,0-0.1-0.1,0-0.5c1.3-3.4,4.8-3.3,4.8-3.3
	s0-0.3,0-0.8c0-0.6,0.2-0.6,0.6-0.3C18.6,5.5,20.2,7,20.2,7s-1.5,1.4-2.3,2.3C17.4,9.6,17.2,9.8,17.1,9L17.1,9z M17.1,13.6
	c0.4-0.9,0.8-2,1-2.6c0.2-0.4,0.6-1.7,1.4-1.5c0.8,0.3,0.8,0.7,0.4,1.8C18.2,16,18.1,16,17.9,16c-0.9,0-5.6,0-9.3,0
	c-0.4,0-1.8-4.4-2.3-6C6.2,9.7,5.9,9.6,5.6,9.6c-0.4,0-0.8,0-1.2,0c-1.8,0-1.8-1.9,0-1.9c1.3,0,2.1,0,2.6,0c0.4,0,0.7,0.6,0.8,1
	c0.5,1.3,1.3,3.7,1.8,4.9c0.2,0.5,0.4,0.6,0.9,0.6c1.3,0,4.5,0,5.8,0C16.8,14.2,17,14,17.1,13.6L17.1,13.6z M10.9,16.6
	c0.7,0,1.5,0.5,1.5,1.2c0,0.7-0.8,1.5-1.5,1.5c-0.8,0-1.5-0.7-1.5-1.5C9.4,17,10.1,16.6,10.9,16.6L10.9,16.6z M15.8,16.6
	c0.8,0,1.5,0.5,1.5,1.2c0,0.8-0.7,1.5-1.5,1.5s-1.5-0.7-1.5-1.5C14.3,17,15,16.6,15.8,16.6L15.8,16.6z"/>
</svg>
