<?xml version="1.0" encoding="utf-8"?>
<!-- Generator: Adobe Illustrator 25.2.0, SVG Export Plug-In . SVG Version: 6.00 Build 0)  -->
<svg version="1.1" id="Layer_1" xmlns="http://www.w3.org/2000/svg" xmlns:xlink="http://www.w3.org/1999/xlink" x="0px" y="0px"
	 viewBox="0 0 23.5 23.5" style="enable-background:new 0 0 23.5 23.5;" xml:space="preserve">
<style type="text/css">
	.st0{fill:#2C7BE5;}
	.st1{fill:#FFFFFF;}
	.st2{fill-rule:evenodd;clip-rule:evenodd;fill:#2C7BE5;}
	.st3{fill:none;}
</style>
<g>
	<path class="st2" d="M18.1,20h-1c0,0,0,0.2,0,0.3c0,0.2-0.1,0.4-0.3,0.4h-1.7c-0.2,0-0.3-0.1-0.3-0.3c0,0,0-0.3,0-0.3H9.3
		c0,0,0,0.3,0,0.3c0,0.2-0.1,0.3-0.3,0.3h-2c-0.2,0-0.3-0.1-0.3-0.3c0,0,0-0.3,0-0.3h-1c-0.7,0-1.4-0.7-1.4-1.4V7.4h15.4v11.3
		C19.5,19.3,18.8,20,18.1,20L18.1,20z M11.8,9.1c-2.6,0-4.6,2.1-4.6,4.6c0,2.5,2.1,4.6,4.6,4.6c2.5,0,4.6-2.1,4.6-4.6
		C16.4,11.2,14.4,9.1,11.8,9.1L11.8,9.1z M11.8,17.6c-2.2,0-3.9-1.8-3.9-3.9c0-2.2,1.8-3.9,3.9-3.9c2.2,0,3.9,1.8,3.9,3.9
		C15.7,15.9,14,17.6,11.8,17.6L11.8,17.6z M11.8,10.8c-1.6,0-2.9,1.3-2.9,2.9c0,1.6,1.3,2.9,2.9,2.9c1.6,0,2.9-1.3,2.9-2.9
		C14.7,12.1,13.4,10.8,11.8,10.8L11.8,10.8z M4.2,4.9c0-0.7,0.6-1.2,1.2-1.2h12.9c0.7,0,1.2,0.5,1.2,1.2v1.8H4.2V4.9L4.2,4.9z
		 M17.5,6c0.3,0,0.7-0.3,0.7-0.7c0-0.3-0.3-0.7-0.7-0.7c-0.3,0-0.7,0.3-0.7,0.7C16.8,5.7,17.1,6,17.5,6L17.5,6z M15.1,6
		c0.3,0,0.7-0.3,0.7-0.7c0-0.3-0.3-0.7-0.7-0.7c-0.3,0-0.7,0.3-0.7,0.7C14.4,5.7,14.7,6,15.1,6L15.1,6z"/>
</g>
</svg>
