<?xml version="1.0" encoding="utf-8"?>
<!-- Generator: Adobe Illustrator 25.2.0, SVG Export Plug-In . SVG Version: 6.00 Build 0)  -->
<svg version="1.1" id="Layer_1" xmlns="http://www.w3.org/2000/svg" xmlns:xlink="http://www.w3.org/1999/xlink" x="0px" y="0px"
	 viewBox="0 0 23.5 23.5" style="enable-background:new 0 0 23.5 23.5;" xml:space="preserve">
<style type="text/css">
	.st0{fill:#2C7BE5;}
	.st1{fill:#FFFFFF;}
	.st2{fill-rule:evenodd;clip-rule:evenodd;fill:#2C7BE5;}
	.st3{fill:none;}
</style>
<g>
	<path class="st0" d="M4.2,6.5V4.2h4.6c0-0.6,0.5-1.2,1.2-1.2h3.4c0.6,0,1.2,0.5,1.2,1.2h4.6v2.3H4.2L4.2,6.5z M15.7,21.5h-8
		c-1.3,0-2.3-1-2.3-2.3V7.7H18v11.5C18,20.4,17,21.5,15.7,21.5L15.7,21.5z M10,10H8.8v9.2H10V10L10,10z M14.6,10h-1.2v9.2h1.2V10
		L14.6,10z"/>
</g>
</svg>
