<?xml version="1.0" encoding="utf-8"?>
<!-- Generator: Adobe Illustrator 25.2.0, SVG Export Plug-In . SVG Version: 6.00 Build 0)  -->
<svg version="1.1" id="Layer_1" xmlns="http://www.w3.org/2000/svg" xmlns:xlink="http://www.w3.org/1999/xlink" x="0px" y="0px"
	 viewBox="0 0 23.5 23.5" style="enable-background:new 0 0 23.5 23.5;" xml:space="preserve">
<style type="text/css">
	.st0{fill:#2C7BE5;}
	.st1{fill:#FFFFFF;}
	.st2{fill-rule:evenodd;clip-rule:evenodd;fill:#2C7BE5;}
	.st3{fill:none;}
</style>
<g>
	<path class="st2" d="M18.3,8.7c0-1.2,0-2.9,0-3.2c0-0.8-0.4-1.3-1.2-1.3c-0.9,0-2.2,0-3,0c-1.1,0-1.3,0.7-1.3,1.4
		c0,0.7,0,3.1,0,3.1h0.9c0.3,0,0.6,0.2,0.6,0.5v9.3c0,0.3-0.3,0.5-0.6,0.5H3.5c-0.3,0-0.6-0.2-0.6-0.5V9.3c0-0.3,0.3-0.5,0.6-0.5
		h7.7V5.7c0,0-0.3-2.9,3-2.9c3,0,3.1,0,3.2,0c0,0,2.6-0.2,2.6,2.9c0,3.1,0,3.1,0,3.1C19.9,9.9,18.3,9.9,18.3,8.7L18.3,8.7z M9,12.2
		c0-0.1-0.1-0.3-0.3-0.3H8.4c-0.1,0-0.3,0.1-0.3,0.3v2c0,0.2,0.1,0.3,0.3,0.3h0.4c0.1,0,0.3-0.1,0.3-0.3V12.2L9,12.2z"/>
</g>
</svg>
