<?xml version="1.0" encoding="utf-8"?>
<!-- Generator: Adobe Illustrator 25.2.0, SVG Export Plug-In . SVG Version: 6.00 Build 0)  -->
<svg version="1.1" id="Layer_1" xmlns="http://www.w3.org/2000/svg" xmlns:xlink="http://www.w3.org/1999/xlink" x="0px" y="0px"
	 viewBox="0 0 23.5 23.5" style="enable-background:new 0 0 23.5 23.5;" xml:space="preserve">
<style type="text/css">
	.st0{fill:#2C7BE5;}
	.st1{fill:#FFFFFF;}
	.st2{fill-rule:evenodd;clip-rule:evenodd;fill:#2C7BE5;}
	.st3{fill:none;}
</style>
<g>
	<path class="st0" d="M18.5,11.2c0-0.2,0-0.3,0-0.5c0-2.5-2.1-4.6-4.6-4.6c-2.5,0-4.6,2.1-4.6,4.6c0-1.3-1-2.3-2.3-2.3
		c-1.3,0-2.3,1-2.3,2.3c0,0.2,0,0.3,0,0.5c-1.4,0.6-2.3,1.7-2.3,3c0,1.9,2.1,3.4,4.6,3.4h3.4v-2.3H8.5c-0.4-1.1-0.4-1.3,0-1.8
		l2.3-2.5c0.4-0.4,1.2-0.5,1.6,0l2.2,2.5c0.4,0.5,0.4,0.6,0,1.8h-1.9v2.3h3.4c2.5,0,4.6-1.5,4.6-3.4C20.8,12.9,19.9,11.8,18.5,11.2
		L18.5,11.2z"/>
</g>
</svg>
