<?xml version="1.0" encoding="utf-8"?>
<!-- Generator: Adobe Illustrator 25.2.0, SVG Export Plug-In . SVG Version: 6.00 Build 0)  -->
<svg version="1.1" id="Layer_1" xmlns="http://www.w3.org/2000/svg" xmlns:xlink="http://www.w3.org/1999/xlink" x="0px" y="0px"
	 viewBox="0 0 23.5 23.5" style="enable-background:new 0 0 23.5 23.5;" xml:space="preserve">
<style type="text/css">
	.st0{fill:#2C7BE5;}
	.st1{fill:#FFFFFF;}
	.st2{fill-rule:evenodd;clip-rule:evenodd;fill:#2C7BE5;}
	.st3{fill:none;}
</style>
<g>
	<g>
		<g>
			<path class="st0" d="M20.7,18c0,0.9-0.7,1.6-1.6,1.6H4.4c-0.9,0-1.6-0.7-1.6-1.6V6.1c0-0.9,0.7-1.6,1.6-1.6h14.7
				c0.9,0,1.6,0.7,1.6,1.6V18z M3.9,7.8v10c0,0.4,0.4,0.8,0.8,0.8h14c0.4,0,0.8-0.4,0.8-0.8v-10H3.9z"/>
		</g>
		<path class="st0" d="M8,4.9c0,0.4-0.4,0.8-0.8,0.8H6.3c-0.4,0-0.8-0.4-0.8-0.8V3.8C5.5,3.4,5.9,3,6.3,3h0.8C7.6,3,8,3.4,8,3.8V4.9
			z"/>
		<path class="st0" d="M17.8,4.9c0,0.4-0.4,0.8-0.8,0.8h-0.8c-0.4,0-0.8-0.4-0.8-0.8V3.8c0-0.4,0.4-0.8,0.8-0.8H17
			c0.4,0,0.8,0.4,0.8,0.8V4.9z"/>
	</g>
	<rect x="7.7" y="9.4" class="st0" width="2" height="2"/>
	<rect x="10.6" y="9.4" class="st0" width="2" height="7.8"/>
	<rect x="13.4" y="9.4" class="st0" width="2" height="2"/>
	<rect x="16.3" y="9.4" class="st0" width="2" height="2"/>
	<rect x="16.3" y="12.4" class="st0" width="2" height="2"/>
	<rect x="8" y="12.4" class="st0" width="7.4" height="2"/>
	<rect x="5.2" y="12.4" class="st0" width="2" height="2"/>
	<rect x="5.2" y="15.3" class="st0" width="2" height="2"/>
	<rect x="7.9" y="15.3" class="st0" width="2" height="2"/>
	<rect x="13.4" y="15.3" class="st0" width="2" height="2"/>
	<rect x="16.1" y="15.3" class="st0" width="2" height="2"/>
</g>
</svg>
