<?xml version="1.0" encoding="utf-8"?>
<!-- Generator: Adobe Illustrator 25.2.0, SVG Export Plug-In . SVG Version: 6.00 Build 0)  -->
<svg version="1.1" id="Layer_1" xmlns="http://www.w3.org/2000/svg" xmlns:xlink="http://www.w3.org/1999/xlink" x="0px" y="0px"
	 viewBox="0 0 23.5 23.5" style="enable-background:new 0 0 23.5 23.5;" xml:space="preserve">
<style type="text/css">
	.st0{fill:#2C7BE5;}
	.st1{fill:#FFFFFF;}
	.st2{fill-rule:evenodd;clip-rule:evenodd;fill:#2C7BE5;}
	.st3{fill:none;}
</style>
<g>
	<path class="st0" d="M21.4,16.6c0,0-7-11.7-8-13c-1-1.3-2.2,0-2.2,0S4.3,15,3.4,16.6c-1,1.6,0.6,2.2,0.6,2.2l16.8,0
		C22.6,18.4,21.4,16.6,21.4,16.6z M18.4,17.2l-11.8,0c0,0-1.1-0.4-0.4-1.5c0.7-1.1,5.5-8.9,5.5-8.9s0.8-0.9,1.5,0s5.6,8.9,5.6,8.9
		S19.6,16.9,18.4,17.2z"/>
	<path class="st0" d="M13.4,15.2c0,0.5-0.4,0.9-1,0.9l0,0c-0.5,0-0.9-0.4-0.9-0.9v-2.7c0-0.5,0.4-0.9,0.9-0.9l0,0c0.5,0,1,0.4,1,0.9
		V15.2z"/>
	<path class="st0" d="M11.5,9.7c0,0.5,0.4,0.9,0.9,0.9c0.5,0,0.9-0.4,0.9-0.9c0-0.5-0.4-0.9-0.9-0.9C11.9,8.8,11.5,9.2,11.5,9.7z"/>
</g>
</svg>
