<?xml version="1.0" encoding="utf-8"?>
<!-- Generator: Adobe Illustrator 25.2.0, SVG Export Plug-In . SVG Version: 6.00 Build 0)  -->
<svg version="1.1" id="Layer_1" xmlns="http://www.w3.org/2000/svg" xmlns:xlink="http://www.w3.org/1999/xlink" x="0px" y="0px"
	 viewBox="0 0 23.5 23.5" style="enable-background:new 0 0 23.5 23.5;" xml:space="preserve">
<style type="text/css">
	.st0{fill:#2C7BE5;}
	.st1{fill:#FFFFFF;}
	.st2{fill-rule:evenodd;clip-rule:evenodd;fill:#2C7BE5;}
	.st3{fill:none;}
</style>
<g>
	<path class="st2" d="M19.9,12.7h0.6l-1.2,5.9H5.1l-1.2-5.9h0.6c-0.9,0-1.8-0.9-1.8-1.8c0-0.9,0.9-1.8,1.8-1.8h5.7
		c-0.2,0.3-0.3,0.8-0.3,1.2c0,1.3,1.1,2.4,2.4,2.4c1.3,0,2.4-1.1,2.4-2.4c0-0.4-0.1-0.8-0.3-1.2h5.7c0.9,0,1.8,0.9,1.8,1.8
		C21.7,11.8,20.8,12.7,19.9,12.7L19.9,12.7z M8.6,13.9H7.4l1.2,3.6V13.9L8.6,13.9z M11,13.9H9.8l1.2,3.6V13.9L11,13.9z M13.4,13.9
		v3.6l1.2-3.6H13.4L13.4,13.9z M15.8,13.9v3.6l1.2-3.6H15.8L15.8,13.9z M12.2,11.5c-0.6,0-1.2-0.6-1.2-1.2V4.4
		c0-0.6,0.6-1.2,1.2-1.2c0.6,0,1.2,0.6,1.2,1.2v5.9C13.4,10.9,12.8,11.5,12.2,11.5L12.2,11.5z"/>
</g>
</svg>
