<?xml version="1.0" encoding="utf-8"?>
<!-- Generator: Adobe Illustrator 25.2.0, SVG Export Plug-In . SVG Version: 6.00 Build 0)  -->
<svg version="1.1" id="Layer_1" xmlns="http://www.w3.org/2000/svg" xmlns:xlink="http://www.w3.org/1999/xlink" x="0px" y="0px"
	 viewBox="0 0 23.5 23.5" style="enable-background:new 0 0 23.5 23.5;" xml:space="preserve">
<style type="text/css">
	.st0{fill:#2C7BE5;}
	.st1{fill:#FFFFFF;}
	.st2{fill-rule:evenodd;clip-rule:evenodd;fill:#2C7BE5;}
	.st3{fill:none;}
</style>
<path class="st2" d="M9.8,15.8h0.1v-0.6C9.9,15.4,9.9,15.6,9.8,15.8L9.8,15.8z M7.6,17c1,0,1.9-0.5,2.2-1.2c0.1-0.2,0.1-0.4,0.1-0.6
	V8.7h7.1v5c-0.3-0.1-0.8-0.2-1.2-0.2c-1.3,0-2.4,0.8-2.4,1.8s1.1,1.8,2.4,1.8c1.3,0,2.4-0.8,2.4-1.8c0-0.2,0-0.4-0.1-0.6h0.1V7.5
	c0-1.2-1.2-2.4-2.4-2.4h-4.8c-1.2,0-2.4,1.2-2.4,2.4l0,0v1.2v5c-0.3-0.1-0.8-0.2-1.2-0.2c-1.3,0-2.4,0.8-2.4,1.8S6.3,17,7.6,17
	L7.6,17z"/>
</svg>
