<?xml version="1.0" encoding="utf-8"?>
<!-- Generator: Adobe Illustrator 25.2.0, SVG Export Plug-In . SVG Version: 6.00 Build 0)  -->
<svg version="1.1" id="Layer_1" xmlns="http://www.w3.org/2000/svg" xmlns:xlink="http://www.w3.org/1999/xlink" x="0px" y="0px"
	 viewBox="0 0 23.5 23.5" style="enable-background:new 0 0 23.5 23.5;" xml:space="preserve">
<style type="text/css">
	.st0{fill:#2C7BE5;}
	.st1{fill:#FFFFFF;}
	.st2{fill-rule:evenodd;clip-rule:evenodd;fill:#2C7BE5;}
	.st3{fill:none;}
</style>
<g>
	<path class="st0" d="M17,9.6c-0.3,0-0.8-0.1-1.2-0.1c-1.3-0.4-1.9-0.7-2.2-0.8C12.5,7.9,12,7.2,12,6c0-2,2.2-3.6,5-3.6
		c2.8,0,4.5,1.6,4.5,3.6C21.5,8,19.8,9.6,17,9.6L17,9.6z M10.9,16.1c1.7,0.3,2.9,1.3,3.1,1.7c0.4,0.7,0.4,2.4,0.4,2.4H2.5
		c0,0-0.1-1.8,0.5-2.5c0.3-0.3,1.3-1.4,3.1-1.6C7.8,15.9,7.3,14,7.3,14c0.1,0,0-0.4,0-0.4s-1.2-1.2-1.2-2.3c0-1.1,0-1.6,0-1.6
		s0.2-2.6,2-2.6l1,0.5c1.6,0,1.8,2.1,1.8,2.1v1.8c0,0-0.2,1.5-1.2,2.1c0,0-0.1,0.4,0,0.4C9.7,13.9,9.1,15.9,10.9,16.1L10.9,16.1z
		 M13.2,11.9c-0.7,0-1.2-0.5-1.2-1.2c0-0.7,0.5-1.2,1.2-1.2c0.7,0,1.2,0.5,1.2,1.2C14.4,11.4,13.8,11.9,13.2,11.9L13.2,11.9z"/>
</g>
</svg>
