<?xml version="1.0" encoding="utf-8"?>
<!-- Generator: Adobe Illustrator 25.2.0, SVG Export Plug-In . SVG Version: 6.00 Build 0)  -->
<svg version="1.1" id="Layer_1" xmlns="http://www.w3.org/2000/svg" xmlns:xlink="http://www.w3.org/1999/xlink" x="0px" y="0px"
	 viewBox="0 0 23.5 23.5" style="enable-background:new 0 0 23.5 23.5;" xml:space="preserve">
<style type="text/css">
	.st0{fill:#2C7BE5;}
	.st1{fill:#FFFFFF;}
	.st2{fill-rule:evenodd;clip-rule:evenodd;fill:#2C7BE5;}
	.st3{fill:none;}
</style>
<g>
	<path class="st0" d="M16.9,19.5c0.4-0.4,0.5-0.9,0.2-1.2c-0.7-0.7-1.2,0-1.2,0c-2.5,0.9-5.8,0.6-7.2,0.6c-1.5,0-3.7-0.2-4.5-1.9
		c-0.8-1.7,3-2.1,3-2.1l1.3,0.3c5.6,0.5,5.2-0.3,5.6-0.3c0.4,0,2.2,0.3,1.9,0.6c-0.3,0.3-2,1-2,1s-2.1-0.1-4.4-0.1
		c-2.3,0-1.8,0.4-1.8,0.4c0.4,0.8,4.1,0.7,6.9-0.2c2.8-0.9,2.3-2.3,2.3-2.3s0-0.8-0.9-0.2c-0.9,0.7-6.4,0.7-9.2,0.5
		c-2.8-0.2-2.6-1.6-2.6-2.5C4.3,11.3,7,11,7,11s0.3,0.3,0.7,0.4c0.4,0.1,6.1,0,6.4,0c0.3,0,0.5-0.5,0.5-0.5c1-0.1,1.8,0.7,1.8,0.7
		c-0.2,0.4-2.2,1-2.2,1H8.9c-1.9,0-1.7,0.4-0.9,0.6c0.6,0.1,1.3,0.1,1.3,0.1c9.2,0,8.1-2.6,7.6-3c-0.5-0.4-0.9,0-0.9,0
		s-0.7,0.7-4.6,0.8c-3.9,0.1-5-0.3-5-0.3S4,10.6,4.2,9.1C4.7,6.6,9.8,6.5,13.6,7c2,0.3,2.6,0.9,2.6,0.9c-0.6,0.6-1.9,1-1.9,1
		s-1.7,0-3.4-0.1C10,8.7,9,8.7,8.3,8.8C6.6,9.2,7.9,9.5,7.9,9.5s7.9,0.7,8.8-1.8C18.3,3.4,6,5.2,6,5.2V3.4
		c8.8-1.6,11.2,0.5,12.5,2.1c1.3,1.6-0.1,3.3-0.1,3.3S18,9.1,18.3,9.3c1.6,1.5,0.4,3.1,0,3.4c-0.4,0.4,0.2,0.5,0.2,0.5
		c1.5,1.3,0.2,3.2-0.2,3.4C18,16.9,18.2,17,18.2,17c1.2,0.7,1.2,1.7,0.9,2.5H16.9z"/>
</g>
</svg>
