<?xml version="1.0" encoding="utf-8"?>
<!-- Generator: Adobe Illustrator 25.2.0, SVG Export Plug-In . SVG Version: 6.00 Build 0)  -->
<svg version="1.1" id="Layer_1" xmlns="http://www.w3.org/2000/svg" xmlns:xlink="http://www.w3.org/1999/xlink" x="0px" y="0px"
	 viewBox="0 0 23.5 23.5" style="enable-background:new 0 0 23.5 23.5;" xml:space="preserve">
<style type="text/css">
	.st0{fill:#2C7BE5;}
	.st1{fill:#FFFFFF;}
	.st2{fill-rule:evenodd;clip-rule:evenodd;fill:#2C7BE5;}
	.st3{fill:none;}
</style>
<g>
	<path class="st2" d="M18.7,13.8h-3.5l2.4,2.4c0.5,0.5,0.6,1.3,0.2,1.7l-0.7,0.7c-0.4,0.4-1.2,0.3-1.7-0.2L13,15.9v3.4
		c0,0.8-0.5,1.4-1.1,1.4h-0.9c-0.6,0-1.1-0.6-1.1-1.4v-3.5l-2.4,2.4c-0.5,0.5-1.3,0.6-1.7,0.2l-0.7-0.7c-0.4-0.4-0.3-1.2,0.2-1.7
		l2.3-2.3H4.4c-0.8,0-1.4-0.5-1.4-1.1v-0.9c0-0.6,0.6-1.1,1.4-1.1h3.4L5.4,8.2C4.9,7.7,4.8,6.9,5.2,6.5l0.7-0.7
		C6.3,5.4,7,5.5,7.6,6.1L10,8.5V5c0-0.8,0.5-1.4,1.1-1.4H12C12.6,3.6,13,4.2,13,5v3.4L15.5,6c0.5-0.5,1.3-0.6,1.7-0.2l0.7,0.7
		c0.4,0.4,0.3,1.2-0.2,1.7l-2.6,2.6h3.6c0.8,0,1.4,0.5,1.4,1.1v0.9C20.1,13.3,19.5,13.8,18.7,13.8L18.7,13.8z"/>
</g>
</svg>
