<?xml version="1.0" encoding="utf-8"?>
<!-- Generator: Adobe Illustrator 25.2.0, SVG Export Plug-In . SVG Version: 6.00 Build 0)  -->
<svg version="1.1" id="Layer_1" xmlns="http://www.w3.org/2000/svg" xmlns:xlink="http://www.w3.org/1999/xlink" x="0px" y="0px"
	 viewBox="0 0 23.5 23.5" style="enable-background:new 0 0 23.5 23.5;" xml:space="preserve">
<style type="text/css">
	.st0{fill:#2C7BE5;}
	.st1{fill:#FFFFFF;}
	.st2{fill-rule:evenodd;clip-rule:evenodd;fill:#2C7BE5;}
	.st3{fill:none;}
</style>
<g>
	<path class="st2" d="M6,3.2c0.5-0.3,4.3,3.2,4.2,4.1C10.1,8.1,8.1,9.7,8.1,10c0,0.3,0.1,1.5,1.9,3.2c1.7,1.7,3.3,2.4,3.7,2.4
		c0.4,0,2.2-2.2,2.6-2.2c0.4,0,3.5,2,4,4.3c0.1,0.4-1.9,2.6-4.5,2.6c-2.6,0-6.1-1.9-8.6-4.5C4.7,13.3,0.4,6.5,6,3.2L6,3.2z"/>
</g>
</svg>
