<?xml version="1.0" encoding="utf-8"?>
<!-- Generator: Adobe Illustrator 25.2.0, SVG Export Plug-In . SVG Version: 6.00 Build 0)  -->
<svg version="1.1" id="Layer_1" xmlns="http://www.w3.org/2000/svg" xmlns:xlink="http://www.w3.org/1999/xlink" x="0px" y="0px"
	 viewBox="0 0 23.5 23.5" style="enable-background:new 0 0 23.5 23.5;" xml:space="preserve">
<style type="text/css">
	.st0{fill:#2C7BE5;}
	.st1{fill:#FFFFFF;}
	.st2{fill-rule:evenodd;clip-rule:evenodd;fill:#2C7BE5;}
	.st3{fill:none;}
</style>
<g>
	<path class="st0" d="M19.9,7.3h-2.6c0-0.2,0-0.4-0.1-0.6l-2.4-4.1c-0.3-0.5-0.9-0.7-1.4-0.4C13,2.4,12.8,3,13.1,3.6l2.2,3.8H9
		l2.1-3.6c0.3-0.5,0.2-1.1-0.3-1.4c-0.4-0.3-1.1-0.1-1.4,0.4L7.1,6.9C7,7,7,7.2,7,7.3H4.4c-0.6,0-1.1,0.5-1.1,1.1
		c0,0.6,0.5,1.1,1.1,1.1h15.5C20.5,9.5,21,9,21,8.4C21,7.8,20.5,7.3,19.9,7.3z"/>
	<path class="st0" d="M4,11l0.6,8.4c0,0,0.3,1.2,1.5,1.3h11.7c0,0,1.3,0,1.6-1.5c0.3-1.5,0.6-8.1,0.6-8.1L4,11z M8.9,17.7
		c0,0.5-0.4,0.9-1,0.9c-0.5,0-1-0.4-1-0.9v-3.9c0-0.5,0.4-0.9,1-0.9c0.5,0,1,0.4,1,0.9V17.7z M13,17.6c0,0.5-0.4,0.9-1,0.9
		c-0.5,0-1-0.4-1-0.9v-3.9c0-0.5,0.4-0.9,1-0.9c0.5,0,1,0.4,1,0.9V17.6z M16.7,17.6c0,0.5-0.4,0.9-1,0.9c-0.5,0-1-0.4-1-0.9v-3.9
		c0-0.5,0.4-0.9,1-0.9c0.5,0,1,0.4,1,0.9V17.6z"/>
</g>
</svg>
