<?xml version="1.0" encoding="utf-8"?>
<!-- Generator: Adobe Illustrator 25.2.0, SVG Export Plug-In . SVG Version: 6.00 Build 0)  -->
<svg version="1.1" id="Layer_1" xmlns="http://www.w3.org/2000/svg" xmlns:xlink="http://www.w3.org/1999/xlink" x="0px" y="0px"
	 viewBox="0 0 23.5 23.5" style="enable-background:new 0 0 23.5 23.5;" xml:space="preserve">
<style type="text/css">
	.st0{fill:#2C7BE5;}
	.st1{fill:#FFFFFF;}
	.st2{fill-rule:evenodd;clip-rule:evenodd;fill:#2C7BE5;}
	.st3{fill:none;}
</style>
<g>
	<path class="st2" d="M20,9.7c-0.6,0.3-1.8,0.9-2.4,1.2c-0.2,0.1-0.4,0.1-0.5-0.1c-0.3-0.6-1-1.8-1-1.8s0,7.8,0,9.8
		c0,0.3-0.2,0.4-0.6,0.4c-0.8,0-2.2,0-3.3,0c0,0-0.6,0-1.3,0c-1.1,0-2.5,0-3.3,0c-0.3,0-0.5-0.2-0.5-0.4c0-2,0-9.8,0-9.8
		s-0.7,1.2-1,1.8C6.2,11,6,11,5.8,10.9C5.2,10.6,4,10,3.4,9.7C3.2,9.6,3.1,9.3,3.3,9c0.6-1.2,2.1-4.3,2.4-4.6C6.2,4,7.1,3.9,9.6,3.2
		c0.5,0.9,2,1,2.1,1c0.1,0,1.7-0.1,2.1-1c2.4,0.7,3.4,0.8,3.9,1.2c0.4,0.3,1.8,3.4,2.4,4.6C20.3,9.3,20.3,9.6,20,9.7L20,9.7z"/>
</g>
</svg>
