<?xml version="1.0" encoding="utf-8"?>
<!-- Generator: Adobe Illustrator 25.2.0, SVG Export Plug-In . SVG Version: 6.00 Build 0)  -->
<svg version="1.1" id="Layer_1" xmlns="http://www.w3.org/2000/svg" xmlns:xlink="http://www.w3.org/1999/xlink" x="0px" y="0px"
	 viewBox="0 0 23.5 23.5" style="enable-background:new 0 0 23.5 23.5;" xml:space="preserve">
<style type="text/css">
	.st0{fill:#2C7BE5;}
	.st1{fill:#FFFFFF;}
	.st2{fill-rule:evenodd;clip-rule:evenodd;fill:#2C7BE5;}
	.st3{fill:none;}
</style>
<path class="st0" d="M10.9,21.2v-2.4h2.4v2.4H10.9L10.9,21.2z M10.9,4.6V2.2h2.4v2.4H10.9L10.9,4.6z M8.5,18.8l3.6-4.7l3.6,4.7H8.5
	L8.5,18.8z M12.1,9.3L8.5,4.6h7.1L12.1,9.3L12.1,9.3z M2.6,12.9v-2.4H5v2.4H2.6L2.6,12.9z M19.2,12.9v-2.4h2.4v2.4H19.2L19.2,12.9z
	 M5,15.3V8.2l4.7,3.6L5,15.3L5,15.3z M14.5,11.7l4.8-3.6v7.1L14.5,11.7L14.5,11.7z"/>
</svg>
