<?xml version="1.0" encoding="utf-8"?>
<!-- Generator: Adobe Illustrator 25.2.0, SVG Export Plug-In . SVG Version: 6.00 Build 0)  -->
<svg version="1.1" id="Layer_1" xmlns="http://www.w3.org/2000/svg" xmlns:xlink="http://www.w3.org/1999/xlink" x="0px" y="0px"
	 viewBox="0 0 23.5 23.5" style="enable-background:new 0 0 23.5 23.5;" xml:space="preserve">
<style type="text/css">
	.st0{fill:#2C7BE5;}
	.st1{fill:#FFFFFF;}
	.st2{fill-rule:evenodd;clip-rule:evenodd;fill:#2C7BE5;}
	.st3{fill:none;}
</style>
<g>
	<path class="st2" d="M17.2,18.9c-3.2,3.2-8.3,3.2-11.5,0c-3.2-3.2-3.2-8.3,0-11.5c3.2-3.2,8.3-3.2,11.5,0
		C20.4,10.6,20.4,15.7,17.2,18.9L17.2,18.9z M16.6,9.1c0-0.6-0.5-1-1-1H7.4c-0.6,0-1,0.5-1,1v8.1c0,0.6,0.5,1,1,1h8.1
		c0.6,0,1-0.5,1-1V9.1L16.6,9.1z M12.5,16.2h-2v-1h-2v-5.1h6.1v5.1h-2V16.2L12.5,16.2z M13.5,11.1H9.5v1h4.1V11.1L13.5,11.1z
		 M13.5,14.1v-1H9.5v1H13.5L13.5,14.1z"/>
</g>
</svg>
