<?xml version="1.0" encoding="utf-8"?>
<!-- Generator: Adobe Illustrator 25.2.0, SVG Export Plug-In . SVG Version: 6.00 Build 0)  -->
<svg version="1.1" id="Layer_1" xmlns="http://www.w3.org/2000/svg" xmlns:xlink="http://www.w3.org/1999/xlink" x="0px" y="0px"
	 viewBox="0 0 23.5 23.5" style="enable-background:new 0 0 23.5 23.5;" xml:space="preserve">
<style type="text/css">
	.st0{fill:#2C7BE5;}
	.st1{fill:#FFFFFF;}
	.st2{fill-rule:evenodd;clip-rule:evenodd;fill:#2C7BE5;}
	.st3{fill:none;}
</style>
<g>
	<polygon class="st0" points="4,8.7 4,15.4 7.4,15.4 12.3,19.4 12.3,4.4 7.5,8.7 	"/>
	<path class="st0" d="M14,9c0,0,2.7,3.1,0.2,6c0,0-0.5,0.6,0,1.1c0.5,0.4,1,0.1,1.2-0.2c0.2-0.4,3-3.8-0.2-7.6c0,0-0.4-0.8-1.1-0.2
		C13.6,8.4,14,9,14,9z"/>
	<path class="st0" d="M17.1,7.3c0,0,3.2,5.1,0.1,9.5c0,0-0.6,0.4-0.1,1.1c0.5,0.7,1.3,0.1,1.5-0.4c0.2-0.5,3.2-5.6-0.2-11
		c0,0-0.5-1.2-1.3-0.4C16.7,6.7,17.1,7.3,17.1,7.3z"/>
</g>
</svg>
