<?xml version="1.0" encoding="utf-8"?>
<!-- Generator: Adobe Illustrator 25.2.0, SVG Export Plug-In . SVG Version: 6.00 Build 0)  -->
<svg version="1.1" id="Layer_1" xmlns="http://www.w3.org/2000/svg" xmlns:xlink="http://www.w3.org/1999/xlink" x="0px" y="0px"
	 viewBox="0 0 23.5 23.5" style="enable-background:new 0 0 23.5 23.5;" xml:space="preserve">
<style type="text/css">
	.st0{fill:#2C7BE5;}
	.st1{fill:#FFFFFF;}
	.st2{fill-rule:evenodd;clip-rule:evenodd;fill:#2C7BE5;}
	.st3{fill:none;}
</style>
<path class="st2" d="M7.9,13.4H15v4.8H7.9V13.4L7.9,13.4z M7.9,7.5H15v4.7H7.9V7.5L7.9,7.5z M16.2,17h1.2v1.2h-1.2V17L16.2,17z
	 M5.5,17h1.2v1.2H5.5V17L5.5,17z M16.2,14.6h1.2v1.2h-1.2V14.6L16.2,14.6z M5.5,14.6h1.2v1.2H5.5V14.6L5.5,14.6z M16.2,12.2h1.2v1.2
	h-1.2V12.2L16.2,12.2z M5.5,12.2h1.2v1.2H5.5V12.2L5.5,12.2z M16.2,9.8h1.2V11h-1.2V9.8L16.2,9.8z M5.5,9.8h1.2V11H5.5V9.8L5.5,9.8z
	 M16.2,7.5h1.2v1.2h-1.2V7.5L16.2,7.5z M5.5,7.5h1.2v1.2H5.5V7.5L5.5,7.5z M4.3,6.3v13.1h14.2V6.3H4.3L4.3,6.3z"/>
</svg>
