<?xml version="1.0" encoding="utf-8"?>
<!-- Generator: Adobe Illustrator 25.2.0, SVG Export Plug-In . SVG Version: 6.00 Build 0)  -->
<svg version="1.1" id="Layer_1" xmlns="http://www.w3.org/2000/svg" xmlns:xlink="http://www.w3.org/1999/xlink" x="0px" y="0px"
	 viewBox="0 0 23.5 23.5" style="enable-background:new 0 0 23.5 23.5;" xml:space="preserve">
<style type="text/css">
	.st0{fill:#2C7BE5;}
	.st1{fill:#FFFFFF;}
	.st2{fill-rule:evenodd;clip-rule:evenodd;fill:#2C7BE5;}
	.st3{fill:none;}
</style>
<g>
	<path class="st2" d="M17.9,18.5c-3.2,3.2-8.3,3.2-11.5,0c-3.2-3.2-3.2-8.3,0-11.5c3.2-3.2,8.3-3.2,11.5,0
		C21.1,10.2,21.1,15.3,17.9,18.5L17.9,18.5z M12.2,6.7c-3.4,0-6.1,2.7-6.1,6.1c0,3.4,2.7,6.1,6.1,6.1c3.4,0,6.1-2.7,6.1-6.1
		C18.3,9.4,15.5,6.7,12.2,6.7L12.2,6.7z M16.1,13.8c-0.4,1.4-1.5,2.5-2.9,2.9v-1.9h-2v1.9c-1.4-0.4-2.5-1.5-2.9-2.9h1.9v-2H8.3
		c0.4-1.4,1.5-2.5,2.9-2.9v1.9h2V8.8c1.4,0.4,2.5,1.5,2.9,2.9h-1.9v2H16.1L16.1,13.8z"/>
</g>
</svg>
