<?xml version="1.0" encoding="utf-8"?>
<!-- Generator: Adobe Illustrator 25.2.0, SVG Export Plug-In . SVG Version: 6.00 Build 0)  -->
<svg version="1.1" id="Layer_1" xmlns="http://www.w3.org/2000/svg" xmlns:xlink="http://www.w3.org/1999/xlink" x="0px" y="0px"
	 viewBox="0 0 23.5 23.5" style="enable-background:new 0 0 23.5 23.5;" xml:space="preserve">
<style type="text/css">
	.st0{fill:#2C7BE5;}
	.st1{fill:#FFFFFF;}
	.st2{fill-rule:evenodd;clip-rule:evenodd;fill:#2C7BE5;}
	.st3{fill:none;}
</style>
<path class="st2" d="M20.1,10.6c-1.8,4.6-1.8,4.7-2.1,4.7c1.2,0-4.8,0-9.3,0c-0.4,0-1.8-4.4-2.3-6C6.3,9,6.1,8.8,5.8,8.8
	c-0.4,0-0.8,0-1.2,0c-1.8,0-1.8-1.9,0-1.9c1.3,0,2.1,0,2.6,0c0.4,0,0.7,0.6,0.8,1c0.5,1.3,1.3,3.7,1.8,5c0.2,0.5,0.5,0.6,0.9,0.6
	c1.3,0,4.5,0,5.8,0c0.4,0,0.6-0.2,0.7-0.6c0.4-0.9,0.8-2,1-2.6c0.2-0.4,0.6-1.8,1.4-1.5C20.4,9.1,20.4,9.5,20.1,10.6L20.1,10.6z
	 M11,15.8c0.8,0,1.5,0.5,1.5,1.2c0,0.7-0.7,1.5-1.5,1.5c-0.8,0-1.5-0.7-1.5-1.5C9.5,16.3,10.3,15.8,11,15.8L11,15.8z M15.9,15.8
	c0.8,0,1.5,0.5,1.5,1.2c0,0.8-0.7,1.5-1.5,1.5c-0.8,0-1.5-0.7-1.5-1.5C14.5,16.3,15.2,15.8,15.9,15.8L15.9,15.8z"/>
</svg>
