<?xml version="1.0" encoding="utf-8"?>
<!-- Generator: Adobe Illustrator 25.2.0, SVG Export Plug-In . SVG Version: 6.00 Build 0)  -->
<svg version="1.1" id="Layer_1" xmlns="http://www.w3.org/2000/svg" xmlns:xlink="http://www.w3.org/1999/xlink" x="0px" y="0px"
	 viewBox="0 0 23.5 23.5" style="enable-background:new 0 0 23.5 23.5;" xml:space="preserve">
<style type="text/css">
	.st0{fill:#2C7BE5;}
	.st1{fill:#FFFFFF;}
	.st2{fill-rule:evenodd;clip-rule:evenodd;fill:#2C7BE5;}
	.st3{fill:none;}
</style>
<g>
	<polygon class="st0" points="13,14.7 9.8,16.9 10.8,18.1 9.7,21.2 13.1,18 11.9,16.8 	"/>
	<path class="st0" d="M16.2,7.1c-0.7-1.1-2.5-1.8-2.5-1.8C9.3,4.2,7.3,6.9,7.3,6.9C3,6.6,2.9,11.1,2.9,11.1C3.8,16.3,8,14.6,8,14.6
		c1,1.1,3.3,1.5,3.4,1.6c3.2-0.4,3.9-1.5,3.9-1.5c5.2,1.3,5.4-3.4,5.4-3.4C20.5,7.1,16.2,7.1,16.2,7.1z M15.2,13.3
		c0,0-0.5,1.2-3.7,1.6c-0.1,0-2.1-0.1-3.1-1.6c0,0-3.5,1.4-4.3-2.5c0,0,0.1-2.7,3.8-2.5c0,0,1.4-3,5.6-2c0,0,2,1,2.2,1.9
		c0,0,3.8-0.5,3.9,2.6C19.5,10.8,19.7,14.3,15.2,13.3z"/>
</g>
</svg>
