<?xml version="1.0" encoding="utf-8"?>
<!-- Generator: Adobe Illustrator 25.2.0, SVG Export Plug-In . SVG Version: 6.00 Build 0)  -->
<svg version="1.1" id="Layer_1" xmlns="http://www.w3.org/2000/svg" xmlns:xlink="http://www.w3.org/1999/xlink" x="0px" y="0px"
	 viewBox="0 0 23.5 23.5" style="enable-background:new 0 0 23.5 23.5;" xml:space="preserve">
<style type="text/css">
	.st0{fill:#2C7BE5;}
	.st1{fill:#FFFFFF;}
	.st2{fill-rule:evenodd;clip-rule:evenodd;fill:#2C7BE5;}
	.st3{fill:none;}
</style>
<g>
	<path class="st2" d="M8.3,8.8C8.3,8.4,7.9,8,7.4,8S6.6,8.4,6.6,8.8v5c0,0.5,0.4,0.8,0.8,0.8s0.8-0.4,0.8-0.8V8.8L8.3,8.8z
		 M16.6,9.7V6.3c0-0.9-0.7-1.7-1.7-1.7L11.6,8c-0.9,0-1.7,0.7-1.7,1.7V13c0,0.9,0.7,1.7,1.7,1.7l3.3,3.3c0.9,0,1.7-0.7,1.7-1.7V13
		c0.9,0,1.7-0.7,1.7-1.7C18.2,10.4,17.5,9.7,16.6,9.7L16.6,9.7z"/>
</g>
</svg>
