<?xml version="1.0" encoding="utf-8"?>
<!-- Generator: Adobe Illustrator 25.2.0, SVG Export Plug-In . SVG Version: 6.00 Build 0)  -->
<svg version="1.1" id="Layer_1" xmlns="http://www.w3.org/2000/svg" xmlns:xlink="http://www.w3.org/1999/xlink" x="0px" y="0px"
	 viewBox="0 0 23.5 23.5" style="enable-background:new 0 0 23.5 23.5;" xml:space="preserve">
<style type="text/css">
	.st0{fill:#2C7BE5;}
	.st1{fill:#FFFFFF;}
	.st2{fill-rule:evenodd;clip-rule:evenodd;fill:#2C7BE5;}
	.st3{fill:none;}
</style>
<g>
	<path class="st2" d="M18,15.7c-1.2,0,0.2-3.4-5.6-3.4c-5.7,0-4.5,3.6-5.8,3.6c-1.3,0-2.8-2.6-2.8-4.1c0-0.1,0-0.3,0-0.4
		c0.3,0.4,0.7,0.6,1.1,0.6c0.9,0,1.5-0.9,1.5-2.1c0-1.2-0.7-2.1-1.5-2.1c0,0,0,0,0,0c0.6-1,1.4-1.8,2.4-2.5c0,0.1,0.1,0.3,0.1,0.4
		C7.9,6.3,9,6.4,10,5.9c0.8-0.5,1.3-1.3,1.2-2c0.4-0.1,0.9-0.1,1.3-0.1c0.9,0,1.7,0.1,2.5,0.3c0,0.1-0.1,0.2-0.1,0.4
		c0,0.6,0.6,1.1,1.4,1.1c0.4,0,0.8-0.2,1.1-0.4c0.9,0.6,1.7,1.3,2.3,2.2c-0.1,0-0.2,0-0.2,0c-0.9,0-1.6,1-1.6,2.2
		c0,1.2,0.7,2.2,1.6,2.2c0.6,0,1.1-0.5,1.4-1.1c0.1,0.4,0.1,0.7,0.1,1.1C20.9,13.1,19.2,15.7,18,15.7L18,15.7z M12.2,7.3
		c-1.2,0-2.1,1-2.1,2.2c0,1.2,1,2.2,2.1,2.2c1.2,0,2.2-1,2.2-2.2C14.3,8.2,13.4,7.3,12.2,7.3L12.2,7.3z M12.5,12.6
		c3.6,0,4.2,1.6,4.5,2.6v1.5c0,1-0.7,1.8-1.7,1.8H9.4c-0.9,0-1.7-0.8-1.7-1.8v-1.1C8.2,14.6,8.5,12.6,12.5,12.6L12.5,12.6z
		 M13.6,16.5c0.2,0,0.4-0.6,0.4-1.3c0-0.7-0.2-1.3-0.4-1.3c-0.2,0-0.4,0.6-0.4,1.3C13.1,15.9,13.3,16.5,13.6,16.5L13.6,16.5z
		 M11,16.5c0.2,0,0.4-0.6,0.4-1.3c0-0.7-0.2-1.3-0.4-1.3c-0.2,0-0.4,0.6-0.4,1.3C10.6,15.9,10.8,16.5,11,16.5L11,16.5z"/>
</g>
</svg>
