<?xml version="1.0" encoding="utf-8"?>
<!-- Generator: Adobe Illustrator 25.2.0, SVG Export Plug-In . SVG Version: 6.00 Build 0)  -->
<svg version="1.1" id="Layer_1" xmlns="http://www.w3.org/2000/svg" xmlns:xlink="http://www.w3.org/1999/xlink" x="0px" y="0px"
	 viewBox="0 0 23.5 23.5" style="enable-background:new 0 0 23.5 23.5;" xml:space="preserve">
<style type="text/css">
	.st0{fill:#2C7BE5;}
	.st1{fill:#FFFFFF;}
	.st2{fill-rule:evenodd;clip-rule:evenodd;fill:#2C7BE5;}
	.st3{fill:none;}
</style>
<path class="st2" d="M18.4,20.6H4.5c-0.6,0-1.1-0.5-1.1-1v-1.7c0-0.6,0.5-1,1.1-1l2.7,0c0.1-0.3,0-1,0.3-1c0.5,0,2-1.7,2-2.7
	c0-2,0-2,0-2s-0.3-0.5-0.3-0.7c1.2,0.4,3.1,0.3,4.4,0c0-0.1-0.3,0.5-0.3,0.6c0,0,0,0.2,0,2.2c0,1.1,1.6,2.6,2,2.6
	c0.3,0,0.2,0.7,0.3,1l2.7,0c0.6,0,1,0.5,1,1v1.7C19.4,20.1,19,20.6,18.4,20.6L18.4,20.6z M14.1,9.7c-0.9,0.6-4.6,0.6-5.4,0
	C7.8,9.2,7.1,8.2,7.1,7c0-1.2,0.2-3.4,4.3-3.4c4.1,0,4.3,2.3,4.3,3.4C15.7,8.2,14.5,9.3,14.1,9.7L14.1,9.7z"/>
</svg>
