<?xml version="1.0" encoding="utf-8"?>
<!-- Generator: Adobe Illustrator 25.2.0, SVG Export Plug-In . SVG Version: 6.00 Build 0)  -->
<svg version="1.1" id="Layer_1" xmlns="http://www.w3.org/2000/svg" xmlns:xlink="http://www.w3.org/1999/xlink" x="0px" y="0px"
	 viewBox="0 0 23.5 23.5" style="enable-background:new 0 0 23.5 23.5;" xml:space="preserve">
<style type="text/css">
	.st0{fill:#2C7BE5;}
	.st1{fill:#FFFFFF;}
	.st2{fill-rule:evenodd;clip-rule:evenodd;fill:#2C7BE5;}
	.st3{fill:none;}
</style>
<g>
	<path class="st2" d="M15,14.1v4.8h-2.4v-4.8H15L15,14.1z M5.4,11.8l0.4-0.4L11.5,6l5.8,5.6l0.2,0.2l0,7.1l-1.3,0v-6h-4.8v6l-6-0.1
		L5.4,11.8L5.4,11.8z M11.4,3.4l-1.2,1.2l-8.3,8.3l1.2,1.2l1.2-1.2V20h7.1h4.8h2.4v-7.1l1.2,1.2l1.2-1.2l-8.3-8.3L11.4,3.4L11.4,3.4
		z M6.7,12.9v3.6h3.6v-3.6H6.7L6.7,12.9z"/>
</g>
</svg>
