<?xml version="1.0" encoding="utf-8"?>
<!-- Generator: Adobe Illustrator 25.2.0, SVG Export Plug-In . SVG Version: 6.00 Build 0)  -->
<svg version="1.1" id="Layer_1" xmlns="http://www.w3.org/2000/svg" xmlns:xlink="http://www.w3.org/1999/xlink" x="0px" y="0px"
	 viewBox="0 0 23.5 23.5" style="enable-background:new 0 0 23.5 23.5;" xml:space="preserve">
<style type="text/css">
	.st0{fill:#2C7BE5;}
	.st1{fill:#FFFFFF;}
	.st2{fill-rule:evenodd;clip-rule:evenodd;fill:#2C7BE5;}
	.st3{fill:none;}
</style>
<g>
	<path class="st2" d="M18.5,18.5H5.7c-1.2,0-2.1-1-2.1-2.1V6.9c0-1.2,0.9-2.1,2.1-2.1h12.8c1.2,0,2.1,1,2.1,2.1v9.4
		C20.6,17.5,19.6,18.5,18.5,18.5L18.5,18.5z M9.2,13.4l-0.6-0.6c-0.1-0.1-0.3-0.1-0.5,0.1l-1.7,1.7C6.2,14.3,6,14.1,5.9,14
		c-0.1-0.1-0.3-0.1-0.3-0.1c-0.2,0-0.4,0.2-0.4,0.4L5,16.6C5,16.8,5.2,17,5.4,17l2.3-0.1c0.2,0,0.4-0.2,0.4-0.4c0,0,0-0.2-0.1-0.3
		c-0.2-0.1-0.4-0.4-0.6-0.6l1.7-1.7C9.3,13.7,9.3,13.5,9.2,13.4L9.2,13.4z M5.2,9c0,0.2,0.2,0.4,0.4,0.4c0,0,0.2,0,0.3-0.1
		C6,9.2,6.2,9,6.5,8.7l1.7,1.7c0.2,0.1,0.4,0.2,0.5,0.1l0.6-0.6c0.1-0.1,0.1-0.3-0.1-0.5L7.5,7.7C7.7,7.5,7.9,7.3,8,7.1
		C8.1,7,8.1,6.8,8.1,6.8c0-0.2-0.2-0.4-0.4-0.4L5.4,6.3C5.2,6.3,5,6.5,5,6.7L5.2,9L5.2,9z M14.5,9.9l0.6,0.6
		c0.1,0.1,0.3,0.1,0.5-0.1l1.7-1.7c0.2,0.2,0.4,0.4,0.6,0.6c0.1,0.1,0.3,0.1,0.3,0.1c0.2,0,0.4-0.2,0.4-0.4l0.1-2.3
		c0-0.2-0.1-0.4-0.4-0.3L16,6.4c-0.2,0-0.4,0.2-0.4,0.4c0,0,0,0.2,0.1,0.3c0.1,0.2,0.4,0.4,0.6,0.6l-1.7,1.7
		C14.4,9.6,14.4,9.8,14.5,9.9L14.5,9.9z M14.5,13.9l1.7,1.7c-0.2,0.2-0.4,0.4-0.6,0.6c-0.1,0.1-0.1,0.3-0.1,0.3
		c0,0.2,0.2,0.4,0.4,0.4l2.3,0.1c0.2,0,0.4-0.2,0.3-0.3l-0.1-2.4c0-0.2-0.2-0.4-0.4-0.4c0,0-0.2,0-0.3,0.1c-0.1,0.1-0.4,0.3-0.6,0.6
		l-1.7-1.7c-0.2-0.2-0.4-0.2-0.5-0.1l-0.6,0.6C14.4,13.5,14.4,13.7,14.5,13.9L14.5,13.9z"/>
</g>
</svg>
