<?xml version="1.0" encoding="utf-8"?>
<!-- Generator: Adobe Illustrator 25.2.0, SVG Export Plug-In . SVG Version: 6.00 Build 0)  -->
<svg version="1.1" id="Layer_1" xmlns="http://www.w3.org/2000/svg" xmlns:xlink="http://www.w3.org/1999/xlink" x="0px" y="0px"
	 viewBox="0 0 23.5 23.5" style="enable-background:new 0 0 23.5 23.5;" xml:space="preserve">
<style type="text/css">
	.st0{fill:#2C7BE5;}
	.st1{fill:#FFFFFF;}
	.st2{fill-rule:evenodd;clip-rule:evenodd;fill:#2C7BE5;}
	.st3{fill:none;}
</style>
<g>
	<path class="st0" d="M11.2,13.9c0,0-2.6,2.8,0.1,3.2C11.3,17.1,13.8,16.6,11.2,13.9z"/>
	<path class="st0" d="M15.6,16.1c0,0-2.6,2.8,0.1,3.2C15.7,19.3,18.2,18.9,15.6,16.1z"/>
	<g>
		<path class="st0" d="M10.3,5c0,0,1.6-2.5,4.9-1.5c0,0,1.7,0.5,2.3,1.5c0,0,2.9,0.1,3.1,3.8c0,0-0.9,4.6-4.9,3.4c0,0-0.4,1-2.4,0.7
			c-0.1,0-1.1,0.2-1.8-0.8c0,0-3.8,1.1-4.5-3.5C6.9,8.8,7.1,4.8,10.3,5z"/>
		<path class="st1" d="M13.9,13.1c-0.2,0-0.4,0-0.7-0.1c0,0,0,0,0,0c0,0,0,0-0.1,0c0,0-0.1,0-0.1,0c-0.7,0-1.2-0.3-1.6-0.8
			c-0.1,0-0.5,0.1-1,0.1c-1.1,0-3-0.5-3.5-3.6C6.9,8.7,7.1,5,10,5c0.1,0,0.2,0,0.3,0c0.1-0.2,1.2-1.7,3.4-1.7c0.5,0,1,0.1,1.5,0.2
			c0.1,0,1.7,0.5,2.3,1.5c0.3,0,3,0.3,3.1,3.8c0,0-0.8,3.6-3.7,3.6c-0.4,0-0.8-0.1-1.2-0.2C15.6,12.5,15.2,13.1,13.9,13.1z M13.2,13
			C13.2,13,13.2,13,13.2,13c0.3,0,0.5,0.1,0.7,0.1c1.4,0,1.7-0.7,1.7-0.8l0,0l0,0c0.4,0.1,0.8,0.2,1.2,0.2c2.9,0,3.6-3.5,3.6-3.6
			c-0.1-3.6-3-3.7-3-3.7l0,0l0,0c-0.5-1-2.2-1.5-2.3-1.5c-0.5-0.2-1-0.2-1.5-0.2c-2.2,0-3.3,1.7-3.3,1.7l0,0l0,0c-0.1,0-0.2,0-0.3,0
			c-2.9,0-3,3.7-3,3.7c0.5,3.1,2.4,3.5,3.5,3.5c0.6,0,1-0.1,1-0.1l0,0l0,0c0.4,0.5,0.9,0.8,1.5,0.8C13,13,13.1,13,13.2,13
			C13.2,13,13.2,13,13.2,13z"/>
	</g>
	<path class="st0" d="M6.8,7.6c0,0.3-0.3,0.6-0.6,0.6H4C3.7,8.3,3.4,8,3.4,7.6l0,0C3.4,7.3,3.7,7,4,7h2.2C6.5,7,6.8,7.3,6.8,7.6
		L6.8,7.6z"/>
	<path class="st0" d="M5.6,9.8c0,0.3-0.3,0.6-0.6,0.6H2.9c-0.3,0-0.6-0.3-0.6-0.6l0,0c0-0.3,0.3-0.6,0.6-0.6H5
		C5.3,9.2,5.6,9.5,5.6,9.8L5.6,9.8z"/>
	<path class="st0" d="M8,12.1c0,0.3-0.2,0.5-0.6,0.5H2.9c-0.3,0-0.6-0.2-0.6-0.5l0,0c0-0.3,0.2-0.5,0.6-0.5h4.5
		C7.8,11.5,8,11.8,8,12.1L8,12.1z"/>
</g>
</svg>
