<?xml version="1.0" encoding="utf-8"?>
<!-- Generator: Adobe Illustrator 25.2.0, SVG Export Plug-In . SVG Version: 6.00 Build 0)  -->
<svg version="1.1" id="Layer_1" xmlns="http://www.w3.org/2000/svg" xmlns:xlink="http://www.w3.org/1999/xlink" x="0px" y="0px"
	 viewBox="0 0 23.5 23.5" style="enable-background:new 0 0 23.5 23.5;" xml:space="preserve">
<style type="text/css">
	.st0{fill:#2C7BE5;}
	.st1{fill:#FFFFFF;}
	.st2{fill-rule:evenodd;clip-rule:evenodd;fill:#2C7BE5;}
	.st3{fill:none;}
</style>
<g>
	<path class="st0" d="M18.8,19.5c0,0.6-0.5,1.1-1.1,1.1H5.1c-0.6,0-1.1-0.5-1.1-1.1V6.7c0-0.6,0.5-1.1,1.1-1.1h12.5
		c0.6,0,1.1,0.5,1.1,1.1V19.5z M9.3,9.3l-1.1,1C9.3,11.9,7,12.1,7,12.1v1.2c2,0.5,0.5,2.1,0.5,2.1l0.9,1.1c2-1.1,1.6,1.2,1.6,1.2
		h1.6c0.7-2,1.8-0.3,1.8-0.3l1.2-1c-1.1-1.9,0.9-1.6,0.9-1.6l0.2-1.6c-2.2-0.6-0.4-2-0.4-2L14.3,10c-2,1.1-1.6-1.1-1.6-1.1l-1.4-0.1
		C10.8,11,9.3,9.3,9.3,9.3z"/>
	<path class="st0" d="M13.1,13.3c0,1-0.8,1.7-1.7,1.7c-1,0-1.7-0.8-1.7-1.7c0-1,0.8-1.7,1.7-1.7C12.3,11.6,13.1,12.4,13.1,13.3z"/>
</g>
</svg>
