<?xml version="1.0" encoding="utf-8"?>
<!-- Generator: Adobe Illustrator 25.2.0, SVG Export Plug-In . SVG Version: 6.00 Build 0)  -->
<svg version="1.1" id="Layer_1" xmlns="http://www.w3.org/2000/svg" xmlns:xlink="http://www.w3.org/1999/xlink" x="0px" y="0px"
	 viewBox="0 0 23.5 23.5" style="enable-background:new 0 0 23.5 23.5;" xml:space="preserve">
<style type="text/css">
	.st0{fill:#2C7BE5;}
	.st1{fill:#FFFFFF;}
	.st2{fill-rule:evenodd;clip-rule:evenodd;fill:#2C7BE5;}
	.st3{fill:none;}
</style>
<g>
	<path class="st0" d="M7.2,6.1c0,0,2.5-3.4,6.7-1.9c0,0,1.5,0.7,2.2,1.8c0,0,4.3-0.3,4.4,4c0,0,0,4.9-5.2,3.5c0,0-1.3,1.7-3.9,1.4
		c-0.1,0-1.2,0.5-3.6-1.4c0,0-4.2,1.8-5.1-3.6C2.7,10,3,5.8,7.2,6.1z"/>
	<path class="st0" d="M7.2,15.2c0,0-2.6,2.8,0.1,3.2C7.4,18.3,9.9,17.9,7.2,15.2z"/>
	<path class="st0" d="M11.7,18.5c0,0-2.6,2.8,0.1,3.2C11.8,21.7,14.3,21.3,11.7,18.5z"/>
	<path class="st0" d="M16.1,17.4c0,0-2.6,2.8,0.1,3.2C16.2,20.6,18.7,20.1,16.1,17.4z"/>
</g>
</svg>
