<?xml version="1.0" encoding="utf-8"?>
<!-- Generator: Adobe Illustrator 25.2.0, SVG Export Plug-In . SVG Version: 6.00 Build 0)  -->
<svg version="1.1" id="Layer_1" xmlns="http://www.w3.org/2000/svg" xmlns:xlink="http://www.w3.org/1999/xlink" x="0px" y="0px"
	 viewBox="0 0 23.5 23.5" style="enable-background:new 0 0 23.5 23.5;" xml:space="preserve">
<style type="text/css">
	.st0{fill:#2C7BE5;}
	.st1{fill:#FFFFFF;}
	.st2{fill-rule:evenodd;clip-rule:evenodd;fill:#2C7BE5;}
	.st3{fill:none;}
</style>
<g>
	<path class="st0" d="M17.5,4.8V5l-9.2,2v2.3v8.3c-0.3-0.2-0.7-0.2-1.1-0.2c-1.3,0-2.3,0.8-2.3,1.7c0,1,1,1.7,2.3,1.7
		c1.3,0,2.3-0.8,2.3-1.7c0-0.2-0.1-0.4-0.1-0.6h0.1V9.1l8-1.8v8c-0.3-0.1-0.7-0.2-1.2-0.2c-1.3,0-2.3,0.8-2.3,1.7c0,1,1,1.7,2.3,1.7
		c1.3,0,2.3-0.8,2.3-1.7c0-0.2-0.1-0.4-0.1-0.6h0.1V7.1V4.8H17.5L17.5,4.8z"/>
</g>
</svg>
