<?xml version="1.0" encoding="utf-8"?>
<!-- Generator: Adobe Illustrator 25.2.0, SVG Export Plug-In . SVG Version: 6.00 Build 0)  -->
<svg version="1.1" id="Layer_1" xmlns="http://www.w3.org/2000/svg" xmlns:xlink="http://www.w3.org/1999/xlink" x="0px" y="0px"
	 viewBox="0 0 23.5 23.5" style="enable-background:new 0 0 23.5 23.5;" xml:space="preserve">
<style type="text/css">
	.st0{fill:#2C7BE5;}
	.st1{fill:#FFFFFF;}
	.st2{fill-rule:evenodd;clip-rule:evenodd;fill:#2C7BE5;}
	.st3{fill:none;}
</style>
<path class="st2" d="M19.3,19.9h-15c-0.7,0-1-0.3-1-1V8.3c0-0.7,0.3-1,1-1h0.3c0-0.5,0.6-1,1-1h3.1c0.4,0,1,0.6,1,1h7.8
	c0.4,0,0.7,0.2,0.7,0.7v0.7H8.7H6.3c-0.5,0-1,0.6-1,1v6.5c0.2,0.3,0.7,0.5,0.7,0C6,15.3,6,10,6,10c0-0.5,0.2-0.7,0.7-0.7h12.6
	c0.7,0,1,0.4,1,1v8.5C20.3,19.5,20,19.9,19.3,19.9L19.3,19.9z"/>
</svg>
