<?xml version="1.0" encoding="utf-8"?>
<!-- Generator: Adobe Illustrator 25.2.0, SVG Export Plug-In . SVG Version: 6.00 Build 0)  -->
<svg version="1.1" id="Layer_1" xmlns="http://www.w3.org/2000/svg" xmlns:xlink="http://www.w3.org/1999/xlink" x="0px" y="0px"
	 viewBox="0 0 23.5 23.5" style="enable-background:new 0 0 23.5 23.5;" xml:space="preserve">
<style type="text/css">
	.st0{fill:#2C7BE5;}
	.st1{fill:#FFFFFF;}
	.st2{fill-rule:evenodd;clip-rule:evenodd;fill:#2C7BE5;}
	.st3{fill:none;}
</style>
<g>
	<g>
		<path class="st0" d="M16.3,8.5l-4.8-2.9l4.8-2.7L16.3,8.5z M15.6,5.7l-1.3-0.8l-1.1,0.8l2.4,1.6V5.7z"/>
		<polygon class="st0" points="16.2,9.1 12.5,15.2 9.2,13.2 13.1,7.2 		"/>
		<polygon class="st0" points="8.7,12.9 7.3,12 11.1,6 12.5,6.8 		"/>
		<path class="st0" d="M11.9,15.9l-4.8-3.1l-0.9,1.3c0,0-0.5,0.8,0,1.3c0.5,0.5,3.3,2.1,3.3,2.1s0.8,0.3,1.1,0
			C10.9,17.3,11.9,15.9,11.9,15.9z"/>
	</g>
	<rect x="9.3" y="18.2" class="st0" width="8.8" height="0.8"/>
</g>
</svg>
