<?xml version="1.0" encoding="utf-8"?>
<!-- Generator: Adobe Illustrator 25.2.0, SVG Export Plug-In . SVG Version: 6.00 Build 0)  -->
<svg version="1.1" id="Layer_1" xmlns="http://www.w3.org/2000/svg" xmlns:xlink="http://www.w3.org/1999/xlink" x="0px" y="0px"
	 viewBox="0 0 23.5 23.5" style="enable-background:new 0 0 23.5 23.5;" xml:space="preserve">
<style type="text/css">
	.st0{fill:#2C7BE5;}
	.st1{fill:#FFFFFF;}
	.st2{fill-rule:evenodd;clip-rule:evenodd;fill:#2C7BE5;}
	.st3{fill:none;}
</style>
<g>
	<path class="st0" d="M20.6,8.8l-7.3,0c-0.3-1.1-1.6-5.1-1.9-6c-0.3-1-0.9,0-0.9,0l-1.5,6l-7.1,0c0,0.6,0.7,1,0.7,1l5,3.3
		c-0.9,1.9-2.2,6.9-2.2,6.9c1,0.3,5.8-4.1,5.8-4.1c5.4,5,5.6,4.2,5.6,4.2c0.3-0.8-2.1-6.6-2.1-6.6v-0.3c0,0,4.3-2.8,5.2-3.3
		C20.9,9.6,20.6,8.8,20.6,8.8z"/>
</g>
</svg>
