<?xml version="1.0" encoding="utf-8"?>
<!-- Generator: Adobe Illustrator 25.2.0, SVG Export Plug-In . SVG Version: 6.00 Build 0)  -->
<svg version="1.1" id="Layer_1" xmlns="http://www.w3.org/2000/svg" xmlns:xlink="http://www.w3.org/1999/xlink" x="0px" y="0px"
	 viewBox="0 0 23.5 23.5" style="enable-background:new 0 0 23.5 23.5;" xml:space="preserve">
<style type="text/css">
	.st0{fill:#2C7BE5;}
	.st1{fill:#FFFFFF;}
	.st2{fill-rule:evenodd;clip-rule:evenodd;fill:#2C7BE5;}
	.st3{fill:none;}
</style>
<g>
	<path class="st2" d="M17.9,7.9h-0.5c-0.3,0-0.5-0.2-0.5-0.5l-1.1-1.6h-3.2v12.8l2.7,1.1c0.3,0,0.5,0.2,0.5,0.5l0,0
		c0,0.3-0.2,0.5-0.5,0.5H12H11H7.8c-0.3,0-0.5-0.2-0.5-0.5l0,0c0-0.3,0.2-0.5,0.5-0.5l2.7-1.1V5.8H7.2L6.2,7.4
		c0,0.3-0.2,0.5-0.5,0.5H5.1c-0.3,0-0.5-0.2-0.5-0.5V5.2V4.2c0-0.3,0.2-0.5,0.5-0.5h2.1H11H12h3.7h2.1c0.3,0,0.5,0.2,0.5,0.5v1.1
		v2.1C18.4,7.7,18.2,7.9,17.9,7.9L17.9,7.9z"/>
</g>
</svg>
