<?xml version="1.0" encoding="utf-8"?>
<!-- Generator: Adobe Illustrator 25.2.0, SVG Export Plug-In . SVG Version: 6.00 Build 0)  -->
<svg version="1.1" id="Layer_1" xmlns="http://www.w3.org/2000/svg" xmlns:xlink="http://www.w3.org/1999/xlink" x="0px" y="0px"
	 viewBox="0 0 23.5 23.5" style="enable-background:new 0 0 23.5 23.5;" xml:space="preserve">
<style type="text/css">
	.st0{fill:#2C7BE5;}
	.st1{fill:#FFFFFF;}
	.st2{fill-rule:evenodd;clip-rule:evenodd;fill:#2C7BE5;}
	.st3{fill:none;}
</style>
<g>
	<path class="st0" d="M10.2,11.4c-1.9,0-3.4-1.8-3.4-4c0-2.2,0-4,3.4-4c3.4,0,3.4,1.8,3.4,4C13.7,9.6,12.1,11.4,10.2,11.4L10.2,11.4
		z M2.2,18.3c0-3.2-0.1-4.6,8-4.6c8.1,0,8,1.4,8,4.6H2.2L2.2,18.3z M7.9,14.9l1.1-4.6h2.3l1.1,4.6H7.9L7.9,14.9z M16,10.3V9.1h4.6
		v1.1H16L16,10.3z"/>
</g>
</svg>
