<?xml version="1.0" encoding="utf-8"?>
<!-- Generator: Adobe Illustrator 25.2.0, SVG Export Plug-In . SVG Version: 6.00 Build 0)  -->
<svg version="1.1" id="Layer_1" xmlns="http://www.w3.org/2000/svg" xmlns:xlink="http://www.w3.org/1999/xlink" x="0px" y="0px"
	 viewBox="0 0 23.5 23.5" style="enable-background:new 0 0 23.5 23.5;" xml:space="preserve">
<style type="text/css">
	.st0{fill:#2C7BE5;}
	.st1{fill:#FFFFFF;}
	.st2{fill-rule:evenodd;clip-rule:evenodd;fill:#2C7BE5;}
	.st3{fill:none;}
</style>
<g>
	<path class="st2" d="M10.7,7.3c2.8-0.4,1.5,3,1.2,4c-1,1.9,0.7,3.5,2.5,2.5c1.3-1,1.6-2.2,1.7-2.8c0.1-0.6,1.3-4.6-2.7-5.7
		c-3.9-1-7.8,3-5.6,6.5C8.1,12,8.1,12.1,8,12.5c-0.2,0.4-0.1,0.8-0.5,0.8c-1-0.2-3.2-2.2-1.7-6.1c0.9-2.1,3.2-3.4,5-3.8
		c4.1-0.8,8.5,1.4,8.1,6.2c0,1.8-1,3.7-2,4.8c-1.1,1-4.2,2.3-6,0.1c-0.1,0.8-0.6,2.4-0.8,3.1c-0.8,1.9-1.8,2.8-1.9,2.7
		c-0.1,0-0.2-1.3-0.1-3.1c0.3-1.8,1.3-5.3,1.4-5.9C9,10.9,9.2,10,9.2,9.7C9.2,9.1,9.7,7.5,10.7,7.3L10.7,7.3z"/>
</g>
</svg>
