<?xml version="1.0" encoding="utf-8"?>
<!-- Generator: Adobe Illustrator 25.2.0, SVG Export Plug-In . SVG Version: 6.00 Build 0)  -->
<svg version="1.1" id="Layer_1" xmlns="http://www.w3.org/2000/svg" xmlns:xlink="http://www.w3.org/1999/xlink" x="0px" y="0px"
	 viewBox="0 0 23.5 23.5" style="enable-background:new 0 0 23.5 23.5;" xml:space="preserve">
<style type="text/css">
	.st0{fill:#2C7BE5;}
	.st1{fill:#FFFFFF;}
	.st2{fill-rule:evenodd;clip-rule:evenodd;fill:#2C7BE5;}
	.st3{fill:none;}
</style>
<path class="st2" d="M20.3,18.9h-7.9c-0.3,0-0.4-0.2-0.4-0.4v-1.1c0-0.3,0.2-0.4,0.4-0.4h7.9c0.3,0,0.4,0.2,0.4,0.4v1.1
	C20.7,18.8,20.5,18.9,20.3,18.9L20.3,18.9z M17.9,16.3h-5.7c0,0-0.9,0-0.9,0.8c0,0.9,0,0.6,0,1.2c0,0.7,0.3,1.1,1.1,1.1
	c0.7,0,2.2,0,2.2,0l-1.1,1.2c-0.5,0.5-1.3,0.5-1.8,0c0,0-6-6.1-7-7.1c-1-1-1-5.1-1-6.5c0-1.3,0.6-2.1,2.1-2.1c1.5,0,5.4,0,6.4,1
	c1,1,7,7.1,7,7.1c0.5,0.5,0.5,1.3,0,1.9L17.9,16.3L17.9,16.3z M7.4,7C6.9,6.5,6.1,6.5,5.5,7C5,7.5,5,8.4,5.5,8.9
	c0.5,0.5,1.4,0.5,1.9,0C8,8.4,8,7.5,7.4,7L7.4,7z"/>
</svg>
