<?xml version="1.0" encoding="utf-8"?>
<!-- Generator: Adobe Illustrator 25.2.0, SVG Export Plug-In . SVG Version: 6.00 Build 0)  -->
<svg version="1.1" id="Layer_1" xmlns="http://www.w3.org/2000/svg" xmlns:xlink="http://www.w3.org/1999/xlink" x="0px" y="0px"
	 viewBox="0 0 23.5 23.5" style="enable-background:new 0 0 23.5 23.5;" xml:space="preserve">
<style type="text/css">
	.st0{fill:#2C7BE5;}
	.st1{fill:#FFFFFF;}
	.st2{fill-rule:evenodd;clip-rule:evenodd;fill:#2C7BE5;}
	.st3{fill:none;}
</style>
<path class="st2" d="M11.9,16c-5.2,0-8.4-3.7-8.4-4.6s3.3-5.3,8.4-5.3c5.2,0,8.6,4,8.6,5.3C20.5,12.6,17.1,16,11.9,16L11.9,16z
	 M11.7,8.8c-0.8,0-1.4,0.6-1.4,1.4c0,0.8,0.6,1.4,1.4,1.4c0.7,0,1.4-0.6,1.4-1.4C13,9.4,12.4,8.8,11.7,8.8L11.7,8.8z M15.8,8.1
	c0.5,0.7,0.8,1.3,0.8,2.2c0,2.2-1.8,4-4,4c-2.2,0-4-1.8-4-4C8.7,9,8.9,8.2,10,7.5c-3.3,0.5-5.3,3.1-5.3,3.8c0,0.8,2.7,3.7,7.2,3.7
	c4.5,0,7.4-2.6,7.4-3.7C19.3,10.6,18.5,9.2,15.8,8.1L15.8,8.1z"/>
</svg>
