<?xml version="1.0" encoding="utf-8"?>
<!-- Generator: Adobe Illustrator 25.2.0, SVG Export Plug-In . SVG Version: 6.00 Build 0)  -->
<svg version="1.1" id="Layer_1" xmlns="http://www.w3.org/2000/svg" xmlns:xlink="http://www.w3.org/1999/xlink" x="0px" y="0px"
	 viewBox="0 0 23.5 23.5" style="enable-background:new 0 0 23.5 23.5;" xml:space="preserve">
<style type="text/css">
	.st0{fill:#2C7BE5;}
	.st1{fill:#FFFFFF;}
	.st2{fill-rule:evenodd;clip-rule:evenodd;fill:#2C7BE5;}
	.st3{fill:none;}
</style>
<path class="st2" d="M4.5,10.4c0-0.3,0.3-0.6,0.6-0.6h13c0.3,0,0.6,0.3,0.6,0.6v1.2c0,0.3-0.3,0.6-0.6,0.6h-13
	c-0.3,0-0.6-0.3-0.6-0.6V10.4L4.5,10.4z M3.3,9.9v2.4c0,0.7,0.5,1.2,1.2,1.2h14.2c0.7,0,1.2-0.5,1.2-1.2V9.9c0-0.7-0.5-1.2-1.2-1.2
	H4.5C3.8,8.7,3.3,9.2,3.3,9.9L3.3,9.9z M6.8,14.6C7.9,16,9.6,17,11.6,17c1.9,0,3.7-0.9,4.7-2.4H6.8L6.8,14.6z M11.6,5.1
	C9.6,5.1,7.9,6,6.8,7.5h9.5C15.3,6,13.5,5.1,11.6,5.1L11.6,5.1z"/>
</svg>
