<?xml version="1.0" encoding="utf-8"?>
<!-- Generator: Adobe Illustrator 25.2.0, SVG Export Plug-In . SVG Version: 6.00 Build 0)  -->
<svg version="1.1" id="Layer_1" xmlns="http://www.w3.org/2000/svg" xmlns:xlink="http://www.w3.org/1999/xlink" x="0px" y="0px"
	 viewBox="0 0 23.5 23.5" style="enable-background:new 0 0 23.5 23.5;" xml:space="preserve">
<style type="text/css">
	.st0{fill:#2C7BE5;}
	.st1{fill:#FFFFFF;}
	.st2{fill-rule:evenodd;clip-rule:evenodd;fill:#2C7BE5;}
	.st3{fill:none;}
</style>
<g>
	<path class="st0" d="M19.8,19.2h-2.4V18h2.4v-2.4H21V18v1.2H19.8L19.8,19.2z M19.8,9.7H21v3.6h-1.2V9.7L19.8,9.7z M19.8,3.8h-2.4
		V2.6h2.4H21v1.2v3.6h-1.2V3.8L19.8,3.8z M9.1,18H15v1.2H9.1V18L9.1,18z M9.1,2.6H15v1.2H9.1V2.6L9.1,2.6z M3.2,19.2V18v-3.6h1.2V18
		h2.4v1.2H4.3H3.2L3.2,19.2z M4.3,6.2H3.2V3.8V2.6h3.6v1.2H4.3V6.2L4.3,6.2z M4.3,12.1H3.2V8.5h1.2V12.1L4.3,12.1z M13.8,12.1v2.4
		h-3.6v-2.4H7.9L12.1,8l4.2,4.1H13.8L13.8,12.1z"/>
</g>
</svg>
