<?xml version="1.0" encoding="utf-8"?>
<!-- Generator: Adobe Illustrator 25.2.0, SVG Export Plug-In . SVG Version: 6.00 Build 0)  -->
<svg version="1.1" id="Layer_1" xmlns="http://www.w3.org/2000/svg" xmlns:xlink="http://www.w3.org/1999/xlink" x="0px" y="0px"
	 viewBox="0 0 23.5 23.5" style="enable-background:new 0 0 23.5 23.5;" xml:space="preserve">
<style type="text/css">
	.st0{fill:#2C7BE5;}
	.st1{fill:#FFFFFF;}
	.st2{fill-rule:evenodd;clip-rule:evenodd;fill:#2C7BE5;}
	.st3{fill:none;}
</style>
<g>
	<path class="st0" d="M15,12.8c0,2-1.6,3.6-3.6,3.6l0,0c-2,0-3.6-1.6-3.6-3.6v-5c0-2,1.6-3.6,3.6-3.6l0,0c2,0,3.6,1.6,3.6,3.6V12.8z
		"/>
	<path class="st0" d="M6.2,9.9v3.2c0,0,0.1,3.8,4.6,4.8v3.2H7.3v0.9h8v-0.9h-3.5V18c0,0,4.1-0.2,4.8-4.8V9.8h-1.1v3.5
		c0,0-0.4,3.6-4.1,3.7c-3.7,0.1-4.1-3.7-4.1-3.7V9.7H6.2V9.9z"/>
</g>
</svg>
