<?xml version="1.0" encoding="utf-8"?>
<!-- Generator: Adobe Illustrator 25.2.0, SVG Export Plug-In . SVG Version: 6.00 Build 0)  -->
<svg version="1.1" id="Layer_1" xmlns="http://www.w3.org/2000/svg" xmlns:xlink="http://www.w3.org/1999/xlink" x="0px" y="0px"
	 viewBox="0 0 23.5 23.5" style="enable-background:new 0 0 23.5 23.5;" xml:space="preserve">
<style type="text/css">
	.st0{fill:#2C7BE5;}
	.st1{fill:#FFFFFF;}
	.st2{fill-rule:evenodd;clip-rule:evenodd;fill:#2C7BE5;}
	.st3{fill:none;}
</style>
<g>
	<path class="st2" d="M17,10.5c-0.5,0-0.9,0.2-1.3,0.4l-4.7-2.8c0.1-0.3,0.2-0.6,0.2-0.9c0-1.8-1.5-3.3-3.3-3.3
		c-1.8,0-3.3,1.5-3.3,3.3c0,1.8,1.5,3.3,3.3,3.3c0.9,0,1.7-0.4,2.3-1l4.3,2.6l-4.4,2.2c-0.4-0.3-0.8-0.5-1.4-0.5
		c-1.4,0-2.5,1.1-2.5,2.5c0,1.4,1.1,2.5,2.5,2.5c1.4,0,2.5-1.1,2.5-2.5c0-0.2-0.1-0.5-0.1-0.7l3.6-1.8c0.4,1,1.2,1.6,2.3,1.6
		c1.4,0,2.5-1.1,2.5-2.5C19.5,11.6,18.4,10.5,17,10.5L17,10.5z"/>
</g>
</svg>
