<?xml version="1.0" encoding="utf-8"?>
<!-- Generator: Adobe Illustrator 25.2.0, SVG Export Plug-In . SVG Version: 6.00 Build 0)  -->
<svg version="1.1" id="Layer_1" xmlns="http://www.w3.org/2000/svg" xmlns:xlink="http://www.w3.org/1999/xlink" x="0px" y="0px"
	 viewBox="0 0 23.5 23.5" style="enable-background:new 0 0 23.5 23.5;" xml:space="preserve">
<style type="text/css">
	.st0{fill:#2C7BE5;}
	.st1{fill:#FFFFFF;}
	.st2{fill-rule:evenodd;clip-rule:evenodd;fill:#2C7BE5;}
	.st3{fill:none;}
</style>
<g>
	<path class="st0" d="M17.3,8.7h-0.6V5.5c0-0.1,0-0.3-0.1-0.4c-0.8-3.7-4.9-3.7-4.9-3.7c-3.9,0-4.8,3-5,4c0,0.1,0,0.2,0,0.3l0,1.2
		c0,0.6,0.5,0.8,1.1,0.8c0.6,0,1.1-0.3,1.1-0.9l0-1.1c0,0,0-0.1,0-0.1l0,0c1-2.1,2.7-2,2.7-2c2.3,0,2.8,1.9,2.8,1.9v3.2H6.3
		c-1.2,0-2.2,1-2.2,2.2v7.2c0,1.2,1,2.2,2.2,2.2h11c1.2,0,2.2-1,2.2-2.2v-7.2C19.5,9.7,18.5,8.7,17.3,8.7z M12.7,15.8l0,1.4
		c0,0.4-0.5,0.8-1,0.8c-0.5,0-1-0.4-1-0.8v-1.5c-0.8-0.3-1.4-1.3-1.4-2.1c0-1.1,1.1-2.1,2.4-2.1c1.3,0,2.4,0.9,2.4,2.1
		C14.2,14.5,13.7,15.6,12.7,15.8z"/>
</g>
</svg>
