<?xml version="1.0" encoding="utf-8"?>
<!-- Generator: Adobe Illustrator 25.2.0, SVG Export Plug-In . SVG Version: 6.00 Build 0)  -->
<svg version="1.1" id="Layer_1" xmlns="http://www.w3.org/2000/svg" xmlns:xlink="http://www.w3.org/1999/xlink" x="0px" y="0px"
	 viewBox="0 0 23.5 23.5" style="enable-background:new 0 0 23.5 23.5;" xml:space="preserve">
<style type="text/css">
	.st0{fill:#2C7BE5;}
	.st1{fill:#FFFFFF;}
	.st2{fill-rule:evenodd;clip-rule:evenodd;fill:#2C7BE5;}
	.st3{fill:none;}
</style>
<g>
	<path class="st2" d="M19,7.2l-0.2,0.2l-3-3.1l0.2-0.2c0,0,0.7-1,1.8-1c0.5,0,1,0.2,1.5,0.7C21,5.7,19,7.2,19,7.2L19,7.2z M18.2,8
		L7.4,18.8l0,0l0,0l0,0l-4.5,1.5l1.5-4.5l0,0l0,0l0,0l0,0L15.2,4.9L18.2,8L18.2,8z M4.3,18.9l2.4-0.7L5,16.5L4.3,18.9L4.3,18.9z"/>
</g>
</svg>
