<?xml version="1.0" encoding="utf-8"?>
<!-- Generator: Adobe Illustrator 25.2.0, SVG Export Plug-In . SVG Version: 6.00 Build 0)  -->
<svg version="1.1" id="Layer_1" xmlns="http://www.w3.org/2000/svg" xmlns:xlink="http://www.w3.org/1999/xlink" x="0px" y="0px"
	 viewBox="0 0 23.5 23.5" style="enable-background:new 0 0 23.5 23.5;" xml:space="preserve">
<style type="text/css">
	.st0{fill:#2C7BE5;}
	.st1{fill:#FFFFFF;}
	.st2{fill-rule:evenodd;clip-rule:evenodd;fill:#2C7BE5;}
	.st3{fill:none;}
</style>
<g>
	<path class="st2" d="M18,17.7c-3.2,3.2-8.3,3.2-11.5,0c-3.2-3.2-3.2-8.3,0-11.5C9.7,3,14.9,3,18,6.2C21.2,9.3,21.2,14.5,18,17.7
		L18,17.7z M8.2,10V7.9h-1V10c-0.6,0.2-1,0.8-1,1.4c0,0.7,0.4,1.2,1,1.4V16h1v-3.1c0.6-0.2,1-0.8,1-1.4C9.3,10.7,8.8,10.2,8.2,10
		L8.2,10z M11.3,13V7.9h-1V13c-0.6,0.2-1,0.8-1,1.4c0,0.7,0.4,1.2,1,1.4V16h1v-0.1c0.6-0.2,1-0.8,1-1.4C12.3,13.8,11.9,13.2,11.3,13
		L11.3,13z M14.3,9V7.9h-1V9c-0.6,0.2-1,0.8-1,1.4c0,0.7,0.4,1.2,1,1.4V16h1v-4.2c0.6-0.2,1-0.8,1-1.4C15.3,9.7,14.9,9.2,14.3,9
		L14.3,9z M17.4,12V7.9h-1V12c-0.6,0.2-1,0.8-1,1.4c0,0.7,0.4,1.2,1,1.4V16h1v-1.1c0.6-0.2,1-0.8,1-1.4C18.4,12.8,18,12.2,17.4,12
		L17.4,12z M16.4,12.9h1v1h-1V12.9L16.4,12.9z M13.3,9.9h1v1h-1V9.9L13.3,9.9z M10.3,13.9h1v1h-1V13.9L10.3,13.9z M7.2,10.9h1v1h-1
		V10.9L7.2,10.9z"/>
</g>
</svg>
