<?xml version="1.0" encoding="utf-8"?>
<!-- Generator: Adobe Illustrator 25.2.0, SVG Export Plug-In . SVG Version: 6.00 Build 0)  -->
<svg version="1.1" id="Layer_1" xmlns="http://www.w3.org/2000/svg" xmlns:xlink="http://www.w3.org/1999/xlink" x="0px" y="0px"
	 viewBox="0 0 23.5 23.5" style="enable-background:new 0 0 23.5 23.5;" xml:space="preserve">
<style type="text/css">
	.st0{fill:#2C7BE5;}
	.st1{fill:#FFFFFF;}
	.st2{fill-rule:evenodd;clip-rule:evenodd;fill:#2C7BE5;}
	.st3{fill:none;}
</style>
<g>
	<path class="st0" d="M20,7.3c-0.1-3-3.3-2.8-3.3-2.8C16.1,3.7,15,3.2,15,3.2c-3.1-1-5.1,1.3-5.1,1.3C6.7,4.3,6.5,7.2,6.5,7.2
		c0,0.3,0.1,0.6,0.1,0.8v0c-4.2-0.3-4.5,3.8-4.5,3.8c0.4,5.8,5.3,3.8,5.8,3.5L8.4,15c-0.3-0.2-0.6-0.4-0.9-0.8c0,0-4,2.2-4.4-2.6
		c0,0,0.3-2.6,4-2.3c0,0,2.2-3.1,5.8-2c0,0,1.7,1.2,2.1,2.1c0,0,3.8-0.7,3.9,2.6c0,0-0.3,3.9-4.6,2.3l-2,1.5l0.8,1l1.5-1.1l0,0.1
		c5,1.2,5.4-3.8,5.4-3.8c0-1.2-0.4-2-0.9-2.6C19.9,8.5,20,7.3,20,7.3z M15.5,8c-0.7-1.2-2.2-1.8-2.2-1.8c-2.9-1-5,0.3-6,1.2
		c0-0.1,0-0.2,0-0.3c0,0,0.2-1.8,3-1.7c0,0,1.6-2.2,4.4-1.4c0,0,1.3,0.8,1.6,1.5c0,0,2.9-0.5,3,1.9c0,0-0.1,0.9-0.8,1.5
		C17.1,7.9,15.5,8,15.5,8z"/>
	<polygon class="st0" points="12,13.8 8.9,16.2 9.8,17.3 8.8,20.5 12.1,17.2 11,16 	"/>
</g>
</svg>
