<?xml version="1.0" encoding="utf-8"?>
<!-- Generator: Adobe Illustrator 25.2.0, SVG Export Plug-In . SVG Version: 6.00 Build 0)  -->
<svg version="1.1" id="Layer_1" xmlns="http://www.w3.org/2000/svg" xmlns:xlink="http://www.w3.org/1999/xlink" x="0px" y="0px"
	 viewBox="0 0 23.5 23.5" style="enable-background:new 0 0 23.5 23.5;" xml:space="preserve">
<style type="text/css">
	.st0{fill:#2C7BE5;}
	.st1{fill:#FFFFFF;}
	.st2{fill-rule:evenodd;clip-rule:evenodd;fill:#2C7BE5;}
	.st3{fill:none;}
</style>
<g>
	<g>
		<path class="st0" d="M18.4,18.3H3.8c0,0-3.8-1-4.1-5.1c-0.2-4.1,3.7-5.2,3.7-5.2S3.3,6.2,4.8,5.2c1.4-1,3.3-0.4,3.3-0.4
			s2.6-3.3,6.7-2C18.9,4.1,19,8,19,8s3.8,0.7,4.1,4.5C23.4,16.4,20,18,20,18S19.1,18.4,18.4,18.3z M19.1,17c0,0,2.6-1.7,2.3-4.7
			c-0.2-2.9-3.7-3.3-3.7-3.3s0-4-3.2-5C10,2.7,8.6,6.7,8.6,6.7S6.9,5,5.5,6.2c-1.5,1.3-0.2,3-0.2,3s-4.2-0.1-4.2,3.7
			c0,4.5,4.5,4.1,4.5,4.1h11.2C17.3,17.1,19.1,17,19.1,17z"/>
	</g>
</g>
</svg>
