<?xml version="1.0" encoding="utf-8"?>
<!-- Generator: Adobe Illustrator 25.2.0, SVG Export Plug-In . SVG Version: 6.00 Build 0)  -->
<svg version="1.1" id="Layer_1" xmlns="http://www.w3.org/2000/svg" xmlns:xlink="http://www.w3.org/1999/xlink" x="0px" y="0px"
	 viewBox="0 0 23.5 23.5" style="enable-background:new 0 0 23.5 23.5;" xml:space="preserve">
<style type="text/css">
	.st0{fill:#2C7BE5;}
	.st1{fill:#FFFFFF;}
	.st2{fill-rule:evenodd;clip-rule:evenodd;fill:#2C7BE5;}
	.st3{fill:none;}
</style>
<g>
	<path class="st2" d="M16.8,11.3c-0.3,0-0.8-0.1-1.2-0.1c-1.3,1.7-3.6,1.2-3.6,1.2c1.5-0.7,1.7-1.9,1.5-2.1
		c-1.1-0.7-1.7-1.4-1.7-2.6c0-2,2.2-3.6,5-3.6c2.8,0,4.5,1.6,4.5,3.6C21.3,9.7,19.6,11.3,16.8,11.3L16.8,11.3z M10.9,17.8
		c1.7,0.3,3.3,1.7,3.7,2c0.5,0.4,0.7,2.2,0.7,2.2h-13c0,0-0.1-1.8,0.5-2.5c0.3-0.3,1.3-1.4,3.1-1.6c1.7-0.3,1.2-2.2,1.3-2.1
		c0.1,0,0-0.4,0-0.4S5.8,14.1,5.8,13c0-1.1,0-1.6,0-1.6s0.2-2.6,2-2.6l1,0.5c1.6,0,1.8,2.1,1.8,2.1v1.8c0,0-0.2,1.5-1.2,2.1
		c0,0,0,0.4,0,0.4C9.5,15.6,9.2,17.6,10.9,17.8L10.9,17.8z"/>
</g>
</svg>
