<?xml version="1.0" encoding="utf-8"?>
<!-- Generator: Adobe Illustrator 25.2.0, SVG Export Plug-In . SVG Version: 6.00 Build 0)  -->
<svg version="1.1" id="Layer_1" xmlns="http://www.w3.org/2000/svg" xmlns:xlink="http://www.w3.org/1999/xlink" x="0px" y="0px"
	 viewBox="0 0 23.5 23.5" style="enable-background:new 0 0 23.5 23.5;" xml:space="preserve">
<style type="text/css">
	.st0{fill:#2C7BE5;}
	.st1{fill:#FFFFFF;}
	.st2{fill-rule:evenodd;clip-rule:evenodd;fill:#2C7BE5;}
	.st3{fill:none;}
</style>
<g>
	<g>
		<path class="st0" d="M4.1,19.6c0,0-1.4-1.4-2.2-3.5c-1.1-2-1.5-7.5,2.1-10.9L2.6,3.7l7-0.5L8.1,9.9l-1.4-2c0,0-4.1,4.1,0.2,9
			L4.1,19.6z"/>
	</g>
	<g>
		<path class="st0" d="M18.9,4.8c0,0,1.8,1.4,2.5,3.5c1,2,1.2,7.3-1.3,10l1.5,1.6l-7,0.1l1.7-6.6l1.3,1.8c0,0,2-3.1-1.2-7.7
			L18.9,4.8z"/>
	</g>
	<g>
		<path class="st0" d="M14,12.3c0,1.5-1.2,2.6-2.6,2.6c-1.5,0-2.6-1.2-2.6-2.6c0-1.5,1.2-2.6,2.6-2.6C12.8,9.7,14,10.9,14,12.3z"/>
	</g>
</g>
</svg>
