<?xml version="1.0" encoding="utf-8"?>
<!-- Generator: Adobe Illustrator 25.2.0, SVG Export Plug-In . SVG Version: 6.00 Build 0)  -->
<svg version="1.1" id="Layer_1" xmlns="http://www.w3.org/2000/svg" xmlns:xlink="http://www.w3.org/1999/xlink" x="0px" y="0px"
	 viewBox="0 0 23.5 23.5" style="enable-background:new 0 0 23.5 23.5;" xml:space="preserve">
<style type="text/css">
	.st0{fill:#2C7BE5;}
	.st1{fill:#FFFFFF;}
	.st2{fill-rule:evenodd;clip-rule:evenodd;fill:#2C7BE5;}
	.st3{fill:none;}
</style>
<path class="st2" d="M12.1,16.3v3.3c0,0.5-0.3,0.8-0.7,0.8c-0.4,0-0.7-0.4-0.7-0.8v-3.3C7.6,16,6,13.6,6,10.7c0-0.8,0.3-1.2,0.8-1.2
	c0.5,0,0.5,0.4,0.5,1.3c0,2.4,1.8,4.2,4.2,4.2c4.4,0,4.2-4.2,4.2-4.2c0-1,0.3-1.3,0.8-1.3c0.5,0,0.5,0.6,0.5,1.2
	C16.9,13.6,15.2,16,12.1,16.3L12.1,16.3z M11.4,13.9c-1.7,0-3.1-1.4-3.1-3.2V6.5c0-1.7,1.4-3.2,3.1-3.2c1.7,0,3.1,1.4,3.1,3.2v4.2
	C14.5,12.5,13.1,13.9,11.4,13.9L11.4,13.9z"/>
</svg>
