<?xml version="1.0" encoding="utf-8"?>
<!-- Generator: Adobe Illustrator 25.2.0, SVG Export Plug-In . SVG Version: 6.00 Build 0)  -->
<svg version="1.1" id="Layer_1" xmlns="http://www.w3.org/2000/svg" xmlns:xlink="http://www.w3.org/1999/xlink" x="0px" y="0px"
	 viewBox="0 0 23.5 23.5" style="enable-background:new 0 0 23.5 23.5;" xml:space="preserve">
<style type="text/css">
	.st0{fill:#2C7BE5;}
	.st1{fill:#FFFFFF;}
	.st2{fill-rule:evenodd;clip-rule:evenodd;fill:#2C7BE5;}
	.st3{fill:none;}
</style>
<g>
	<path class="st2" d="M4.4,13.9l0,0.1c-0.7,0.2-1.2,0.9-1.2,1.7v1.2c0,1,0.8,1.8,1.8,1.8s1.8-0.8,1.8-1.8v-1.2
		c0-0.8-0.5-1.4-1.2-1.7c0.3-3.4,2.8-6,5.9-6c3.1,0,5.6,2.7,5.9,6c-0.7,0.3-1.2,0.9-1.2,1.7v1.2c0,1,0.8,1.8,1.8,1.8
		c1,0,1.8-0.8,1.8-1.8v-1.2c0-0.8-0.5-1.4-1.2-1.7l0-0.1c0-3.9-3.2-7.1-7.1-7.1C7.6,6.8,4.4,10,4.4,13.9L4.4,13.9z"/>
</g>
</svg>
