<?xml version="1.0" encoding="utf-8"?>
<!-- Generator: Adobe Illustrator 25.2.0, SVG Export Plug-In . SVG Version: 6.00 Build 0)  -->
<svg version="1.1" id="Layer_1" xmlns="http://www.w3.org/2000/svg" xmlns:xlink="http://www.w3.org/1999/xlink" x="0px" y="0px"
	 viewBox="0 0 170.1 170.1" style="enable-background:new 0 0 170.1 170.1;" xml:space="preserve">
<style type="text/css">
	.st0{fill:#FFFFFF;}
	.st1{fill-rule:evenodd;clip-rule:evenodd;fill:#FFFFFF;}
</style>
<g>
	<path class="st0" d="M126,66.8h-7.6v9h6.3v4c0,0,0,0,0,0c1.6,1.6,1.6,4.1,0,5.6l0,0v22.5H72.4v-4.4h-2.7v5.7c0,0.7,0.6,1.4,1.4,1.4
		H126c0.7,0,1.4-0.6,1.4-1.4V68.2C127.3,67.4,126.7,66.8,126,66.8z M106.1,116.2H54V84h4.5v-9h-5.8c-0.7,0-1.4,0.6-1.4,1.4v41.1
		c0,0.7,0.6,1.4,1.4,1.4h54.9c0.7,0,1.4-0.6,1.4-1.4v-4.2h-2.7V116.2z M55.4,78.1c0.8,0,1.4,0.6,1.4,1.4c0,0.8-0.6,1.4-1.4,1.4
		S54,80.3,54,79.5C54,78.7,54.6,78.1,55.4,78.1z M72.2,68.7l4.2-0.2l0.4-1.4l-5.3-0.4L72.2,68.7z M103,82.5c-2,2-3.2,4.7-3.2,7.6
		c0,2.9,1.1,5.6,3.1,7.6c2,2,4.7,3.1,7.6,3.1c2.9,0,5.6-1.1,7.6-3.2c2-2,3.2-4.7,3.2-7.6c0-0.4,0-0.9-0.1-1.3l-2.1,2.1
		c-0.2,2-1.1,3.9-2.5,5.3c-1.6,1.6-3.8,2.5-6.1,2.5c-2.3,0-4.5-0.9-6.1-2.5c-1.6-1.6-2.5-3.8-2.5-6.1c0-2.3,0.9-4.5,2.5-6.1
		c1.6-1.6,3.8-2.5,6.1-2.5c1.9,0,3.6,0.6,5.1,1.7l1.5-1.5c-1.9-1.5-4.2-2.3-6.6-2.3C107.7,79.4,105,80.5,103,82.5z M75.7,83.6
		c0-0.2-0.2-0.4-0.4-0.4h-4.8c-0.2,0-0.4,0.2-0.4,0.4v4.8c0,0.2,0.2,0.4,0.4,0.4h4.8c0.2,0,0.4-0.2,0.4-0.4V83.6z M75,88h-4v-4h4V88
		z M106.7,88.4c-0.5-0.5-1.3-0.5-1.8,0c-0.5,0.5-0.5,1.3,0,1.8l5.6,5.6l12.3-12.3c0.5-0.5,0.5-1.3,0-1.8c-0.5-0.5-1.3-0.5-1.8,0
		l-10.5,10.5L106.7,88.4z M75.7,76.8c0-0.2-0.2-0.4-0.4-0.4h-4.8c-0.2,0-0.4,0.2-0.4,0.4v4.8c0,0.2,0.2,0.4,0.4,0.4h4.8
		c0.2,0,0.4-0.2,0.4-0.4V76.8z M75,81.3h-4v-4h4V81.3z M75.4,90h-4.8c-0.2,0-0.4,0.2-0.4,0.4v4.8c0,0.2,0.2,0.4,0.4,0.4h4.8
		c0.2,0,0.4-0.2,0.4-0.4v-4.8C75.7,90.2,75.6,90,75.4,90z M75,94.8h-4v-4h4V94.8z M78.8,79.2c0,0.5,0.4,0.8,0.8,0.8h3.1
		c0.5,0,0.8-0.4,0.8-0.8s-0.4-0.8-0.8-0.8h-3.1C79.2,78.4,78.8,78.8,78.8,79.2z M93.7,93.6h3.8c-0.1-0.5-0.3-1.1-0.3-1.7h-3.5
		c-0.5,0-0.8,0.4-0.8,0.8S93.2,93.6,93.7,93.6z M105.4,70.3c0-0.5-0.4-0.8-0.8-0.8H84.4c-0.5,0-0.8,0.4-0.8,0.8
		c0,0.5,0.4,0.8,0.8,0.8h20.1C105,71.2,105.4,70.8,105.4,70.3z M79.1,72.2v-7.5c0-1.3-1-2.3-2.3-2.3h-7.5c-1.3,0-2.3,1-2.3,2.3v7.5
		c0,1.3,1,2.3,2.3,2.3h7.5C78.1,74.6,79.1,73.5,79.1,72.2z M71.9,70.5c0,0-0.4,1-0.5,1.3c-0.1,0.3-0.3,0.5-0.6,0.5
		c-0.2,0-0.3-0.1-0.4-0.2c-0.1-0.1-0.1-0.3-0.1-0.5l0.9-2.4l-1.1-2.9l0,0L70,65.8l-1.5-0.3c-0.3-0.1-0.5-0.3-0.4-0.6
		c0.1-0.3,0.4-0.5,0.6-0.4l1.8,0.4c0.2,0,0.3,0.2,0.4,0.3l0.2,0.5l6.4,0.5c0.2,0,0.3,0.1,0.4,0.2c0.1,0.1,0.1,0.3,0.1,0.5l-0.6,2.4
		c-0.1,0.2-0.3,0.4-0.5,0.4l-4.6,0.2L71.9,70.5z M73,72.5c-0.4,0-0.8-0.3-0.8-0.8S72.6,71,73,71c0.4,0,0.8,0.3,0.8,0.8
		S73.5,72.5,73,72.5z M75.4,72.5c-0.4,0-0.8-0.3-0.8-0.8c0-0.4,0.3-0.8,0.8-0.8c0.4,0,0.8,0.3,0.8,0.8
		C76.2,72.2,75.9,72.5,75.4,72.5z M84.4,67.4h20.5c0.5,0,0.8-0.4,0.8-0.8c0-0.5-0.4-0.8-0.8-0.8H84.4c-0.5,0-0.8,0.4-0.8,0.8
		C83.6,67,84,67.4,84.4,67.4z M62.5,100.9h39.9c-0.5-0.4-1-0.8-1.4-1.2c-0.5-0.5-0.9-1-1.3-1.5H63.9V59.7h49.1v17.1
		c0.9,0.2,1.8,0.4,2.7,0.8V52.1c0-0.7-0.6-1.4-1.4-1.4H62.5c-0.7,0-1.4,0.6-1.4,1.4v47.4C61.2,100.3,61.8,100.9,62.5,100.9z
		 M74.5,53.8c0.8,0,1.4,0.6,1.4,1.4c0,0.8-0.6,1.4-1.4,1.4c-0.8,0-1.4-0.6-1.4-1.4C73.1,54.5,73.7,53.8,74.5,53.8z M69.9,53.8
		c0.8,0,1.4,0.6,1.4,1.4c0,0.8-0.6,1.4-1.4,1.4c-0.8,0-1.4-0.6-1.4-1.4C68.5,54.5,69.1,53.8,69.9,53.8z M65.3,53.8
		c0.8,0,1.4,0.6,1.4,1.4c0,0.8-0.6,1.4-1.4,1.4c-0.8,0-1.4-0.6-1.4-1.4C63.9,54.5,64.5,53.8,65.3,53.8z M98.7,79.2
		c0-0.5-0.4-0.8-0.8-0.8h-10c-0.5,0-0.8,0.4-0.8,0.8s0.4,0.8,0.8,0.8h10C98.3,80.1,98.7,79.7,98.7,79.2z M94.5,86
		c0-0.5-0.4-0.8-0.8-0.8h-3.1c-0.5,0-0.8,0.4-0.8,0.8s0.4,0.8,0.8,0.8h3.1C94.1,86.8,94.5,86.4,94.5,86z M79.7,92
		c-0.5,0-0.8,0.4-0.8,0.8s0.4,0.8,0.8,0.8h2.7c0.5,0,0.8-0.4,0.8-0.8S82.8,92,82.3,92H79.7z M87,86c0-0.5-0.4-0.8-0.8-0.8h-6.5
		c-0.5,0-0.8,0.4-0.8,0.8s0.4,0.8,0.8,0.8h6.5C86.6,86.8,87,86.4,87,86z M87,93.6H90c0.5,0,0.8-0.4,0.8-0.8S90.5,92,90,92H87
		c-0.5,0-0.8,0.4-0.8,0.8S86.5,93.6,87,93.6z"/>
</g>
</svg>
