<?xml version="1.0" encoding="utf-8"?>
<!-- Generator: Adobe Illustrator 25.2.0, SVG Export Plug-In . SVG Version: 6.00 Build 0)  -->
<svg version="1.1" id="Layer_1" xmlns="http://www.w3.org/2000/svg" xmlns:xlink="http://www.w3.org/1999/xlink" x="0px" y="0px"
	 viewBox="0 0 170.1 170.1" style="enable-background:new 0 0 170.1 170.1;" xml:space="preserve">
<style type="text/css">
	.st0{fill:#FFFFFF;}
	.st1{fill-rule:evenodd;clip-rule:evenodd;fill:#FFFFFF;}
</style>
<g>
	<g>
		<g>
			<g>
				<path class="st0" d="M129.2,66.3c-0.4-0.5-0.8-0.8-1.3-1.1c-0.5-0.3-1.1-0.4-1.7-0.4h-1h-1l0.3-1.1l0.3-1.1
					c0.2-0.5,0.2-1.1,0.1-1.7c-0.1-0.6-0.3-1.1-0.7-1.6c-0.4-0.5-0.8-0.8-1.3-1.1c-0.5-0.3-1.1-0.4-1.7-0.4h-0.6h-0.6v-0.9v-0.9
					c0-1.4-0.6-2.6-1.4-3.5c-0.9-0.9-2.1-1.4-3.5-1.4H84.5H53.8c-1.3,0-2.6,0.5-3.5,1.4c-0.9,0.9-1.4,2.1-1.4,3.5v23.5V103
					c0,0,0,0,0,0c0,0,0,0,0,0c0,0.1,0,0.1,0,0.2c0,0.1,0,0.1,0.1,0.2c0,0,0,0,0,0c0,0,0,0,0,0c0,0,0,0.1,0,0.1c0,0,0,0.1,0.1,0.1
					c0,0,0,0,0,0.1c0,0,0,0,0.1,0.1c0,0,0,0,0,0c0,0,0,0,0,0c0,0,0.1,0.1,0.2,0.1c0.1,0,0.1,0.1,0.2,0.1c0,0,0,0,0,0c0,0,0,0,0,0
					c0.1,0,0.1,0,0.2,0c0.1,0,0.1,0,0.2,0h2.3h2.3h5.7h5.7c0,0.4,0.1,0.8,0.1,1.2s0.1,0.8,0.2,1.2c0,0.3,0.2,0.5,0.3,0.7
					s0.4,0.3,0.7,0.4l3.2,0.5l3.2,0.5c0,0.1,0.1,0.2,0.1,0.3c0,0.1,0.1,0.2,0.1,0.3l-1.9,2.6l-1.9,2.6c-0.2,0.2-0.2,0.5-0.2,0.7
					s0.1,0.5,0.2,0.7c0.7,1,1.5,1.9,2.3,2.7c0.8,0.8,1.8,1.6,2.7,2.3c0.2,0.2,0.5,0.2,0.7,0.2c0.3,0,0.5-0.1,0.7-0.2l2.6-1.9
					l2.6-1.9c0.1,0,0.2,0.1,0.3,0.1c0.1,0,0.2,0.1,0.3,0.1l0.5,3.2l0.5,3.2c0,0.3,0.2,0.5,0.3,0.7c0.2,0.2,0.4,0.3,0.7,0.4
					c0.6,0.1,1.2,0.2,1.8,0.2c0.6,0,1.2,0.1,1.8,0.1c0.6,0,1.2,0,1.8-0.1c0.6,0,1.2-0.1,1.8-0.2c0.3-0.1,0.5-0.2,0.7-0.4
					s0.3-0.4,0.3-0.7l0.5-3.2l0.5-3.2c0.1,0,0.2-0.1,0.3-0.1c0.1,0,0.2-0.1,0.3-0.1l2.6,1.9l2.6,1.9c0.2,0.2,0.5,0.2,0.7,0.2
					c0.3,0,0.5-0.1,0.7-0.2c1-0.7,1.9-1.5,2.7-2.3c0.8-0.8,1.6-1.8,2.3-2.7c0.2-0.2,0.2-0.5,0.2-0.7s-0.1-0.5-0.2-0.7l-1.9-2.6
					l-1.9-2.6c0.1-0.1,0.1-0.2,0.1-0.3c0-0.1,0.1-0.2,0.1-0.3l3.2-0.5l3.2-0.5c0.3-0.1,0.5-0.2,0.7-0.4s0.3-0.4,0.4-0.7
					c0.1-0.4,0.1-0.8,0.2-1.2c0-0.4,0.1-0.8,0.1-1.2h4.3h4.3c0.3,0,0.5-0.1,0.7-0.2c0.2-0.2,0.4-0.4,0.4-0.6l4.9-16.9l4.9-16.9
					c0.2-0.6,0.2-1.1,0.1-1.7C129.8,67.3,129.6,66.8,129.2,66.3z M53.8,53.6h30.6h30.6c0.7,0,1.3,0.3,1.7,0.7
					c0.4,0.4,0.7,1.1,0.7,1.8v0.9v0.9H89H60.4c-1.2,0-2.3,0.4-3.2,1.2c-0.9,0.7-1.5,1.8-1.7,3l-1.2,7.8L53,77.5
					c-0.1,0.3,0,0.7,0.2,0.9c0.2,0.3,0.5,0.4,0.8,0.5c0,0,0.1,0,0.1,0c0,0,0.1,0,0.1,0c0.3,0,0.6-0.1,0.8-0.3s0.4-0.5,0.4-0.8
					l1.2-7.8l1.2-7.8c0.1-0.6,0.4-1.1,0.8-1.5c0.4-0.4,1-0.6,1.6-0.6h30.5h30.5c0.2,0,0.4,0,0.6,0.1c0.2,0.1,0.3,0.2,0.4,0.4
					c0.1,0.1,0.2,0.3,0.2,0.5c0,0.2,0,0.4,0,0.6l-0.4,1.5l-0.4,1.5h-9.5h-9.5c-0.1,0-0.3,0-0.4,0.1c-0.1,0-0.2,0.1-0.4,0.2l-4.9,3.6
					l-4.9,3.6H77.8H63.5c-1,0-2,0.3-2.8,0.9c-0.8,0.6-1.5,1.4-1.8,2.4l-3.7,10.2l-3.7,10.2v-20v-20c0-0.7,0.3-1.3,0.7-1.8
					C52.6,53.9,53.2,53.6,53.8,53.6z M107.7,105.4l-3.1,0.5l-3.1,0.5c-0.2,0-0.4,0.1-0.6,0.3c-0.2,0.1-0.3,0.3-0.4,0.6
					c-0.1,0.3-0.2,0.5-0.3,0.8c-0.1,0.3-0.3,0.6-0.4,0.8c-0.1,0.2-0.1,0.4-0.1,0.7c0,0.2,0.1,0.4,0.2,0.6l1.8,2.6l1.8,2.6
					c-0.5,0.6-1,1.2-1.5,1.7c-0.5,0.6-1.1,1.1-1.7,1.5l-2.5-1.8l-2.5-1.8c-0.2-0.1-0.4-0.2-0.6-0.2c-0.2,0-0.4,0-0.7,0.1
					c-0.3,0.1-0.5,0.3-0.8,0.4c-0.3,0.1-0.6,0.2-0.8,0.3c-0.2,0.1-0.4,0.2-0.6,0.4c-0.1,0.2-0.2,0.4-0.3,0.6l-0.5,3.1l-0.5,3.1
					c-0.8,0.1-1.5,0.1-2.3,0.1c-0.8,0-1.6,0-2.3-0.1l-0.5-3.1l-0.5-3.1c0-0.2-0.1-0.4-0.3-0.6c-0.1-0.2-0.3-0.3-0.5-0.4
					c-0.3-0.1-0.6-0.2-0.9-0.3c-0.3-0.1-0.5-0.2-0.8-0.4c-0.2-0.1-0.4-0.2-0.7-0.1c-0.2,0-0.4,0.1-0.6,0.2l-2.5,1.8l-2.5,1.8
					c-0.6-0.5-1.2-1-1.7-1.5c-0.5-0.6-1.1-1.1-1.5-1.7l1.9-2.6l1.9-2.6c0.1-0.2,0.2-0.4,0.2-0.6c0-0.2,0-0.4-0.1-0.7
					c-0.1-0.3-0.3-0.5-0.4-0.8s-0.2-0.5-0.3-0.8c-0.1-0.2-0.2-0.4-0.4-0.6c-0.2-0.1-0.4-0.2-0.6-0.3l-3.1-0.5l-3.1-0.5
					c0-0.4-0.1-0.8-0.1-1.1c0-0.4,0-0.8,0-1.1c0-0.4,0-0.8,0-1.2c0-0.4,0.1-0.8,0.1-1.2l3.1-0.5l3.1-0.5c0.2,0,0.4-0.1,0.6-0.3
					c0.2-0.1,0.3-0.3,0.4-0.6c0.1-0.3,0.2-0.5,0.3-0.8c0.1-0.3,0.2-0.5,0.4-0.8c0.1-0.2,0.1-0.4,0.1-0.7c0-0.2-0.1-0.4-0.2-0.6
					l-1.9-2.6l-1.9-2.6c0.5-0.6,1-1.2,1.5-1.7c0.5-0.5,1.1-1.1,1.7-1.6l2.5,1.8l2.5,1.8c0.2,0.1,0.4,0.2,0.6,0.3s0.4,0,0.7-0.1
					c0.3-0.1,0.6-0.3,0.9-0.4c0.3-0.1,0.6-0.2,0.8-0.3c0.2-0.1,0.4-0.2,0.5-0.4c0.1-0.2,0.2-0.4,0.3-0.6l0.5-3.1l0.5-3.1
					c0.8-0.1,1.5-0.2,2.3-0.2c0.8,0,1.5,0.1,2.3,0.2l0.5,3.1l0.5,3.1c0,0.2,0.1,0.4,0.3,0.6c0.1,0.2,0.3,0.3,0.6,0.4
					c0.3,0.1,0.5,0.2,0.8,0.3c0.3,0.1,0.6,0.3,0.8,0.4c0.2,0.1,0.4,0.1,0.7,0.1c0.2,0,0.4-0.1,0.6-0.2l2.5-1.9l2.5-1.9
					c0.6,0.5,1.2,1,1.7,1.6c0.5,0.5,1.1,1.1,1.5,1.7l-1.8,2.6L99.9,96c-0.1,0.2-0.2,0.4-0.2,0.6c0,0.2,0,0.4,0.1,0.7
					c0.1,0.3,0.3,0.6,0.4,0.8c0.1,0.3,0.2,0.6,0.3,0.8c0.1,0.2,0.2,0.4,0.4,0.6c0.2,0.1,0.4,0.2,0.6,0.3l3.1,0.5l3.1,0.5
					c0.1,0.4,0.1,0.8,0.1,1.2c0,0.4,0,0.8,0,1.2c0,0.4,0,0.7,0,1.1C107.8,104.6,107.7,105,107.7,105.4z M127.5,68.9l-4.8,16.5
					l-4.8,16.5h-3.8h-3.8c0-0.4,0-0.8-0.1-1.2c0-0.4-0.1-0.8-0.2-1.2c0-0.3-0.2-0.5-0.3-0.7c-0.2-0.2-0.4-0.3-0.7-0.4l-3.2-0.5
					l-3.2-0.5c0-0.1-0.1-0.2-0.1-0.3c0-0.1-0.1-0.2-0.1-0.3l1.9-2.6l1.9-2.6c0.2-0.2,0.2-0.5,0.2-0.7s-0.1-0.5-0.2-0.7
					c-0.7-1-1.5-1.9-2.3-2.7c-0.8-0.8-1.8-1.6-2.7-2.3c-0.2-0.1-0.5-0.2-0.7-0.2c-0.3,0-0.5,0.1-0.7,0.2L97,87l-2.6,1.9
					c-0.1,0-0.2-0.1-0.3-0.1c-0.1,0-0.2-0.1-0.3-0.1l-0.5-3.2l-0.5-3.2c0-0.3-0.2-0.5-0.3-0.7c-0.2-0.2-0.4-0.3-0.7-0.4
					c-1.2-0.2-2.4-0.3-3.6-0.3c-1.2,0-2.4,0.1-3.6,0.3c-0.3,0.1-0.5,0.2-0.7,0.4c-0.2,0.2-0.3,0.4-0.3,0.7l-0.5,3.2l-0.5,3.2
					c-0.1,0-0.2,0.1-0.3,0.1c-0.1,0-0.2,0.1-0.3,0.1L79.4,87l-2.6-1.9c-0.2-0.1-0.5-0.2-0.7-0.2c-0.3,0-0.5,0.1-0.7,0.2
					c-1,0.7-1.9,1.5-2.7,2.3c-0.8,0.8-1.6,1.8-2.3,2.7c-0.2,0.2-0.2,0.5-0.2,0.7s0.1,0.5,0.2,0.7l1.9,2.6l1.9,2.6
					c0,0.1-0.1,0.2-0.1,0.3c0,0.1-0.1,0.2-0.1,0.3l-3.2,0.5l-3.2,0.5c-0.3,0.1-0.5,0.2-0.7,0.4c-0.2,0.2-0.3,0.4-0.3,0.7
					c-0.1,0.4-0.1,0.8-0.2,1.2s-0.1,0.8-0.1,1.2h-4.9h-4.9h-2.2h-2.2l4.6-12.7l4.6-12.7c0.2-0.5,0.5-0.9,0.9-1.2
					c0.4-0.3,0.9-0.5,1.4-0.5H78h14.5c0.1,0,0.3,0,0.4-0.1c0.1,0,0.2-0.1,0.3-0.2l4.9-3.6l4.9-3.6h11.6h11.6c0.2,0,0.4,0.1,0.6,0.1
					c0.2,0.1,0.3,0.2,0.4,0.4c0.1,0.2,0.2,0.3,0.2,0.5C127.5,68.5,127.5,68.7,127.5,68.9z"/>
				<path class="st0" d="M88.2,125.3c-0.7,0-1.3,0-1.9-0.1c-0.6,0-1.2-0.1-1.7-0.2c-0.3-0.1-0.6-0.2-0.8-0.4
					c-0.2-0.2-0.4-0.5-0.4-0.8l-0.5-3.1l-0.5-3.1c0,0-0.1,0-0.1,0c0,0-0.1,0-0.1,0c0,0,0,0-0.1,0c0,0,0,0-0.1,0l-2.6,1.9l-2.6,1.9
					c-0.3,0.2-0.6,0.3-0.9,0.3c-0.3,0-0.6-0.1-0.9-0.3c-1-0.7-1.9-1.5-2.8-2.4c-0.9-0.9-1.6-1.8-2.3-2.7c-0.2-0.3-0.3-0.6-0.3-0.9
					c0-0.3,0.1-0.6,0.3-0.9l1.9-2.6l1.9-2.6c0-0.1-0.1-0.1-0.1-0.2c0-0.1-0.1-0.1-0.1-0.2l-3.1-0.5l-3.1-0.5
					c-0.3-0.1-0.6-0.2-0.8-0.4c-0.2-0.2-0.4-0.5-0.4-0.8c-0.1-0.4-0.1-0.8-0.1-1.1c0-0.4-0.1-0.7-0.1-1.1H58h-7.9
					c-0.1,0-0.2,0-0.3,0c-0.1,0-0.2,0-0.2-0.1c0,0,0,0-0.1,0c0,0,0,0,0,0c-0.1,0-0.1-0.1-0.2-0.1c-0.1,0-0.1-0.1-0.2-0.1l0,0l0,0
					c0,0,0,0-0.1,0c0,0,0,0,0,0c0,0,0,0-0.1-0.1c0,0,0,0-0.1-0.1c0,0,0-0.1-0.1-0.1c0,0,0-0.1,0-0.1c0,0,0,0,0,0c0,0,0,0,0,0
					c0,0,0,0,0-0.1c0,0,0,0,0-0.1c0-0.1-0.1-0.1-0.1-0.2s0-0.1,0-0.2c0,0,0,0,0,0c0,0,0,0,0-0.1V79.5V56.1c0-1.4,0.6-2.7,1.5-3.6
					c0.9-0.9,2.2-1.5,3.6-1.5h30.6h30.6c1.4,0,2.7,0.6,3.6,1.5c0.9,0.9,1.5,2.2,1.5,3.6v0.7v0.7h0.5h0.5c0.6,0,1.2,0.1,1.8,0.4
					c0.5,0.3,1,0.7,1.4,1.2c0.4,0.5,0.6,1.1,0.7,1.7c0.1,0.6,0.1,1.2-0.1,1.8l-0.3,1l-0.3,1h0.9h0.9c0.6,0,1.2,0.1,1.8,0.4
					c0.5,0.3,1,0.7,1.4,1.2c0.4,0.5,0.6,1.1,0.7,1.6c0.1,0.6,0.1,1.2-0.1,1.8l-4.9,16.9l-4.9,16.9c-0.1,0.3-0.3,0.6-0.5,0.7
					c-0.2,0.2-0.6,0.3-0.9,0.3h-4.2h-4.2c0,0.4,0,0.7-0.1,1.1c0,0.4-0.1,0.7-0.1,1.1c-0.1,0.3-0.2,0.6-0.4,0.8
					c-0.2,0.2-0.5,0.4-0.8,0.4l-3.1,0.5l-3.1,0.5c0,0.1,0,0.1-0.1,0.2c0,0.1-0.1,0.1-0.1,0.2l1.9,2.6l1.9,2.6
					c0.2,0.3,0.3,0.6,0.3,0.9c0,0.3-0.1,0.6-0.3,0.9c-0.7,1-1.5,1.9-2.3,2.7c-0.9,0.9-1.8,1.6-2.8,2.4c-0.2,0.2-0.5,0.3-0.8,0.3
					c-0.3,0-0.6-0.1-0.9-0.3l-2.6-1.9l-2.6-1.9c0,0-0.1,0-0.1,0c0,0-0.1,0-0.1,0c0,0-0.1,0-0.1,0c0,0-0.1,0-0.1,0l-0.5,3.1l-0.5,3.1
					c0,0.3-0.2,0.6-0.4,0.8c-0.2,0.2-0.5,0.4-0.8,0.4c-0.5,0.1-1.1,0.2-1.7,0.2C89.5,125.3,88.8,125.3,88.2,125.3z M81.9,117
					L81.9,117l0.1,0c0,0,0.1,0,0.1,0c0,0,0.1,0,0.1,0c0.1,0,0.1,0,0.2,0.1c0.1,0,0.1,0,0.2,0.1l0.1,0l0.1,0l0.5,3.3l0.5,3.3
					c0,0.2,0.1,0.4,0.3,0.5c0.1,0.1,0.3,0.3,0.6,0.3c0.5,0.1,1.1,0.1,1.7,0.2s1.2,0.1,1.8,0.1c0.6,0,1.3,0,1.9-0.1
					c0.6,0,1.2-0.1,1.7-0.2c0.2,0,0.4-0.1,0.5-0.3c0.1-0.1,0.2-0.3,0.3-0.5l0.5-3.3l0.5-3.3l0.1,0l0.1,0c0.1,0,0.1,0,0.2-0.1
					c0.1,0,0.1,0,0.2-0.1c0,0,0.1,0,0.1-0.1c0,0,0.1,0,0.2-0.1l0.1,0l0.1,0l2.7,1.9l2.7,1.9c0.2,0.1,0.4,0.2,0.6,0.2
					c0.2,0,0.4-0.1,0.6-0.2c1-0.7,1.9-1.5,2.7-2.3c0.8-0.8,1.6-1.7,2.3-2.7c0.1-0.2,0.2-0.4,0.2-0.6c0-0.2-0.1-0.4-0.2-0.6L104,112
					l-1.9-2.7l0-0.1l0-0.1c0.1-0.1,0.1-0.2,0.1-0.3c0-0.1,0.1-0.2,0.1-0.3l0-0.1l0-0.1l3.3-0.5l3.3-0.5c0.2,0,0.4-0.2,0.5-0.3
					c0.1-0.1,0.3-0.3,0.3-0.5c0.1-0.4,0.1-0.8,0.1-1.2c0-0.4,0.1-0.8,0.1-1.2l0-0.1l0-0.1h4.4h4.4c0.2,0,0.4-0.1,0.6-0.2
					c0.2-0.1,0.3-0.3,0.4-0.5l4.9-16.9l4.9-16.9c0.2-0.5,0.2-1.1,0.1-1.6c-0.1-0.5-0.3-1-0.6-1.4l0,0l0,0c-0.3-0.4-0.8-0.8-1.2-1
					c-0.5-0.2-1-0.4-1.6-0.4h-1.2H124l0.4-1.3l0.4-1.3c0.2-0.5,0.2-1.1,0.1-1.6c-0.1-0.5-0.3-1-0.6-1.5c-0.3-0.4-0.8-0.8-1.2-1
					c-0.5-0.2-1-0.4-1.6-0.4h-0.8h-0.8v-1v-1c0-1.3-0.5-2.5-1.4-3.3c-0.8-0.8-2-1.4-3.3-1.4H84.5H53.8c-1.3,0-2.5,0.5-3.3,1.4
					c-0.8,0.8-1.4,2-1.4,3.3v23.5V103c0,0,0,0,0,0c0,0,0,0,0,0.1c0,0.1,0,0.1,0,0.1c0,0,0,0.1,0.1,0.2l0,0l0,0c0,0,0,0,0,0
					c0,0,0,0,0,0c0,0,0,0,0,0.1s0,0,0,0l0,0l0,0v0v0c0,0,0,0,0,0c0,0,0,0,0,0l0,0l0,0l0,0l0,0l0,0l0,0c0,0,0.1,0.1,0.1,0.1
					c0,0,0.1,0,0.1,0.1c0,0,0,0,0.1,0c0,0,0,0,0,0c0.1,0,0.1,0,0.2,0s0.1,0,0.2,0h8.1h8.1l0,0.1l0,0.1c0,0.4,0.1,0.7,0.1,1.1
					s0.1,0.8,0.2,1.2c0,0.2,0.1,0.4,0.3,0.5c0.1,0.1,0.3,0.3,0.6,0.3l3.2,0.5l3.2,0.5l0,0.1l0,0.1c0,0.1,0.1,0.2,0.1,0.3
					c0,0.1,0.1,0.2,0.1,0.3l0,0.1l0,0.1l-1.9,2.7l-1.9,2.7c-0.1,0.2-0.2,0.4-0.2,0.6c0,0.2,0.1,0.4,0.2,0.6c0.7,0.9,1.4,1.8,2.3,2.7
					c0.8,0.8,1.8,1.6,2.8,2.3c0.2,0.1,0.4,0.2,0.6,0.2c0.2,0,0.4-0.1,0.6-0.2l2.7-1.9L81.9,117z M88.2,122.9c-0.4,0-0.8,0-1.2,0
					c-0.4,0-0.8-0.1-1.2-0.1l-0.1,0l-0.1,0l-0.5-3.2l-0.5-3.2c0-0.2-0.1-0.4-0.2-0.5c-0.1-0.1-0.3-0.2-0.4-0.3
					c-0.4-0.1-0.7-0.3-0.9-0.4c-0.3-0.1-0.5-0.2-0.7-0.3c-0.2-0.1-0.4-0.1-0.5-0.1c-0.2,0-0.4,0.1-0.5,0.2l-2.6,1.9l-2.6,1.9
					l-0.1-0.1l-0.1-0.1c-0.6-0.4-1.1-0.9-1.7-1.5c-0.6-0.6-1.1-1.2-1.6-1.8l-0.1-0.1l-0.1-0.1l1.9-2.6l1.9-2.6
					c0.1-0.2,0.2-0.3,0.2-0.5c0-0.2,0-0.4-0.1-0.5c-0.1-0.3-0.3-0.6-0.4-0.9c-0.1-0.3-0.2-0.5-0.3-0.8c-0.1-0.2-0.2-0.3-0.3-0.5
					c-0.1-0.1-0.3-0.2-0.5-0.2l-3.2-0.5l-3.2-0.5l0-0.1l0-0.1c-0.1-0.4-0.1-0.8-0.1-1.2c0-0.4,0-0.8,0-1.1c0-0.4,0-0.8,0-1.2
					s0.1-0.8,0.1-1.2l0-0.1l0-0.1l3.2-0.5l3.2-0.5c0.2,0,0.3-0.1,0.5-0.2c0.1-0.1,0.2-0.3,0.3-0.5c0.1-0.3,0.2-0.5,0.3-0.8
					c0.1-0.3,0.3-0.6,0.4-0.9c0.1-0.2,0.1-0.4,0.1-0.5c0-0.2-0.1-0.3-0.2-0.5l-1.9-2.6l-1.9-2.6l0.1-0.1l0.1-0.1
					c0.5-0.6,1-1.2,1.6-1.7c0.6-0.6,1.1-1.1,1.8-1.6l0.1-0.1l0.1-0.1l2.6,1.9l2.6,1.9c0.2,0.1,0.3,0.2,0.5,0.2c0.2,0,0.4,0,0.5-0.1
					c0.3-0.2,0.6-0.3,0.9-0.4s0.5-0.2,0.8-0.3c0.2,0,0.3-0.1,0.4-0.3c0.1-0.1,0.2-0.3,0.2-0.5l0.5-3.2l0.5-3.2l0.1,0l0.1,0
					c0.8-0.1,1.6-0.2,2.4-0.2c0.8,0,1.6,0.1,2.3,0.2l0.1,0l0.1,0l0.5,3.2l0.5,3.2c0,0.2,0.1,0.3,0.2,0.5c0.1,0.1,0.3,0.2,0.5,0.3
					c0.2,0.1,0.5,0.2,0.8,0.3c0.3,0.1,0.6,0.3,0.9,0.4c0.2,0.1,0.4,0.1,0.5,0.1c0.2,0,0.4-0.1,0.5-0.2l2.6-1.9l2.6-1.9l0.1,0.1
					l0.1,0.1c0.6,0.5,1.2,1,1.8,1.6c0.6,0.6,1.1,1.1,1.6,1.7l0.1,0.1l0.1,0.1l-1.9,2.6l-1.9,2.6c-0.1,0.1-0.2,0.3-0.2,0.5
					c0,0.2,0,0.4,0.1,0.6c0.1,0.2,0.3,0.5,0.4,0.8c0.1,0.3,0.2,0.6,0.3,0.9c0.1,0.2,0.2,0.3,0.3,0.5c0.1,0.1,0.3,0.2,0.5,0.2
					l3.2,0.5l3.2,0.5l0,0.1l0,0.1c0,0.3,0.1,0.7,0.1,1.1c0,0.4,0,0.8,0,1.2c0,0.4,0,0.8,0,1.2c0,0.4-0.1,0.8-0.1,1.1l0,0.1l0,0.1
					l-3.2,0.5l-3.2,0.5c-0.2,0-0.4,0.1-0.5,0.2c-0.1,0.1-0.2,0.3-0.3,0.4c-0.1,0.3-0.2,0.6-0.4,0.9c-0.1,0.3-0.2,0.5-0.4,0.8
					c-0.1,0.2-0.1,0.4-0.1,0.5c0,0.2,0.1,0.3,0.2,0.5l1.9,2.6l1.9,2.6l-0.1,0.1l-0.1,0.1c-0.5,0.7-1.1,1.3-1.6,1.8
					c-0.6,0.6-1.1,1.1-1.7,1.5l-0.1,0.1l-0.1,0.1l-2.6-1.9l-2.6-1.9c-0.1-0.1-0.3-0.2-0.5-0.2c-0.2,0-0.4,0-0.5,0.1
					c-0.3,0.1-0.5,0.3-0.8,0.4c-0.3,0.1-0.6,0.2-0.9,0.3c-0.2,0.1-0.3,0.2-0.5,0.3c-0.1,0.1-0.2,0.3-0.2,0.5l-0.5,3.2l-0.5,3.2
					l-0.1,0l-0.1,0c-0.4,0-0.8,0.1-1.2,0.1S88.6,122.9,88.2,122.9z M86.1,122.4c0.7,0.1,1.4,0.1,2.1,0.1s1.4,0,2.1-0.1l0.5-3l0.5-3
					c0-0.3,0.1-0.5,0.3-0.7c0.2-0.2,0.4-0.4,0.7-0.4c0.3-0.1,0.6-0.2,0.8-0.3c0.3-0.1,0.5-0.2,0.8-0.4c0.2-0.1,0.5-0.2,0.8-0.2
					c0.3,0,0.5,0.1,0.7,0.3l2.5,1.8l2.5,1.8c0.5-0.4,1-0.9,1.5-1.4c0.5-0.5,1-1,1.5-1.6l-1.8-2.5l-1.8-2.5c-0.2-0.2-0.3-0.5-0.3-0.7
					c0-0.3,0-0.5,0.1-0.8c0.1-0.2,0.2-0.5,0.4-0.8c0.1-0.3,0.2-0.6,0.3-0.9c0.1-0.3,0.2-0.5,0.4-0.6c0.2-0.2,0.4-0.3,0.7-0.3l3-0.5
					l3-0.5c0-0.3,0.1-0.7,0.1-1c0-0.3,0-0.7,0-1.1c0-0.4,0-0.8,0-1.1s-0.1-0.7-0.1-1l-3-0.5l-3-0.5c-0.3,0-0.5-0.2-0.7-0.3
					c-0.2-0.2-0.4-0.4-0.4-0.7c-0.1-0.3-0.2-0.6-0.3-0.8c-0.1-0.3-0.2-0.5-0.4-0.8c-0.1-0.3-0.2-0.5-0.1-0.8s0.1-0.5,0.3-0.7
					l1.8-2.5l1.8-2.5c-0.4-0.5-0.9-1.1-1.4-1.6c-0.5-0.5-1-1-1.6-1.4l-2.5,1.8l-2.5,1.8c-0.2,0.2-0.5,0.2-0.7,0.3
					c-0.3,0-0.5,0-0.8-0.1c-0.3-0.2-0.6-0.3-0.9-0.4c-0.3-0.1-0.5-0.2-0.8-0.3c-0.3-0.1-0.5-0.2-0.7-0.4c-0.2-0.2-0.3-0.4-0.3-0.7
					l-0.5-3l-0.5-3c-0.7-0.1-1.4-0.1-2.1-0.1c-0.7,0-1.4,0-2.1,0.1l-0.5,3l-0.5,3c0,0.3-0.2,0.5-0.3,0.7c-0.2,0.2-0.4,0.3-0.6,0.4
					c-0.2,0.1-0.5,0.2-0.8,0.3c-0.3,0.1-0.6,0.3-0.9,0.4c-0.3,0.1-0.5,0.2-0.8,0.1s-0.5-0.1-0.7-0.3l-2.5-1.8L76,87.9
					c-0.6,0.5-1.1,0.9-1.6,1.4c-0.5,0.5-1,1-1.4,1.6l1.8,2.5l1.8,2.5c0.2,0.2,0.3,0.5,0.3,0.7c0,0.3,0,0.5-0.1,0.8
					c-0.1,0.3-0.3,0.6-0.4,0.9c-0.1,0.3-0.2,0.5-0.3,0.8c-0.1,0.3-0.2,0.5-0.4,0.7c-0.2,0.2-0.4,0.3-0.7,0.3l-3,0.5l-3,0.5
					c0,0.4-0.1,0.7-0.1,1.1s0,0.7,0,1c0,0.3,0,0.7,0,1c0,0.3,0.1,0.7,0.1,1.1l3,0.5l3,0.5c0.3,0,0.5,0.2,0.7,0.3
					c0.2,0.2,0.4,0.4,0.4,0.7c0.1,0.3,0.2,0.5,0.3,0.8c0.1,0.3,0.2,0.5,0.4,0.8c0.1,0.3,0.2,0.5,0.1,0.8c0,0.3-0.1,0.5-0.3,0.7
					l-1.8,2.5l-1.8,2.5c0.5,0.6,1,1.1,1.5,1.6c0.5,0.5,1,1,1.5,1.4l2.5-1.8l2.5-1.8c0.2-0.2,0.5-0.3,0.7-0.3c0.3,0,0.5,0,0.8,0.2
					c0.2,0.1,0.5,0.2,0.7,0.3c0.3,0.1,0.6,0.2,0.9,0.4c0.3,0.1,0.5,0.2,0.6,0.4c0.2,0.2,0.3,0.4,0.3,0.7l0.5,3L86.1,122.4z
					 M118.1,102.1h-4h-4l0-0.1l0-0.1c0-0.4,0-0.8-0.1-1.2c0-0.4-0.1-0.8-0.1-1.2c0-0.2-0.1-0.4-0.3-0.5c-0.1-0.1-0.3-0.2-0.6-0.3
					l-3.3-0.5l-3.3-0.5l0-0.1l0-0.1c0-0.1-0.1-0.2-0.1-0.3c0-0.1-0.1-0.2-0.1-0.3l0-0.1l0-0.1l1.9-2.7l1.9-2.7
					c0.1-0.2,0.2-0.4,0.2-0.6c0-0.2-0.1-0.4-0.2-0.6c-0.7-1-1.5-1.9-2.3-2.7c-0.8-0.8-1.7-1.6-2.7-2.3c-0.2-0.1-0.4-0.2-0.6-0.2
					c-0.2,0-0.4,0.1-0.6,0.2l-2.7,1.9l-2.7,1.9l-0.1,0l-0.1,0c-0.1,0-0.1,0-0.2-0.1c-0.1,0-0.1,0-0.2-0.1c0,0-0.1,0-0.1-0.1
					c0,0-0.1,0-0.1-0.1l-0.1,0l-0.1,0l-0.5-3.3l-0.5-3.3c0-0.2-0.1-0.4-0.3-0.5c-0.1-0.1-0.3-0.3-0.6-0.3c-1.2-0.2-2.4-0.3-3.5-0.3
					c-1.2,0-2.4,0.1-3.5,0.3c-0.2,0-0.4,0.2-0.6,0.3c-0.1,0.1-0.2,0.3-0.3,0.5l-0.5,3.3l-0.5,3.3l-0.2,0.1L82.4,89
					c-0.1,0-0.1,0-0.2,0.1c-0.1,0-0.1,0-0.2,0.1l-0.1,0l-0.1,0l-2.7-1.9l-2.7-1.9c-0.2-0.1-0.4-0.2-0.6-0.2s-0.4,0.1-0.6,0.2
					c-1,0.7-1.9,1.5-2.7,2.3c-0.8,0.8-1.6,1.7-2.3,2.7c-0.1,0.2-0.2,0.4-0.2,0.6c0,0.2,0.1,0.4,0.2,0.6l1.9,2.7l1.9,2.7l0,0.1l0,0.1
					c0,0.1,0,0.1-0.1,0.2c0,0.1,0,0.1-0.1,0.2c0,0,0,0.1-0.1,0.1c0,0,0,0.1-0.1,0.1l0,0.1l0,0.1l-3.3,0.5l-3.3,0.5
					c-0.2,0-0.4,0.1-0.5,0.3c-0.1,0.1-0.2,0.3-0.3,0.5c-0.1,0.4-0.1,0.8-0.2,1.2s-0.1,0.8-0.1,1.1l0,0.1l0,0.1H59h-7.4l0.1-0.2
					l0.1-0.2l4.6-12.7l4.6-12.7c0.2-0.5,0.6-1,1-1.3c0.4-0.3,1-0.5,1.6-0.5H78h14.5c0.1,0,0.2,0,0.3,0c0.1,0,0.2-0.1,0.3-0.1l5-3.7
					l5-3.7h11.6h11.6c0.2,0,0.4,0.1,0.6,0.2c0.2,0.1,0.4,0.2,0.5,0.4c0.1,0.2,0.2,0.4,0.3,0.6c0,0.2,0,0.4,0,0.7l-4.8,16.6
					L118.1,102.1z M110.4,101.6h3.7h3.7l4.7-16.4l4.7-16.4c0-0.1,0.1-0.3,0-0.5c0-0.2-0.1-0.3-0.2-0.4c-0.1-0.1-0.2-0.2-0.4-0.3
					c-0.1-0.1-0.3-0.1-0.4-0.1h-11.5h-11.5l-4.9,3.6l-4.9,3.6c-0.1,0.1-0.3,0.2-0.4,0.2c-0.1,0-0.3,0.1-0.5,0.1H78H63.5
					c-0.5,0-0.9,0.2-1.3,0.4c-0.4,0.3-0.7,0.6-0.8,1.1l-4.6,12.5l-4.6,12.5h6.8h6.8c0-0.3,0.1-0.7,0.1-1.1c0-0.4,0.1-0.7,0.1-1.1
					c0.1-0.3,0.2-0.6,0.4-0.8c0.2-0.2,0.5-0.4,0.8-0.4l3.1-0.5l3.1-0.5c0,0,0-0.1,0-0.1c0,0,0-0.1,0-0.1c0,0,0-0.1,0-0.1
					c0,0,0-0.1,0-0.1l-1.9-2.6L70,91.8c-0.2-0.3-0.3-0.6-0.3-0.9c0-0.3,0.1-0.6,0.3-0.9c0.7-1,1.5-1.9,2.3-2.7s1.8-1.6,2.8-2.4
					c0.3-0.2,0.5-0.3,0.8-0.3c0.3,0,0.6,0.1,0.9,0.3l2.6,1.9l2.6,1.9c0,0,0.1,0,0.1,0c0,0,0.1,0,0.1,0l0.1,0l0.1,0l0.5-3.1l0.5-3.1
					c0-0.3,0.2-0.6,0.4-0.8c0.2-0.2,0.5-0.4,0.8-0.4c1.2-0.2,2.4-0.3,3.6-0.3c1.2,0,2.4,0.1,3.6,0.3c0.3,0.1,0.6,0.2,0.8,0.4
					c0.2,0.2,0.3,0.5,0.4,0.8l0.5,3.1l0.5,3.1c0,0,0.1,0,0.1,0c0,0,0.1,0,0.1,0c0,0,0.1,0,0.1,0c0,0,0.1,0,0.1,0l2.6-1.9l2.6-1.9
					c0.3-0.2,0.6-0.3,0.9-0.3c0.3,0,0.6,0.1,0.8,0.3c1,0.7,1.9,1.5,2.8,2.3c0.9,0.9,1.6,1.8,2.4,2.8c0.2,0.3,0.3,0.6,0.3,0.9
					c0,0.3-0.1,0.6-0.3,0.9l-1.9,2.6l-1.9,2.6c0,0.1,0.1,0.1,0.1,0.2c0,0.1,0,0.1,0.1,0.2l3.1,0.5l3.1,0.5c0.3,0.1,0.6,0.2,0.8,0.4
					c0.2,0.2,0.4,0.5,0.4,0.8c0.1,0.4,0.1,0.7,0.1,1.1C110.4,100.9,110.4,101.2,110.4,101.6z M51.2,97.4V76.7V56.1
					c0-0.7,0.3-1.4,0.8-1.9c0.5-0.5,1.2-0.8,1.9-0.8h30.6h30.6c0.7,0,1.4,0.3,1.9,0.8c0.5,0.5,0.8,1.2,0.8,1.9v1v1H89.1H60.4
					c-1.2,0-2.2,0.4-3,1.1c-0.8,0.7-1.4,1.7-1.6,2.8l-1.2,7.8l-1.2,7.8c0,0.1,0,0.3,0,0.4c0,0.1,0.1,0.3,0.2,0.4
					c0.1,0.1,0.2,0.2,0.3,0.2s0.2,0.1,0.3,0.1c0,0,0.1,0,0.1,0c0,0,0,0,0.1,0c0,0,0,0,0,0s0,0,0,0c0.2,0,0.5-0.1,0.7-0.2
					c0.2-0.2,0.3-0.4,0.3-0.6l1.2-7.8l1.2-7.8c0.1-0.6,0.4-1.2,0.9-1.6c0.5-0.4,1.1-0.6,1.8-0.6h30.5h30.5c0.2,0,0.5,0.1,0.7,0.2
					c0.2,0.1,0.4,0.3,0.5,0.4c0.1,0.2,0.2,0.4,0.3,0.6c0,0.2,0,0.5,0,0.7l-0.5,1.6l-0.5,1.6h-9.6h-9.6c-0.1,0-0.2,0-0.3,0.1
					s-0.2,0.1-0.3,0.2l-5,3.6l-5,3.6H77.9H63.5c-1,0-1.9,0.3-2.7,0.9c-0.8,0.5-1.4,1.3-1.7,2.3l-4,10.8L51.2,97.4z M53.8,53.8
					c-0.6,0-1.2,0.3-1.6,0.7c-0.4,0.4-0.7,1-0.7,1.6v19.4v19.4l3.5-9.6l3.5-9.6c0.4-1,1-1.9,1.9-2.5c0.9-0.6,1.9-0.9,3-0.9h14.3
					h14.3l4.9-3.6l4.9-3.6c0.1-0.1,0.3-0.2,0.4-0.2c0.1-0.1,0.3-0.1,0.4-0.1h9.4h9.4l0.4-1.4l0.4-1.4c0.1-0.2,0.1-0.3,0-0.5
					c0-0.1-0.1-0.3-0.2-0.4l0,0l0,0c-0.1-0.1-0.2-0.2-0.4-0.3c-0.1-0.1-0.3-0.1-0.5-0.1H90.8H60.4c-0.6,0-1.1,0.2-1.5,0.5
					c-0.4,0.3-0.7,0.8-0.7,1.3l-1.2,7.8l-1.2,7.8c-0.1,0.4-0.2,0.7-0.5,0.9c-0.3,0.2-0.6,0.4-1,0.4c0,0-0.1,0-0.1,0c0,0-0.1,0-0.1,0
					c0,0,0,0,0,0c0,0,0,0,0,0c-0.2,0-0.4-0.1-0.5-0.2c-0.2-0.1-0.3-0.2-0.4-0.4c-0.1-0.2-0.2-0.3-0.3-0.5c0-0.2-0.1-0.4,0-0.6
					l1.2-7.8l1.2-7.8c0.2-1.3,0.8-2.3,1.7-3.1c0.9-0.8,2.1-1.2,3.3-1.2h28.5h28.5v-0.7v-0.7c0-0.6-0.3-1.2-0.7-1.6
					c-0.4-0.4-1-0.7-1.6-0.7H84.5H53.8z"/>
			</g>
		</g>
		<g>
			<g>
				<path class="st0" d="M88.2,96.4c-1.8,0-3.5,0.8-4.7,2c-1.2,1.2-2,2.9-2,4.7c0,1.8,0.7,3.5,2,4.7s2.9,2,4.7,2
					c1.8,0,3.5-0.8,4.7-2c1.2-1.2,2-2.9,2-4.7c0-1.8-0.7-3.5-2-4.7C91.7,97.1,90,96.4,88.2,96.4z M88.2,107.3c-1.2,0-2.2-0.5-3-1.2
					c-0.8-0.8-1.2-1.8-1.2-3c0-1.1,0.5-2.2,1.2-3c0.8-0.8,1.8-1.2,3-1.2c1.2,0,2.2,0.5,3,1.2c0.8,0.8,1.2,1.8,1.2,3
					c0,1.2-0.5,2.2-1.2,3C90.4,106.8,89.3,107.3,88.2,107.3z"/>
				<path class="st0" d="M88.2,110c-1.9,0-3.6-0.8-4.9-2c-1.2-1.3-2-3-2-4.9c0-1.9,0.8-3.6,2-4.9c1.2-1.2,3-2,4.9-2s3.6,0.8,4.9,2
					c1.2,1.2,2,3,2,4.9c0,1.9-0.8,3.6-2,4.9S90.1,110,88.2,110z M88.2,96.6c-1.8,0-3.4,0.7-4.6,1.9c-1.2,1.2-1.9,2.8-1.9,4.6
					c0,1.8,0.7,3.4,1.9,4.6c1.2,1.2,2.8,1.9,4.6,1.9c1.8,0,3.4-0.7,4.6-1.9c1.2-1.2,1.9-2.8,1.9-4.6c0-1.8-0.7-3.4-1.9-4.6
					C91.6,97.3,90,96.6,88.2,96.6z M88.2,107.5c-1.2,0-2.3-0.5-3.1-1.3c-0.8-0.8-1.3-1.9-1.3-3.1c0-1.2,0.5-2.3,1.3-3.1
					c0.8-0.8,1.9-1.3,3.1-1.3c1.2,0,2.3,0.5,3.1,1.3c0.8,0.8,1.3,1.9,1.3,3.1c0,1.2-0.5,2.3-1.3,3.1C90.5,107,89.4,107.5,88.2,107.5
					z M88.2,99.1c-1.1,0-2.1,0.4-2.8,1.2c-0.7,0.7-1.2,1.7-1.2,2.8c0,1.1,0.4,2.1,1.2,2.8c0.7,0.7,1.7,1.2,2.8,1.2
					c1.1,0,2.1-0.4,2.8-1.2c0.7-0.7,1.2-1.7,1.2-2.8c0-1.1-0.4-2.1-1.2-2.8C90.3,99.5,89.3,99.1,88.2,99.1z"/>
			</g>
		</g>
		<g>
			<g>
				<path class="st0" d="M64.7,67.2h13.1h13.1c0.3,0,0.6-0.1,0.9-0.3c0.2-0.2,0.4-0.5,0.4-0.9c0-0.3-0.1-0.7-0.4-0.9
					c-0.2-0.2-0.5-0.4-0.9-0.4H77.8H64.7c-0.3,0-0.7,0.1-0.9,0.4c-0.2,0.2-0.4,0.5-0.4,0.9c0,0.3,0.1,0.6,0.4,0.9
					C64,67.1,64.3,67.2,64.7,67.2z"/>
				<path class="st0" d="M90.9,67.5H77.8H64.7c-0.4,0-0.8-0.2-1-0.4s-0.4-0.6-0.4-1c0-0.4,0.2-0.8,0.4-1c0.3-0.3,0.6-0.4,1-0.4h13.1
					h13.1c0.4,0,0.8,0.2,1,0.4c0.3,0.3,0.4,0.6,0.4,1c0,0.4-0.2,0.8-0.4,1C91.6,67.3,91.3,67.5,90.9,67.5z M64.7,65
					c-0.3,0-0.5,0.1-0.7,0.3c-0.2,0.2-0.3,0.4-0.3,0.7c0,0.3,0.1,0.5,0.3,0.7c0.2,0.2,0.4,0.3,0.7,0.3h13.1h13.1
					c0.3,0,0.5-0.1,0.7-0.3c0.2-0.2,0.3-0.4,0.3-0.7c0-0.3-0.1-0.5-0.3-0.7c-0.2-0.2-0.4-0.3-0.7-0.3H77.8H64.7z"/>
			</g>
		</g>
	</g>
</g>
</svg>
