<?xml version="1.0" encoding="utf-8"?>
<!-- Generator: Adobe Illustrator 25.2.0, SVG Export Plug-In . SVG Version: 6.00 Build 0)  -->
<svg version="1.1" id="Layer_1" xmlns="http://www.w3.org/2000/svg" xmlns:xlink="http://www.w3.org/1999/xlink" x="0px" y="0px"
	 viewBox="0 0 170.1 170.1" style="enable-background:new 0 0 170.1 170.1;" xml:space="preserve">
<style type="text/css">
	.st0{fill:#FFFFFF;}
	.st1{fill-rule:evenodd;clip-rule:evenodd;fill:#FFFFFF;}
</style>
<g>
	<g>
		<path class="st0" d="M75.9,95.6c-0.7,0-1.3-0.6-1.3-1.3v-7.2c0-1.2,0.9-2.1,2.1-2.1h7c1.2,0,2.1,0.9,2.1,2.1v7.2
			c0,0.7-0.6,1.3-1.3,1.3H75.9z"/>
		<path class="st0" d="M65.5,109.5c-0.7,0-1.3-0.6-1.3-1.3v-7.2c0-1.2,0.9-2.1,2.1-2.1h7c1.2,0,2.1,0.9,2.1,2.1v7.2
			c0,0.7-0.6,1.3-1.3,1.3H65.5z"/>
		<path class="st0" d="M69.9,81.6c-0.7,0-1.3-0.6-1.3-1.3v-7.2c0-1.2,0.9-2.1,2.1-2.1h7c1.2,0,2.1,0.9,2.1,2.1v7.2
			c0,0.7-0.6,1.3-1.3,1.3H69.9z"/>
		<path class="st0" d="M62.3,95.8c-0.7,0-1.3-0.6-1.3-1.3v-5.7c0-1.1,0.9-1.9,1.9-1.9h7.8c1.1,0,1.9,0.9,1.9,1.9v5.7
			c0,0.7-0.6,1.3-1.3,1.3H62.3z"/>
		<path class="st0" d="M89.7,100.5c-0.1,0-0.3-0.1-0.5-0.1h-7.8c-1.1,0-1.9,0.9-1.9,1.9v5.7c0,0.7,0.6,1.3,1.3,1.3h8.9V100.5z"/>
		<rect x="57.4" y="79.5" class="st0" width="31.1" height="2.9"/>
		<rect x="57.4" y="93.4" class="st0" width="31.1" height="2.9"/>
		<rect x="57.4" y="107.2" class="st0" width="31.1" height="2.9"/>
		<g>
			<g>
				<g>
					<path class="st0" d="M104.7,107.7c-0.8,0-1.5-0.7-1.5-1.5s0.7-1.5,1.5-1.5h15.5c0.8,0,1.5,0.7,1.5,1.5s-0.7,1.5-1.5,1.5H104.7z
						"/>
					<path class="st0" d="M96.6,109.4c-0.4,0-0.8-0.2-1-0.4l-2.4-2.4c-0.3-0.3-0.4-0.6-0.4-1s0.2-0.8,0.4-1c0.3-0.3,0.6-0.4,1-0.4
						c0.4,0,0.8,0.2,1,0.4l1.4,1.4l2.7-2.7c0.3-0.3,0.6-0.4,1-0.4c0.4,0,0.8,0.2,1,0.4c0.6,0.6,0.6,1.5,0,2.1l-3.8,3.8
						C97.3,109.2,97,109.4,96.6,109.4z"/>
				</g>
				<g>
					<path class="st0" d="M104.7,95.1c-0.8,0-1.5-0.7-1.5-1.5c0-0.8,0.7-1.5,1.5-1.5h15.5c0.8,0,1.5,0.7,1.5,1.5
						c0,0.8-0.7,1.5-1.5,1.5H104.7z"/>
					<path class="st0" d="M96.6,96.8c-0.4,0-0.8-0.2-1-0.4l-2.4-2.4c-0.3-0.3-0.4-0.6-0.4-1s0.2-0.8,0.4-1c0.3-0.3,0.6-0.4,1-0.4
						c0.4,0,0.8,0.2,1,0.4l1.4,1.4l2.7-2.7c0.3-0.3,0.6-0.4,1-0.4c0.4,0,0.8,0.2,1,0.4c0.6,0.6,0.6,1.5,0,2.1l-3.8,3.8
						C97.3,96.6,97,96.8,96.6,96.8z"/>
				</g>
				<g>
					<path class="st0" d="M104.7,82.4c-0.8,0-1.5-0.7-1.5-1.5c0-0.8,0.7-1.5,1.5-1.5h15.5c0.8,0,1.5,0.7,1.5,1.5
						c0,0.8-0.7,1.5-1.5,1.5H104.7z"/>
					<path class="st0" d="M96.6,84.1c-0.4,0-0.8-0.2-1-0.4l-2.4-2.4c-0.3-0.3-0.4-0.6-0.4-1c0-0.4,0.2-0.8,0.4-1
						c0.3-0.3,0.6-0.4,1-0.4c0.4,0,0.8,0.2,1,0.4l1.4,1.4l2.7-2.7c0.3-0.3,0.6-0.4,1-0.4c0.4,0,0.8,0.2,1,0.4c0.6,0.6,0.6,1.5,0,2.1
						l-3.8,3.8C97.3,84,97,84.1,96.6,84.1z"/>
				</g>
			</g>
			<path class="st0" d="M92.5,115.9c-2.8,0-5.1-2.3-5.1-5.1V75.2c0-2.8,2.3-5.1,5.1-5.1H122c2.8,0,5.1,2.3,5.1,5.1v35.6
				c0,2.8-2.3,5.1-5.1,5.1H92.5z M92.5,73c-1.2,0-2.2,1-2.2,2.2v35.6c0,1.2,1,2.2,2.2,2.2H122c1.2,0,2.2-1,2.2-2.2V75.2
				c0-1.2-1-2.2-2.2-2.2H92.5z"/>
		</g>
		<path class="st0" d="M116.9,56.3c-0.2-0.3-0.5-0.6-0.9-0.6l-35.9-8.2c-0.1,0-0.2,0-0.3,0c0,0,0,0,0,0s0,0,0,0c-0.1,0-0.2,0-0.3,0
			l-0.1,0v0l-35.8,8.1c-0.4,0.1-0.7,0.3-0.9,0.6c-0.2,0.3-0.3,0.7-0.2,1.1l1.3,5.7c0.2,0.7,0.7,1.1,1.4,1.1c0.1,0,0.2,0,0.3,0
			l3.3-0.8v49.1c0,0.8,0.7,1.5,1.5,1.5h7.5c0.2,0,0.3,0,0.4-0.1c0.6-0.2,1-0.7,1-1.4V67.7h41.2v2.5h2.9v-3.9c0-0.8-0.7-1.5-1.5-1.5
			H57.7c-0.8,0-1.5,0.7-1.5,1.5v44.9h-4.6V62.8l28.1-6.4l28.1,6.4v8.3h2.9v-7.6l3.3,0.8c0.1,0,0.2,0,0.3,0c0.7,0,1.3-0.5,1.4-1.1
			l1.3-5.7C117.2,57,117.2,56.6,116.9,56.3z M113.3,61l-33.2-7.5c-0.1,0-0.2,0-0.3,0c0,0,0,0,0,0c0,0,0,0,0,0c-0.1,0-0.2,0-0.3,0
			l-0.1,0v0L46.2,61l-0.7-2.9l34.2-7.8l34.2,7.8L113.3,61z"/>
	</g>
</g>
</svg>
