<?xml version="1.0" encoding="utf-8"?>
<!-- Generator: Adobe Illustrator 25.2.0, SVG Export Plug-In . SVG Version: 6.00 Build 0)  -->
<svg version="1.1" id="Layer_1" xmlns="http://www.w3.org/2000/svg" xmlns:xlink="http://www.w3.org/1999/xlink" x="0px" y="0px"
	 viewBox="0 0 170.1 170.1" style="enable-background:new 0 0 170.1 170.1;" xml:space="preserve">
<style type="text/css">
	.st0{fill:#FFFFFF;}
	.st1{fill-rule:evenodd;clip-rule:evenodd;fill:#FFFFFF;}
</style>
<g>
	<g>
		<g>
			<g>
				<path class="st0" d="M91.3,108.9H78.8c-3.3,0-6-2.7-6-6h2.5c0,1.9,1.6,3.5,3.5,3.5h12.5c1.9,0,3.5-1.6,3.5-3.5h2.5
					C97.3,106.2,94.6,108.9,91.3,108.9z"/>
			</g>
			<g>
				<path class="st0" d="M97.3,96.7h-2.5c0-1.9-1.6-3.5-3.5-3.5H78.8c-1.9,0-3.5,1.6-3.5,3.5h-2.5c0-3.3,2.7-6,6-6h12.5
					C94.6,90.7,97.3,93.4,97.3,96.7z"/>
			</g>
			<g>
				<rect x="59.5" y="98.5" class="st0" width="22" height="2.5"/>
			</g>
			<g>
				<path class="st0" d="M62.3,108.9H49.7c-3.3,0-6-2.7-6-6v-6.2c0-3.3,2.7-6,6-6h12.5c3.3,0,6,2.7,6,6h-2.5c0-1.9-1.6-3.5-3.5-3.5
					H49.7c-1.9,0-3.5,1.6-3.5,3.5v6.2c0,1.9,1.6,3.5,3.5,3.5h12.5c1.9,0,3.5-1.6,3.5-3.5h2.5C68.3,106.2,65.6,108.9,62.3,108.9z"/>
			</g>
			<g>
				<rect x="88.5" y="98.5" class="st0" width="22" height="2.5"/>
			</g>
			<g>
				<path class="st0" d="M120.3,108.9h-12.5c-3.3,0-6-2.7-6-6h2.5c0,1.9,1.6,3.5,3.5,3.5h12.5c1.9,0,3.5-1.6,3.5-3.5v-6.2
					c0-1.9-1.6-3.5-3.5-3.5h-12.5c-1.9,0-3.5,1.6-3.5,3.5h-2.5c0-3.3,2.7-6,6-6h12.5c3.3,0,6,2.7,6,6v6.2
					C126.4,106.2,123.7,108.9,120.3,108.9z"/>
			</g>
		</g>
		<g>
			<g>
				<path class="st0" d="M126.4,86.9h-2.5v-6.2L113.2,80c-0.5,0-1-0.4-1.1-0.9c-0.6-2-1.4-3.9-2.4-5.8c-0.3-0.5-0.2-1,0.2-1.4l7-8
					l-8.8-8.8l-8,7c-0.4,0.3-1,0.4-1.4,0.2c-1.9-1-3.8-1.8-5.8-2.4c-0.5-0.1-0.9-0.6-0.9-1.1l-0.7-10.6H78.8l-0.7,10.6
					c0,0.5-0.4,1-0.9,1.1c-2,0.6-3.9,1.4-5.8,2.4c-0.5,0.3-1,0.2-1.4-0.2l-8-7l-8.8,8.8l7,8c0.3,0.4,0.4,1,0.2,1.4
					c-1,1.9-1.8,3.8-2.4,5.8c-0.1,0.5-0.6,0.9-1.1,0.9l-10.6,0.7v6.2h-2.5v-7.4c0-0.7,0.5-1.2,1.2-1.3l10.9-0.7
					c0.5-1.6,1.2-3.1,1.9-4.7l-7.2-8.2c-0.4-0.5-0.4-1.2,0.1-1.7l10.5-10.5c0.5-0.5,1.2-0.5,1.7-0.1l8.2,7.2
					c1.5-0.8,3.1-1.4,4.7-1.9l0.7-10.9c0-0.7,0.6-1.2,1.3-1.2h14.8c0.7,0,1.2,0.5,1.3,1.2l0.7,10.9c1.6,0.5,3.1,1.2,4.7,1.9l8.2-7.2
					c0.5-0.4,1.3-0.4,1.7,0.1L119.5,63c0.5,0.5,0.5,1.2,0.1,1.7l-7.2,8.2c0.8,1.5,1.4,3.1,1.9,4.7l10.9,0.7c0.7,0,1.2,0.6,1.2,1.3
					V86.9z"/>
			</g>
			<g>
				<path class="st0" d="M101.7,86.9h-2.5c0-7.8-6.4-14.2-14.2-14.2c-7.8,0-14.2,6.4-14.2,14.2h-2.5c0-9.2,7.5-16.7,16.7-16.7
					C94.2,70.2,101.7,77.7,101.7,86.9z"/>
			</g>
		</g>
	</g>
</g>
</svg>
