<?xml version="1.0" encoding="utf-8"?>
<!-- Generator: Adobe Illustrator 25.2.0, SVG Export Plug-In . SVG Version: 6.00 Build 0)  -->
<svg version="1.1" id="Layer_1" xmlns="http://www.w3.org/2000/svg" xmlns:xlink="http://www.w3.org/1999/xlink" x="0px" y="0px"
	 viewBox="0 0 170.1 170.1" style="enable-background:new 0 0 170.1 170.1;" xml:space="preserve">
<style type="text/css">
	.st0{fill:#FFFFFF;}
	.st1{fill-rule:evenodd;clip-rule:evenodd;fill:#FFFFFF;}
</style>
<g>
	<g>
		<path class="st0" d="M55.9,63.2c4.1,0,7.4-3.4,7.4-7.4s-3.3-7.4-7.4-7.4s-7.4,3.3-7.4,7.4C48.6,59.9,51.9,63.2,55.9,63.2z
			 M55.9,51.6c2.5,0,4.4,1.9,4.4,4.4s-1.9,4.4-4.4,4.4s-4.4-1.9-4.4-4.4S53.6,51.6,55.9,51.6z"/>
		<path class="st0" d="M55.9,107c-4.1,0-7.4,3.3-7.4,7.4s3.3,7.4,7.4,7.4s7.4-3.3,7.4-7.4S60,107,55.9,107z M55.9,118.7
			c-2.5,0-4.4-1.9-4.4-4.4s1.9-4.4,4.4-4.4s4.4,1.9,4.4,4.4S58.4,118.7,55.9,118.7z"/>
		<path class="st0" d="M114.3,63.2c4.1,0,7.4-3.3,7.4-7.4s-3.3-7.4-7.4-7.4s-7.4,3.3-7.4,7.4S110.2,63.2,114.3,63.2z M114.3,51.6
			c2.5,0,4.4,1.9,4.4,4.4s-1.9,4.4-4.4,4.4c-2.5,0-4.4-1.9-4.4-4.4S111.8,51.6,114.3,51.6z"/>
		<path class="st0" d="M114.3,107c-4.1,0-7.4,3.3-7.4,7.4s3.3,7.4,7.4,7.4s7.4-3.3,7.4-7.4S118.4,107,114.3,107z M114.3,118.7
			c-2.5,0-4.4-1.9-4.4-4.4s1.9-4.4,4.4-4.4c2.5,0,4.4,1.9,4.4,4.4S116.7,118.7,114.3,118.7z"/>
		<path class="st0" d="M118.7,77.8c-3.6,0-6.5,2.6-7.2,5.8h-5.8c0-0.5-0.1-1.1-0.2-1.6c-0.1-0.6-0.6-1.1-1.2-1.2l-3.1-0.4
			c-0.4-1.3-0.8-2.5-1.4-3.6l1.8-2.5c0.3-0.5,0.3-1.3-0.1-1.8c-0.5-0.8-1.2-1.5-1.8-2.1c-0.8-0.8-1.4-1.4-2.4-1.9
			c-0.5-0.3-1.2-0.3-1.6,0.1l-2.4,1.7c-1.1-0.7-2.5-1.1-3.6-1.4L89.4,66c-0.1-0.7-0.6-1.2-1.2-1.3c-0.5-0.1-1.1-0.2-1.6-0.2v-5.8
			c3.3-0.7,5.7-3.7,5.7-7.2c0-4.1-3.3-7.4-7.4-7.4s-7.4,3.3-7.4,7.4c0,3.6,2.6,6.5,5.9,7.2v5.8c-0.5,0-1,0.1-1.4,0.2
			c-0.6,0.1-1.1,0.6-1.2,1.2l-0.4,3.1c-1.3,0.4-2.5,0.8-3.5,1.4l-2.5-1.7c-0.5-0.3-1.3-0.3-1.8,0.1c-0.8,0.5-1.5,1.2-2.1,1.8
			c-0.8,0.8-1.4,1.4-1.9,2.4c-0.3,0.5-0.3,1.2,0.1,1.6l1.7,2.5c-0.7,1.1-1.1,2.4-1.4,3.5l-3.1,0.4c-0.6,0.1-1.1,0.6-1.2,1.2
			c-0.1,0.5-0.2,1.1-0.2,1.6h-5.9c-0.7-3.4-3.7-5.8-7.2-5.8c-4.1,0-7.4,3.3-7.4,7.4s3.3,7.4,7.3,7.4c3.6,0,6.5-2.6,7.3-5.8h6.1
			c0,0.5,0.1,1,0.2,1.4c0.1,0.6,0.6,1.1,1.2,1.2l3.1,0.4c0.4,1.3,0.8,2.5,1.4,3.6l-1.8,2.1c-0.4,0.6-0.4,1.3,0,1.8
			c0.6,0.8,1.3,1.4,1.9,2.1c0.8,0.8,1.4,1.4,2.4,1.9c0.5,0.3,1.2,0.3,1.6-0.1l2.5-1.7c1.2,0.7,2.5,1.1,3.6,1.4l0.4,3.1
			c0.1,0.6,0.6,1.1,1.2,1.2c0.4,0.1,0.9,0.1,1.3,0.2v5.8c-3.4,0.6-5.9,3.6-5.9,7.2c0,4.1,3.3,7.4,7.4,7.4s7.4-3.3,7.4-7.4
			c0-3.5-2.5-6.4-5.7-7.2v-5.8c0.5,0,1.1-0.1,1.6-0.2c0.6-0.1,1.1-0.6,1.2-1.2l0.4-3.1c1.3-0.4,2.5-0.8,3.5-1.4l2.5,1.7
			c0.5,0.3,1.3,0.3,1.8-0.1c0.8-0.6,1.5-1.2,2.1-1.8c0.8-0.8,1.4-1.4,1.9-2.4c0.3-0.5,0.3-1.2-0.1-1.6l-1.9-2.2
			c0.7-1.1,1.1-2.4,1.4-3.5l3-0.5c0.6-0.2,1.1-0.6,1.2-1.2c0.1-0.5,0.1-0.9,0.2-1.4h5.8c0.7,3.4,3.7,5.8,7.2,5.8
			c4,0,7.4-3.3,7.4-7.4C126,81,122.8,77.8,118.7,77.8z M51.5,89.5c-2.5,0-4.4-1.9-4.4-4.4c0-2.5,1.9-4.4,4.4-4.4s4.4,1.9,4.4,4.4
			C55.9,87.5,54,89.5,51.5,89.5z M80.6,51.6c0-2.5,1.9-4.4,4.4-4.4c2.5,0,4.4,1.9,4.4,4.4c0,2.5-1.9,4.4-4.4,4.4
			C82.7,56,80.6,54,80.6,51.6z M89.4,118.7c0,2.5-1.9,4.4-4.4,4.4c-2.5,0-4.4-1.9-4.4-4.4s1.9-4.4,4.4-4.4
			C87.5,114.3,89.4,116.4,89.4,118.7z M102.6,86.6l-2.8,0.5c-0.5,0.1-0.9,0.5-1.1,1c-0.3,1.4-0.8,3.1-1.8,4.4
			c-0.3,0.5-0.3,1.2,0,1.7l1.7,2.4c-0.3,0.3-0.6,0.7-0.9,1c-0.3,0.3-0.6,0.6-1,0.9l-2.4-1.6c-0.5-0.3-1.2-0.3-1.7,0
			c-1.1,0.8-2.5,1.3-4.3,1.8c-0.6,0.2-1,0.6-1.1,1.2l-0.4,2.9c-1,0.1-2,0.1-3.1,0l-0.3-2.8c-0.1-0.6-0.5-1-1.1-1.2
			c-1.3-0.3-3.1-0.8-4.5-1.8c-0.5-0.3-1.2-0.3-1.7,0l-2.4,1.7c-0.3-0.3-0.7-0.6-1-0.9c-0.3-0.3-0.6-0.6-0.9-1l1.6-2.4
			c0.3-0.5,0.4-1.1,0.1-1.6c-0.8-1.3-1.4-2.8-1.9-4.6c-0.2-0.6-0.6-1-1.2-1.1l-2.9-0.4c-0.1-1-0.1-2,0-3.1l2.9-0.3
			c0.6-0.1,1-0.5,1.2-1c0.3-1.3,0.8-3.1,1.8-4.4c0.3-0.5,0.3-1.2,0-1.7l-1.7-2.4c0.3-0.3,0.6-0.7,0.9-1c0.3-0.3,0.6-0.6,1-0.9
			l2.4,1.6c0.5,0.3,1.2,0.3,1.7,0c1.1-0.8,2.5-1.3,4.3-1.8c0.6-0.2,1-0.6,1.1-1.2l0.4-2.9c0.9-0.1,1.9-0.1,3,0l0.3,2.6
			c0.1,0.6,0.5,1,1.1,1.2c1.3,0.3,3.1,0.8,4.5,1.8c0.5,0.3,1.2,0.3,1.7,0l2.4-1.7c0.3,0.3,0.7,0.6,1,0.9c0.3,0.3,0.6,0.6,0.9,1
			l-1.6,2.4c-0.4,0.5-0.4,1.1-0.1,1.6c0.8,1.3,1.4,2.8,1.9,4.6c0.2,0.6,0.6,1,1.2,1.1l2.9,0.4C102.7,84.6,102.7,85.6,102.6,86.6z
			 M118.7,89.5c-2.5,0-4.4-1.9-4.4-4.4c0-2.5,1.9-4.4,4.4-4.4c2.5,0,4.4,1.9,4.4,4.4C123.1,87.5,121.1,89.5,118.7,89.5z"/>
		<path class="st0" d="M106.7,65c0.3,0,0.8-0.2,1-0.4c0.3-0.3,0.4-0.7,0.4-1s-0.2-0.8-0.4-1c-0.6-0.6-1.4-0.6-2,0
			c-0.3,0.3-0.4,0.7-0.4,1s0.2,0.8,0.4,1C106,64.7,106.3,65,106.7,65z"/>
		<path class="st0" d="M101.6,101.5c-0.3,0.3-0.4,0.7-0.4,1c0,0.3,0.2,0.8,0.4,1c0.3,0.3,0.6,0.4,1,0.4c0.3,0,0.8-0.2,1-0.4
			c0.3-0.3,0.4-0.7,0.4-1c0-0.3-0.2-0.8-0.4-1C103,101,102.2,101,101.6,101.5z"/>
		<path class="st0" d="M61.9,63.5c0,0.3,0.2,0.8,0.4,1c0.3,0.3,0.7,0.4,1,0.4s0.8-0.2,1-0.4c0.3-0.3,0.4-0.7,0.4-1s-0.2-0.8-0.4-1
			c-0.6-0.6-1.4-0.6-2,0C62.1,62.7,61.9,63.1,61.9,63.5z"/>
		<path class="st0" d="M62.3,105.7c-0.3,0.3-0.4,0.7-0.4,1c0,0.3,0.2,0.8,0.4,1c0.3,0.3,0.7,0.4,1,0.4s0.8-0.2,1-0.4
			c0.3-0.3,0.4-0.7,0.4-1c0-0.3-0.2-0.8-0.4-1C63.9,105.1,63,105.1,62.3,105.7z"/>
		<path class="st0" d="M66.5,101.5c-0.3,0.3-0.4,0.7-0.4,1c0,0.3,0.2,0.8,0.4,1c0.3,0.3,0.7,0.4,1,0.4c0.4,0,0.8-0.2,1-0.4
			c0.2-0.2,0.4-0.7,0.4-1c0-0.3-0.2-0.8-0.4-1C68,101,67.2,101,66.5,101.5z"/>
		<path class="st0" d="M108.1,106.8c0-0.3-0.2-0.8-0.4-1c-0.6-0.6-1.4-0.6-2,0c-0.3,0.3-0.4,0.7-0.4,1c0,0.3,0.2,0.8,0.4,1
			c0.3,0.3,0.7,0.4,1,0.4c0.3,0,0.8-0.2,1-0.4C107.9,107.6,108.1,107.1,108.1,106.8z"/>
		<path class="st0" d="M102.6,69.1c0.3,0,0.8-0.2,1-0.4c0.3-0.3,0.4-0.7,0.4-1c0-0.3-0.2-0.8-0.4-1c-0.6-0.6-1.4-0.6-2,0
			c-0.3,0.3-0.4,0.7-0.4,1c0,0.3,0.2,0.8,0.4,1C101.9,68.9,102.2,69.1,102.6,69.1z"/>
		<path class="st0" d="M67.6,69.1c0.3,0,0.8-0.2,1-0.4c0.3-0.3,0.4-0.7,0.4-1c0-0.3-0.2-0.8-0.4-1c-0.6-0.6-1.4-0.6-2,0
			c-0.3,0.3-0.4,0.7-0.4,1c0,0.3,0.2,0.8,0.4,1C66.8,68.9,67.3,69.1,67.6,69.1z"/>
		<g>
			<path class="st0" d="M80.6,87.5h-2.2c-0.4,0-0.7,0.3-0.7,0.7v4.5c0,0.4,0.3,0.7,0.7,0.7h2.2c0.4,0,0.7-0.3,0.7-0.7v-4.6
				C81.4,87.9,81.1,87.5,80.6,87.5z M80,88.9v3.1h-0.8v-3.1H80z"/>
			<path class="st0" d="M91.9,86.4h-2.2c-0.4,0-0.7,0.3-0.7,0.7v5.5c0,0.4,0.3,0.7,0.7,0.7h2.2c0.4,0,0.7-0.3,0.7-0.7v-5.5
				C92.5,86.7,92.2,86.4,91.9,86.4z M91.2,87.7v4.2h-0.9v-4.2H91.2z"/>
			<path class="st0" d="M90.7,83.4c1,0,1.8-0.8,1.8-1.7l0,0c0-0.1,0-0.3-0.1-0.5c0,0-0.1-0.4-0.3-0.6c-0.2-0.2-0.5-0.5-0.5-0.5
				c-0.2-0.1-0.5-0.2-0.9-0.2c-0.3,0-0.6,0.1-0.8,0.2l-3-2.4c0.1-0.1,0.1-0.3,0.1-0.5c0-1-0.8-1.8-1.8-1.8c-1,0-1.8,0.8-1.8,1.7
				c0,0.3,0,0.5,0.1,0.7L80.2,81c-0.4-0.2-0.8-0.2-1.3,0c-0.4,0.2-0.8,0.5-1,0.9s-0.2,0.9-0.1,1.3c0.2,0.4,0.5,0.8,0.9,1
				c0.2,0.1,0.5,0.2,0.8,0.2c0.2,0,0.4,0,0.6-0.1c0.4-0.2,0.8-0.5,1-0.9c0.1-0.2,0.2-0.5,0.2-0.8s0-0.5-0.1-0.7l3.3-3.2
				c0.5,0.2,1,0.2,1.5-0.1l3,2.4c-0.1,0.1-0.1,0.3-0.1,0.5C88.9,82.5,89.7,83.4,90.7,83.4z M90.3,81.5c0-0.2,0.2-0.4,0.4-0.4
				s0.4,0.2,0.4,0.4s-0.2,0.4-0.4,0.4S90.3,81.7,90.3,81.5z M85.6,77c0,0.2-0.2,0.4-0.4,0.4s-0.4-0.2-0.4-0.4c0-0.2,0.2-0.4,0.4-0.4
				S85.6,76.8,85.6,77z M80,82.6c0,0.2-0.2,0.4-0.4,0.4s-0.4-0.2-0.4-0.4c0-0.2,0.2-0.4,0.4-0.4S80,82.4,80,82.6z"/>
			<path class="st0" d="M86.8,82.1c-0.1-0.1-0.3-0.2-0.5-0.2H84c-0.4,0-0.7,0.3-0.7,0.7v10c0,0.4,0.3,0.7,0.7,0.7h2.2
				c0.4,0,0.7-0.3,0.7-0.7v-10C87,82.4,86.9,82.3,86.8,82.1z M85.6,83.4V92h-0.8v-8.7H85.6z"/>
		</g>
	</g>
</g>
</svg>
