<?xml version="1.0" encoding="utf-8"?>
<!-- Generator: Adobe Illustrator 25.2.0, SVG Export Plug-In . SVG Version: 6.00 Build 0)  -->
<svg version="1.1" id="Layer_1" xmlns="http://www.w3.org/2000/svg" xmlns:xlink="http://www.w3.org/1999/xlink" x="0px" y="0px"
	 viewBox="0 0 170.1 170.1" style="enable-background:new 0 0 170.1 170.1;" xml:space="preserve">
<style type="text/css">
	.st0{fill:#FFFFFF;}
	.st1{fill-rule:evenodd;clip-rule:evenodd;fill:#FFFFFF;}
</style>
<g>
	<g>
		<g>
			<g>
				<g>
					<path class="st0" d="M84.8,102.3c-0.2,0-0.3,0-0.5-0.1l-15.1-8.4c-0.3-0.2-0.5-0.5-0.5-0.8V74.7c0-0.5,0.4-0.9,0.9-0.9
						c0.5,0,0.9,0.4,0.9,0.9v17.7l14.2,7.9L99,92.4V74.7c0-0.5,0.4-0.9,0.9-0.9c0.5,0,0.9,0.4,0.9,0.9V93c0,0.3-0.2,0.7-0.5,0.8
						l-15.1,8.4C85.1,102.3,85,102.3,84.8,102.3z"/>
				</g>
				<g>
					<path class="st0" d="M84.8,84c-0.2,0-0.3,0-0.5-0.1l-15.1-8.3c-0.3-0.2-0.5-0.5-0.5-0.8c0-0.4,0.2-0.7,0.5-0.8l15.1-7.5
						c0.3-0.1,0.6-0.1,0.8,0l15.1,7.5c0.3,0.2,0.5,0.5,0.5,0.8c0,0.4-0.2,0.7-0.5,0.8l-15.1,8.3C85.1,83.9,85,84,84.8,84z
						 M71.8,74.8l13.1,7.2l13.1-7.2l-13.1-6.5L71.8,74.8z"/>
				</g>
			</g>
			<g>
				<g>
					<g>
						<path class="st0" d="M85,124.6c-2.8,0-5.6-0.3-8.4-0.9c-0.5-0.1-0.8-0.6-0.7-1.1l0.8-5.6l-8.6-3.6l-3.4,4.5
							c-0.3,0.4-0.9,0.5-1.3,0.2c-4.7-3.1-8.7-7-11.7-11.7c-0.3-0.4-0.2-1,0.2-1.3l4.5-3.4L53,93.2L47.4,94
							c-0.5,0.1-0.9-0.3-1.1-0.7c-0.6-2.7-0.9-5.5-0.9-8.2c0-2.8,0.3-5.6,0.9-8.4c0.1-0.5,0.6-0.8,1.1-0.7l5.6,0.8l3.6-8.6l-4.5-3.4
							c-0.4-0.3-0.5-0.9-0.2-1.3c3.1-4.7,7-8.7,11.7-11.7c0.4-0.3,1-0.2,1.3,0.2l3.4,4.5l8.6-3.5l-0.8-5.6c-0.1-0.5,0.3-0.9,0.7-1.1
							c2.7-0.6,5.5-0.9,8.2-0.9c2.8,0,5.6,0.3,8.4,0.9c0.5,0.1,0.8,0.6,0.7,1.1L93.3,53l8.6,3.6l3.4-4.5c0.3-0.4,0.9-0.5,1.3-0.2
							c4.7,3.1,8.7,7,11.7,11.7c0.3,0.4,0.2,1-0.2,1.3l-4.5,3.4l3.5,8.6l5.6-0.8c0.5-0.1,0.9,0.3,1.1,0.7c0.6,2.7,0.9,5.5,0.9,8.2
							c0,2.8-0.3,5.6-0.9,8.4c-0.1,0.5-0.6,0.8-1.1,0.7l-5.6-0.8l-3.6,8.6l4.5,3.4c0.4,0.3,0.5,0.9,0.2,1.3
							c-3.1,4.7-7,8.7-11.7,11.7c-0.4,0.3-1,0.2-1.3-0.2l-3.4-4.5l-8.6,3.5l0.8,5.6c0.1,0.5-0.3,0.9-0.7,1.1
							C90.5,124.4,87.8,124.6,85,124.6z M77.9,122.1c2.4,0.5,4.8,0.7,7.1,0.7c2.3,0,4.7-0.2,7-0.7l-0.8-5.5c-0.1-0.4,0.2-0.8,0.6-1
							l9.9-4.1c0.4-0.2,0.9,0,1.1,0.3l3.3,4.4c3.9-2.7,7.3-6,10-9.9l-4.4-3.3c-0.3-0.3-0.5-0.7-0.3-1.1l4.1-9.9
							c0.2-0.4,0.6-0.6,1-0.6l5.5,0.8c0.5-2.4,0.7-4.8,0.7-7.1c0-2.3-0.2-4.7-0.7-7l-5.5,0.8c-0.4,0.1-0.8-0.2-1-0.6l-4.1-9.9
							c-0.2-0.4,0-0.9,0.3-1.1l4.4-3.3c-2.7-3.9-6-7.3-9.9-10l-3.3,4.4c-0.3,0.3-0.7,0.5-1.1,0.3l-9.9-4.1c-0.4-0.2-0.6-0.6-0.6-1
							l0.8-5.5c-2.4-0.5-4.8-0.7-7.1-0.7c-2.3,0-4.7,0.2-7,0.7l0.8,5.5c0.1,0.4-0.2,0.8-0.6,1l-9.9,4.1c-0.4,0.2-0.9,0-1.1-0.3
							l-3.3-4.4c-3.9,2.7-7.3,6-10,9.9l4.4,3.3c0.3,0.3,0.5,0.7,0.3,1.1l-4.1,9.9c-0.2,0.4-0.6,0.6-1,0.6L48,77.9
							c-0.5,2.4-0.7,4.8-0.7,7.1c0,2.3,0.2,4.7,0.7,7l5.5-0.8c0.4-0.1,0.8,0.2,1,0.6l4.1,9.9c0.2,0.4,0,0.9-0.3,1.1l-4.4,3.3
							c2.7,3.9,6,7.3,9.9,10l3.3-4.4c0.3-0.3,0.7-0.5,1.1-0.3l9.9,4.1c0.4,0.2,0.6,0.6,0.6,1L77.9,122.1z M85,109.9
							c-13.7,0-24.9-11.2-24.9-24.9S71.3,60.2,85,60.2s24.9,11.2,24.9,24.9S98.8,109.9,85,109.9z M85,62.1c-12.7,0-23,10.3-23,23
							s10.3,23,23,23s23-10.3,23-23S97.7,62.1,85,62.1z"/>
					</g>
				</g>
			</g>
		</g>
		<g>
			<path class="st0" d="M84.8,102.3c-0.5,0-0.9-0.4-0.9-0.9V83c0-0.5,0.4-0.9,0.9-0.9s0.9,0.4,0.9,0.9v18.4
				C85.8,101.9,85.3,102.3,84.8,102.3z"/>
		</g>
	</g>
</g>
</svg>
