<?xml version="1.0" encoding="utf-8"?>
<!-- Generator: Adobe Illustrator 25.2.0, SVG Export Plug-In . SVG Version: 6.00 Build 0)  -->
<svg version="1.1" id="Layer_1" xmlns="http://www.w3.org/2000/svg" xmlns:xlink="http://www.w3.org/1999/xlink" x="0px" y="0px"
	 viewBox="0 0 170.1 170.1" style="enable-background:new 0 0 170.1 170.1;" xml:space="preserve">
<style type="text/css">
	.st0{fill:#FFFFFF;}
	.st1{fill-rule:evenodd;clip-rule:evenodd;fill:#FFFFFF;}
</style>
<g>
	<g>
		<g>
			<path class="st0" d="M59.1,122.2c-0.3,0-0.5-0.1-0.7-0.3c-0.4-0.4-0.4-1.1,0-1.5l14.8-14.8c0.4-0.4,1.1-0.4,1.5,0
				c0.4,0.4,0.4,1.1,0,1.5l-14.8,14.8C59.7,122.1,59.4,122.2,59.1,122.2z"/>
		</g>
		<g>
			<path class="st0" d="M79.5,107.4H47.2c-2.8,0-5.1-2.3-5.1-5.1V60.6c0-2.8,2.3-5.1,5.1-5.1h15.8c0.6,0,1,0.5,1,1c0,0.6-0.5,1-1,1
				H47.2c-1.7,0-3,1.4-3,3v41.7c0,1.7,1.4,3,3,3h32.3c0.6,0,1,0.5,1,1C80.5,107,80.1,107.4,79.5,107.4z"/>
		</g>
		<g>
			<path class="st0" d="M87.5,60.6H64.3c-1.3,0-2.4-1.1-2.4-2.4v-3.4c0-1.3,1.1-2.4,2.4-2.4h25.5c0.6,0,1,0.5,1,1c0,0.6-0.5,1-1,1
				H64.3c-0.2,0-0.3,0.1-0.3,0.3v3.4c0,0.2,0.1,0.3,0.3,0.3h23.2c0.6,0,1,0.5,1,1C88.6,60.1,88.1,60.6,87.5,60.6z"/>
		</g>
		<g>
			<path class="st0" d="M81.5,102.3H43.1c-0.6,0-1-0.5-1-1c0-0.6,0.5-1,1-1h38.4c0.6,0,1,0.5,1,1C82.5,101.9,82.1,102.3,81.5,102.3z
				"/>
		</g>
		<g>
			<path class="st0" d="M53.7,93.5c-0.6,0-1-0.5-1-1v-6.4c0-0.6,0.5-1,1-1s1,0.5,1,1v6.4C54.7,93.1,54.2,93.5,53.7,93.5z"/>
		</g>
		<g>
			<path class="st0" d="M58.1,93.5c-0.6,0-1-0.5-1-1v-9.6c0-0.6,0.5-1,1-1s1,0.5,1,1v9.6C59.1,93.1,58.6,93.5,58.1,93.5z"/>
		</g>
		<g>
			<path class="st0" d="M62.5,93.5c-0.6,0-1-0.5-1-1V79.7c0-0.6,0.5-1,1-1s1,0.5,1,1v12.8C63.5,93.1,63,93.5,62.5,93.5z"/>
		</g>
		<g>
			<path class="st0" d="M66.8,93.5c-0.6,0-1-0.5-1-1v-8c0-0.6,0.5-1,1-1c0.6,0,1,0.5,1,1v8C67.9,93.1,67.4,93.5,66.8,93.5z"/>
		</g>
		<g>
			<path class="st0" d="M71.2,93.5c-0.6,0-1-0.5-1-1V81.8c0-0.6,0.5-1,1-1c0.6,0,1,0.5,1,1v10.7C72.3,93.1,71.8,93.5,71.2,93.5z"/>
		</g>
		<g>
			<path class="st0" d="M75.6,93.5c-0.6,0-1-0.5-1-1V78.6c0-0.6,0.5-1,1-1c0.6,0,1,0.5,1,1v13.9C76.7,93.1,76.2,93.5,75.6,93.5z"/>
		</g>
		<g>
			<path class="st0" d="M80,93.5c-0.6,0-1-0.5-1-1V75.4c0-0.6,0.5-1,1-1c0.6,0,1,0.5,1,1v17.1C81.1,93.1,80.6,93.5,80,93.5z"/>
		</g>
		<g>
			<path class="st0" d="M52.7,81.4c-0.3,0-0.6-0.1-0.8-0.4c-0.3-0.5-0.2-1.1,0.2-1.5l9.8-7.1c0.5-0.3,1.1-0.2,1.4,0.2l3.8,4.6
				l13-9.5c0.5-0.3,1.1-0.2,1.5,0.2c0.3,0.5,0.2,1.1-0.2,1.5l-13.8,10c-0.5,0.3-1.1,0.2-1.4-0.2l-3.8-4.6l-9,6.6
				C53.1,81.4,52.9,81.4,52.7,81.4z"/>
		</g>
		<g>
			<path class="st0" d="M102.9,87.7c-3.2,0-6.3-1.6-9-4.5c-2.3-2.5-4.2-6-5.2-9.6c-0.2-0.6,0.2-1.1,0.7-1.3c0.6-0.2,1.1,0.2,1.3,0.7
				c1.7,6.1,6.5,12.6,12.1,12.6c5.6,0,10.4-6.4,12.1-12.5c0.2-0.6,0.7-0.9,1.3-0.7c0.6,0.2,0.9,0.7,0.7,1.3
				C115.2,80.7,109.7,87.7,102.9,87.7z"/>
		</g>
		<g>
			<path class="st0" d="M90.1,121.9c-0.6,0-1-0.5-1-1v-13.5c0-0.6,0.5-1,1-1c0.6,0,1,0.5,1,1v13.5C91.1,121.4,90.7,121.9,90.1,121.9
				z"/>
		</g>
		<g>
			<path class="st0" d="M123,121.9H82.8c-2.8,0-5-2.2-5-5v-4.5c0-5.9,1.4-10.4,4.3-13.7c2.8-3.2,7.2-5.5,13.5-6.8
				c0.3-0.1,0.6,0,0.8,0.2l6.5,4.5l6.5-4.5c0.2-0.2,0.5-0.2,0.8-0.2c6.2,1.3,10.6,3.5,13.5,6.8c2.9,3.3,4.3,7.8,4.3,13.7v4.5
				C128,119.6,125.8,121.9,123,121.9z M95.6,94c-11.1,2.4-15.6,7.8-15.6,18.3v4.5c0,1.6,1.3,2.9,2.9,2.9H123c1.6,0,2.9-1.3,2.9-2.9
				v-4.5c0-10.5-4.5-15.9-15.6-18.3l-6.8,4.7c-0.4,0.2-0.8,0.2-1.2,0L95.6,94z"/>
		</g>
		<g>
			<path class="st0" d="M115.8,121.9c-0.6,0-1-0.5-1-1v-13.5c0-0.6,0.5-1,1-1c0.6,0,1,0.5,1,1v13.5
				C116.8,121.4,116.4,121.9,115.8,121.9z"/>
		</g>
		<g>
			<path class="st0" d="M95.8,94c-0.3,0-0.6-0.1-0.8-0.4c-0.4-0.4-0.3-1.1,0.1-1.5c0.9-0.7,1.4-4.2,1.4-7.1c0-0.6,0.5-1,1-1
				c0,0,0,0,0,0c0.6,0,1,0.5,1,1c0,0.1,0,1.7-0.2,3.5c-0.3,2.7-1,4.4-1.9,5.2C96.3,93.9,96,94,95.8,94z"/>
		</g>
		<g>
			<path class="st0" d="M110.1,94c-0.2,0-0.5-0.1-0.7-0.2c-1-0.8-1.6-2.5-1.9-5.2c-0.2-1.8-0.2-3.5-0.2-3.5c0-0.6,0.5-1,1-1
				c0.6,0,1,0.5,1,1c0,2.9,0.5,6.4,1.4,7.1c0.4,0.4,0.5,1,0.1,1.5C110.7,93.8,110.4,94,110.1,94z"/>
		</g>
		<g>
			<path class="st0" d="M116.3,74.5c-0.8,0-1.5-0.5-1.7-1.3c-0.8-2.8-1.8-8.3-1.8-8.6c0,0,0-0.1,0-0.1c0-0.1-0.2-0.2-0.3-0.2
				c-3.9,0-8-2-9.6-2.8l1.7,4.5c0.2,0.4,0,0.9-0.3,1.2c-0.3,0.3-0.8,0.3-1.2,0.1l-8.5-4.5c-0.3-0.2-0.7-0.1-1,0L91.4,73c0,0,0,0,0,0
				c-0.2,0.8-0.9,1.4-1.8,1.3c-0.8,0-1.5-0.6-1.7-1.4c-2.2-10.1-1.8-16.6,1.3-20.4c2.5-3.1,6.6-4.5,13.2-4.7c0,0,0.1,0,0.1,0
				c0.1,0,0.3,0,0.4,0c0.1,0,0.2,0,0.4,0c0,0,0.1,0,0.1,0c6.6,0.1,10.7,1.6,13.3,4.7c3.1,3.9,3.6,10.4,1.4,20.5
				C117.8,73.9,117.2,74.5,116.3,74.5C116.3,74.5,116.3,74.5,116.3,74.5z M114.8,64.3c0.1,0.5,0.8,4.3,1.5,7.1
				c1.8-8.7,1.4-14.2-1.2-17.4c-2.1-2.7-5.9-3.9-12.1-3.9c-6.2,0-9.9,1.3-12.1,3.9c-2.6,3.2-2.9,8.7-1.2,17.3l1.9-9
				c0-0.2,0.1-0.3,0.2-0.5c0.9-1,2.5-1.3,3.7-0.7l6.1,3.2l-0.9-2.5c0,0,0-0.1,0-0.1c-0.1-0.6,0.1-1.2,0.5-1.7
				c0.5-0.5,1.2-0.7,1.8-0.6c0.1,0,0.2,0.1,0.3,0.1c0,0,4.9,2.8,9.2,2.8C113.7,62.2,114.7,63.1,114.8,64.3z"/>
		</g>
	</g>
</g>
</svg>
