<?xml version="1.0" encoding="utf-8"?>
<!-- Generator: Adobe Illustrator 25.2.0, SVG Export Plug-In . SVG Version: 6.00 Build 0)  -->
<svg version="1.1" id="Layer_1" xmlns="http://www.w3.org/2000/svg" xmlns:xlink="http://www.w3.org/1999/xlink" x="0px" y="0px"
	 viewBox="0 0 170.1 170.1" style="enable-background:new 0 0 170.1 170.1;" xml:space="preserve">
<style type="text/css">
	.st0{fill:#FFFFFF;}
	.st1{fill-rule:evenodd;clip-rule:evenodd;fill:#FFFFFF;}
</style>
<g>
	<g>
		<path class="st0" d="M76.3,76.8c0.1,0.2,0.3,0.3,0.5,0.4c0.2,0.1,0.4,0.1,0.6,0.1l12.6-1.8l15.7,6.3c0.7,0.3,1.4,0.4,2.1,0.4
			c1.9,0,3.5-1,4.1-2.6l2.9-7.2c0.4-1.1,0.4-2.3-0.2-3.4c-0.6-1.1-1.6-2-2.8-2.5l-15.7-6.3l-7.9-10c-0.3-0.3-0.7-0.5-1.1-0.5
			c-0.4,0.1-0.8,0.4-1,0.8L76.1,75.6C76,76,76,76.5,76.3,76.8z M87.7,53.4l6.8,8.6c0.1,0.2,0.3,0.3,0.5,0.4l16,6.4
			c1.3,0.5,2,1.7,1.6,2.7l-2.9,7.2c-0.3,0.6-1,1-1.8,1c-0.4,0-0.8-0.1-1.2-0.2l-16-6.4C90.6,73,90.4,73,90.2,73c-0.1,0-0.1,0-0.2,0
			l-10.9,1.6L87.7,53.4z"/>
		<path class="st0" d="M99.7,81.2c0.1-0.3,0.1-0.6,0-0.9c-0.1-0.3-0.4-0.5-0.7-0.7c-0.1-0.1-0.3-0.1-0.5-0.1c-0.5,0-0.9,0.3-1.1,0.8
			l-3.3,8.2c-0.3,0.8-0.3,1.7,0,2.5c0.3,0.8,1,1.4,1.8,1.8l2.2,0.9c0.4,0.2,0.8,0.2,1.2,0.2c1.4,0,2.6-0.8,3.1-2.1l3.3-8.2
			c0.3-0.6-0.1-1.3-0.7-1.6c-0.1-0.1-0.3-0.1-0.5-0.1c-0.5,0-0.9,0.3-1.1,0.8l-3.3,8.2c-0.1,0.3-0.4,0.5-0.8,0.5
			c-0.1,0-0.2,0-0.3-0.1l-2.2-0.9c-0.4-0.2-0.6-0.7-0.5-1.1L99.7,81.2z"/>
		<path class="st0" d="M113,78.5c-0.3,0.6,0.1,1.3,0.7,1.6c0.1,0.1,0.3,0.1,0.5,0.1c0.5,0,0.9-0.3,1.1-0.8L117,75
			c0.1-0.3,0.1-0.6,0-0.9c-0.1-0.3-0.4-0.5-0.7-0.7c-0.1-0.1-0.3-0.1-0.5-0.1c-0.5,0-0.9,0.3-1.1,0.8L113,78.5z"/>
		<path class="st0" d="M91.1,72.3c0.1,0.1,0.3,0.1,0.5,0.1c0.5,0,0.9-0.3,1.1-0.8l2.7-6.8c0.3-0.6-0.1-1.3-0.7-1.6
			c-0.1-0.1-0.3-0.1-0.5-0.1c-0.5,0-0.9,0.3-1.1,0.8l-2.7,6.8C90.2,71.4,90.5,72.1,91.1,72.3z"/>
		<path class="st0" d="M75.4,65.5c-0.1-0.1-0.3-0.1-0.4-0.1l-5.3-0.2l0,0c-0.3,0-0.6,0.1-0.8,0.3c-0.2,0.2-0.4,0.5-0.4,0.9
			c0,0.5,0.3,1,0.8,1.2c0.1,0.1,0.3,0.1,0.4,0.1l5.3,0.2l0,0h0c0.3,0,0.6-0.1,0.8-0.3c0.2-0.2,0.4-0.5,0.4-0.9
			C76.2,66.1,75.9,65.6,75.4,65.5z"/>
		<path class="st0" d="M60.6,76.9C60.7,77,60.9,77,61,77c0,0,0,0,0,0c0.1,0,0.2,0,0.3,0l11-3.2c0.3-0.1,0.6-0.3,0.7-0.6
			c0.2-0.3,0.2-0.6,0.1-0.9c-0.1-0.4-0.4-0.7-0.7-0.8c-0.3-0.1-0.5-0.1-0.8,0l-11,3.2c-0.3,0.1-0.6,0.3-0.7,0.6
			c-0.2,0.3-0.2,0.6-0.1,0.9C59.9,76.5,60.2,76.8,60.6,76.9z"/>
		<path class="st0" d="M80.7,50.8c0.1,0.2,0.4,0.4,0.6,0.5c0.1,0.1,0.3,0.1,0.5,0.1h0c0.2,0,0.4-0.1,0.6-0.2
			c0.6-0.3,0.8-1.1,0.4-1.7l-5.7-9.9c-0.1-0.2-0.3-0.4-0.6-0.5c-0.3-0.1-0.7-0.1-1.1,0.1c-0.6,0.3-0.8,1.1-0.4,1.7L80.7,50.8z"/>
		<path class="st0" d="M67.1,58.7l9.7,3.9c0.1,0.1,0.3,0.1,0.5,0.1h0c0.5,0,0.9-0.3,1.1-0.8c0.3-0.6-0.1-1.3-0.7-1.6L68,56.5
			c-0.1-0.1-0.3-0.1-0.5-0.1c-0.5,0-0.9,0.3-1.1,0.8c-0.1,0.3-0.1,0.6,0,0.9C66.6,58.4,66.8,58.6,67.1,58.7z"/>
		<path class="st0" d="M74.3,53.6l4,3.6c0.1,0.1,0.2,0.2,0.4,0.2c0.1,0.1,0.3,0.1,0.5,0.1c0.3,0,0.7-0.1,0.9-0.4
			c0.2-0.2,0.3-0.6,0.3-0.9c0-0.3-0.2-0.6-0.4-0.8l-4-3.6c-0.1-0.1-0.2-0.2-0.4-0.2c-0.1-0.1-0.3-0.1-0.5-0.1
			c-0.3,0-0.7,0.1-0.9,0.4c-0.2,0.2-0.3,0.6-0.3,0.9C73.9,53.1,74.1,53.4,74.3,53.6z"/>
		<path class="st0" d="M122.3,54.7h-7.8c-0.7,0-1.3,0.6-1.3,1.3c0,0.7,0.6,1.3,1.3,1.3h7.8c0.2,0,0.4,0.2,0.4,0.4v41.1H47.1V57.7
			c0-0.2,0.2-0.4,0.4-0.4h7.8c0.7,0,1.3-0.6,1.3-1.3c0-0.7-0.6-1.3-1.3-1.3h-7.8c-1.6,0-3,1.3-3,3v49.9c0,1.6,1.3,3,3,3h74.7
			c1.6,0,3-1.3,3-3V57.7C125.2,56.1,123.9,54.7,122.3,54.7z M122.7,107.6c0,0.2-0.2,0.4-0.4,0.4H47.6c-0.2,0-0.4-0.2-0.4-0.4v-6.2
			h75.5V107.6z"/>
		<path class="st0" d="M97.3,118.8h-4.2v-4.8c0-0.7-0.6-1.3-1.3-1.3c-0.7,0-1.3,0.6-1.3,1.3v4.8H79.3v-4.8c0-0.7-0.6-1.3-1.3-1.3
			c-0.7,0-1.3,0.6-1.3,1.3v4.8h-4.2c-0.7,0-1.3,0.6-1.3,1.3c0,0.7,0.6,1.3,1.3,1.3h24.8c0.7,0,1.3-0.6,1.3-1.3
			C98.6,119.3,98,118.8,97.3,118.8z"/>
		<path class="st0" d="M84.2,106.5c1,0,1.8-0.8,1.8-1.8c0-1-0.8-1.8-1.8-1.8c-1,0-1.8,0.8-1.8,1.8C82.5,105.7,83.3,106.5,84.2,106.5
			z"/>
	</g>
</g>
</svg>
