<?xml version="1.0" encoding="utf-8"?>
<!-- Generator: Adobe Illustrator 25.2.0, SVG Export Plug-In . SVG Version: 6.00 Build 0)  -->
<svg version="1.1" id="Layer_1" xmlns="http://www.w3.org/2000/svg" xmlns:xlink="http://www.w3.org/1999/xlink" x="0px" y="0px"
	 viewBox="0 0 170.1 170.1" style="enable-background:new 0 0 170.1 170.1;" xml:space="preserve">
<style type="text/css">
	.st0{fill:#FFFFFF;}
	.st1{fill-rule:evenodd;clip-rule:evenodd;fill:#FFFFFF;}
</style>
<g>
	<g>
		<g>
			<g>
				<path class="st0" d="M62.2,104.9c-5.5,0-10.1-4.5-10.1-10.1c0-5.5,4.5-10.1,10.1-10.1s10.1,4.5,10.1,10.1
					C72.2,100.4,67.7,104.9,62.2,104.9z M62.2,87.8c-3.9,0-7.1,3.2-7.1,7.1c0,3.9,3.2,7.1,7.1,7.1s7.1-3.2,7.1-7.1
					C69.3,90.9,66.1,87.8,62.2,87.8z"/>
			</g>
			<g>
				<path class="st0" d="M50.3,116.1C50.3,116.1,50.3,116.1,50.3,116.1c-0.9,0-1.5-0.7-1.5-1.6c0.4-7.1,6.2-12.6,13.3-12.6
					c0.8,0,1.5,0.7,1.5,1.5c0,0.8-0.7,1.5-1.5,1.5c-5.5,0-10.1,4.3-10.3,9.8C51.8,115.5,51.1,116.1,50.3,116.1z"/>
			</g>
			<g>
				<path class="st0" d="M73.4,113c-0.6,0-1.2-0.4-1.4-1c-1.4-4.2-5.4-7-9.8-7c-0.8,0-1.5-0.7-1.5-1.5c0-0.8,0.7-1.5,1.5-1.5
					c5.7,0,10.8,3.6,12.6,9.1c0.3,0.8-0.2,1.6-0.9,1.9C73.7,112.9,73.5,113,73.4,113z"/>
			</g>
			<g>
				<path class="st0" d="M85,104.7c-5.7,0-10.4-4.7-10.4-10.4C74.7,88.6,79.3,84,85,84c5.7,0,10.4,4.7,10.4,10.4
					C95.4,100.1,90.8,104.7,85,104.7z M85,86.9c-4.1,0-7.4,3.3-7.4,7.4c0,4.1,3.3,7.4,7.4,7.4c4.1,0,7.4-3.3,7.4-7.4
					C92.5,90.2,89.1,86.9,85,86.9z"/>
			</g>
			<g>
				<path class="st0" d="M96.6,113c-0.6,0-1.2-0.4-1.4-1c-1.5-4.4-5.6-7.3-10.2-7.3c-0.8,0-1.5-0.7-1.5-1.5c0-0.8,0.7-1.5,1.5-1.5
					c5.9,0,11.1,3.7,13,9.3c0.3,0.8-0.1,1.6-0.9,1.9C97,113,96.8,113,96.6,113z"/>
			</g>
			<g>
				<path class="st0" d="M73.4,113c-0.2,0-0.3,0-0.5-0.1c-0.8-0.3-1.2-1.1-0.9-1.9c1.9-5.5,7.1-9.3,13-9.3c0.8,0,1.5,0.7,1.5,1.5
					c0,0.8-0.7,1.5-1.5,1.5c-4.6,0-8.7,2.9-10.2,7.3C74.6,112.6,74,113,73.4,113z"/>
			</g>
			<g>
				<path class="st0" d="M107.9,104.9c-5.5,0-10.1-4.5-10.1-10.1c0-5.5,4.5-10.1,10.1-10.1c5.5,0,10.1,4.5,10.1,10.1
					C118,100.4,113.5,104.9,107.9,104.9z M107.9,87.8c-3.9,0-7.1,3.2-7.1,7.1c0,3.9,3.2,7.1,7.1,7.1s7.1-3.2,7.1-7.1
					C115,90.9,111.8,87.8,107.9,87.8z"/>
			</g>
			<g>
				<path class="st0" d="M96.7,113c-0.2,0-0.3,0-0.5-0.1c-0.8-0.3-1.2-1.1-0.9-1.9c1.8-5.4,6.9-9.1,12.6-9.1c0.8,0,1.5,0.7,1.5,1.5
					c0,0.8-0.7,1.5-1.5,1.5c-4.5,0-8.4,2.8-9.8,7C97.9,112.6,97.3,113,96.7,113z"/>
			</g>
			<g>
				<path class="st0" d="M119.7,116.1c-0.8,0-1.4-0.6-1.5-1.4c-0.3-5.5-4.8-9.8-10.3-9.8c-0.8,0-1.5-0.7-1.5-1.5
					c0-0.8,0.7-1.5,1.5-1.5c7.1,0,12.9,5.5,13.3,12.6C121.3,115.4,120.6,116.1,119.7,116.1C119.8,116.1,119.8,116.1,119.7,116.1z"/>
			</g>
		</g>
		<g>
			<path class="st0" d="M104.3,83.8c-3.6,0-7.1-1.9-8.9-5.3c-1.3-2.4-1.6-5.1-0.8-7.7c0.8-2.6,2.5-4.7,4.9-6
				c2.4-1.3,5.1-1.6,7.7-0.8c2.6,0.8,4.7,2.5,6,4.9l0,0c1.3,2.4,1.6,5.1,0.8,7.7c-0.8,2.6-2.5,4.7-4.9,6
				C107.6,83.4,106,83.8,104.3,83.8z M104.3,66.5c-1.2,0-2.4,0.3-3.4,0.9c-3.5,1.9-4.8,6.3-2.9,9.8c1.9,3.5,6.3,4.8,9.8,2.9
				c1.7-0.9,2.9-2.4,3.5-4.3c0.5-1.8,0.3-3.8-0.6-5.5l0,0c-0.9-1.7-2.4-2.9-4.3-3.5C105.7,66.6,105,66.5,104.3,66.5z"/>
		</g>
		<g>
			<path class="st0" d="M61.9,83.8c-1.4,0-2.7-0.5-3.8-1.4c-1.2-1-1.9-2.4-2-4c-0.2-3.2,2.2-6,5.4-6.3c1.6-0.1,3.1,0.4,4.3,1.4
				c1.2,1,1.9,2.4,2,4c0.1,1.6-0.4,3.1-1.4,4.3c-1,1.2-2.4,1.9-4,2C62.2,83.8,62.1,83.8,61.9,83.8z M61.7,75c-0.8,0.1-1.5,0.4-2,1
				c-0.5,0.6-0.8,1.3-0.7,2.1c0.1,0.8,0.4,1.5,1,2c0.6,0.5,1.3,0.8,2.1,0.7c0.8-0.1,1.5-0.4,2-1c0.5-0.6,0.8-1.3,0.7-2.1
				c-0.1-0.8-0.4-1.5-1-2C63.2,75.2,62.5,75,61.7,75L61.7,75z M61.6,73.5L61.6,73.5L61.6,73.5z"/>
		</g>
		<g>
			<path class="st0" d="M49.3,93c-0.3,0-0.7-0.1-1-0.4l-1.2-1c-0.6-0.5-0.7-1.5-0.2-2.1l1.7-2c-1-1.4-1.8-2.9-2.3-4.6l-2.6,0.2
				c-0.4,0-0.8-0.1-1.1-0.4s-0.5-0.6-0.5-1l-0.4-4.7c0-0.4,0.1-0.8,0.4-1.1c0.3-0.3,0.6-0.5,1-0.5l2.6-0.2c0.3-1.7,0.8-3.3,1.6-4.9
				l-2-1.7c-0.3-0.3-0.5-0.6-0.5-1c0-0.4,0.1-0.8,0.4-1.1l3.1-3.6c0.3-0.3,0.6-0.5,1-0.5c0.4,0,0.8,0.1,1.1,0.4l2,1.7
				c1.4-1,2.9-1.8,4.6-2.3l-0.2-2.6c-0.1-0.8,0.5-1.5,1.4-1.6l4.7-0.4c0.4,0,0.8,0.1,1.1,0.4c0.3,0.3,0.5,0.6,0.5,1l0.2,2.6
				c1.7,0.3,3.3,0.8,4.9,1.6l1.7-2c0.3-0.3,0.6-0.5,1-0.5c0.4,0,0.8,0.1,1.1,0.4l3.6,3.1c0.3,0.3,0.5,0.6,0.5,1
				c0,0.4-0.1,0.8-0.4,1.1l-1.7,2c1,1.4,1.8,2.9,2.3,4.6l2.6-0.2c0.4,0,0.8,0.1,1.1,0.4s0.5,0.6,0.5,1l0.4,4.7
				c0,0.4-0.1,0.8-0.4,1.1c-0.3,0.3-0.6,0.5-1,0.5l-2.6,0.2c-0.3,2-1,3.9-2,5.7c-0.4,0.7-1.3,0.9-2,0.5c-0.7-0.4-0.9-1.3-0.5-2
				c1-1.8,1.6-3.7,1.8-5.7c0.1-0.7,0.6-1.3,1.4-1.4l2.3-0.2l-0.1-1.8l-2.3,0.2c-0.7,0.1-1.4-0.4-1.5-1.1c-0.5-2-1.5-4-2.8-5.6
				c-0.5-0.6-0.5-1.4,0-1.9l1.5-1.8l-1.4-1.2l-1.5,1.8c-0.5,0.6-1.3,0.7-1.9,0.3c-1.8-1.1-3.8-1.8-5.9-1.9c-0.7-0.1-1.3-0.6-1.4-1.4
				l-0.2-2.3L59.7,61l0.2,2.3c0.1,0.7-0.4,1.4-1.1,1.5c-2,0.5-4,1.5-5.6,2.8c-0.6,0.5-1.4,0.5-1.9,0l-1.8-1.5l-1.2,1.4l1.8,1.5
				c0.6,0.5,0.7,1.3,0.3,1.9c-1.1,1.8-1.8,3.8-1.9,5.9c-0.1,0.7-0.6,1.3-1.4,1.4l-2.3,0.2l0.1,1.8l2.3-0.2c0.7-0.1,1.4,0.4,1.5,1.1
				c0.5,2,1.5,4,2.8,5.6c0.5,0.6,0.5,1.4,0,1.9l-1.5,1.8l0.1,0.1c0.6,0.5,0.7,1.5,0.2,2.1C50.1,92.8,49.7,93,49.3,93z"/>
		</g>
		<g>
			<path class="st0" d="M118.4,86.7c-0.3,0-0.7-0.1-0.9-0.3c-0.6-0.5-0.7-1.4-0.2-2.1c0.8-1,1.6-2.2,2.1-3.4c0.3-0.7,1.1-1,1.8-0.8
				l3,0.9l0.8-2.7l-3-0.9c-0.7-0.2-1.1-0.9-1-1.6c0.3-2.6,0.1-5.2-0.8-7.7c-0.2-0.7,0.1-1.4,0.7-1.8l2.8-1.5l-1.3-2.5l-2.8,1.5
				c-0.6,0.3-1.4,0.2-1.9-0.4c-1.6-2.1-3.7-3.7-6-4.9c-0.7-0.3-1-1.1-0.8-1.8l0.9-3L109,53l-0.9,3c-0.2,0.7-0.9,1.1-1.6,1
				c-2.6-0.3-5.2-0.1-7.7,0.8c-0.7,0.2-1.4-0.1-1.8-0.7l-1.5-2.8L93,55.8l1.5,2.8c0.3,0.6,0.2,1.4-0.4,1.9c-2.1,1.6-3.7,3.7-4.9,6
				c-0.3,0.7-1.1,1-1.8,0.8l-3-0.9L83.7,69l3,0.9c0.7,0.2,1.1,0.9,1,1.6c-0.3,2.6-0.1,5.2,0.8,7.7c0.2,0.7-0.1,1.4-0.7,1.8l-1.7,0.9
				c-0.7,0.4-1.6,0.1-2-0.6c-0.4-0.7-0.1-1.6,0.6-2l0.6-0.3c-0.6-2.1-0.8-4.4-0.7-6.6l-3.3-1c-0.4-0.1-0.7-0.4-0.9-0.7
				c-0.2-0.3-0.2-0.7-0.1-1.1l1.6-5.5c0.2-0.8,1.1-1.2,1.8-1l3.3,1c1.1-1.9,2.5-3.7,4.2-5.1l-1.6-3c-0.4-0.7-0.1-1.6,0.6-2l5.1-2.8
				c0.3-0.2,0.7-0.2,1.1-0.1c0.4,0.1,0.7,0.4,0.9,0.7l1.6,3c2.1-0.6,4.4-0.8,6.6-0.7l1-3.3c0.1-0.4,0.4-0.7,0.7-0.9
				c0.3-0.2,0.7-0.2,1.1-0.1l5.5,1.6c0.4,0.1,0.7,0.4,0.9,0.7c0.2,0.3,0.2,0.7,0.1,1.1l-1,3.3c1.9,1.1,3.7,2.5,5.1,4.2l3-1.6
				c0.3-0.2,0.7-0.2,1.1-0.1c0.4,0.1,0.7,0.4,0.9,0.7l2.8,5.1c0.2,0.3,0.2,0.7,0.1,1.1c-0.1,0.4-0.4,0.7-0.7,0.9l-3,1.6
				c0.6,2.1,0.8,4.4,0.7,6.6l3.3,1c0.8,0.2,1.2,1.1,1,1.8l-1.6,5.5c-0.1,0.4-0.4,0.7-0.7,0.9c-0.3,0.2-0.7,0.2-1.1,0.1l-3.3-1
				c-0.6,1-1.2,2-1.9,2.8C119.2,86.5,118.8,86.7,118.4,86.7z"/>
		</g>
	</g>
</g>
</svg>
