<?xml version="1.0" encoding="utf-8"?>
<!-- Generator: Adobe Illustrator 25.2.0, SVG Export Plug-In . SVG Version: 6.00 Build 0)  -->
<svg version="1.1" id="Layer_1" xmlns="http://www.w3.org/2000/svg" xmlns:xlink="http://www.w3.org/1999/xlink" x="0px" y="0px"
	 viewBox="0 0 170.1 170.1" style="enable-background:new 0 0 170.1 170.1;" xml:space="preserve">
<style type="text/css">
	.st0{fill:#FFFFFF;}
	.st1{fill-rule:evenodd;clip-rule:evenodd;fill:#FFFFFF;}
</style>
<g>
	<path class="st0" d="M112.5,95c-9.2-3.1-14.5-4.4-14.5-4.4l-5.5,14.9l-5.1-11.2l7.7-5.8c0,0-0.5-0.9-0.5-1.7s0-3.2,0-3.2
		s0.1-1.7,1.9-4c1.8-2.3,3.5-5.7,3.6-6.4c0,0,1.5,0.4,2.3-1c0.8-1.4,1.2-4.3,1.8-6.7c0.6-2.4,0.5-4.3-1.6-4.3
		c0-2.3-0.8-18.7-17.5-18.7S67.5,59,67.5,61.3c-2.1,0-2.2,1.9-1.6,4.3c0.6,2.4,1,5.3,1.8,6.7c0.8,1.4,2.3,1,2.3,1
		c0.1,0.6,1.8,4.1,3.6,6.4c1.8,2.3,1.9,4,1.9,4s0,2.4,0,3.2S75,88.6,75,88.6l7.7,5.8l-5.1,11.2l-5.5-14.9c0,0-5.3,1.3-14.5,4.4
		s-8.4,9.7-8.4,9.7s0,7.8,0,11.6c0,2.5,3.3,6,14.3,8.8c11,2.8,21.6,2.4,21.6,2.4s10.6,0.4,21.6-2.4c11-2.8,14.3-6.3,14.3-8.8
		c0-3.7,0-11.6,0-11.6S121.7,98.1,112.5,95z"/>
</g>
</svg>
