<?xml version="1.0" encoding="utf-8"?>
<!-- Generator: Adobe Illustrator 25.2.0, SVG Export Plug-In . SVG Version: 6.00 Build 0)  -->
<svg version="1.1" id="Layer_1" xmlns="http://www.w3.org/2000/svg" xmlns:xlink="http://www.w3.org/1999/xlink" x="0px" y="0px"
	 viewBox="0 0 170.1 170.1" style="enable-background:new 0 0 170.1 170.1;" xml:space="preserve">
<style type="text/css">
	.st0{fill:#FFFFFF;}
	.st1{fill-rule:evenodd;clip-rule:evenodd;fill:#FFFFFF;}
</style>
<g>
	<g>
		<path class="st0" d="M66.7,79.9H52.5c-1,0-1.8-0.8-1.8-1.8c0-1,0.8-1.8,1.8-1.8h14.1c1,0,1.8,0.8,1.8,1.8
			C68.4,79.1,67.6,79.9,66.7,79.9z"/>
		<path class="st0" d="M67.1,88.9H36.3c-1,0-1.8-0.8-1.8-1.8c0-1,0.8-1.8,1.8-1.8h30.8c1,0,1.8,0.8,1.8,1.8
			C68.9,88.1,68.1,88.9,67.1,88.9z"/>
		<path class="st0" d="M87.1,115.8c-9.2,0-17.6-4.2-23.2-11.6c-0.6-0.8-0.4-1.9,0.4-2.5c0.8-0.6,1.9-0.4,2.5,0.4
			c4.8,6.5,12.2,10.2,20.3,10.2c14,0,25.4-11.4,25.4-25.4c0-14-11.4-25.4-25.4-25.4c-8.1,0-15.5,3.7-20.3,10.2
			c-0.6,0.8-1.7,0.9-2.5,0.4c-0.8-0.6-0.9-1.7-0.4-2.5c5.5-7.4,14-11.6,23.2-11.6c16,0,28.9,13,28.9,28.9
			C116,102.8,103,115.8,87.1,115.8z"/>
		<path class="st0" d="M87.1,61.5c-1,0-1.8-0.8-1.8-1.8v-9.4c0-1,0.8-1.8,1.8-1.8c1,0,1.8,0.8,1.8,1.8v9.4
			C88.9,60.7,88.1,61.5,87.1,61.5z"/>
		<path class="st0" d="M91.9,52.1h-9.7c-1,0-1.8-0.8-1.8-1.8c0-1,0.8-1.8,1.8-1.8h9.7c1,0,1.8,0.8,1.8,1.8
			C93.7,51.3,92.9,52.1,91.9,52.1z"/>
		<path class="st0" d="M87.1,92.2c-0.5,0-1-0.2-1.3-0.6l-6.3-7.2c-0.6-0.7-0.6-1.9,0.2-2.5c0.7-0.6,1.9-0.6,2.5,0.2l6.3,7.2
			c0.6,0.7,0.6,1.9-0.2,2.5C87.9,92.1,87.5,92.2,87.1,92.2z"/>
		<path class="st0" d="M87.1,92.2c-0.5,0-1-0.2-1.4-0.6c-0.6-0.7-0.6-1.9,0.2-2.5l12.7-10.9c0.7-0.6,1.9-0.6,2.5,0.2
			c0.6,0.7,0.6,1.9-0.2,2.5L88.2,91.8C87.9,92.1,87.5,92.2,87.1,92.2z"/>
		<path class="st0" d="M66.7,97.6H45.9c-1,0-1.8-0.8-1.8-1.8c0-1,0.8-1.8,1.8-1.8h20.7c1,0,1.8,0.8,1.8,1.8
			C68.4,96.8,67.6,97.6,66.7,97.6z"/>
	</g>
</g>
</svg>
