<?xml version="1.0" encoding="utf-8"?>
<!-- Generator: Adobe Illustrator 25.2.0, SVG Export Plug-In . SVG Version: 6.00 Build 0)  -->
<svg version="1.1" id="Layer_1" xmlns="http://www.w3.org/2000/svg" xmlns:xlink="http://www.w3.org/1999/xlink" x="0px" y="0px"
	 viewBox="0 0 170.1 170.1" style="enable-background:new 0 0 170.1 170.1;" xml:space="preserve">
<style type="text/css">
	.st0{fill:#FFFFFF;}
	.st1{fill-rule:evenodd;clip-rule:evenodd;fill:#FFFFFF;}
</style>
<g>
	<g>
		<path class="st1" d="M56,94.4c3.7,10.8,13.3,18.9,24.9,20.4c0.8-1.5,2.3-2.5,4.1-2.5c2.5,0,4.6,2,4.6,4.6c0,2.5-2,4.6-4.6,4.6
			c-2,0-3.6-1.2-4.3-3c-13.6-1.7-24.7-11.3-28.6-24.1h-1.5h-3.1c-2.4,0-4.4-2-4.4-4.4V78.8c0-2.4,2-4.4,4.4-4.4h3.1
			C54.9,59.5,68.7,48.6,85,48.6c16.3,0,30.1,10.9,34.4,25.9h3.1c2.4,0,4.4,2,4.4,4.4V90c0,2.4-2,4.4-4.4,4.4h-3.1h-2.3h-1.8H114
			c1.1-3.1,1.7-6.5,1.7-10c0-16.9-13.7-30.7-30.7-30.7S54.4,67.5,54.4,84.4C54.4,87.9,55,91.3,56,94.4"/>
		<path class="st1" d="M85,105.6c-11.7,0-21.2-9.5-21.2-21.2v0c0-11.7,9.5-21.2,21.2-21.2c11.7,0,21.2,9.5,21.2,21.2v0
			c0,0.2,0,0.3,0,0.5l0,0.2c0,0.1,0,0.2,0,0.4l0,0.1c0,0.2,0,0.3,0,0.5l0,0.1c0,0.1,0,0.2,0,0.4l0,0.2c0,0.1,0,0.2,0,0.4l0,0.1
			c0,0.2,0,0.3-0.1,0.5l0,0.1c0,0.1,0,0.2-0.1,0.3l0,0.2c0,0.1,0,0.3-0.1,0.4l0,0.1c0,0.1-0.1,0.3-0.1,0.4l0,0.2
			c0,0.1,0,0.2-0.1,0.3l0,0.2c0,0.1-0.1,0.3-0.1,0.4l0,0.1c0,0.1-0.1,0.2-0.1,0.3l-0.1,0.2c0,0.1-0.1,0.2-0.1,0.3l-0.1,0.2
			c0,0.1-0.1,0.3-0.1,0.4l-0.1,0.2c0,0.1-0.1,0.2-0.1,0.3l-0.1,0.2c0,0.1-0.1,0.2-0.1,0.3l-0.1,0.2c0,0.1-0.1,0.2-0.2,0.3l-0.1,0.2
			l-0.1,0.2l-0.1,0.2c0,0.1-0.1,0.2-0.1,0.2c-0.1,0.1-0.1,0.2-0.2,0.3c0,0.1-0.1,0.1-0.1,0.2c0,0.1-0.1,0.1-0.1,0.2l-0.1,0.2
			c0,0.1-0.1,0.2-0.1,0.2l-0.1,0.1c-0.1,0.1-0.2,0.3-0.3,0.4l-0.1,0.1c-0.1,0.1-0.1,0.2-0.2,0.2l-0.1,0.1c-0.2,0.2-0.3,0.5-0.5,0.7
			l1.8,6.6l-6.6-1.8c-1.1,0.8-2.3,1.5-3.6,2.1v0C91.2,105,88.2,105.6,85,105.6 M110.1,109.5l-3.2-12l0,0l0.1-0.2
			c0.1-0.1,0.1-0.2,0.2-0.4l0.1-0.2c0.1-0.1,0.1-0.2,0.2-0.3l0.1-0.2c0.1-0.1,0.1-0.2,0.2-0.3c0-0.1,0.1-0.2,0.1-0.2
			c0-0.1,0.1-0.2,0.1-0.3c0-0.1,0.1-0.2,0.1-0.3c0-0.1,0.1-0.2,0.1-0.3c0-0.1,0.1-0.2,0.1-0.3c0-0.1,0.1-0.2,0.1-0.3
			c0-0.1,0.1-0.2,0.1-0.3c0-0.1,0.1-0.2,0.1-0.3c0-0.1,0.1-0.2,0.1-0.3l0.1-0.2c0-0.1,0.1-0.3,0.1-0.4l0.1-0.2
			c0-0.1,0.1-0.3,0.1-0.4l0.1-0.2c0-0.1,0.1-0.3,0.1-0.4l0-0.1c0-0.2,0.1-0.3,0.1-0.5l0-0.1c0-0.2,0.1-0.3,0.1-0.5l0-0.1
			c0-0.2,0.1-0.3,0.1-0.5l0-0.1c0-0.2,0.1-0.3,0.1-0.5l0-0.1c0-0.2,0.1-0.4,0.1-0.6l0-0.1c0-0.2,0.1-0.4,0.1-0.6l0-0.1
			c0-0.2,0-0.4,0.1-0.6l0-0.1c0-0.2,0-0.4,0.1-0.6l0,0c0-0.2,0-0.4,0-0.6l0,0c0-0.2,0-0.4,0-0.6l0,0l0,0c0-0.2,0-0.4,0-0.6v0
			c0-14-11.4-25.4-25.4-25.4c-14,0-25.4,11.4-25.4,25.4v0c0,14,11.4,25.4,25.4,25.4c3.1,0,6.1-0.6,8.8-1.6c0.1,0,0.2-0.1,0.4-0.1
			l0.2-0.1c0.1,0,0.2-0.1,0.3-0.1l0.2-0.1c0.1,0,0.2-0.1,0.3-0.1c0.1,0,0.2-0.1,0.3-0.1c0.1,0,0.2-0.1,0.3-0.1l0.3-0.1
			c0.1,0,0.2-0.1,0.3-0.1c0.1,0,0.2-0.1,0.3-0.1c0.1,0,0.2-0.1,0.3-0.1c0.1-0.1,0.2-0.1,0.3-0.2l0.2-0.1c0.1-0.1,0.2-0.1,0.3-0.2
			c0.1,0,0.1-0.1,0.2-0.1l0,0L110.1,109.5z"/>
		<path class="st1" d="M73.4,80c2.4,0,4.4,2,4.4,4.4c0,2.4-2,4.4-4.4,4.4c-2.4,0-4.4-2-4.4-4.4C69,82,70.9,80,73.4,80 M96.7,80
			c2.4,0,4.4,2,4.4,4.4c0,2.4-2,4.4-4.4,4.4c-2.4,0-4.4-2-4.4-4.4C92.3,82,94.3,80,96.7,80z M85,80c2.4,0,4.4,2,4.4,4.4
			c0,2.4-2,4.4-4.4,4.4c-2.4,0-4.4-2-4.4-4.4C80.6,82,82.6,80,85,80z"/>
	</g>
</g>
</svg>
