<?xml version="1.0" encoding="utf-8"?>
<!-- Generator: Adobe Illustrator 25.2.0, SVG Export Plug-In . SVG Version: 6.00 Build 0)  -->
<svg version="1.1" id="Layer_1" xmlns="http://www.w3.org/2000/svg" xmlns:xlink="http://www.w3.org/1999/xlink" x="0px" y="0px"
	 viewBox="0 0 23.5 23.5" style="enable-background:new 0 0 23.5 23.5;" xml:space="preserve">
<style type="text/css">
	.st0{fill:#B4C3D3;}
	.st1{fill:#FFFFFF;}
	.st2{fill-rule:evenodd;clip-rule:evenodd;fill:#B4C3D3;}
	.st3{fill:none;}
</style>
<g>
	<path class="st2" d="M20.1,11.8c0,0.9-1.2,1.6-2.9,1.7c-1.1,2.9-3.7,3.2-6.8,3.2c-4.1,0-7.4-0.7-7.4-7.2c3.3,0,11.5,0,14.8,0
		c0,0.2,0,0.4,0,0.7C19.2,10.4,20.1,11.1,20.1,11.8L20.1,11.8z M17.8,10.8c-0.1,0.8-0.2,1.4-0.3,2c1.1-0.1,1.9-0.5,1.9-1
		C19.3,11.3,18.7,11,17.8,10.8L17.8,10.8z"/>
</g>
</svg>
