<?xml version="1.0" encoding="utf-8"?>
<!-- Generator: Adobe Illustrator 25.2.0, SVG Export Plug-In . SVG Version: 6.00 Build 0)  -->
<svg version="1.1" id="Layer_1" xmlns="http://www.w3.org/2000/svg" xmlns:xlink="http://www.w3.org/1999/xlink" x="0px" y="0px"
	 viewBox="0 0 23.5 23.5" style="enable-background:new 0 0 23.5 23.5;" xml:space="preserve">
<style type="text/css">
	.st0{fill:#B4C3D3;}
	.st1{fill:#FFFFFF;}
	.st2{fill-rule:evenodd;clip-rule:evenodd;fill:#B4C3D3;}
	.st3{fill:none;}
</style>
<g>
	<path class="st0" d="M21,9.5c-0.1-3.3-3.4-3.1-3.4-3.1C17.1,5.5,15.9,5,15.9,5c-3.2-1.1-5.2,1.4-5.2,1.4c-3.3-0.2-3.5,3-3.5,3
		c0,0.2,0.1,0.3,0.1,0.4C3.3,9.6,3,13.7,3,13.7c0.9,5.4,5.1,3.6,5.1,3.6c2.4,1.9,3.5,1.3,3.6,1.4c2.6,0.3,4-1.4,4-1.4
		c5.2,1.4,5.2-3.5,5.2-3.5c0-1-0.3-1.7-0.6-2.3C21,10.7,21,9.5,21,9.5z"/>
</g>
</svg>
