<?xml version="1.0" encoding="utf-8"?>
<!-- Generator: Adobe Illustrator 25.2.0, SVG Export Plug-In . SVG Version: 6.00 Build 0)  -->
<svg version="1.1" id="Layer_1" xmlns="http://www.w3.org/2000/svg" xmlns:xlink="http://www.w3.org/1999/xlink" x="0px" y="0px"
	 viewBox="0 0 23.5 23.5" style="enable-background:new 0 0 23.5 23.5;" xml:space="preserve">
<style type="text/css">
	.st0{fill:#B4C3D3;}
	.st1{fill:#FFFFFF;}
	.st2{fill-rule:evenodd;clip-rule:evenodd;fill:#B4C3D3;}
	.st3{fill:none;}
</style>
<g>
	<path class="st0" d="M11.7,2.9C6.7,2.9,2.5,6,2.5,9.8c0,2.5,1.8,4.7,4.5,5.9c0.1,1.5-0.1,3-1,4.4c-0.1,0.2-1,0.9-1.1,1.1
		c1.5,0.2,3.7-1.1,4.6-2.5c0.6-0.8,1-1.5,1.3-2.2c0.3,0,0.7,0,1,0c5.1,0,9.2-3.1,9.2-6.9C20.9,6,16.8,2.9,11.7,2.9L11.7,2.9z"/>
</g>
</svg>
