<?xml version="1.0" encoding="utf-8"?>
<!-- Generator: Adobe Illustrator 25.2.0, SVG Export Plug-In . SVG Version: 6.00 Build 0)  -->
<svg version="1.1" id="Layer_1" xmlns="http://www.w3.org/2000/svg" xmlns:xlink="http://www.w3.org/1999/xlink" x="0px" y="0px"
	 viewBox="0 0 23.5 23.5" style="enable-background:new 0 0 23.5 23.5;" xml:space="preserve">
<style type="text/css">
	.st0{fill:#B4C3D3;}
	.st1{fill:#FFFFFF;}
	.st2{fill-rule:evenodd;clip-rule:evenodd;fill:#B4C3D3;}
	.st3{fill:none;}
</style>
<path class="st2" d="M12.5,16.2C12.5,16.2,12.5,16.2,12.5,16.2v3.2H14c0.6,0,1.1,0.3,1.1,0.7c0,0.4-0.5,0.7-1.1,0.7h-2.2
	c0,0,0,0,0,0c0,0,0,0,0,0H9.6c-0.6,0-1.1-0.3-1.1-0.7c0-0.4,0.5-0.7,1.1-0.7h1.6v-3.2c0,0,0,0,0,0c-3.1-0.3-4.8-2.6-4.8-5.4
	c0-0.8,0.3-1.1,0.8-1.1c0.5,0,0.5,0.4,0.5,1.3c0,2.4,1.7,4.1,4.2,4.1c4.4,0,4.2-4,4.2-4.1c0-1,0.3-1.3,0.8-1.3
	c0.5,0,0.5,0.5,0.5,1.1C17.2,13.5,15.6,15.9,12.5,16.2L12.5,16.2z M11.8,13.9c-1.7,0-3.1-1.4-3.1-3.1V6.7c0-1.7,1.4-3.1,3.1-3.1
	c1.7,0,3.1,1.4,3.1,3.1v4.1C14.9,12.5,13.5,13.9,11.8,13.9L11.8,13.9z"/>
</svg>
