<?xml version="1.0" encoding="utf-8"?>
<!-- Generator: Adobe Illustrator 25.2.0, SVG Export Plug-In . SVG Version: 6.00 Build 0)  -->
<svg version="1.1" id="Layer_1" xmlns="http://www.w3.org/2000/svg" xmlns:xlink="http://www.w3.org/1999/xlink" x="0px" y="0px"
	 viewBox="0 0 23.5 23.5" style="enable-background:new 0 0 23.5 23.5;" xml:space="preserve">
<style type="text/css">
	.st0{fill:#B4C3D3;}
	.st1{fill:#FFFFFF;}
	.st2{fill-rule:evenodd;clip-rule:evenodd;fill:#B4C3D3;}
	.st3{fill:none;}
</style>
<g>
	<path class="st2" d="M16.4,20.1h-10c-0.5,0-1-0.4-1-0.9V4c0-0.5,0.4-0.9,1-0.9h10c0.5,0,1,0.4,1,0.9v15.2
		C17.4,19.7,17,20.1,16.4,20.1L16.4,20.1z M11.4,19.4c0.3,0,0.6-0.3,0.6-0.6c0-0.3-0.3-0.6-0.6-0.6c-0.3,0-0.6,0.3-0.6,0.6
		C10.8,19.1,11.1,19.4,11.4,19.4L11.4,19.4z M16,4.8H6.9v12.7l9.1,0V4.8L16,4.8z"/>
</g>
</svg>
