<?xml version="1.0" encoding="utf-8"?>
<!-- Generator: Adobe Illustrator 25.2.0, SVG Export Plug-In . SVG Version: 6.00 Build 0)  -->
<svg version="1.1" id="Layer_1" xmlns="http://www.w3.org/2000/svg" xmlns:xlink="http://www.w3.org/1999/xlink" x="0px" y="0px"
	 viewBox="0 0 23.5 23.5" style="enable-background:new 0 0 23.5 23.5;" xml:space="preserve">
<style type="text/css">
	.st0{fill:#B4C3D3;}
	.st1{fill:#FFFFFF;}
	.st2{fill-rule:evenodd;clip-rule:evenodd;fill:#B4C3D3;}
	.st3{fill:none;}
</style>
<g>
	<path class="st2" d="M2.9,10.8c0-4.1,3.8-4.9,8.5-4.9c4.7,0,8.5,0.6,8.5,4.9C19.9,11.3,2.9,11.3,2.9,10.8L2.9,10.8z M6.1,7.4
		C5.9,7.5,5.7,7.6,5.7,7.7c0,0.1,0.2,0.1,0.4,0c0.2-0.1,0.4-0.2,0.4-0.2C6.5,7.3,6.3,7.3,6.1,7.4L6.1,7.4z M8.5,8
		c0-0.1-0.2,0.1-0.4,0.2C8,8.4,7.9,8.6,8,8.6c0,0,0.2-0.1,0.4-0.2C8.5,8.2,8.6,8,8.5,8L8.5,8z M9.8,9.5c0,0.3,0,0.5,0.1,0.5
		C10,9.9,10,9.7,10,9.5C10,9.2,10,9,9.9,9C9.9,9,9.8,9.2,9.8,9.5L9.8,9.5z M10.2,7C10.1,6.9,10,6.9,10,6.9c0,0,0,0.1,0,0.3
		c0.1,0.1,0.1,0.2,0.2,0.2C10.3,7.3,10.2,7.2,10.2,7L10.2,7z M12.5,7.5c-0.1-0.3-0.3-0.5-0.3-0.4c0,0,0,0.3,0.2,0.5
		c0.1,0.3,0.3,0.5,0.3,0.4C12.6,8,12.6,7.8,12.5,7.5L12.5,7.5z M14.6,8.2c-0.2,0.2-0.3,0.4-0.3,0.4c0,0,0.2-0.1,0.4-0.3
		c0.2-0.2,0.3-0.4,0.3-0.4C14.9,7.8,14.7,8,14.6,8.2L14.6,8.2z M16.6,7.4c-0.1-0.1-0.2-0.1-0.3-0.1c0,0,0.1,0.1,0.2,0.2
		c0.1,0.1,0.2,0.1,0.3,0.1C16.8,7.5,16.8,7.4,16.6,7.4L16.6,7.4z M18.5,8.6c0-0.2-0.1-0.4-0.2-0.4c0,0,0,0.2,0,0.4
		c0.1,0.2,0.1,0.4,0.2,0.4C18.6,9,18.6,8.8,18.5,8.6L18.5,8.6z M19.1,13.2H3.7c-0.4,0-0.7-0.3-0.7-0.6v-0.4c0-0.3,0.3-0.6,0.7-0.6
		h15.4c0.4,0,0.7,0.3,0.7,0.6v0.4C19.8,12.9,19.5,13.2,19.1,13.2L19.1,13.2z M3.3,13.7c2.8-0.2,13.4-0.1,16.2,0
		c0.3,0,0.4,0.2,0.3,0.3c0,0.9,0.5,2.4-8.5,2.4C2.5,16.4,3,14.9,3,14C2.9,13.8,3.1,13.7,3.3,13.7L3.3,13.7z"/>
</g>
</svg>
