<?xml version="1.0" encoding="utf-8"?>
<!-- Generator: Adobe Illustrator 25.2.0, SVG Export Plug-In . SVG Version: 6.00 Build 0)  -->
<svg version="1.1" id="Layer_1" xmlns="http://www.w3.org/2000/svg" xmlns:xlink="http://www.w3.org/1999/xlink" x="0px" y="0px"
	 viewBox="0 0 23.5 23.5" style="enable-background:new 0 0 23.5 23.5;" xml:space="preserve">
<style type="text/css">
	.st0{fill:#B4C3D3;}
	.st1{fill:#FFFFFF;}
	.st2{fill-rule:evenodd;clip-rule:evenodd;fill:#B4C3D3;}
	.st3{fill:none;}
</style>
<g>
	<g>
		<g>
			<path class="st0" d="M3.8,4.3c0,0-1.1,1.8,0,2.6V4.3"/>
			<path class="st0" d="M3.9,4.3c0,0,1.1,1.8,0,2.6V4.3"/>
		</g>
		<g>
			<path class="st0" d="M6.2,3.5c0,0-1.9,1-1.3,2.3L6.2,3.5"/>
			<path class="st0" d="M6.3,3.6c0,0,0.1,2.1-1.3,2.3L6.3,3.6"/>
		</g>
		<g>
			<path class="st0" d="M6.2,6C6.2,6,4,6,4,7.4L6.2,6"/>
			<path class="st0" d="M6.2,6c0,0-0.8,2-2.1,1.5L6.2,6"/>
		</g>
		<g>
			<path class="st0" d="M5.2,7.8c0,0-2,0.7-1.6,2L5.2,7.8"/>
			<path class="st0" d="M5.2,7.8c0,0-0.2,2.1-1.6,2L5.2,7.8"/>
		</g>
		<g>
			<path class="st0" d="M5,9.7c0,0-1.8,1.2-1,2.4L5,9.7"/>
			<path class="st0" d="M5,9.7c0,0,0.3,2.1-1,2.4L5,9.7"/>
		</g>
		<g>
			<path class="st0" d="M5.3,11.7c0,0-1.5,1.5-0.5,2.5L5.3,11.7"/>
			<path class="st0" d="M5.4,11.8c0,0,0.8,2-0.5,2.5L5.4,11.8"/>
		</g>
		<g>
			<path class="st0" d="M6.3,13.1c0,0-1.2,1.7-0.1,2.6L6.3,13.1"/>
			<path class="st0" d="M6.3,13.1c0,0,1.1,1.8-0.1,2.6L6.3,13.1"/>
		</g>
		<g>
			<path class="st0" d="M7.5,14c0,0-0.9,1.9,0.3,2.6L7.5,14"/>
			<path class="st0" d="M7.5,14c0,0,1.4,1.6,0.3,2.6L7.5,14"/>
		</g>
		<g>
			<path class="st0" d="M8.6,15.5c0,0,0.8,2,2.1,1.5L8.6,15.5"/>
			<path class="st0" d="M8.6,15.5c0,0,2.1,0.1,2.1,1.5L8.6,15.5"/>
		</g>
		<g>
			<path class="st0" d="M2.8,6.4c0,0-0.8,2,0.4,2.6L2.8,6.4"/>
			<path class="st0" d="M2.8,6.4c0,0,1.4,1.6,0.4,2.6L2.8,6.4"/>
		</g>
		<g>
			<path class="st0" d="M2,8.7c0,0-0.2,2.1,1.2,2.3L2,8.7"/>
			<path class="st0" d="M2,8.7c0,0,1.8,1.1,1.2,2.3L2,8.7"/>
		</g>
		<g>
			<path class="st0" d="M1.5,11c0,0,0.8,2,2.1,1.5L1.5,11"/>
			<path class="st0" d="M1.5,10.9c0,0,2.1,0.1,2.1,1.5L1.5,10.9"/>
		</g>
		<g>
			<path class="st0" d="M2,13c0,0,1.1,1.8,2.3,1.1L2,13"/>
			<path class="st0" d="M2,12.9c0,0,2.1-0.3,2.3,1.1L2,12.9"/>
		</g>
		<g>
			<path class="st0" d="M3.1,14.7c0,0,1.4,1.6,2.5,0.8L3.1,14.7"/>
			<path class="st0" d="M3.1,14.6c0,0,2.1-0.5,2.5,0.8L3.1,14.6"/>
		</g>
		<g>
			<path class="st0" d="M4.7,16.3c0,0,1.6,1.4,2.6,0.4L4.7,16.3"/>
			<path class="st0" d="M4.7,16.3c0,0,2-0.8,2.5,0.4L4.7,16.3"/>
		</g>
		<g>
			<path class="st0" d="M6.4,17.9c0,0,2,0.7,2.5-0.6L6.4,17.9"/>
			<path class="st0" d="M6.4,17.8c0,0,1.5-1.5,2.5-0.6L6.4,17.8"/>
		</g>
		<g>
			<path class="st0" d="M8.3,18.6c0,0,2,0.7,2.5-0.6L8.3,18.6"/>
			<path class="st0" d="M8.3,18.6c0,0,1.5-1.5,2.5-0.6L8.3,18.6"/>
		</g>
	</g>
	<g>
		<g>
			<path class="st0" d="M19.4,4.3c0,0,1.1,1.8,0,2.6V4.3"/>
			<path class="st0" d="M19.4,4.3c0,0-1.1,1.8,0,2.6V4.3"/>
		</g>
		<g>
			<path class="st0" d="M17,3.5c0,0,1.9,1,1.3,2.3L17,3.5"/>
			<path class="st0" d="M17,3.6c0,0-0.1,2.1,1.3,2.3L17,3.6"/>
		</g>
		<g>
			<path class="st0" d="M17.1,6c0,0,2.1,0.1,2.1,1.5L17.1,6"/>
			<path class="st0" d="M17,6c0,0,0.8,2,2.1,1.5L17,6"/>
		</g>
		<g>
			<path class="st0" d="M18,7.8c0,0,2,0.7,1.6,2L18,7.8"/>
			<path class="st0" d="M18,7.8c0,0,0.2,2.1,1.6,2L18,7.8"/>
		</g>
		<g>
			<path class="st0" d="M18.2,9.7c0,0,1.8,1.2,1,2.4L18.2,9.7"/>
			<path class="st0" d="M18.2,9.7c0,0-0.3,2.1,1,2.4L18.2,9.7"/>
		</g>
		<g>
			<path class="st0" d="M17.9,11.7c0,0,1.5,1.5,0.5,2.5L17.9,11.7"/>
			<path class="st0" d="M17.9,11.8c0,0-0.8,2,0.5,2.5L17.9,11.8"/>
		</g>
		<g>
			<path class="st0" d="M17,13.1c0,0,1.2,1.7,0.1,2.6L17,13.1"/>
			<path class="st0" d="M16.9,13.1c0,0-1.1,1.8,0.1,2.6L16.9,13.1"/>
		</g>
		<g>
			<path class="st0" d="M15.8,14c0,0,0.9,1.9-0.3,2.6L15.8,14"/>
			<path class="st0" d="M15.7,14c0,0-1.4,1.6-0.3,2.6L15.7,14"/>
		</g>
		<g>
			<path class="st0" d="M14.7,15.5c0,0-0.8,2-2.1,1.5L14.7,15.5"/>
			<path class="st0" d="M14.7,15.5c0,0-2.1,0.1-2.1,1.5L14.7,15.5"/>
		</g>
		<g>
			<path class="st0" d="M20.5,6.4c0,0,0.8,2-0.4,2.6L20.5,6.4"/>
			<path class="st0" d="M20.4,6.4c0,0-1.4,1.6-0.4,2.6L20.4,6.4"/>
		</g>
		<g>
			<path class="st0" d="M21.3,8.7c0,0,0.2,2.1-1.2,2.3L21.3,8.7"/>
			<path class="st0" d="M21.2,8.7c0,0-1.9,1.1-1.2,2.3L21.2,8.7"/>
		</g>
		<g>
			<path class="st0" d="M21.7,11c0,0-0.8,2-2.1,1.5L21.7,11"/>
			<path class="st0" d="M21.7,10.9c0,0-2.1,0.1-2.1,1.5L21.7,10.9"/>
		</g>
		<g>
			<path class="st0" d="M21.2,13c0,0-1.1,1.8-2.3,1.1L21.2,13"/>
			<path class="st0" d="M21.2,12.9c0,0-2.1-0.3-2.3,1.1L21.2,12.9"/>
		</g>
		<g>
			<path class="st0" d="M20.2,14.7c0,0-1.4,1.6-2.5,0.8L20.2,14.7"/>
			<path class="st0" d="M20.2,14.6c0,0-2.1-0.5-2.5,0.8L20.2,14.6"/>
		</g>
		<g>
			<path class="st0" d="M18.6,16.3c0,0-1.6,1.4-2.5,0.4L18.6,16.3"/>
			<path class="st0" d="M18.6,16.3c0,0-2-0.8-2.6,0.4L18.6,16.3"/>
		</g>
		<g>
			<path class="st0" d="M16.8,17.9c0,0-2,0.7-2.5-0.6L16.8,17.9"/>
			<path class="st0" d="M16.9,17.8c0,0-1.5-1.5-2.5-0.6L16.9,17.8"/>
		</g>
		<g>
			<path class="st0" d="M14.9,18.6c0,0-2,0.7-2.5-0.6L14.9,18.6"/>
			<path class="st0" d="M15,18.6c0,0-1.5-1.5-2.5-0.6L15,18.6"/>
		</g>
	</g>
	<polygon class="st0" points="11,18 11.9,17.1 12.1,17.4 	"/>
	<polygon class="st0" points="12.1,18 11.2,17.1 11,17.4 	"/>
	<g>
		<path class="st0" d="M8.9,5.2c0,0,0-1.4,2.7-1.4c2.8,0,2.7,1.4,2.7,1.4S16.5,5,16.2,6c-0.1,0.2-1.2,1.3-2.2,2.2
			c-0.7,0.7-1.4,1.4-1.5,1.4c0,0-0.2,0.2-0.2,0.3c0,0.2,0,1.7,0,1.7l2.2,2c0,0,0.4,0.5-0.4,0.9H9.4c0,0-0.8-0.1-0.6-0.7
			c0.1-0.2,0.3-0.4,0.5-0.6c0.7-0.7,1.7-1.6,1.7-1.6V9.9L7.3,6.5c0,0-0.7-1.1,0.3-1.2C8.6,5.2,8.9,5.2,8.9,5.2z M9.8,7.9
			C9.1,7.1,9.1,5.8,9.1,5.8C6.3,5.8,9.8,7.9,9.8,7.9z M14.1,5.8c0,0,0,1.3-0.7,2.1C13.4,7.9,16.9,5.8,14.1,5.8z"/>
	</g>
</g>
</svg>
