<?xml version="1.0" encoding="utf-8"?>
<!-- Generator: Adobe Illustrator 25.2.0, SVG Export Plug-In . SVG Version: 6.00 Build 0)  -->
<svg version="1.1" id="Layer_1" xmlns="http://www.w3.org/2000/svg" xmlns:xlink="http://www.w3.org/1999/xlink" x="0px" y="0px"
	 viewBox="0 0 23.5 23.5" style="enable-background:new 0 0 23.5 23.5;" xml:space="preserve">
<style type="text/css">
	.st0{fill:#B4C3D3;}
	.st1{fill:#FFFFFF;}
	.st2{fill-rule:evenodd;clip-rule:evenodd;fill:#B4C3D3;}
	.st3{fill:none;}
</style>
<g>
	<path class="st2" d="M19.4,8.3c0,0-12.5-0.8-15.7-1c-0.5,0-0.5-0.1,0-0.2c2.8-0.5,12.4-2.2,15.6-2.8c0.9-0.1,1,0,0.8,0.8
		C19.9,6.3,19.4,8.3,19.4,8.3L19.4,8.3z M17.8,14.1c0,0-0.3,0.9-0.6,1.6c-0.3,0.8-0.5,0.9-1.3,0.4c-2.6-1.8-10-6.8-12.4-8.4
		C3.1,7.5,3.2,7.4,3.6,7.5c3.3,0.9,15,3.9,15,3.9L17.8,14.1L17.8,14.1z M6.4,7.8l13,0.9c0,0,0.4,3.8,0.6,5.5
		c0.1,0.7-0.1,0.8-0.7,0.6c-0.5-0.2-1.1-0.5-1.1-0.5l1-3.2L6.4,7.8L6.4,7.8z"/>
</g>
</svg>
