<?xml version="1.0" encoding="utf-8"?>
<!-- Generator: Adobe Illustrator 25.2.0, SVG Export Plug-In . SVG Version: 6.00 Build 0)  -->
<svg version="1.1" id="Layer_1" xmlns="http://www.w3.org/2000/svg" xmlns:xlink="http://www.w3.org/1999/xlink" x="0px" y="0px"
	 viewBox="0 0 23.5 23.5" style="enable-background:new 0 0 23.5 23.5;" xml:space="preserve">
<style type="text/css">
	.st0{fill:#B4C3D3;}
	.st1{fill:#FFFFFF;}
	.st2{fill-rule:evenodd;clip-rule:evenodd;fill:#B4C3D3;}
	.st3{fill:none;}
</style>
<g>
	<path class="st2" d="M17.2,18.9H7.4c-0.5,0-0.9-0.4-0.9-0.9V4.6c0-0.5,0.5-1,1-1h1.4c0-0.1,0,0.3,0,0.3c0,0.6,0.4,1,1,1h4.8
		c0.6,0,1-0.5,1-1c0-0.2,0-0.3,0-0.3h1.4c0.5,0,1,0.5,1,1V18C18.1,18.5,17.7,18.9,17.2,18.9L17.2,18.9z M17.1,6.3
		c0-0.3-0.7-0.7-1-0.7H8.2C7.9,5.6,7.5,6,7.5,6.3v10.9c0,0.3,0.3,0.7,0.7,0.7c0,0,7.8,0,8.2,0c0.4,0,0.7-0.3,0.7-0.7
		C17.1,16.9,17.1,6.3,17.1,6.3L17.1,6.3z M14.3,4.3h-4.1c-0.6,0-0.7-0.2-0.7-0.7l0,0c0-0.8,1-0.7,1-0.7c0.1-0.4,0.6-1,1-1H13
		c0.4,0,0.9,0.6,1,1c0,0,1-0.1,1,0.7l0,0C15,4.1,14.9,4.3,14.3,4.3L14.3,4.3z"/>
</g>
</svg>
