<?xml version="1.0" encoding="utf-8"?>
<!-- Generator: Adobe Illustrator 25.2.0, SVG Export Plug-In . SVG Version: 6.00 Build 0)  -->
<svg version="1.1" id="Layer_1" xmlns="http://www.w3.org/2000/svg" xmlns:xlink="http://www.w3.org/1999/xlink" x="0px" y="0px"
	 viewBox="0 0 23.5 23.5" style="enable-background:new 0 0 23.5 23.5;" xml:space="preserve">
<style type="text/css">
	.st0{fill:#B4C3D3;}
	.st1{fill:#FFFFFF;}
	.st2{fill-rule:evenodd;clip-rule:evenodd;fill:#B4C3D3;}
	.st3{fill:none;}
</style>
<g>
	<path class="st0" d="M12.6,19h-2.4c-1.8,0-3.6-1.8-3.6-3.6v-4.7h9.5v4.7C16.1,17.2,14.4,19,12.6,19L12.6,19z M12.6,13.7
		c0-0.3-0.3-0.6-0.6-0.6h-1.2c-0.3,0-0.6,0.3-0.6,0.6V16c0,0.3,0.3,0.6,0.6,0.6H12c0.3,0,0.6-0.3,0.6-0.6V13.7L12.6,13.7z
		 M13.8,10.7V8.8c0-1.6-1.1-2.9-2.4-2.9C10.1,5.9,9,7.2,9,8.8v1.9H7.8V8.3c0-2,1.6-3.6,3.6-3.6c2,0,3.6,1.6,3.6,3.6v2.4H13.8
		L13.8,10.7z"/>
</g>
</svg>
