<?xml version="1.0" encoding="utf-8"?>
<!-- Generator: Adobe Illustrator 25.2.0, SVG Export Plug-In . SVG Version: 6.00 Build 0)  -->
<svg version="1.1" id="Layer_1" xmlns="http://www.w3.org/2000/svg" xmlns:xlink="http://www.w3.org/1999/xlink" x="0px" y="0px"
	 viewBox="0 0 23.5 23.5" style="enable-background:new 0 0 23.5 23.5;" xml:space="preserve">
<style type="text/css">
	.st0{fill:#B4C3D3;}
	.st1{fill:#FFFFFF;}
	.st2{fill-rule:evenodd;clip-rule:evenodd;fill:#B4C3D3;}
	.st3{fill:none;}
</style>
<g>
	<g>
		<path class="st0" d="M11.3,15.4v3.3c0,0-9.2-0.5-8.6-9c0.6-8.9,11-9.7,14.9-5.4c0,0,1.9,1.8,2,4.1h2.2l-3.6,4.9l-3.5-4.8h1.7
			c0,0-0.7-2.6-2.9-3.4c-2.8-1-7,0.1-7.5,4C5.2,15.2,11.3,15.4,11.3,15.4z M18.1,14.6c-1.2,0-2.2,1-2.2,2.2c0,1.2,1,2.2,2.2,2.2
			s2.2-1,2.2-2.2C20.3,15.6,19.3,14.6,18.1,14.6z"/>
	</g>
</g>
</svg>
