<?xml version="1.0" encoding="utf-8"?>
<!-- Generator: Adobe Illustrator 25.2.0, SVG Export Plug-In . SVG Version: 6.00 Build 0)  -->
<svg version="1.1" id="Layer_1" xmlns="http://www.w3.org/2000/svg" xmlns:xlink="http://www.w3.org/1999/xlink" x="0px" y="0px"
	 viewBox="0 0 23.5 23.5" style="enable-background:new 0 0 23.5 23.5;" xml:space="preserve">
<style type="text/css">
	.st0{fill:#B4C3D3;}
	.st1{fill:#FFFFFF;}
	.st2{fill-rule:evenodd;clip-rule:evenodd;fill:#B4C3D3;}
	.st3{fill:none;}
</style>
<g>
	<path class="st0" d="M11.4,5l1.4,3.2L13,8.7l0.6,0.1L17,9.1l-2.5,2.4l-0.4,0.4l0.1,0.5l0.6,3.4L12,13.5L11.5,13l-0.6,0.4l-2.9,2
		l0.6-3.1l0.1-0.5l-0.4-0.4L5.8,9.1l3.4-0.4l0.6-0.1L10,8.1L11.4,5 M11.4,1.2L8.7,7.3L2.2,8L7,12.5L5.7,19l5.7-4l5.7,4.6l-1.3-7
		L20.6,8l-6.5-0.7L11.4,1.2L11.4,1.2L11.4,1.2z"/>
</g>
</svg>
