<?xml version="1.0" encoding="utf-8"?>
<!-- Generator: Adobe Illustrator 25.2.0, SVG Export Plug-In . SVG Version: 6.00 Build 0)  -->
<svg version="1.1" id="Layer_1" xmlns="http://www.w3.org/2000/svg" xmlns:xlink="http://www.w3.org/1999/xlink" x="0px" y="0px"
	 viewBox="0 0 23.5 23.5" style="enable-background:new 0 0 23.5 23.5;" xml:space="preserve">
<style type="text/css">
	.st0{fill:#B4C3D3;}
	.st1{fill:#FFFFFF;}
	.st2{fill-rule:evenodd;clip-rule:evenodd;fill:#B4C3D3;}
	.st3{fill:none;}
</style>
<g>
	<path class="st2" d="M10.5,10.3H8.2h-1L9.5,8h1.1V10.3L10.5,10.3z M15.3,10.3L15.3,10.3h-3.6V8h1.1L15.3,10.3L15.3,10.3z M2.2,12.1
		c0,1,0.7,2.8,1.7,3.2L4,15c0-1.2,1.1-1.9,2.3-1.9c0.8,0,1.5,0.1,1.9,0.5v0.3h0.2c0.1,0.2,0.2,0.4,0.2,0.8c0,0.1,0,0.3,0,0.4h6.4
		c0-0.1,0-0.3,0-0.4c0-0.3,0.1-0.6,0.2-0.8h0.2v-0.3c0.4-0.4,1.1-0.5,1.9-0.5c1.2,0,2.3,1,2.3,2.2c0,0.1,0,0.3,0,0.4
		c1-0.2,1.8-2.2,1.8-3.2c0-1.1-1.1-2.2-2.3-2.2h-1.2L14,6.8h-1.9h-0.9H8.6l-3.3,3.6H4C3.1,10.3,2.2,11.2,2.2,12.1L2.2,12.1z
		 M15.7,15.6c0,0.7,0.6,1.3,1.4,1.3c0.8,0,1.4-0.6,1.4-1.3c0-0.7-0.6-1.3-1.4-1.3C16.3,14.3,15.7,14.9,15.7,15.6L15.7,15.6z M5,15.7
		C5,16.4,5.6,17,6.4,17s1.4-0.6,1.4-1.3c0-0.7-0.6-1.3-1.4-1.3S5,15,5,15.7L5,15.7z"/>
</g>
</svg>
