<?xml version="1.0" encoding="utf-8"?>
<!-- Generator: Adobe Illustrator 25.2.0, SVG Export Plug-In . SVG Version: 6.00 Build 0)  -->
<svg version="1.1" id="Layer_1" xmlns="http://www.w3.org/2000/svg" xmlns:xlink="http://www.w3.org/1999/xlink" x="0px" y="0px"
	 viewBox="0 0 23.5 23.5" style="enable-background:new 0 0 23.5 23.5;" xml:space="preserve">
<style type="text/css">
	.st0{fill:#B4C3D3;}
	.st1{fill:#FFFFFF;}
	.st2{fill-rule:evenodd;clip-rule:evenodd;fill:#B4C3D3;}
	.st3{fill:none;}
</style>
<path class="st2" d="M19.7,10.8c0,0-0.3,0.3-0.8,0.8c-2.1-2-5.6-5.6-6.7-6.7c-1.2-1.1-5-1-6.7-1c0-1.2,0.6-2,1.9-2s4.9,0,5.9,0.9
	c0.9,0.9,6.4,6.4,6.4,6.4C20.2,9.6,20.2,10.3,19.7,10.8L19.7,10.8z M11.8,5.3c0.9,0.9,6.4,6.4,6.4,6.4c0.5,0.5,0.5,1.2,0,1.7
	l-5.2,5.1c-0.5,0.5-1.2,0.5-1.7,0c0,0-5.5-5.5-6.4-6.4C4,11.2,4,7.5,4.1,6.3c0-1.2,0.6-1.9,1.9-1.9C7.3,4.4,10.9,4.4,11.8,5.3
	L11.8,5.3z M5.8,7.9c0.5,0.5,1.3,0.5,1.7,0C8,7.4,8,6.6,7.5,6.1C7,5.7,6.3,5.7,5.8,6.1C5.3,6.6,5.3,7.4,5.8,7.9L5.8,7.9z"/>
</svg>
