<?xml version="1.0" encoding="utf-8"?>
<!-- Generator: Adobe Illustrator 25.2.0, SVG Export Plug-In . SVG Version: 6.00 Build 0)  -->
<svg version="1.1" id="Layer_1" xmlns="http://www.w3.org/2000/svg" xmlns:xlink="http://www.w3.org/1999/xlink" x="0px" y="0px"
	 viewBox="0 0 23.5 23.5" style="enable-background:new 0 0 23.5 23.5;" xml:space="preserve">
<style type="text/css">
	.st0{fill:#B4C3D3;}
	.st1{fill:#FFFFFF;}
	.st2{fill-rule:evenodd;clip-rule:evenodd;fill:#B4C3D3;}
	.st3{fill:none;}
</style>
<g>
	<path class="st0" d="M19.2,3.6c1.8,1.8,2.1,4.5,0.6,6L16.4,13c-1.5,1.5-4.2,1.2-6-0.6l0,0c-1.8-1.8-2.1-4.5-0.6-6l3.4-3.4
		C14.7,1.6,17.4,1.8,19.2,3.6L19.2,3.6z M17.5,5.4c-1.1-1.1-2.7-1.2-3.6-0.3l-2.1,2.1C10.9,8,11,9.7,12.1,10.8l0,0
		c1.1,1.1,2.7,1.2,3.6,0.3L17.8,9C18.7,8.1,18.6,6.4,17.5,5.4L17.5,5.4z"/>
	<path class="st0" d="M14.4,8.4c1.8,1.8,2.1,4.5,0.6,6l-3.4,3.4c-1.5,1.5-4.2,1.2-6-0.6l0,0c-1.8-1.8-2.1-4.5-0.6-6l3.4-3.4
		C9.9,6.3,12.6,6.6,14.4,8.4L14.4,8.4z M12.7,10.1C11.7,9,10,8.9,9.1,9.8l-2.1,2.1c-0.9,0.9-0.8,2.5,0.3,3.6l0,0
		c1.1,1.1,2.7,1.2,3.6,0.3l2.1-2.1C14,12.8,13.8,11.2,12.7,10.1L12.7,10.1z"/>
</g>
</svg>
