<?xml version="1.0" encoding="utf-8"?>
<!-- Generator: Adobe Illustrator 25.2.0, SVG Export Plug-In . SVG Version: 6.00 Build 0)  -->
<svg version="1.1" id="Layer_1" xmlns="http://www.w3.org/2000/svg" xmlns:xlink="http://www.w3.org/1999/xlink" x="0px" y="0px"
	 viewBox="0 0 23.5 23.5" style="enable-background:new 0 0 23.5 23.5;" xml:space="preserve">
<style type="text/css">
	.st0{fill:#B4C3D3;}
	.st1{fill:#FFFFFF;}
	.st2{fill-rule:evenodd;clip-rule:evenodd;fill:#B4C3D3;}
	.st3{fill:none;}
</style>
<g>
	<path class="st2" d="M11.4,18.9c-2.9,0-5.5-2.5-5.5-5.5V7.9H10c0,1.2,0.2,2,1.4,2c1.2,0,1.4-0.9,1.4-2h4.1v5.5
		C16.8,16.3,14.3,18.9,11.4,18.9L11.4,18.9z M11.9,5.5v3.2c0,0.3-0.2,0.6-0.5,0.6c-0.3,0-0.5-0.3-0.5-0.6V5.5c0-0.3,0.2-0.7,0.5-0.7
		C11.7,4.9,11.9,5.2,11.9,5.5L11.9,5.5z M12.8,5.9c0-1.2-0.2-1.7-1.4-1.7c-1.2,0-1.4,0.5-1.4,1.7v1.4H5.9c0-2.9,2.5-5.5,5.5-5.5
		c2.9,0,5.5,2.5,5.5,5.5h-4.1V5.9L12.8,5.9z"/>
</g>
</svg>
