<?xml version="1.0" encoding="utf-8"?>
<!-- Generator: Adobe Illustrator 25.2.0, SVG Export Plug-In . SVG Version: 6.00 Build 0)  -->
<svg version="1.1" id="Layer_1" xmlns="http://www.w3.org/2000/svg" xmlns:xlink="http://www.w3.org/1999/xlink" x="0px" y="0px"
	 viewBox="0 0 23.5 23.5" style="enable-background:new 0 0 23.5 23.5;" xml:space="preserve">
<style type="text/css">
	.st0{fill:#B4C3D3;}
	.st1{fill:#FFFFFF;}
	.st2{fill-rule:evenodd;clip-rule:evenodd;fill:#B4C3D3;}
	.st3{fill:none;}
</style>
<g>
	<path class="st0" d="M15.2,14.5c1.2-1.2,1.9-2.8,1.9-4.6c0-3.6-2.9-6.5-6.5-6.5C6.9,3.3,4,6.2,4,9.9c0,3.6,2.9,6.5,6.5,6.5
		c0.8,0,1.6-0.2,2.4-0.4l4.4,6.1c0,0,2,0.7,2.1-1.4L15.2,14.5z M10.4,14.3C8,14.3,6,12.3,6,9.9c0-2.5,2-4.4,4.4-4.4
		c2.4,0,4.4,2,4.4,4.4C14.9,12.3,12.9,14.3,10.4,14.3z"/>
</g>
</svg>
