<?xml version="1.0" encoding="utf-8"?>
<!-- Generator: Adobe Illustrator 25.2.0, SVG Export Plug-In . SVG Version: 6.00 Build 0)  -->
<svg version="1.1" id="Layer_1" xmlns="http://www.w3.org/2000/svg" xmlns:xlink="http://www.w3.org/1999/xlink" x="0px" y="0px"
	 viewBox="0 0 23.5 23.5" style="enable-background:new 0 0 23.5 23.5;" xml:space="preserve">
<style type="text/css">
	.st0{fill:#B4C3D3;}
	.st1{fill:#FFFFFF;}
	.st2{fill-rule:evenodd;clip-rule:evenodd;fill:#B4C3D3;}
	.st3{fill:none;}
</style>
<g>
	<path class="st2" d="M17.6,8c0-0.7,0.5-1.2,1.2-1.2C19.5,6.8,20,7.4,20,8c0,0.7-0.5,1.2-1.2,1.2C18.2,9.2,17.6,8.7,17.6,8L17.6,8z
		 M19.9,5.6h-4.7c0-1.1-0.6-1.2-1.4-1.2H9.5c-0.8,0-1.4,0.1-1.4,1.2H3.5c-0.8,0-1.3,0.4-1.3,1.2v11.6c0,0.8,0.5,1.4,1.3,1.4h16.4
		c0.8,0,1.3-0.6,1.3-1.4V6.9C21.2,6.1,20.7,5.6,19.9,5.6L19.9,5.6z M11.9,9.2c1.9,0,3.4,1.7,3.4,3.6c0,1.9-1.7,3.5-3.6,3.5
		c-1.9,0-3.6-1.6-3.6-3.5C8.1,10.8,10,9.2,11.9,9.2L11.9,9.2z"/>
</g>
</svg>
