<?xml version="1.0" encoding="utf-8"?>
<!-- Generator: Adobe Illustrator 25.2.0, SVG Export Plug-In . SVG Version: 6.00 Build 0)  -->
<svg version="1.1" id="Layer_1" xmlns="http://www.w3.org/2000/svg" xmlns:xlink="http://www.w3.org/1999/xlink" x="0px" y="0px"
	 viewBox="0 0 23.5 23.5" style="enable-background:new 0 0 23.5 23.5;" xml:space="preserve">
<style type="text/css">
	.st0{fill:#B4C3D3;}
	.st1{fill:#FFFFFF;}
	.st2{fill-rule:evenodd;clip-rule:evenodd;fill:#B4C3D3;}
	.st3{fill:none;}
</style>
<g>
	<path class="st2" d="M9.9,11.8V10l1.5-1.5h1.8l1.5,1.5v1.8l-1.5,1.5h-1.8L9.9,11.8L9.9,11.8z M5.3,12.1c0.2,0.9,0.7,1.9,1.4,2.7
		l-0.2,0.2L5,16.6l1.6,1.6l1.6-1.6l0.2-0.2c0.8,0.7,1.8,1.2,2.7,1.4V18v2.4h2.4V18v-0.2c0.9-0.2,1.9-0.7,2.7-1.4l1,1l0.8,0.8
		l1.6-1.6l-0.8-0.8l-1-1c0.7-0.9,1.2-1.8,1.4-2.7h1.3h1.2V9.7h-1.2h-1.3c-0.2-0.9-0.7-1.9-1.4-2.7L18,6.8l1.6-1.6L18,3.5l-1.6,1.6
		l-0.2,0.2c-0.8-0.7-1.8-1.2-2.7-1.4V3.7V1.4h-2.4v2.4v0.2c-0.9,0.2-1.9,0.7-2.7,1.4L6.6,3.5L5,5.2l1.8,1.8C6.1,7.8,5.6,8.7,5.3,9.7
		H2.8v2.4H5.3L5.3,12.1z"/>
</g>
</svg>
