<?xml version="1.0" encoding="utf-8"?>
<!-- Generator: Adobe Illustrator 25.2.0, SVG Export Plug-In . SVG Version: 6.00 Build 0)  -->
<svg version="1.1" id="Layer_1" xmlns="http://www.w3.org/2000/svg" xmlns:xlink="http://www.w3.org/1999/xlink" x="0px" y="0px"
	 viewBox="0 0 23.5 23.5" style="enable-background:new 0 0 23.5 23.5;" xml:space="preserve">
<style type="text/css">
	.st0{fill:#B4C3D3;}
	.st1{fill:#FFFFFF;}
	.st2{fill-rule:evenodd;clip-rule:evenodd;fill:#B4C3D3;}
	.st3{fill:none;}
</style>
<g>
	<path class="st2" d="M19.3,19.1c-3,0-12.3,0-15.2,0c-0.6,0-0.9-0.4-0.9-1c0-1.3,0-3.8,0-6.2c2.7,0.7,4.9,1.2,7,1.3c0,0.3,0,1,0,1.4
		c0,0.1,0.1,0.2,0.2,0.2c0.5,0,2,0,2.5,0c0.1,0,0.2-0.1,0.2-0.2c0-0.4,0-1.2,0-1.4c2.1-0.1,4.3-0.6,7-1.3c0,2.4,0,4.9,0,6.2
		C20.2,18.7,19.8,19.1,19.3,19.1L19.3,19.1z M12.3,13.2c0.2,0,0.4,0,0.4,0.2V14c0,0.2-0.2,0.3-0.4,0.3h-1.2c-0.2,0-0.4-0.1-0.4-0.3
		v-0.6c0-0.2,0.2-0.2,0.4-0.2H12.3L12.3,13.2z M3.2,11.2c0-1.3,0-3.3,0-3.3c0-0.5,0.4-1,0.9-1h5.2V6.4c0-0.7,0.6-1.3,1.3-1.3h2.3
		c0.7,0,1.3,0.6,1.3,1.3v0.5h5.2c0.5,0,0.9,0.5,0.9,1c0,0,0,2,0,3.3C13.4,13,9.7,13,3.2,11.2L3.2,11.2z M13.3,6.7
		c0-0.5-0.4-0.9-0.9-0.9h-1.5c-0.5,0-0.9,0.4-0.9,0.9v0.2h3.2V6.7L13.3,6.7z"/>
</g>
</svg>
