<?xml version="1.0" encoding="utf-8"?>
<!-- Generator: Adobe Illustrator 25.2.0, SVG Export Plug-In . SVG Version: 6.00 Build 0)  -->
<svg version="1.1" id="Layer_1" xmlns="http://www.w3.org/2000/svg" xmlns:xlink="http://www.w3.org/1999/xlink" x="0px" y="0px"
	 viewBox="0 0 23.5 23.5" style="enable-background:new 0 0 23.5 23.5;" xml:space="preserve">
<style type="text/css">
	.st0{fill:#B4C3D3;}
	.st1{fill:#FFFFFF;}
	.st2{fill-rule:evenodd;clip-rule:evenodd;fill:#B4C3D3;}
	.st3{fill:none;}
</style>
<g>
	<path class="st2" d="M19.6,20.2H5.5c-0.6,0-1.1-0.5-1.1-1.1V4.3c0-0.6,0.5-1.1,1.1-1.1h1.3c0,0,0,4.1,0,5.6c0,0.4,0.2,0.6,0.5,0.6
		c1.5,0,6.2,0,7.9,0C15.5,9.3,16,9,16,8.7c0-1.5,0-5.5,0-5.5h1.4l3.4,3.6v12.3C20.7,19.8,20.2,20.2,19.6,20.2L19.6,20.2z M18.6,11.6
		c0-0.3-0.2-0.6-0.5-0.6H7.4c-0.3,0-0.5,0.3-0.5,0.6V18c0,0.3,0.2,0.6,0.5,0.6H18c0.3,0,0.5-0.3,0.5-0.6V11.6L18.6,11.6z M16.6,17.2
		H8.5c-0.3,0-0.6-0.2-0.6-0.6c0-0.3,0.2-0.6,0.6-0.6h8.1c0.3,0,0.6,0.2,0.6,0.6C17.2,16.9,16.9,17.2,16.6,17.2L16.6,17.2z
		 M16.6,14.4H8.5c-0.3,0-0.6-0.2-0.6-0.6c0-0.3,0.2-0.6,0.6-0.6h8.1c0.3,0,0.6,0.2,0.6,0.6C17.2,14.1,16.9,14.4,16.6,14.4L16.6,14.4
		z M13.8,8.5h-2.5c-0.3,0-0.6-0.2-0.6-0.6V4.3c0-0.3,0.2-0.6,0.6-0.6h2.5c0.3,0,0.6,0.3,0.6,0.6V8C14.4,8.3,14.1,8.5,13.8,8.5
		L13.8,8.5z"/>
</g>
</svg>
