<?xml version="1.0" encoding="utf-8"?>
<!-- Generator: Adobe Illustrator 25.2.0, SVG Export Plug-In . SVG Version: 6.00 Build 0)  -->
<svg version="1.1" id="Layer_1" xmlns="http://www.w3.org/2000/svg" xmlns:xlink="http://www.w3.org/1999/xlink" x="0px" y="0px"
	 viewBox="0 0 23.5 23.5" style="enable-background:new 0 0 23.5 23.5;" xml:space="preserve">
<style type="text/css">
	.st0{fill:#B4C3D3;}
	.st1{fill:#FFFFFF;}
	.st2{fill-rule:evenodd;clip-rule:evenodd;fill:#B4C3D3;}
	.st3{fill:none;}
</style>
<path class="st2" d="M19.8,16.2h-2.9v2.9c0,0.3-0.2,0.5-0.5,0.5h-1c-0.3,0-0.5-0.2-0.5-0.5v-2.9H12c-0.3,0-0.5-0.2-0.5-0.5v-1
	c0-0.3,0.2-0.5,0.5-0.5h2.9v-2.9c0-0.3,0.2-0.5,0.5-0.5h1c0.3,0,0.5,0.2,0.5,0.5v2.9h2.9c0.3,0,0.5,0.2,0.5,0.5v1
	C20.3,16,20.1,16.2,19.8,16.2L19.8,16.2z M17.5,13.6c0,0,0-1.7,0-2.5c0-0.7-0.2-0.9-1-0.9c-0.2,0-0.7,0-1.2,0c-0.1,0-1-0.1-1,0.9
	c0,0.5,0,2.5,0,2.5h-2.5c0,0-1,0.1-1,1c0,0.3,0,0.4,0,1.1c0,0.7,0.3,1,1,1c0.7,0,2.5,0,2.5,0L13.1,18c-0.5,0.5-1.3,0.5-1.8,0
	c0,0-6-6-7-7c-1-1-1-5.1-1-6.4c0-1.3,0.6-2.1,2.1-2.1c1.5,0,5.4,0,6.4,1c1,1,7,7,7,7c0.5,0.5,0.5,1.3,0,1.8L17.5,13.6L17.5,13.6z
	 M7,4.4c-0.5-0.5-1.4-0.5-1.9,0c-0.5,0.5-0.5,1.4,0,1.9c0.5,0.5,1.4,0.5,1.9,0C7.6,5.8,7.6,4.9,7,4.4L7,4.4z"/>
</svg>
