<?xml version="1.0" encoding="utf-8"?>
<!-- Generator: Adobe Illustrator 25.2.0, SVG Export Plug-In . SVG Version: 6.00 Build 0)  -->
<svg version="1.1" id="Layer_1" xmlns="http://www.w3.org/2000/svg" xmlns:xlink="http://www.w3.org/1999/xlink" x="0px" y="0px"
	 viewBox="0 0 23.5 23.5" style="enable-background:new 0 0 23.5 23.5;" xml:space="preserve">
<style type="text/css">
	.st0{fill:#B4C3D3;}
	.st1{fill:#FFFFFF;}
	.st2{fill-rule:evenodd;clip-rule:evenodd;fill:#B4C3D3;}
	.st3{fill:none;}
</style>
<g>
	<path class="st0" d="M17,9.6h-0.3V6.2c0-0.1,0-0.3-0.1-0.4c-0.8-3.7-4.9-3.7-4.9-3.7c-3.9,0-4.8,3-5,4c0,0.1,0,0.2,0,0.3v3.2H6.5
		c-1.2,0-2.1,1-2.1,2.1v6.9c0,1.2,1,2.1,2.1,2.1H17c1.2,0,2.1-1,2.1-2.1v-6.9C19.1,10.6,18.1,9.6,17,9.6z M8.8,6.3L8.8,6.3
		c1-2.1,2.7-2,2.7-2c2.3,0,2.8,1.9,2.8,1.9v3.4H8.9V6.4C8.9,6.4,8.9,6.3,8.8,6.3z M10.8,18.1C10.8,18.1,10.8,18.1,10.8,18.1
		C10.8,18.1,10.8,18.1,10.8,18.1z M12.5,18.1C12.5,18.1,12.5,18.1,12.5,18.1C12.5,18.1,12.5,18.1,12.5,18.1z M12.6,16.4l0,1.4
		c0,0.1,0,0.1,0,0.2c-0.2,0.5-0.7,0.6-0.9,0.6c0,0,0,0,0,0c-0.5-0.1-0.7-0.4-0.8-0.5c0-0.1-0.1-0.2-0.1-0.3l0-1.5
		c-0.8-0.3-1.3-1.2-1.3-2c0-1.1,1-2,2.3-2c1.3,0,2.3,0.9,2.3,2C14,15.2,13.5,16.1,12.6,16.4z"/>
</g>
</svg>
