<?xml version="1.0" encoding="utf-8"?>
<!-- Generator: Adobe Illustrator 25.2.0, SVG Export Plug-In . SVG Version: 6.00 Build 0)  -->
<svg version="1.1" id="Layer_1" xmlns="http://www.w3.org/2000/svg" xmlns:xlink="http://www.w3.org/1999/xlink" x="0px" y="0px"
	 viewBox="0 0 23.5 23.5" style="enable-background:new 0 0 23.5 23.5;" xml:space="preserve">
<style type="text/css">
	.st0{fill:#B4C3D3;}
	.st1{fill:#FFFFFF;}
	.st2{fill-rule:evenodd;clip-rule:evenodd;fill:#B4C3D3;}
	.st3{fill:none;}
</style>
<g>
	<path class="st2" d="M4.3,17.9c-1.3-1.3-1.3-3.5,0-4.8c1-1,2.6-1.3,3.8-0.7L18.3,2.2c0.4-0.4,1-0.4,1.3,0L20,2.6
		c0.4,0.4,0.4,1,0,1.3L9.8,14.2c0.5,1.2,0.3,2.7-0.7,3.7C7.7,19.3,5.6,19.3,4.3,17.9L4.3,17.9z M9,14.2L19.3,3.8
		c0.4-0.4,0.3-0.7,0.2-0.8l-0.2-0.2c-0.2-0.2-0.5-0.2-0.8,0.2L8.1,13.3c-1-0.7-2.4-0.5-3.3,0.4c-1,1.1-1.1,2.8,0,3.8
		c1,1,2.7,1,3.8,0C9.4,16.6,9.6,15.2,9,14.2L9,14.2z M5,17.2c-0.9-0.9-0.9-2.3,0-3.2c0.8-0.8,2.2-0.8,3.1-0.1l7.7-7.7l0.4,0.3
		l-7.7,7.7c0.6,0.9,0.6,2.2-0.2,3C7.4,18,5.9,18,5,17.2L5,17.2z"/>
</g>
</svg>
