<?xml version="1.0" encoding="utf-8"?>
<!-- Generator: Adobe Illustrator 25.2.0, SVG Export Plug-In . SVG Version: 6.00 Build 0)  -->
<svg version="1.1" id="Layer_1" xmlns="http://www.w3.org/2000/svg" xmlns:xlink="http://www.w3.org/1999/xlink" x="0px" y="0px"
	 viewBox="0 0 23.5 23.5" style="enable-background:new 0 0 23.5 23.5;" xml:space="preserve">
<style type="text/css">
	.st0{fill:#B4C3D3;}
	.st1{fill:#FFFFFF;}
	.st2{fill-rule:evenodd;clip-rule:evenodd;fill:#B4C3D3;}
	.st3{fill:none;}
</style>
<g>
	<g>
		<path class="st0" d="M20.2,11.3c0,4.9-3.9,8.8-8.8,8.8c-4.9,0-8.8-3.9-8.8-8.8c0-4.9,3.9-8.8,8.8-8.8C16.3,2.5,20.2,6.5,20.2,11.3
			z M5.9,9.3V14h2.4l3.4,2.7V6.4L8.3,9.3L5.9,9.3z M12.8,9.5c0,0,1.9,2.2,0.1,4.1c0,0-0.4,0.4,0,0.8c0.3,0.3,0.7,0.1,0.9-0.2
			c0.1-0.2,2.1-2.6-0.1-5.2c0,0-0.3-0.6-0.8-0.2C12.5,9.1,12.8,9.5,12.8,9.5z M14.9,8.4c0,0,2.2,3.5,0.1,6.5c0,0-0.4,0.3-0.1,0.8
			c0.3,0.4,0.9,0.1,1.1-0.3c0.1-0.4,2.2-3.9-0.1-7.6c0,0-0.4-0.9-0.9-0.3C14.6,8,14.9,8.4,14.9,8.4z"/>
	</g>
</g>
</svg>
