<?xml version="1.0" encoding="utf-8"?>
<!-- Generator: Adobe Illustrator 25.2.0, SVG Export Plug-In . SVG Version: 6.00 Build 0)  -->
<svg version="1.1" id="Layer_1" xmlns="http://www.w3.org/2000/svg" xmlns:xlink="http://www.w3.org/1999/xlink" x="0px" y="0px"
	 viewBox="0 0 23.5 23.5" style="enable-background:new 0 0 23.5 23.5;" xml:space="preserve">
<style type="text/css">
	.st0{fill:#B4C3D3;}
	.st1{fill:#FFFFFF;}
	.st2{fill-rule:evenodd;clip-rule:evenodd;fill:#B4C3D3;}
	.st3{fill:none;}
</style>
<g>
	<path class="st0" d="M7.4,4.7v1.6c0,0,10.6-1.5,9.2,2.1C15.8,10.6,9,10,9,10S7.9,9.7,9.3,9.4c0.7-0.1,1.5-0.1,2.3-0.1
		c1.5,0,3,0,3,0s1.1-0.3,1.6-0.8c0,0-0.5-0.5-2.2-0.7c-3.2-0.4-7.7-0.3-8.1,1.8c-0.2,1.3,1.8,1.5,1.8,1.5s1,0.4,4.3,0.3
		c3.3-0.1,4-0.7,4-0.7s0.3-0.3,0.8,0c0.5,0.3,1.4,2.6-6.5,2.6c0,0-0.6,0-1.1-0.1c-0.7-0.1-0.9-0.5,0.8-0.5h4.5c0,0,1.7-0.5,1.9-0.9
		c0,0-0.7-0.8-1.5-0.6c0,0-0.2,0.4-0.4,0.4c-0.2,0-5.2,0.1-5.5,0c-0.3-0.1-0.6-0.3-0.6-0.3s-2.4,0.2-2.4,1c0,0.8-0.2,2,2.2,2.2
		c2.4,0.2,7.1,0.2,7.9-0.4c0.8-0.6,0.8,0.2,0.8,0.2s0.5,1.2-2,2C12.4,17,9.2,17,8.9,16.3c0,0-0.4-0.4,1.6-0.4c2,0,3.8,0.1,3.8,0.1
		s1.5-0.6,1.8-0.9c0.3-0.3-1.3-0.5-1.6-0.5c-0.4,0,0,0.7-4.8,0.2l-1.2-0.3c0,0-3.3,0.3-2.6,1.8c0.7,1.5,2.6,1.6,3.9,1.6
		s4.1,0.2,6.2-0.5c0,0,0.5-0.6,1,0c0.6,0.6-0.4,1.5-2,2c-1,0.3-3.6,0.7-6.3,0.3c0,0-0.5-0.2,0.1-0.5c0.7-0.3,6,0,6,0
		s1.4-0.6,1.4-0.9c0-0.4-1.6-0.3-1.9-0.3c-0.3,0-0.4,0.4-0.6,0.4c-0.2,0-4.3-0.1-4.8-0.1c0,0-0.4,0-0.4-0.2c0,0-2.6-0.5-2.7,1.4
		c-0.1,1.9,4.4,2,4.4,2s4.2,0.2,5.4-0.6c0,0,0.7-0.5,1-0.2v1.1h2v-1.3c0,0,0-0.4-0.8-0.8c0,0-0.2-0.2,0.2-0.4
		c0.4-0.2,1.5-1.8-0.2-2.9c0,0-0.2-0.2,0.1-0.3c0.3-0.1,1.5-1.7,0.2-2.9c0,0-0.5-0.1-0.1-0.5c0.3-0.3,1.4-1.7,0-3
		C17.6,9.6,18,9.3,18,9.3s1.2-1.4,0.1-2.8C17,5.1,15,3.3,7.4,4.7z"/>
</g>
</svg>
