<?xml version="1.0" encoding="utf-8"?>
<!-- Generator: Adobe Illustrator 25.2.0, SVG Export Plug-In . SVG Version: 6.00 Build 0)  -->
<svg version="1.1" id="Layer_1" xmlns="http://www.w3.org/2000/svg" xmlns:xlink="http://www.w3.org/1999/xlink" x="0px" y="0px"
	 viewBox="0 0 23.5 23.5" style="enable-background:new 0 0 23.5 23.5;" xml:space="preserve">
<style type="text/css">
	.st0{fill:#B4C3D3;}
	.st1{fill:#FFFFFF;}
	.st2{fill-rule:evenodd;clip-rule:evenodd;fill:#B4C3D3;}
	.st3{fill:none;}
</style>
<path class="st2" d="M5.3,5V3.8h14.2V5H5.3L5.3,5z M5.3,18V6.2h14.2V18H5.3L5.3,18z M4.1,3.8V5v1.2V18l1.2,1.2h14.2l1.2-1.2V6.2V5
	V3.8l-1.2-1.2H5.3L4.1,3.8L4.1,3.8z M12.4,13.3h2.4L16,9.7h1.2v5.9h-4.7V13.3L12.4,13.3z M7.7,8.5h5.9v3.6H7.7V8.5L7.7,8.5z
	 M6.5,7.3v1.2v3.6v1.2h1.2h3.6v2.4v1.2h5.9h1.2v-1.2V9.7V8.5h-1.2h-2.4V7.3H7.7H6.5L6.5,7.3z"/>
</svg>
