<?xml version="1.0" encoding="utf-8"?>
<!-- Generator: Adobe Illustrator 25.2.0, SVG Export Plug-In . SVG Version: 6.00 Build 0)  -->
<svg version="1.1" id="Layer_1" xmlns="http://www.w3.org/2000/svg" xmlns:xlink="http://www.w3.org/1999/xlink" x="0px" y="0px"
	 viewBox="0 0 23.5 23.5" style="enable-background:new 0 0 23.5 23.5;" xml:space="preserve">
<style type="text/css">
	.st0{fill:#B4C3D3;}
	.st1{fill:#FFFFFF;}
	.st2{fill-rule:evenodd;clip-rule:evenodd;fill:#B4C3D3;}
	.st3{fill:none;}
</style>
<g>
	<g>
		<path class="st0" d="M3.8,4.1c0,0-2.8,0-3,3c0,0,0,2.7,3.1,2.8c0,0,2.8,0.1,3-2.9C7,7.1,7,4.4,3.8,4.1z M6.2,7.1
			C6,9.3,3.9,9.3,3.9,9.3C1.6,9.1,1.6,7.1,1.6,7.1c0.2-2.3,2.2-2.3,2.2-2.3C6.2,5.1,6.2,7.1,6.2,7.1z"/>
		<path class="st0" d="M4,10.8L4,10.8L4,10.8c-3.1-0.2-3.9-2.4-3.9-3.6c0.2-3,2.6-3.8,3.8-3.8C7,3.6,7.8,5.9,7.7,7.1
			C7.5,10,5.3,10.8,4,10.8z M3.8,5.7c-0.3,0-1.3,0.2-1.5,1.5c0,0.2,0.2,1.2,1.6,1.3c0.3,0,1.3-0.1,1.4-1.5C5.4,6.8,5.3,5.8,3.8,5.7z
			"/>
	</g>
	<g>
		<path class="st0" d="M22,17.7c0,0.2,0,0.4,0,0.5c0,0.1,0,0.3-0.1,0.4c0,0.1-0.1,0.2-0.1,0.3c0,0.1-0.1,0.2-0.2,0.3
			c-0.1,0.1-0.3,0.2-0.5,0.4c-0.3,0.1-0.6,0.3-1,0.4c-0.4,0.1-0.8,0.3-1.3,0.3c-0.5,0.1-1,0.1-1.6,0.1c-1.1,0-2.1-0.2-3-0.5
			c-0.9-0.3-1.6-0.9-2.3-1.5c-0.6-0.7-1.1-1.5-1.4-2.5c-0.3-1-0.5-2.2-0.5-3.5c0-1.4,0.2-2.6,0.5-3.7c0.4-1.1,0.9-2,1.5-2.7
			c0.7-0.7,1.4-1.3,2.4-1.6c0.9-0.4,1.9-0.6,3-0.6c0.4,0,0.9,0,1.3,0.1C19.3,3.9,19.7,4,20,4.2c0.4,0.1,0.7,0.3,1,0.4
			c0.3,0.2,0.5,0.3,0.6,0.4c0.1,0.1,0.2,0.2,0.2,0.3c0,0.1,0.1,0.2,0.1,0.3c0,0.1,0,0.3,0.1,0.4c0,0.2,0,0.4,0,0.6
			c0,0.2,0,0.5,0,0.6c0,0.2,0,0.3-0.1,0.4c0,0.1-0.1,0.2-0.1,0.2c-0.1,0.1-0.1,0.1-0.2,0.1c-0.1,0-0.3-0.1-0.5-0.2
			c-0.2-0.1-0.4-0.3-0.7-0.5C20,7,19.6,6.9,19.2,6.7c-0.4-0.1-0.9-0.2-1.5-0.2c-0.6,0-1.2,0.1-1.7,0.4C15.5,7.2,15,7.5,14.7,8
			c-0.4,0.5-0.6,1.1-0.8,1.8c-0.2,0.7-0.3,1.5-0.3,2.3c0,0.9,0.1,1.8,0.3,2.5c0.2,0.7,0.5,1.3,0.8,1.7c0.4,0.5,0.8,0.8,1.3,1
			c0.5,0.2,1.1,0.3,1.7,0.3c0.6,0,1.1-0.1,1.5-0.2c0.4-0.1,0.8-0.3,1.1-0.5c0.3-0.2,0.6-0.3,0.7-0.4c0.2-0.1,0.3-0.2,0.5-0.2
			c0.1,0,0.2,0,0.2,0.1c0.1,0,0.1,0.1,0.1,0.2c0,0.1,0.1,0.2,0.1,0.4C22,17.2,22,17.4,22,17.7z"/>
	</g>
</g>
</svg>
