<?xml version="1.0" encoding="utf-8"?>
<!-- Generator: Adobe Illustrator 25.2.0, SVG Export Plug-In . SVG Version: 6.00 Build 0)  -->
<svg version="1.1" id="Layer_1" xmlns="http://www.w3.org/2000/svg" xmlns:xlink="http://www.w3.org/1999/xlink" x="0px" y="0px"
	 viewBox="0 0 23.5 23.5" style="enable-background:new 0 0 23.5 23.5;" xml:space="preserve">
<style type="text/css">
	.st0{fill:#B4C3D3;}
	.st1{fill:#FFFFFF;}
	.st2{fill-rule:evenodd;clip-rule:evenodd;fill:#B4C3D3;}
	.st3{fill:none;}
</style>
<path class="st2" d="M3,15.6c2.7-7.4,10.4-7.3,10.4-7.3s-0.1-0.7-0.1-1.8c0-1.2,0.4-1.2,1.3-0.6c2,1.6,5.3,4.8,5.3,4.8s-3.2,3.2-5,5
	c-0.9,0.9-1.5,1.2-1.5-0.4c-0.1-1.2,0-2.2,0-2.2s-4.7-0.8-8,1.7c-2,1.3-2.2,1.8-2.4,1.9C3,16.7,2.7,16.5,3,15.6L3,15.6z"/>
</svg>
