<?xml version="1.0" encoding="utf-8"?>
<!-- Generator: Adobe Illustrator 25.2.0, SVG Export Plug-In . SVG Version: 6.00 Build 0)  -->
<svg version="1.1" id="Layer_1" xmlns="http://www.w3.org/2000/svg" xmlns:xlink="http://www.w3.org/1999/xlink" x="0px" y="0px"
	 viewBox="0 0 23.5 23.5" style="enable-background:new 0 0 23.5 23.5;" xml:space="preserve">
<style type="text/css">
	.st0{fill:#B4C3D3;}
	.st1{fill:#FFFFFF;}
	.st2{fill-rule:evenodd;clip-rule:evenodd;fill:#B4C3D3;}
	.st3{fill:none;}
</style>
<g>
	<path class="st2" d="M11.3,4.7c-0.6,0-0.1,0.2-0.4,0.2c-0.3,0.1,0.4,0-0.6,0.1C9.4,5.2,9.2,6.5,9.1,7c0,0.5-0.1,0.6,0,1.3
		c0.1,0.4-0.4,0.4-0.4,0.4C8.1,8.7,8,10.6,8,10.6c0.1,0.5,0,0.7,0.9,1c0.4,1.2,1.5,1.8,1.5,1.8s0.1,0.8,0.1,1.3
		c-0.1,0-0.2,1.4-2.9,1.8c-2.8,0.4-3.3,1.3-3.8,1.8c-0.5,0.5-0.4,2.8-0.4,2.8h17.7c0,0-0.1-2.3-0.6-2.8c-0.5-0.5-1.1-1.4-3.8-1.8
		c-2.8-0.4-2.6-1.8-2.6-1.9c0-0.2,0.1-1.1,0.1-1.1s0.9-0.7,1.3-1.9c0.7-0.4,0.9-0.5,1-1c0,0,0.3-1.8-0.4-1.8c0,0-0.8,0-0.7-0.4
		c0.1-0.4,0.1-0.6,0-1.1c0-0.5,0.2-1.8-0.8-2c-0.7-0.1-0.5,0.1-0.8,0c-0.3,0-0.7-0.9-1.3-0.9L11.3,4.7L11.3,4.7z"/>
</g>
</svg>
