<?xml version="1.0" encoding="utf-8"?>
<!-- Generator: Adobe Illustrator 25.2.0, SVG Export Plug-In . SVG Version: 6.00 Build 0)  -->
<svg version="1.1" id="Layer_1" xmlns="http://www.w3.org/2000/svg" xmlns:xlink="http://www.w3.org/1999/xlink" x="0px" y="0px"
	 viewBox="0 0 23.5 23.5" style="enable-background:new 0 0 23.5 23.5;" xml:space="preserve">
<style type="text/css">
	.st0{fill:#B4C3D3;}
	.st1{fill:#FFFFFF;}
	.st2{fill-rule:evenodd;clip-rule:evenodd;fill:#B4C3D3;}
	.st3{fill:none;}
</style>
<g>
	<path class="st2" d="M16.8,16.6L16.8,16.6c0,0-1.9,0-3.5,0c-0.3,0-0.5-0.2-0.5-0.5c0-0.8,0-2.2,0-2.2s0.8,0,1.4,0
		c0.4,0,0.5-0.3,0.3-0.6c-0.6-0.8-1.6-2.3-2.2-3.2c-0.3-0.5-0.7-0.4-1,0c-0.6,0.9-1.6,2.3-2.2,3.1c-0.3,0.4-0.3,0.7,0.2,0.7
		c0.6,0,1.4,0,1.4,0s0,1.5,0,2.2c0,0.3-0.2,0.5-0.6,0.5c-1.5,0-2.9,0-2.9,0v0c-2.2-0.2-3.9-2-3.9-4.2c0-2.3,1.9-4.2,4.3-4.2
		c0.3,0,0.7,0,1,0.1C9.2,6.9,10.6,6,12.2,6c2.1,0,3.9,1.6,4.2,3.6c0.1,0,0.2,0,0.3,0c1.9,0,3.5,1.6,3.5,3.5
		C20.2,15,18.7,16.5,16.8,16.6L16.8,16.6z"/>
</g>
</svg>
