<?xml version="1.0" encoding="utf-8"?>
<!-- Generator: Adobe Illustrator 25.2.0, SVG Export Plug-In . SVG Version: 6.00 Build 0)  -->
<svg version="1.1" id="Layer_1" xmlns="http://www.w3.org/2000/svg" xmlns:xlink="http://www.w3.org/1999/xlink" x="0px" y="0px"
	 viewBox="0 0 23.5 23.5" style="enable-background:new 0 0 23.5 23.5;" xml:space="preserve">
<style type="text/css">
	.st0{fill:#B4C3D3;}
	.st1{fill:#FFFFFF;}
	.st2{fill-rule:evenodd;clip-rule:evenodd;fill:#B4C3D3;}
	.st3{fill:none;}
</style>
<g>
	<path class="st0" d="M17.1,21.4h-3.4v-4.6H9.1v4.6H5.6c-0.6,0-1.1-0.5-1.1-1.1v-6.8l6.9-6.9l6.9,6.9v6.8
		C18.3,20.9,17.8,21.4,17.1,21.4L17.1,21.4z M19.4,13.3l-8-8l-8,8l-1.2-1.1c0-0.3,0.1-0.6,0.3-0.8l8.1-8.1c0.4-0.5,1.2-0.5,1.6,0
		l8.1,8.1c0.2,0.2,0.3,0.5,0.3,0.8L19.4,13.3L19.4,13.3z M13.9,5.3h3.2v3.2L13.9,5.3L13.9,5.3z"/>
</g>
</svg>
