<?xml version="1.0" encoding="utf-8"?>
<!-- Generator: Adobe Illustrator 25.2.0, SVG Export Plug-In . SVG Version: 6.00 Build 0)  -->
<svg version="1.1" id="Layer_1" xmlns="http://www.w3.org/2000/svg" xmlns:xlink="http://www.w3.org/1999/xlink" x="0px" y="0px"
	 viewBox="0 0 23.5 23.5" style="enable-background:new 0 0 23.5 23.5;" xml:space="preserve">
<style type="text/css">
	.st0{fill:#B4C3D3;}
	.st1{fill:#FFFFFF;}
	.st2{fill-rule:evenodd;clip-rule:evenodd;fill:#B4C3D3;}
	.st3{fill:none;}
</style>
<g>
	<path class="st0" d="M20.1,11.2l0-0.9c0,0-7.2-7.6-8.3-8.4c0,0-6.9,6.3-8.4,8.5c-0.2,0.3-0.2,0.6-0.2,0.8v0.1
		c0,0.4,0.3,0.7,0.7,0.7h1.7v7.8c0,0.8,0.7,1.5,1.6,1.5h8.9c0.9,0,1.6-0.7,1.6-1.5v-7.8h1.7c0.4,0,0.7-0.3,0.7-0.7L20.1,11.2
		C20.1,11.2,20.1,11.2,20.1,11.2z M14,19.3c0,0.4-0.3,0.7-0.7,0.7H9.8C9.4,20,9,19.7,9,19.3v-4.8c0-0.4,0.3-0.7,0.7-0.7h3.5
		c0.4,0,0.7,0.3,0.7,0.7V19.3z"/>
</g>
</svg>
