<?xml version="1.0" encoding="utf-8"?>
<!-- Generator: Adobe Illustrator 25.2.0, SVG Export Plug-In . SVG Version: 6.00 Build 0)  -->
<svg version="1.1" id="Layer_1" xmlns="http://www.w3.org/2000/svg" xmlns:xlink="http://www.w3.org/1999/xlink" x="0px" y="0px"
	 viewBox="0 0 23.5 23.5" style="enable-background:new 0 0 23.5 23.5;" xml:space="preserve">
<style type="text/css">
	.st0{fill:#B4C3D3;}
	.st1{fill:#FFFFFF;}
	.st2{fill-rule:evenodd;clip-rule:evenodd;fill:#B4C3D3;}
	.st3{fill:none;}
</style>
<g>
	<path class="st0" d="M19.2,21.4h-4.8l1.2-1.2h3.6v-3.6l1.2-1.2v4.8L19.2,21.4L19.2,21.4z M19.2,7V6h-3.6l-1.2,7V6H9.7v5.9L8.5,6
		H4.9v4.8l-1.2,1.2V8.4V7.2V6l1.2-1.2h14.2L20.4,6h-0.5L19.2,7L19.2,7z M19.2,10.8c-0.7,0-1.2-0.5-1.2-1.2c0-0.7,0.5-1.2,1.2-1.2
		c0.7,0,1.2,0.5,1.2,1.2C20.4,10.2,19.8,10.8,19.2,10.8L19.2,10.8z M4.9,20.3c-0.7,0-1.2-0.5-1.2-1.2c0-0.7,0.5-1.2,1.2-1.2
		c0.7,0,1.2,0.5,1.2,1.2C6.1,19.7,5.6,20.3,4.9,20.3L4.9,20.3z M11,19.1c1.5,0,8.6-6.8,8.9-6.8c-0.6,1.2-7.1,7.7-9.2,7.7
		c-0.6,0-0.3-0.3-0.9-0.3c0-0.3-0.3-0.3-0.3-0.9c0-0.9,1.5-3.3,1.5-3.9c0-0.9-0.9-1.2-1.8-1.2c-0.6,0-3.3,1.5-5,2.4
		c0.3-1.8,3.6-3,5-3c1.5,0,2.4,0.3,2.4,1.5c0,0.9-0.6,2.4-1.2,4.2C10.4,18.8,10.1,19.1,11,19.1L11,19.1z"/>
</g>
</svg>
