<?xml version="1.0" encoding="utf-8"?>
<!-- Generator: Adobe Illustrator 25.2.0, SVG Export Plug-In . SVG Version: 6.00 Build 0)  -->
<svg version="1.1" id="Layer_1" xmlns="http://www.w3.org/2000/svg" xmlns:xlink="http://www.w3.org/1999/xlink" x="0px" y="0px"
	 viewBox="0 0 23.5 23.5" style="enable-background:new 0 0 23.5 23.5;" xml:space="preserve">
<style type="text/css">
	.st0{fill:#B4C3D3;}
	.st1{fill:#FFFFFF;}
	.st2{fill-rule:evenodd;clip-rule:evenodd;fill:#B4C3D3;}
	.st3{fill:none;}
</style>
<path class="st2" d="M19.5,6.6l-5.9,5.7l5.9,5.7c0.6,0.6,0.6,1.5,0,2l-0.3,0.3c-0.6,0.6-1.5,0.6-2.1,0l-5.7-5.5l-5.7,5.5
	c-0.6,0.6-1.5,0.6-2.1,0L3.3,20c-0.6-0.6-0.6-1.5,0-2l5.9-5.7L3.3,6.6c-0.6-0.6-0.6-1.5,0-2l0.3-0.2c0.6-0.6,1.5-0.6,2.1,0l5.7,5.5
	l5.7-5.5c0.6-0.6,1.5-0.6,2.1,0l0.3,0.2C20.1,5.1,20.1,6,19.5,6.6L19.5,6.6z"/>
</svg>
