<?xml version="1.0" encoding="utf-8"?>
<!-- Generator: Adobe Illustrator 25.2.0, SVG Export Plug-In . SVG Version: 6.00 Build 0)  -->
<svg version="1.1" id="Layer_1" xmlns="http://www.w3.org/2000/svg" xmlns:xlink="http://www.w3.org/1999/xlink" x="0px" y="0px"
	 viewBox="0 0 23.5 23.5" style="enable-background:new 0 0 23.5 23.5;" xml:space="preserve">
<style type="text/css">
	.st0{fill:#B4C3D3;}
	.st1{fill:#FFFFFF;}
	.st2{fill-rule:evenodd;clip-rule:evenodd;fill:#B4C3D3;}
	.st3{fill:none;}
</style>
<g>
	<path class="st0" d="M2.5,10.7c0-0.6,0.5-1.1,1.1-1.1v2.3C3,11.9,2.5,11.3,2.5,10.7L2.5,10.7z M11.7,14.2H6c-0.6,0-1.1-0.5-1.1-1.2
		V8.4c0-0.6,0.5-1.2,1.1-1.2h5.7c0.6,0,1.1,0.5,1.1,1.2V13C12.9,13.6,12.3,14.2,11.7,14.2L11.7,14.2z M7.1,8.4H6V13h1.1V8.4L7.1,8.4
		z M9.4,8.4H8.3V13h1.1V8.4L9.4,8.4z M11.7,8.4h-1.1V13h1.1V8.4L11.7,8.4z M19.8,11.9H14V9.6h5.7c0.6,0,1.1,0.5,1.1,1.1
		C20.9,11.3,20.4,11.9,19.8,11.9L19.8,11.9z"/>
</g>
</svg>
