<?xml version="1.0" encoding="utf-8"?>
<!-- Generator: Adobe Illustrator 25.2.0, SVG Export Plug-In . SVG Version: 6.00 Build 0)  -->
<svg version="1.1" id="Layer_1" xmlns="http://www.w3.org/2000/svg" xmlns:xlink="http://www.w3.org/1999/xlink" x="0px" y="0px"
	 viewBox="0 0 23.5 23.5" style="enable-background:new 0 0 23.5 23.5;" xml:space="preserve">
<style type="text/css">
	.st0{fill:#B4C3D3;}
	.st1{fill:#FFFFFF;}
	.st2{fill-rule:evenodd;clip-rule:evenodd;fill:#B4C3D3;}
	.st3{fill:none;}
</style>
<g>
	<path class="st2" d="M19.1,16.8H3.7c-0.5,0-0.8-0.4-0.8-0.8V7.1c0-0.5,0.4-0.8,0.8-0.8h15.4c0.5,0,0.8,0.4,0.8,0.8V16
		C19.9,16.4,19.5,16.8,19.1,16.8L19.1,16.8z M18.9,7.3h-15v8.5h15V7.3L18.9,7.3z M8.3,18.6c1.5,0,1.4-1.5,1.4-1.5h1.4l0,0l2,0
		c0,0-0.1,1.5,1.3,1.5c0.4,0,0.5,0.6,0,0.6c-0.3,0-1.7,0-2.5,0c-0.4,0-0.7,0-0.7,0c-0.9,0-2.5,0-2.8,0C7.7,19.2,7.8,18.6,8.3,18.6
		L8.3,18.6z"/>
</g>
</svg>
