<?xml version="1.0" encoding="utf-8"?>
<!-- Generator: Adobe Illustrator 25.2.0, SVG Export Plug-In . SVG Version: 6.00 Build 0)  -->
<svg version="1.1" id="Layer_1" xmlns="http://www.w3.org/2000/svg" xmlns:xlink="http://www.w3.org/1999/xlink" x="0px" y="0px"
	 viewBox="0 0 23.5 23.5" style="enable-background:new 0 0 23.5 23.5;" xml:space="preserve">
<style type="text/css">
	.st0{fill:#B4C3D3;}
	.st1{fill:#FFFFFF;}
	.st2{fill-rule:evenodd;clip-rule:evenodd;fill:#B4C3D3;}
	.st3{fill:none;}
</style>
<g>
	<g>
		<path class="st0" d="M4.5,4.3c0,0-2.8,0-3,3c0,0,0,2.7,3.1,2.8c0,0,2.8,0.1,3-2.9C7.6,7.2,7.6,4.5,4.5,4.3z M6.8,7.2
			C6.6,9.5,4.5,9.4,4.5,9.4C2.2,9.3,2.2,7.3,2.2,7.3C2.4,5,4.5,5,4.5,5C6.8,5.2,6.8,7.2,6.8,7.2z"/>
		<path class="st0" d="M4.6,10.9L4.6,10.9L4.6,10.9c-3.1-0.2-3.9-2.4-3.9-3.6c0.2-3,2.6-3.8,3.8-3.8C7.6,3.7,8.4,6,8.3,7.2
			C8.1,10.1,5.9,10.9,4.6,10.9z M4.4,5.8C4.2,5.8,3.1,5.9,3,7.3c0,0.2,0.2,1.2,1.6,1.3c0.3,0,1.3-0.1,1.5-1.5C6,6.9,5.9,5.9,4.4,5.8
			z"/>
	</g>
	<g>
		<path class="st0" d="M10.7,20.8V3.7h12.2v2.9h-8.6v4h7.4v2.9h-7.4v7.3H10.7z"/>
	</g>
</g>
</svg>
