<?xml version="1.0" encoding="utf-8"?>
<!-- Generator: Adobe Illustrator 25.2.0, SVG Export Plug-In . SVG Version: 6.00 Build 0)  -->
<svg version="1.1" id="Layer_1" xmlns="http://www.w3.org/2000/svg" xmlns:xlink="http://www.w3.org/1999/xlink" x="0px" y="0px"
	 viewBox="0 0 23.5 23.5" style="enable-background:new 0 0 23.5 23.5;" xml:space="preserve">
<style type="text/css">
	.st0{fill:#B4C3D3;}
	.st1{fill:#FFFFFF;}
	.st2{fill-rule:evenodd;clip-rule:evenodd;fill:#B4C3D3;}
	.st3{fill:none;}
</style>
<g>
	<path class="st0" d="M20.8,4l0,8.4l-0.2,0l-8.1-1.9c0,0-0.7-0.4,0.3-1.3c1-0.9,2.7-2.1,2.7-2.1s-1.2-2.4-6.1-1.8
		c0,0-4.5,1.4-4.3,6.1c0,0-0.2,5.7,6.1,5.8c0,0,3,0.5,5.3-3c0,0,2.3-0.5,2,1.8c0,0-1,2.1-3.8,3.3c0,0-2.8,1.5-6.4,0.4
		c0,0-6.1-2.5-5.9-8.2c0,0-0.4-8.3,8.8-9.1c0,0,3.7-0.1,6.3,2.9l0.4,0.1l1.8-1.7C19.6,3.8,20.3,3,20.8,4z"/>
</g>
</svg>
