<?xml version="1.0" encoding="utf-8"?>
<!-- Generator: Adobe Illustrator 25.2.0, SVG Export Plug-In . SVG Version: 6.00 Build 0)  -->
<svg version="1.1" id="Layer_1" xmlns="http://www.w3.org/2000/svg" xmlns:xlink="http://www.w3.org/1999/xlink" x="0px" y="0px"
	 viewBox="0 0 23.5 23.5" style="enable-background:new 0 0 23.5 23.5;" xml:space="preserve">
<style type="text/css">
	.st0{fill:#B4C3D3;}
	.st1{fill:#FFFFFF;}
	.st2{fill-rule:evenodd;clip-rule:evenodd;fill:#B4C3D3;}
	.st3{fill:none;}
</style>
<g>
	<path class="st2" d="M8.3,3.6h8.3v14.2H8.3V3.6L8.3,3.6z M7.1,4.8V19c0,1.2,1.2,2.4,2.4,2.4h5.9c1.2,0,2.4-1.2,2.4-2.4V4.8
		c0-1.2-1.2-2.4-2.4-2.4H9.4C8.3,2.4,7.1,3.6,7.1,4.8L7.1,4.8z M11.8,19.6c0-0.3,0.3-0.6,0.6-0.6s0.6,0.3,0.6,0.6
		c0,0.3-0.3,0.6-0.6,0.6S11.8,19.9,11.8,19.6L11.8,19.6z"/>
</g>
</svg>
