<?xml version="1.0" encoding="utf-8"?>
<!-- Generator: Adobe Illustrator 25.2.0, SVG Export Plug-In . SVG Version: 6.00 Build 0)  -->
<svg version="1.1" id="Layer_1" xmlns="http://www.w3.org/2000/svg" xmlns:xlink="http://www.w3.org/1999/xlink" x="0px" y="0px"
	 viewBox="0 0 23.5 23.5" style="enable-background:new 0 0 23.5 23.5;" xml:space="preserve">
<style type="text/css">
	.st0{fill:#B4C3D3;}
	.st1{fill:#FFFFFF;}
	.st2{fill-rule:evenodd;clip-rule:evenodd;fill:#B4C3D3;}
	.st3{fill:none;}
</style>
<path class="st2" d="M19.9,11.7c-1.8,4.5-1.8,4.6-2.1,4.6c-0.9,0-5.6,0-9.3,0c-0.4,0-1.8-4.3-2.3-5.8C6.2,10.1,5.9,10,5.6,10
	c-0.4,0-0.8,0-1.2,0c-1.8,0-1.8-1.9,0-1.9c1.3,0,2.1,0,2.5,0c0.4,0,0.7,0.6,0.8,1c0.5,1.3,1.3,3.7,1.8,4.9c0.2,0.4,0.5,0.6,0.9,0.6
	c1.3,0,4.5,0,5.8,0c0.4,0,0.6-0.2,0.7-0.6c0.4-0.9,0.8-1.9,1-2.6c0.2-0.4,0.6-1.7,1.4-1.4C20.3,10.3,20.3,10.6,19.9,11.7L19.9,11.7z
	 M16.1,14.1h-5.5c-0.3,0-0.5-0.3-0.6-0.6L8.3,8.8c0-0.3,0.3-0.6,0.6-0.6h1.3V5.4c0-0.3,0.3-0.6,0.6-0.6h3c0.3,0,0.6,0.3,0.6,0.6v1.5
	h1.7c0.2,0,0.3,0.1,0.3,0.3v0.9H18c0.3,0,0.6,0.3,0.6,0.6l-1.9,4.7C16.6,13.9,16.4,14.1,16.1,14.1L16.1,14.1z M10.9,16.9
	c0.8,0,1.5,0.5,1.5,1.2c0,0.7-0.8,1.4-1.5,1.4c-0.7,0-1.5-0.7-1.5-1.4C9.4,17.3,10.1,16.9,10.9,16.9L10.9,16.9z M15.8,16.9
	c0.8,0,1.5,0.5,1.5,1.2c0,0.8-0.7,1.4-1.5,1.4c-0.8,0-1.5-0.7-1.5-1.4C14.3,17.3,15,16.9,15.8,16.9L15.8,16.9z"/>
</svg>
