<?xml version="1.0" encoding="utf-8"?>
<!-- Generator: Adobe Illustrator 25.2.0, SVG Export Plug-In . SVG Version: 6.00 Build 0)  -->
<svg version="1.1" id="Layer_1" xmlns="http://www.w3.org/2000/svg" xmlns:xlink="http://www.w3.org/1999/xlink" x="0px" y="0px"
	 viewBox="0 0 23.5 23.5" style="enable-background:new 0 0 23.5 23.5;" xml:space="preserve">
<style type="text/css">
	.st0{fill:#B4C3D3;}
	.st1{fill:#FFFFFF;}
	.st2{fill-rule:evenodd;clip-rule:evenodd;fill:#B4C3D3;}
	.st3{fill:none;}
</style>
<g>
	<path class="st2" d="M16.9,14c-3.1,0.3-3.7-0.9-5.8-0.3c-2.1,0.6-2.7,2.4-6.2,1.8c-3.5-0.7-2.7-9.7,8.5-9.7
		C23.2,5.8,20,13.7,16.9,14L16.9,14z M16,8.3c-0.8,0-1.4,0.3-1.4,0.7c0,0.4,0.6,0.7,1.4,0.7c0.8,0,1.4-0.3,1.4-0.7
		C17.4,8.6,16.7,8.3,16,8.3L16,8.3z M6.2,16.2c3.4,0,3.7-2,5.9-1.9c1.8-0.1,4.7,1.2,6.4-0.6c1-1.1,1.3-1.7,1.4-2.1
		c0,0.6,0,1.9-0.2,2.4c-0.3,0.6-0.7,1.7-3,1.9c-2.7,0.2-2.5-0.5-4.5-0.2c-1.9,0.3-2.8,1.7-6,1.7c-2.2,0-2.1-0.3-2.7-0.9
		c-0.6-0.6-0.6-2.7-0.6-2.7S2.8,16.2,6.2,16.2L6.2,16.2z M19.9,11.3c0,0,0,0.1,0,0.3C19.9,11.5,19.9,11.3,19.9,11.3L19.9,11.3z"/>
</g>
</svg>
