<?xml version="1.0" encoding="utf-8"?>
<!-- Generator: Adobe Illustrator 25.2.0, SVG Export Plug-In . SVG Version: 6.00 Build 0)  -->
<svg version="1.1" id="Layer_1" xmlns="http://www.w3.org/2000/svg" xmlns:xlink="http://www.w3.org/1999/xlink" x="0px" y="0px"
	 viewBox="0 0 23.5 23.5" style="enable-background:new 0 0 23.5 23.5;" xml:space="preserve">
<style type="text/css">
	.st0{fill:#B4C3D3;}
	.st1{fill:#FFFFFF;}
	.st2{fill-rule:evenodd;clip-rule:evenodd;fill:#B4C3D3;}
	.st3{fill:none;}
</style>
<g>
	<path class="st0" d="M14.7,21c0.5-0.1,0.6,0.4,1.1,0.2c3.2-1.4,5.4-4.6,5.4-8.3c0-3-1.5-5.7-3.7-7.3l-1.9,2.6
		C17,9.2,18,10.9,18,12.8c0,2.1-1.1,3.9-2.8,4.9c-0.5,0.3,0.4,1-0.2,1.1L14.7,21z"/>
	<path class="st0" d="M10.1,4.7C8.9,4.8,8.8,4.3,7.8,4.9C5,6.5,3.1,9.4,3.1,12.8c0,3,1.4,5.6,3.6,7.2l2-2.6
		c-1.4-1.1-2.3-2.7-2.3-4.6c0-2.1,1.1-3.9,2.7-4.9c0.7-0.4,0.2-0.9,1.1-1L10.1,4.7z"/>
	<polygon class="st0" points="5.6,4 10.2,9.8 12,3.8 	"/>
	<polygon class="st0" points="14.7,15.6 13,21.8 19.3,21.7 	"/>
	<path class="st0" d="M14.5,13c0,1.2-1,2.2-2.2,2.2c-1.2,0-2.2-1-2.2-2.2c0-1.2,1-2.2,2.2-2.2C13.5,10.7,14.5,11.7,14.5,13z"/>
</g>
</svg>
