<?xml version="1.0" encoding="utf-8"?>
<!-- Generator: Adobe Illustrator 25.2.0, SVG Export Plug-In . SVG Version: 6.00 Build 0)  -->
<svg version="1.1" id="Layer_1" xmlns="http://www.w3.org/2000/svg" xmlns:xlink="http://www.w3.org/1999/xlink" x="0px" y="0px"
	 viewBox="0 0 23.5 23.5" style="enable-background:new 0 0 23.5 23.5;" xml:space="preserve">
<style type="text/css">
	.st0{fill:#B4C3D3;}
	.st1{fill:#FFFFFF;}
	.st2{fill-rule:evenodd;clip-rule:evenodd;fill:#B4C3D3;}
	.st3{fill:none;}
</style>
<path class="st2" d="M18,18.2h-2.2v2.1c0,0.2-0.1,0.3-0.3,0.3h-0.8c-0.2,0-0.3-0.1-0.3-0.3v-2.1h-2.2c-0.2,0-0.3-0.1-0.3-0.3v-0.8
	c0-0.2,0.1-0.3,0.3-0.3h2.2v-2.1c0-0.2,0.1-0.3,0.3-0.3h0.8c0.2,0,0.3,0.1,0.3,0.3v2.1H18c0.2,0,0.3,0.1,0.3,0.3v0.8
	C18.3,18.1,18.1,18.2,18,18.2L18,18.2z M16.3,14.2c0-0.2-0.1-0.3-0.3-0.3c-0.5,0-1.4,0-1.8,0c-0.2,0-0.3,0.1-0.3,0.3
	c0,0.6,0,2.1,0,2.1s-1.5,0-2.1,0c-0.2,0-0.3,0.1-0.3,0.3c0,0.4,0,1.4,0,1.9c0,0.2,0.1,0.3,0.3,0.3c0.7,0,2.2,0,2.2,0v0.8H6
	c-0.4,0-0.7-0.3-0.7-0.7V4.2c0-0.4,0.1-0.5,0.5-0.5c0,0,5.1,0,8,0c0,0.6,0,3.1,0,3.1s2.5,0,3.3,0c0,2.4,0,9.6,0,9.6h-0.8
	C16.3,16.3,16.3,14.8,16.3,14.2L16.3,14.2z M14.6,3.6c1.8,0,2.6,0.9,2.6,2.4c-1.3,0-2.6,0-2.6,0S14.6,5.8,14.6,3.6L14.6,3.6z
	 M17.2,18.8V19c0,0.4-0.2,0.6-0.6,0.6c0,0,0,0-0.3,0c0-0.3,0-0.8,0-0.8H17.2L17.2,18.8z"/>
</svg>
