<?xml version="1.0" encoding="utf-8"?>
<!-- Generator: Adobe Illustrator 25.2.0, SVG Export Plug-In . SVG Version: 6.00 Build 0)  -->
<svg version="1.1" id="Layer_1" xmlns="http://www.w3.org/2000/svg" xmlns:xlink="http://www.w3.org/1999/xlink" x="0px" y="0px"
	 viewBox="0 0 23.5 23.5" style="enable-background:new 0 0 23.5 23.5;" xml:space="preserve">
<style type="text/css">
	.st0{fill:#B4C3D3;}
	.st1{fill:#FFFFFF;}
	.st2{fill-rule:evenodd;clip-rule:evenodd;fill:#B4C3D3;}
	.st3{fill:none;}
</style>
<g>
	<path class="st0" d="M19.2,12.7l0,7.8l-4.7-2.9v-4.4c0.5,0.1,1,0.2,1.5,0.2l0.1,0c0,0.3,0.2,0.5,0.5,0.5c0.3,0,0.5-0.2,0.5-0.5
		l0-0.1C17.8,13.2,18.5,13,19.2,12.7L19.2,12.7z M8.5,16.2c0,0.3,0.2,0.5,0.5,0.5c0.3,0,0.2-0.2,0.2-0.5c0-0.3,0.1-0.5-0.2-0.5
		C8.7,15.8,8.5,16,8.5,16.2v-7l1.3-0.8L9.7,8.7c0,0,0.9,2.9,3.6,4.1v4.7l-4.7,3V16.2L8.5,16.2z M11.6,12.9c0.3,0,0.5-0.2,0.5-0.5
		c0-0.3-0.2-0.5-0.5-0.5c-0.3,0-0.5,0.2-0.5,0.5C11.1,12.7,11.4,12.9,11.6,12.9L11.6,12.9z M10.6,14.8c0.3,0,0.5-0.2,0.5-0.5
		c0-0.3-0.2-0.5-0.5-0.5c0.3,0,0.5-0.2,0.5-0.5c0-0.3-0.2-0.5-0.5-0.5c-0.3,0-0.5,0.2-0.5,0.5c0,0.3,0.2,0.5,0.5,0.5
		c-0.3,0-0.5,0.2-0.5,0.5C10.2,14.6,10.4,14.8,10.6,14.8L10.6,14.8z M9.7,15.8c0.3,0,0.5-0.2,0.5-0.5s-0.2-0.5-0.5-0.5
		c-0.3,0-0.5,0.2-0.5,0.5S9.4,15.8,9.7,15.8L9.7,15.8z M7.2,16.2c0,0.1,0,0.1-0.1,0.2l0-0.4C7.2,16.1,7.2,16.2,7.2,16.2L7.2,16.2z
		 M2.6,6.3l4.8,2.8V16c-0.1-0.2-0.2-0.3-0.4-0.3c-0.3,0-0.6,0.2-0.6,0.5c0,0.3,0.4,0.5,0.6,0.5c0.2,0,0.4-0.1,0.4-0.3v3.9l-4.8-2.7
		V6.3L2.6,6.3z M5.7,15.8c0.3,0,0.5-0.2,0.5-0.5S6,14.8,5.7,14.8c-0.3,0-0.5,0.2-0.5,0.5S5.5,15.8,5.7,15.8L5.7,15.8z M4.3,13.4
		c0,0.3,0.2,0.5,0.5,0.5c-0.3,0-0.5,0.2-0.5,0.5c0,0.3,0.2,0.5,0.5,0.5c0.3,0,0.5-0.2,0.5-0.5c0-0.3-0.2-0.5-0.5-0.5
		c0.3,0,0.5-0.2,0.5-0.5c0-0.3-0.2-0.5-0.5-0.5c0.3,0,0.5-0.2,0.5-0.5C5.3,12.2,5,12,4.8,12c-0.3,0-0.5,0.2-0.5,0.5
		c0,0.3,0.2,0.5,0.5,0.5C4.5,12.9,4.3,13.1,4.3,13.4L4.3,13.4z M3.8,12c0.3,0,0.5-0.2,0.5-0.5c0-0.3-0.2-0.5-0.5-0.5
		c-0.3,0-0.5,0.2-0.5,0.5C3.3,11.8,3.5,12,3.8,12L3.8,12z M3.2,11c0.3,0,0.5-0.2,0.5-0.5c0-0.3-0.2-0.5-0.5-0.5
		c-0.3,0-0.5,0.2-0.5,0.5C2.7,10.8,2.9,11,3.2,11L3.2,11z M16.2,12.2c-3,0-5.3-3.6-5.3-3.6s2.4-3.6,5.3-3.6c3,0,5.3,3.6,5.3,3.6
		S19.2,12.2,16.2,12.2L16.2,12.2z M16.3,6.2c-1.4,0-2.8,0.8-4.1,2.4c2.7,3.3,5.4,3.2,8,0C18.9,7,17.6,6.2,16.3,6.2L16.3,6.2z
		 M16.2,9.8c-1,0-1.8-0.8-1.8-1.8c0-1,0.8-1.8,1.8-1.8c1,0,1.8,0.8,1.8,1.8C18,9,17.2,9.8,16.2,9.8L16.2,9.8z M16.8,7.5h-1.2v1.2
		h1.2V7.5L16.8,7.5z"/>
</g>
</svg>
