<?xml version="1.0" encoding="utf-8"?>
<!-- Generator: Adobe Illustrator 25.2.0, SVG Export Plug-In . SVG Version: 6.00 Build 0)  -->
<svg version="1.1" id="Layer_1" xmlns="http://www.w3.org/2000/svg" xmlns:xlink="http://www.w3.org/1999/xlink" x="0px" y="0px"
	 viewBox="0 0 23.5 23.5" style="enable-background:new 0 0 23.5 23.5;" xml:space="preserve">
<style type="text/css">
	.st0{fill:#B4C3D3;}
	.st1{fill:#FFFFFF;}
	.st2{fill-rule:evenodd;clip-rule:evenodd;fill:#B4C3D3;}
	.st3{fill:none;}
</style>
<path class="st2" d="M20.1,18.2H4.4c-0.4,0-0.7-0.3-0.7-0.7V6.3c0-0.4,0.3-0.7,0.7-0.7h15.7c0.4,0,0.7,0.3,0.7,0.7v11.3
	C20.8,17.9,20.5,18.2,20.1,18.2L20.1,18.2z M19.6,6.9c0-0.2-0.1-0.3-0.3-0.3H5.2C5,6.6,4.9,6.8,4.9,6.9c0,0,0,3,0,5.6
	c0,0.4,2.9-3.9,2.9-3.9s2.4,4,4.3,6c0.1,0,0.3,0,0.4,0.1c0.5-0.8,1.8-2.4,2.4-3.4c0.7,0.8,1.8,2.6,2.8,3.7c1,0,1.8,0,1.8,0V6.9
	L19.6,6.9z M16.9,10.3c-0.7,0-1.2-0.5-1.2-1.2c0-0.7,0.5-1.2,1.2-1.2c0.7,0,1.2,0.5,1.2,1.2C18.1,9.8,17.6,10.3,16.9,10.3L16.9,10.3
	z"/>
</svg>
