<?xml version="1.0" encoding="utf-8"?>
<!-- Generator: Adobe Illustrator 25.2.0, SVG Export Plug-In . SVG Version: 6.00 Build 0)  -->
<svg version="1.1" id="Layer_1" xmlns="http://www.w3.org/2000/svg" xmlns:xlink="http://www.w3.org/1999/xlink" x="0px" y="0px"
	 viewBox="0 0 23.5 23.5" style="enable-background:new 0 0 23.5 23.5;" xml:space="preserve">
<style type="text/css">
	.st0{fill:#B4C3D3;}
	.st1{fill:#FFFFFF;}
	.st2{fill-rule:evenodd;clip-rule:evenodd;fill:#B4C3D3;}
	.st3{fill:none;}
</style>
<g>
	<path class="st2" d="M11.5,18.3c-4.5,0-8.1-3.6-8.1-8.1c0-4.5,3.6-8.1,8.1-8.1c4.5,0,8.1,3.6,8.1,8.1C19.6,14.7,16,18.3,11.5,18.3
		L11.5,18.3z M14.5,14.2h1v-1h-1V14.2L14.5,14.2z M10.5,16.3h1v-2h-1V16.3L10.5,16.3z M7.4,14.2h1v-1h-1V14.2L7.4,14.2z M5.4,9.2v1
		h2v-1H5.4L5.4,9.2z M8.5,6.1h-1v1h1V6.1L8.5,6.1z M12.5,4.1h-1v2h1V4.1L12.5,4.1z M11.5,7.1c-1.7,0-3,1.4-3,3c0,1.7,1.4,3,3,3
		c1.7,0,3-1.4,3-3C14.5,8.5,13.2,7.1,11.5,7.1L11.5,7.1z M15.6,6.1h-1v1h1V6.1L15.6,6.1z M15.6,10.2v1h2v-1H15.6L15.6,10.2z"/>
</g>
</svg>
