<?xml version="1.0" encoding="utf-8"?>
<!-- Generator: Adobe Illustrator 25.2.0, SVG Export Plug-In . SVG Version: 6.00 Build 0)  -->
<svg version="1.1" id="Layer_1" xmlns="http://www.w3.org/2000/svg" xmlns:xlink="http://www.w3.org/1999/xlink" x="0px" y="0px"
	 viewBox="0 0 23.5 23.5" style="enable-background:new 0 0 23.5 23.5;" xml:space="preserve">
<style type="text/css">
	.st0{fill:#B4C3D3;}
	.st1{fill:#FFFFFF;}
	.st2{fill-rule:evenodd;clip-rule:evenodd;fill:#B4C3D3;}
	.st3{fill:none;}
</style>
<g>
	<path class="st2" d="M17.8,3.1l-2.5,2.4L17,7.2l2.4-2.4L17.8,3.1L17.8,3.1z M6.4,3.1L4.8,4.7l2.4,2.4l1.6-1.6L6.4,3.1L6.4,3.1z
		 M7.2,13.7l-2.4,2.5l1.6,1.6l2.4-2.4L7.2,13.7L7.2,13.7z M17,13.7l-1.6,1.6l2.5,2.4l1.6-1.6L17,13.7L17,13.7z M10.9,0.9v3.6h2.4
		V0.9H10.9L10.9,0.9z M2.6,9.2v2.4h3.6V9.2H2.6L2.6,9.2z M10.9,16.4v3.6h2.4v-3.6H10.9L10.9,16.4z M18,9.2v2.4h3.6V9.2H18L18,9.2z
		 M9.7,10.4c0-1.3,1.1-2.4,2.4-2.4c1.3,0,2.4,1.1,2.4,2.4s-1.1,2.4-2.4,2.4C10.8,12.8,9.7,11.7,9.7,10.4L9.7,10.4z M7.4,10.4
		c0,2.6,2.1,4.8,4.8,4.8c2.6,0,4.7-2.1,4.7-4.8c0-2.6-2.1-4.7-4.7-4.7C9.5,5.7,7.4,7.8,7.4,10.4L7.4,10.4z"/>
</g>
</svg>
