<?xml version="1.0" encoding="utf-8"?>
<!-- Generator: Adobe Illustrator 25.2.0, SVG Export Plug-In . SVG Version: 6.00 Build 0)  -->
<svg version="1.1" id="Layer_1" xmlns="http://www.w3.org/2000/svg" xmlns:xlink="http://www.w3.org/1999/xlink" x="0px" y="0px"
	 viewBox="0 0 23.5 23.5" style="enable-background:new 0 0 23.5 23.5;" xml:space="preserve">
<style type="text/css">
	.st0{fill:#B4C3D3;}
	.st1{fill:#FFFFFF;}
	.st2{fill-rule:evenodd;clip-rule:evenodd;fill:#B4C3D3;}
	.st3{fill:none;}
</style>
<g>
	<path class="st0" d="M19.3,11.7c0,1.2,0.9,2.2,2.1,2.3c-0.2,0.9-0.6,1.8-1.1,2.6c-0.3-0.1-0.6-0.2-1-0.2c-1.3,0-2.4,1.1-2.4,2.4
		c0,0.3,0.1,0.7,0.2,1c-0.8,0.5-1.7,0.9-2.6,1.1c-0.2-1.2-1.1-2.1-2.3-2.1c-1.2,0-2.2,0.9-2.3,2.1c-0.9-0.2-1.8-0.6-2.6-1.1
		c0.1-0.3,0.2-0.6,0.2-1c0-1.3-1.1-2.4-2.4-2.4c-0.3,0-0.7,0.1-1,0.2C3.6,15.9,3.2,15,3,14.1c1.2-0.2,2.1-1.1,2.1-2.3
		c0-1.2-0.9-2.2-2.1-2.3c0.2-0.9,0.6-1.8,1.1-2.6C4.4,6.9,4.7,7,5.1,7c1.3,0,2.4-1.1,2.4-2.4c0-0.3-0.1-0.7-0.2-1
		C8,3.2,8.9,2.8,9.8,2.5C10,3.7,11,4.6,12.2,4.6c1.2,0,2.2-0.9,2.3-2.1c0.9,0.2,1.8,0.6,2.6,1.1c-0.1,0.3-0.2,0.6-0.2,1
		C16.9,5.9,18,7,19.3,7c0.3,0,0.7-0.1,1-0.2c0.5,0.8,0.9,1.7,1.1,2.6C20.2,9.5,19.3,10.5,19.3,11.7L19.3,11.7z M12.2,5.9
		c-3.2,0-5.9,2.6-5.9,5.9c0,3.2,2.6,5.9,5.9,5.9c3.2,0,5.9-2.6,5.9-5.9C18,8.5,15.4,5.9,12.2,5.9L12.2,5.9z M12.2,15.1
		c-1.9,0-3.4-1.5-3.4-3.4c0-1.9,1.5-3.4,3.4-3.4c1.9,0,3.4,1.5,3.4,3.4C15.6,13.6,14,15.1,12.2,15.1L12.2,15.1z"/>
</g>
</svg>
