<?xml version="1.0" encoding="utf-8"?>
<!-- Generator: Adobe Illustrator 25.2.0, SVG Export Plug-In . SVG Version: 6.00 Build 0)  -->
<svg version="1.1" id="Layer_1" xmlns="http://www.w3.org/2000/svg" xmlns:xlink="http://www.w3.org/1999/xlink" x="0px" y="0px"
	 viewBox="0 0 23.5 23.5" style="enable-background:new 0 0 23.5 23.5;" xml:space="preserve">
<style type="text/css">
	.st0{fill:#B4C3D3;}
	.st1{fill:#FFFFFF;}
	.st2{fill-rule:evenodd;clip-rule:evenodd;fill:#B4C3D3;}
	.st3{fill:none;}
</style>
<g>
	<path class="st0" d="M6.3,4.2c-2.4,1.8-4,4.6-4,7.9c0,5.4,4.4,9.7,9.7,9.7c5.4,0,9.7-4.4,9.7-9.7c0-3.2-1.6-6.1-4-7.9l-2,3.1
		c1.6,1.1,2.6,2.9,2.6,4.9c0,3.3-2.8,6.1-6.4,6.1c-3.5,0-6.4-2.7-6.4-6.1c0-2,1-3.8,2.6-4.9L6.3,4.2z"/>
	<path class="st0" d="M14.5,19.4c0,1.3-1.1,2.4-2.4,2.4c-1.3,0-2.4-1.1-2.4-2.4c0-1.3,1.1-2.4,2.4-2.4C13.4,17,14.5,18.1,14.5,19.4z
		"/>
</g>
</svg>
