<?xml version="1.0" encoding="utf-8"?>
<!-- Generator: Adobe Illustrator 25.2.0, SVG Export Plug-In . SVG Version: 6.00 Build 0)  -->
<svg version="1.1" id="Layer_1" xmlns="http://www.w3.org/2000/svg" xmlns:xlink="http://www.w3.org/1999/xlink" x="0px" y="0px"
	 viewBox="0 0 23.5 23.5" style="enable-background:new 0 0 23.5 23.5;" xml:space="preserve">
<style type="text/css">
	.st0{fill:#B4C3D3;}
	.st1{fill:#FFFFFF;}
	.st2{fill-rule:evenodd;clip-rule:evenodd;fill:#B4C3D3;}
	.st3{fill:none;}
</style>
<path class="st2" d="M19.3,10.3c-1-2.7-2.8-4.4-5.5-5.5c0.4-0.4,0.5-0.6,0.9-1c2.9,1.2,4.6,2.7,5.6,5.8L19.3,10.3L19.3,10.3z
	 M18.4,12.4c0,3.7-3,6.7-6.6,6.7c-3.7,0-6.6-3-6.6-6.7c0-3.7,3-6.7,6.6-6.7C15.4,5.7,18.4,8.7,18.4,12.4L18.4,12.4z M11.8,6.9
	c-3,0-5.5,2.5-5.5,5.5c0,3.1,2.4,5.5,5.5,5.5c3,0,5.5-2.5,5.5-5.5C17.2,9.4,14.8,6.9,11.8,6.9L11.8,6.9z M14.8,12.9c-0.6,0-3,0-3,0
	c-0.2,0-0.4-0.2-0.4-0.4h0c0,0,0-4.2,0-4.7c0-0.6,0.9-0.6,0.9,0c0,0.4,0,3.1,0,4.2c0.7,0,2.1,0,2.6,0C15.4,12,15.4,12.9,14.8,12.9
	L14.8,12.9z M4.3,10.3c-0.4-0.4-0.6-0.5-1-0.8c1-2.9,2.8-4.6,5.8-5.6l0.7,1C7,5.8,5.4,7.6,4.3,10.3L4.3,10.3z"/>
</svg>
