<?xml version="1.0" encoding="utf-8"?>
<!-- Generator: Adobe Illustrator 25.2.0, SVG Export Plug-In . SVG Version: 6.00 Build 0)  -->
<svg version="1.1" id="Layer_1" xmlns="http://www.w3.org/2000/svg" xmlns:xlink="http://www.w3.org/1999/xlink" x="0px" y="0px"
	 viewBox="0 0 23.5 23.5" style="enable-background:new 0 0 23.5 23.5;" xml:space="preserve">
<style type="text/css">
	.st0{fill:#B4C3D3;}
	.st1{fill:#FFFFFF;}
	.st2{fill-rule:evenodd;clip-rule:evenodd;fill:#B4C3D3;}
	.st3{fill:none;}
</style>
<g>
	<path class="st2" d="M6.5,18.8c1.4,0,2.5-1.1,2.5-2.5c0-1.4-1.1-2.5-2.5-2.5c-1.4,0-2.5,1.1-2.5,2.5C4,17.7,5.1,18.8,6.5,18.8
		L6.5,18.8z M4,12.1c0.6-0.2,1.2-0.3,1.8-0.3c2.9,0,5.2,2.3,5.2,5.2c0,0.7-0.1,1.3-0.3,1.8H14c0.1-0.5,0.1-1,0.1-1.5
		c0-4.5-3.6-8.1-8.1-8.1C5.3,9.2,4.6,9.3,4,9.5V12.1L4,12.1z M5.2,3.9c-0.4,0-0.8,0-1.2,0.1v2.8c0.4,0,0.8-0.1,1.2-0.1
		c6,0,10.9,4.9,10.9,10.9c0,0.4,0,0.8-0.1,1.2h2.8c0-0.4,0.1-0.8,0.1-1.2C18.9,10,12.7,3.9,5.2,3.9L5.2,3.9z"/>
</g>
</svg>
