<?xml version="1.0" encoding="utf-8"?>
<!-- Generator: Adobe Illustrator 25.2.0, SVG Export Plug-In . SVG Version: 6.00 Build 0)  -->
<svg version="1.1" id="Layer_1" xmlns="http://www.w3.org/2000/svg" xmlns:xlink="http://www.w3.org/1999/xlink" x="0px" y="0px"
	 viewBox="0 0 23.5 23.5" style="enable-background:new 0 0 23.5 23.5;" xml:space="preserve">
<style type="text/css">
	.st0{fill:#B4C3D3;}
	.st1{fill:#FFFFFF;}
	.st2{fill-rule:evenodd;clip-rule:evenodd;fill:#B4C3D3;}
	.st3{fill:none;}
</style>
<g>
	<path class="st0" d="M19.8,9.8c-0.2-0.1-2.3-0.1-2.5-0.1c-1.6,0.2-1,1-2.7,1.9c-1.8,0.9-4.5,1.9-4.5,1.9L6.6,2c0,0,3.4,1.1,4.8,0.5
		c1.7-0.5,2.9-1.5,5.4-1.6c0.3,0-1.5,5.4-1.5,5.4L19.8,9.8L19.8,9.8z M9.6,19.8l-0.4,0.1c-0.1-0.3-0.4-0.5-0.7-0.4L3.1,2.8
		c0.3-0.1,0.4-0.4,0.3-0.7L3.9,2C4,2.3,4.3,2.5,4.6,2.4l5.4,16.7C9.7,19.2,9.5,19.5,9.6,19.8L9.6,19.8z"/>
</g>
</svg>
