<?xml version="1.0" encoding="utf-8"?>
<!-- Generator: Adobe Illustrator 25.2.0, SVG Export Plug-In . SVG Version: 6.00 Build 0)  -->
<svg version="1.1" id="Layer_1" xmlns="http://www.w3.org/2000/svg" xmlns:xlink="http://www.w3.org/1999/xlink" x="0px" y="0px"
	 viewBox="0 0 23.5 23.5" style="enable-background:new 0 0 23.5 23.5;" xml:space="preserve">
<style type="text/css">
	.st0{fill:#B4C3D3;}
	.st1{fill:#FFFFFF;}
	.st2{fill-rule:evenodd;clip-rule:evenodd;fill:#B4C3D3;}
	.st3{fill:none;}
</style>
<path class="st2" d="M11.3,20.2c-4.7,0-8.5-3.8-8.5-8.5c0-4.7,3.8-8.5,8.5-8.5c4.7,0,8.5,3.8,8.5,8.5C19.8,16.4,16,20.2,11.3,20.2
	L11.3,20.2z M9.8,7.7c-0.3,0-0.6,0-0.9,0c-0.6,0-0.8,0.2-0.7,0.8c0.2,2.1,0.2,4.5,0,6.5c-0.1,0.6,0.1,0.8,0.7,0.9c0.3,0,0.5,0,0.8,0
	c0.7,0,0.8-0.2,0.8-0.9c-0.2-1.9-0.2-4.3,0-6.4C10.6,7.9,10.4,7.7,9.8,7.7L9.8,7.7z M13.7,7.7c-0.3,0-0.6,0-0.9,0
	c-0.6,0-0.8,0.2-0.7,0.8c0.2,2.1,0.2,4.5,0,6.5c-0.1,0.6,0.1,0.8,0.7,0.9c0.3,0,0.5,0,0.8,0c0.7,0,0.8-0.2,0.8-0.9
	c-0.2-1.9-0.2-4.3,0-6.4C14.5,7.9,14.3,7.7,13.7,7.7L13.7,7.7z"/>
</svg>
