<?xml version="1.0" encoding="utf-8"?>
<!-- Generator: Adobe Illustrator 25.2.0, SVG Export Plug-In . SVG Version: 6.00 Build 0)  -->
<svg version="1.1" id="Layer_1" xmlns="http://www.w3.org/2000/svg" xmlns:xlink="http://www.w3.org/1999/xlink" x="0px" y="0px"
	 viewBox="0 0 23.5 23.5" style="enable-background:new 0 0 23.5 23.5;" xml:space="preserve">
<style type="text/css">
	.st0{fill:#B4C3D3;}
	.st1{fill:#FFFFFF;}
	.st2{fill-rule:evenodd;clip-rule:evenodd;fill:#B4C3D3;}
	.st3{fill:none;}
</style>
<g>
	<path class="st2" d="M19.4,20.3h-1.9c0,0,0.2-1.2,0-1.4c-0.1-0.1-1,0.4-1.2,0.2c-0.4-0.4,0.3,0.3-0.2-0.2c-0.1-0.1,0.1-0.9,0-1
		c-0.3-0.3-0.7,0.3-1,0c-0.2-0.2,0,0-0.2-0.2c-0.2-0.2,0.4-1.5,0.2-1.7c-0.2-0.2-1.5,0.4-1.7,0.2c-1.2-1.2-3-3.1-3-3.1
		c-0.8,0.4-1.6,0.7-2.6,0.7c-3,0-5.4-2.4-5.4-5.3c0-2.9,2.4-5.3,5.4-5.3c3,0,5.4,2.4,5.4,5.3c0,0.9-0.2,1.7-0.6,2.4l6.9,7.2V20.3
		L19.4,20.3z M6.3,5.6C5.5,5.6,4.8,6.2,4.8,7c0,0.8,0.7,1.4,1.5,1.4c0.8,0,1.5-0.6,1.5-1.4C7.7,6.2,7.1,5.6,6.3,5.6L6.3,5.6z"/>
</g>
</svg>
