<?xml version="1.0" encoding="utf-8"?>
<!-- Generator: Adobe Illustrator 25.2.0, SVG Export Plug-In . SVG Version: 6.00 Build 0)  -->
<svg version="1.1" id="Layer_1" xmlns="http://www.w3.org/2000/svg" xmlns:xlink="http://www.w3.org/1999/xlink" x="0px" y="0px"
	 viewBox="0 0 23.5 23.5" style="enable-background:new 0 0 23.5 23.5;" xml:space="preserve">
<style type="text/css">
	.st0{fill:#B4C3D3;}
	.st1{fill:#FFFFFF;}
	.st2{fill-rule:evenodd;clip-rule:evenodd;fill:#B4C3D3;}
	.st3{fill:none;}
</style>
<path class="st2" d="M19.3,18.2c-2.6,0-13.1,0-16,0c-0.5,0-0.7-0.5-0.4-0.9c1.5-2.5,6.6-11.1,8-13.4c0.3-0.5,0.6-0.4,0.9,0.1
	c1.4,2.3,6.7,11.3,7.9,13.3C20,17.7,19.8,18.2,19.3,18.2L19.3,18.2z M11.3,7.8c-0.4,0-0.9,0.3-0.9,0.9c0,0.7,0.4,5,0.4,5h0.8
	c0,0,0.4-4.2,0.4-5C12.1,8,11.7,7.8,11.3,7.8L11.3,7.8z M11.3,14.6c-0.5,0-0.9,0.4-0.9,0.9c0,0.5,0.4,0.9,0.9,0.9
	c0.5,0,0.8-0.4,0.8-0.9C12.1,14.9,11.7,14.6,11.3,14.6L11.3,14.6z"/>
</svg>
