<?xml version="1.0" encoding="utf-8"?>
<!-- Generator: Adobe Illustrator 25.2.0, SVG Export Plug-In . SVG Version: 6.00 Build 0)  -->
<svg version="1.1" id="Layer_1" xmlns="http://www.w3.org/2000/svg" xmlns:xlink="http://www.w3.org/1999/xlink" x="0px" y="0px"
	 viewBox="0 0 23.5 23.5" style="enable-background:new 0 0 23.5 23.5;" xml:space="preserve">
<style type="text/css">
	.st0{fill:#B4C3D3;}
	.st1{fill:#FFFFFF;}
	.st2{fill-rule:evenodd;clip-rule:evenodd;fill:#B4C3D3;}
	.st3{fill:none;}
</style>
<g>
	<path class="st2" d="M19.8,8.3l-10,9.9c0,0,0.2-0.8-0.2-1.5c1.4-1.4,9.9-9.9,9.9-9.9S20.1,7.8,19.8,8.3L19.8,8.3z M7.6,16l-0.2-1.4
		L17.6,4.4c0,0,0.5,0.1,1.1,0.7c0.6,0.6,0.7,1,0.7,1L9.1,16.3L7.6,16L7.6,16z M5.4,13.7l10-9.9C15.8,3.6,16.8,4,16.8,4
		s-8.5,8.5-9.9,9.9C6.1,13.6,5.4,13.7,5.4,13.7L5.4,13.7z M6.5,14.9c0.2,0.3,0.3,1.9,0.3,1.9s1.6,0.1,2,0.4c0.3,0.2,0.4,0.6,0.3,1.8
		C9,19,5.9,20,5.9,20s-0.1-0.7-0.9-1.4c-0.7-0.7-1.4-0.8-1.4-0.8s0.8-3.1,0.9-3.1C5.7,14.4,6.4,14.5,6.5,14.9L6.5,14.9z M5.1,20.3
		l-2.3,0.5l0.5-2.2c0,0,0.5,0,1.1,0.6C5.1,19.7,5.1,20.3,5.1,20.3L5.1,20.3z"/>
</g>
</svg>
