<?xml version="1.0" encoding="utf-8"?>
<!-- Generator: Adobe Illustrator 25.2.0, SVG Export Plug-In . SVG Version: 6.00 Build 0)  -->
<svg version="1.1" id="Layer_1" xmlns="http://www.w3.org/2000/svg" xmlns:xlink="http://www.w3.org/1999/xlink" x="0px" y="0px"
	 viewBox="0 0 23.5 23.5" style="enable-background:new 0 0 23.5 23.5;" xml:space="preserve">
<style type="text/css">
	.st0{fill:#B4C3D3;}
	.st1{fill:#FFFFFF;}
	.st2{fill-rule:evenodd;clip-rule:evenodd;fill:#B4C3D3;}
	.st3{fill:none;}
</style>
<g>
	<path class="st2" d="M18.2,18.3h-5.7c-0.2,0-0.3-0.1-0.3-0.3v-0.8c0-0.2,0.1-0.3,0.3-0.3h5.7c0.2,0,0.3,0.1,0.3,0.3V18
		C18.5,18.1,18.4,18.3,18.2,18.3L18.2,18.3z M11.7,16.6c0,0.4,0,1.4,0,1.9c0,0.2,0.1,0.3,0.3,0.3c0.7,0,5.4,0,5.4,0s0,0.2,0,0.3
		s-0.1,0.5-0.5,0.5c-0.3,0-0.4,0-0.4,0h0H6.3c-0.4,0-0.7-0.3-0.7-0.7V4.1c0-0.4,0.1-0.5,0.5-0.5c0,0,5.1,0,8.1,0c0,0.6,0,3.1,0,3.1
		s2.5,0,3.3,0c0,2.4,0,9.7,0,9.7s-5.6,0-5.4,0C11.8,16.3,11.7,16.4,11.7,16.6L11.7,16.6z M14.9,3.6c1.8,0,2.6,0.9,2.6,2.4
		c-1.3,0-2.6,0-2.6,0S14.9,5.7,14.9,3.6L14.9,3.6z"/>
</g>
</svg>
