<?xml version="1.0" encoding="utf-8"?>
<!-- Generator: Adobe Illustrator 25.2.0, SVG Export Plug-In . SVG Version: 6.00 Build 0)  -->
<svg version="1.1" id="Layer_1" xmlns="http://www.w3.org/2000/svg" xmlns:xlink="http://www.w3.org/1999/xlink" x="0px" y="0px"
	 viewBox="0 0 23.5 23.5" style="enable-background:new 0 0 23.5 23.5;" xml:space="preserve">
<style type="text/css">
	.st0{fill:#B4C3D3;}
	.st1{fill:#FFFFFF;}
	.st2{fill-rule:evenodd;clip-rule:evenodd;fill:#B4C3D3;}
	.st3{fill:none;}
</style>
<g>
	<path class="st2" d="M19.7,11.5c-1.8,4.6-1.8,4.7-2.1,4.7c-0.9,0-5.6,0-9.3,0c-0.4,0-1.8-4.4-2.3-6C5.9,9.8,5.7,9.7,5.4,9.7
		c-0.4,0-0.8,0-1.2,0c-1.8,0-1.8-1.9,0-1.9c1.3,0,2.1,0,2.5,0c0.5,0,0.7,0.6,0.8,1c0.5,1.3,1.3,3.7,1.8,4.9c0.2,0.5,0.5,0.6,0.9,0.6
		c1.3,0,4.5,0,5.8,0c0.5,0,0.6-0.2,0.7-0.6c0.4-0.9,0.8-2,1-2.6c0.2-0.4,0.6-1.7,1.4-1.5C20.1,9.9,20.1,10.3,19.7,11.5L19.7,11.5z
		 M18.2,6.1c-1.9,0.3-3.2,2-3.2,2s0.3,0.3,0.7,0.7c0.5,0.5,0.2,0.6-0.4,0.6c-1.2,0-3.2,0-3.2,0s0.1-2.1,0.2-3.3
		c0.1-0.5,0.2-0.6,0.6-0.2c0.4,0.4,0.6,0.6,0.6,0.6s2.5-2.5,5.7-1C19.6,5.9,19.5,6,19.5,6C19.4,6,19.2,5.9,18.2,6.1L18.2,6.1z
		 M10.7,16.7c0.7,0,1.5,0.5,1.5,1.2c0,0.7-0.8,1.5-1.5,1.5c-0.8,0-1.5-0.7-1.5-1.5C9.2,17.2,9.9,16.7,10.7,16.7L10.7,16.7z
		 M15.6,16.7c0.8,0,1.5,0.5,1.5,1.2c0,0.8-0.7,1.5-1.5,1.5c-0.8,0-1.5-0.7-1.5-1.5C14.1,17.1,14.8,16.7,15.6,16.7L15.6,16.7z"/>
</g>
</svg>
