<?xml version="1.0" encoding="utf-8"?>
<!-- Generator: Adobe Illustrator 25.2.0, SVG Export Plug-In . SVG Version: 6.00 Build 0)  -->
<svg version="1.1" id="Layer_1" xmlns="http://www.w3.org/2000/svg" xmlns:xlink="http://www.w3.org/1999/xlink" x="0px" y="0px"
	 viewBox="0 0 23.5 23.5" style="enable-background:new 0 0 23.5 23.5;" xml:space="preserve">
<style type="text/css">
	.st0{fill:#B4C3D3;}
	.st1{fill:#FFFFFF;}
	.st2{fill-rule:evenodd;clip-rule:evenodd;fill:#B4C3D3;}
	.st3{fill:none;}
</style>
<path class="st2" d="M16.7,17.7L16.7,17.7H7v0c-2.2-0.2-3.9-2-3.9-4.3C3.1,10.9,5,9,7.4,9c0.3,0,0.7,0,1,0.1
	c0.7-1.4,2.1-2.3,3.8-2.3c2.1,0,3.9,1.6,4.2,3.7c0.1,0,0.2,0,0.3,0c1.9,0,3.5,1.6,3.5,3.6C20.2,16.1,18.6,17.7,16.7,17.7L16.7,17.7z
	 M16.4,11.7c-0.1,0-0.9,0-1,0C15.2,9.9,14.2,8,12.1,8C10.8,8,9.6,9.2,9,10.3c-0.3-0.1-0.7-0.2-1-0.2c-1.9,0-3.8,1.2-3.8,3.2
	c0,1.9,1.8,3,3.6,3.2h8c1.6,0,3.1-0.9,3.1-2.5C19,12.4,18,11.7,16.4,11.7L16.4,11.7z"/>
</svg>
