<?xml version="1.0" encoding="utf-8"?>
<!-- Generator: Adobe Illustrator 25.2.0, SVG Export Plug-In . SVG Version: 6.00 Build 0)  -->
<svg version="1.1" id="Layer_1" xmlns="http://www.w3.org/2000/svg" xmlns:xlink="http://www.w3.org/1999/xlink" x="0px" y="0px"
	 viewBox="0 0 23.5 23.5" style="enable-background:new 0 0 23.5 23.5;" xml:space="preserve">
<style type="text/css">
	.st0{fill:#B4C3D3;}
	.st1{fill:#FFFFFF;}
	.st2{fill-rule:evenodd;clip-rule:evenodd;fill:#B4C3D3;}
	.st3{fill:none;}
</style>
<g>
	<path class="st2" d="M17.2,18.8c-3.2,3.2-8.3,3.2-11.5,0c-3.2-3.2-3.2-8.3,0-11.5c3.2-3.2,8.3-3.2,11.5,0
		C20.4,10.5,20.4,15.6,17.2,18.8L17.2,18.8z M16.6,9c0-1.1-0.9-2-2-2H8.4c-1.1,0-2,0.9-2,2v8.1c0,1.1,0.9,2,2,2h6.1c1.1,0,2-0.9,2-2
		V9L16.6,9z M13.5,17.1H9.5c-0.6,0-1-0.5-1-1v-1c0-0.6,0.5-1,1-1h4.1c0.6,0,1,0.5,1,1v1C14.5,16.6,14.1,17.1,13.5,17.1L13.5,17.1z
		 M12,15.1h-1c-0.3,0-0.5,0.2-0.5,0.5c0,0.3,0.2,0.5,0.5,0.5h1c0.3,0,0.5-0.2,0.5-0.5C12.5,15.3,12.3,15.1,12,15.1L12,15.1z
		 M13.5,12H9.5c-0.6,0-1-0.5-1-1v-1c0-0.6,0.5-1,1-1h4.1c0.6,0,1,0.5,1,1v1C14.5,11.6,14.1,12,13.5,12L13.5,12z M12,10h-1
		c-0.3,0-0.5,0.2-0.5,0.5c0,0.3,0.2,0.5,0.5,0.5h1c0.3,0,0.5-0.2,0.5-0.5C12.5,10.2,12.3,10,12,10L12,10z"/>
</g>
</svg>
