<?xml version="1.0" encoding="utf-8"?>
<!-- Generator: Adobe Illustrator 25.2.0, SVG Export Plug-In . SVG Version: 6.00 Build 0)  -->
<svg version="1.1" id="Layer_1" xmlns="http://www.w3.org/2000/svg" xmlns:xlink="http://www.w3.org/1999/xlink" x="0px" y="0px"
	 viewBox="0 0 23.5 23.5" style="enable-background:new 0 0 23.5 23.5;" xml:space="preserve">
<style type="text/css">
	.st0{fill:#B4C3D3;}
	.st1{fill:#FFFFFF;}
	.st2{fill-rule:evenodd;clip-rule:evenodd;fill:#B4C3D3;}
	.st3{fill:none;}
</style>
<g>
	<path class="st0" d="M3.7,19l4.8-5.5l3.2,2l3.2-2l4.8,5.5H3.7L3.7,19z M2.8,18.5c-0.2-0.2-0.3-0.4-0.3-0.7v-9l5.2,3.9L2.8,18.5
		L2.8,18.5z M20.6,18.5l-4.9-5.7l5.2-3.9v9C20.9,18.1,20.8,18.3,20.6,18.5L20.6,18.5z M11.7,13.2L2.5,7.5c0-0.6,0.5-1.1,1.1-1.1
		h16.1c0.6,0,1.1,0.5,1.1,1.1L11.7,13.2L11.7,13.2z"/>
</g>
</svg>
