<?xml version="1.0" encoding="utf-8"?>
<!-- Generator: Adobe Illustrator 25.2.0, SVG Export Plug-In . SVG Version: 6.00 Build 0)  -->
<svg version="1.1" id="Layer_1" xmlns="http://www.w3.org/2000/svg" xmlns:xlink="http://www.w3.org/1999/xlink" x="0px" y="0px"
	 viewBox="0 0 23.5 23.5" style="enable-background:new 0 0 23.5 23.5;" xml:space="preserve">
<style type="text/css">
	.st0{fill:#B4C3D3;}
	.st1{fill:#FFFFFF;}
	.st2{fill-rule:evenodd;clip-rule:evenodd;fill:#B4C3D3;}
	.st3{fill:none;}
</style>
<g>
	<path class="st0" d="M15.1,20.5V4.4h2.3V2.1h1.1v2.3h2.3v16.1H15.1L15.1,20.5z M17.4,7.9h-1.1V9h1.1V7.9L17.4,7.9z M17.4,10.2h-1.1
		v1.2h1.1V10.2L17.4,10.2z M17.4,12.5h-1.1v1.1h1.1V12.5L17.4,12.5z M17.4,14.8h-1.1v1.1h1.1V14.8L17.4,14.8z M17.4,17.1h-1.1v1.1
		h1.1V17.1L17.4,17.1z M19.7,7.9h-1.1V9h1.1V7.9L19.7,7.9z M19.7,10.2h-1.1v1.2h1.1V10.2L19.7,10.2z M19.7,14.8h-1.1v1.1h1.1V14.8
		L19.7,14.8z M19.7,17.1h-1.1v1.1h1.1V17.1L19.7,17.1z M8.2,20.5V5.6h2.3V2.1h1.1v3.4h2.3v14.9H8.2L8.2,20.5z M10.5,7.9H9.3V9h1.2
		V7.9L10.5,7.9z M10.5,12.5H9.3v1.1h1.2V12.5L10.5,12.5z M10.5,14.8H9.3v1.1h1.2V14.8L10.5,14.8z M10.5,17.1H9.3v1.1h1.2V17.1
		L10.5,17.1z M12.8,7.9h-1.1V9h1.1V7.9L12.8,7.9z M12.8,10.2h-1.1v1.2h1.1V10.2L12.8,10.2z M12.8,12.5h-1.1v1.1h1.1V12.5L12.8,12.5z
		 M12.8,14.8h-1.1v1.1h1.1V14.8L12.8,14.8z M2.4,20.5V2.1h1.1v3.4h1.1V9h1.1v2.3H7v9.2H2.4L2.4,20.5z M4.7,10.2H3.6v1.2h1.1V10.2
		L4.7,10.2z M5.9,12.5H4.7v1.1h1.1V12.5L5.9,12.5z M5.9,17.1H4.7v1.1h1.1V17.1L5.9,17.1z"/>
</g>
</svg>
