<?xml version="1.0" encoding="utf-8"?>
<!-- Generator: Adobe Illustrator 25.2.0, SVG Export Plug-In . SVG Version: 6.00 Build 0)  -->
<svg version="1.1" id="Layer_1" xmlns="http://www.w3.org/2000/svg" xmlns:xlink="http://www.w3.org/1999/xlink" x="0px" y="0px"
	 viewBox="0 0 23.5 23.5" style="enable-background:new 0 0 23.5 23.5;" xml:space="preserve">
<style type="text/css">
	.st0{fill:#B4C3D3;}
	.st1{fill:#FFFFFF;}
	.st2{fill-rule:evenodd;clip-rule:evenodd;fill:#B4C3D3;}
	.st3{fill:none;}
</style>
<g>
	<g>
		<path class="st0" d="M21.8,10.8c0-5.4-5.6-4.6-5.6-4.6c-3.9-3.9-6.9-0.5-6.9-0.5c-5.2-1.3-5.8,4-5.8,4s-4.5,2.6-2.8,6.4
			c1.7,3.7,5.5,2.6,5.5,2.6c2.8,2.8,6,0.3,6,0.3c2.1,1.7,5.1-0.5,5.1-0.5s3.1,1.5,5.6-1.4C25.6,13.9,21.8,10.8,21.8,10.8z
			 M21.3,14.6c-0.2,1-1.4,2.3-2.5,1.7c0,0-0.2-1.2-1.1-1.4c-0.6-0.2-1.1-0.1-1.5,0.8c-0.5,1.1-1,1.8-2.6,1.2
			c-1.6-0.5-1.3-1.3-1.3-2.2c0-0.9-1.8-2.2-2.7-0.1c-0.6,1.4,0.7,2.9,0.7,2.9S9,17.9,8.1,16.9c-0.3-0.4-0.5-1-0.7-1.8
			c-0.6-2.2-2.4-1-2.5,0c0,0-0.1,1.3,0,1.3C5,16.4,2.1,16,3.1,13.3c0.5-1.3,2.4-1.4,2.4-1.4s0.9-0.2,0.5-1.4
			C5.7,9.4,6.5,7.3,9.4,8.2c0.2,0.1,0.5,0,0.6,0c0,0,2.8-3.1,5.1,0.5c0,0-0.1,0.4,1,0.2c1.1-0.2,2.5-0.5,3,1.2
			c0.5,1.7,0,2.2,0.7,2.5C20.4,12.7,21.5,13.6,21.3,14.6z"/>
		<path class="st1" d="M9.2,20.1c-1.1,0-2.1-0.4-3-1.3c-0.1,0-0.6,0.1-1.2,0.1c-1.4,0-3.3-0.5-4.3-2.8c-0.9-2-0.1-3.6,0.8-4.7
			c0.8-1,1.9-1.7,2-1.8c0-0.3,0.7-4.2,4.3-4.2c0.5,0,1,0.1,1.5,0.2c0.1-0.2,1.4-1.4,3.1-1.4c1.3,0,2.6,0.6,3.8,1.9
			c0.1,0,0.3,0,0.7,0c1.5,0,4.9,0.5,4.9,4.7c0.1,0.1,1,0.9,1.5,2c0.6,1.1,0.9,2.7-0.4,4.4c-1,1.2-2.3,1.8-3.7,1.8l0,0
			c-1,0-1.8-0.3-1.9-0.4c-0.2,0.1-1.7,1.2-3.2,1.2c-0.7,0-1.3-0.2-1.9-0.6C12.1,19.2,10.8,20.1,9.2,20.1z M6.3,18.7L6.3,18.7
			c0.9,0.9,1.9,1.3,3,1.3c1.6,0,3-1,3-1l0,0l0,0c0.5,0.4,1.1,0.6,1.8,0.6c1.6,0,3.2-1.1,3.2-1.2l0,0l0,0c0,0,0.8,0.4,1.9,0.4l0,0
			c1.4,0,2.6-0.6,3.6-1.8c1.1-1.3,1.2-2.7,0.4-4.3c-0.6-1.2-1.5-2-1.5-2l0,0v0c0-4.2-3.4-4.6-4.8-4.6c-0.4,0-0.7,0-0.7,0l0,0l0,0
			c-1.2-1.2-2.5-1.9-3.8-1.9c-1.9,0-3.1,1.4-3.1,1.4l0,0l0,0C8.8,5.6,8.3,5.5,7.8,5.5c-3.7,0-4.2,4.2-4.2,4.2l0,0l0,0
			c0,0-1.1,0.7-2,1.8c-0.8,1-1.6,2.6-0.7,4.6c1,2.3,2.9,2.8,4.2,2.8C5.7,18.8,6.2,18.7,6.3,18.7L6.3,18.7z M9.5,17.5
			c-0.4,0-1-0.1-1.5-0.6c-0.3-0.3-0.4-0.8-0.6-1.5c0-0.1-0.1-0.2-0.1-0.4c-0.2-0.8-0.6-1.2-1.1-1.2c-0.6,0-1.3,0.7-1.3,1.2
			c0,0.6,0,1.2,0,1.3l0,0l0,0c0,0,0,0,0,0c-0.1,0-1.2-0.2-1.7-1c-0.4-0.6-0.4-1.3-0.1-2.1c0.5-1.3,2.3-1.4,2.4-1.4
			c0,0,0.3-0.1,0.5-0.4c0.1-0.2,0.1-0.6,0-0.9c-0.1-0.5-0.1-1.2,0.3-1.8c0.3-0.4,0.8-0.8,1.8-0.8c0.4,0,0.8,0.1,1.3,0.2
			c0.1,0,0.2,0,0.3,0c0.2,0,0.3,0,0.3-0.1c0,0,1.1-1.3,2.5-1.3c1,0,1.8,0.6,2.6,1.7l0,0l0,0c0,0,0,0.1,0,0.1c0,0.1,0.2,0.1,0.4,0.1
			c0.1,0,0.3,0,0.5-0.1l0.1,0c0.4-0.1,0.8-0.2,1.2-0.2c0.9,0,1.5,0.4,1.7,1.4c0.2,0.8,0.2,1.3,0.3,1.7c0,0.5,0,0.7,0.4,0.8
			c0.6,0.2,1.8,1.2,1.6,2.2c-0.2,0.9-1,1.9-1.9,1.9c-0.2,0-0.5-0.1-0.7-0.2l0,0l0,0c0,0-0.2-1.2-1.1-1.4c-0.2-0.1-0.4-0.1-0.5-0.1
			c-0.4,0-0.7,0.3-1,0.9c-0.4,0.9-0.8,1.5-1.7,1.5c-0.3,0-0.6-0.1-1-0.2c-1.4-0.5-1.4-1.1-1.3-1.9c0-0.1,0-0.3,0-0.4
			c0-0.5-0.6-1.2-1.3-1.2c-0.4,0-0.9,0.2-1.3,1.1c-0.5,1.3,0.6,2.8,0.7,2.8l0,0l0,0C10.2,17.4,9.9,17.5,9.5,17.5z M6.2,13.8
			c0.3,0,0.9,0.2,1.2,1.3c0,0.1,0.1,0.2,0.1,0.4c0.2,0.6,0.3,1.1,0.6,1.4c0.5,0.5,1,0.6,1.4,0.6c0.3,0,0.6-0.1,0.7-0.1
			c-0.2-0.3-1.1-1.6-0.6-2.9c0.3-0.7,0.8-1.1,1.3-1.1c0.8,0,1.4,0.7,1.4,1.3c0,0.1,0,0.3,0,0.4c0,0.8-0.1,1.3,1.3,1.8
			c0.4,0.1,0.7,0.2,1,0.2c0.8,0,1.2-0.5,1.6-1.4c0.3-0.6,0.6-0.9,1-0.9c0.1,0,0.3,0,0.5,0.1c0.9,0.2,1.1,1.3,1.1,1.5
			c0.2,0.1,0.4,0.2,0.6,0.2c0.9,0,1.7-0.9,1.9-1.8c0.2-1-0.9-1.9-1.5-2.1c-0.4-0.1-0.4-0.4-0.4-0.9c0-0.4,0-0.9-0.3-1.6
			c-0.3-0.9-0.8-1.3-1.7-1.3c-0.4,0-0.8,0.1-1.2,0.2l-0.1,0c-0.5,0.1-0.9,0.1-1-0.1C15,8.7,15,8.6,15,8.6c-0.7-1.1-1.6-1.7-2.5-1.7
			c-1.4,0-2.5,1.2-2.5,1.2C9.9,8.2,9.7,8.2,9.6,8.2c-0.1,0-0.2,0-0.3,0C8.9,8.1,8.5,8,8.1,8C7.2,8,6.7,8.4,6.4,8.8
			C6,9.4,5.9,10.1,6,10.6c0.1,0.4,0.1,0.7,0,1C5.8,11.9,5.5,12,5.5,12l0,0c0,0-1.9,0.1-2.4,1.3c-0.3,0.8-0.3,1.5,0.1,2.1
			c0.5,0.7,1.4,0.9,1.6,1c0-0.2,0-0.8,0-1.3C4.9,14.5,5.6,13.8,6.2,13.8z"/>
	</g>
</g>
</svg>
