<?xml version="1.0" encoding="utf-8"?>
<!-- Generator: Adobe Illustrator 25.2.0, SVG Export Plug-In . SVG Version: 6.00 Build 0)  -->
<svg version="1.1" id="Layer_1" xmlns="http://www.w3.org/2000/svg" xmlns:xlink="http://www.w3.org/1999/xlink" x="0px" y="0px"
	 viewBox="0 0 23.5 23.5" style="enable-background:new 0 0 23.5 23.5;" xml:space="preserve">
<style type="text/css">
	.st0{fill:#B4C3D3;}
	.st1{fill:#FFFFFF;}
	.st2{fill-rule:evenodd;clip-rule:evenodd;fill:#B4C3D3;}
	.st3{fill:none;}
</style>
<g>
	<path class="st0" d="M18.6,21.3H5.5c-1.2,0-2.4-1.2-2.4-2.4V7.1c0-1.2,1.2-2.4,2.4-2.4h13.1c1.2,0,2.4,1.2,2.4,2.4V19
		C20.9,20.2,19.7,21.3,18.6,21.3L18.6,21.3z M18.6,7.1H5.5V19h13.1V7.1L18.6,7.1z M12.2,14.6L5.1,7.5l0.8-0.8l7.1,7.1L12.2,14.6
		L12.2,14.6z M19.3,18.2l-4.7-4.8l0.8-0.8l4.7,4.7L19.3,18.2L19.3,18.2z M4.7,18.2l-0.8-0.8l4.8-4.7l0.8,0.8L4.7,18.2L4.7,18.2z
		 M11.8,14.6L11,13.8l7.1-7.1L19,7.5L11.8,14.6L11.8,14.6z"/>
</g>
</svg>
