<?xml version="1.0" encoding="utf-8"?>
<!-- Generator: Adobe Illustrator 25.2.0, SVG Export Plug-In . SVG Version: 6.00 Build 0)  -->
<svg version="1.1" id="Layer_1" xmlns="http://www.w3.org/2000/svg" xmlns:xlink="http://www.w3.org/1999/xlink" x="0px" y="0px"
	 viewBox="0 0 23.5 23.5" style="enable-background:new 0 0 23.5 23.5;" xml:space="preserve">
<style type="text/css">
	.st0{fill:#B4C3D3;}
	.st1{fill:#FFFFFF;}
	.st2{fill-rule:evenodd;clip-rule:evenodd;fill:#B4C3D3;}
	.st3{fill:none;}
</style>
<g>
	<path class="st2" d="M19.7,10.5h-2.8c-0.3,0-0.5-0.2-0.5-0.5c0-0.3,0.2-0.5,0.5-0.5h2.8c0.3,0,0.5,0.2,0.5,0.5
		C20.2,10.3,20,10.5,19.7,10.5L19.7,10.5z M16.1,7.4c-0.2,0.2-0.5,0.2-0.7,0c-0.2-0.2-0.2-0.5,0-0.7l2-2c0.2-0.2,0.5-0.2,0.7,0
		c0.2,0.2,0.2,0.5,0,0.7L16.1,7.4L16.1,7.4z M16,10.4c-0.1,1-0.5,1.7-1.2,2.3c0,0-0.4,0.3-0.6,0c-0.2-0.2,0-0.6,0.1-0.6
		c0.5-0.3,0.9-0.9,1-1.8c0.1-1.2-0.7-2.6-2.3-2.8c-1.5-0.2-2.6,0.6-2.7,2.2c0,0-0.1,0.3-0.5,0.3c-0.3,0-0.4-0.5-0.4-0.5
		c0.2-1.9,1.9-3.1,3.7-2.8C14.9,6.8,16.2,8.5,16,10.4L16,10.4z M12.6,6.2c-0.3,0-0.5-0.2-0.5-0.5V2.9c0-0.3,0.2-0.5,0.5-0.5
		c0.3,0,0.5,0.2,0.5,0.5v2.8C13.1,6,12.9,6.2,12.6,6.2L12.6,6.2z M9,7.4l-2-2C6.8,5.3,6.8,4.9,7,4.7c0.2-0.2,0.5-0.2,0.7,0l2,2
		c0.2,0.2,0.2,0.5,0,0.7C9.6,7.6,9.2,7.6,9,7.4L9,7.4z M8.9,10c0,0.3-0.2,0.5-0.5,0.5H5.6c-0.3,0-0.5-0.2-0.5-0.5
		c0-0.3,0.2-0.5,0.5-0.5h2.8C8.7,9.5,8.9,9.7,8.9,10L8.9,10z M7.3,12c0.6-1,1.7-1.7,2.9-1.7c1.7,0,3,1.2,3.3,2.8c0.1,0,0.1,0,0.2,0
		c1.5,0,2.7,1.2,2.7,2.7c0,1.5-1.2,2.7-2.7,2.7v0H6.2v0c-1.7-0.1-3-1.5-3-3.3c0-1.8,1.5-3.3,3.3-3.3C6.8,11.9,7,11.9,7.3,12L7.3,12z
		 M4.1,15.2c0,1.4,1.4,2.3,2.8,2.4h6.2c1.2,0,2.4-0.7,2.4-1.9c0-1.2-0.8-1.8-2-1.8c-0.1,0-0.7,0-0.8,0c-0.2-1.3-0.9-2.8-2.5-2.8
		c-1,0-2,0.9-2.4,1.8c-0.2-0.1-0.5-0.1-0.8-0.1C5.5,12.8,4.1,13.7,4.1,15.2L4.1,15.2z M15.4,12.4c0.2-0.2,0.5-0.2,0.7,0l2,2
		c0.2,0.2,0.2,0.5,0,0.7c-0.2,0.2-0.5,0.2-0.7,0l-2-2C15.2,12.9,15.2,12.6,15.4,12.4L15.4,12.4z"/>
</g>
</svg>
