<?xml version="1.0" encoding="utf-8"?>
<!-- Generator: Adobe Illustrator 25.2.0, SVG Export Plug-In . SVG Version: 6.00 Build 0)  -->
<svg version="1.1" id="Layer_1" xmlns="http://www.w3.org/2000/svg" xmlns:xlink="http://www.w3.org/1999/xlink" x="0px" y="0px"
	 viewBox="0 0 23.5 23.5" style="enable-background:new 0 0 23.5 23.5;" xml:space="preserve">
<style type="text/css">
	.st0{fill:#B4C3D3;}
	.st1{fill:#FFFFFF;}
	.st2{fill-rule:evenodd;clip-rule:evenodd;fill:#B4C3D3;}
	.st3{fill:none;}
</style>
<g>
	<path class="st0" d="M11.5,12.6c0,0-2.6,2.8,0.1,3.2C11.7,15.8,14.2,15.4,11.5,12.6z"/>
	<path class="st0" d="M16,14.8c0,0-2.6,2.8,0.1,3.2C16.1,18,18.6,17.6,16,14.8z"/>
	<path class="st0" d="M10.8,4.2c0,0,1.5-2.3,4.6-1.3c0,0,1.6,0.5,2.1,1.4c0,0,2.8,0.1,2.9,3.4c0,0-0.9,4.2-4.6,3.1
		c0,0-0.4,0.9-2.2,0.7c-0.1,0-1,0.2-1.7-0.7c0,0-3.6,1-4.2-3.2C7.7,7.6,7.8,4,10.8,4.2z"/>
	<path class="st0" d="M7.3,6.4C7.3,6.7,7,7,6.7,7H4.4C4.1,7,3.8,6.7,3.8,6.4l0,0c0-0.3,0.3-0.6,0.6-0.6h2.3C7,5.8,7.3,6.1,7.3,6.4
		L7.3,6.4z"/>
	<path class="st0" d="M6,8.6c0,0.3-0.3,0.6-0.6,0.6h-2C3,9.2,2.7,8.9,2.7,8.6l0,0c0-0.3,0.3-0.6,0.6-0.6h2C5.7,8.1,6,8.3,6,8.6
		L6,8.6z"/>
	<path class="st0" d="M8.3,10.8c0,0.3-0.2,0.6-0.5,0.6H3.3c-0.3,0-0.5-0.2-0.5-0.6l0,0c0-0.3,0.2-0.6,0.5-0.6h4.5
		C8,10.2,8.3,10.5,8.3,10.8L8.3,10.8z"/>
</g>
</svg>
