<?xml version="1.0" encoding="utf-8"?>
<!-- Generator: Adobe Illustrator 25.2.0, SVG Export Plug-In . SVG Version: 6.00 Build 0)  -->
<svg version="1.1" id="Layer_1" xmlns="http://www.w3.org/2000/svg" xmlns:xlink="http://www.w3.org/1999/xlink" x="0px" y="0px"
	 viewBox="0 0 23.5 23.5" style="enable-background:new 0 0 23.5 23.5;" xml:space="preserve">
<style type="text/css">
	.st0{fill:#B4C3D3;}
	.st1{fill:#FFFFFF;}
	.st2{fill-rule:evenodd;clip-rule:evenodd;fill:#B4C3D3;}
	.st3{fill:none;}
</style>
<g>
	<path class="st0" d="M18.7,3h-5.2L3.3,13c-0.4,0.4-0.4,1.4,0.1,1.9l4.8,4.9c0.5,0.5,1.6,0.6,2,0.2L20.3,9.9V4.6
		C20.3,4,19.3,3,18.7,3L18.7,3z M18.1,7.7c0,0.6-0.5,1.1-1.1,1.1h-1.3c-0.6,0-1.1-0.5-1.1-1.1V6.4c0-0.6,0.5-1.1,1.1-1.1H17
		c0.6,0,1.1,0.5,1.1,1.1V7.7L18.1,7.7z"/>
</g>
</svg>
