<?xml version="1.0" encoding="utf-8"?>
<!-- Generator: Adobe Illustrator 25.2.0, SVG Export Plug-In . SVG Version: 6.00 Build 0)  -->
<svg version="1.1" id="Layer_1" xmlns="http://www.w3.org/2000/svg" xmlns:xlink="http://www.w3.org/1999/xlink" x="0px" y="0px"
	 viewBox="0 0 23.5 23.5" style="enable-background:new 0 0 23.5 23.5;" xml:space="preserve">
<style type="text/css">
	.st0{fill:#B4C3D3;}
	.st1{fill:#FFFFFF;}
	.st2{fill-rule:evenodd;clip-rule:evenodd;fill:#B4C3D3;}
	.st3{fill:none;}
</style>
<g>
	<path class="st0" d="M13.8,3.1c0,1.1-0.9,2.1-2.1,2.1c-1.1,0-2.1-0.9-2.1-2.1c0-1.1,0.9-2.1,2.1-2.1C12.9,1,13.8,1.9,13.8,3.1z"/>
	<path class="st0" d="M11.7,15.7c0,0-0.2-0.1-0.2,0.2c0,0.3,0,6.5,0,6.5s-0.2,0.8-1,0.8c-0.8,0-1-0.8-1-0.8V9.2c0,0,0-0.2-0.3-0.2
		C8.9,9,8.9,9.2,8.9,9.2v3.6c0,0,0,0.7-0.7,0.7c-0.7,0-0.7-0.8-0.7-0.8v-6c0,0,0-1.1,1.3-1.3h2.8h0h2.8c1.3,0.2,1.3,1.3,1.3,1.3v6
		c0,0,0.1,0.8-0.7,0.8c-0.7,0-0.7-0.7-0.7-0.7V9.2c0,0,0-0.2-0.2-0.2c-0.2,0-0.3,0.2-0.3,0.2v13.3c0,0-0.1,0.7-1,0.7
		c-0.9,0-1-0.7-1-0.7s0-6.2,0-6.5C11.9,15.6,11.7,15.7,11.7,15.7L11.7,15.7z"/>
</g>
</svg>
