<?xml version="1.0" encoding="utf-8"?>
<!-- Generator: Adobe Illustrator 25.2.0, SVG Export Plug-In . SVG Version: 6.00 Build 0)  -->
<svg version="1.1" id="Layer_1" xmlns="http://www.w3.org/2000/svg" xmlns:xlink="http://www.w3.org/1999/xlink" x="0px" y="0px"
	 viewBox="0 0 23.5 23.5" style="enable-background:new 0 0 23.5 23.5;" xml:space="preserve">
<style type="text/css">
	.st0{fill:#B4C3D3;}
	.st1{fill:#FFFFFF;}
	.st2{fill-rule:evenodd;clip-rule:evenodd;fill:#B4C3D3;}
	.st3{fill:none;}
</style>
<g>
	<path class="st2" d="M11.3,19.4c-4.7,0-8.5-3.8-8.5-8.5c0-4.7,3.8-8.5,8.5-8.5c4.7,0,8.5,3.8,8.5,8.5C19.8,15.6,16,19.4,11.3,19.4
		L11.3,19.4z M4.7,10.9c0,1.5,0.5,2.8,1.3,3.9l9.2-9.2c-1.1-0.8-2.4-1.3-3.9-1.3C7.7,4.3,4.7,7.2,4.7,10.9L4.7,10.9z M16.6,7
		l-9.2,9.2c1.1,0.8,2.4,1.3,3.9,1.3c3.6,0,6.6-3,6.6-6.6C17.9,9.4,17.4,8.1,16.6,7L16.6,7z"/>
</g>
</svg>
