<?xml version="1.0" encoding="utf-8"?>
<!-- Generator: Adobe Illustrator 25.2.0, SVG Export Plug-In . SVG Version: 6.00 Build 0)  -->
<svg version="1.1" id="Layer_1" xmlns="http://www.w3.org/2000/svg" xmlns:xlink="http://www.w3.org/1999/xlink" x="0px" y="0px"
	 viewBox="0 0 23.5 23.5" style="enable-background:new 0 0 23.5 23.5;" xml:space="preserve">
<style type="text/css">
	.st0{fill:#B4C3D3;}
	.st1{fill:#FFFFFF;}
	.st2{fill-rule:evenodd;clip-rule:evenodd;fill:#B4C3D3;}
	.st3{fill:none;}
</style>
<g>
	<g>
		<path class="st0" d="M21,10.2c0,4.9-4,8.9-8.9,8.9c-4.9,0-8.9-4-8.9-8.9c0-4.9,4-8.9,8.9-8.9C17,1.3,21,5.3,21,10.2z M17.1,13.6
			c0.6-1,1-2.1,1-3.4c0-3.4-2.7-6.1-6.1-6.1c-1.2,0-2.3,0.4-3.3,1L17.1,13.6z M7,7c-0.6,1-1,2.1-1,3.4c0,3.4,2.7,6.1,6.1,6.1
			c1.2,0,2.3-0.4,3.3-1L7,7z"/>
	</g>
</g>
</svg>
