<?xml version="1.0" encoding="utf-8"?>
<!-- Generator: Adobe Illustrator 25.2.0, SVG Export Plug-In . SVG Version: 6.00 Build 0)  -->
<svg version="1.1" id="Layer_1" xmlns="http://www.w3.org/2000/svg" xmlns:xlink="http://www.w3.org/1999/xlink" x="0px" y="0px"
	 viewBox="0 0 23.5 23.5" style="enable-background:new 0 0 23.5 23.5;" xml:space="preserve">
<style type="text/css">
	.st0{fill:#B4C3D3;}
	.st1{fill:#FFFFFF;}
	.st2{fill-rule:evenodd;clip-rule:evenodd;fill:#B4C3D3;}
	.st3{fill:none;}
</style>
<path class="st0" d="M17.7,19.9H4.6l-1.2-1.2V6.9V5.7V4.5l1.2-1.2H7v1.2H4.6v1.2H7v1.2H4.6v11.9h13.1v-7.1l1.2-1.2v8.3L17.7,19.9
	L17.7,19.9z M11.7,5.7l-1.2,1.2H8.2V5.7V4.5V3.3V2.1h5.9v1.2l-1.2,1.2L11.7,5.7L11.7,5.7z M11.7,3.9V3.3h-0.6h-0.6v0.6v0.6h0.6h0.6
	V3.9L11.7,3.9z M18.8,6.9l-2.4-2.4l1.2-1.2h1.2L20,4.5v1.2L18.8,6.9L18.8,6.9z M9.3,16.4L7,14l8.3-8.3l2.4,2.4L9.3,16.4L9.3,16.4z
	 M8.2,16.4l-2.4,1.2L7,15.2L8.2,16.4L8.2,16.4z"/>
</svg>
