<?xml version="1.0" encoding="utf-8"?>
<!-- Generator: Adobe Illustrator 25.2.0, SVG Export Plug-In . SVG Version: 6.00 Build 0)  -->
<svg version="1.1" id="Layer_1" xmlns="http://www.w3.org/2000/svg" xmlns:xlink="http://www.w3.org/1999/xlink" x="0px" y="0px"
	 viewBox="0 0 23.5 23.5" style="enable-background:new 0 0 23.5 23.5;" xml:space="preserve">
<style type="text/css">
	.st0{fill:#B4C3D3;}
	.st1{fill:#FFFFFF;}
	.st2{fill-rule:evenodd;clip-rule:evenodd;fill:#B4C3D3;}
	.st3{fill:none;}
</style>
<path class="st2" d="M18.5,19.6H7.6v-17h5.1v9.5c0,0,0.9-1.4,1.4-1.7c0.5-0.3,1.2-0.3,1.7,0c0.5,0.3,1.4,1.7,1.4,1.7V2.5h1.4
	c0.3,0,0.7,0.4,0.7,0.7v15.7C19.2,19.2,18.8,19.6,18.5,19.6L18.5,19.6z M4.2,18.9V3.2c0-0.3,0.4-0.7,0.7-0.7h1.4v17H4.9
	C4.6,19.6,4.2,19.2,4.2,18.9L4.2,18.9z"/>
</svg>
