<?xml version="1.0" encoding="utf-8"?>
<!-- Generator: Adobe Illustrator 25.2.0, SVG Export Plug-In . SVG Version: 6.00 Build 0)  -->
<svg version="1.1" id="Layer_1" xmlns="http://www.w3.org/2000/svg" xmlns:xlink="http://www.w3.org/1999/xlink" x="0px" y="0px"
	 viewBox="0 0 23.5 23.5" style="enable-background:new 0 0 23.5 23.5;" xml:space="preserve">
<style type="text/css">
	.st0{fill:#B4C3D3;}
	.st1{fill:#FFFFFF;}
	.st2{fill-rule:evenodd;clip-rule:evenodd;fill:#B4C3D3;}
	.st3{fill:none;}
</style>
<g>
	<path class="st0" d="M14.6,15.3c-0.8-0.9-2-1.4-3.3-1.4c-1.3,0-2.5,0.6-3.3,1.4l-1.6-1.6c1.3-1.3,3-2.1,5-2.1c1.9,0,3.7,0.8,5,2.1
		L14.6,15.3L14.6,15.3z M17.9,12c-1.7-1.7-4-2.8-6.6-2.8c-2.6,0-4.9,1.1-6.6,2.8l-1.6-1.6C5.2,8.3,8.1,7,11.3,7s6.1,1.3,8.2,3.4
		L17.9,12L17.9,12z M11.3,18.6l-1.7-1.7c0.4-0.5,1-0.8,1.7-0.8s1.3,0.3,1.7,0.8L11.3,18.6L11.3,18.6z"/>
</g>
</svg>
