<?xml version="1.0" encoding="utf-8"?>
<!-- Generator: Adobe Illustrator 25.2.0, SVG Export Plug-In . SVG Version: 6.00 Build 0)  -->
<svg version="1.1" id="Layer_1" xmlns="http://www.w3.org/2000/svg" xmlns:xlink="http://www.w3.org/1999/xlink" x="0px" y="0px"
	 viewBox="0 0 23.5 23.5" style="enable-background:new 0 0 23.5 23.5;" xml:space="preserve">
<style type="text/css">
	.st0{fill:#B4C3D3;}
	.st1{fill:#FFFFFF;}
	.st2{fill-rule:evenodd;clip-rule:evenodd;fill:#B4C3D3;}
	.st3{fill:none;}
</style>
<g>
	<path class="st2" d="M17.4,15.1h1.2v1.2h-1.2V15.1L17.4,15.1z M6.7,15.1h1.2v1.2H6.7V15.1L6.7,15.1z M4.3,15.1h1.2v1.2H4.3V15.1
		L4.3,15.1z M4.3,4.4h14.2v9.5H4.3V4.4L4.3,4.4z M5.5,3.2c-1.2,0-2.4,1.2-2.4,2.4v9.5c0,1.2,1.2,2.4,2.4,2.4h11.9
		c1.2,0,2.4-1.2,2.4-2.4V5.6c0-1.2-1.2-2.4-2.4-2.4H5.5L5.5,3.2z M6.7,7.4c0,0.3,0.2,0.5,0.5,0.5c0.3,0,0.5-0.2,0.5-0.5
		c0-0.3-0.2-0.5-0.5-0.5C7,6.8,6.7,7.1,6.7,7.4L6.7,7.4z M5.5,11.4c0,0.5,0.2,1,0.6,1.3h11.3V5.9C17.1,5.8,17.1,6,16.8,6
		c-1.4,0-2.5,0.6-3.3,1.7c-0.2-0.5-0.6-0.9-1.2-0.9C11.5,6.7,11,7.3,11,8l0,0.2c-1.4,0-2.5,0.9-2.8,2.2c-0.3-0.2-0.6-0.3-1-0.3
		C6.2,10,5.5,10.5,5.5,11.4L5.5,11.4z"/>
</g>
</svg>
