<?xml version="1.0" encoding="utf-8"?>
<!-- Generator: Adobe Illustrator 25.2.0, SVG Export Plug-In . SVG Version: 6.00 Build 0)  -->
<svg version="1.1" id="Layer_1" xmlns="http://www.w3.org/2000/svg" xmlns:xlink="http://www.w3.org/1999/xlink" x="0px" y="0px"
	 viewBox="0 0 23.5 23.5" style="enable-background:new 0 0 23.5 23.5;" xml:space="preserve">
<style type="text/css">
	.st0{fill:#B4C3D3;}
	.st1{fill:#FFFFFF;}
	.st2{fill-rule:evenodd;clip-rule:evenodd;fill:#B4C3D3;}
	.st3{fill:none;}
</style>
<g>
	<path class="st2" d="M6.4,14.9c0-3,2.4-5.3,5.3-5.3c0.2,0,0.4,0,0.6,0c-2.7,0.3-4.8,2.6-4.8,5.3s2.1,5,4.8,5.3c-0.2,0-0.4,0-0.6,0
		C8.8,20.2,6.4,17.8,6.4,14.9L6.4,14.9z M12.3,4.8h-1.2V6v1.2H9.9v1.4c-2.7,0.8-4.8,3.3-4.8,6.3c0,3.6,2.9,6.5,6.5,6.5
		c3.6,0,6.5-2.9,6.5-6.5c0-3-2-5.5-4.8-6.3V7.2h-1.2V6V4.8L12.3,4.8z M5.2,4.8h1.2V3.6H5.2V4.8L5.2,4.8z M6.4,7.2V6H5.2v1.2H6.4
		L6.4,7.2z M8.7,6H7.6v1.2h1.2V6L8.7,6z M6.4,4.8V6h1.2V4.8H6.4L6.4,4.8z M7.6,3.6v1.2h1.2V3.6h1.2V2.4H8.7H7.6V3.6L7.6,3.6z
		 M11.1,3.6H9.9v1.2h1.2V3.6L11.1,3.6z"/>
</g>
</svg>
