<?xml version="1.0" encoding="utf-8"?>
<!-- Generator: Adobe Illustrator 25.2.0, SVG Export Plug-In . SVG Version: 6.00 Build 0)  -->
<svg version="1.1" id="Layer_1" xmlns="http://www.w3.org/2000/svg" xmlns:xlink="http://www.w3.org/1999/xlink" x="0px" y="0px"
	 viewBox="0 0 23.5 23.5" style="enable-background:new 0 0 23.5 23.5;" xml:space="preserve">
<style type="text/css">
	.st0{fill:#B4C3D3;}
	.st1{fill:#FFFFFF;}
	.st2{fill-rule:evenodd;clip-rule:evenodd;fill:#B4C3D3;}
	.st3{fill:none;}
</style>
<g>
	<path class="st0" d="M19.2,12.8c0,4.2-3.4,7.6-7.6,7.6C7.4,20.4,4,17,4,12.8s3.4-7.6,7.6-7.6C15.8,5.2,19.2,8.6,19.2,12.8z
		 M11.6,6.7c-3.4,0-6.1,2.7-6.1,6.1c0,3.4,2.7,6.1,6.1,6.1c3.4,0,6.1-2.7,6.1-6.1C17.7,9.4,14.9,6.7,11.6,6.7z"/>
	<path class="st0" d="M12.2,8.5c0,0.4-0.3,0.7-0.7,0.7c-0.4,0-0.7-0.3-0.7-0.7c0-0.4,0.3-0.7,0.7-0.7C11.9,7.9,12.2,8.2,12.2,8.5z"
		/>
	<path class="st0" d="M12.2,17.1c0,0.4-0.3,0.7-0.7,0.7c-0.4,0-0.7-0.3-0.7-0.7c0-0.4,0.3-0.7,0.7-0.7
		C11.9,16.4,12.2,16.7,12.2,17.1z"/>
	<path class="st0" d="M7.8,12.7c0,0.4-0.3,0.7-0.7,0.7c-0.4,0-0.7-0.3-0.7-0.7c0-0.4,0.3-0.7,0.7-0.7C7.6,12.1,7.8,12.4,7.8,12.7z"
		/>
	<circle class="st0" cx="16" cy="12.7" r="0.7"/>
	<path class="st0" d="M12,13.2c0,0.3-0.3,0.6-0.6,0.6l0,0c-0.3,0-0.6-0.3-0.6-0.6v-2.7c0-0.3,0.3-0.6,0.6-0.6l0,0
		c0.3,0,0.6,0.3,0.6,0.6V13.2z"/>
	<path class="st0" d="M13.7,14.8c0.2,0.2,0.2,0.6,0,0.8l0,0c-0.2,0.2-0.6,0.2-0.8,0L11,13.8c-0.2-0.2-0.2-0.6,0-0.8l0,0
		c0.2-0.2,0.6-0.2,0.8,0L13.7,14.8z"/>
</g>
</svg>
