<?xml version="1.0" encoding="utf-8"?>
<!-- Generator: Adobe Illustrator 25.2.0, SVG Export Plug-In . SVG Version: 6.00 Build 0)  -->
<svg version="1.1" id="Layer_1" xmlns="http://www.w3.org/2000/svg" xmlns:xlink="http://www.w3.org/1999/xlink" x="0px" y="0px"
	 viewBox="0 0 23.5 23.5" style="enable-background:new 0 0 23.5 23.5;" xml:space="preserve">
<style type="text/css">
	.st0{fill:#B4C3D3;}
	.st1{fill:#FFFFFF;}
	.st2{fill-rule:evenodd;clip-rule:evenodd;fill:#B4C3D3;}
	.st3{fill:none;}
</style>
<g>
	<path class="st2" d="M3.4,15.6c-0.5-0.9,0.1-1.9,1.3-3c0.1,0.2,0.2,0.4,0.2,0.7C4.3,14,4,14.6,4.3,15.1c0.8,1.3,6.3-1.5,8.6-2.7
		c2.3-1.1,6.8-4.1,6-5.4c-0.3-0.5-0.9-0.6-1.8-0.5c-0.2-0.1-0.3-0.3-0.5-0.5c1.6-0.5,2.8-0.4,3.3,0.5c1.1,1.8,0.2,4.8-5.9,8.2
		C7.9,18,4.4,17.4,3.4,15.6L3.4,15.6z M12.7,12.1c-1.5,0.8-4.3,2.2-6.6,2.9c-0.8-1.1-1.3-2.5-1.3-4c0-3.8,3-6.8,6.8-6.8
		c2.9,0,5.4,1.9,6.3,4.4C16.3,10,14.1,11.4,12.7,12.1L12.7,12.1z M18.4,12c-0.4,3.4-3.3,5.9-6.8,5.9c-1,0-2-0.1-2.8-0.5
		c1.5-0.4,3.3-1.2,5.2-2.2C15.9,14.1,17.2,13,18.4,12L18.4,12z"/>
</g>
</svg>
