<?xml version="1.0" encoding="utf-8"?>
<!-- Generator: Adobe Illustrator 25.2.0, SVG Export Plug-In . SVG Version: 6.00 Build 0)  -->
<svg version="1.1" id="Layer_1" xmlns="http://www.w3.org/2000/svg" xmlns:xlink="http://www.w3.org/1999/xlink" x="0px" y="0px"
	 viewBox="0 0 23.5 23.5" style="enable-background:new 0 0 23.5 23.5;" xml:space="preserve">
<style type="text/css">
	.st0{fill:#B4C3D3;}
	.st1{fill:#FFFFFF;}
	.st2{fill-rule:evenodd;clip-rule:evenodd;fill:#B4C3D3;}
	.st3{fill:none;}
</style>
<path class="st2" d="M18.2,18.7H5.4c-1.2,0-2.1-1-2.1-2.1V7.2c0-1.2,1-2.1,2.1-2.1h12.8c1.2,0,2.1,1,2.1,2.1v9.4
	C20.3,17.8,19.4,18.7,18.2,18.7L18.2,18.7z M4.8,16.6l0.6,0.6c0.1,0.1,0.3,0.1,0.5-0.1l1.7-1.7C7.8,15.6,8,15.8,8.2,16
	C8.3,16.1,8.5,16,8.5,16c0.2,0,0.4-0.2,0.4-0.4L9,13.3C9,13.1,8.9,13,8.7,13l-2.4,0.1c-0.2,0-0.4,0.2-0.4,0.4c0,0,0,0.2,0.1,0.3
	c0.1,0.1,0.4,0.3,0.6,0.6l-1.7,1.7C4.7,16.3,4.7,16.5,4.8,16.6L4.8,16.6z M8.9,8.2c0-0.2-0.2-0.4-0.4-0.4c0,0-0.2,0-0.3,0.1
	C8,8,7.8,8.2,7.6,8.4L5.9,6.7C5.7,6.6,5.5,6.5,5.4,6.7L4.8,7.3C4.7,7.4,4.7,7.6,4.9,7.7l1.7,1.7C6.4,9.7,6.2,9.9,6,10
	C5.9,10.1,6,10.3,6,10.3c0,0.2,0.2,0.4,0.4,0.4l2.3,0.1c0.2,0,0.4-0.2,0.3-0.3L8.9,8.2L8.9,8.2z M18.3,7.3l-0.6-0.6
	c-0.1-0.1-0.3-0.1-0.5,0.1l-1.7,1.7C15.3,8.2,15.1,8,15,7.9c-0.1-0.1-0.3-0.1-0.3-0.1c-0.2,0-0.4,0.2-0.4,0.4l-0.1,2.3
	c0,0.2,0.1,0.4,0.4,0.3l2.3-0.1c0.2,0,0.4-0.2,0.4-0.4c0,0,0-0.2-0.1-0.3c-0.1-0.1-0.4-0.4-0.6-0.6l1.7-1.7
	C18.4,7.6,18.4,7.4,18.3,7.3L18.3,7.3z M18.3,16.1l-1.7-1.7c0.2-0.2,0.4-0.4,0.6-0.6c0.1-0.1,0.1-0.3,0.1-0.3c0-0.2-0.2-0.4-0.4-0.4
	L14.5,13c-0.2,0-0.4,0.2-0.3,0.4l0.1,2.3c0,0.2,0.2,0.4,0.4,0.4c0,0,0.2,0,0.3-0.1c0.1-0.1,0.4-0.4,0.6-0.6l1.7,1.7
	c0.1,0.2,0.4,0.2,0.5,0.1l0.6-0.6C18.5,16.5,18.4,16.3,18.3,16.1L18.3,16.1z"/>
</svg>
