<?xml version="1.0" encoding="utf-8"?>
<!-- Generator: Adobe Illustrator 25.2.0, SVG Export Plug-In . SVG Version: 6.00 Build 0)  -->
<svg version="1.1" id="Layer_1" xmlns="http://www.w3.org/2000/svg" xmlns:xlink="http://www.w3.org/1999/xlink" x="0px" y="0px"
	 viewBox="0 0 23.5 23.5" style="enable-background:new 0 0 23.5 23.5;" xml:space="preserve">
<style type="text/css">
	.st0{fill:#B4C3D3;}
	.st1{fill:#FFFFFF;}
	.st2{fill-rule:evenodd;clip-rule:evenodd;fill:#B4C3D3;}
	.st3{fill:none;}
</style>
<g>
	<path class="st2" d="M12,19.8c-4.5,0-8.1-3.6-8.1-8.1c0-4.5,3.6-8.1,8.1-8.1c4.5,0,8.1,3.6,8.1,8.1C20.1,16.2,16.5,19.8,12,19.8
		L12,19.8z M12,18.8c0.6,0,1-0.5,1-1c0-0.6-0.5-1-1-1c-0.6,0-1,0.5-1,1C11,18.4,11.5,18.8,12,18.8L12,18.8z M5.9,10.7
		c-0.6,0-1,0.5-1,1c0,0.6,0.5,1,1,1c0.6,0,1-0.5,1-1C6.9,11.2,6.5,10.7,5.9,10.7L5.9,10.7z M12,4.6c-0.6,0-1,0.5-1,1
		c0,0.6,0.5,1,1,1c0.6,0,1-0.5,1-1C13,5.1,12.6,4.6,12,4.6L12,4.6z M14,11.7h-2V7.7h-1v4.1v1h3V11.7L14,11.7z M18.1,10.7
		c-0.6,0-1,0.5-1,1c0,0.6,0.5,1,1,1c0.6,0,1-0.5,1-1C19.1,11.2,18.7,10.7,18.1,10.7L18.1,10.7z"/>
</g>
</svg>
