<?xml version="1.0" encoding="utf-8"?>
<!-- Generator: Adobe Illustrator 25.2.0, SVG Export Plug-In . SVG Version: 6.00 Build 0)  -->
<svg version="1.1" id="Layer_1" xmlns="http://www.w3.org/2000/svg" xmlns:xlink="http://www.w3.org/1999/xlink" x="0px" y="0px"
	 viewBox="0 0 23.5 23.5" style="enable-background:new 0 0 23.5 23.5;" xml:space="preserve">
<style type="text/css">
	.st0{fill:#B4C3D3;}
	.st1{fill:#FFFFFF;}
	.st2{fill-rule:evenodd;clip-rule:evenodd;fill:#B4C3D3;}
	.st3{fill:none;}
</style>
<g>
	<path class="st2" d="M9.4,11.8L4.3,17c-0.6,0.6-0.6,1.5-0.1,2l1.2,1.2c0.5,0.5,1.5,0.5,2-0.1l5.2-5.2c0.6-0.6,0.6-1.5,0.1-2
		l-0.1-0.1l5.3-5.3l0.8,0.2L21,4.5l-1-1l-3.3,2.3l0.2,0.8l-5.3,5.3l-0.1-0.1C10.9,11.2,10,11.2,9.4,11.8L9.4,11.8z"/>
	<path class="st2" d="M13,16.9l3.2,3.1c0.7,0.6,1.8,0.6,2.4-0.1l0.7-0.6c0.7-0.7,0.7-1.8,0.1-2.4l-4.3-4.4l-0.5,0.5l0.2,0.2
		c-0.5,0.5-0.5,1.4,0,1.9L13,16.9L13,16.9z M11.4,9.8L12,9.3l-0.2-0.2c0.4-1.6,0-3.4-1.2-4.7C9,2.7,6.7,2.3,4.8,3.2L7.6,6
		c0.3,0.3,0.3,0.9,0,1.2L6.5,8.3c-0.3,0.3-0.8,0.3-1.2,0L2.4,5.5C1.6,7.4,2,9.7,3.6,11.2c0.8,0.8,1.8,1.2,2.8,1.4l3-2.9
		c0.5,0.5,1.4,0.5,1.9,0L11.4,9.8L11.4,9.8z"/>
</g>
</svg>
