<?xml version="1.0" encoding="utf-8"?>
<!-- Generator: Adobe Illustrator 25.2.0, SVG Export Plug-In . SVG Version: 6.00 Build 0)  -->
<svg version="1.1" id="Layer_1" xmlns="http://www.w3.org/2000/svg" xmlns:xlink="http://www.w3.org/1999/xlink" x="0px" y="0px"
	 viewBox="0 0 23.5 23.5" style="enable-background:new 0 0 23.5 23.5;" xml:space="preserve">
<style type="text/css">
	.st0{fill:#B4C3D3;}
	.st1{fill:#FFFFFF;}
	.st2{fill-rule:evenodd;clip-rule:evenodd;fill:#B4C3D3;}
	.st3{fill:none;}
</style>
<path class="st2" d="M19.9,11.7c-1.9,1.2-7.9,4.8-9.8,6c-0.8,0.5-1.4,0.4-1.4-0.8c0-0.4,0-0.9,0-1.6c-1.6,1-3.1,1.9-3.9,2.4
	c-0.8,0.5-1.5,0.4-1.5-0.8c0-2.2,0-9.4,0-11.9c0-1,0.6-1.3,1.4-0.7c0.9,0.5,2.4,1.5,4,2.5c0-0.7,0-1.3,0-1.7c0-1,0.6-1.3,1.4-0.7
	c2.1,1.3,7.9,4.9,9.8,6C20.4,10.7,20.4,11.4,19.9,11.7L19.9,11.7z"/>
</svg>
