<?xml version="1.0" encoding="utf-8"?>
<!-- Generator: Adobe Illustrator 25.2.0, SVG Export Plug-In . SVG Version: 6.00 Build 0)  -->
<svg version="1.1" id="Layer_1" xmlns="http://www.w3.org/2000/svg" xmlns:xlink="http://www.w3.org/1999/xlink" x="0px" y="0px"
	 viewBox="0 0 23.5 23.5" style="enable-background:new 0 0 23.5 23.5;" xml:space="preserve">
<style type="text/css">
	.st0{fill:#B4C3D3;}
	.st1{fill:#FFFFFF;}
	.st2{fill-rule:evenodd;clip-rule:evenodd;fill:#B4C3D3;}
	.st3{fill:none;}
</style>
<path class="st2" d="M4.9,6h2.4v1.2h1.2V6H18v2.4h-1.2v1.2H18v3.6h-1.2v1.2H18v2.4H8.5v-1.2H7.3v1.2H4.9V6L4.9,6z M3.7,6v10.7
	l1.2,1.2H18l1.2-1.2V6L18,4.8H4.9L3.7,6L3.7,6z M14.4,8.4v1.2h1.2V8.4H14.4L14.4,8.4z M12,8.4v1.2h1.2V8.4H12L12,8.4z M9.7,8.4v1.2
	h1.2V8.4H9.7L9.7,8.4z M14.4,13.1v1.2h1.2v-1.2H14.4L14.4,13.1z M12,13.1v1.2h1.2v-1.2H12L12,13.1z M9.7,13.1v1.2h1.2v-1.2H9.7
	L9.7,13.1z M7.3,13.1v1.2h1.2v-1.2H7.3L7.3,13.1z M7.3,10.7v1.2h1.2v-1.2H7.3L7.3,10.7z M7.3,8.4v1.2h1.2V8.4H7.3L7.3,8.4z"/>
</svg>
