<?xml version="1.0" encoding="utf-8"?>
<!-- Generator: Adobe Illustrator 25.2.0, SVG Export Plug-In . SVG Version: 6.00 Build 0)  -->
<svg version="1.1" id="Layer_1" xmlns="http://www.w3.org/2000/svg" xmlns:xlink="http://www.w3.org/1999/xlink" x="0px" y="0px"
	 viewBox="0 0 23.5 23.5" style="enable-background:new 0 0 23.5 23.5;" xml:space="preserve">
<style type="text/css">
	.st0{fill:#B4C3D3;}
	.st1{fill:#FFFFFF;}
	.st2{fill-rule:evenodd;clip-rule:evenodd;fill:#B4C3D3;}
	.st3{fill:none;}
</style>
<g>
	<path class="st0" d="M7.2,3.7c0,0,2-1,2.7,0.3c0.7,1.4,1.3,2.7,1.3,2.8c0,0.1,0.5,1.7-1.3,2.1c0,0-1,0.4-1.2,0.7
		c0,0,0.3,3.3,3.6,7.1c0,0,0.2,0.2,0.6-0.3c0.5-0.5,1.8-2.6,3.3-0.9l2,2.8c0,0,0.5,1.2-0.6,1.9l-2.1,1.7c0,0-1.3,0.4-2.5-0.7
		c0,0-6.2-5-8.1-13.7C4.9,7.6,3.8,4.6,7.2,3.7z"/>
</g>
</svg>
