<?xml version="1.0" encoding="utf-8"?>
<!-- Generator: Adobe Illustrator 25.2.0, SVG Export Plug-In . SVG Version: 6.00 Build 0)  -->
<svg version="1.1" id="Layer_1" xmlns="http://www.w3.org/2000/svg" xmlns:xlink="http://www.w3.org/1999/xlink" x="0px" y="0px"
	 viewBox="0 0 23.5 23.5" style="enable-background:new 0 0 23.5 23.5;" xml:space="preserve">
<style type="text/css">
	.st0{fill:#B4C3D3;}
	.st1{fill:#FFFFFF;}
	.st2{fill-rule:evenodd;clip-rule:evenodd;fill:#B4C3D3;}
	.st3{fill:none;}
</style>
<g>
	<path class="st2" d="M15.6,6.3c0-1.8-1.5-3.3-3.3-3.3C10.5,2.9,9,4.4,9,6.3v5c0,1.8,1.5,3.3,3.3,3.3c1.8,0,3.3-1.5,3.3-3.3V6.3
		L15.6,6.3z M17.3,12.9c-0.7,2.1-2.7,3.7-5,3.7c-2.4,0-4.3-1.5-5-3.7H5.9c0.6,2.3,2.4,4.2,4.8,4.8c0,0.1,0,0.1,0,0.2v1.7H8.1
		c-0.5,0-0.8,0.4-0.8,0.8c0,0.5,0.4,0.8,0.8,0.8h8.3c0.5,0,0.8-0.4,0.8-0.8c0-0.5-0.4-0.8-0.8-0.8H14v-1.7c0-0.1,0-0.1,0-0.2
		c2.3-0.6,4.2-2.4,4.8-4.8H17.3L17.3,12.9z"/>
</g>
</svg>
