<?xml version="1.0" encoding="utf-8"?>
<!-- Generator: Adobe Illustrator 25.2.0, SVG Export Plug-In . SVG Version: 6.00 Build 0)  -->
<svg version="1.1" id="Layer_1" xmlns="http://www.w3.org/2000/svg" xmlns:xlink="http://www.w3.org/1999/xlink" x="0px" y="0px"
	 viewBox="0 0 23.5 23.5" style="enable-background:new 0 0 23.5 23.5;" xml:space="preserve">
<style type="text/css">
	.st0{fill:#B4C3D3;}
	.st1{fill:#FFFFFF;}
	.st2{fill-rule:evenodd;clip-rule:evenodd;fill:#B4C3D3;}
	.st3{fill:none;}
</style>
<path class="st2" d="M20.6,9.2c0.1,0.1,0.1,2.3,0,2.4c-0.1,0.1-1.9,0-2.4,0.3c-0.1,0.6-0.4,1.1-0.6,1.6c0,0.5,1.5,1.8,1.5,2
	c0,0.2-1.5,1.7-1.7,1.7c-0.2,0-1.3-1.3-1.9-1.5c-0.4,0.3-0.9,0.5-1.4,0.6c-0.4,0.3-0.3,2.3-0.4,2.5c-0.1,0.1-2.3,0.1-2.4,0
	c-0.1-0.1,0-1.8-0.3-2.4c-0.5-0.1-1-0.3-1.5-0.6l0,0c-0.4-0.4-1.9,1.4-2.1,1.4c-0.2,0-1.7-1.5-1.7-1.7c0-0.2,1.3-1.3,1.5-1.9
	c-0.3-0.5-0.6-1.1-0.7-1.7c-0.3-0.4-2.4-0.3-2.5-0.4c-0.1-0.1-0.1-2.3,0-2.4c0.1-0.1,2.1,0,2.5-0.3c0.1-0.5,0.3-1,0.6-1.4
	c0,0,0,0,0,0c0.4-0.4-1.4-2-1.4-2.1c0-0.2,1.5-1.7,1.7-1.7c0.2,0,1.5,1.5,2,1.5c0.4-0.3,0.9-0.5,1.5-0.6c0,0,0.1,0,0.1-0.1
	C11.1,4.1,11,2.1,11.1,2c0.1-0.1,2.3-0.1,2.4,0c0.1,0.1,0,2.2,0.4,2.5c0,0,0.1,0,0.1,0.1c0.5,0.1,0.9,0.3,1.3,0.6
	c0.5,0.1,1.9-1.5,2-1.5c0.2,0,1.7,1.5,1.7,1.7c0,0.2-1.5,1.5-1.5,2.1c0.2,0.4,0.4,0.9,0.5,1.3C18.4,9.2,20.5,9.1,20.6,9.2L20.6,9.2z
	 M12.2,6.6c-2.2,0-3.9,1.7-3.9,3.9c0,2.2,1.7,3.9,3.9,3.9s3.9-1.7,3.9-3.9C16.1,8.3,14.3,6.6,12.2,6.6L12.2,6.6z M12.2,12.6
	c-1.2,0-2.1-1-2.1-2.1s1-2.1,2.1-2.1c1.2,0,2.1,1,2.1,2.1S13.4,12.6,12.2,12.6L12.2,12.6z"/>
</svg>
