<?xml version="1.0" encoding="utf-8"?>
<!-- Generator: Adobe Illustrator 25.2.0, SVG Export Plug-In . SVG Version: 6.00 Build 0)  -->
<svg version="1.1" id="Layer_1" xmlns="http://www.w3.org/2000/svg" xmlns:xlink="http://www.w3.org/1999/xlink" x="0px" y="0px"
	 viewBox="0 0 23.5 23.5" style="enable-background:new 0 0 23.5 23.5;" xml:space="preserve">
<style type="text/css">
	.st0{fill:#B4C3D3;}
	.st1{fill:#FFFFFF;}
	.st2{fill-rule:evenodd;clip-rule:evenodd;fill:#B4C3D3;}
	.st3{fill:none;}
</style>
<g>
	<path class="st2" d="M17.1,20.2L17.1,20.2c-0.5,0-0.9-0.4-0.9-0.8v-5.8c-0.5-0.2-1.4-1.5-1.3-3.5C15,8,15.7,4.7,16.1,3.9
		c0.4-0.8,0.6-0.8,1-0.8h0.1c0.5,0,0.7,0.8,0.7,1.2v7.3V12v7.3C17.9,19.8,17.5,20.2,17.1,20.2L17.1,20.2z M8.6,11.8L8.6,11.8v7.6
		c0,0.4-0.4,0.8-0.8,0.8H7.7c-0.4,0-0.8-0.4-0.8-0.8v-7.6l0,0c-1.2-0.6-2-2.2-2-4.3c0-1.3,0.4-2.6,1-3.4C6,4.1,6.4,8.3,6.4,8.3
		l0.3,0l1.1-5.1l1.1,5.1l0.3,0c0,0,0.4-4.1,0.5-4.1c0.6,0.8,1,2,1,3.3C10.6,9.5,9.8,11.2,8.6,11.8L8.6,11.8z"/>
</g>
</svg>
