<?xml version="1.0" encoding="utf-8"?>
<!-- Generator: Adobe Illustrator 25.2.0, SVG Export Plug-In . SVG Version: 6.00 Build 0)  -->
<svg version="1.1" id="Layer_1" xmlns="http://www.w3.org/2000/svg" xmlns:xlink="http://www.w3.org/1999/xlink" x="0px" y="0px"
	 viewBox="0 0 23.5 23.5" style="enable-background:new 0 0 23.5 23.5;" xml:space="preserve">
<style type="text/css">
	.st0{fill:#B4C3D3;}
	.st1{fill:#FFFFFF;}
	.st2{fill-rule:evenodd;clip-rule:evenodd;fill:#B4C3D3;}
	.st3{fill:none;}
</style>
<path class="st2" d="M18.8,11.4c0,0-2.5-0.1-3.2-0.1c-0.7,0-1.1-1.5-1.3-1.6c-0.2-0.1-1,1.4-1.5,2.1c0.4,0.1,2.4,1.3,2.3,1.7
	c0,0.4-0.1,4.8-0.1,4.8s0.2,1-1.1,1c-1.3,0-1.1-1-1.1-1s0-3.4,0-3.6c0-0.2-1.5-1-1.9-1c-0.4,0-1.8,2.4-2.4,2.5c-0.6,0.1-5-1.7-5-1.7
	S2.5,13.9,3,13c0.5-1,1.5-0.4,1.5-0.4s2.8,1.2,3.1,1.1C8,13.6,8.4,12.4,9,11.8c0.1-0.3,1.5-2.3,1.5-2.3s0.8-1.3,0.7-1.5
	c-0.1-0.2-0.7,0.2-0.7,0.2s-0.9,1-2.2,1.9C7,11.1,6,9.7,6.8,9.1c0.7-0.7,2.8-3,3.8-3.2c1-0.2,2.7,0,4,0.7c1.3,0.7,1.8,2.5,2,2.8
	c0.2,0.3,2.2,0.2,2.2,0.2S20,9.4,20,10.4C20,11.4,18.8,11.4,18.8,11.4L18.8,11.4z M15.5,6.2c-1,0-1.9-0.8-1.9-1.8
	c0-1,0.8-1.9,1.9-1.9c1,0,1.9,0.8,1.9,1.9C17.4,5.4,16.6,6.2,15.5,6.2L15.5,6.2z"/>
</svg>
