<?xml version="1.0" encoding="utf-8"?>
<!-- Generator: Adobe Illustrator 25.2.0, SVG Export Plug-In . SVG Version: 6.00 Build 0)  -->
<svg version="1.1" id="Layer_1" xmlns="http://www.w3.org/2000/svg" xmlns:xlink="http://www.w3.org/1999/xlink" x="0px" y="0px"
	 viewBox="0 0 23.5 23.5" style="enable-background:new 0 0 23.5 23.5;" xml:space="preserve">
<style type="text/css">
	.st0{fill:#B4C3D3;}
	.st1{fill:#FFFFFF;}
	.st2{fill-rule:evenodd;clip-rule:evenodd;fill:#B4C3D3;}
	.st3{fill:none;}
</style>
<g>
	<path class="st2" d="M19.9,14.9C18,19.2,13,21.2,8.7,19.3c-4.3-1.9-6.3-6.9-4.4-11.2c1.9-4.3,6.9-6.3,11.2-4.4
		C19.8,5.5,21.8,10.5,19.9,14.9L19.9,14.9z M15.8,9.5h-1l-0.7-0.7v-1l1.2-1.2l-1.4,0L12.5,8v1.7l-4.6,4.6c0,0-0.7,0.7-0.1,1.4
		c0.7,0.7,1.5,0,1.5,0l4.6-4.6h1.6L17,9.6l0-1.2L15.8,9.5L15.8,9.5z M8.6,15.6C8.2,15.6,8,15.4,8,15c0-0.3,0.3-0.6,0.6-0.6
		c0.4,0,0.6,0.3,0.6,0.6C9.2,15.4,8.9,15.6,8.6,15.6L8.6,15.6z"/>
</g>
</svg>
