<?xml version="1.0" encoding="utf-8"?>
<!-- Generator: Adobe Illustrator 25.2.0, SVG Export Plug-In . SVG Version: 6.00 Build 0)  -->
<svg version="1.1" id="Layer_1" xmlns="http://www.w3.org/2000/svg" xmlns:xlink="http://www.w3.org/1999/xlink" x="0px" y="0px"
	 viewBox="0 0 23.5 23.5" style="enable-background:new 0 0 23.5 23.5;" xml:space="preserve">
<style type="text/css">
	.st0{fill:#B4C3D3;}
	.st1{fill:#FFFFFF;}
	.st2{fill-rule:evenodd;clip-rule:evenodd;fill:#B4C3D3;}
	.st3{fill:none;}
</style>
<g>
	<path class="st0" d="M20.6,14.8c0,0.6-0.5,1.1-1.1,1.1H4.1c-0.6,0-1.1-0.5-1.1-1.1V4.7c0-0.6,0.5-1.1,1.1-1.1h15.4
		c0.6,0,1.1,0.5,1.1,1.1V14.8z M19.5,5.1c0-0.3-0.3-0.6-0.6-0.6H4.5c-0.3,0-0.6,0.3-0.6,0.6v8.7c0,0.3,0.3,0.6,0.6,0.6h14.4
		c0.3,0,0.6-0.3,0.6-0.6V5.1z"/>
	<polygon class="st0" points="10.5,7 13.8,9.4 10.4,11.8 	"/>
	<polygon class="st0" points="8.8,15.6 14.7,15.6 11.7,19.7 	"/>
</g>
</svg>
