<?xml version="1.0" encoding="utf-8"?>
<!-- Generator: Adobe Illustrator 25.2.0, SVG Export Plug-In . SVG Version: 6.00 Build 0)  -->
<svg version="1.1" id="Layer_1" xmlns="http://www.w3.org/2000/svg" xmlns:xlink="http://www.w3.org/1999/xlink" x="0px" y="0px"
	 viewBox="0 0 23.5 23.5" style="enable-background:new 0 0 23.5 23.5;" xml:space="preserve">
<style type="text/css">
	.st0{fill:#B4C3D3;}
	.st1{fill:#FFFFFF;}
	.st2{fill-rule:evenodd;clip-rule:evenodd;fill:#B4C3D3;}
	.st3{fill:none;}
</style>
<path class="st2" d="M17.4,20.8H6.2c-0.5,0-0.7-0.3-0.7-0.7V4.3c0-0.5,0.1-0.6,0.6-0.6c0,0,5.4,0,8.5,0c0,0.6,0,3.3,0,3.3
	s2.6,0,3.5,0c0,4,0,13.1,0,13.1C18.1,20.6,17.9,20.8,17.4,20.8L17.4,20.8z M15.3,3.7c1.9,0,2.8,0.9,2.8,2.5c-1.3,0-2.8,0-2.8,0
	S15.3,6,15.3,3.7L15.3,3.7z"/>
</svg>
