<?xml version="1.0" encoding="utf-8"?>
<!-- Generator: Adobe Illustrator 25.2.0, SVG Export Plug-In . SVG Version: 6.00 Build 0)  -->
<svg version="1.1" id="Layer_1" xmlns="http://www.w3.org/2000/svg" xmlns:xlink="http://www.w3.org/1999/xlink" x="0px" y="0px"
	 viewBox="0 0 23.5 23.5" style="enable-background:new 0 0 23.5 23.5;" xml:space="preserve">
<style type="text/css">
	.st0{fill:#B4C3D3;}
	.st1{fill:#FFFFFF;}
	.st2{fill-rule:evenodd;clip-rule:evenodd;fill:#B4C3D3;}
	.st3{fill:none;}
</style>
<g>
	<path class="st2" d="M4.2,4.2c0.7-0.7,2.7-0.8,2.8-0.4c0,0.4,1.9,4.4,1.9,4.7c0,0.4-1.2,1.6-1.6,2c-0.4,0.4,2.4,3.5,2.5,3.5
		c0.1,0.1,3.2,2.8,3.5,2.5c0.4-0.4,1.6-1.6,1.9-1.6c0.4,0,4.4,1.9,4.7,1.9c0.4,0,0.2,2.1-0.4,2.8c-0.6,0.6-3.6,2.7-8.8-1.1
		c-0.6-0.3-1.5-1.1-2.9-2.5c0,0,0,0,0,0l0,0c0,0,0,0,0,0c0,0,0,0,0,0c-1.4-1.4-2.1-2.3-2.5-2.9C1.5,7.8,3.6,4.8,4.2,4.2L4.2,4.2z"/>
</g>
</svg>
