<?xml version="1.0" encoding="utf-8"?>
<!-- Generator: Adobe Illustrator 25.2.0, SVG Export Plug-In . SVG Version: 6.00 Build 0)  -->
<svg version="1.1" id="Layer_1" xmlns="http://www.w3.org/2000/svg" xmlns:xlink="http://www.w3.org/1999/xlink" x="0px" y="0px"
	 viewBox="0 0 23.5 23.5" style="enable-background:new 0 0 23.5 23.5;" xml:space="preserve">
<style type="text/css">
	.st0{fill:#B4C3D3;}
	.st1{fill:#FFFFFF;}
	.st2{fill-rule:evenodd;clip-rule:evenodd;fill:#B4C3D3;}
	.st3{fill:none;}
</style>
<g>
	<path class="st2" d="M19.1,3.8V5h1.2V3.8H19.1L19.1,3.8z M19.1,6.1V5H18v1.2H19.1L19.1,6.1z M14.4,9.7h1.2v5.9H9.6v-1.2h1.2v-1.2
		H12v-1.2h1.2v-1.2h1.2V9.7L14.4,9.7z M18,8.5V6.1H8.5V2.6H6.1v3.6H2.5v2.4h3.6v7.1V18h2.4h7.1v3.6H18V18h3.6v-2.4H18V8.5L18,8.5z
		 M8.5,14.5V8.5h5.9v1.2h-1.2v1.2H12v1.2h-1.2v1.2H9.6v1.2H8.5L8.5,14.5z"/>
</g>
</svg>
