<?xml version="1.0" encoding="utf-8"?>
<!-- Generator: Adobe Illustrator 25.2.0, SVG Export Plug-In . SVG Version: 6.00 Build 0)  -->
<svg version="1.1" id="Layer_1" xmlns="http://www.w3.org/2000/svg" xmlns:xlink="http://www.w3.org/1999/xlink" x="0px" y="0px"
	 viewBox="0 0 23.5 23.5" style="enable-background:new 0 0 23.5 23.5;" xml:space="preserve">
<style type="text/css">
	.st0{fill:#B4C3D3;}
	.st1{fill:#FFFFFF;}
	.st2{fill-rule:evenodd;clip-rule:evenodd;fill:#B4C3D3;}
	.st3{fill:none;}
</style>
<g>
	<path class="st2" d="M17.2,16.9c-3.2,3.2-8.3,3.2-11.5,0c-3.2-3.2-3.2-8.3,0-11.5c3.2-3.2,8.3-3.2,11.5,0
		C20.3,8.6,20.3,13.7,17.2,16.9L17.2,16.9z M11.4,16.2c1,0,2-0.3,2.8-0.8l-7-7c-0.5,0.8-0.8,1.8-0.8,2.8C6.4,14,8.6,16.2,11.4,16.2
		L11.4,16.2z M11.4,6.1c-1,0-2,0.3-2.8,0.8l7,7c0.5-0.8,0.8-1.8,0.8-2.8C16.5,8.4,14.2,6.1,11.4,6.1L11.4,6.1z"/>
</g>
</svg>
