<?xml version="1.0" encoding="utf-8"?>
<!-- Generator: Adobe Illustrator 25.2.0, SVG Export Plug-In . SVG Version: 6.00 Build 0)  -->
<svg version="1.1" id="Layer_1" xmlns="http://www.w3.org/2000/svg" xmlns:xlink="http://www.w3.org/1999/xlink" x="0px" y="0px"
	 viewBox="0 0 23.5 23.5" style="enable-background:new 0 0 23.5 23.5;" xml:space="preserve">
<style type="text/css">
	.st0{fill:#B4C3D3;}
	.st1{fill:#FFFFFF;}
	.st2{fill-rule:evenodd;clip-rule:evenodd;fill:#B4C3D3;}
	.st3{fill:none;}
</style>
<g>
	<g>
		<path class="st0" d="M20.5,19.6c0,0.9-0.7,1.6-1.6,1.6H3.7c-0.9,0-1.6-0.7-1.6-1.6V7.5c0-0.9,0.7-1.6,1.6-1.6h15.2
			c0.9,0,1.6,0.7,1.6,1.6V19.6z M19,8c0-0.4-0.4-0.8-0.8-0.8H4.4C3.9,7.2,3.6,7.5,3.6,8v11c0,0.4,0.4,0.8,0.8,0.8h13.8
			c0.5,0,0.8-0.4,0.8-0.8V8z"/>
	</g>
	<rect x="3" y="10" class="st0" width="16.3" height="1.6"/>
	<path class="st0" d="M7.5,7.9c0,0.4-0.4,0.8-0.8,0.8H6c-0.4,0-0.8-0.4-0.8-0.8V5.1c0-0.4,0.4-0.8,0.8-0.8h0.7
		c0.4,0,0.8,0.4,0.8,0.8V7.9z"/>
	<path class="st0" d="M17.4,7.9c0,0.4-0.4,0.8-0.8,0.8h-0.7c-0.4,0-0.8-0.4-0.8-0.8V5.1c0-0.4,0.4-0.8,0.8-0.8h0.7
		c0.4,0,0.8,0.4,0.8,0.8V7.9z"/>
	<g>
		<g>
			<path class="st0" d="M9.6,14.3H7.1v-2.3h2.5V14.3z M9.4,12.3h-2v1.8h2V12.3z"/>
		</g>
		<g>
			<path class="st0" d="M15.3,14.3h-2.5v-2.3h2.5V14.3z M15,12.3h-2v1.8h2V12.3z"/>
		</g>
		<g>
			<path class="st0" d="M18.2,14.3h-2.5v-2.3h2.5V14.3z M18,12.3h-2v1.8h2V12.3z"/>
		</g>
		<g>
			<path class="st0" d="M18.2,16.9h-2.5v-2.3h2.5V16.9z M18,14.9h-2v1.8h2V14.9z"/>
		</g>
		<g>
			<path class="st0" d="M6.8,16.9H4.3v-2.3h2.5V16.9z M6.6,14.9h-2v1.8h2V14.9z"/>
		</g>
		<g>
			<path class="st0" d="M6.8,19.5H4.3v-2.3h2.5V19.5z M6.6,17.5h-2v1.8h2V17.5z"/>
		</g>
		<g>
			<path class="st0" d="M9.7,19.5H7.1v-2.3h2.5V19.5z M9.4,17.5h-2v1.8h2V17.5z"/>
		</g>
		<g>
			<path class="st0" d="M15.4,19.5h-2.5v-2.3h2.5V19.5z M15.1,17.5h-2v1.8h2V17.5z"/>
		</g>
		<rect x="7.1" y="14.6" class="st0" width="2.6" height="2.3"/>
		<rect x="9.9" y="14.6" class="st0" width="2.4" height="2.3"/>
		<rect x="9.9" y="12.1" class="st0" width="2.4" height="2.3"/>
		<rect x="9.9" y="17.3" class="st0" width="2.4" height="2.3"/>
		<rect x="12.8" y="14.6" class="st0" width="2.4" height="2.3"/>
	</g>
</g>
</svg>
