<?xml version="1.0" encoding="utf-8"?>
<!-- Generator: Adobe Illustrator 25.2.0, SVG Export Plug-In . SVG Version: 6.00 Build 0)  -->
<svg version="1.1" id="Layer_1" xmlns="http://www.w3.org/2000/svg" xmlns:xlink="http://www.w3.org/1999/xlink" x="0px" y="0px"
	 viewBox="0 0 23.5 23.5" style="enable-background:new 0 0 23.5 23.5;" xml:space="preserve">
<style type="text/css">
	.st0{fill:#B4C3D3;}
	.st1{fill:#FFFFFF;}
	.st2{fill-rule:evenodd;clip-rule:evenodd;fill:#B4C3D3;}
	.st3{fill:none;}
</style>
<g>
	<path class="st2" d="M19.6,6.3c0-1.8-1.5-3.3-3.3-3.3c-1.3,0-2.5,0.8-3,1.9c-0.6-0.2-1.3-0.3-2-0.3c-0.7,0-1.3,0.1-2,0.3
		C8.8,3.8,7.7,3,6.3,3C4.5,3,3,4.5,3,6.3c0,1,0.4,1.9,1.1,2.5C3.4,10.1,3,11.5,3,13c0,2.7,1.3,5.1,3.3,6.6c0,0,0,0,0,0
		c0,0.9,0.7,1.7,1.7,1.7c0.4,0,0.7-0.1,1-0.4c0.7,0.2,1.5,0.4,2.3,0.4s1.6-0.2,2.3-0.4c0.3,0.2,0.6,0.4,1,0.4c0.9,0,1.7-0.7,1.7-1.7
		c0,0,0,0,0,0c2-1.5,3.3-3.9,3.3-6.6c0-1.5-0.4-2.9-1.1-4.1C19.2,8.2,19.6,7.4,19.6,6.3L19.6,6.3z M11.3,18c-2.2,0-4-1.4-4.7-3.3
		h4.7c0.5,0,0.9-0.2,1.2-0.5l0.5,0.5v-3.3l-1.7-1.7v1.7c-0.9,0-1.7,0.7-1.7,1.7H6.3c0-2.8,2.2-5,5-5c2.8,0,5,2.2,5,5
		C16.3,15.7,14.1,18,11.3,18L11.3,18z"/>
</g>
</svg>
