<?xml version="1.0" encoding="utf-8"?>
<!-- Generator: Adobe Illustrator 25.2.0, SVG Export Plug-In . SVG Version: 6.00 Build 0)  -->
<svg version="1.1" id="Layer_1" xmlns="http://www.w3.org/2000/svg" xmlns:xlink="http://www.w3.org/1999/xlink" x="0px" y="0px"
	 viewBox="0 0 23.5 23.5" style="enable-background:new 0 0 23.5 23.5;" xml:space="preserve">
<style type="text/css">
	.st0{fill:#B4C3D3;}
	.st1{fill:#FFFFFF;}
	.st2{fill-rule:evenodd;clip-rule:evenodd;fill:#B4C3D3;}
	.st3{fill:none;}
</style>
<g>
	<path class="st2" d="M20,7.1c0-2.8-2.2-5-5-5H8.4c-2.8,0-5,2.2-5,5v6.6c0,2.8,2.2,5,5,5H15c2.8,0,5-2.2,5-5V7.1L20,7.1z M13.4,13.7
		h-3.3c-0.9,0-1.7-0.7-1.7-1.7V8.8c0-0.9,0.7-1.7,1.7-1.7h3.3c0.9,0,1.7,0.7,1.7,1.7v3.3C15,13,14.3,13.7,13.4,13.7L13.4,13.7z
		 M13.4,8.8h-3.3v3.3h3.3V8.8L13.4,8.8z"/>
</g>
</svg>
