<?xml version="1.0" encoding="utf-8"?>
<!-- Generator: Adobe Illustrator 25.2.0, SVG Export Plug-In . SVG Version: 6.00 Build 0)  -->
<svg version="1.1" id="Layer_1" xmlns="http://www.w3.org/2000/svg" xmlns:xlink="http://www.w3.org/1999/xlink" x="0px" y="0px"
	 viewBox="0 0 23.5 23.5" style="enable-background:new 0 0 23.5 23.5;" xml:space="preserve">
<style type="text/css">
	.st0{fill:#B4C3D3;}
	.st1{fill:#FFFFFF;}
	.st2{fill-rule:evenodd;clip-rule:evenodd;fill:#B4C3D3;}
	.st3{fill:none;}
</style>
<g>
	<path class="st0" d="M10.5,13.7c-1.9,0-3.4-1.8-3.4-4c0-2.2,0-4,3.4-4c3.4,0,3.4,1.8,3.4,4C13.9,11.9,12.4,13.7,10.5,13.7
		L10.5,13.7z M2.4,20.6c0-3.2,0-4.6,8-4.6c8.1,0,8,1.4,8,4.6H2.4L2.4,20.6z M8.2,17.1l1.2-4.6h2.3l1.1,4.6H8.2L8.2,17.1z M18.5,12.6
		v2.3h-1.1v-2.3h-2.3v-1.1h2.3V9.1h1.1v2.3h2.3v1.1H18.5L18.5,12.6z"/>
</g>
</svg>
