<?xml version="1.0" encoding="utf-8"?>
<!-- Generator: Adobe Illustrator 25.2.0, SVG Export Plug-In . SVG Version: 6.00 Build 0)  -->
<svg version="1.1" id="Layer_1" xmlns="http://www.w3.org/2000/svg" xmlns:xlink="http://www.w3.org/1999/xlink" x="0px" y="0px"
	 viewBox="0 0 23.5 23.5" style="enable-background:new 0 0 23.5 23.5;" xml:space="preserve">
<style type="text/css">
	.st0{fill:#B4C3D3;}
	.st1{fill:#FFFFFF;}
	.st2{fill-rule:evenodd;clip-rule:evenodd;fill:#B4C3D3;}
	.st3{fill:none;}
</style>
<g>
	<path class="st2" d="M10.1,10.8c0-0.8,0.7-1.4,1.5-1.4c0.8,0,1.5,0.6,1.5,1.4c0,0.8-0.7,1.5-1.5,1.5C10.7,12.3,10.1,11.6,10.1,10.8
		L10.1,10.8z M18.6,11.7c-4.7,5.4-9.5,5.5-14.3,0c1.5-1.8,3.2-3,4.8-3.6c-0.8,0.7-1.3,1.6-1.3,2.7c0,2,1.7,3.6,3.7,3.6
		c2,0,3.7-1.6,3.7-3.6c0-1-0.5-2-1.2-2.6C15.6,8.8,17,10,18.6,11.7L18.6,11.7z M1.9,11.7c0,0,4.3,5.9,9.5,5.9c5.2,0,9.5-5.9,9.5-5.9
		s-4.3-5.9-9.5-5.9C6.2,5.8,1.9,11.7,1.9,11.7L1.9,11.7z"/>
</g>
</svg>
