<?xml version="1.0" encoding="utf-8"?>
<!-- Generator: Adobe Illustrator 25.2.0, SVG Export Plug-In . SVG Version: 6.00 Build 0)  -->
<svg version="1.1" id="Layer_1" xmlns="http://www.w3.org/2000/svg" xmlns:xlink="http://www.w3.org/1999/xlink" x="0px" y="0px"
	 viewBox="0 0 23.5 23.5" style="enable-background:new 0 0 23.5 23.5;" xml:space="preserve">
<style type="text/css">
	.st0{fill:#B4C3D3;}
	.st1{fill:#FFFFFF;}
	.st2{fill-rule:evenodd;clip-rule:evenodd;fill:#B4C3D3;}
	.st3{fill:none;}
</style>
<g>
	<path class="st0" d="M18.2,5.6h-1.1V3.1h-10v2.5H5.9H4.6v1.3v5c0,0,5.1,3.7,6.3,4.4l-0.1,3.1c0,0-2.6,0.1-4.3,2.4l10.6,0
		c0,0-1.9-2.5-4.3-2.5l0-3l6.8-4.5v-5V5.6H18.2z M7.1,11.9l-1.2-0.8V6.9h1.2V11.9z M14,11.8l-1.9-1l-1.9,1l0.4-2.1L9,8.2l2.2-0.3
		l1-2l1,2l2.2,0.3l-1.6,1.5L14,11.8z M18.2,11.2l-1.1,0.6v-5h1.1V11.2z"/>
</g>
</svg>
