<?xml version="1.0" encoding="utf-8"?>
<!-- Generator: Adobe Illustrator 25.2.0, SVG Export Plug-In . SVG Version: 6.00 Build 0)  -->
<svg version="1.1" id="Layer_1" xmlns="http://www.w3.org/2000/svg" xmlns:xlink="http://www.w3.org/1999/xlink" x="0px" y="0px"
	 viewBox="0 0 23.5 23.5" style="enable-background:new 0 0 23.5 23.5;" xml:space="preserve">
<style type="text/css">
	.st0{fill:#B4C3D3;}
	.st1{fill:#FFFFFF;}
	.st2{fill-rule:evenodd;clip-rule:evenodd;fill:#B4C3D3;}
	.st3{fill:none;}
</style>
<g>
	<path class="st2" d="M19.9,12.2h-1.4c0,0.4,0,1.3,0,1.7c0,0.3-0.1,0.3-0.3,0.3c-0.5,0-0.5,0-1,0c-0.2,0-0.3-0.1-0.3-0.3
		c0-0.4,0-1,0-1.4c0,0-0.5,0-1,0c0,0.2,0,0.5,0,0.7c0,0.2-0.2,0.3-0.3,0.3c-0.2,0-0.2,0-0.3,0c-0.2,0-0.3-0.2-0.3-0.3
		c0-0.3,0-0.8,0-1c-1.6,0-3.4,0-3.4,0C10.9,14,9,15.6,7.1,15.6c-2.3,0-4.2-1.9-4.2-4.3c0-2.4,1.9-4.3,4.2-4.3c2,0,3.9,1.6,4.3,3.4
		c2.4,0,5.9,0,7.8,0c0.5,0,0.7,0.1,0.7,0.7c0,0.2,0,0.4,0,0.5C19.9,12.1,19.9,12.2,19.9,12.2L19.9,12.2z M7.1,8.8
		c-1.4,0-2.5,1.1-2.5,2.6c0,1.4,1.1,2.6,2.5,2.6c1.4,0,2.5-1.2,2.5-2.6C9.6,9.9,8.5,8.8,7.1,8.8L7.1,8.8z"/>
</g>
</svg>
