<?xml version="1.0" encoding="utf-8"?>
<!-- Generator: Adobe Illustrator 25.2.0, SVG Export Plug-In . SVG Version: 6.00 Build 0)  -->
<svg version="1.1" id="Layer_1" xmlns="http://www.w3.org/2000/svg" xmlns:xlink="http://www.w3.org/1999/xlink" x="0px" y="0px"
	 viewBox="0 0 23.5 23.5" style="enable-background:new 0 0 23.5 23.5;" xml:space="preserve">
<style type="text/css">
	.st0{fill:#B4C3D3;}
	.st1{fill:#FFFFFF;}
	.st2{fill-rule:evenodd;clip-rule:evenodd;fill:#B4C3D3;}
	.st3{fill:none;}
</style>
<g>
	<path class="st2" d="M18,18.3c0,0-0.1-2.8-0.2-2.9c-0.1-0.1-0.1-0.7-1.4-1.5c0.1-0.4,0-0.5,0-0.5c0,0,0-0.3,0-0.3s-0.9-0.8-0.9-1.5
		c0-0.7,0-1.2,0-1.2s0.2-1.6,1.3-1.6l1,0.1c1,0,1.1,1.5,1.1,1.5v1.3c0,0-0.3,1-1,1.3c0,0,0,0.3,0,0.3c0,0,0,1.3,1.2,1.4
		c1.1,0.2,1.4,0.9,1.7,1.1c0.2,0.2,0.6,2.5,0.6,2.5L18,18.3L18,18.3z M12.6,13.8c1.8,0.3,3.2,1.4,3.5,1.7c0.3,0.3,0.6,2.7,0.6,2.7
		H2.5c0,0,0-2,0.6-2.7c0.3-0.3,2-1.5,3.9-1.7c1.8-0.3,1.3-2.3,1.4-2.3c0.1,0,0-0.4,0-0.4S7.2,9.8,7.2,8.7c0-1.2,0-1.9,0-1.9
		S7.2,4,9,4l1.1,0.5c1.7,0,1.8,2.2,1.8,2.2v2.1c0,0-0.1,1.6-1.1,2.2c0,0-0.1,0.5,0,0.4C10.9,11.4,10.7,13.5,12.6,13.8L12.6,13.8z"/>
</g>
</svg>
