<?xml version="1.0" encoding="utf-8"?>
<!-- Generator: Adobe Illustrator 25.2.0, SVG Export Plug-In . SVG Version: 6.00 Build 0)  -->
<svg version="1.1" id="Layer_1" xmlns="http://www.w3.org/2000/svg" xmlns:xlink="http://www.w3.org/1999/xlink" x="0px" y="0px"
	 viewBox="0 0 23.5 23.5" style="enable-background:new 0 0 23.5 23.5;" xml:space="preserve">
<style type="text/css">
	.st0{fill:#B4C3D3;}
	.st1{fill:#FFFFFF;}
	.st2{fill-rule:evenodd;clip-rule:evenodd;fill:#B4C3D3;}
	.st3{fill:none;}
</style>
<g>
	<path class="st0" d="M16.6,6.3c-0.7-1.2-2.2-1.8-2.2-1.8C10.3,3,7.8,6.3,7.8,6.3c-4.5-0.6-4.5,3.8-4.5,3.8c1,5,4.8,3.6,5.3,3.4
		l0.5-0.7c-0.3-0.3-0.1-0.2-0.4-0.6c0,0-4.1,2.1-4.3-2.3c0,0-0.1-3,3.7-2.5c0,0,1-2.2,4.2-2.4c0,0,2.9,0.1,3.7,2.6
		c0,0,3.7-1.2,3.9,2.6c0,0-0.8,3.7-4.6,2.3l0.7,1.4c5.1,0.2,4.9-3.7,4.9-3.7C20.9,6,16.6,6.3,16.6,6.3z"/>
	<path class="st0" d="M15.1,16.3l-1.6-0.9l1.7-0.9c0.3-0.2,0.5-0.6,0.3-1c-0.2-0.3-0.6-0.5-1-0.3l-1.7,1v-1.9c0-0.4-0.3-0.7-0.7-0.7
		c-0.4,0-0.7,0.3-0.7,0.7v1.8l-1.6-0.9c-0.3-0.2-0.8-0.1-1,0.3c-0.2,0.3-0.1,0.8,0.3,1l1.6,0.9L9,16.2c-0.3,0.2-0.5,0.6-0.3,0.9
		c0.2,0.3,0.6,0.5,1,0.3l1.6-0.9v1.9c0,0.4,0.3,0.7,0.7,0.7c0.4,0,0.7-0.3,0.7-0.7v-1.9c-0.2,0.1-0.3,0.1-0.5,0.1
		c-0.7,0-1.3-0.6-1.3-1.3c0-0.7,0.6-1.3,1.3-1.3c0.7,0,1.3,0.6,1.3,1.3c0,0.5-0.3,0.9-0.7,1.1l1.6,0.9c0.3,0.2,0.8,0.1,0.9-0.3
		C15.5,16.9,15.4,16.5,15.1,16.3z"/>
</g>
</svg>
