<?xml version="1.0" encoding="utf-8"?>
<!-- Generator: Adobe Illustrator 25.2.0, SVG Export Plug-In . SVG Version: 6.00 Build 0)  -->
<svg version="1.1" id="Layer_1" xmlns="http://www.w3.org/2000/svg" xmlns:xlink="http://www.w3.org/1999/xlink" x="0px" y="0px"
	 viewBox="0 0 23.5 23.5" style="enable-background:new 0 0 23.5 23.5;" xml:space="preserve">
<style type="text/css">
	.st0{fill:#B4C3D3;}
	.st1{fill:#FFFFFF;}
	.st2{fill-rule:evenodd;clip-rule:evenodd;fill:#B4C3D3;}
	.st3{fill:none;}
</style>
<g>
	<path class="st2" d="M19,14.3c-0.2-4.8-3.2-8.6-6.9-8.6c-3.7,0-6.6,3.8-6.9,8.5c-0.3,0.1-0.5,0.2-0.7,0.4c0-0.3-0.1-0.7-0.1-1
		c0-5,3.4-9,7.7-9c4.2,0,7.7,4,7.7,9c0,0.4,0,0.9-0.1,1.3C19.5,14.6,19.2,14.4,19,14.3L19,14.3z M5.8,14.7C7,14.7,8,16.2,8,18.1
		c0,1.9-1,3.4-2.2,3.4c-1.2,0-2.2-1.5-2.2-3.4C3.6,16.2,4.6,14.7,5.8,14.7L5.8,14.7z M18.4,14.7c1.2,0,2.2,1.5,2.2,3.4
		c0,1.9-1,3.4-2.2,3.4c-1.2,0-2.2-1.5-2.2-3.4C16.3,16.2,17.2,14.7,18.4,14.7L18.4,14.7z"/>
</g>
</svg>
