<?xml version="1.0" encoding="utf-8"?>
<!-- Generator: Adobe Illustrator 25.2.0, SVG Export Plug-In . SVG Version: 6.00 Build 0)  -->
<svg version="1.1" id="Layer_1" xmlns="http://www.w3.org/2000/svg" xmlns:xlink="http://www.w3.org/1999/xlink" x="0px" y="0px"
	 viewBox="0 0 23.5 23.5" style="enable-background:new 0 0 23.5 23.5;" xml:space="preserve">
<style type="text/css">
	.st0{fill:#B4C3D3;}
	.st1{fill:#FFFFFF;}
	.st2{fill-rule:evenodd;clip-rule:evenodd;fill:#B4C3D3;}
	.st3{fill:none;}
</style>
<g>
	<path class="st0" d="M12.2,2.7l8.6,4.9v10.2l-8.6,5l-8.8-5v-10L12.2,2.7z M5.2,8.9v7.8l6.9,3.9l6.7-3.9v-8l-6.8-3.9L5.2,8.9z"/>
	<polygon class="st0" points="10.9,8.6 13.3,8.6 13,14.3 11.3,14.3 	"/>
	<path class="st0" d="M13.3,16.4c0,0.7-0.5,1.2-1.2,1.2c-0.7,0-1.2-0.5-1.2-1.2c0-0.7,0.5-1.2,1.2-1.2
		C12.7,15.2,13.3,15.7,13.3,16.4z"/>
</g>
</svg>
