<?xml version="1.0" encoding="utf-8"?>
<!-- Generator: Adobe Illustrator 25.2.0, SVG Export Plug-In . SVG Version: 6.00 Build 0)  -->
<svg version="1.1" id="Layer_1" xmlns="http://www.w3.org/2000/svg" xmlns:xlink="http://www.w3.org/1999/xlink" x="0px" y="0px"
	 viewBox="0 0 23.5 23.5" style="enable-background:new 0 0 23.5 23.5;" xml:space="preserve">
<style type="text/css">
	.st0{fill:#B4C3D3;}
	.st1{fill:#FFFFFF;}
	.st2{fill-rule:evenodd;clip-rule:evenodd;fill:#B4C3D3;}
	.st3{fill:none;}
</style>
<path class="st2" d="M11.8,20.6c-4.7,0-8.5-3.8-8.5-8.5c0-4.7,3.8-8.5,8.5-8.5c4.7,0,8.5,3.8,8.5,8.5C20.3,16.8,16.5,20.6,11.8,20.6
	L11.8,20.6z M11.8,5.1c-3.9,0-7,3.1-7,7c0,3.9,3.1,7,7,7c3.9,0,7-3.1,7-7C18.8,8.2,15.7,5.1,11.8,5.1L11.8,5.1z M15.6,12.6
	c-0.8,0-3.9,0-3.9,0c-0.3,0-0.5-0.2-0.6-0.5h0c0,0,0-5.3,0-6c0-0.7,1.2-0.7,1.2,0c0,0.5,0,3.9,0,5.4c0.9,0,2.7,0,3.3,0
	C16.4,11.5,16.4,12.6,15.6,12.6L15.6,12.6z"/>
</svg>
