<?xml version="1.0" encoding="utf-8"?>
<!-- Generator: Adobe Illustrator 25.2.0, SVG Export Plug-In . SVG Version: 6.00 Build 0)  -->
<svg version="1.1" id="Layer_1" xmlns="http://www.w3.org/2000/svg" xmlns:xlink="http://www.w3.org/1999/xlink" x="0px" y="0px"
	 viewBox="0 0 23.5 23.5" style="enable-background:new 0 0 23.5 23.5;" xml:space="preserve">
<style type="text/css">
	.st0{fill:#B4C3D3;}
	.st1{fill:#FFFFFF;}
	.st2{fill-rule:evenodd;clip-rule:evenodd;fill:#B4C3D3;}
	.st3{fill:none;}
</style>
<path class="st0" d="M19.2,8.2h-15c0-0.5-0.4-0.8-0.8-0.8V6.6c0.5,0,0.8-0.4,0.8-0.8h15c0,0.5,0.4,0.8,0.8,0.8v0.7
	C19.6,7.3,19.2,7.7,19.2,8.2L19.2,8.2z M19.2,12.9h-15c0-0.5-0.4-0.8-0.8-0.8v-0.7c0.5,0,0.8-0.4,0.8-0.8h15c0,0.5,0.4,0.8,0.8,0.8
	v0.7C19.6,12.1,19.2,12.4,19.2,12.9L19.2,12.9z M19.2,17.7h-15c0-0.5-0.4-0.8-0.8-0.8v-0.7c0.5,0,0.8-0.4,0.8-0.8h15
	c0,0.5,0.4,0.8,0.8,0.8v0.7C19.6,16.8,19.2,17.2,19.2,17.7L19.2,17.7z"/>
</svg>
