<?xml version="1.0" encoding="utf-8"?>
<!-- Generator: Adobe Illustrator 25.2.0, SVG Export Plug-In . SVG Version: 6.00 Build 0)  -->
<svg version="1.1" id="Layer_1" xmlns="http://www.w3.org/2000/svg" xmlns:xlink="http://www.w3.org/1999/xlink" x="0px" y="0px"
	 viewBox="0 0 23.5 23.5" style="enable-background:new 0 0 23.5 23.5;" xml:space="preserve">
<style type="text/css">
	.st0{fill:#B4C3D3;}
	.st1{fill:#FFFFFF;}
	.st2{fill-rule:evenodd;clip-rule:evenodd;fill:#B4C3D3;}
	.st3{fill:none;}
</style>
<g>
	<path class="st0" d="M7.6,5.7c0,0,2.6-3.4,6.7-1.9c0,0,1.5,0.7,2.2,1.8c0,0,4.3-0.3,4.4,4c0,0,0,4.9-5.2,3.5c0,0-1.3,1.7-4,1.4
		c-0.1,0-1.2,0.5-3.6-1.4c0,0-4.2,1.8-5.1-3.6C3,9.6,3.3,5.4,7.6,5.7z"/>
	<polygon class="st0" points="10.8,14.2 10.8,14.8 9.8,15.8 10.9,16.9 9.7,20.2 13.3,16.8 12.1,15.6 12.4,15.3 12.4,13.1 	"/>
	<path class="st0" d="M6.9,5.3c0,0,2.2-2.8,5.7-1.5c0,0,1.3,0.5,1.9,1.5c0,0,3.7-0.3,3.8,3.3c0,0,0,4-4.4,2.9c0,0-1.1,1.4-3.4,1.1
		c-0.1,0-1,0.4-3.1-1.1c0,0-3.5,1.5-4.3-3C3,8.5,3.2,5,6.9,5.3z"/>
	<g>
		<path class="st0" d="M7.4,5.5c0,0,2.7-3.7,7-2c0,0,1.6,0.7,2.3,2c0,0,4.5-0.3,4.6,4.4c0,0,0,5.3-5.4,3.8c0,0-1.4,1.8-4.1,1.5
			c-0.1,0-1.2,0.6-3.8-1.5c0,0-4.3,2-5.3-3.9C2.7,9.7,3,5.1,7.4,5.5z"/>
		<path class="st1" d="M11.2,15.2c-0.9,0-2-0.5-3.2-1.5C7.9,13.7,7.3,14,6.4,14c-1.4,0-3.2-0.7-3.8-4.3C2.7,9.6,3,5.4,7,5.4
			c0.1,0,0.3,0,0.4,0C7.6,5.2,9.3,3,12.2,3c0.7,0,1.5,0.1,2.2,0.4c0,0,1.6,0.7,2.3,2c0,0,0.1,0,0.2,0c0.4,0,1.5,0.1,2.5,0.6
			c1.2,0.7,1.9,2,2,3.8c0,0,0,4.1-3.7,4.1c-0.5,0-1.1-0.1-1.8-0.3c-0.1,0.2-1.3,1.5-3.4,1.5c-0.2,0-0.5,0-0.7-0.1l0,0
			c0,0-0.1,0-0.1,0C11.6,15.1,11.4,15.2,11.2,15.2z M8,13.6L8,13.6c1.3,1,2.4,1.5,3.2,1.5c0.2,0,0.3,0,0.4,0c0.1,0,0.1,0,0.1,0
			c0.2,0,0.5,0,0.7,0c2.2,0,3.4-1.5,3.4-1.5l0,0l0,0c0.6,0.2,1.2,0.3,1.8,0.3c3.6,0,3.6-4,3.6-4c-0.1-4-3.4-4.3-4.4-4.3
			c-0.1,0-0.2,0-0.2,0l0,0l0,0c-0.7-1.3-2.3-2-2.3-2c-0.7-0.3-1.5-0.4-2.2-0.4c-3,0-4.8,2.4-4.8,2.4l0,0l0,0c-0.2,0-0.3,0-0.5,0
			C3,5.5,2.8,9.6,2.7,9.7c0.6,3.5,2.3,4.2,3.7,4.2C7.3,13.9,8,13.6,8,13.6L8,13.6z"/>
	</g>
</g>
</svg>
