<?xml version="1.0" encoding="utf-8"?>
<!-- Generator: Adobe Illustrator 25.2.0, SVG Export Plug-In . SVG Version: 6.00 Build 0)  -->
<svg version="1.1" id="Layer_1" xmlns="http://www.w3.org/2000/svg" xmlns:xlink="http://www.w3.org/1999/xlink" x="0px" y="0px"
	 viewBox="0 0 23.5 23.5" style="enable-background:new 0 0 23.5 23.5;" xml:space="preserve">
<style type="text/css">
	.st0{fill:#B4C3D3;}
	.st1{fill:#FFFFFF;}
	.st2{fill-rule:evenodd;clip-rule:evenodd;fill:#B4C3D3;}
	.st3{fill:none;}
</style>
<g>
	<path class="st2" d="M17.5,20.1c-2.3,0-4.2-1.9-4.2-4.2c0-2.3,1.9-4.2,4.2-4.2c2.3,0,4.2,1.9,4.2,4.2
		C21.6,18.3,19.8,20.1,17.5,20.1L17.5,20.1z M18.1,15.4V13h-1.2v2.4h-2.4v1.2h2.4v2.4h1.2v-2.4h2.4v-1.2H18.1L18.1,15.4z M14.7,10.5
		c-0.4,1.2-1.3,1.9-1.3,1.9l0,0.2c-0.8,0.9-1.2,2.1-1.2,3.4c0,1.6,0.7,3.1,1.9,4.1l-11.4,0c0,0-0.1-2.4,0.4-2.9
		c0.5-0.5,1-1.4,3.8-1.8c2.8-0.4,2.8-1.9,2.9-1.8c0-0.6-0.1-1.3-0.1-1.3s-1.1-0.6-1.5-1.8c-0.9-0.4-0.8-0.6-0.9-1
		c0,0,0.1-1.9,0.7-1.8c0,0,0.5,0,0.4-0.4c0-0.7,0-0.9,0-1.3c0-0.5,0.3-1.8,1.2-1.9c1-0.2,0.2-0.1,0.6-0.1c0.3,0-0.2-0.2,0.4-0.2
		l1-0.2c0.6,0,1,0.9,1.3,0.9c0.3,0,0.1-0.1,0.8,0c1,0.2,0.7,1.5,0.8,2c0,0.5,0.1,0.6,0,1.1c-0.1,0.4,0.7,0.4,0.7,0.4
		c0.7,0,0.4,1.8,0.4,1.8C15.6,10,15.3,10,14.7,10.5L14.7,10.5z"/>
</g>
</svg>
