<?xml version="1.0" encoding="utf-8"?>
<!-- Generator: Adobe Illustrator 25.2.0, SVG Export Plug-In . SVG Version: 6.00 Build 0)  -->
<svg version="1.1" id="Layer_1" xmlns="http://www.w3.org/2000/svg" xmlns:xlink="http://www.w3.org/1999/xlink" x="0px" y="0px"
	 viewBox="0 0 23.5 23.5" style="enable-background:new 0 0 23.5 23.5;" xml:space="preserve">
<style type="text/css">
	.st0{fill:#B4C3D3;}
	.st1{fill:#FFFFFF;}
	.st2{fill-rule:evenodd;clip-rule:evenodd;fill:#B4C3D3;}
	.st3{fill:none;}
</style>
<g>
	<path class="st2" d="M20.5,6.3c0-0.9-0.7-1.7-1.7-1.7h-1.7V3.8c0-0.5-0.4-0.8-0.8-0.8c-0.5,0-2.5,0.4-2.5,0.8v0.8h-3.3V3.8
		c0-0.5-2-0.8-2.5-0.8c-0.5,0-0.8,0.4-0.8,0.8v0.8H5.5c-0.9,0-1.7,0.7-1.7,1.7v13.3c0,0.9,0.7,1.7,1.7,1.7h13.3
		c0.9,0,1.7-0.7,1.7-1.7V6.3L20.5,6.3z M15.5,17.9H8.8c-0.9,0-1.7-0.7-1.7-1.7V9.6c0-0.9,0.7-1.7,1.7-1.7h6.6c0.9,0,1.7,0.7,1.7,1.7
		v6.6C17.2,17.2,16.4,17.9,15.5,17.9L15.5,17.9z M13.8,9.6h-1.7v1.7h-1.7v1.7h1.7v3.3h1.7V9.6L13.8,9.6z"/>
</g>
</svg>
