<?xml version="1.0" encoding="utf-8"?>
<!-- Generator: Adobe Illustrator 25.2.0, SVG Export Plug-In . SVG Version: 6.00 Build 0)  -->
<svg version="1.1" id="Layer_1" xmlns="http://www.w3.org/2000/svg" xmlns:xlink="http://www.w3.org/1999/xlink" x="0px" y="0px"
	 viewBox="0 0 23.5 23.5" style="enable-background:new 0 0 23.5 23.5;" xml:space="preserve">
<style type="text/css">
	.st0{fill:#B4C3D3;}
	.st1{fill:#FFFFFF;}
	.st2{fill-rule:evenodd;clip-rule:evenodd;fill:#B4C3D3;}
	.st3{fill:none;}
</style>
<g>
	<path class="st2" d="M12.1,3.9c-0.9,0-1.7,0.7-1.7,1.7v1.7v0.3v3c0,0.9,0.7,1.7,1.7,1.7c0.9,0,1.7-0.7,1.7-1.7v-3V7.2V5.5
		C13.7,4.6,13,3.9,12.1,3.9L12.1,3.9z M15.4,4.5c0,0,0,0.1,0,0.1V8c0,0.1,0,0.3-0.1,0.4c1.1,0.9,1.8,2.3,1.8,3.8c0,2.8-2.2,5-5,5
		c-2.8,0-5-2.2-5-5c0-1.5,0.7-2.9,1.8-3.8C8.8,8.3,8.7,8.1,8.7,8V4.7c0,0,0-0.1,0-0.1c-3,1.3-5,4.2-5,7.6c0,4.6,3.7,8.3,8.3,8.3
		c4.6,0,8.3-3.7,8.3-8.3C20.4,8.7,18.3,5.8,15.4,4.5L15.4,4.5z"/>
</g>
</svg>
