<?xml version="1.0" encoding="utf-8"?>
<!-- Generator: Adobe Illustrator 25.2.0, SVG Export Plug-In . SVG Version: 6.00 Build 0)  -->
<svg version="1.1" id="Layer_1" xmlns="http://www.w3.org/2000/svg" xmlns:xlink="http://www.w3.org/1999/xlink" x="0px" y="0px"
	 viewBox="0 0 23.5 23.5" style="enable-background:new 0 0 23.5 23.5;" xml:space="preserve">
<style type="text/css">
	.st0{fill:#B4C3D3;}
	.st1{fill:#FFFFFF;}
	.st2{fill-rule:evenodd;clip-rule:evenodd;fill:#B4C3D3;}
	.st3{fill:none;}
</style>
<g>
	<path class="st2" d="M11.8,20.4c-4.7,0-8.5-3.8-8.5-8.5c0-4.7,3.8-8.5,8.5-8.5c4.7,0,8.5,3.8,8.5,8.5
		C20.3,16.6,16.5,20.4,11.8,20.4L11.8,20.4z M11.8,4.4c-4.1,0-7.5,3.4-7.5,7.5c0,4.1,3.4,7.5,7.5,7.5c4.1,0,7.5-3.4,7.5-7.5
		C19.3,7.7,15.9,4.4,11.8,4.4L11.8,4.4z M11.8,18.4c-3.6,0-6.6-2.9-6.6-6.5c0-3.6,2.9-6.6,6.6-6.6c3.6,0,6.5,2.9,6.5,6.6
		C18.3,15.5,15.4,18.4,11.8,18.4L11.8,18.4z M11.8,6.4c-3,0-5.5,2.4-5.5,5.5c0,3,2.4,5.5,5.5,5.5c3,0,5.5-2.4,5.5-5.5
		C17.2,8.9,14.8,6.4,11.8,6.4L11.8,6.4z M11.8,16.5c-2.5,0-4.6-2-4.6-4.6c0-2.5,2.1-4.6,4.6-4.6c2.5,0,4.6,2,4.6,4.6
		C16.4,14.4,14.3,16.5,11.8,16.5L11.8,16.5z M11.8,8.5c-1.9,0-3.4,1.5-3.4,3.4c0,1.9,1.5,3.4,3.4,3.4c1.9,0,3.4-1.5,3.4-3.4
		C15.2,10,13.7,8.5,11.8,8.5L11.8,8.5z M11.8,14.3c-1.3,0-2.4-1.1-2.4-2.4c0-1.3,1.1-2.4,2.4-2.4c1.3,0,2.4,1.1,2.4,2.4
		C14.2,13.2,13.1,14.3,11.8,14.3L11.8,14.3z M11.8,10.5c-0.8,0-1.4,0.6-1.4,1.4c0,0.7,0.6,1.4,1.4,1.4c0.8,0,1.4-0.6,1.4-1.4
		C13.1,11.1,12.5,10.5,11.8,10.5L11.8,10.5z"/>
</g>
</svg>
