<?xml version="1.0" encoding="utf-8"?>
<!-- Generator: Adobe Illustrator 25.2.0, SVG Export Plug-In . SVG Version: 6.00 Build 0)  -->
<svg version="1.1" id="Layer_1" xmlns="http://www.w3.org/2000/svg" xmlns:xlink="http://www.w3.org/1999/xlink" x="0px" y="0px"
	 viewBox="0 0 23.5 23.5" style="enable-background:new 0 0 23.5 23.5;" xml:space="preserve">
<style type="text/css">
	.st0{fill:#B4C3D3;}
	.st1{fill:#FFFFFF;}
	.st2{fill-rule:evenodd;clip-rule:evenodd;fill:#B4C3D3;}
	.st3{fill:none;}
</style>
<g>
	<path class="st2" d="M19.3,15.9c-0.3,0-0.6,0-0.9,0c-0.5,0.9-1.1,1.7-2.1,2.4c0.1,0.2,0.2,0.5,0.2,0.8c-1.4,1-3.1,1.6-5,1.6
		c-2.7,0-5.2-1.3-6.7-3.3C4.9,17,5,16.9,5.2,16.6c-0.7-0.9-1-1.8-1.3-2.8c-0.2-0.1-0.6-0.1-0.8-0.2C3,13.2,3,12.7,3,12.2
		c0-4.1,3-7.6,7-8.3c0.1,0.2,0.3,0.5,0.5,0.7c0.4-0.1,1.1-0.2,1.9,0c0.8,0.1,1.3,0.4,2.2,0.6c0.2-0.3,0.4-0.4,0.7-0.6
		C18.1,6,20,8.9,20,12.2C20,13.6,19.9,14.8,19.3,15.9L19.3,15.9z M8.7,6.4L5.9,7.6l-0.8,3l3.5,0.6l1.7-2.1L8.7,6.4L8.7,6.4z
		 M12.5,15.4l-2.7-0.6L8,17.5l2.4,2.2l3.1-0.9L12.5,15.4L12.5,15.4z M16.4,8l-2.3,2.5l0.9,2.8l3.5,0.2l0.4-3.4L16.4,8L16.4,8z"/>
</g>
</svg>
