<?xml version="1.0" encoding="utf-8"?>
<!-- Generator: Adobe Illustrator 25.2.0, SVG Export Plug-In . SVG Version: 6.00 Build 0)  -->
<svg version="1.1" id="Layer_1" xmlns="http://www.w3.org/2000/svg" xmlns:xlink="http://www.w3.org/1999/xlink" x="0px" y="0px"
	 viewBox="0 0 23.5 23.5" style="enable-background:new 0 0 23.5 23.5;" xml:space="preserve">
<style type="text/css">
	.st0{fill:#B4C3D3;}
	.st1{fill:#FFFFFF;}
	.st2{fill-rule:evenodd;clip-rule:evenodd;fill:#B4C3D3;}
	.st3{fill:none;}
</style>
<g>
	<g>
		<path class="st0" d="M7.8,13.7c0,0-2.6,2.8,0.1,3.2C8,16.9,10.5,16.5,7.8,13.7z"/>
		<path class="st0" d="M12.3,17.1c0,0-2.6,2.8,0.1,3.2C12.4,20.3,14.9,19.9,12.3,17.1z"/>
		<path class="st0" d="M16.7,15.9c0,0-2.6,2.8,0.1,3.2C16.8,19.1,19.3,18.7,16.7,15.9z"/>
	</g>
	<path class="st0" d="M16.6,4.4c-0.7-1.1-2.5-1.8-2.5-1.8C9.7,1.5,7.7,4.3,7.7,4.3C3.4,4,3.3,8.4,3.3,8.4c0.9,5.2,5.1,3.4,5.1,3.4
		c1,1.1,3.3,1.5,3.4,1.6c3.2-0.4,3.9-1.5,3.9-1.5c5.2,1.3,5.4-3.4,5.4-3.4C20.9,4.4,16.6,4.4,16.6,4.4z M15.6,10.6
		c0,0-0.5,1.2-3.7,1.6c-0.1,0-2.1-0.1-3.1-1.6c0,0-3.5,1.4-4.3-2.5c0,0,0.1-2.7,3.8-2.5c0,0,1.4-3,5.6-2c0,0,2,1,2.2,1.9
		c0,0,3.8-0.5,3.9,2.6C19.9,8.2,20.1,11.7,15.6,10.6z"/>
</g>
</svg>
