<?xml version="1.0" encoding="utf-8"?>
<!-- Generator: Adobe Illustrator 25.2.0, SVG Export Plug-In . SVG Version: 6.00 Build 0)  -->
<svg version="1.1" id="Layer_1" xmlns="http://www.w3.org/2000/svg" xmlns:xlink="http://www.w3.org/1999/xlink" x="0px" y="0px"
	 viewBox="0 0 23.5 23.5" style="enable-background:new 0 0 23.5 23.5;" xml:space="preserve">
<style type="text/css">
	.st0{fill:#B4C3D3;}
	.st1{fill:#FFFFFF;}
	.st2{fill-rule:evenodd;clip-rule:evenodd;fill:#B4C3D3;}
	.st3{fill:none;}
</style>
<path class="st2" d="M16,10.9c-4.4,8-4.4,8.1-4.4,8.1s0,0-4.4-8.1C6.4,9.9,6,8.8,6,7.5c0-3.1,2.5-5.6,5.6-5.6c3.1,0,5.6,2.5,5.6,5.6
	C17.2,8.7,16.8,9.9,16,10.9L16,10.9z M11.6,3.6c-2.2,0-3.9,1.7-3.9,3.9s1.8,3.9,3.9,3.9c2.2,0,3.9-1.7,3.9-3.9S13.8,3.6,11.6,3.6
	L11.6,3.6z M9.5,6.8h4.2v1.3H9.5V6.8L9.5,6.8z"/>
</svg>
