<?xml version="1.0" encoding="utf-8"?>
<!-- Generator: Adobe Illustrator 25.2.0, SVG Export Plug-In . SVG Version: 6.00 Build 0)  -->
<svg version="1.1" id="Layer_1" xmlns="http://www.w3.org/2000/svg" xmlns:xlink="http://www.w3.org/1999/xlink" x="0px" y="0px"
	 viewBox="0 0 23.5 23.5" style="enable-background:new 0 0 23.5 23.5;" xml:space="preserve">
<style type="text/css">
	.st0{fill:#B4C3D3;}
	.st1{fill:#FFFFFF;}
	.st2{fill-rule:evenodd;clip-rule:evenodd;fill:#B4C3D3;}
	.st3{fill:none;}
</style>
<g>
	<path class="st0" d="M3.1,22.3V3.9h1.1v18.4H3.1L3.1,22.3z M20.3,22.3V3.9h1.1v18.4H20.3L20.3,22.3z M8.9,13.1V3.9H10v9.2H8.9
		L8.9,13.1z M8.9,22.3V20H10v2.3H8.9L8.9,22.3z M10,18.9H8.9c-0.6,0-1.1-0.5-1.1-1.1v-2.3c0-0.6,0.5-1.1,1.1-1.1H10
		c0.6,0,1.2,0.5,1.2,1.1v2.3C11.2,18.4,10.6,18.9,10,18.9L10,18.9z M14.6,22.3v-9.2h1.1v9.2H14.6L14.6,22.3z M14.6,6.2V3.9h1.1v2.3
		H14.6L14.6,6.2z M15.7,12h-1.1c-0.6,0-1.1-0.5-1.1-1.1V8.5c0-0.6,0.5-1.1,1.1-1.1h1.1c0.6,0,1.1,0.5,1.1,1.1v2.3
		C16.9,11.5,16.4,12,15.7,12L15.7,12z"/>
</g>
</svg>
