<?xml version="1.0" encoding="utf-8"?>
<!-- Generator: Adobe Illustrator 25.2.0, SVG Export Plug-In . SVG Version: 6.00 Build 0)  -->
<svg version="1.1" id="Layer_1" xmlns="http://www.w3.org/2000/svg" xmlns:xlink="http://www.w3.org/1999/xlink" x="0px" y="0px"
	 viewBox="0 0 23.5 23.5" style="enable-background:new 0 0 23.5 23.5;" xml:space="preserve">
<style type="text/css">
	.st0{fill:#B4C3D3;}
	.st1{fill:#FFFFFF;}
	.st2{fill-rule:evenodd;clip-rule:evenodd;fill:#B4C3D3;}
	.st3{fill:none;}
</style>
<g>
	<path class="st0" d="M15.2,7.6c-0.2-0.2-0.6-0.2-0.9,0.1l-2,2.1c0,0,0,0,0,0c-0.1,0-0.3-0.1-0.4-0.1c-0.1,0-0.2,0-0.3,0.1L10,8.3
		c-0.2-0.2-0.5-0.2-0.7,0c-0.2,0.2-0.2,0.5,0,0.7l1.4,1.3c-0.1,0.1-0.1,0.3-0.1,0.4c0,0.7,0.5,1.2,1.2,1.2c0.7,0,1.2-0.5,1.2-1.2
		c0-0.1,0-0.2,0-0.3c0,0,0,0,0.1,0l2-2.1C15.4,8.2,15.4,7.8,15.2,7.6z"/>
	<path class="st0" d="M15.7,17.2c2.2-1.3,3.6-3.7,3.6-6.4c0-4.1-3.3-7.4-7.4-7.4c-4.1,0-7.4,3.3-7.4,7.4c0,2.7,1.5,5.1,3.7,6.4
		l-1.6,1.4c-0.3,0.3-0.4,0.9,0,1.2c0.3,0.4,0.9,0.4,1.2,0.1L10,18c0.6,0.2,1.3,0.3,1.9,0.3c0.7,0,1.4-0.1,2.1-0.3l2.1,1.9
		c0.3,0.3,0.9,0.3,1.2-0.1c0.3-0.3,0.3-0.9-0.1-1.2L15.7,17.2z M6.2,10.9C6.2,7.6,8.8,5,12,5c3.2,0,5.8,2.6,5.8,5.8
		c0,2.4-1.5,4.5-3.5,5.4c-0.2,0-0.3,0.1-0.4,0.2c-0.6,0.2-1.2,0.3-1.8,0.3C8.8,16.7,6.2,14.1,6.2,10.9z"/>
	<path class="st0" d="M14.4,2.7c0,0,2-2.4,5-0.2c0,0,2.4,2,0.4,5.3C19.8,7.8,18.5,3.7,14.4,2.7z"/>
	<path class="st0" d="M9.6,2.8c0,0-2-2.4-5-0.2c0,0-2.4,2-0.4,5.3C4.2,7.8,5.5,3.8,9.6,2.8z"/>
</g>
</svg>
