<?xml version="1.0" encoding="utf-8"?>
<!-- Generator: Adobe Illustrator 25.2.0, SVG Export Plug-In . SVG Version: 6.00 Build 0)  -->
<svg version="1.1" id="Layer_1" xmlns="http://www.w3.org/2000/svg" xmlns:xlink="http://www.w3.org/1999/xlink" x="0px" y="0px"
	 viewBox="0 0 23.5 23.5" style="enable-background:new 0 0 23.5 23.5;" xml:space="preserve">
<style type="text/css">
	.st0{fill:#B4C3D3;}
	.st1{fill:#FFFFFF;}
	.st2{fill-rule:evenodd;clip-rule:evenodd;fill:#B4C3D3;}
	.st3{fill:none;}
</style>
<g>
	<path class="st0" d="M18.2,16.2h-6.9l-4.6,4.6v-4.6H4.4c-1.3,0-2.3-1-2.3-2.3V4.7c0-1.3,1-2.3,2.3-2.3h13.8c1.3,0,2.3,1,2.3,2.3
		v9.2C20.5,15.2,19.5,16.2,18.2,16.2L18.2,16.2z M18.2,4.7H4.4v9.2h13.8V4.7L18.2,4.7z M6.7,8.2V7h9.2v1.1H6.7L6.7,8.2z M6.7,11.6
		v-1.1h9.2v1.1H6.7L6.7,11.6z"/>
</g>
</svg>
