<?xml version="1.0" encoding="utf-8"?>
<!-- Generator: Adobe Illustrator 25.2.0, SVG Export Plug-In . SVG Version: 6.00 Build 0)  -->
<svg version="1.1" id="Layer_1" xmlns="http://www.w3.org/2000/svg" xmlns:xlink="http://www.w3.org/1999/xlink" x="0px" y="0px"
	 viewBox="0 0 23.5 23.5" style="enable-background:new 0 0 23.5 23.5;" xml:space="preserve">
<style type="text/css">
	.st0{fill:#B4C3D3;}
	.st1{fill:#FFFFFF;}
	.st2{fill-rule:evenodd;clip-rule:evenodd;fill:#B4C3D3;}
	.st3{fill:none;}
</style>
<path class="st2" d="M18.4,14.4H8.9h-3L8,15l8,2.6c0.6,0.2,1.4-0.2,1.5-0.8L18.4,14.4L18.4,14.4z M5.2,9.8c0-0.7,0.6-1.4,1.3-1.4
	c0.7,0,1.3,0.6,1.3,1.3c0,0.7-0.6,1.3-1.3,1.3C5.8,11,5.2,10.4,5.2,9.8L5.2,9.8z M5.3,13.3h4.8h8.3c0.6,0,1.2-0.6,1.2-1.2V7.3
	c0-0.6-0.6-1.2-1.2-1.2h-8.3H5.3l-1,1C3,8.4,3,11,4.3,12.2L5.3,13.3L5.3,13.3z"/>
</svg>
