<?xml version="1.0" encoding="utf-8"?>
<!-- Generator: Adobe Illustrator 25.2.0, SVG Export Plug-In . SVG Version: 6.00 Build 0)  -->
<svg version="1.1" id="Layer_1" xmlns="http://www.w3.org/2000/svg" xmlns:xlink="http://www.w3.org/1999/xlink" x="0px" y="0px"
	 viewBox="0 0 23.5 23.5" style="enable-background:new 0 0 23.5 23.5;" xml:space="preserve">
<style type="text/css">
	.st0{fill:#B4C3D3;}
	.st1{fill:#FFFFFF;}
	.st2{fill-rule:evenodd;clip-rule:evenodd;fill:#B4C3D3;}
	.st3{fill:none;}
</style>
<path class="st2" d="M6.2,4.2c0,2.9,0,10,0,12.7c0,0.9,0.3,0.9,0.9,0.4c1.1-0.9,2.9-2.4,2.9-2.4s1.3,3,1.9,4.4
	c0.2,0.6,0.6,0.7,0.9,0.5c0.3-0.1,0.6-0.3,0.9-0.4c0.4-0.1,0.4-0.4,0.2-0.9c-0.6-1.4-2-4.3-2-4.3s2.5,0,4,0c0.8,0,0.9-0.2,0.3-0.8
	c-2-2-7.1-7.3-9.2-9.5C6.4,3.2,6.2,3.2,6.2,4.2L6.2,4.2z"/>
</svg>
