<?xml version="1.0" encoding="utf-8"?>
<!-- Generator: Adobe Illustrator 25.2.0, SVG Export Plug-In . SVG Version: 6.00 Build 0)  -->
<svg version="1.1" id="Layer_1" xmlns="http://www.w3.org/2000/svg" xmlns:xlink="http://www.w3.org/1999/xlink" x="0px" y="0px"
	 viewBox="0 0 23.5 23.5" style="enable-background:new 0 0 23.5 23.5;" xml:space="preserve">
<style type="text/css">
	.st0{fill:#B4C3D3;}
	.st1{fill:#FFFFFF;}
	.st2{fill-rule:evenodd;clip-rule:evenodd;fill:#B4C3D3;}
	.st3{fill:none;}
</style>
<g>
	<path class="st0" d="M11.4,3.5c0,0,0.3-0.7,0.4-0.7c0.2,0,0.5,0.7,0.5,0.7L14.5,8l5.2,0.8c0,0,0.6,0.1,0.6,0.2
		c0,0.1-0.5,0.6-0.5,0.6l-3.6,3.5l0.9,5.2c0,0,0.1,0.7,0,0.7s-0.6-0.3-0.6-0.3l-4.7-2.5l-4.5,2.4c0,0-0.6,0.4-0.7,0.3
		c-0.1-0.1,0-0.7,0-0.7l0-0.1l0.9-5L3.7,9.4c0,0-0.1-0.1-0.3-0.3C3.4,9.1,3.2,8.9,3.2,8.9c0,0,0.2,0,0.4-0.1c0.2,0,0.4,0,0.4,0
		L9.2,8L11.4,3.5z M9.8,8.9L5.2,9.5l3.3,3.2l-0.8,4.6l4.1-2.2l4.1,2.2l-0.8-4.6l3.3-3.2l-4.6-0.7l-2.1-4.2L9.8,8.9z"/>
	<polygon class="st0" points="11.9,6.4 13.4,9.5 16.8,10 14.4,12.4 14.9,15.9 11.9,14.2 8.8,15.9 9.4,12.4 6.9,10 10.3,9.5 	"/>
</g>
</svg>
