<?xml version="1.0" encoding="utf-8"?>
<!-- Generator: Adobe Illustrator 25.2.0, SVG Export Plug-In . SVG Version: 6.00 Build 0)  -->
<svg version="1.1" id="Layer_1" xmlns="http://www.w3.org/2000/svg" xmlns:xlink="http://www.w3.org/1999/xlink" x="0px" y="0px"
	 viewBox="0 0 23.5 23.5" style="enable-background:new 0 0 23.5 23.5;" xml:space="preserve">
<style type="text/css">
	.st0{fill:#B4C3D3;}
	.st1{fill:#FFFFFF;}
	.st2{fill-rule:evenodd;clip-rule:evenodd;fill:#B4C3D3;}
	.st3{fill:none;}
</style>
<g>
	<path class="st0" d="M10.7,8.5c0,0,1.5-2.3,4.6-1.4c0,0,1.7,0.5,2.2,1.4c0,0,2.8,0.1,2.9,3.5c0,0-0.9,4.3-4.7,3.2
		c0,0-0.4,0.9-2.3,0.7c-0.1,0-1.1,0.2-1.7-0.7c0,0-3.6,1.1-4.3-3.2C7.5,12,7.6,8.3,10.7,8.5z"/>
	<g>
		<path class="st0" d="M7,11c0,0.3-0.3,0.6-0.6,0.6H4.3c-0.3,0-0.6-0.3-0.6-0.6l0,0c0-0.3,0.3-0.6,0.6-0.6h2.1C6.8,10.4,7,10.6,7,11
			L7,11z"/>
		<path class="st1" d="M6.4,11.6H4.3c-0.3,0-0.6-0.3-0.6-0.6c0-0.3,0.3-0.6,0.6-0.6h2.1c0.3,0,0.6,0.3,0.6,0.6
			C7.1,11.3,6.8,11.6,6.4,11.6z M4.3,10.4c-0.3,0-0.6,0.2-0.6,0.5c0,0.3,0.3,0.5,0.6,0.5h2.1C6.7,11.5,7,11.2,7,11
			c0-0.3-0.2-0.5-0.6-0.5H4.3z"/>
	</g>
	<g>
		<path class="st0" d="M6.1,13.2c0,0.3-0.3,0.6-0.7,0.6H3.2c-0.4,0-0.7-0.3-0.7-0.6l0,0c0-0.3,0.3-0.6,0.7-0.6h2.2
			C5.8,12.5,6.1,12.8,6.1,13.2L6.1,13.2z"/>
		<path class="st1" d="M5.4,13.8H3.2c-0.4,0-0.7-0.3-0.7-0.6c0-0.4,0.3-0.6,0.7-0.6h2.2c0.4,0,0.7,0.3,0.7,0.6
			C6.1,13.5,5.8,13.8,5.4,13.8z M3.2,12.6c-0.3,0-0.6,0.3-0.6,0.6s0.3,0.6,0.6,0.6h2.2c0.3,0,0.6-0.3,0.6-0.6s-0.3-0.6-0.6-0.6H3.2z
			"/>
	</g>
	<path class="st0" d="M8.2,15.4c0,0.3-0.2,0.6-0.6,0.6H3.1c-0.3,0-0.6-0.2-0.6-0.6l0,0c0-0.3,0.2-0.6,0.6-0.6h4.5
		C8,14.8,8.2,15.1,8.2,15.4L8.2,15.4z"/>
</g>
</svg>
