<?xml version="1.0" encoding="utf-8"?>
<!-- Generator: Adobe Illustrator 25.2.0, SVG Export Plug-In . SVG Version: 6.00 Build 0)  -->
<svg version="1.1" id="Layer_1" xmlns="http://www.w3.org/2000/svg" xmlns:xlink="http://www.w3.org/1999/xlink" x="0px" y="0px"
	 viewBox="0 0 23.5 23.5" style="enable-background:new 0 0 23.5 23.5;" xml:space="preserve">
<style type="text/css">
	.st0{fill:#B4C3D3;}
	.st1{fill:#FFFFFF;}
	.st2{fill-rule:evenodd;clip-rule:evenodd;fill:#B4C3D3;}
	.st3{fill:none;}
</style>
<g>
	<path class="st2" d="M12.3,18.5c-4.5,0-8.1-3.6-8.1-8.1c0-4.5,3.6-8.1,8.1-8.1c4.5,0,8.1,3.6,8.1,8.1
		C20.4,14.8,16.8,18.5,12.3,18.5L12.3,18.5z M16.4,8.3h-2c-1.1,0-2,0.9-2,2c0-1.1-0.9-2-2-2h-2c-1.1,0-2,0.9-2,2v1c0,1.1,0.9,2,2,2
		h2c1.1,0,2-0.9,2-2c0,1.1,0.9,2,2,2h2c1.1,0,2-0.9,2-2v-1C18.4,9.2,17.5,8.3,16.4,8.3L16.4,8.3z M15.9,12.4h-1
		c-0.7,0-1.2-0.4-1.4-1h2.4c0.3,0,0.5-0.2,0.5-0.5c0-0.3-0.2-0.5-0.5-0.5h-2.4c0.2-0.6,0.8-1,1.4-1h1c0.8,0,1.5,0.7,1.5,1.5
		C17.4,11.7,16.7,12.4,15.9,12.4L15.9,12.4z M8.2,10.8c0,0.3,0.2,0.5,0.5,0.5h2.4c-0.2,0.6-0.8,1-1.4,1h-1c-0.8,0-1.5-0.7-1.5-1.5
		c0-0.8,0.7-1.5,1.5-1.5h1c0.7,0,1.2,0.4,1.4,1H8.7C8.5,10.3,8.2,10.6,8.2,10.8L8.2,10.8z"/>
</g>
</svg>
