<?xml version="1.0" encoding="utf-8"?>
<!-- Generator: Adobe Illustrator 25.2.0, SVG Export Plug-In . SVG Version: 6.00 Build 0)  -->
<svg version="1.1" id="Layer_1" xmlns="http://www.w3.org/2000/svg" xmlns:xlink="http://www.w3.org/1999/xlink" x="0px" y="0px"
	 viewBox="0 0 23.5 23.5" style="enable-background:new 0 0 23.5 23.5;" xml:space="preserve">
<style type="text/css">
	.st0{fill:#B4C3D3;}
	.st1{fill:#FFFFFF;}
	.st2{fill-rule:evenodd;clip-rule:evenodd;fill:#B4C3D3;}
	.st3{fill:none;}
</style>
<g>
	<path class="st0" d="M10.3,13.4V8.6H15v4.8H10.3L10.3,13.4z M12.7,18.1c-3.9,0-7.1-3.2-7.1-7.1c0-3.9,3.2-7.1,7.1-7.1
		c3.9,0,7.1,3.2,7.1,7.1C19.8,14.9,16.6,18.1,12.7,18.1L12.7,18.1z M12.7,5.1c-3.3,0-5.9,2.7-5.9,5.9c0,3.3,2.7,5.9,5.9,5.9
		s5.9-2.7,5.9-5.9C18.6,7.7,15.9,5.1,12.7,5.1L12.7,5.1z M6.7,15.8c-1.3,0-2.4-1.1-2.4-2.4c0-1.3,1.1-2.4,2.4-2.4
		c1.3,0,2.4,1.1,2.4,2.4C9.1,14.7,8,15.8,6.7,15.8L6.7,15.8z M17.4,19.3c-1.3,0-2.4-1.1-2.4-2.4c0-1.3,1.1-2.4,2.4-2.4
		c1.3,0,2.4,1.1,2.4,2.4C19.8,18.3,18.7,19.3,17.4,19.3L17.4,19.3z M15,7.4c-1.3,0-2.4-1.1-2.4-2.4s1.1-2.4,2.4-2.4s2.4,1.1,2.4,2.4
		S16.4,7.4,15,7.4L15,7.4z"/>
</g>
</svg>
