<?xml version="1.0" encoding="utf-8"?>
<!-- Generator: Adobe Illustrator 25.2.0, SVG Export Plug-In . SVG Version: 6.00 Build 0)  -->
<svg version="1.1" id="Layer_1" xmlns="http://www.w3.org/2000/svg" xmlns:xlink="http://www.w3.org/1999/xlink" x="0px" y="0px"
	 viewBox="0 0 23.5 23.5" style="enable-background:new 0 0 23.5 23.5;" xml:space="preserve">
<style type="text/css">
	.st0{fill:#B4C3D3;}
	.st1{fill:#FFFFFF;}
	.st2{fill-rule:evenodd;clip-rule:evenodd;fill:#B4C3D3;}
	.st3{fill:none;}
</style>
<g>
	<path class="st0" d="M12.4,7.8c-2.9,0-5.2,2.3-5.2,5.2c0,2.9,2.3,5.2,5.2,5.2c2.9,0,5.2-2.3,5.2-5.2C17.6,10.1,15.3,7.8,12.4,7.8z
		 M12.4,16.9c-2,0-3.7-1.7-3.7-3.7c0-2.1,1.7-3.7,3.7-3.7c2,0,3.7,1.7,3.7,3.7C16.1,15.3,14.4,16.9,12.4,16.9z"/>
	<path class="st0" d="M5.8,13.2c0,0.4-0.3,0.8-0.8,0.8H3.5c-0.4,0-0.8-0.3-0.8-0.8l0,0c0-0.4,0.3-0.8,0.8-0.8H5
		C5.4,12.4,5.8,12.7,5.8,13.2L5.8,13.2z"/>
	<path class="st0" d="M22.1,13.2c0,0.4-0.3,0.8-0.8,0.8h-1.5c-0.4,0-0.8-0.3-0.8-0.8l0,0c0-0.4,0.3-0.8,0.8-0.8h1.5
		C21.8,12.4,22.1,12.7,22.1,13.2L22.1,13.2z"/>
	<path class="st0" d="M19.3,6.2c-0.3-0.3-0.8-0.3-1.1,0l-1.1,1.1c-0.3,0.3-0.3,0.8,0,1.1l0,0c0.3,0.3,0.8,0.3,1.1,0l1.1-1.1
		C19.6,7,19.6,6.5,19.3,6.2L19.3,6.2z"/>
	<path class="st0" d="M5.6,6.3C5.8,6,6.3,6,6.6,6.3l1.1,1.1C8,7.7,8,8.2,7.7,8.5l0,0c-0.3,0.3-0.8,0.3-1.1,0L5.6,7.4
		C5.3,7.1,5.3,6.6,5.6,6.3L5.6,6.3z"/>
	<path class="st0" d="M12.4,6.5c-0.4,0-0.8-0.3-0.8-0.8l0-1.5c0-0.4,0.3-0.8,0.8-0.8l0,0c0.4,0,0.8,0.3,0.8,0.8l0,1.5
		C13.2,6.1,12.8,6.5,12.4,6.5L12.4,6.5z"/>
	<path class="st0" d="M5.5,20.1c0.3,0.3,0.8,0.3,1.1,0L7.7,19c0.3-0.3,0.3-0.8,0-1.1l0,0c-0.3-0.3-0.8-0.3-1.1,0L5.5,19
		C5.2,19.3,5.2,19.8,5.5,20.1L5.5,20.1z"/>
	<path class="st0" d="M19.2,19.9c-0.3,0.3-0.8,0.3-1.1,0L17,18.9c-0.3-0.3-0.3-0.8,0-1.1l0,0c0.3-0.3,0.8-0.3,1.1,0l1.1,1.1
		C19.5,19.2,19.5,19.6,19.2,19.9L19.2,19.9z"/>
	<path class="st0" d="M12.3,19.8c0.4,0,0.8,0.3,0.8,0.8l0,1.5c0,0.4-0.3,0.8-0.8,0.8l0,0c-0.4,0-0.8-0.3-0.8-0.8l0-1.5
		C11.6,20.1,11.9,19.8,12.3,19.8L12.3,19.8z"/>
</g>
</svg>
