<?xml version="1.0" encoding="utf-8"?>
<!-- Generator: Adobe Illustrator 25.2.0, SVG Export Plug-In . SVG Version: 6.00 Build 0)  -->
<svg version="1.1" id="Layer_1" xmlns="http://www.w3.org/2000/svg" xmlns:xlink="http://www.w3.org/1999/xlink" x="0px" y="0px"
	 viewBox="0 0 23.5 23.5" style="enable-background:new 0 0 23.5 23.5;" xml:space="preserve">
<style type="text/css">
	.st0{fill:#B4C3D3;}
	.st1{fill:#FFFFFF;}
	.st2{fill-rule:evenodd;clip-rule:evenodd;fill:#B4C3D3;}
	.st3{fill:none;}
</style>
<path class="st2" d="M15,10.7c-0.7,1.9-1,4.1-1,4.1h-5c0,0,0-1.6-0.9-4C7.4,8.3,6,7.3,7.5,4.5c1.5-2.8,6.6-2.8,8.5-0.1
	C17.8,7,15.7,8.8,15,10.7L15,10.7z M10.5,5.7l0.3,3.1l-0.8,0l1.7,3.9l0.6-3.1l0.8,0l0.8-4.5L10.5,5.7L10.5,5.7z M14.1,15.4
	c0,1.7,0.1,3.3-1.9,3.6c-0.1,0.2-0.2,0.5-0.7,0.5c-0.5,0-0.7-0.3-0.8-0.5c-1.9-0.3-1.8-2-1.8-3.6C10.6,15.4,12.4,15.4,14.1,15.4
	L14.1,15.4z"/>
</svg>
