<?xml version="1.0" encoding="utf-8"?>
<!-- Generator: Adobe Illustrator 25.2.0, SVG Export Plug-In . SVG Version: 6.00 Build 0)  -->
<svg version="1.1" id="Layer_1" xmlns="http://www.w3.org/2000/svg" xmlns:xlink="http://www.w3.org/1999/xlink" x="0px" y="0px"
	 viewBox="0 0 23.5 23.5" style="enable-background:new 0 0 23.5 23.5;" xml:space="preserve">
<style type="text/css">
	.st0{fill:#B4C3D3;}
	.st1{fill:#FFFFFF;}
	.st2{fill-rule:evenodd;clip-rule:evenodd;fill:#B4C3D3;}
	.st3{fill:none;}
</style>
<g>
	<g>
		<path class="st0" d="M13.6,6.3c1.6,3,4.2,6.6,4.2,8.4c0,3.2-2.6,5.8-5.8,5.8c-3.2,0-5.8-2.6-5.8-5.8c0-1.8,2.7-5.4,4.3-8.4
			C11.8,3.9,12,1.8,12,1.8S12.4,3.9,13.6,6.3z M11.5,19.3c0.3-0.1-0.8-1.3-1-1.6c-0.2-0.3-0.2-1.3-0.2-1.3s-0.1-0.5-0.6-1.2
			c-0.2-0.3-0.4-0.6-0.8-0.7c-1.3-0.4-1,0.4-1,0.4C8.5,17.8,11.2,19.4,11.5,19.3z"/>
	</g>
</g>
</svg>
