<?xml version="1.0" encoding="utf-8"?>
<!-- Generator: Adobe Illustrator 25.2.0, SVG Export Plug-In . SVG Version: 6.00 Build 0)  -->
<svg version="1.1" id="Layer_1" xmlns="http://www.w3.org/2000/svg" xmlns:xlink="http://www.w3.org/1999/xlink" x="0px" y="0px"
	 viewBox="0 0 23.5 23.5" style="enable-background:new 0 0 23.5 23.5;" xml:space="preserve">
<style type="text/css">
	.st0{fill:#B4C3D3;}
	.st1{fill:#FFFFFF;}
	.st2{fill-rule:evenodd;clip-rule:evenodd;fill:#B4C3D3;}
	.st3{fill:none;}
</style>
<path class="st2" d="M19,14.9h0.6l-1.2,5.9H4.2L3,14.9h7.1c1.9,0,1.8-1.1,1.8-2.4c0-0.4-0.1-0.8-0.3-1.2H19c0.9,0,1.8,0.9,1.8,1.8
	C20.8,14,19.9,14.9,19,14.9L19,14.9z M7.7,16.1H6.6l1.2,3.6V16.1L7.7,16.1z M10.1,16.1H8.9l1.2,3.6V16.1L10.1,16.1z M13.7,16.1h-1.2
	l1.2,3.6V16.1L13.7,16.1z M16.1,16.1h-1.2l1.2,3.6V16.1L16.1,16.1z M7.7,5.4h2.4v-2c0-0.8,0.4-1.6,1.2-1.6c0.8,0,1.2,0.8,1.2,1.6v2
	h2.4L11.3,9L7.7,5.4L7.7,5.4z M10.1,12.5c0,0.6-0.6,1.2-1.2,1.2c0,0-2.1,0-4.7,0c-1.8,0-2.9-2.3-1.3-2.4c0,0,0.1,0,0.1,0h5.9
	C9.5,11.3,10.1,11.9,10.1,12.5L10.1,12.5z"/>
</svg>
