<?xml version="1.0" encoding="utf-8"?>
<!-- Generator: Adobe Illustrator 25.2.0, SVG Export Plug-In . SVG Version: 6.00 Build 0)  -->
<svg version="1.1" id="Layer_1" xmlns="http://www.w3.org/2000/svg" xmlns:xlink="http://www.w3.org/1999/xlink" x="0px" y="0px"
	 viewBox="0 0 23.5 23.5" style="enable-background:new 0 0 23.5 23.5;" xml:space="preserve">
<style type="text/css">
	.st0{fill:#B4C3D3;}
	.st1{fill:#FFFFFF;}
	.st2{fill-rule:evenodd;clip-rule:evenodd;fill:#B4C3D3;}
	.st3{fill:none;}
</style>
<path class="st2" d="M18.4,19.4H6.5c-0.6,0-1.1-0.5-1.1-1.1v-2H6c0.6,0,1.1-0.6,1.1-1.1v-0.5c0-0.5-0.6-1.1-1.1-1.1H5.3v-1.4H6
	c0.6,0,1.1-0.5,1.1-1v-0.5c0-0.6-0.5-1.2-1-1.2H5.3V8.2h0.6C6.4,8.2,7,7.7,7,7.1V6.6c0-0.5-0.6-1.1-1.2-1.1H5.3v-2
	c0-0.6,0.5-1.1,1.1-1.1h11.9c0.6,0,1.1,0.5,1.1,1.1v14.8C19.5,18.9,19,19.4,18.4,19.4L18.4,19.4z M15.3,11.5c-0.2,0-1,1-1.2,1
	c-0.2,0-0.9-0.3-1.7-1.1c-0.8-0.8-0.8-1.3-0.8-1.5c0-0.2,0.9-0.9,1-1.2c0-0.4-1.7-2-1.9-1.9c-2.6,1.5-0.6,4.6,0.5,5.8
	c1.2,1.2,2.8,2.1,4,2.1c1.2,0,2.1-1,2.1-1.2C16.9,12.4,15.5,11.5,15.3,11.5L15.3,11.5z M6.6,6.8v0.1c0,0.5-0.4,0.9-0.9,0.9H4.3
	c-0.5,0-0.8-0.4-0.8-0.9V6.8c0-0.5,0.4-0.9,0.8-0.9h1.4C6.2,5.9,6.6,6.3,6.6,6.8L6.6,6.8z M4.5,9.9h1.4c0.5,0,0.8,0.4,0.8,0.8v0.1
	c0,0.5-0.4,0.9-0.8,0.9H4.5c-0.5,0-0.8-0.4-0.8-0.9v-0.1C3.6,10.3,4,9.9,4.5,9.9L4.5,9.9z M4.5,14h1.4c0.5,0,0.8,0.4,0.8,0.8V15
	c0,0.5-0.4,0.9-0.8,0.9H4.5c-0.5,0-0.8-0.4-0.8-0.9v-0.1C3.6,14.4,4,14,4.5,14L4.5,14z"/>
</svg>
