<?xml version="1.0" encoding="utf-8"?>
<!-- Generator: Adobe Illustrator 25.2.0, SVG Export Plug-In . SVG Version: 6.00 Build 0)  -->
<svg version="1.1" id="Layer_1" xmlns="http://www.w3.org/2000/svg" xmlns:xlink="http://www.w3.org/1999/xlink" x="0px" y="0px"
	 viewBox="0 0 23.5 23.5" style="enable-background:new 0 0 23.5 23.5;" xml:space="preserve">
<style type="text/css">
	.st0{fill:#B4C3D3;}
	.st1{fill:#FFFFFF;}
	.st2{fill-rule:evenodd;clip-rule:evenodd;fill:#B4C3D3;}
	.st3{fill:none;}
</style>
<g>
	<path class="st2" d="M15.3,17.4v-6c0.1,0.2-0.1,0.3,0.1,0.3c0.3,0,0.5-0.2,0.5-0.5c0-0.3,0.1-0.5-0.2-0.5c-0.2,0-0.4,0.1-0.5,0.3V6
		L20,8.8v11.4L15.3,17.4L15.3,17.4z M16.4,11.7c-0.3,0-0.5,0.2-0.5,0.5c0,0.3,0.2,0.5,0.5,0.5c0.3,0,0.5-0.2,0.5-0.5
		C16.9,11.9,16.7,11.7,16.4,11.7L16.4,11.7z M17.4,12.7c-0.3,0-0.5,0.2-0.5,0.5c0,0.3,0.2,0.5,0.5,0.5c0.3,0,0.5-0.2,0.5-0.5
		C17.9,12.9,17.7,12.7,17.4,12.7L17.4,12.7z M13.7,10.8c-0.3,0-0.7,0.2-0.7,0.5c0,0.3,0.4,0.5,0.7,0.5c0.2,0,0.3-0.1,0.4-0.3v5.7
		l-4.8,3V16c0,0.3,0.2,0.5,0.5,0.5c0.3,0,0.2-0.2,0.2-0.5c0-0.3,0.1-0.5-0.2-0.5c-0.3,0-0.5,0.2-0.5,0.5v-7L14.1,6v5
		C14,10.9,13.9,10.8,13.7,10.8L13.7,10.8z M10.5,14.5c-0.3,0-0.5,0.2-0.5,0.5c0,0.3,0.2,0.5,0.5,0.5c0.3,0,0.5-0.2,0.5-0.5
		C11,14.8,10.8,14.5,10.5,14.5L10.5,14.5z M11.5,12.7c-0.3,0-0.5,0.2-0.5,0.5c0,0.3,0.2,0.5,0.5,0.5c-0.3,0-0.5,0.2-0.5,0.5
		c0,0.3,0.2,0.5,0.5,0.5c0.3,0,0.5-0.2,0.5-0.5c0-0.3-0.2-0.5-0.5-0.5c0.3,0,0.5-0.2,0.5-0.5C12,12.9,11.8,12.7,11.5,12.7L11.5,12.7
		z M12.5,11.7c-0.3,0-0.5,0.2-0.5,0.5c0,0.3,0.2,0.5,0.5,0.5c0.3,0,0.5-0.2,0.5-0.5C13,11.9,12.8,11.7,12.5,11.7L12.5,11.7z M8,16.2
		l0-0.4c0,0.1,0.1,0.1,0.1,0.2C8.1,16,8.1,16.1,8,16.2L8,16.2z M7.7,15.5c-0.3,0-0.6,0.2-0.6,0.5c0,0.3,0.4,0.5,0.6,0.5
		c0.2,0,0.4-0.1,0.4-0.3V20l-4.7-2.7V6.1l4.7,2.8v6.9C8.1,15.6,7.9,15.5,7.7,15.5L7.7,15.5z M4,9.8c-0.3,0-0.5,0.2-0.5,0.5
		c0,0.3,0.2,0.5,0.5,0.5c0.3,0,0.5-0.2,0.5-0.5C4.5,10.1,4.3,9.8,4,9.8L4,9.8z M4.6,10.8c-0.3,0-0.5,0.2-0.5,0.5
		c0,0.3,0.2,0.5,0.5,0.5c0.3,0,0.5-0.2,0.5-0.5C5.1,11,4.9,10.8,4.6,10.8L4.6,10.8z M6.1,13.1c0-0.3-0.2-0.5-0.5-0.5
		c0.3,0,0.5-0.2,0.5-0.5c0-0.3-0.2-0.5-0.5-0.5c-0.3,0-0.5,0.2-0.5,0.5c0,0.3,0.2,0.5,0.5,0.5c-0.3,0-0.5,0.2-0.5,0.5
		c0,0.3,0.2,0.5,0.5,0.5c-0.3,0-0.5,0.2-0.5,0.5c0,0.3,0.2,0.5,0.5,0.5c0.3,0,0.5-0.2,0.5-0.5c0-0.3-0.2-0.5-0.5-0.5
		C5.9,13.6,6.1,13.4,6.1,13.1L6.1,13.1z M6.6,14.5c-0.3,0-0.5,0.2-0.5,0.5c0,0.3,0.2,0.5,0.5,0.5c0.3,0,0.5-0.2,0.5-0.5
		C7.1,14.8,6.9,14.5,6.6,14.5L6.6,14.5z"/>
</g>
</svg>
