<?xml version="1.0" encoding="utf-8"?>
<!-- Generator: Adobe Illustrator 25.2.0, SVG Export Plug-In . SVG Version: 6.00 Build 0)  -->
<svg version="1.1" id="Layer_1" xmlns="http://www.w3.org/2000/svg" xmlns:xlink="http://www.w3.org/1999/xlink" x="0px" y="0px"
	 viewBox="0 0 23.5 23.5" style="enable-background:new 0 0 23.5 23.5;" xml:space="preserve">
<style type="text/css">
	.st0{fill:#B4C3D3;}
	.st1{fill:#FFFFFF;}
	.st2{fill-rule:evenodd;clip-rule:evenodd;fill:#B4C3D3;}
	.st3{fill:none;}
</style>
<g>
	<path class="st0" d="M2.6,19.3c0,0-0.1-1.8,0.5-2.5c0.3-0.3,1.3-1.4,3.1-1.6c1.7-0.3,1.2-2.2,1.3-2.1c0.1,0,0-0.4,0-0.4
		s-1.2-1.2-1.2-2.3c0-1.1,0-1.6,0-1.6s0.2-2.6,2-2.6l1,0.5c1.6,0,1.8,2.1,1.8,2.1v1.8c0,0-0.2,1.5-1.2,2.1c0,0-0.1,0.4,0,0.4
		c0.1,0-0.5,1.9,1.2,2.2c1.7,0.3,2.9,1.3,3.1,1.7c0.4,0.7,0.4,2.4,0.4,2.4H2.6L2.6,19.3z M15.7,19.3c0,0,0-2.8-0.2-3
		c-0.1-0.1-0.1-0.7-1.4-1.5c0.1-0.4,0-0.5,0-0.5c0,0,0-0.3,0-0.3s-0.9-0.8-0.9-1.5c0-0.7,0-1.2,0-1.2s0.2-1.6,1.3-1.6l1,0.1
		c1,0,1.1,1.5,1.1,1.5v1.3c0,0-0.3,1-1,1.3c0,0,0,0.3,0,0.3c0,0,0,1.3,1.2,1.4c1.1,0.2,1.4,0.9,1.6,1.1c0.2,0.2,0.6,2.5,0.6,2.5
		H15.7L15.7,19.3z M16.2,8.6c-2.9,0-5.3-3.6-5.3-3.6s2.4-3.6,5.3-3.6c3,0,5.3,3.6,5.3,3.6S19.2,8.6,16.2,8.6L16.2,8.6z M16.3,2.7
		c-1.3,0-2.8,0.8-4.1,2.4c2.7,3.3,5.4,3.2,8,0C18.9,3.4,17.7,2.7,16.3,2.7L16.3,2.7z M16.2,6.3c-1,0-1.8-0.8-1.8-1.8
		c0-1,0.8-1.8,1.8-1.8c1,0,1.8,0.8,1.8,1.8C18,5.5,17.2,6.3,16.2,6.3L16.2,6.3z M16.8,3.9h-1.2v1.2h1.2V3.9L16.8,3.9z"/>
</g>
</svg>
