<?xml version="1.0" encoding="utf-8"?>
<!-- Generator: Adobe Illustrator 25.2.0, SVG Export Plug-In . SVG Version: 6.00 Build 0)  -->
<svg version="1.1" id="Layer_1" xmlns="http://www.w3.org/2000/svg" xmlns:xlink="http://www.w3.org/1999/xlink" x="0px" y="0px"
	 viewBox="0 0 23.5 23.5" style="enable-background:new 0 0 23.5 23.5;" xml:space="preserve">
<style type="text/css">
	.st0{fill:#B4C3D3;}
	.st1{fill:#FFFFFF;}
	.st2{fill-rule:evenodd;clip-rule:evenodd;fill:#B4C3D3;}
	.st3{fill:none;}
</style>
<g>
	<path class="st2" d="M13.7,13.9c0.3,0.1,0.8,1,0.8,1s0.2,0.1,2.6,1c2.3,0.7,2.9,2.4,3.1,3.5c0.1,0.9-0.2,1.1-1,1.1
		c-2.3,0-7.6,0-7.6,0h-0.2c0,0-5,0-7.3,0c-0.6,0-1.1-0.2-1-1.1c0.2-1.1,0.8-2.8,2.9-3.5c2.3-0.9,2.5-1,2.5-1s0.5-0.9,0.8-1
		c0.2-0.1,0-0.4,0-0.5c0-0.1-0.2,0-0.3-0.6c-0.3,0.4-1.1,0.4-3.4,0.4c2.1-0.8,1.6-1.9,2.1-6.1c0.5-3.7,3.2-3.8,3.8-3.8
		c0.6,0,3.4,0,3.9,3.8c0.5,4.1,0,5.2,2.2,6.1c-2.4,0-3.2,0.1-3.5-0.4c-0.1,0.6-0.3,0.5-0.3,0.6C13.7,13.5,13.5,13.9,13.7,13.9
		L13.7,13.9z"/>
</g>
</svg>
