<?xml version="1.0" encoding="utf-8"?>
<!-- Generator: Adobe Illustrator 25.2.0, SVG Export Plug-In . SVG Version: 6.00 Build 0)  -->
<svg version="1.1" id="Layer_1" xmlns="http://www.w3.org/2000/svg" xmlns:xlink="http://www.w3.org/1999/xlink" x="0px" y="0px"
	 viewBox="0 0 23.5 23.5" style="enable-background:new 0 0 23.5 23.5;" xml:space="preserve">
<style type="text/css">
	.st0{fill:#B4C3D3;}
	.st1{fill:#FFFFFF;}
	.st2{fill-rule:evenodd;clip-rule:evenodd;fill:#B4C3D3;}
	.st3{fill:none;}
</style>
<path class="st2" d="M19.7,12.7H18c-0.5,2.7-2.6,4.8-5.2,5.2v1.7c0,0.3-0.2,0.5-0.5,0.5h-1.1c-0.3,0-0.5-0.2-0.5-0.5v-1.7
	c-2.7-0.4-4.8-2.6-5.2-5.2H3.7c-0.3,0-0.5-0.2-0.5-0.5v-1.1c0-0.3,0.2-0.5,0.5-0.5h1.7C5.9,7.9,8,5.8,10.6,5.3V3.7
	c0-0.3,0.2-0.5,0.5-0.5h1.1c0.3,0,0.5,0.2,0.5,0.5v1.7c2.7,0.4,4.8,2.6,5.2,5.2h1.7c0.3,0,0.5,0.2,0.5,0.5v1.1
	C20.2,12.5,20,12.7,19.7,12.7L19.7,12.7z M15.8,12.7h-3.1v3.1C14.3,15.4,15.5,14.2,15.8,12.7L15.8,12.7z M10.6,15.8v-3.1H7.6
	C8,14.2,9.1,15.4,10.6,15.8L10.6,15.8z M7.6,10.6h3.1V7.5C9.1,7.9,8,9.1,7.6,10.6L7.6,10.6z M12.8,7.5v3.1h3.1
	C15.5,9.1,14.3,7.9,12.8,7.5L12.8,7.5z"/>
</svg>
