<?xml version="1.0" encoding="utf-8"?>
<!-- Generator: Adobe Illustrator 25.2.0, SVG Export Plug-In . SVG Version: 6.00 Build 0)  -->
<svg version="1.1" id="Layer_1" xmlns="http://www.w3.org/2000/svg" xmlns:xlink="http://www.w3.org/1999/xlink" x="0px" y="0px"
	 viewBox="0 0 23.5 23.5" style="enable-background:new 0 0 23.5 23.5;" xml:space="preserve">
<style type="text/css">
	.st0{fill:#B4C3D3;}
	.st1{fill:#FFFFFF;}
	.st2{fill-rule:evenodd;clip-rule:evenodd;fill:#B4C3D3;}
	.st3{fill:none;}
</style>
<path class="st2" d="M15.3,7.9c-0.2,0.1-2-0.1-3.6-0.1c-1.4,0-2.8,0.1-3.2,0.1C7.7,7.9,7.3,8,7.3,7.2s1-0.8,1-0.8
	c0-0.1-0.2-0.6,0.7-0.7C9.1,5,9.6,4.8,10.2,4.7c0,0-0.1-0.3,0-0.5c0.2-0.2,0.5-0.1,0.5-0.1c0,0,0,0,0,0h0c0,0,0,0-0.1-0.1
	c-0.3-0.7,0.4-1.5,1.3-1.4c-0.4,0-0.9,1,0.4,1c1.3,0,1.4,0.5,1.2,1.1c0.1,0,0.4,0,0.5,0.2c0.1,0.2,0.2,0.3,0.1,0.5
	c0.2,0,0.8,0.1,0.8,0.3c0,0.5,0,0.6-0.4,0.8C15.9,6.5,15.6,7.7,15.3,7.9L15.3,7.9z M14.8,8.3c0.1,0.2-2.8,8.8-3.7,10.9
	c-0.2,0.5-0.3,0.5-0.5,0C9.9,17.2,7.7,8.6,8,8.3C8.2,8.1,14.6,8.2,14.8,8.3L14.8,8.3z"/>
</svg>
