<?xml version="1.0" encoding="utf-8"?>
<!-- Generator: Adobe Illustrator 25.2.0, SVG Export Plug-In . SVG Version: 6.00 Build 0)  -->
<svg version="1.1" id="Layer_1" xmlns="http://www.w3.org/2000/svg" xmlns:xlink="http://www.w3.org/1999/xlink" x="0px" y="0px"
	 viewBox="0 0 23.5 23.5" style="enable-background:new 0 0 23.5 23.5;" xml:space="preserve">
<style type="text/css">
	.st0{fill:#B4C3D3;}
	.st1{fill:#FFFFFF;}
	.st2{fill-rule:evenodd;clip-rule:evenodd;fill:#B4C3D3;}
	.st3{fill:none;}
</style>
<g>
	<path class="st2" d="M18.8,6.9h-1.7c0-1.8-1.5-3.3-3.3-3.3h-3.3c-1.8,0-3.3,1.5-3.3,3.3H5.5c-1.8,0-3.3,1.5-3.3,3.3h8.3h3.3h8.3
		C22.1,8.4,20.6,6.9,18.8,6.9L18.8,6.9z M13.8,11.9v1.7h-3.3v-1.7H2.2v5c0,1.8,1.5,3.3,3.3,3.3h13.3c1.8,0,3.3-1.5,3.3-3.3v-5H13.8
		L13.8,11.9z M12.2,6.9c-0.9,0-1.7,0.9-1.7,0c0-0.9,0.7-1.7,1.7-1.7c0.9,0,1.7,0.7,1.7,1.7C13.8,7.9,13.1,6.9,12.2,6.9L12.2,6.9z"/>
</g>
</svg>
