<?xml version="1.0" encoding="utf-8"?>
<!-- Generator: Adobe Illustrator 25.2.0, SVG Export Plug-In . SVG Version: 6.00 Build 0)  -->
<svg version="1.1" id="Layer_1" xmlns="http://www.w3.org/2000/svg" xmlns:xlink="http://www.w3.org/1999/xlink" x="0px" y="0px"
	 viewBox="0 0 23.5 23.5" style="enable-background:new 0 0 23.5 23.5;" xml:space="preserve">
<style type="text/css">
	.st0{fill:#B4C3D3;}
	.st1{fill:#FFFFFF;}
	.st2{fill-rule:evenodd;clip-rule:evenodd;fill:#B4C3D3;}
	.st3{fill:none;}
</style>
<g>
	<path class="st0" d="M21.4,20.4c0,0.4-0.3,0.8-0.7,0.8H2.9c-0.4,0-0.7-0.4-0.7-0.8l0,0c0-0.4,0.3-0.8,0.7-0.8h17.8
		C21.1,19.6,21.4,20,21.4,20.4L21.4,20.4z"/>
	<path class="st0" d="M21.2,17.4c0,0.4-0.3,0.8-0.7,0.8H2.7c-0.4,0-0.7-0.4-0.7-0.8l0,0c0-0.4,0.3-0.8,0.7-0.8h17.8
		C20.9,16.6,21.2,17,21.2,17.4L21.2,17.4z"/>
	<path class="st0" d="M21.2,14.5c0,0.4-0.3,0.8-0.7,0.8H2.8c-0.4,0-0.7-0.4-0.7-0.8l0,0c0-0.4,0.3-0.8,0.7-0.8h17.8
		C20.9,13.7,21.2,14,21.2,14.5L21.2,14.5z"/>
	<path class="st0" d="M8.1,12.2c-0.5-4,3.6-4.5,3.6-4.5c2-0.1,4.1,2.1,3.7,4.5h1.4C17.4,7,12,6.3,12,6.3c-4.5,0.2-5.9,4.1-5.4,5.9
		H8.1z"/>
	<path class="st0" d="M5.1,11.6c0,0.4-0.3,0.8-0.8,0.8H2.8c-0.4,0-0.8-0.3-0.8-0.8l0,0c0-0.4,0.3-0.8,0.8-0.8h1.5
		C4.8,10.8,5.1,11.2,5.1,11.6L5.1,11.6z"/>
	<path class="st0" d="M21.3,11.6c0,0.4-0.3,0.8-0.8,0.8h-1.5c-0.4,0-0.8-0.3-0.8-0.8l0,0c0-0.4,0.3-0.8,0.8-0.8h1.5
		C21,10.9,21.3,11.2,21.3,11.6L21.3,11.6z"/>
	<path class="st0" d="M18.5,4.8c-0.3-0.3-0.8-0.3-1.1,0l-1.1,1.1c-0.3,0.3-0.3,0.8,0,1.1l0,0c0.3,0.3,0.8,0.3,1.1,0l1.1-1.1
		C18.8,5.6,18.8,5.1,18.5,4.8L18.5,4.8z"/>
	<path class="st0" d="M5,4.8c0.3-0.3,0.8-0.3,1.1,0l1.1,1.1c0.3,0.3,0.3,0.8,0,1.1l0,0c-0.3,0.3-0.8,0.3-1.1,0L5,5.8
		C4.7,5.5,4.7,5.1,5,4.8L5,4.8z"/>
	<path class="st0" d="M11.7,5C11.3,5,11,4.7,11,4.3l0-1.5c0-0.4,0.3-0.8,0.7-0.8l0,0c0.4,0,0.8,0.3,0.8,0.7l0,1.5
		C12.5,4.7,12.1,5,11.7,5L11.7,5z"/>
	<path class="st0" d="M21.4,20.4c0,0.4-0.3,0.8-0.7,0.8H2.9c-0.4,0-0.7-0.4-0.7-0.8l0,0c0-0.4,0.3-0.8,0.7-0.8h17.8
		C21.1,19.6,21.4,20,21.4,20.4L21.4,20.4z"/>
	<path class="st0" d="M21.2,17.4c0,0.4-0.3,0.8-0.7,0.8H2.7c-0.4,0-0.7-0.4-0.7-0.8l0,0c0-0.4,0.3-0.8,0.7-0.8h17.8
		C20.9,16.6,21.2,17,21.2,17.4L21.2,17.4z"/>
	<path class="st0" d="M21.2,14.5c0,0.4-0.3,0.8-0.7,0.8H2.8c-0.4,0-0.7-0.4-0.7-0.8l0,0c0-0.4,0.3-0.8,0.7-0.8h17.8
		C20.9,13.7,21.2,14,21.2,14.5L21.2,14.5z"/>
	<path class="st0" d="M8.1,12.2c-0.5-4,3.6-4.5,3.6-4.5c2-0.1,4.1,2.1,3.7,4.5h1.4C17.4,7,12,6.3,12,6.3c-4.5,0.2-5.9,4.1-5.4,5.9
		H8.1z"/>
	<path class="st0" d="M5.1,11.6c0,0.4-0.3,0.8-0.8,0.8H2.8c-0.4,0-0.8-0.3-0.8-0.8l0,0c0-0.4,0.3-0.8,0.8-0.8h1.5
		C4.8,10.8,5.1,11.2,5.1,11.6L5.1,11.6z"/>
	<path class="st0" d="M21.3,11.6c0,0.4-0.3,0.8-0.8,0.8h-1.5c-0.4,0-0.8-0.3-0.8-0.8l0,0c0-0.4,0.3-0.8,0.8-0.8h1.5
		C21,10.9,21.3,11.2,21.3,11.6L21.3,11.6z"/>
	<path class="st0" d="M18.5,4.8c-0.3-0.3-0.8-0.3-1.1,0l-1.1,1.1c-0.3,0.3-0.3,0.8,0,1.1l0,0c0.3,0.3,0.8,0.3,1.1,0l1.1-1.1
		C18.8,5.6,18.8,5.1,18.5,4.8L18.5,4.8z"/>
	<path class="st0" d="M5,4.8c0.3-0.3,0.8-0.3,1.1,0l1.1,1.1c0.3,0.3,0.3,0.8,0,1.1l0,0c-0.3,0.3-0.8,0.3-1.1,0L5,5.8
		C4.7,5.5,4.7,5.1,5,4.8L5,4.8z"/>
	<path class="st0" d="M11.7,5C11.3,5,11,4.7,11,4.3l0-1.5c0-0.4,0.3-0.8,0.7-0.8l0,0c0.4,0,0.8,0.3,0.8,0.7l0,1.5
		C12.5,4.7,12.1,5,11.7,5L11.7,5z"/>
	<path class="st0" d="M21.4,20.4c0,0.4-0.3,0.8-0.7,0.8H2.9c-0.4,0-0.7-0.4-0.7-0.8l0,0c0-0.4,0.3-0.8,0.7-0.8h17.8
		C21.1,19.6,21.4,20,21.4,20.4L21.4,20.4z"/>
	<path class="st0" d="M21.2,17.4c0,0.4-0.3,0.8-0.7,0.8H2.7c-0.4,0-0.7-0.4-0.7-0.8l0,0c0-0.4,0.3-0.8,0.7-0.8h17.8
		C20.9,16.6,21.2,17,21.2,17.4L21.2,17.4z"/>
	<path class="st0" d="M21.2,14.5c0,0.4-0.3,0.8-0.7,0.8H2.8c-0.4,0-0.7-0.4-0.7-0.8l0,0c0-0.4,0.3-0.8,0.7-0.8h17.8
		C20.9,13.7,21.2,14,21.2,14.5L21.2,14.5z"/>
	<path class="st0" d="M8.1,12.2c-0.5-4,3.6-4.5,3.6-4.5c2-0.1,4.1,2.1,3.7,4.5h1.4C17.4,7,12,6.3,12,6.3c-4.5,0.2-5.9,4.1-5.4,5.9
		H8.1z"/>
	<path class="st0" d="M5.1,11.6c0,0.4-0.3,0.8-0.8,0.8H2.8c-0.4,0-0.8-0.3-0.8-0.8l0,0c0-0.4,0.3-0.8,0.8-0.8h1.5
		C4.8,10.8,5.1,11.2,5.1,11.6L5.1,11.6z"/>
	<path class="st0" d="M21.3,11.6c0,0.4-0.3,0.8-0.8,0.8h-1.5c-0.4,0-0.8-0.3-0.8-0.8l0,0c0-0.4,0.3-0.8,0.8-0.8h1.5
		C21,10.9,21.3,11.2,21.3,11.6L21.3,11.6z"/>
	<path class="st0" d="M18.5,4.8c-0.3-0.3-0.8-0.3-1.1,0l-1.1,1.1c-0.3,0.3-0.3,0.8,0,1.1l0,0c0.3,0.3,0.8,0.3,1.1,0l1.1-1.1
		C18.8,5.6,18.8,5.1,18.5,4.8L18.5,4.8z"/>
	<path class="st0" d="M5,4.8c0.3-0.3,0.8-0.3,1.1,0l1.1,1.1c0.3,0.3,0.3,0.8,0,1.1l0,0c-0.3,0.3-0.8,0.3-1.1,0L5,5.8
		C4.7,5.5,4.7,5.1,5,4.8L5,4.8z"/>
	<path class="st0" d="M11.7,5C11.3,5,11,4.7,11,4.3l0-1.5c0-0.4,0.3-0.8,0.7-0.8l0,0c0.4,0,0.8,0.3,0.8,0.7l0,1.5
		C12.5,4.7,12.1,5,11.7,5L11.7,5z"/>
</g>
</svg>
