<?xml version="1.0" encoding="utf-8"?>
<!-- Generator: Adobe Illustrator 25.2.0, SVG Export Plug-In . SVG Version: 6.00 Build 0)  -->
<svg version="1.1" id="Layer_1" xmlns="http://www.w3.org/2000/svg" xmlns:xlink="http://www.w3.org/1999/xlink" x="0px" y="0px"
	 viewBox="0 0 23.5 23.5" style="enable-background:new 0 0 23.5 23.5;" xml:space="preserve">
<style type="text/css">
	.st0{fill:#B4C3D3;}
	.st1{fill:#FFFFFF;}
	.st2{fill-rule:evenodd;clip-rule:evenodd;fill:#B4C3D3;}
	.st3{fill:none;}
</style>
<g>
	<path class="st0" d="M20.8,17.7c0,0.3-0.3,0.6-0.6,0.6H2.7c-0.3,0-0.6-0.3-0.6-0.6V6c0-0.3,0.3-0.6,0.6-0.6h17.5
		c0.3,0,0.6,0.3,0.6,0.6V17.7z"/>
	<path class="st0" d="M19.7,7.6c0,0.3-0.3,0.6-0.6,0.6h-5.5c-0.3,0-0.6-0.3-0.6-0.6v-3c0-0.3,0.3-0.6,0.6-0.6h5.5
		c0.3,0,0.6,0.3,0.6,0.6V7.6z"/>
</g>
</svg>
