<?xml version="1.0" encoding="utf-8"?>
<!-- Generator: Adobe Illustrator 25.2.0, SVG Export Plug-In . SVG Version: 6.00 Build 0)  -->
<svg version="1.1" id="Layer_1" xmlns="http://www.w3.org/2000/svg" xmlns:xlink="http://www.w3.org/1999/xlink" x="0px" y="0px"
	 viewBox="0 0 23.5 23.5" style="enable-background:new 0 0 23.5 23.5;" xml:space="preserve">
<style type="text/css">
	.st0{fill:#B4C3D3;}
	.st1{fill:#FFFFFF;}
	.st2{fill-rule:evenodd;clip-rule:evenodd;fill:#B4C3D3;}
	.st3{fill:none;}
</style>
<g>
	<path class="st0" d="M9.7,3.8c0,0-1.2-0.3-1.1,0.8l1.5,3.9l-4,2.7c0,0-0.4,0.7,0.4,0.9c0.8,0.2,6.8,2.5,6.8,2.5s1.3,0.2,0.8-0.9
		c-0.5-1.1-1.4-3.9-1.4-3.9l3.9-2.6c0,0,0.4-0.8-0.3-1L9.7,3.8z"/>
	<path class="st0" d="M7.7,14c0,0-1.7,7.8-1.6,8.3c0,0,0.1,0.2,0.3,0c0.2-0.2,4-7,4-7s0.2-0.2,0-0.3C10.2,15,7.9,14,7.9,14
		S7.8,13.8,7.7,14z"/>
</g>
</svg>
