<?xml version="1.0" encoding="utf-8"?>
<!-- Generator: Adobe Illustrator 25.2.0, SVG Export Plug-In . SVG Version: 6.00 Build 0)  -->
<svg version="1.1" id="Layer_1" xmlns="http://www.w3.org/2000/svg" xmlns:xlink="http://www.w3.org/1999/xlink" x="0px" y="0px"
	 viewBox="0 0 23.5 23.5" style="enable-background:new 0 0 23.5 23.5;" xml:space="preserve">
<style type="text/css">
	.st0{fill:#B4C3D3;}
	.st1{fill:#FFFFFF;}
	.st2{fill-rule:evenodd;clip-rule:evenodd;fill:#B4C3D3;}
	.st3{fill:none;}
</style>
<g>
	<path class="st2" d="M12.2,18.9c-4.7,0-8.5-3.8-8.5-8.5c0-4.7,3.8-8.5,8.5-8.5c4.7,0,8.5,3.8,8.5,8.5
		C20.7,15.1,16.9,18.9,12.2,18.9L12.2,18.9z M12.2,3.8c-3.6,0-6.6,3-6.6,6.6c0,3.6,3,6.6,6.6,6.6c3.6,0,6.6-3,6.6-6.6
		C18.8,6.8,15.8,3.8,12.2,3.8L12.2,3.8z M17.3,11.5c-2,0-8,0-10.1,0c-0.5,0-0.7-0.2-0.7-0.6c0-0.3,0-0.8,0-1.1
		c0-0.4,0.2-0.5,0.6-0.5c1.9,0,8,0,10.1,0c0.6,0,0.7,0.2,0.7,0.7c0,0.3,0,0.6,0,0.9C17.9,11.3,17.8,11.5,17.3,11.5L17.3,11.5z"/>
</g>
</svg>
