<?xml version="1.0" encoding="utf-8"?>
<!-- Generator: Adobe Illustrator 25.2.0, SVG Export Plug-In . SVG Version: 6.00 Build 0)  -->
<svg version="1.1" id="Layer_1" xmlns="http://www.w3.org/2000/svg" xmlns:xlink="http://www.w3.org/1999/xlink" x="0px" y="0px"
	 viewBox="0 0 23.5 23.5" style="enable-background:new 0 0 23.5 23.5;" xml:space="preserve">
<style type="text/css">
	.st0{fill:#B4C3D3;}
	.st1{fill:#FFFFFF;}
	.st2{fill-rule:evenodd;clip-rule:evenodd;fill:#B4C3D3;}
	.st3{fill:none;}
</style>
<g>
	<path class="st0" d="M19.4,4.7c1.7,0,2,1.7,2,1.7v9.8c0,0.4-0.4,0.8-0.8,0.8h-18c-0.4,0-0.8-0.4-0.8-0.8V6.4c0,0,0.3-1.7,2-1.7
		c1.7,0,1.9,1.7,1.9,1.7s0.3-1.6,2-1.6c1.7,0,2,1.6,2,1.6s0.1-1.6,1.9-1.6c1.8,0,2,1.7,2,1.7s0.2-1.8,1.9-1.8c1.7,0,2,1.8,2,1.8
		S17.8,4.7,19.4,4.7z"/>
</g>
</svg>
