<?xml version="1.0" encoding="utf-8"?>
<!-- Generator: Adobe Illustrator 25.2.0, SVG Export Plug-In . SVG Version: 6.00 Build 0)  -->
<svg version="1.1" id="Layer_1" xmlns="http://www.w3.org/2000/svg" xmlns:xlink="http://www.w3.org/1999/xlink" x="0px" y="0px"
	 viewBox="0 0 23.5 23.5" style="enable-background:new 0 0 23.5 23.5;" xml:space="preserve">
<style type="text/css">
	.st0{fill:#B4C3D3;}
	.st1{fill:#FFFFFF;}
	.st2{fill-rule:evenodd;clip-rule:evenodd;fill:#B4C3D3;}
	.st3{fill:none;}
</style>
<g>
	<path class="st2" d="M19.3,20.6H7.4c-0.6,0-1.1-0.5-1.1-1.1v-2H7c0.5,0,1.1-0.6,1.1-1.1v-0.5c0-0.5-0.6-1.1-1.1-1.1H6.2v-1.4H7
		c0.5,0,1.1-0.5,1.1-1v-0.5c0-0.6-0.4-1.2-1-1.2H6.2V9.4h0.6C7.4,9.4,8,8.9,8,8.3V7.8c0-0.5-0.6-1.1-1.2-1.1H6.2v-2
		c0-0.6,0.5-1.1,1.1-1.1h11.9c0.6,0,1.1,0.5,1.1,1.1v14.8C20.4,20.1,19.9,20.6,19.3,20.6L19.3,20.6z M17.1,13.8
		c-1.2-0.5-1.3-0.5-1.3-0.5s-0.3-0.5-0.4-0.5c-0.1,0,0-0.2,0-0.3c0,0,0.2,0,0.2-0.7c0-0.2,0-0.2,0.1-0.2c0.1,0,0.4-0.2,0.4-0.7
		c0-0.5,0-0.6-0.1-0.6c0-0.2,0.1-0.5,0.1-1.3c-0.1-0.8-0.4-1.2-0.7-1.4c-0.1,0-0.1-0.2-0.2-0.3c-0.3,0-0.6,0.2-0.9,0.2
		c-1.2,0-1.8,0.7-1.8,1.5c0,0.8,0.1,1.1,0.1,1.3c-0.1,0-0.1,0-0.1,0.6c0,0.6,0.3,0.7,0.4,0.7c0.1,0,0.1,0,0.1,0.2
		c0,0.7,0.2,0.6,0.2,0.7c0,0.1,0.1,0.2,0,0.3c-0.1,0-0.4,0.5-0.4,0.5s-0.1,0.1-1.3,0.5c-1.8,0.6-1.6,2.4-1.6,2.4h4.5h4.5
		C18.7,16.2,18.9,14.4,17.1,13.8L17.1,13.8z M7.5,8v0.1C7.5,8.6,7.1,9,6.7,9H5.3C4.8,9,4.4,8.6,4.4,8.1V8c0-0.5,0.4-0.9,0.9-0.9h1.4
		C7.1,7.1,7.5,7.5,7.5,8L7.5,8z M5.4,11.1h1.4c0.5,0,0.9,0.4,0.9,0.8v0.1c0,0.5-0.4,0.9-0.9,0.9H5.4c-0.5,0-0.9-0.4-0.9-0.9v-0.1
		C4.5,11.5,4.9,11.1,5.4,11.1L5.4,11.1z M5.4,15.2h1.4c0.5,0,0.9,0.4,0.9,0.8v0.1c0,0.5-0.4,0.9-0.9,0.9H5.4c-0.5,0-0.9-0.4-0.9-0.9
		v-0.1C4.5,15.6,4.9,15.2,5.4,15.2L5.4,15.2z"/>
</g>
</svg>
