<?xml version="1.0" encoding="utf-8"?>
<!-- Generator: Adobe Illustrator 25.2.0, SVG Export Plug-In . SVG Version: 6.00 Build 0)  -->
<svg version="1.1" id="Layer_1" xmlns="http://www.w3.org/2000/svg" xmlns:xlink="http://www.w3.org/1999/xlink" x="0px" y="0px"
	 viewBox="0 0 23.5 23.5" style="enable-background:new 0 0 23.5 23.5;" xml:space="preserve">
<style type="text/css">
	.st0{fill:#B4C3D3;}
	.st1{fill:#FFFFFF;}
	.st2{fill-rule:evenodd;clip-rule:evenodd;fill:#B4C3D3;}
	.st3{fill:none;}
</style>
<g>
	<path class="st0" d="M4.5,14.5c-1.3,0-2.4-1.1-2.4-2.4c0-1.3,1.1-2.4,2.4-2.4c1.3,0,2.4,1.1,2.4,2.4C6.9,13.4,5.8,14.5,4.5,14.5
		L4.5,14.5z M10.4,8.6c-1.3,0-2.4-1.1-2.4-2.4c0-1.3,1.1-2.4,2.4-2.4s2.4,1.1,2.4,2.4C12.8,7.5,11.8,8.6,10.4,8.6L10.4,8.6z
		 M18.8,16.9c-1.3,0-2.4-1.1-2.4-2.4c0-1.3,1.1-2.4,2.4-2.4c1.3,0,2.4,1.1,2.4,2.4C21.1,15.8,20.1,16.9,18.8,16.9L18.8,16.9z
		 M18.1,15.1L11,6.8L11.9,6l7.1,8.3L18.1,15.1L18.1,15.1z M4.7,12.7l-0.8-0.8L9.8,6l0.8,0.8L4.7,12.7L4.7,12.7z"/>
</g>
</svg>
