<?xml version="1.0" encoding="utf-8"?>
<!-- Generator: Adobe Illustrator 25.2.0, SVG Export Plug-In . SVG Version: 6.00 Build 0)  -->
<svg version="1.1" id="Layer_1" xmlns="http://www.w3.org/2000/svg" xmlns:xlink="http://www.w3.org/1999/xlink" x="0px" y="0px"
	 viewBox="0 0 23.5 23.5" style="enable-background:new 0 0 23.5 23.5;" xml:space="preserve">
<style type="text/css">
	.st0{fill:#B4C3D3;}
	.st1{fill:#FFFFFF;}
	.st2{fill-rule:evenodd;clip-rule:evenodd;fill:#B4C3D3;}
	.st3{fill:none;}
</style>
<g>
	<path class="st2" d="M9.7,3.4c-1.8,0-3.3,1.5-3.3,3.3c0,1.8,1.5,5,3.3,5s3.3-3.1,3.3-5C13,4.9,11.5,3.4,9.7,3.4L9.7,3.4z M12.8,11
		c-0.5,0.4-1,0.7-1.5,0.7c-0.1,0-0.3,0-0.4-0.1c-0.5,0.3-0.9,0.7-1.1,1.3c0.2,0.1,0.4,0.2,0.6,0.3c-0.3,0.1-0.6,0.2-0.8,0.2
		c-0.8,0-1.9-0.6-2.8-1.5C4.6,12.2,3,13.1,3,15.1v1.7c0,0.9,0.7,1.7,1.7,1.7h10c0.9,0,1.7-0.7,1.7-1.7v-1.7c0-1.6-1-2.4-2.5-2.9
		c0.1-0.1,0.2-0.2,0.3-0.3c0.1,0,0.1,0,0.2,0c-0.4-0.2-0.9-0.6-1.4-1C13,11,12.9,11,12.8,11L12.8,11z M15.5,3.4
		c-0.8,0-1.5,0.3-2,0.8c0.7,0.6,1.2,1.5,1.2,2.5c0,0.9-0.3,2-0.9,3c0.5,0.6,1.1,1.1,1.7,1.1c1.6,0,2.9-2.8,2.9-4.4
		C18.4,4.8,17.1,3.4,15.5,3.4L15.5,3.4z M18,11c-0.8,0.7-1.6,1.2-2.3,1.3c1.4,0.5,2.3,1.3,2.3,2.8v1.7h1.9c0.8,0,1.5-0.7,1.5-1.5
		v-1.5C21.3,12,19.9,11.3,18,11L18,11z"/>
</g>
</svg>
