<?xml version="1.0" encoding="utf-8"?>
<!-- Generator: Adobe Illustrator 25.2.0, SVG Export Plug-In . SVG Version: 6.00 Build 0)  -->
<svg version="1.1" id="Layer_1" xmlns="http://www.w3.org/2000/svg" xmlns:xlink="http://www.w3.org/1999/xlink" x="0px" y="0px"
	 viewBox="0 0 23.5 23.5" style="enable-background:new 0 0 23.5 23.5;" xml:space="preserve">
<style type="text/css">
	.st0{fill:#B4C3D3;}
	.st1{fill:#FFFFFF;}
	.st2{fill-rule:evenodd;clip-rule:evenodd;fill:#B4C3D3;}
	.st3{fill:none;}
</style>
<path class="st2" d="M20.2,9.4c-0.2,0-2.3-0.1-2.5-0.1c-1.6,0.2-1,0.9-2.7,1.6c-1.7,0.7-4.5,1.6-4.5,1.6L7.1,2.8
	c0,0,3.4,0.9,4.7,0.5c1.7-0.4,2.9-1.3,5.4-1.4c0.3,0-1.5,4.6-1.5,4.6L20.2,9.4L20.2,9.4z M13.1,6.6V5.4l-1.2-1.2v2.4h-1.2L9.5,7.8
	h2.4V9l1.2,1.2V7.8h1.2l1.2-1.2H13.1L13.1,6.6z M10.4,20.1L10,20.2c-0.1-0.3-0.4-0.4-0.7-0.4L3.9,3.2c0.3-0.1,0.4-0.4,0.3-0.7
	l0.4-0.1c0.1,0.3,0.4,0.5,0.7,0.4l5.4,16.7C10.5,19.5,10.3,19.8,10.4,20.1L10.4,20.1z"/>
</svg>
