<?xml version="1.0" encoding="utf-8"?>
<!-- Generator: Adobe Illustrator 25.2.0, SVG Export Plug-In . SVG Version: 6.00 Build 0)  -->
<svg version="1.1" id="Layer_1" xmlns="http://www.w3.org/2000/svg" xmlns:xlink="http://www.w3.org/1999/xlink" x="0px" y="0px"
	 viewBox="0 0 170.1 170.1" style="enable-background:new 0 0 170.1 170.1;" xml:space="preserve">
<style type="text/css">
	.st0{fill:#EDEDED;}
	.st1{fill:url(#SVGID_1_);}
	.st2{fill:url(#SVGID_2_);}
	.st3{fill:url(#SVGID_3_);}
	.st4{fill:url(#SVGID_4_);}
	.st5{fill:url(#SVGID_5_);}
	.st6{fill:url(#SVGID_6_);}
	.st7{fill:url(#SVGID_7_);}
	.st8{fill:url(#SVGID_8_);}
	.st9{fill:url(#SVGID_9_);}
	.st10{fill:url(#SVGID_10_);}
	.st11{fill:url(#SVGID_11_);}
	.st12{fill:url(#SVGID_12_);}
	.st13{fill:url(#SVGID_13_);}
	.st14{fill:url(#SVGID_14_);}
	.st15{fill:url(#SVGID_15_);}
	.st16{fill:url(#SVGID_16_);}
	.st17{fill:url(#SVGID_17_);}
	.st18{fill:#FFFFFF;}
	.st19{fill:#ECC461;}
	.st20{fill:url(#SVGID_18_);}
	.st21{fill:url(#SVGID_19_);}
	.st22{fill:url(#SVGID_20_);}
	.st23{fill:url(#SVGID_21_);}
	.st24{fill:url(#SVGID_22_);}
	.st25{fill:url(#SVGID_23_);}
	.st26{fill:url(#SVGID_24_);}
	.st27{fill:url(#SVGID_25_);}
	.st28{fill:url(#SVGID_26_);}
	.st29{fill:url(#SVGID_27_);}
	.st30{fill:url(#SVGID_28_);}
	.st31{fill:url(#SVGID_29_);}
	.st32{fill:url(#SVGID_30_);}
	.st33{fill:url(#SVGID_31_);}
	.st34{fill:url(#SVGID_32_);}
	.st35{fill:url(#SVGID_33_);}
	.st36{fill:url(#SVGID_34_);}
	.st37{fill:#72C8B5;}
	.st38{fill:url(#SVGID_35_);}
	.st39{fill:url(#SVGID_36_);}
	.st40{fill:url(#SVGID_37_);}
	.st41{fill:url(#SVGID_38_);}
	.st42{fill:url(#SVGID_39_);}
	.st43{fill:url(#SVGID_40_);}
	.st44{fill:url(#SVGID_41_);}
	.st45{fill:url(#SVGID_42_);}
	.st46{fill:url(#SVGID_43_);}
	.st47{fill:url(#SVGID_44_);}
	.st48{fill:url(#SVGID_45_);}
	.st49{fill:url(#SVGID_46_);}
	.st50{fill:url(#SVGID_47_);}
	.st51{fill:url(#SVGID_48_);}
	.st52{fill:url(#SVGID_49_);}
	.st53{fill:url(#SVGID_50_);}
	.st54{fill:url(#SVGID_51_);}
	.st55{fill:#72BBD4;}
	.st56{fill:url(#SVGID_52_);}
	.st57{fill:url(#SVGID_53_);}
	.st58{fill:url(#SVGID_54_);}
	.st59{fill:url(#SVGID_55_);}
	.st60{fill:url(#SVGID_56_);}
	.st61{fill:url(#SVGID_57_);}
	.st62{fill:url(#SVGID_58_);}
	.st63{fill:url(#SVGID_59_);}
	.st64{fill:url(#SVGID_60_);}
	.st65{fill:url(#SVGID_61_);}
	.st66{fill:url(#SVGID_62_);}
	.st67{fill:url(#SVGID_63_);}
	.st68{fill:url(#SVGID_64_);}
	.st69{fill:url(#SVGID_65_);}
	.st70{fill:url(#SVGID_66_);}
	.st71{fill:url(#SVGID_67_);}
	.st72{fill:url(#SVGID_68_);}
	.st73{fill:url(#SVGID_69_);}
	.st74{fill:url(#SVGID_70_);}
	.st75{fill:url(#SVGID_71_);}
	.st76{fill:url(#SVGID_72_);}
	.st77{fill:url(#SVGID_73_);}
	.st78{fill:url(#SVGID_74_);}
	.st79{fill:url(#SVGID_75_);}
	.st80{fill:url(#SVGID_76_);}
	.st81{fill:url(#SVGID_77_);}
	.st82{fill:url(#SVGID_78_);}
	.st83{fill:url(#SVGID_79_);}
	.st84{fill:url(#SVGID_80_);}
	.st85{fill:url(#SVGID_81_);}
	.st86{fill:url(#SVGID_82_);}
	.st87{fill:url(#SVGID_83_);}
	.st88{fill:url(#SVGID_84_);}
	.st89{fill:url(#SVGID_85_);}
	.st90{fill:#F17F68;}
	.st91{fill:url(#SVGID_86_);}
	.st92{fill:url(#SVGID_87_);}
	.st93{fill:url(#SVGID_88_);}
	.st94{fill:url(#SVGID_89_);}
	.st95{fill:url(#SVGID_90_);}
	.st96{fill:url(#SVGID_91_);}
	.st97{fill:url(#SVGID_92_);}
	.st98{fill:url(#SVGID_93_);}
	.st99{fill:url(#SVGID_94_);}
	.st100{fill:url(#SVGID_95_);}
	.st101{fill:url(#SVGID_96_);}
	.st102{fill:url(#SVGID_97_);}
	.st103{fill:url(#SVGID_98_);}
	.st104{fill:url(#SVGID_99_);}
	.st105{fill:url(#SVGID_100_);}
	.st106{fill:url(#SVGID_101_);}
	.st107{fill:url(#SVGID_102_);}
	.st108{fill:url(#SVGID_103_);}
	.st109{fill:url(#SVGID_104_);}
	.st110{fill:url(#SVGID_105_);}
	.st111{fill:url(#SVGID_106_);}
	.st112{fill:url(#SVGID_107_);}
	.st113{fill:url(#SVGID_108_);}
	.st114{fill:url(#SVGID_109_);}
	.st115{fill:url(#SVGID_110_);}
	.st116{fill:url(#SVGID_111_);}
	.st117{fill:url(#SVGID_112_);}
	.st118{fill:url(#SVGID_113_);}
	.st119{fill:url(#SVGID_114_);}
	.st120{fill:url(#SVGID_115_);}
	.st121{fill:url(#SVGID_116_);}
	.st122{fill:url(#SVGID_117_);}
	.st123{fill:url(#SVGID_118_);}
	.st124{fill:url(#SVGID_119_);}
	.st125{fill-rule:evenodd;clip-rule:evenodd;fill:#FFFFFF;}
	.st126{fill:url(#SVGID_120_);}
	.st127{fill:url(#SVGID_121_);}
	.st128{fill:url(#SVGID_122_);}
	.st129{fill:url(#SVGID_123_);}
	.st130{fill:url(#SVGID_124_);}
	.st131{fill:url(#SVGID_125_);}
	.st132{fill:url(#SVGID_126_);}
	.st133{fill:url(#SVGID_127_);}
	.st134{fill:url(#SVGID_128_);}
	.st135{fill:url(#SVGID_129_);}
	.st136{fill:url(#SVGID_130_);}
	.st137{fill:url(#SVGID_131_);}
	.st138{fill:url(#SVGID_132_);}
	.st139{fill:url(#SVGID_133_);}
	.st140{fill:url(#SVGID_134_);}
	.st141{fill:url(#SVGID_135_);}
	.st142{fill:url(#SVGID_136_);}
	.st143{fill:url(#SVGID_137_);}
	.st144{fill:url(#SVGID_138_);}
	.st145{fill:url(#SVGID_139_);}
	.st146{fill:url(#SVGID_140_);}
	.st147{fill:url(#SVGID_141_);}
	.st148{fill:url(#SVGID_142_);}
	.st149{fill:url(#SVGID_143_);}
	.st150{fill:url(#SVGID_144_);}
	.st151{fill:url(#SVGID_145_);}
	.st152{fill:url(#SVGID_146_);}
	.st153{fill:url(#SVGID_147_);}
	.st154{fill:url(#SVGID_148_);}
	.st155{fill:url(#SVGID_149_);}
	.st156{fill:url(#SVGID_150_);}
	.st157{fill:url(#SVGID_151_);}
	.st158{fill:url(#SVGID_152_);}
	.st159{fill:url(#SVGID_153_);}
	.st160{fill:url(#SVGID_154_);}
	.st161{fill:url(#SVGID_155_);}
	.st162{fill:url(#SVGID_156_);}
	.st163{fill:url(#SVGID_157_);}
	.st164{fill:url(#SVGID_158_);}
	.st165{fill:url(#SVGID_159_);}
	.st166{fill:url(#SVGID_160_);}
	.st167{fill:url(#SVGID_161_);}
	.st168{fill:url(#SVGID_162_);}
	.st169{fill:url(#SVGID_163_);}
	.st170{fill:url(#SVGID_164_);}
	.st171{fill:url(#SVGID_165_);}
	.st172{fill:url(#SVGID_166_);}
	.st173{fill:url(#SVGID_167_);}
	.st174{fill:url(#SVGID_168_);}
	.st175{fill:url(#SVGID_169_);}
	.st176{fill:url(#SVGID_170_);}
	.st177{fill:url(#SVGID_171_);}
	.st178{fill:url(#SVGID_172_);}
	.st179{fill:url(#SVGID_173_);}
	.st180{fill:url(#SVGID_174_);}
	.st181{fill:url(#SVGID_175_);}
	.st182{fill:url(#SVGID_176_);}
	.st183{fill:url(#SVGID_177_);}
	.st184{fill:url(#SVGID_178_);}
	.st185{fill:url(#SVGID_179_);}
	.st186{fill:url(#SVGID_180_);}
	.st187{fill:url(#SVGID_181_);}
	.st188{fill:url(#SVGID_182_);}
	.st189{fill:url(#SVGID_183_);}
	.st190{fill:url(#SVGID_184_);}
	.st191{fill:url(#SVGID_185_);}
	.st192{fill:url(#SVGID_186_);}
	.st193{fill:url(#SVGID_187_);}
	.st194{fill:#FFFFFF;stroke:#010101;stroke-width:2.0974;stroke-linecap:round;stroke-linejoin:round;stroke-miterlimit:10;}
	.st195{fill:url(#SVGID_188_);}
	.st196{fill:url(#SVGID_189_);}
	.st197{fill:url(#SVGID_190_);}
	.st198{fill:url(#SVGID_191_);}
	.st199{fill:url(#SVGID_192_);}
	.st200{fill:url(#SVGID_193_);}
	.st201{fill:url(#SVGID_194_);}
	.st202{fill:url(#SVGID_195_);}
	.st203{fill:url(#SVGID_196_);}
	.st204{fill:url(#SVGID_197_);}
	.st205{fill:url(#SVGID_198_);}
	.st206{fill:url(#SVGID_199_);}
	.st207{fill:url(#SVGID_200_);}
	.st208{fill:url(#SVGID_201_);}
	.st209{fill:url(#SVGID_202_);}
	.st210{fill:url(#SVGID_203_);}
	.st211{fill:url(#SVGID_204_);}
	.st212{fill:#4576BB;}
</style>
<g>
	<g>
		<g>
			<path class="st0" d="M156.4,85c0,39.4-32,71.4-71.4,71.4c-39.4,0-71.4-32-71.4-71.4c0-39.4,32-71.4,71.4-71.4
				C124.5,13.6,156.4,45.6,156.4,85z"/>
			<linearGradient id="SVGID_1_" gradientUnits="userSpaceOnUse" x1="85.0394" y1="13.7396" x2="85.0394" y2="156.3159">
				<stop  offset="0" style="stop-color:#EDEDED"/>
				<stop  offset="1" style="stop-color:#ECECEC"/>
			</linearGradient>
			<path class="st1" d="M156.3,85c0,39.4-31.9,71.3-71.3,71.3c-39.4,0-71.3-31.9-71.3-71.3c0-39.4,31.9-71.3,71.3-71.3
				C124.4,13.7,156.3,45.7,156.3,85z"/>
			<linearGradient id="SVGID_2_" gradientUnits="userSpaceOnUse" x1="85.0394" y1="13.843" x2="85.0394" y2="156.1894">
				<stop  offset="0" style="stop-color:#ECECEC"/>
				<stop  offset="1" style="stop-color:#EAEAEA"/>
			</linearGradient>
			<path class="st2" d="M156.2,85c0,39.3-31.9,71.2-71.2,71.2c-39.3,0-71.2-31.9-71.2-71.2c0-39.3,31.9-71.2,71.2-71.2
				C124.3,13.8,156.2,45.7,156.2,85z"/>
			<linearGradient id="SVGID_3_" gradientUnits="userSpaceOnUse" x1="85.0394" y1="13.9464" x2="85.0394" y2="156.0629">
				<stop  offset="0" style="stop-color:#ECECEC"/>
				<stop  offset="1" style="stop-color:#E8E8E8"/>
			</linearGradient>
			<path class="st3" d="M156.1,85c0,39.2-31.8,71.1-71.1,71.1C45.8,156.1,14,124.2,14,85C14,45.8,45.8,13.9,85,13.9
				C124.3,13.9,156.1,45.8,156.1,85z"/>
			<linearGradient id="SVGID_4_" gradientUnits="userSpaceOnUse" x1="85.0394" y1="14.0498" x2="85.0394" y2="155.9363">
				<stop  offset="0" style="stop-color:#EBEBEB"/>
				<stop  offset="1" style="stop-color:#E7E7E7"/>
			</linearGradient>
			<path class="st4" d="M156,85c0,39.2-31.8,70.9-70.9,70.9c-39.2,0-70.9-31.8-70.9-70.9C14.1,45.8,45.9,14,85,14
				C124.2,14,156,45.8,156,85z"/>
			<linearGradient id="SVGID_5_" gradientUnits="userSpaceOnUse" x1="85.0394" y1="14.1531" x2="85.0394" y2="155.8098">
				<stop  offset="0" style="stop-color:#EBEBEB"/>
				<stop  offset="1" style="stop-color:#E5E5E5"/>
			</linearGradient>
			<path class="st5" d="M155.9,85c0,39.1-31.7,70.8-70.8,70.8c-39.1,0-70.8-31.7-70.8-70.8c0-39.1,31.7-70.8,70.8-70.8
				C124.2,14.2,155.9,45.9,155.9,85z"/>
			<linearGradient id="SVGID_6_" gradientUnits="userSpaceOnUse" x1="85.0394" y1="14.2565" x2="85.0394" y2="155.6832">
				<stop  offset="0" style="stop-color:#EAEAEA"/>
				<stop  offset="1" style="stop-color:#E3E3E3"/>
			</linearGradient>
			<path class="st6" d="M155.8,85c0,39.1-31.7,70.7-70.7,70.7C46,155.7,14.3,124,14.3,85C14.3,45.9,46,14.3,85,14.3
				C124.1,14.3,155.8,45.9,155.8,85z"/>
			<linearGradient id="SVGID_7_" gradientUnits="userSpaceOnUse" x1="85.0394" y1="14.3599" x2="85.0394" y2="155.5567">
				<stop  offset="0" style="stop-color:#EAEAEA"/>
				<stop  offset="1" style="stop-color:#E2E2E2"/>
			</linearGradient>
			<path class="st7" d="M155.6,85c0,39-31.6,70.6-70.6,70.6c-39,0-70.6-31.6-70.6-70.6C14.4,46,46,14.4,85,14.4
				C124,14.4,155.6,46,155.6,85z"/>
			<linearGradient id="SVGID_8_" gradientUnits="userSpaceOnUse" x1="85.0394" y1="14.4633" x2="85.0394" y2="155.4301">
				<stop  offset="0" style="stop-color:#EAEAEA"/>
				<stop  offset="1" style="stop-color:#E0E0E0"/>
			</linearGradient>
			<path class="st8" d="M155.5,84.9c0,38.9-31.6,70.5-70.5,70.5c-38.9,0-70.5-31.6-70.5-70.5C14.6,46,46.1,14.5,85,14.5
				C124,14.5,155.5,46,155.5,84.9z"/>
			<linearGradient id="SVGID_9_" gradientUnits="userSpaceOnUse" x1="85.0394" y1="14.5666" x2="85.0394" y2="155.3036">
				<stop  offset="0" style="stop-color:#E9E9E9"/>
				<stop  offset="1" style="stop-color:#DEDEDE"/>
			</linearGradient>
			<path class="st9" d="M155.4,84.9c0,38.9-31.5,70.4-70.4,70.4c-38.9,0-70.4-31.5-70.4-70.4c0-38.9,31.5-70.4,70.4-70.4
				C123.9,14.6,155.4,46.1,155.4,84.9z"/>
			<linearGradient id="SVGID_10_" gradientUnits="userSpaceOnUse" x1="85.0394" y1="14.67" x2="85.0394" y2="155.177">
				<stop  offset="0" style="stop-color:#E9E9E9"/>
				<stop  offset="1" style="stop-color:#DDDDDD"/>
			</linearGradient>
			<path class="st10" d="M155.3,84.9c0,38.8-31.5,70.3-70.3,70.3c-38.8,0-70.3-31.5-70.3-70.3c0-38.8,31.5-70.3,70.3-70.3
				C123.8,14.7,155.3,46.1,155.3,84.9z"/>
			<linearGradient id="SVGID_11_" gradientUnits="userSpaceOnUse" x1="85.0394" y1="14.7734" x2="85.0394" y2="155.0505">
				<stop  offset="0" style="stop-color:#E8E8E8"/>
				<stop  offset="1" style="stop-color:#DBDBDB"/>
			</linearGradient>
			<path class="st11" d="M155.2,84.9c0,38.7-31.4,70.1-70.1,70.1c-38.7,0-70.1-31.4-70.1-70.1c0-38.7,31.4-70.1,70.1-70.1
				C123.8,14.8,155.2,46.2,155.2,84.9z"/>
			<linearGradient id="SVGID_12_" gradientUnits="userSpaceOnUse" x1="85.0394" y1="14.8768" x2="85.0394" y2="154.924">
				<stop  offset="0" style="stop-color:#E8E8E8"/>
				<stop  offset="1" style="stop-color:#D9D9D9"/>
			</linearGradient>
			<path class="st12" d="M155.1,84.9c0,38.7-31.4,70-70,70c-38.7,0-70-31.4-70-70c0-38.7,31.3-70,70-70
				C123.7,14.9,155.1,46.2,155.1,84.9z"/>
			<linearGradient id="SVGID_13_" gradientUnits="userSpaceOnUse" x1="85.0394" y1="14.9801" x2="85.0394" y2="154.7974">
				<stop  offset="0" style="stop-color:#E7E7E7"/>
				<stop  offset="1" style="stop-color:#D8D8D8"/>
			</linearGradient>
			<path class="st13" d="M154.9,84.9c0,38.6-31.3,69.9-69.9,69.9c-38.6,0-69.9-31.3-69.9-69.9C15.1,46.3,46.4,15,85,15
				C123.6,15,154.9,46.3,154.9,84.9z"/>
			<linearGradient id="SVGID_14_" gradientUnits="userSpaceOnUse" x1="85.0394" y1="15.0835" x2="85.0394" y2="154.6709">
				<stop  offset="0" style="stop-color:#E7E7E7"/>
				<stop  offset="1" style="stop-color:#D6D6D6"/>
			</linearGradient>
			<path class="st14" d="M154.8,84.9c0,38.5-31.2,69.8-69.8,69.8c-38.5,0-69.8-31.2-69.8-69.8c0-38.5,31.2-69.8,69.8-69.8
				C123.6,15.1,154.8,46.3,154.8,84.9z"/>
			<linearGradient id="SVGID_15_" gradientUnits="userSpaceOnUse" x1="85.0394" y1="15.1869" x2="85.0394" y2="154.5443">
				<stop  offset="0" style="stop-color:#E6E6E6"/>
				<stop  offset="1" style="stop-color:#D4D4D4"/>
			</linearGradient>
			<path class="st15" d="M154.7,84.9c0,38.5-31.2,69.7-69.7,69.7c-38.5,0-69.7-31.2-69.7-69.7c0-38.5,31.2-69.7,69.7-69.7
				C123.5,15.2,154.7,46.4,154.7,84.9z"/>
			<linearGradient id="SVGID_16_" gradientUnits="userSpaceOnUse" x1="85.0394" y1="15.2903" x2="85.0394" y2="154.4178">
				<stop  offset="0" style="stop-color:#E6E6E6"/>
				<stop  offset="1" style="stop-color:#D3D3D3"/>
			</linearGradient>
			<path class="st16" d="M154.6,84.9c0,38.4-31.1,69.6-69.6,69.6c-38.4,0-69.6-31.1-69.6-69.6c0-38.4,31.1-69.6,69.6-69.6
				C123.5,15.3,154.6,46.4,154.6,84.9z"/>
			<linearGradient id="SVGID_17_" gradientUnits="userSpaceOnUse" x1="85.0394" y1="15.3937" x2="85.0394" y2="154.2912">
				<stop  offset="0" style="stop-color:#E6E6E6"/>
				<stop  offset="1" style="stop-color:#D1D1D1"/>
			</linearGradient>
			<path class="st17" d="M154.5,84.8c0,38.4-31.1,69.4-69.4,69.4c-38.4,0-69.4-31.1-69.4-69.4c0-38.4,31.1-69.5,69.4-69.5
				C123.4,15.4,154.5,46.5,154.5,84.8z"/>
		</g>
		<path class="st212" d="M154.7,84.3c0,38.5-31.2,69.7-69.7,69.7c-38.5,0-69.7-31.2-69.7-69.7c0-38.5,31.2-69.7,69.7-69.7
			C123.5,14.7,154.7,45.8,154.7,84.3z"/>
		<path class="st90" d="M150.3,84.3c0,36.1-29.2,65.3-65.3,65.3c-36.1,0-65.3-29.2-65.3-65.3C19.7,48.2,49,19,85,19
			C121.1,19,150.3,48.2,150.3,84.3z"/>
	</g>
	<g>
		<g>
			<g>
				<path class="st18" d="M129.2,66.3c-0.4-0.5-0.8-0.8-1.3-1.1c-0.5-0.3-1.1-0.4-1.7-0.4h-1h-1l0.3-1.1l0.3-1.1
					c0.2-0.5,0.2-1.1,0.1-1.7c-0.1-0.6-0.3-1.1-0.7-1.6c-0.4-0.5-0.8-0.8-1.3-1.1c-0.5-0.3-1.1-0.4-1.7-0.4h-0.6h-0.6v-0.9v-0.9
					c0-1.4-0.6-2.6-1.4-3.5c-0.9-0.9-2.1-1.4-3.5-1.4H84.5H53.8c-1.3,0-2.6,0.5-3.5,1.4c-0.9,0.9-1.4,2.1-1.4,3.5v23.5V103
					c0,0,0,0,0,0c0,0,0,0,0,0c0,0.1,0,0.1,0,0.2c0,0.1,0,0.1,0.1,0.2c0,0,0,0,0,0c0,0,0,0,0,0c0,0,0,0.1,0,0.1c0,0,0,0.1,0.1,0.1
					c0,0,0,0,0,0.1c0,0,0,0,0.1,0.1c0,0,0,0,0,0c0,0,0,0,0,0c0,0,0.1,0.1,0.2,0.1c0.1,0,0.1,0.1,0.2,0.1c0,0,0,0,0,0c0,0,0,0,0,0
					c0.1,0,0.1,0,0.2,0c0.1,0,0.1,0,0.2,0h2.3h2.3h5.7h5.7c0,0.4,0.1,0.8,0.1,1.2s0.1,0.8,0.2,1.2c0,0.3,0.2,0.5,0.3,0.7
					s0.4,0.3,0.7,0.4l3.2,0.5l3.2,0.5c0,0.1,0.1,0.2,0.1,0.3c0,0.1,0.1,0.2,0.1,0.3l-1.9,2.6l-1.9,2.6c-0.2,0.2-0.2,0.5-0.2,0.7
					s0.1,0.5,0.2,0.7c0.7,1,1.5,1.9,2.3,2.7c0.8,0.8,1.8,1.6,2.7,2.3c0.2,0.2,0.5,0.2,0.7,0.2c0.3,0,0.5-0.1,0.7-0.2l2.6-1.9
					l2.6-1.9c0.1,0,0.2,0.1,0.3,0.1c0.1,0,0.2,0.1,0.3,0.1l0.5,3.2l0.5,3.2c0,0.3,0.2,0.5,0.3,0.7c0.2,0.2,0.4,0.3,0.7,0.4
					c0.6,0.1,1.2,0.2,1.8,0.2c0.6,0,1.2,0.1,1.8,0.1c0.6,0,1.2,0,1.8-0.1c0.6,0,1.2-0.1,1.8-0.2c0.3-0.1,0.5-0.2,0.7-0.4
					s0.3-0.4,0.3-0.7l0.5-3.2l0.5-3.2c0.1,0,0.2-0.1,0.3-0.1c0.1,0,0.2-0.1,0.3-0.1l2.6,1.9l2.6,1.9c0.2,0.2,0.5,0.2,0.7,0.2
					c0.3,0,0.5-0.1,0.7-0.2c1-0.7,1.9-1.5,2.7-2.3c0.8-0.8,1.6-1.8,2.3-2.7c0.2-0.2,0.2-0.5,0.2-0.7s-0.1-0.5-0.2-0.7l-1.9-2.6
					l-1.9-2.6c0.1-0.1,0.1-0.2,0.1-0.3c0-0.1,0.1-0.2,0.1-0.3l3.2-0.5l3.2-0.5c0.3-0.1,0.5-0.2,0.7-0.4s0.3-0.4,0.4-0.7
					c0.1-0.4,0.1-0.8,0.2-1.2c0-0.4,0.1-0.8,0.1-1.2h4.3h4.3c0.3,0,0.5-0.1,0.7-0.2c0.2-0.2,0.4-0.4,0.4-0.6l4.9-16.9l4.9-16.9
					c0.2-0.6,0.2-1.1,0.1-1.7C129.8,67.3,129.6,66.8,129.2,66.3z M53.8,53.6h30.6h30.6c0.7,0,1.3,0.3,1.7,0.7
					c0.4,0.4,0.7,1.1,0.7,1.8v0.9v0.9H89H60.4c-1.2,0-2.3,0.4-3.2,1.2c-0.9,0.7-1.5,1.8-1.7,3l-1.2,7.8L53,77.5
					c-0.1,0.3,0,0.7,0.2,0.9c0.2,0.3,0.5,0.4,0.8,0.5c0,0,0.1,0,0.1,0c0,0,0.1,0,0.1,0c0.3,0,0.6-0.1,0.8-0.3s0.4-0.5,0.4-0.8
					l1.2-7.8l1.2-7.8c0.1-0.6,0.4-1.1,0.8-1.5c0.4-0.4,1-0.6,1.6-0.6h30.5h30.5c0.2,0,0.4,0,0.6,0.1c0.2,0.1,0.3,0.2,0.4,0.4
					c0.1,0.1,0.2,0.3,0.2,0.5c0,0.2,0,0.4,0,0.6l-0.4,1.5l-0.4,1.5h-9.5h-9.5c-0.1,0-0.3,0-0.4,0.1c-0.1,0-0.2,0.1-0.4,0.2l-4.9,3.6
					l-4.9,3.6H77.8H63.5c-1,0-2,0.3-2.8,0.9c-0.8,0.6-1.5,1.4-1.8,2.4l-3.7,10.2l-3.7,10.2v-20v-20c0-0.7,0.3-1.3,0.7-1.8
					C52.6,53.9,53.2,53.6,53.8,53.6z M107.7,105.4l-3.1,0.5l-3.1,0.5c-0.2,0-0.4,0.1-0.6,0.3c-0.2,0.1-0.3,0.3-0.4,0.6
					c-0.1,0.3-0.2,0.5-0.3,0.8c-0.1,0.3-0.3,0.6-0.4,0.8c-0.1,0.2-0.1,0.4-0.1,0.7c0,0.2,0.1,0.4,0.2,0.6l1.8,2.6l1.8,2.6
					c-0.5,0.6-1,1.2-1.5,1.7c-0.5,0.6-1.1,1.1-1.7,1.5l-2.5-1.8l-2.5-1.8c-0.2-0.1-0.4-0.2-0.6-0.2c-0.2,0-0.4,0-0.7,0.1
					c-0.3,0.1-0.5,0.3-0.8,0.4c-0.3,0.1-0.6,0.2-0.8,0.3c-0.2,0.1-0.4,0.2-0.6,0.4c-0.1,0.2-0.2,0.4-0.3,0.6l-0.5,3.1l-0.5,3.1
					c-0.8,0.1-1.5,0.1-2.3,0.1c-0.8,0-1.6,0-2.3-0.1l-0.5-3.1l-0.5-3.1c0-0.2-0.1-0.4-0.3-0.6c-0.1-0.2-0.3-0.3-0.5-0.4
					c-0.3-0.1-0.6-0.2-0.9-0.3c-0.3-0.1-0.5-0.2-0.8-0.4c-0.2-0.1-0.4-0.2-0.7-0.1c-0.2,0-0.4,0.1-0.6,0.2l-2.5,1.8l-2.5,1.8
					c-0.6-0.5-1.2-1-1.7-1.5c-0.5-0.6-1.1-1.1-1.5-1.7l1.9-2.6l1.9-2.6c0.1-0.2,0.2-0.4,0.2-0.6c0-0.2,0-0.4-0.1-0.7
					c-0.1-0.3-0.3-0.5-0.4-0.8s-0.2-0.5-0.3-0.8c-0.1-0.2-0.2-0.4-0.4-0.6c-0.2-0.1-0.4-0.2-0.6-0.3l-3.1-0.5l-3.1-0.5
					c0-0.4-0.1-0.8-0.1-1.1c0-0.4,0-0.8,0-1.1c0-0.4,0-0.8,0-1.2c0-0.4,0.1-0.8,0.1-1.2l3.1-0.5l3.1-0.5c0.2,0,0.4-0.1,0.6-0.3
					c0.2-0.1,0.3-0.3,0.4-0.6c0.1-0.3,0.2-0.5,0.3-0.8c0.1-0.3,0.2-0.5,0.4-0.8c0.1-0.2,0.1-0.4,0.1-0.7c0-0.2-0.1-0.4-0.2-0.6
					l-1.9-2.6l-1.9-2.6c0.5-0.6,1-1.2,1.5-1.7c0.5-0.5,1.1-1.1,1.7-1.6l2.5,1.8l2.5,1.8c0.2,0.1,0.4,0.2,0.6,0.3s0.4,0,0.7-0.1
					c0.3-0.1,0.6-0.3,0.9-0.4c0.3-0.1,0.6-0.2,0.8-0.3c0.2-0.1,0.4-0.2,0.5-0.4c0.1-0.2,0.2-0.4,0.3-0.6l0.5-3.1l0.5-3.1
					c0.8-0.1,1.5-0.2,2.3-0.2c0.8,0,1.5,0.1,2.3,0.2l0.5,3.1l0.5,3.1c0,0.2,0.1,0.4,0.3,0.6c0.1,0.2,0.3,0.3,0.6,0.4
					c0.3,0.1,0.5,0.2,0.8,0.3c0.3,0.1,0.6,0.3,0.8,0.4c0.2,0.1,0.4,0.1,0.7,0.1c0.2,0,0.4-0.1,0.6-0.2l2.5-1.9l2.5-1.9
					c0.6,0.5,1.2,1,1.7,1.6c0.5,0.5,1.1,1.1,1.5,1.7l-1.8,2.6L99.9,96c-0.1,0.2-0.2,0.4-0.2,0.6c0,0.2,0,0.4,0.1,0.7
					c0.1,0.3,0.3,0.6,0.4,0.8c0.1,0.3,0.2,0.6,0.3,0.8c0.1,0.2,0.2,0.4,0.4,0.6c0.2,0.1,0.4,0.2,0.6,0.3l3.1,0.5l3.1,0.5
					c0.1,0.4,0.1,0.8,0.1,1.2c0,0.4,0,0.8,0,1.2c0,0.4,0,0.7,0,1.1C107.8,104.6,107.7,105,107.7,105.4z M127.5,68.9l-4.8,16.5
					l-4.8,16.5h-3.8h-3.8c0-0.4,0-0.8-0.1-1.2c0-0.4-0.1-0.8-0.2-1.2c0-0.3-0.2-0.5-0.3-0.7c-0.2-0.2-0.4-0.3-0.7-0.4l-3.2-0.5
					l-3.2-0.5c0-0.1-0.1-0.2-0.1-0.3c0-0.1-0.1-0.2-0.1-0.3l1.9-2.6l1.9-2.6c0.2-0.2,0.2-0.5,0.2-0.7s-0.1-0.5-0.2-0.7
					c-0.7-1-1.5-1.9-2.3-2.7c-0.8-0.8-1.8-1.6-2.7-2.3c-0.2-0.1-0.5-0.2-0.7-0.2c-0.3,0-0.5,0.1-0.7,0.2L97,87l-2.6,1.9
					c-0.1,0-0.2-0.1-0.3-0.1c-0.1,0-0.2-0.1-0.3-0.1l-0.5-3.2l-0.5-3.2c0-0.3-0.2-0.5-0.3-0.7c-0.2-0.2-0.4-0.3-0.7-0.4
					c-1.2-0.2-2.4-0.3-3.6-0.3c-1.2,0-2.4,0.1-3.6,0.3c-0.3,0.1-0.5,0.2-0.7,0.4c-0.2,0.2-0.3,0.4-0.3,0.7l-0.5,3.2l-0.5,3.2
					c-0.1,0-0.2,0.1-0.3,0.1c-0.1,0-0.2,0.1-0.3,0.1L79.4,87l-2.6-1.9c-0.2-0.1-0.5-0.2-0.7-0.2c-0.3,0-0.5,0.1-0.7,0.2
					c-1,0.7-1.9,1.5-2.7,2.3c-0.8,0.8-1.6,1.8-2.3,2.7c-0.2,0.2-0.2,0.5-0.2,0.7s0.1,0.5,0.2,0.7l1.9,2.6l1.9,2.6
					c0,0.1-0.1,0.2-0.1,0.3c0,0.1-0.1,0.2-0.1,0.3l-3.2,0.5l-3.2,0.5c-0.3,0.1-0.5,0.2-0.7,0.4c-0.2,0.2-0.3,0.4-0.3,0.7
					c-0.1,0.4-0.1,0.8-0.2,1.2s-0.1,0.8-0.1,1.2h-4.9h-4.9h-2.2h-2.2l4.6-12.7l4.6-12.7c0.2-0.5,0.5-0.9,0.9-1.2
					c0.4-0.3,0.9-0.5,1.4-0.5H78h14.5c0.1,0,0.3,0,0.4-0.1c0.1,0,0.2-0.1,0.3-0.2l4.9-3.6l4.9-3.6h11.6h11.6c0.2,0,0.4,0.1,0.6,0.1
					c0.2,0.1,0.3,0.2,0.4,0.4c0.1,0.2,0.2,0.3,0.2,0.5C127.5,68.5,127.5,68.7,127.5,68.9z"/>
				<path class="st18" d="M88.2,125.3c-0.7,0-1.3,0-1.9-0.1c-0.6,0-1.2-0.1-1.7-0.2c-0.3-0.1-0.6-0.2-0.8-0.4
					c-0.2-0.2-0.4-0.5-0.4-0.8l-0.5-3.1l-0.5-3.1c0,0-0.1,0-0.1,0c0,0-0.1,0-0.1,0c0,0,0,0-0.1,0c0,0,0,0-0.1,0l-2.6,1.9l-2.6,1.9
					c-0.3,0.2-0.6,0.3-0.9,0.3c-0.3,0-0.6-0.1-0.9-0.3c-1-0.7-1.9-1.5-2.8-2.4c-0.9-0.9-1.6-1.8-2.3-2.7c-0.2-0.3-0.3-0.6-0.3-0.9
					c0-0.3,0.1-0.6,0.3-0.9l1.9-2.6l1.9-2.6c0-0.1-0.1-0.1-0.1-0.2c0-0.1-0.1-0.1-0.1-0.2l-3.1-0.5l-3.1-0.5
					c-0.3-0.1-0.6-0.2-0.8-0.4c-0.2-0.2-0.4-0.5-0.4-0.8c-0.1-0.4-0.1-0.8-0.1-1.1c0-0.4-0.1-0.7-0.1-1.1H58h-7.9
					c-0.1,0-0.2,0-0.3,0c-0.1,0-0.2,0-0.2-0.1c0,0,0,0-0.1,0c0,0,0,0,0,0c-0.1,0-0.1-0.1-0.2-0.1c-0.1,0-0.1-0.1-0.2-0.1l0,0l0,0
					c0,0,0,0-0.1,0c0,0,0,0,0,0c0,0,0,0-0.1-0.1c0,0,0,0-0.1-0.1c0,0,0-0.1-0.1-0.1c0,0,0-0.1,0-0.1c0,0,0,0,0,0c0,0,0,0,0,0
					c0,0,0,0,0-0.1c0,0,0,0,0-0.1c0-0.1-0.1-0.1-0.1-0.2s0-0.1,0-0.2c0,0,0,0,0,0c0,0,0,0,0-0.1V79.5V56.1c0-1.4,0.6-2.7,1.5-3.6
					c0.9-0.9,2.2-1.5,3.6-1.5h30.6h30.6c1.4,0,2.7,0.6,3.6,1.5c0.9,0.9,1.5,2.2,1.5,3.6v0.7v0.7h0.5h0.5c0.6,0,1.2,0.1,1.8,0.4
					c0.5,0.3,1,0.7,1.4,1.2c0.4,0.5,0.6,1.1,0.7,1.7c0.1,0.6,0.1,1.2-0.1,1.8l-0.3,1l-0.3,1h0.9h0.9c0.6,0,1.2,0.1,1.8,0.4
					c0.5,0.3,1,0.7,1.4,1.2c0.4,0.5,0.6,1.1,0.7,1.6c0.1,0.6,0.1,1.2-0.1,1.8l-4.9,16.9l-4.9,16.9c-0.1,0.3-0.3,0.6-0.5,0.7
					c-0.2,0.2-0.6,0.3-0.9,0.3h-4.2h-4.2c0,0.4,0,0.7-0.1,1.1c0,0.4-0.1,0.7-0.1,1.1c-0.1,0.3-0.2,0.6-0.4,0.8
					c-0.2,0.2-0.5,0.4-0.8,0.4l-3.1,0.5l-3.1,0.5c0,0.1,0,0.1-0.1,0.2c0,0.1-0.1,0.1-0.1,0.2l1.9,2.6l1.9,2.6
					c0.2,0.3,0.3,0.6,0.3,0.9c0,0.3-0.1,0.6-0.3,0.9c-0.7,1-1.5,1.9-2.3,2.7c-0.9,0.9-1.8,1.6-2.8,2.4c-0.2,0.2-0.5,0.3-0.8,0.3
					c-0.3,0-0.6-0.1-0.9-0.3l-2.6-1.9l-2.6-1.9c0,0-0.1,0-0.1,0c0,0-0.1,0-0.1,0c0,0-0.1,0-0.1,0c0,0-0.1,0-0.1,0l-0.5,3.1l-0.5,3.1
					c0,0.3-0.2,0.6-0.4,0.8c-0.2,0.2-0.5,0.4-0.8,0.4c-0.5,0.1-1.1,0.2-1.7,0.2C89.5,125.3,88.8,125.3,88.2,125.3z M81.9,117
					L81.9,117l0.1,0c0,0,0.1,0,0.1,0c0,0,0.1,0,0.1,0c0.1,0,0.1,0,0.2,0.1c0.1,0,0.1,0,0.2,0.1l0.1,0l0.1,0l0.5,3.3l0.5,3.3
					c0,0.2,0.1,0.4,0.3,0.5c0.1,0.1,0.3,0.3,0.6,0.3c0.5,0.1,1.1,0.1,1.7,0.2s1.2,0.1,1.8,0.1c0.6,0,1.3,0,1.9-0.1
					c0.6,0,1.2-0.1,1.7-0.2c0.2,0,0.4-0.1,0.5-0.3c0.1-0.1,0.2-0.3,0.3-0.5l0.5-3.3l0.5-3.3l0.1,0l0.1,0c0.1,0,0.1,0,0.2-0.1
					c0.1,0,0.1,0,0.2-0.1c0,0,0.1,0,0.1-0.1c0,0,0.1,0,0.2-0.1l0.1,0l0.1,0l2.7,1.9l2.7,1.9c0.2,0.1,0.4,0.2,0.6,0.2
					c0.2,0,0.4-0.1,0.6-0.2c1-0.7,1.9-1.5,2.7-2.3c0.8-0.8,1.6-1.7,2.3-2.7c0.1-0.2,0.2-0.4,0.2-0.6c0-0.2-0.1-0.4-0.2-0.6L104,112
					l-1.9-2.7l0-0.1l0-0.1c0.1-0.1,0.1-0.2,0.1-0.3c0-0.1,0.1-0.2,0.1-0.3l0-0.1l0-0.1l3.3-0.5l3.3-0.5c0.2,0,0.4-0.2,0.5-0.3
					c0.1-0.1,0.3-0.3,0.3-0.5c0.1-0.4,0.1-0.8,0.1-1.2c0-0.4,0.1-0.8,0.1-1.2l0-0.1l0-0.1h4.4h4.4c0.2,0,0.4-0.1,0.6-0.2
					c0.2-0.1,0.3-0.3,0.4-0.5l4.9-16.9l4.9-16.9c0.2-0.5,0.2-1.1,0.1-1.6c-0.1-0.5-0.3-1-0.6-1.4l0,0l0,0c-0.3-0.4-0.8-0.8-1.2-1
					c-0.5-0.2-1-0.4-1.6-0.4h-1.2H124l0.4-1.3l0.4-1.3c0.2-0.5,0.2-1.1,0.1-1.6c-0.1-0.5-0.3-1-0.6-1.5c-0.3-0.4-0.8-0.8-1.2-1
					c-0.5-0.2-1-0.4-1.6-0.4h-0.8h-0.8v-1v-1c0-1.3-0.5-2.5-1.4-3.3c-0.8-0.8-2-1.4-3.3-1.4H84.5H53.8c-1.3,0-2.5,0.5-3.3,1.4
					c-0.8,0.8-1.4,2-1.4,3.3v23.5V103c0,0,0,0,0,0c0,0,0,0,0,0.1c0,0.1,0,0.1,0,0.1c0,0,0,0.1,0.1,0.2l0,0l0,0c0,0,0,0,0,0
					c0,0,0,0,0,0c0,0,0,0,0,0.1s0,0,0,0l0,0l0,0v0v0c0,0,0,0,0,0c0,0,0,0,0,0l0,0l0,0l0,0l0,0l0,0l0,0c0,0,0.1,0.1,0.1,0.1
					c0,0,0.1,0,0.1,0.1c0,0,0,0,0.1,0c0,0,0,0,0,0c0.1,0,0.1,0,0.2,0s0.1,0,0.2,0h8.1h8.1l0,0.1l0,0.1c0,0.4,0.1,0.7,0.1,1.1
					s0.1,0.8,0.2,1.2c0,0.2,0.1,0.4,0.3,0.5c0.1,0.1,0.3,0.3,0.6,0.3l3.2,0.5l3.2,0.5l0,0.1l0,0.1c0,0.1,0.1,0.2,0.1,0.3
					c0,0.1,0.1,0.2,0.1,0.3l0,0.1l0,0.1l-1.9,2.7l-1.9,2.7c-0.1,0.2-0.2,0.4-0.2,0.6c0,0.2,0.1,0.4,0.2,0.6c0.7,0.9,1.4,1.8,2.3,2.7
					c0.8,0.8,1.8,1.6,2.8,2.3c0.2,0.1,0.4,0.2,0.6,0.2c0.2,0,0.4-0.1,0.6-0.2l2.7-1.9L81.9,117z M88.2,122.9c-0.4,0-0.8,0-1.2,0
					c-0.4,0-0.8-0.1-1.2-0.1l-0.1,0l-0.1,0l-0.5-3.2l-0.5-3.2c0-0.2-0.1-0.4-0.2-0.5c-0.1-0.1-0.3-0.2-0.4-0.3
					c-0.4-0.1-0.7-0.3-0.9-0.4c-0.3-0.1-0.5-0.2-0.7-0.3c-0.2-0.1-0.4-0.1-0.5-0.1c-0.2,0-0.4,0.1-0.5,0.2l-2.6,1.9l-2.6,1.9
					l-0.1-0.1l-0.1-0.1c-0.6-0.4-1.1-0.9-1.7-1.5c-0.6-0.6-1.1-1.2-1.6-1.8l-0.1-0.1l-0.1-0.1l1.9-2.6l1.9-2.6
					c0.1-0.2,0.2-0.3,0.2-0.5c0-0.2,0-0.4-0.1-0.5c-0.1-0.3-0.3-0.6-0.4-0.9c-0.1-0.3-0.2-0.5-0.3-0.8c-0.1-0.2-0.2-0.3-0.3-0.5
					c-0.1-0.1-0.3-0.2-0.5-0.2l-3.2-0.5l-3.2-0.5l0-0.1l0-0.1c-0.1-0.4-0.1-0.8-0.1-1.2c0-0.4,0-0.8,0-1.1c0-0.4,0-0.8,0-1.2
					s0.1-0.8,0.1-1.2l0-0.1l0-0.1l3.2-0.5l3.2-0.5c0.2,0,0.3-0.1,0.5-0.2c0.1-0.1,0.2-0.3,0.3-0.5c0.1-0.3,0.2-0.5,0.3-0.8
					c0.1-0.3,0.3-0.6,0.4-0.9c0.1-0.2,0.1-0.4,0.1-0.5c0-0.2-0.1-0.3-0.2-0.5l-1.9-2.6l-1.9-2.6l0.1-0.1l0.1-0.1
					c0.5-0.6,1-1.2,1.6-1.7c0.6-0.6,1.1-1.1,1.8-1.6l0.1-0.1l0.1-0.1l2.6,1.9l2.6,1.9c0.2,0.1,0.3,0.2,0.5,0.2c0.2,0,0.4,0,0.5-0.1
					c0.3-0.2,0.6-0.3,0.9-0.4s0.5-0.2,0.8-0.3c0.2,0,0.3-0.1,0.4-0.3c0.1-0.1,0.2-0.3,0.2-0.5l0.5-3.2l0.5-3.2l0.1,0l0.1,0
					c0.8-0.1,1.6-0.2,2.4-0.2c0.8,0,1.6,0.1,2.3,0.2l0.1,0l0.1,0l0.5,3.2l0.5,3.2c0,0.2,0.1,0.3,0.2,0.5c0.1,0.1,0.3,0.2,0.5,0.3
					c0.2,0.1,0.5,0.2,0.8,0.3c0.3,0.1,0.6,0.3,0.9,0.4c0.2,0.1,0.4,0.1,0.5,0.1c0.2,0,0.4-0.1,0.5-0.2l2.6-1.9l2.6-1.9l0.1,0.1
					l0.1,0.1c0.6,0.5,1.2,1,1.8,1.6c0.6,0.6,1.1,1.1,1.6,1.7l0.1,0.1l0.1,0.1l-1.9,2.6l-1.9,2.6c-0.1,0.1-0.2,0.3-0.2,0.5
					c0,0.2,0,0.4,0.1,0.6c0.1,0.2,0.3,0.5,0.4,0.8c0.1,0.3,0.2,0.6,0.3,0.9c0.1,0.2,0.2,0.3,0.3,0.5c0.1,0.1,0.3,0.2,0.5,0.2
					l3.2,0.5l3.2,0.5l0,0.1l0,0.1c0,0.3,0.1,0.7,0.1,1.1c0,0.4,0,0.8,0,1.2c0,0.4,0,0.8,0,1.2c0,0.4-0.1,0.8-0.1,1.1l0,0.1l0,0.1
					l-3.2,0.5l-3.2,0.5c-0.2,0-0.4,0.1-0.5,0.2c-0.1,0.1-0.2,0.3-0.3,0.4c-0.1,0.3-0.2,0.6-0.4,0.9c-0.1,0.3-0.2,0.5-0.4,0.8
					c-0.1,0.2-0.1,0.4-0.1,0.5c0,0.2,0.1,0.3,0.2,0.5l1.9,2.6l1.9,2.6l-0.1,0.1l-0.1,0.1c-0.5,0.7-1.1,1.3-1.6,1.8
					c-0.6,0.6-1.1,1.1-1.7,1.5l-0.1,0.1l-0.1,0.1l-2.6-1.9l-2.6-1.9c-0.1-0.1-0.3-0.2-0.5-0.2c-0.2,0-0.4,0-0.5,0.1
					c-0.3,0.1-0.5,0.3-0.8,0.4c-0.3,0.1-0.6,0.2-0.9,0.3c-0.2,0.1-0.3,0.2-0.5,0.3c-0.1,0.1-0.2,0.3-0.2,0.5l-0.5,3.2l-0.5,3.2
					l-0.1,0l-0.1,0c-0.4,0-0.8,0.1-1.2,0.1S88.6,122.9,88.2,122.9z M86.1,122.4c0.7,0.1,1.4,0.1,2.1,0.1s1.4,0,2.1-0.1l0.5-3l0.5-3
					c0-0.3,0.1-0.5,0.3-0.7c0.2-0.2,0.4-0.4,0.7-0.4c0.3-0.1,0.6-0.2,0.8-0.3c0.3-0.1,0.5-0.2,0.8-0.4c0.2-0.1,0.5-0.2,0.8-0.2
					c0.3,0,0.5,0.1,0.7,0.3l2.5,1.8l2.5,1.8c0.5-0.4,1-0.9,1.5-1.4c0.5-0.5,1-1,1.5-1.6l-1.8-2.5l-1.8-2.5c-0.2-0.2-0.3-0.5-0.3-0.7
					c0-0.3,0-0.5,0.1-0.8c0.1-0.2,0.2-0.5,0.4-0.8c0.1-0.3,0.2-0.6,0.3-0.9c0.1-0.3,0.2-0.5,0.4-0.6c0.2-0.2,0.4-0.3,0.7-0.3l3-0.5
					l3-0.5c0-0.3,0.1-0.7,0.1-1c0-0.3,0-0.7,0-1.1c0-0.4,0-0.8,0-1.1s-0.1-0.7-0.1-1l-3-0.5l-3-0.5c-0.3,0-0.5-0.2-0.7-0.3
					c-0.2-0.2-0.4-0.4-0.4-0.7c-0.1-0.3-0.2-0.6-0.3-0.8c-0.1-0.3-0.2-0.5-0.4-0.8c-0.1-0.3-0.2-0.5-0.1-0.8s0.1-0.5,0.3-0.7
					l1.8-2.5l1.8-2.5c-0.4-0.5-0.9-1.1-1.4-1.6c-0.5-0.5-1-1-1.6-1.4l-2.5,1.8l-2.5,1.8c-0.2,0.2-0.5,0.2-0.7,0.3
					c-0.3,0-0.5,0-0.8-0.1c-0.3-0.2-0.6-0.3-0.9-0.4c-0.3-0.1-0.5-0.2-0.8-0.3c-0.3-0.1-0.5-0.2-0.7-0.4c-0.2-0.2-0.3-0.4-0.3-0.7
					l-0.5-3l-0.5-3c-0.7-0.1-1.4-0.1-2.1-0.1c-0.7,0-1.4,0-2.1,0.1l-0.5,3l-0.5,3c0,0.3-0.2,0.5-0.3,0.7c-0.2,0.2-0.4,0.3-0.6,0.4
					c-0.2,0.1-0.5,0.2-0.8,0.3c-0.3,0.1-0.6,0.3-0.9,0.4c-0.3,0.1-0.5,0.2-0.8,0.1s-0.5-0.1-0.7-0.3l-2.5-1.8L76,87.9
					c-0.6,0.5-1.1,0.9-1.6,1.4c-0.5,0.5-1,1-1.4,1.6l1.8,2.5l1.8,2.5c0.2,0.2,0.3,0.5,0.3,0.7c0,0.3,0,0.5-0.1,0.8
					c-0.1,0.3-0.3,0.6-0.4,0.9c-0.1,0.3-0.2,0.5-0.3,0.8c-0.1,0.3-0.2,0.5-0.4,0.7c-0.2,0.2-0.4,0.3-0.7,0.3l-3,0.5l-3,0.5
					c0,0.4-0.1,0.7-0.1,1.1s0,0.7,0,1c0,0.3,0,0.7,0,1c0,0.3,0.1,0.7,0.1,1.1l3,0.5l3,0.5c0.3,0,0.5,0.2,0.7,0.3
					c0.2,0.2,0.4,0.4,0.4,0.7c0.1,0.3,0.2,0.5,0.3,0.8c0.1,0.3,0.2,0.5,0.4,0.8c0.1,0.3,0.2,0.5,0.1,0.8c0,0.3-0.1,0.5-0.3,0.7
					l-1.8,2.5l-1.8,2.5c0.5,0.6,1,1.1,1.5,1.6c0.5,0.5,1,1,1.5,1.4l2.5-1.8l2.5-1.8c0.2-0.2,0.5-0.3,0.7-0.3c0.3,0,0.5,0,0.8,0.2
					c0.2,0.1,0.5,0.2,0.7,0.3c0.3,0.1,0.6,0.2,0.9,0.4c0.3,0.1,0.5,0.2,0.6,0.4c0.2,0.2,0.3,0.4,0.3,0.7l0.5,3L86.1,122.4z
					 M118.1,102.1h-4h-4l0-0.1l0-0.1c0-0.4,0-0.8-0.1-1.2c0-0.4-0.1-0.8-0.1-1.2c0-0.2-0.1-0.4-0.3-0.5c-0.1-0.1-0.3-0.2-0.6-0.3
					l-3.3-0.5l-3.3-0.5l0-0.1l0-0.1c0-0.1-0.1-0.2-0.1-0.3c0-0.1-0.1-0.2-0.1-0.3l0-0.1l0-0.1l1.9-2.7l1.9-2.7
					c0.1-0.2,0.2-0.4,0.2-0.6c0-0.2-0.1-0.4-0.2-0.6c-0.7-1-1.5-1.9-2.3-2.7c-0.8-0.8-1.7-1.6-2.7-2.3c-0.2-0.1-0.4-0.2-0.6-0.2
					c-0.2,0-0.4,0.1-0.6,0.2l-2.7,1.9l-2.7,1.9l-0.1,0l-0.1,0c-0.1,0-0.1,0-0.2-0.1c-0.1,0-0.1,0-0.2-0.1c0,0-0.1,0-0.1-0.1
					c0,0-0.1,0-0.1-0.1l-0.1,0l-0.1,0l-0.5-3.3l-0.5-3.3c0-0.2-0.1-0.4-0.3-0.5c-0.1-0.1-0.3-0.3-0.6-0.3c-1.2-0.2-2.4-0.3-3.5-0.3
					c-1.2,0-2.4,0.1-3.5,0.3c-0.2,0-0.4,0.2-0.6,0.3c-0.1,0.1-0.2,0.3-0.3,0.5l-0.5,3.3l-0.5,3.3l-0.2,0.1L82.4,89
					c-0.1,0-0.1,0-0.2,0.1c-0.1,0-0.1,0-0.2,0.1l-0.1,0l-0.1,0l-2.7-1.9l-2.7-1.9c-0.2-0.1-0.4-0.2-0.6-0.2s-0.4,0.1-0.6,0.2
					c-1,0.7-1.9,1.5-2.7,2.3c-0.8,0.8-1.6,1.7-2.3,2.7c-0.1,0.2-0.2,0.4-0.2,0.6c0,0.2,0.1,0.4,0.2,0.6l1.9,2.7l1.9,2.7l0,0.1l0,0.1
					c0,0.1,0,0.1-0.1,0.2c0,0.1,0,0.1-0.1,0.2c0,0,0,0.1-0.1,0.1c0,0,0,0.1-0.1,0.1l0,0.1l0,0.1l-3.3,0.5l-3.3,0.5
					c-0.2,0-0.4,0.1-0.5,0.3c-0.1,0.1-0.2,0.3-0.3,0.5c-0.1,0.4-0.1,0.8-0.2,1.2s-0.1,0.8-0.1,1.1l0,0.1l0,0.1H59h-7.4l0.1-0.2
					l0.1-0.2l4.6-12.7l4.6-12.7c0.2-0.5,0.6-1,1-1.3c0.4-0.3,1-0.5,1.6-0.5H78h14.5c0.1,0,0.2,0,0.3,0c0.1,0,0.2-0.1,0.3-0.1l5-3.7
					l5-3.7h11.6h11.6c0.2,0,0.4,0.1,0.6,0.2c0.2,0.1,0.4,0.2,0.5,0.4c0.1,0.2,0.2,0.4,0.3,0.6c0,0.2,0,0.4,0,0.7l-4.8,16.6
					L118.1,102.1z M110.4,101.6h3.7h3.7l4.7-16.4l4.7-16.4c0-0.1,0.1-0.3,0-0.5c0-0.2-0.1-0.3-0.2-0.4c-0.1-0.1-0.2-0.2-0.4-0.3
					c-0.1-0.1-0.3-0.1-0.4-0.1h-11.5h-11.5l-4.9,3.6l-4.9,3.6c-0.1,0.1-0.3,0.2-0.4,0.2c-0.1,0-0.3,0.1-0.5,0.1H78H63.5
					c-0.5,0-0.9,0.2-1.3,0.4c-0.4,0.3-0.7,0.6-0.8,1.1l-4.6,12.5l-4.6,12.5h6.8h6.8c0-0.3,0.1-0.7,0.1-1.1c0-0.4,0.1-0.7,0.1-1.1
					c0.1-0.3,0.2-0.6,0.4-0.8c0.2-0.2,0.5-0.4,0.8-0.4l3.1-0.5l3.1-0.5c0,0,0-0.1,0-0.1c0,0,0-0.1,0-0.1c0,0,0-0.1,0-0.1
					c0,0,0-0.1,0-0.1l-1.9-2.6L70,91.8c-0.2-0.3-0.3-0.6-0.3-0.9c0-0.3,0.1-0.6,0.3-0.9c0.7-1,1.5-1.9,2.3-2.7s1.8-1.6,2.8-2.4
					c0.3-0.2,0.5-0.3,0.8-0.3c0.3,0,0.6,0.1,0.9,0.3l2.6,1.9l2.6,1.9c0,0,0.1,0,0.1,0c0,0,0.1,0,0.1,0l0.1,0l0.1,0l0.5-3.1l0.5-3.1
					c0-0.3,0.2-0.6,0.4-0.8c0.2-0.2,0.5-0.4,0.8-0.4c1.2-0.2,2.4-0.3,3.6-0.3c1.2,0,2.4,0.1,3.6,0.3c0.3,0.1,0.6,0.2,0.8,0.4
					c0.2,0.2,0.3,0.5,0.4,0.8l0.5,3.1l0.5,3.1c0,0,0.1,0,0.1,0c0,0,0.1,0,0.1,0c0,0,0.1,0,0.1,0c0,0,0.1,0,0.1,0l2.6-1.9l2.6-1.9
					c0.3-0.2,0.6-0.3,0.9-0.3c0.3,0,0.6,0.1,0.8,0.3c1,0.7,1.9,1.5,2.8,2.3c0.9,0.9,1.6,1.8,2.4,2.8c0.2,0.3,0.3,0.6,0.3,0.9
					c0,0.3-0.1,0.6-0.3,0.9l-1.9,2.6l-1.9,2.6c0,0.1,0.1,0.1,0.1,0.2c0,0.1,0,0.1,0.1,0.2l3.1,0.5l3.1,0.5c0.3,0.1,0.6,0.2,0.8,0.4
					c0.2,0.2,0.4,0.5,0.4,0.8c0.1,0.4,0.1,0.7,0.1,1.1C110.4,100.9,110.4,101.2,110.4,101.6z M51.2,97.4V76.7V56.1
					c0-0.7,0.3-1.4,0.8-1.9c0.5-0.5,1.2-0.8,1.9-0.8h30.6h30.6c0.7,0,1.4,0.3,1.9,0.8c0.5,0.5,0.8,1.2,0.8,1.9v1v1H89.1H60.4
					c-1.2,0-2.2,0.4-3,1.1c-0.8,0.7-1.4,1.7-1.6,2.8l-1.2,7.8l-1.2,7.8c0,0.1,0,0.3,0,0.4c0,0.1,0.1,0.3,0.2,0.4
					c0.1,0.1,0.2,0.2,0.3,0.2s0.2,0.1,0.3,0.1c0,0,0.1,0,0.1,0c0,0,0,0,0.1,0c0,0,0,0,0,0s0,0,0,0c0.2,0,0.5-0.1,0.7-0.2
					c0.2-0.2,0.3-0.4,0.3-0.6l1.2-7.8l1.2-7.8c0.1-0.6,0.4-1.2,0.9-1.6c0.5-0.4,1.1-0.6,1.8-0.6h30.5h30.5c0.2,0,0.5,0.1,0.7,0.2
					c0.2,0.1,0.4,0.3,0.5,0.4c0.1,0.2,0.2,0.4,0.3,0.6c0,0.2,0,0.5,0,0.7l-0.5,1.6l-0.5,1.6h-9.6h-9.6c-0.1,0-0.2,0-0.3,0.1
					s-0.2,0.1-0.3,0.2l-5,3.6l-5,3.6H77.9H63.5c-1,0-1.9,0.3-2.7,0.9c-0.8,0.5-1.4,1.3-1.7,2.3l-4,10.8L51.2,97.4z M53.8,53.8
					c-0.6,0-1.2,0.3-1.6,0.7c-0.4,0.4-0.7,1-0.7,1.6v19.4v19.4l3.5-9.6l3.5-9.6c0.4-1,1-1.9,1.9-2.5c0.9-0.6,1.9-0.9,3-0.9h14.3
					h14.3l4.9-3.6l4.9-3.6c0.1-0.1,0.3-0.2,0.4-0.2c0.1-0.1,0.3-0.1,0.4-0.1h9.4h9.4l0.4-1.4l0.4-1.4c0.1-0.2,0.1-0.3,0-0.5
					c0-0.1-0.1-0.3-0.2-0.4l0,0l0,0c-0.1-0.1-0.2-0.2-0.4-0.3c-0.1-0.1-0.3-0.1-0.5-0.1H90.8H60.4c-0.6,0-1.1,0.2-1.5,0.5
					c-0.4,0.3-0.7,0.8-0.7,1.3l-1.2,7.8l-1.2,7.8c-0.1,0.4-0.2,0.7-0.5,0.9c-0.3,0.2-0.6,0.4-1,0.4c0,0-0.1,0-0.1,0c0,0-0.1,0-0.1,0
					c0,0,0,0,0,0c0,0,0,0,0,0c-0.2,0-0.4-0.1-0.5-0.2c-0.2-0.1-0.3-0.2-0.4-0.4c-0.1-0.2-0.2-0.3-0.3-0.5c0-0.2-0.1-0.4,0-0.6
					l1.2-7.8l1.2-7.8c0.2-1.3,0.8-2.3,1.7-3.1c0.9-0.8,2.1-1.2,3.3-1.2h28.5h28.5v-0.7v-0.7c0-0.6-0.3-1.2-0.7-1.6
					c-0.4-0.4-1-0.7-1.6-0.7H84.5H53.8z"/>
			</g>
		</g>
		<g>
			<g>
				<path class="st18" d="M88.2,96.4c-1.8,0-3.5,0.8-4.7,2c-1.2,1.2-2,2.9-2,4.7c0,1.8,0.7,3.5,2,4.7s2.9,2,4.7,2
					c1.8,0,3.5-0.8,4.7-2c1.2-1.2,2-2.9,2-4.7c0-1.8-0.7-3.5-2-4.7C91.7,97.1,90,96.4,88.2,96.4z M88.2,107.3c-1.2,0-2.2-0.5-3-1.2
					c-0.8-0.8-1.2-1.8-1.2-3c0-1.1,0.5-2.2,1.2-3c0.8-0.8,1.8-1.2,3-1.2c1.2,0,2.2,0.5,3,1.2c0.8,0.8,1.2,1.8,1.2,3
					c0,1.2-0.5,2.2-1.2,3C90.4,106.8,89.3,107.3,88.2,107.3z"/>
				<path class="st18" d="M88.2,110c-1.9,0-3.6-0.8-4.9-2c-1.2-1.3-2-3-2-4.9c0-1.9,0.8-3.6,2-4.9c1.2-1.2,3-2,4.9-2s3.6,0.8,4.9,2
					c1.2,1.2,2,3,2,4.9c0,1.9-0.8,3.6-2,4.9S90.1,110,88.2,110z M88.2,96.6c-1.8,0-3.4,0.7-4.6,1.9c-1.2,1.2-1.9,2.8-1.9,4.6
					c0,1.8,0.7,3.4,1.9,4.6c1.2,1.2,2.8,1.9,4.6,1.9c1.8,0,3.4-0.7,4.6-1.9c1.2-1.2,1.9-2.8,1.9-4.6c0-1.8-0.7-3.4-1.9-4.6
					C91.6,97.3,90,96.6,88.2,96.6z M88.2,107.5c-1.2,0-2.3-0.5-3.1-1.3c-0.8-0.8-1.3-1.9-1.3-3.1c0-1.2,0.5-2.3,1.3-3.1
					c0.8-0.8,1.9-1.3,3.1-1.3c1.2,0,2.3,0.5,3.1,1.3c0.8,0.8,1.3,1.9,1.3,3.1c0,1.2-0.5,2.3-1.3,3.1C90.5,107,89.4,107.5,88.2,107.5
					z M88.2,99.1c-1.1,0-2.1,0.4-2.8,1.2c-0.7,0.7-1.2,1.7-1.2,2.8c0,1.1,0.4,2.1,1.2,2.8c0.7,0.7,1.7,1.2,2.8,1.2
					c1.1,0,2.1-0.4,2.8-1.2c0.7-0.7,1.2-1.7,1.2-2.8c0-1.1-0.4-2.1-1.2-2.8C90.3,99.5,89.3,99.1,88.2,99.1z"/>
			</g>
		</g>
		<g>
			<g>
				<path class="st18" d="M64.7,67.2h13.1h13.1c0.3,0,0.6-0.1,0.9-0.3c0.2-0.2,0.4-0.5,0.4-0.9c0-0.3-0.1-0.7-0.4-0.9
					c-0.2-0.2-0.5-0.4-0.9-0.4H77.8H64.7c-0.3,0-0.7,0.1-0.9,0.4c-0.2,0.2-0.4,0.5-0.4,0.9c0,0.3,0.1,0.6,0.4,0.9
					C64,67.1,64.3,67.2,64.7,67.2z"/>
				<path class="st18" d="M90.9,67.5H77.8H64.7c-0.4,0-0.8-0.2-1-0.4s-0.4-0.6-0.4-1c0-0.4,0.2-0.8,0.4-1c0.3-0.3,0.6-0.4,1-0.4
					h13.1h13.1c0.4,0,0.8,0.2,1,0.4c0.3,0.3,0.4,0.6,0.4,1c0,0.4-0.2,0.8-0.4,1C91.6,67.3,91.3,67.5,90.9,67.5z M64.7,65
					c-0.3,0-0.5,0.1-0.7,0.3c-0.2,0.2-0.3,0.4-0.3,0.7c0,0.3,0.1,0.5,0.3,0.7c0.2,0.2,0.4,0.3,0.7,0.3h13.1h13.1
					c0.3,0,0.5-0.1,0.7-0.3c0.2-0.2,0.3-0.4,0.3-0.7c0-0.3-0.1-0.5-0.3-0.7c-0.2-0.2-0.4-0.3-0.7-0.3H77.8H64.7z"/>
			</g>
		</g>
	</g>
</g>
</svg>
