<?xml version="1.0" encoding="utf-8"?>
<!-- Generator: Adobe Illustrator 25.2.0, SVG Export Plug-In . SVG Version: 6.00 Build 0)  -->
<svg version="1.1" id="Layer_1" xmlns="http://www.w3.org/2000/svg" xmlns:xlink="http://www.w3.org/1999/xlink" x="0px" y="0px"
	 viewBox="0 0 170.1 170.1" style="enable-background:new 0 0 170.1 170.1;" xml:space="preserve">
<style type="text/css">
	.st0{fill:#EDEDED;}
	.st1{fill:url(#SVGID_1_);}
	.st2{fill:url(#SVGID_2_);}
	.st3{fill:url(#SVGID_3_);}
	.st4{fill:url(#SVGID_4_);}
	.st5{fill:url(#SVGID_5_);}
	.st6{fill:url(#SVGID_6_);}
	.st7{fill:url(#SVGID_7_);}
	.st8{fill:url(#SVGID_8_);}
	.st9{fill:url(#SVGID_9_);}
	.st10{fill:url(#SVGID_10_);}
	.st11{fill:url(#SVGID_11_);}
	.st12{fill:url(#SVGID_12_);}
	.st13{fill:url(#SVGID_13_);}
	.st14{fill:url(#SVGID_14_);}
	.st15{fill:url(#SVGID_15_);}
	.st16{fill:url(#SVGID_16_);}
	.st17{fill:url(#SVGID_17_);}
	.st18{fill:#FFFFFF;}
	.st19{fill:#ECC461;}
	.st20{fill:url(#SVGID_18_);}
	.st21{fill:url(#SVGID_19_);}
	.st22{fill:url(#SVGID_20_);}
	.st23{fill:url(#SVGID_21_);}
	.st24{fill:url(#SVGID_22_);}
	.st25{fill:url(#SVGID_23_);}
	.st26{fill:url(#SVGID_24_);}
	.st27{fill:url(#SVGID_25_);}
	.st28{fill:url(#SVGID_26_);}
	.st29{fill:url(#SVGID_27_);}
	.st30{fill:url(#SVGID_28_);}
	.st31{fill:url(#SVGID_29_);}
	.st32{fill:url(#SVGID_30_);}
	.st33{fill:url(#SVGID_31_);}
	.st34{fill:url(#SVGID_32_);}
	.st35{fill:url(#SVGID_33_);}
	.st36{fill:url(#SVGID_34_);}
	.st37{fill:#72C8B5;}
	.st38{fill:url(#SVGID_35_);}
	.st39{fill:url(#SVGID_36_);}
	.st40{fill:url(#SVGID_37_);}
	.st41{fill:url(#SVGID_38_);}
	.st42{fill:url(#SVGID_39_);}
	.st43{fill:url(#SVGID_40_);}
	.st44{fill:url(#SVGID_41_);}
	.st45{fill:url(#SVGID_42_);}
	.st46{fill:url(#SVGID_43_);}
	.st47{fill:url(#SVGID_44_);}
	.st48{fill:url(#SVGID_45_);}
	.st49{fill:url(#SVGID_46_);}
	.st50{fill:url(#SVGID_47_);}
	.st51{fill:url(#SVGID_48_);}
	.st52{fill:url(#SVGID_49_);}
	.st53{fill:url(#SVGID_50_);}
	.st54{fill:url(#SVGID_51_);}
	.st55{fill:#72BBD4;}
	.st56{fill:url(#SVGID_52_);}
	.st57{fill:url(#SVGID_53_);}
	.st58{fill:url(#SVGID_54_);}
	.st59{fill:url(#SVGID_55_);}
	.st60{fill:url(#SVGID_56_);}
	.st61{fill:url(#SVGID_57_);}
	.st62{fill:url(#SVGID_58_);}
	.st63{fill:url(#SVGID_59_);}
	.st64{fill:url(#SVGID_60_);}
	.st65{fill:url(#SVGID_61_);}
	.st66{fill:url(#SVGID_62_);}
	.st67{fill:url(#SVGID_63_);}
	.st68{fill:url(#SVGID_64_);}
	.st69{fill:url(#SVGID_65_);}
	.st70{fill:url(#SVGID_66_);}
	.st71{fill:url(#SVGID_67_);}
	.st72{fill:url(#SVGID_68_);}
	.st73{fill:url(#SVGID_69_);}
	.st74{fill:url(#SVGID_70_);}
	.st75{fill:url(#SVGID_71_);}
	.st76{fill:url(#SVGID_72_);}
	.st77{fill:url(#SVGID_73_);}
	.st78{fill:url(#SVGID_74_);}
	.st79{fill:url(#SVGID_75_);}
	.st80{fill:url(#SVGID_76_);}
	.st81{fill:url(#SVGID_77_);}
	.st82{fill:url(#SVGID_78_);}
	.st83{fill:url(#SVGID_79_);}
	.st84{fill:url(#SVGID_80_);}
	.st85{fill:url(#SVGID_81_);}
	.st86{fill:url(#SVGID_82_);}
	.st87{fill:url(#SVGID_83_);}
	.st88{fill:url(#SVGID_84_);}
	.st89{fill:url(#SVGID_85_);}
	.st90{fill:#F17F68;}
	.st91{fill:url(#SVGID_86_);}
	.st92{fill:url(#SVGID_87_);}
	.st93{fill:url(#SVGID_88_);}
	.st94{fill:url(#SVGID_89_);}
	.st95{fill:url(#SVGID_90_);}
	.st96{fill:url(#SVGID_91_);}
	.st97{fill:url(#SVGID_92_);}
	.st98{fill:url(#SVGID_93_);}
	.st99{fill:url(#SVGID_94_);}
	.st100{fill:url(#SVGID_95_);}
	.st101{fill:url(#SVGID_96_);}
	.st102{fill:url(#SVGID_97_);}
	.st103{fill:url(#SVGID_98_);}
	.st104{fill:url(#SVGID_99_);}
	.st105{fill:url(#SVGID_100_);}
	.st106{fill:url(#SVGID_101_);}
	.st107{fill:url(#SVGID_102_);}
	.st108{fill:url(#SVGID_103_);}
	.st109{fill:url(#SVGID_104_);}
	.st110{fill:url(#SVGID_105_);}
	.st111{fill:url(#SVGID_106_);}
	.st112{fill:url(#SVGID_107_);}
	.st113{fill:url(#SVGID_108_);}
	.st114{fill:url(#SVGID_109_);}
	.st115{fill:url(#SVGID_110_);}
	.st116{fill:url(#SVGID_111_);}
	.st117{fill:url(#SVGID_112_);}
	.st118{fill:url(#SVGID_113_);}
	.st119{fill:url(#SVGID_114_);}
	.st120{fill:url(#SVGID_115_);}
	.st121{fill:url(#SVGID_116_);}
	.st122{fill:url(#SVGID_117_);}
	.st123{fill:url(#SVGID_118_);}
	.st124{fill:url(#SVGID_119_);}
	.st125{fill-rule:evenodd;clip-rule:evenodd;fill:#FFFFFF;}
	.st126{fill:url(#SVGID_120_);}
	.st127{fill:url(#SVGID_121_);}
	.st128{fill:url(#SVGID_122_);}
	.st129{fill:url(#SVGID_123_);}
	.st130{fill:url(#SVGID_124_);}
	.st131{fill:url(#SVGID_125_);}
	.st132{fill:url(#SVGID_126_);}
	.st133{fill:url(#SVGID_127_);}
	.st134{fill:url(#SVGID_128_);}
	.st135{fill:url(#SVGID_129_);}
	.st136{fill:url(#SVGID_130_);}
	.st137{fill:url(#SVGID_131_);}
	.st138{fill:url(#SVGID_132_);}
	.st139{fill:url(#SVGID_133_);}
	.st140{fill:url(#SVGID_134_);}
	.st141{fill:url(#SVGID_135_);}
	.st142{fill:url(#SVGID_136_);}
	.st143{fill:url(#SVGID_137_);}
	.st144{fill:url(#SVGID_138_);}
	.st145{fill:url(#SVGID_139_);}
	.st146{fill:url(#SVGID_140_);}
	.st147{fill:url(#SVGID_141_);}
	.st148{fill:url(#SVGID_142_);}
	.st149{fill:url(#SVGID_143_);}
	.st150{fill:url(#SVGID_144_);}
	.st151{fill:url(#SVGID_145_);}
	.st152{fill:url(#SVGID_146_);}
	.st153{fill:url(#SVGID_147_);}
	.st154{fill:url(#SVGID_148_);}
	.st155{fill:url(#SVGID_149_);}
	.st156{fill:url(#SVGID_150_);}
	.st157{fill:url(#SVGID_151_);}
	.st158{fill:url(#SVGID_152_);}
	.st159{fill:url(#SVGID_153_);}
	.st160{fill:url(#SVGID_154_);}
	.st161{fill:url(#SVGID_155_);}
	.st162{fill:url(#SVGID_156_);}
	.st163{fill:url(#SVGID_157_);}
	.st164{fill:url(#SVGID_158_);}
	.st165{fill:url(#SVGID_159_);}
	.st166{fill:url(#SVGID_160_);}
	.st167{fill:url(#SVGID_161_);}
	.st168{fill:url(#SVGID_162_);}
	.st169{fill:url(#SVGID_163_);}
	.st170{fill:url(#SVGID_164_);}
	.st171{fill:url(#SVGID_165_);}
	.st172{fill:url(#SVGID_166_);}
	.st173{fill:url(#SVGID_167_);}
	.st174{fill:url(#SVGID_168_);}
	.st175{fill:url(#SVGID_169_);}
	.st176{fill:url(#SVGID_170_);}
	.st177{fill:url(#SVGID_171_);}
	.st178{fill:url(#SVGID_172_);}
	.st179{fill:url(#SVGID_173_);}
	.st180{fill:url(#SVGID_174_);}
	.st181{fill:url(#SVGID_175_);}
	.st182{fill:url(#SVGID_176_);}
	.st183{fill:url(#SVGID_177_);}
	.st184{fill:url(#SVGID_178_);}
	.st185{fill:url(#SVGID_179_);}
	.st186{fill:url(#SVGID_180_);}
	.st187{fill:url(#SVGID_181_);}
	.st188{fill:url(#SVGID_182_);}
	.st189{fill:url(#SVGID_183_);}
	.st190{fill:url(#SVGID_184_);}
	.st191{fill:url(#SVGID_185_);}
	.st192{fill:url(#SVGID_186_);}
	.st193{fill:url(#SVGID_187_);}
	.st194{fill:#FFFFFF;stroke:#010101;stroke-width:2.0974;stroke-linecap:round;stroke-linejoin:round;stroke-miterlimit:10;}
	.st195{fill:url(#SVGID_188_);}
	.st196{fill:url(#SVGID_189_);}
	.st197{fill:url(#SVGID_190_);}
	.st198{fill:url(#SVGID_191_);}
	.st199{fill:url(#SVGID_192_);}
	.st200{fill:url(#SVGID_193_);}
	.st201{fill:url(#SVGID_194_);}
	.st202{fill:url(#SVGID_195_);}
	.st203{fill:url(#SVGID_196_);}
	.st204{fill:url(#SVGID_197_);}
	.st205{fill:url(#SVGID_198_);}
	.st206{fill:url(#SVGID_199_);}
	.st207{fill:url(#SVGID_200_);}
	.st208{fill:url(#SVGID_201_);}
	.st209{fill:url(#SVGID_202_);}
	.st210{fill:url(#SVGID_203_);}
	.st211{fill:url(#SVGID_204_);}
	.st212{fill:#4576BB;}
</style>
<g>
	<g>
		<g>
			<path class="st0" d="M156.4,85c0,39.4-32,71.4-71.4,71.4c-39.4,0-71.4-32-71.4-71.4c0-39.4,32-71.4,71.4-71.4
				C124.5,13.6,156.4,45.6,156.4,85z"/>
			<linearGradient id="SVGID_1_" gradientUnits="userSpaceOnUse" x1="85.0394" y1="13.7396" x2="85.0394" y2="156.3159">
				<stop  offset="0" style="stop-color:#EDEDED"/>
				<stop  offset="1" style="stop-color:#ECECEC"/>
			</linearGradient>
			<path class="st1" d="M156.3,85c0,39.4-31.9,71.3-71.3,71.3c-39.4,0-71.3-31.9-71.3-71.3c0-39.4,31.9-71.3,71.3-71.3
				C124.4,13.7,156.3,45.7,156.3,85z"/>
			<linearGradient id="SVGID_2_" gradientUnits="userSpaceOnUse" x1="85.0394" y1="13.843" x2="85.0394" y2="156.1894">
				<stop  offset="0" style="stop-color:#ECECEC"/>
				<stop  offset="1" style="stop-color:#EAEAEA"/>
			</linearGradient>
			<path class="st2" d="M156.2,85c0,39.3-31.9,71.2-71.2,71.2c-39.3,0-71.2-31.9-71.2-71.2c0-39.3,31.9-71.2,71.2-71.2
				C124.3,13.8,156.2,45.7,156.2,85z"/>
			<linearGradient id="SVGID_3_" gradientUnits="userSpaceOnUse" x1="85.0394" y1="13.9464" x2="85.0394" y2="156.0629">
				<stop  offset="0" style="stop-color:#ECECEC"/>
				<stop  offset="1" style="stop-color:#E8E8E8"/>
			</linearGradient>
			<path class="st3" d="M156.1,85c0,39.2-31.8,71.1-71.1,71.1C45.8,156.1,14,124.2,14,85C14,45.8,45.8,13.9,85,13.9
				C124.3,13.9,156.1,45.8,156.1,85z"/>
			<linearGradient id="SVGID_4_" gradientUnits="userSpaceOnUse" x1="85.0394" y1="14.0498" x2="85.0394" y2="155.9363">
				<stop  offset="0" style="stop-color:#EBEBEB"/>
				<stop  offset="1" style="stop-color:#E7E7E7"/>
			</linearGradient>
			<path class="st4" d="M156,85c0,39.2-31.8,70.9-70.9,70.9c-39.2,0-70.9-31.8-70.9-70.9C14.1,45.8,45.9,14,85,14
				C124.2,14,156,45.8,156,85z"/>
			<linearGradient id="SVGID_5_" gradientUnits="userSpaceOnUse" x1="85.0394" y1="14.1531" x2="85.0394" y2="155.8098">
				<stop  offset="0" style="stop-color:#EBEBEB"/>
				<stop  offset="1" style="stop-color:#E5E5E5"/>
			</linearGradient>
			<path class="st5" d="M155.9,85c0,39.1-31.7,70.8-70.8,70.8c-39.1,0-70.8-31.7-70.8-70.8c0-39.1,31.7-70.8,70.8-70.8
				C124.2,14.2,155.9,45.9,155.9,85z"/>
			<linearGradient id="SVGID_6_" gradientUnits="userSpaceOnUse" x1="85.0394" y1="14.2565" x2="85.0394" y2="155.6832">
				<stop  offset="0" style="stop-color:#EAEAEA"/>
				<stop  offset="1" style="stop-color:#E3E3E3"/>
			</linearGradient>
			<path class="st6" d="M155.8,85c0,39.1-31.7,70.7-70.7,70.7C46,155.7,14.3,124,14.3,85C14.3,45.9,46,14.3,85,14.3
				C124.1,14.3,155.8,45.9,155.8,85z"/>
			<linearGradient id="SVGID_7_" gradientUnits="userSpaceOnUse" x1="85.0394" y1="14.3599" x2="85.0394" y2="155.5567">
				<stop  offset="0" style="stop-color:#EAEAEA"/>
				<stop  offset="1" style="stop-color:#E2E2E2"/>
			</linearGradient>
			<path class="st7" d="M155.6,85c0,39-31.6,70.6-70.6,70.6c-39,0-70.6-31.6-70.6-70.6C14.4,46,46,14.4,85,14.4
				C124,14.4,155.6,46,155.6,85z"/>
			<linearGradient id="SVGID_8_" gradientUnits="userSpaceOnUse" x1="85.0394" y1="14.4633" x2="85.0394" y2="155.4301">
				<stop  offset="0" style="stop-color:#EAEAEA"/>
				<stop  offset="1" style="stop-color:#E0E0E0"/>
			</linearGradient>
			<path class="st8" d="M155.5,84.9c0,38.9-31.6,70.5-70.5,70.5c-38.9,0-70.5-31.6-70.5-70.5C14.6,46,46.1,14.5,85,14.5
				C124,14.5,155.5,46,155.5,84.9z"/>
			<linearGradient id="SVGID_9_" gradientUnits="userSpaceOnUse" x1="85.0393" y1="14.5666" x2="85.0393" y2="155.3036">
				<stop  offset="0" style="stop-color:#E9E9E9"/>
				<stop  offset="1" style="stop-color:#DEDEDE"/>
			</linearGradient>
			<path class="st9" d="M155.4,84.9c0,38.9-31.5,70.4-70.4,70.4c-38.9,0-70.4-31.5-70.4-70.4c0-38.9,31.5-70.4,70.4-70.4
				C123.9,14.6,155.4,46.1,155.4,84.9z"/>
			<linearGradient id="SVGID_10_" gradientUnits="userSpaceOnUse" x1="85.0393" y1="14.67" x2="85.0393" y2="155.177">
				<stop  offset="0" style="stop-color:#E9E9E9"/>
				<stop  offset="1" style="stop-color:#DDDDDD"/>
			</linearGradient>
			<path class="st10" d="M155.3,84.9c0,38.8-31.5,70.3-70.3,70.3c-38.8,0-70.3-31.5-70.3-70.3c0-38.8,31.5-70.3,70.3-70.3
				C123.8,14.7,155.3,46.1,155.3,84.9z"/>
			<linearGradient id="SVGID_11_" gradientUnits="userSpaceOnUse" x1="85.0393" y1="14.7734" x2="85.0393" y2="155.0505">
				<stop  offset="0" style="stop-color:#E8E8E8"/>
				<stop  offset="1" style="stop-color:#DBDBDB"/>
			</linearGradient>
			<path class="st11" d="M155.2,84.9c0,38.7-31.4,70.1-70.1,70.1c-38.7,0-70.1-31.4-70.1-70.1c0-38.7,31.4-70.1,70.1-70.1
				C123.8,14.8,155.2,46.2,155.2,84.9z"/>
			<linearGradient id="SVGID_12_" gradientUnits="userSpaceOnUse" x1="85.0393" y1="14.8768" x2="85.0393" y2="154.924">
				<stop  offset="0" style="stop-color:#E8E8E8"/>
				<stop  offset="1" style="stop-color:#D9D9D9"/>
			</linearGradient>
			<path class="st12" d="M155.1,84.9c0,38.7-31.4,70-70,70c-38.7,0-70-31.4-70-70c0-38.7,31.3-70,70-70
				C123.7,14.9,155.1,46.2,155.1,84.9z"/>
			<linearGradient id="SVGID_13_" gradientUnits="userSpaceOnUse" x1="85.0393" y1="14.9801" x2="85.0393" y2="154.7974">
				<stop  offset="0" style="stop-color:#E7E7E7"/>
				<stop  offset="1" style="stop-color:#D8D8D8"/>
			</linearGradient>
			<path class="st13" d="M154.9,84.9c0,38.6-31.3,69.9-69.9,69.9c-38.6,0-69.9-31.3-69.9-69.9C15.1,46.3,46.4,15,85,15
				C123.6,15,154.9,46.3,154.9,84.9z"/>
			<linearGradient id="SVGID_14_" gradientUnits="userSpaceOnUse" x1="85.0393" y1="15.0835" x2="85.0393" y2="154.6709">
				<stop  offset="0" style="stop-color:#E7E7E7"/>
				<stop  offset="1" style="stop-color:#D6D6D6"/>
			</linearGradient>
			<path class="st14" d="M154.8,84.9c0,38.5-31.2,69.8-69.8,69.8c-38.5,0-69.8-31.2-69.8-69.8c0-38.5,31.2-69.8,69.8-69.8
				C123.6,15.1,154.8,46.3,154.8,84.9z"/>
			<linearGradient id="SVGID_15_" gradientUnits="userSpaceOnUse" x1="85.0393" y1="15.1869" x2="85.0393" y2="154.5443">
				<stop  offset="0" style="stop-color:#E6E6E6"/>
				<stop  offset="1" style="stop-color:#D4D4D4"/>
			</linearGradient>
			<path class="st15" d="M154.7,84.9c0,38.5-31.2,69.7-69.7,69.7c-38.5,0-69.7-31.2-69.7-69.7c0-38.5,31.2-69.7,69.7-69.7
				C123.5,15.2,154.7,46.4,154.7,84.9z"/>
			<linearGradient id="SVGID_16_" gradientUnits="userSpaceOnUse" x1="85.0393" y1="15.2903" x2="85.0393" y2="154.4178">
				<stop  offset="0" style="stop-color:#E6E6E6"/>
				<stop  offset="1" style="stop-color:#D3D3D3"/>
			</linearGradient>
			<path class="st16" d="M154.6,84.9c0,38.4-31.1,69.6-69.6,69.6c-38.4,0-69.6-31.1-69.6-69.6c0-38.4,31.1-69.6,69.6-69.6
				C123.5,15.3,154.6,46.4,154.6,84.9z"/>
			<linearGradient id="SVGID_17_" gradientUnits="userSpaceOnUse" x1="85.0393" y1="15.3937" x2="85.0393" y2="154.2912">
				<stop  offset="0" style="stop-color:#E6E6E6"/>
				<stop  offset="1" style="stop-color:#D1D1D1"/>
			</linearGradient>
			<path class="st17" d="M154.5,84.8c0,38.4-31.1,69.4-69.4,69.4c-38.4,0-69.4-31.1-69.4-69.4c0-38.4,31.1-69.5,69.4-69.5
				C123.4,15.4,154.5,46.5,154.5,84.8z"/>
		</g>
		<path class="st18" d="M154.7,84.3c0,38.5-31.2,69.7-69.7,69.7c-38.5,0-69.7-31.2-69.7-69.7c0-38.5,31.2-69.7,69.7-69.7
			C123.5,14.7,154.7,45.8,154.7,84.3z"/>
		<path class="st19" d="M150.3,84.3c0,36.1-29.2,65.3-65.3,65.3c-36.1,0-65.3-29.2-65.3-65.3C19.7,48.2,49,19,85,19
			C121.1,19,150.3,48.2,150.3,84.3z"/>
	</g>
	<g>
		<g>
			<path class="st18" d="M59.1,122.2c-0.3,0-0.5-0.1-0.7-0.3c-0.4-0.4-0.4-1.1,0-1.5l14.8-14.8c0.4-0.4,1.1-0.4,1.5,0
				c0.4,0.4,0.4,1.1,0,1.5l-14.8,14.8C59.7,122.1,59.4,122.2,59.1,122.2z"/>
		</g>
		<g>
			<path class="st18" d="M79.5,107.4H47.2c-2.8,0-5.1-2.3-5.1-5.1V60.6c0-2.8,2.3-5.1,5.1-5.1h15.8c0.6,0,1,0.5,1,1c0,0.6-0.5,1-1,1
				H47.2c-1.7,0-3,1.4-3,3v41.7c0,1.7,1.4,3,3,3h32.3c0.6,0,1,0.5,1,1C80.5,107,80.1,107.4,79.5,107.4z"/>
		</g>
		<g>
			<path class="st18" d="M87.5,60.6H64.3c-1.3,0-2.4-1.1-2.4-2.4v-3.4c0-1.3,1.1-2.4,2.4-2.4h25.5c0.6,0,1,0.5,1,1c0,0.6-0.5,1-1,1
				H64.3c-0.2,0-0.3,0.1-0.3,0.3v3.4c0,0.2,0.1,0.3,0.3,0.3h23.2c0.6,0,1,0.5,1,1C88.6,60.1,88.1,60.6,87.5,60.6z"/>
		</g>
		<g>
			<path class="st18" d="M81.5,102.3H43.1c-0.6,0-1-0.5-1-1c0-0.6,0.5-1,1-1h38.4c0.6,0,1,0.5,1,1C82.5,101.9,82.1,102.3,81.5,102.3
				z"/>
		</g>
		<g>
			<path class="st18" d="M53.7,93.5c-0.6,0-1-0.5-1-1v-6.4c0-0.6,0.5-1,1-1s1,0.5,1,1v6.4C54.7,93.1,54.2,93.5,53.7,93.5z"/>
		</g>
		<g>
			<path class="st18" d="M58.1,93.5c-0.6,0-1-0.5-1-1v-9.6c0-0.6,0.5-1,1-1s1,0.5,1,1v9.6C59.1,93.1,58.6,93.5,58.1,93.5z"/>
		</g>
		<g>
			<path class="st18" d="M62.5,93.5c-0.6,0-1-0.5-1-1V79.7c0-0.6,0.5-1,1-1s1,0.5,1,1v12.8C63.5,93.1,63,93.5,62.5,93.5z"/>
		</g>
		<g>
			<path class="st18" d="M66.8,93.5c-0.6,0-1-0.5-1-1v-8c0-0.6,0.5-1,1-1c0.6,0,1,0.5,1,1v8C67.9,93.1,67.4,93.5,66.8,93.5z"/>
		</g>
		<g>
			<path class="st18" d="M71.2,93.5c-0.6,0-1-0.5-1-1V81.8c0-0.6,0.5-1,1-1c0.6,0,1,0.5,1,1v10.7C72.3,93.1,71.8,93.5,71.2,93.5z"/>
		</g>
		<g>
			<path class="st18" d="M75.6,93.5c-0.6,0-1-0.5-1-1V78.6c0-0.6,0.5-1,1-1c0.6,0,1,0.5,1,1v13.9C76.7,93.1,76.2,93.5,75.6,93.5z"/>
		</g>
		<g>
			<path class="st18" d="M80,93.5c-0.6,0-1-0.5-1-1V75.4c0-0.6,0.5-1,1-1c0.6,0,1,0.5,1,1v17.1C81.1,93.1,80.6,93.5,80,93.5z"/>
		</g>
		<g>
			<path class="st18" d="M52.7,81.4c-0.3,0-0.6-0.1-0.8-0.4c-0.3-0.5-0.2-1.1,0.2-1.5l9.8-7.1c0.5-0.3,1.1-0.2,1.4,0.2l3.8,4.6
				l13-9.5c0.5-0.3,1.1-0.2,1.5,0.2c0.3,0.5,0.2,1.1-0.2,1.5l-13.8,10c-0.5,0.3-1.1,0.2-1.4-0.2l-3.8-4.6l-9,6.6
				C53.1,81.4,52.9,81.4,52.7,81.4z"/>
		</g>
		<g>
			<path class="st18" d="M102.9,87.7c-3.2,0-6.3-1.6-9-4.5c-2.3-2.5-4.2-6-5.2-9.6c-0.2-0.6,0.2-1.1,0.7-1.3
				c0.6-0.2,1.1,0.2,1.3,0.7c1.7,6.1,6.5,12.6,12.1,12.6c5.6,0,10.4-6.4,12.1-12.5c0.2-0.6,0.7-0.9,1.3-0.7c0.6,0.2,0.9,0.7,0.7,1.3
				C115.2,80.7,109.7,87.7,102.9,87.7z"/>
		</g>
		<g>
			<path class="st18" d="M90.1,121.9c-0.6,0-1-0.5-1-1v-13.5c0-0.6,0.5-1,1-1c0.6,0,1,0.5,1,1v13.5
				C91.1,121.4,90.7,121.9,90.1,121.9z"/>
		</g>
		<g>
			<path class="st18" d="M123,121.9H82.8c-2.8,0-5-2.2-5-5v-4.5c0-5.9,1.4-10.4,4.3-13.7c2.8-3.2,7.2-5.5,13.5-6.8
				c0.3-0.1,0.6,0,0.8,0.2l6.5,4.5l6.5-4.5c0.2-0.2,0.5-0.2,0.8-0.2c6.2,1.3,10.6,3.5,13.5,6.8c2.9,3.3,4.3,7.8,4.3,13.7v4.5
				C128,119.6,125.8,121.9,123,121.9z M95.6,94c-11.1,2.4-15.6,7.8-15.6,18.3v4.5c0,1.6,1.3,2.9,2.9,2.9H123c1.6,0,2.9-1.3,2.9-2.9
				v-4.5c0-10.5-4.5-15.9-15.6-18.3l-6.8,4.7c-0.4,0.2-0.8,0.2-1.2,0L95.6,94z"/>
		</g>
		<g>
			<path class="st18" d="M115.8,121.9c-0.6,0-1-0.5-1-1v-13.5c0-0.6,0.5-1,1-1c0.6,0,1,0.5,1,1v13.5
				C116.8,121.4,116.4,121.9,115.8,121.9z"/>
		</g>
		<g>
			<path class="st18" d="M95.8,94c-0.3,0-0.6-0.1-0.8-0.4c-0.4-0.4-0.3-1.1,0.1-1.5c0.9-0.7,1.4-4.2,1.4-7.1c0-0.6,0.5-1,1-1
				c0,0,0,0,0,0c0.6,0,1,0.5,1,1c0,0.1,0,1.7-0.2,3.5c-0.3,2.7-1,4.4-1.9,5.2C96.3,93.9,96,94,95.8,94z"/>
		</g>
		<g>
			<path class="st18" d="M110.1,94c-0.2,0-0.5-0.1-0.7-0.2c-1-0.8-1.6-2.5-1.9-5.2c-0.2-1.8-0.2-3.5-0.2-3.5c0-0.6,0.5-1,1-1
				c0.6,0,1,0.5,1,1c0,2.9,0.5,6.4,1.4,7.1c0.4,0.4,0.5,1,0.1,1.5C110.7,93.8,110.4,94,110.1,94z"/>
		</g>
		<g>
			<path class="st18" d="M116.3,74.5c-0.8,0-1.5-0.5-1.7-1.3c-0.8-2.8-1.8-8.3-1.8-8.6c0,0,0-0.1,0-0.1c0-0.1-0.2-0.2-0.3-0.2
				c-3.9,0-8-2-9.6-2.8l1.7,4.5c0.2,0.4,0,0.9-0.3,1.2c-0.3,0.3-0.8,0.3-1.2,0.1l-8.5-4.5c-0.3-0.2-0.7-0.1-1,0L91.4,73c0,0,0,0,0,0
				c-0.2,0.8-0.9,1.4-1.8,1.3c-0.8,0-1.5-0.6-1.7-1.4c-2.2-10.1-1.8-16.6,1.3-20.4c2.5-3.1,6.6-4.5,13.2-4.7c0,0,0.1,0,0.1,0
				c0.1,0,0.3,0,0.4,0c0.1,0,0.2,0,0.4,0c0,0,0.1,0,0.1,0c6.6,0.1,10.7,1.6,13.3,4.7c3.1,3.9,3.6,10.4,1.4,20.5
				C117.8,73.9,117.2,74.5,116.3,74.5C116.3,74.5,116.3,74.5,116.3,74.5z M114.8,64.3c0.1,0.5,0.8,4.3,1.5,7.1
				c1.8-8.7,1.4-14.2-1.2-17.4c-2.1-2.7-5.9-3.9-12.1-3.9c-6.2,0-9.9,1.3-12.1,3.9c-2.6,3.2-2.9,8.7-1.2,17.3l1.9-9
				c0-0.2,0.1-0.3,0.2-0.5c0.9-1,2.5-1.3,3.7-0.7l6.1,3.2l-0.9-2.5c0,0,0-0.1,0-0.1c-0.1-0.6,0.1-1.2,0.5-1.7
				c0.5-0.5,1.2-0.7,1.8-0.6c0.1,0,0.2,0.1,0.3,0.1c0,0,4.9,2.8,9.2,2.8C113.7,62.2,114.7,63.1,114.8,64.3z"/>
		</g>
	</g>
</g>
</svg>
