<?xml version="1.0" ?><!DOCTYPE svg  PUBLIC '-//W3C//DTD SVG 1.1//EN'  'http://www.w3.org/Graphics/SVG/1.1/DTD/svg11.dtd'><svg enable-background="new 0 0 50 50" id="Layer_1" version="1.1" viewBox="0 0 50 50" xml:space="preserve" xmlns="http://www.w3.org/2000/svg" xmlns:xlink="http://www.w3.org/1999/xlink"><g id="D"><path d="M25,11.3c-7.6,0-13.7,6.1-13.7,13.7c0,2.6,0.7,5,2,7l-2,3.9l4.6-0.8c2.4,2.2,5.6,3.5,9.1,3.5   c7.6,0,13.7-6.1,13.7-13.7C38.7,17.4,32.6,11.3,25,11.3z M25.9,31.4h-5.5V18.6h5.5c4.7,0,6.4,2.5,6.4,6.4   C32.3,28.8,30.6,31.4,25.9,31.4z" fill="#2E9FFF"/><path d="M25.9,21.4h-2.7v7.3h2.7c2.2,0,3.6-1.5,3.6-3.6C29.6,22.9,28.1,21.4,25.9,21.4z" fill="#2E9FFF"/></g><path d="M25,1C11.7,1,1,11.7,1,25s10.7,24,24,24s24-10.7,24-24S38.3,1,25,1z M25,44C14.5,44,6,35.5,6,25S14.5,6,25,6  s19,8.5,19,19S35.5,44,25,44z" fill="#2E9FFF"/></svg>